<svg id="Layer_1" data-name="Layer 1" xmlns="http://www.w3.org/2000/svg" viewBox="0 0 45 45"><defs><style>.cls-1{fill:#f5ab1c;fill-rule:evenodd;}.cls-2{fill:#fff;}</style></defs><title>Icon-Security</title><path class="cls-1" d="M8,0H37a8,8,0,0,1,8,8V37a8,8,0,0,1-8,8H8a8,8,0,0,1-8-8V8A8,8,0,0,1,8,0Z"/><path class="cls-2" d="M22.5,7.8c3.53,2.21,7,3.36,13,3.6v12c0,11-10.52,14.44-13,15.07-2.48-.62-13-4.11-13-15.07v-12c6-.23,9.47-1.39,13-3.6m0-1.8C18.86,8.58,14.89,9.84,8,9.94V23.39C8,36.06,20.68,39.59,22.5,40,24.32,39.59,37,36.06,37,23.39V9.94C30.11,9.84,26.14,8.58,22.5,6Z"/><path class="cls-2" d="M26.5,15.5v6h-8v-6h8m.13-1.5H18.37A1.35,1.35,0,0,0,17,15.34v6.32A1.35,1.35,0,0,0,18.37,23h8.26A1.35,1.35,0,0,0,28,21.66V15.34A1.35,1.35,0,0,0,26.63,14Z"/><path class="cls-2" d="M21.2,17h2.56a.75.75,0,0,1,.75.75h0a.75.75,0,0,1-.75.75H21.2a.75.75,0,0,1-.75-.75h0A.75.75,0,0,1,21.2,17Z"/><polygon class="cls-2" points="25 26.3 25 24 23.96 24 23.96 25.73 22.64 26.45 23.96 27.9 23.96 28.58 22.72 29.93 23.96 30.96 23.96 31.25 22.55 32.23 21.02 31 21.02 24 20 24 20 31.51 22.5 33.57 25 31.75 25 30.4 24.28 29.83 25 28.93 25 27.48 24.36 26.73 25 26.3"/></svg>