<svg id="Layer_1" data-name="Layer 1" xmlns="http://www.w3.org/2000/svg" viewBox="0 0 45 45"><defs><style>.cls-1{fill:#18acb6;fill-rule:evenodd;}.cls-2{fill:#fff;}</style></defs><title>Icon-Transfers</title><path class="cls-1" d="M8,0H37a8,8,0,0,1,8,8V37a8,8,0,0,1-8,8H8a8,8,0,0,1-8-8V8A8,8,0,0,1,8,0Z"/><path class="cls-2" d="M23.37,33.25H16.66a4.51,4.51,0,0,1-4.48-4.53V24l2,2a.85.85,0,0,0,1.22,0,.88.88,0,0,0,0-1.23l-3.44-3.48a.85.85,0,0,0-1.22,0L7.26,24.79a.88.88,0,0,0,0,1.23.85.85,0,0,0,1.22,0l2-2v4.69A6.25,6.25,0,0,0,16.66,35h6.71a.87.87,0,0,0,0-1.74ZM37.75,19a.85.85,0,0,0-1.22,0l-2,2V16.33a6.25,6.25,0,0,0-6.2-6.27H21.64a.87.87,0,0,0,0,1.74h6.71a4.51,4.51,0,0,1,4.48,4.53V21l-2-2a.85.85,0,0,0-1.22,0,.88.88,0,0,0,0,1.23l3.44,3.48a.85.85,0,0,0,1.22,0l3.44-3.48A.88.88,0,0,0,37.75,19ZM26,33.25a.87.87,0,1,0,.86.87A.87.87,0,0,0,26,33.25Zm2.58,0a.87.87,0,1,0,.86.87A.87.87,0,0,0,28.54,33.25Zm2.58-.87a.87.87,0,1,0,.86.87A.87.87,0,0,0,31.12,32.38Zm1.72-1.74a.87.87,0,1,0,.86.87A.87.87,0,0,0,32.85,30.63ZM33.71,28a.87.87,0,1,0,.86.87A.87.87,0,0,0,33.71,28ZM19.06,11.8a.87.87,0,1,0-.86-.87A.87.87,0,0,0,19.06,11.8Zm-2.58,0a.87.87,0,1,0-.86-.87A.87.87,0,0,0,16.47,11.8Zm-2.58.87A.87.87,0,1,0,13,11.8.87.87,0,0,0,13.89,12.67Zm-1.72,1.74a.87.87,0,1,0-.86-.87A.87.87,0,0,0,12.17,14.41ZM11.31,17a.87.87,0,1,0-.86-.87A.87.87,0,0,0,11.31,17Z"/></svg>