<svg id="Layer_1" data-name="Layer 1" xmlns="http://www.w3.org/2000/svg" viewBox="0 0 45 45"><defs><style>.cls-1{fill:#886cc4;fill-rule:evenodd;}.cls-2{fill:#fff;}</style></defs><title>Icon-Support</title><path class="cls-1" d="M8,0H37a8,8,0,0,1,8,8V37a8,8,0,0,1-8,8H8a8,8,0,0,1-8-8V8A8,8,0,0,1,8,0Z"/><path class="cls-2" d="M18.47,17.29a1.2,1.2,0,1,0,1.21,1.2A1.2,1.2,0,0,0,18.47,17.29Zm3.63,2.4a1.2,1.2,0,1,0-1.21-1.2A1.2,1.2,0,0,0,22.1,19.7Zm-8.46-1.2a1.21,1.21,0,1,0,1.21-1.2A1.2,1.2,0,0,0,13.64,18.5ZM34.76,22h-4.2v1.6h4.2a.63.63,0,0,1,.63.63l0,6.52a.63.63,0,0,1-.63.63H33.56a.61.61,0,0,0-.61.61v1.8l-2.42-2.4H23.25a.63.63,0,0,1-.63-.63l0-6.52a.63.63,0,0,1,.63-.63h2.45V22H23.27A2.24,2.24,0,0,0,21,24.23l0,6.52A2.24,2.24,0,0,0,23.25,33h6.48l2.78,2.85A1.2,1.2,0,0,0,34.56,35V33h.17A2.24,2.24,0,0,0,37,30.75l0-6.52A2.24,2.24,0,0,0,34.76,22Zm-17.9,3.38-3.74,3.71a.17.17,0,0,1-.29-.12V25.81a.43.43,0,0,0-.43-.43H10.8A1.19,1.19,0,0,1,9.61,24.2V12.87a1.19,1.19,0,0,1,1.19-1.18H26.19a1.19,1.19,0,0,1,1.19,1.18V24.2a1.19,1.19,0,0,1-1.19,1.18H24.31V27h1.88A2.8,2.8,0,0,0,29,24.2V12.87a2.8,2.8,0,0,0-2.8-2.78H10.8A2.8,2.8,0,0,0,8,12.87V24.2A2.8,2.8,0,0,0,10.8,27h.42v2.4A1.61,1.61,0,0,0,14,30.51L17.53,27h1.94v-1.6H16.86Z"/></svg>