<svg id="Layer_1" data-name="Layer 1" xmlns="http://www.w3.org/2000/svg" viewBox="0 0 45 45"><defs><style>.cls-1{fill:#6a7279;fill-rule:evenodd;}.cls-2{fill:#fff;}</style></defs><title>iconIcon-Analytics</title><path class="cls-1" d="M8,0H37a8,8,0,0,1,8,8V37a8,8,0,0,1-8,8H8a8,8,0,0,1-8-8V8A8,8,0,0,1,8,0Z"/><path class="cls-2" d="M9,32a1,1,0,1,0,1,1A1,1,0,0,0,9,32Zm0-4a1,1,0,1,0,1,1A1,1,0,0,0,9,28Zm0-4a1,1,0,1,0,1,1A1,1,0,0,0,9,24Zm0-4a1,1,0,1,0,1,1A1,1,0,0,0,9,20Zm0-4a1,1,0,1,0,1,1A1,1,0,0,0,9,16Zm0-4a1,1,0,1,0,1,1A1,1,0,0,0,9,12Zm7.32,17.1,1.18-4.79L19,26.79a.83.83,0,0,0,.72.41h1.67a.84.84,0,0,0,.82-.69l1.63-9,.95,2.4a.83.83,0,0,0,.77.53h2.06L29,22.59a.83.83,0,0,0,.69.38h2.5a.83.83,0,0,0,.75-.47L35.18,18a2.47,2.47,0,0,0,.33,0,2.52,2.52,0,1,0-1.82-.79l-2,4.06H30.14l-1.42-2.17a.83.83,0,0,0-.69-.38H26.09l-1.81-4.58a.83.83,0,0,0-1.6.16l-2,11.2h-.5L17.9,21.68a.83.83,0,0,0-1.53.23l-1.62,6.6-3.22,4.09a.8.8,0,0,0,0,.1.64.64,0,0,0-.11.33.8.8,0,0,0,0,.11s0,0,0,0a.71.71,0,0,0,.16.44.82.82,0,0,0,.11.14l0,0,.12.07.1.06a.82.82,0,0,0,.3.06h4a.83.83,0,0,0,.56-.22L18,32.61l.27.27a.83.83,0,0,0,.59.25h1.67a.83.83,0,0,0,.67-.34L23,30.36l1,1.55a.83.83,0,0,0,.69.38H28a.83.83,0,0,0,.59-.25l.59-.6h2.16a.83.83,0,0,0,.59-.25l1.44-1.46A2.47,2.47,0,0,0,34.5,30,2.5,2.5,0,1,0,32,27.5a2.47,2.47,0,0,0,.22,1L31,29.75H28.86a.83.83,0,0,0-.59.25l-.59.6H25.14l-1.42-2.17a.83.83,0,0,0-.67-.38.84.84,0,0,0-.69.34L20.1,31.44h-.91l-.59-.6a.82.82,0,0,0-1.15,0l-1.59,1.47h-2l2.25-2.86A.86.86,0,0,0,16.32,29.1ZM35.5,14.67a.83.83,0,1,1-.83.83A.83.83,0,0,1,35.5,14.67Zm-1,12a.83.83,0,1,1-.83.83A.83.83,0,0,1,34.5,26.67Z"/></svg>