<svg id="Layer_1" data-name="Layer 1" xmlns="http://www.w3.org/2000/svg" viewBox="0 0 45 45"><defs><style>.cls-1{fill:#31abed;}.cls-1,.cls-2{fill-rule:evenodd;}.cls-2,.cls-3{fill:#fff;}</style></defs><title>Icon-CloudAutomation</title><path class="cls-1" d="M8,0H37a8,8,0,0,1,8,8V37a8,8,0,0,1-8,8H8a8,8,0,0,1-8-8V8A8,8,0,0,1,8,0Z"/><path class="cls-2" d="M35.32,25.88A4.68,4.68,0,0,0,36,23.44a4.92,4.92,0,0,0-4.18-4.72,1.64,1.64,0,0,1-1.34-1.2,3.33,3.33,0,0,0-2.95-2.47,1.68,1.68,0,0,1-1.22-.72,6.73,6.73,0,0,0-5.54-2.87,6.54,6.54,0,0,0-6.49,5.19,1.62,1.62,0,0,1-1.12,1.23A5.32,5.32,0,0,0,9.36,23a5.44,5.44,0,0,0,5.54,5.33h2.8c0,.12,0,.23,0,.35a8.27,8.27,0,0,0,.11,1.25H14.9A7.08,7.08,0,0,1,7.69,23a6.94,6.94,0,0,1,5-6.59,8.2,8.2,0,0,1,8.13-6.5,8.37,8.37,0,0,1,6.94,3.6,5,5,0,0,1,4.39,3.68,6.53,6.53,0,0,1,5.56,6.3,6.24,6.24,0,0,1-1.21,3.67A8.29,8.29,0,0,0,35.32,25.88Z"/><path class="cls-3" d="M27.6,22.5a.13.13,0,0,1,.13.1l.17.67.19.76.73.28.23.09.71.31.66-.4L31,24l.07,0a.12.12,0,0,1,.09,0l.85.85A.13.13,0,0,1,32,25l-.36.6-.4.66.31.71.09.22.28.73.76.19.68.17a.13.13,0,0,1,.1.13V29.6a.13.13,0,0,1-.1.13l-.68.17-.76.19-.28.73-.09.23-.31.71.4.66L32,33a.13.13,0,0,1,0,.16l-.84.85a.12.12,0,0,1-.09,0L31,34l-.6-.36-.67-.4L29,33.6l-.23.09-.73.28-.19.76-.17.68a.13.13,0,0,1-.13.1H26.4a.13.13,0,0,1-.13-.1l-.17-.67L25.92,34l-.73-.28L25,33.6l-.71-.32-.67.4L23,34l-.07,0a.12.12,0,0,1-.09,0L22,33.17A.13.13,0,0,1,22,33l.36-.6.4-.67L22.4,31l-.09-.22L22,30.08l-.76-.19-.68-.17a.13.13,0,0,1-.1-.13V28.4a.13.13,0,0,1,.1-.13l.67-.17.76-.19.28-.73.09-.23.31-.71-.4-.67L22,25a.13.13,0,0,1,0-.16l.84-.84a.12.12,0,0,1,.1,0L23,24l.6.36.67.4.71-.31.23-.1.72-.28.19-.75.17-.67a.13.13,0,0,1,.13-.1H27.6m0-1.5H26.4a1.63,1.63,0,0,0-1.58,1.24l-.17.67-.29.12-.6-.36a1.64,1.64,0,0,0-.84-.23,1.62,1.62,0,0,0-1.15.48l-.85.85a1.63,1.63,0,0,0-.25,2l.36.6-.12.29-.67.17A1.63,1.63,0,0,0,19,28.4V29.6a1.63,1.63,0,0,0,1.24,1.58l.68.17.12.29-.36.6a1.63,1.63,0,0,0,.25,2l.84.84a1.63,1.63,0,0,0,2,.25l.6-.36.29.12.17.67A1.63,1.63,0,0,0,26.4,37h1.2a1.63,1.63,0,0,0,1.58-1.24l.17-.67.29-.12.6.36a1.63,1.63,0,0,0,2-.24l.85-.85a1.63,1.63,0,0,0,.24-2l-.36-.6.12-.29.68-.17A1.63,1.63,0,0,0,35,29.6V28.4a1.63,1.63,0,0,0-1.24-1.58l-.67-.17L33,26.36l.36-.6a1.63,1.63,0,0,0-.25-2l-.84-.85a1.63,1.63,0,0,0-2-.24l-.59.36-.29-.12-.17-.67A1.63,1.63,0,0,0,27.6,21Z"/><path class="cls-2" d="M25.24,29.59l2.34-2.34a.83.83,0,0,1,1.17,1.17l-2.34,2.34a.83.83,0,0,1-1.17-1.17Z"/></svg>