<svg id="Layer_1" data-name="Layer 1" xmlns="http://www.w3.org/2000/svg" viewBox="0 0 100 100"><defs><style>.cls-1,.cls-4{fill:#F99316;}.cls-1{opacity:0.15;isolation:isolate;}.cls-2,.cls-3{fill:none;stroke:#F99316;stroke-miterlimit:10;}.cls-2{stroke-width:2px;}.cls-3{stroke-width:1.85px;}</style></defs><title>devops-consulting-services-side-icons</title><circle class="cls-1" cx="50" cy="50" r="47.98"/><path class="cls-2" d="M53,74.64H47.05c-.59-1.66-1.19-3.31-1.77-5a.94.94,0,0,0-.65-.65c-1.4-.54-2.78-1.12-4.15-1.73a.83.83,0,0,0-.81,0c-1.46.72-3,1.4-4.42,2.12a.58.58,0,0,1-.81-.14q-1.68-1.73-3.4-3.39a.69.69,0,0,1-.17-1c.72-1.44,1.41-2.91,2.07-4.38a1,1,0,0,0,0-.74q-.85-2.13-1.78-4.25a1,1,0,0,0-.51-.54c-1.53-.58-3.07-1.12-4.62-1.65-.34-.12-.46-.26-.45-.62,0-1.66,0-3.32,0-5a.54.54,0,0,1,.44-.63c1.51-.51,3-1.07,4.52-1.59a1,1,0,0,0,.69-.69c.52-1.38,1.1-2.74,1.7-4.09a.9.9,0,0,0,0-.87c-.72-1.45-1.39-2.92-2.1-4.37a.61.61,0,0,1,.14-.86c1.15-1.11,2.29-2.24,3.4-3.39a.68.68,0,0,1,1-.15c1.44.72,2.89,1.38,4.33,2.08a.83.83,0,0,0,.81,0c1.39-.61,2.8-1.17,4.19-1.77a1.17,1.17,0,0,0,.57-.55c.63-1.66,1.21-3.34,1.8-5H53q.9,2.49,1.77,5a1,1,0,0,0,.65.65c1.4.54,2.77,1.15,4.16,1.7a1.08,1.08,0,0,0,.79,0q2.24-1,4.44-2.1a.59.59,0,0,1,.81.14q1.7,1.74,3.43,3.44a.61.61,0,0,1,.16.86q-1.09,2.19-2.11,4.43a1.05,1.05,0,0,0,0,.74c.57,1.43,1.16,2.84,1.77,4.25a1,1,0,0,0,.51.54c1.53.58,3.08,1.13,4.63,1.65a.54.54,0,0,1,.44.63c0,1.65,0,3.32,0,5a.54.54,0,0,1-.44.63c-1.53.52-3,1.08-4.58,1.61a.92.92,0,0,0-.61.62c-.54,1.42-1.16,2.8-1.72,4.21a1.05,1.05,0,0,0,0,.74q1,2.23,2.11,4.43a.63.63,0,0,1-.15.86C67.84,67,66.7,68.1,65.57,69.26a.59.59,0,0,1-.81.14c-1.47-.72-3-1.4-4.43-2.12a.83.83,0,0,0-.81,0c-1.39.61-2.8,1.17-4.19,1.77a1.17,1.17,0,0,0-.57.55C54.13,71.28,53.55,73,53,74.64ZM61,50.23a11,11,0,1,0-11,11A11,11,0,0,0,61,50.23Z"/><path class="cls-3" d="M13.89,50A36.11,36.11,0,0,0,48,86.05"/><polygon class="cls-4" points="41.19 92.85 40.07 91.38 47.3 85.85 41.26 79.04 42.64 77.81 50 86.11 41.19 92.85"/><path class="cls-3" d="M86.11,50A36.11,36.11,0,0,0,52,14"/><polygon class="cls-4" points="58.81 7.15 59.93 8.62 52.7 14.15 58.74 20.96 57.36 22.19 50 13.89 58.81 7.15"/></svg>