<?xml version="1.0" encoding="UTF-8"?>
<svg width="150px" height="150px" viewBox="0 0 150 150" version="1.1" xmlns="http://www.w3.org/2000/svg" xmlns:xlink="http://www.w3.org/1999/xlink">
    <!-- Generator: Sketch 57.1 (83088) - https://sketch.com -->
    <title>DevOps Strategy and Advisory Services</title>
    <desc>Created with Sketch.</desc>
    <g id="DevOps-Strategy-and-Advisory-Services" stroke="none" stroke-width="1" fill="none" fill-rule="evenodd">
        <path d="M75.5,8 C109.465512,8 137,35.3106303 137,69 C137,102.68937 109.465512,130 75.5,130 C41.5344879,130 14,102.68937 14,69 C14,35.3106303 41.5344879,8 75.5,8 Z M75,14 C44.6243388,14 20,38.6243388 20,69 C20,99.3756612 44.6243388,124 75,124 C105.375661,124 130,99.3756612 130,69 C130,38.6243388 105.375661,14 75,14 Z" id="Combined-Shape-Copy" fill="#D2DAE1"></path>
        <polygon id="Triangle-Copy-3" fill="#A4A7A9" transform="translate(80.122390, 11.250000) rotate(-270.000000) translate(-80.122390, -11.250000) " points="80.1223898 4.50333333 91.1223898 17.9966667 69.1223898 17.9966667"></polygon>
        <polygon id="Triangle-Copy-6" fill="#A4A7A9" transform="translate(80.122390, 127.250000) scale(-1, 1) rotate(-270.000000) translate(-80.122390, -127.250000) " points="80.1223898 120.503333 91.1223898 133.996667 69.1223898 133.996667"></polygon>
        <polygon id="Triangle-Copy-4" fill="#A4A7A9" points="133.572316 74.25 122.298506 60.6442492 144.375143 60.25"></polygon>
        <polygon id="Triangle-Copy-5" fill="#A4A7A9" points="17.4870984 60.25 6.21328873 73.8557508 28.2899258 74.25"></polygon>
        <path d="M65.2820421,79.8410195 L58.0887345,79.7745744 C57.3596122,79.3986351 57.0518771,78.8058751 57.0011708,77.9823058 C56.927734,76.8055284 56.7406451,75.6339967 56.6217474,74.4589679 C56.5937715,74.175702 56.4801193,74.0637945 56.2160966,73.9571326 C54.8557677,73.405755 53.5041812,72.8328119 52.1613372,72.2383033 C51.9043085,72.1246472 51.7416985,72.1141559 51.5143942,72.294257 C50.4967702,73.0968437 49.4669068,73.8836933 48.4370433,74.6687944 C47.6781966,75.2475661 46.9455773,75.1933609 46.2724068,74.5131731 C44.8619543,73.0828552 43.4544161,71.6490403 42.0497919,70.2117283 C41.3591365,69.5123064 41.3241666,68.7796619 41.9361398,68.0085492 C42.7317049,67.0066273 43.52727,66.0029569 44.3385716,65.0132749 C44.5126197,64.8454771 44.5494473,64.5804534 44.4277448,64.3715553 C43.8519072,63.0030197 43.2970515,61.6257414 42.7631778,60.2397203 C42.7139295,60.0214617 42.5234477,59.8640392 42.2998267,59.8567868 C41.0304195,59.7064111 39.7645092,59.5228129 38.495102,59.3671915 C37.508951,59.2465412 36.993145,58.6852551 37.0000688,57.6903274 C37.0176239,55.6993064 37.0362745,53.7071196 37.0560908,51.7137672 C37.0665818,50.6838684 37.5806393,50.1400679 38.6017602,50.0299089 C39.8729159,49.9005159 41.1423231,49.7379003 42.4152273,49.6155014 C42.6949865,49.5875246 42.7754172,49.4581315 42.8715845,49.2238252 C43.4293543,47.8651981 43.9976151,46.5100681 44.5956003,45.1689266 C44.7264703,44.947291 44.6920378,44.6653654 44.5116726,44.4817446 C43.7196044,43.4780741 42.9380273,42.4621638 42.1651926,41.4462535 C41.5864408,40.6873807 41.6406441,39.947742 42.3155631,39.2797941 C43.7586541,37.8588019 45.2040765,36.440724 46.6518302,35.0255603 C47.3319946,34.362858 48.0698594,34.3261384 48.8199637,34.9328869 C49.8340907,35.7389706 50.8482176,36.546803 51.8501052,37.3668751 C52.0133751,37.5224657 52.2607866,37.5490006 52.4533359,37.4315717 C53.8241558,36.8580457 55.2013868,36.303171 56.585029,35.7669475 C56.8245728,35.6725256 56.9452189,35.592092 56.9784403,35.3105747 C57.1270624,34.0411239 57.3124028,32.7751703 57.4662704,31.5057195 C57.588665,30.5125404 58.1446864,29.9914711 59.1325859,30.0001056 C61.1421892,30.0165337 63.1512097,30.0351849 65.1596474,30.0561676 C66.151044,30.0666589 66.7018198,30.5947225 66.8032325,31.586153 C66.9326211,32.8416154 67.0934826,34.0953291 67.2158773,35.35254 C67.2456017,35.6567886 67.3697448,35.7739417 67.646007,35.8858492 C68.9911823,36.4313983 70.3276152,36.9996786 71.6553055,37.5906902 C71.9280707,37.7113404 72.1011717,37.7200832 72.342464,37.5277422 C73.3565909,36.7216584 74.3847059,35.9348088 75.4163178,35.1497077 C76.1489371,34.5919187 76.8920474,34.6461239 77.5442359,35.3070776 C78.9675107,36.7455553 80.3867056,38.1892787 81.8018207,39.6382478 C82.4714942,40.3219327 82.5099611,41.06332 81.9189699,41.8082043 C81.1146623,42.8223661 80.3045264,43.8330308 79.4885621,44.8401983 C79.3263569,44.9975232 79.2898046,45.2440805 79.3993889,45.4417012 C79.9798892,46.824808 80.5219226,48.2254004 81.0989258,49.6102558 C81.1793748,49.7810598 81.3298903,49.9086197 81.5115706,49.9599667 C82.6953016,50.1348222 83.880781,50.3324089 85.0732545,50.4320765 C85.8932985,50.5002702 86.4860383,50.8097644 86.8409827,51.5546487 L86.7727914,58.7499516 C86.4021105,59.4825961 85.8093708,59.7885932 84.9858297,59.8393013 C83.8073442,59.9127406 82.6376012,60.0998359 81.4643612,60.2187377 C81.2240985,60.2207238 81.0159022,60.3857016 80.9590463,60.6191567 C80.4100189,61.9795323 79.8376783,63.3305823 79.2420244,64.6723067 C79.1092581,64.8923635 79.1423529,65.1743988 79.3224551,65.3577402 C80.1162718,66.3614106 80.8961004,67.377321 81.6689351,68.3914827 C82.2529324,69.1556012 82.2074715,69.8864971 81.5273071,70.5561936 C80.0853817,71.9748544 78.6393765,73.3906009 77.1892915,74.8034331 C76.512624,75.4643869 75.7642683,75.5028551 75.021158,74.9083464 C74.0192705,74.1145026 73.017383,73.3206587 72.0294834,72.5093293 C71.84814,72.3269447 71.5666945,72.2896088 71.3440735,72.4184044 C70.0082234,72.9849362 68.660134,73.523491 67.3085475,74.049806 C67.0427763,74.1529708 66.8906573,74.2438956 66.8556874,74.5638811 C66.7245502,75.7371614 66.5059884,76.9016989 66.4098212,78.0767277 C66.3486239,78.8950513 66.0269008,79.4878114 65.2820421,79.8410195 Z M74.6699867,55.3249343 C74.7332948,48.4477459 69.2125643,42.8197845 62.3353782,42.7507466 C55.458192,42.6817088 49.8255892,48.1977055 49.7508206,55.0747788 C49.6760521,61.9518521 55.1873962,67.5890056 62.0644578,67.6695037 C68.9239664,67.7587922 74.6087098,62.1896424 74.6699867,55.3249343 Z" id="Shape-Copy-4" fill="#F13624" fill-rule="nonzero"></path>
        <path d="M98.3656852,93.8410021 L94.2032062,93.802553 C93.7812923,93.585012 93.6032183,93.2420054 93.5738766,92.7654389 C93.5313816,92.0844849 93.4231208,91.4065664 93.3543195,90.7266243 C93.3381309,90.5627097 93.272365,90.4979533 93.1195856,90.4362324 C92.3324177,90.1171722 91.5503088,89.785633 90.7732587,89.4416147 C90.6245265,89.3758464 90.5304306,89.3697755 90.3988987,89.4739928 C89.8100404,89.9384176 89.2140997,90.393736 88.618159,90.8480426 C88.1790448,91.1829545 87.7551073,91.1515881 87.3655705,90.7579907 C86.5493981,89.9303231 85.7349121,89.1006318 84.9221124,88.2689169 C84.5224577,87.8641894 84.502222,87.4402374 84.8563464,86.9940254 C85.3167081,86.4142533 85.7770698,85.8334694 86.2465375,85.2607801 C86.3472521,85.1636822 86.3685628,85.0103236 86.2981385,84.8894426 C85.9649243,84.0975259 85.6438515,83.3005501 85.3349202,82.4985152 C85.3064222,82.3722176 85.196198,82.2811236 85.0667975,82.2769269 C84.3322423,82.1899105 83.5997108,82.0836695 82.8651557,81.9936177 C82.2945095,81.9238022 81.9960333,81.5990084 82.0000398,81.0232836 C82.0101983,79.8711595 82.0209906,78.7183608 82.0324575,77.5648875 C82.0385282,76.9689264 82.3359927,76.6542508 82.9268745,76.5905062 C83.6624414,76.5156316 84.3969965,76.4215325 85.1335752,76.3507052 C85.2954606,76.3345161 85.3420027,76.2596415 85.3976508,76.1240578 C85.7204099,75.3378747 86.0492396,74.5537153 86.3952697,73.7776504 C86.470999,73.6493987 86.4510743,73.4862597 86.3467041,73.3800057 C85.888366,72.7992218 85.4360986,72.2113551 84.9888901,71.6234885 C84.6539896,71.1843592 84.6853549,70.7563599 85.0759035,70.3698452 C85.9109625,69.5475739 86.7473705,68.726989 87.5851276,67.9080905 C87.9787116,67.5246112 88.4056844,67.503363 88.8397397,67.8544641 C89.4265743,68.3209125 90.013409,68.7883727 90.5931612,69.2629156 C90.6876389,69.3529497 90.8308061,69.3683044 90.9422266,69.3003529 C91.7354652,68.9684764 92.5324137,68.6473926 93.333072,68.3371016 C93.4716864,68.2824634 93.5414995,68.2359197 93.5607234,68.0730169 C93.646725,67.3384366 93.7539741,66.6058799 93.8430111,65.8712996 C93.913836,65.2965866 94.2355832,64.9950646 94.8072412,65.0000611 C95.9701181,65.0095674 97.1326578,65.0203601 98.2948603,65.0325019 C98.8685418,65.0385728 99.1872537,65.3441421 99.2459372,65.9178432 C99.3208092,66.644329 99.4138933,67.369803 99.4847182,68.0973006 C99.5019185,68.273357 99.5737552,68.3411489 99.733617,68.4059053 C100.512016,68.7215927 101.285356,69.0504337 102.053638,69.3924284 C102.211476,69.4622439 102.311642,69.467303 102.451269,69.356003 C103.038103,68.8895546 103.633032,68.4342362 104.229985,67.9799296 C104.653922,67.6571595 105.08393,67.6885258 105.461326,68.0709933 C106.284918,68.9033828 107.106149,69.7388077 107.92502,70.577268 C108.312533,70.9728891 108.334792,71.4019002 107.992809,71.832935 C107.527388,72.4197898 107.058595,73.0046209 106.586429,73.5874285 C106.492568,73.6784661 106.471416,73.8211389 106.534828,73.9354941 C106.870741,74.7358426 107.184394,75.5463094 107.518282,76.3476697 C107.564835,76.4465072 107.651932,76.520321 107.757063,76.5500334 C108.442041,76.6512153 109.128031,76.7655508 109.818067,76.8232245 C110.292594,76.8626854 110.635589,77.0417773 110.840981,77.472812 L110.801521,81.6364457 C110.587023,82.0603977 110.244028,82.237466 109.767478,82.2668087 C109.085536,82.3093051 108.408652,82.4175697 107.729745,82.4863734 C107.590715,82.4875227 107.47024,82.5829887 107.43734,82.7180798 C107.11964,83.5052747 106.788449,84.2870733 106.443768,85.0634754 C106.366941,85.1908135 106.386092,85.354016 106.49031,85.4601083 C106.94966,86.0408922 107.400915,86.6287589 107.848124,87.2156137 C108.18606,87.6577784 108.159753,88.0807186 107.766169,88.4682451 C106.931785,89.2891673 106.09504,90.1084031 105.255934,90.9259526 C104.864373,91.30842 104.43133,91.33068 104.001322,90.9866617 C103.421569,90.527296 102.841817,90.0679304 102.270159,89.5984465 C102.165223,89.4929079 102.002362,89.4713031 101.87354,89.545832 C101.100537,89.8736612 100.320452,90.1853013 99.5383427,90.4898588 C99.3845516,90.5495561 99.2965264,90.6021706 99.2762907,90.7873334 C99.2004069,91.4662637 99.0739339,92.1401349 99.0182858,92.8200771 C98.9828734,93.2936082 98.7967051,93.6366147 98.3656852,93.8410021 Z M103.798113,79.6545253 C103.834747,75.6749718 100.640121,72.4182959 96.6605688,72.3783465 C92.6810165,72.338397 89.4216549,75.5302835 89.3783893,79.5097704 C89.3351237,83.4892573 92.5243179,86.7512523 96.503798,86.7978333 C100.473121,86.849501 103.762654,83.626857 103.798113,79.6545253 Z" id="Shape-Copy-5" fill="#A4A7A9" fill-rule="nonzero"></path>
        <path d="M74.6912295,100.840994 L71.9720022,100.815876 C71.696378,100.673763 71.5800474,100.449687 71.5608793,100.138359 C71.5331186,99.6935118 71.4623949,99.2506472 71.417449,98.8064607 C71.4068735,98.69938 71.3639105,98.6570765 71.2641041,98.616756 C70.7498701,98.4083232 70.2389409,98.1917382 69.7313165,97.967001 C69.6341541,97.9240365 69.5726839,97.9200706 69.4867579,97.9881527 C69.1020739,98.291548 68.712763,98.5889943 68.3234521,98.8857797 C68.0365915,99.104568 67.7596454,99.0840773 67.5051723,98.8269514 C66.9719904,98.2862601 66.4399102,97.7442467 65.9089316,97.2009114 C65.6478488,96.9365146 65.6346294,96.659559 65.8659686,96.3680616 C66.1667096,95.9893132 66.4674506,95.6099039 66.7741403,95.2357825 C66.8399343,95.1723512 66.8538559,95.0721665 66.8078497,94.9931985 C66.5901705,94.4758621 66.380423,93.9552209 66.178607,93.4312746 C66.1599901,93.3487681 66.0879838,93.2892589 66.0034502,93.2865174 C65.5235866,93.2296721 65.0450449,93.1602679 64.5651812,93.1014397 C64.1923946,93.0558312 63.9974087,92.8436528 64.000026,92.4675484 C64.0066622,91.714899 64.0137126,90.9618089 64.0212036,90.2082781 C64.0251694,89.8189539 64.2194943,89.6133854 64.6055003,89.571743 C65.0860249,89.5228296 65.5658886,89.4613573 66.0470742,89.4150879 C66.1528293,89.404512 66.1832338,89.3555986 66.2195871,89.2670257 C66.4304363,88.753435 66.6452513,88.2411663 66.8713028,87.7341855 C66.9207745,87.6504024 66.9077583,87.5438284 66.8395763,87.4744157 C66.5401572,87.0950063 66.244704,86.71097 65.9525556,86.3269338 C65.7337748,86.0400633 65.7542648,85.7604637 66.0093989,85.5079648 C66.5549189,84.9707987 67.1013201,84.4347343 67.6486026,83.8997715 C67.9057196,83.6492556 68.1846486,83.6353748 68.4682044,83.864739 C68.8515665,84.1694562 69.2349287,84.4748345 69.613664,84.7848397 C69.6753836,84.8436563 69.7689106,84.8536871 69.8416984,84.8092964 C70.3598983,84.592491 70.8805217,84.3827363 71.4035686,84.1800321 C71.4941214,84.1443385 71.5397283,84.1139329 71.5522867,84.0075132 C71.6084691,83.5276331 71.6785318,83.049075 71.7366971,82.5691949 C71.782965,82.1937515 71.9931532,81.9967759 72.3666008,82.0000399 C73.1262747,82.0062501 73.8857283,82.0133007 74.6449616,82.0212326 C75.0197312,82.0251985 75.2279365,82.2248181 75.2662727,82.5996005 C75.3151844,83.0741927 75.3759936,83.5481238 75.4222614,84.023377 C75.4334979,84.1383896 75.4804267,84.1826761 75.5848599,84.2249795 C76.0933655,84.431209 76.5985663,84.6460314 77.1004622,84.8694466 C77.2035734,84.9150551 77.2690094,84.91836 77.3602231,84.8456509 C77.7435853,84.5409337 78.1322352,84.2434873 78.522207,83.946702 C78.7991531,83.7358455 79.080065,83.7563363 79.3266065,84.0061912 C79.8646355,84.5499672 80.4011221,85.0957262 80.9360666,85.6434681 C81.1892178,85.901916 81.2037591,86.1821765 80.9803515,86.4637591 C80.6763057,86.8471344 80.3700566,87.2291877 80.0616043,87.609919 C80.0002872,87.6693913 79.9864696,87.7625953 80.0278949,87.8373002 C80.2473366,88.3601448 80.4522371,88.8895993 80.6703569,89.4131049 C80.7007684,89.4776726 80.7576666,89.525893 80.8263457,89.5453033 C81.2738218,89.6114025 81.7219589,89.6860946 82.1727399,89.7237711 C82.4827345,89.7495498 82.7068031,89.8665453 82.8409798,90.1481279 L82.815202,92.8681095 C82.6750765,93.1450651 82.451008,93.2607387 82.1396915,93.2799075 C81.6941982,93.3076691 81.2520098,93.3783953 80.8084995,93.4233427 C80.7176749,93.4240935 80.6389722,93.4864587 80.6174794,93.5747099 C80.4099351,94.0889615 80.1935778,94.5996879 79.9684076,95.1068891 C79.9182191,95.1900753 79.9307296,95.2966908 79.9988122,95.3659979 C80.2988922,95.7454072 80.5936845,96.1294435 80.8858329,96.5128188 C81.1065966,96.8016723 81.0894114,97.0779669 80.8322944,97.3311268 C80.2872151,97.8674115 79.7405936,98.4025946 79.1924298,98.9366761 C78.9366347,99.186531 78.6537399,99.2010728 78.372828,98.9763356 C77.9940926,98.6762453 77.6153573,98.376155 77.2419097,98.0694547 C77.1733579,98.0005094 77.0669653,97.9863956 76.9828097,98.0350831 C76.4778293,98.2492445 75.968222,98.45283 75.4572928,98.6517886 C75.3568255,98.6907871 75.2993212,98.7251587 75.2861018,98.8461202 C75.2365291,99.2896458 75.1539079,99.7298664 75.1175546,100.174053 C75.0944207,100.483397 74.9728024,100.707473 74.6912295,100.840994 Z M78.2400775,91.5733782 C78.2640094,88.9736508 76.1770527,86.8461585 73.5773262,86.8200607 C70.9775996,86.7939628 68.8483528,88.8791301 68.8200886,91.4788139 C68.7918245,94.0784978 70.8752329,96.2094649 73.4749124,96.239895 C76.0679564,96.273648 78.2169135,94.1683877 78.2400775,91.5733782 Z" id="Shape-Copy-6" fill="#D2DAE1" fill-rule="nonzero"></path>
    </g>
</svg>