<svg id="Layer_1" data-name="Layer 1" xmlns="http://www.w3.org/2000/svg" xmlns:xlink="http://www.w3.org/1999/xlink" viewBox="0 0 600 450"><defs><style>.cls-1,.cls-12,.cls-13{fill:#e6e6e6;}.cls-1{opacity:0.25;}.cls-2{fill:#3dba85;}.cls-18,.cls-23,.cls-24,.cls-3{opacity:0.5;}.cls-3{fill:url(#linear-gradient);}.cls-4{fill:#0562e8;}.cls-5{fill:#d1d3d4;}.cls-6{fill:#F99316;}.cls-7{fill:#d67d1d;}.cls-8{fill:#ccc;}.cls-10,.cls-11,.cls-23,.cls-9{fill:none;stroke-miterlimit:10;}.cls-10,.cls-11,.cls-9{stroke:#fff;}.cls-10{stroke-dasharray:11.71 11.71;}.cls-11{stroke-dasharray:12;}.cls-12{fill-opacity:0.5;}.cls-14{opacity:0.75;}.cls-15{fill:#b3b3b3;}.cls-16{fill:#298def;}.cls-17{fill:#f2f2f2;}.cls-18{fill:#333;}.cls-19{fill:#359366;}.cls-20{fill:#db811f;}.cls-21{fill:#999;}.cls-22{fill:#fff;}.cls-23{stroke:#F99316;stroke-width:3px;isolation:isolate;}.cls-24,.cls-25{fill:#e6e7e8;}.cls-25{opacity:0.35;}</style><linearGradient id="linear-gradient" x1="117.18" y1="201.4" x2="203.97" y2="201.4" gradientUnits="userSpaceOnUse"><stop offset="0" stop-color="#d1d3d4" stop-opacity="0"/><stop offset="1" stop-color="#bcbec0"/></linearGradient></defs><title>enterprise-transformation-with-devops-dataops-illustration</title><path class="cls-1" d="M233.21,120.14c-54.81,23-133.34,9.86-167.84,77.23S-27.1,357.59,64.64,374,298,354.3,407.39,381.42s185-147.89,173.94-223.48S501.33,31.41,428.67,57.7,233.21,120.14,233.21,120.14Z"/><path class="cls-1" d="M333.56,111.5C306.79,107,280.45,99.31,253.94,93c-19.68-4.7-39.42-9.24-59.33-12.48-14.15-2.3-28.5-4-42.81-3.41a91.81,91.81,0,0,0-32.29,6.84c-10.06,4.27-19.22,10.7-27.64,18.14-45.58,40.26-76.4,148.71-12.55,194.72,0,0,115,91.6,299.43,81.59S548.25,359,569.12,299.63,579.85,114.77,464.2,116.11c-21.13.24-42.27.34-63.4.11-22.45-.25-44.94-1-67.18-4.71Z"/><path class="cls-2" d="M361.67,244.9s-3.92-6.52,5.47-6,12.72,2.36,13.9-3.37,10.37-12.57,12.52-5.83-2.88,11.9,5.11,10.3,18.77-2.15,13.37,2.4-9.67,4.25-9.67,4.25Z"/><path class="cls-2" d="M565.13,273.53s5.19-13.45-4-14.23-12.83-.39-12.06-6.65-13-19.24-13.56-9.92,2.52,25.66-6.84,17.39.08-16.67-10.71-16.47-13.91-.59-10.39,4.3-3.28,12.13-11.32,6.26S482.58,242.08,481,246a35.09,35.09,0,0,0-1.89,9.08l83.48,21Z"/><circle class="cls-1" cx="437.24" cy="345.77" r="62.63"/><circle class="cls-1" cx="119.81" cy="68.85" r="11.74"/><circle class="cls-1" cx="477.03" cy="401.75" r="11.74"/><rect class="cls-3" x="117.18" y="154.54" width="86.79" height="93.74" rx="3.99"/><rect class="cls-4" x="119.79" y="165.11" width="67.96" height="2.35" rx="1.17" transform="translate(307.53 332.57) rotate(180)"/><rect class="cls-4" x="129.54" y="170.26" width="34.57" height="2.35" rx="1.17" transform="translate(293.64 342.86) rotate(180)"/><rect class="cls-4" x="166.64" y="170.26" width="34.57" height="2.35" rx="1.17" transform="translate(367.85 342.86) rotate(180)"/><rect class="cls-5" x="123.31" y="175.39" width="34.57" height="2.35" rx="1.17" transform="translate(281.18 353.13) rotate(180)"/><rect class="cls-6" x="164.71" y="212.26" width="34.57" height="2.35" rx="1.17" transform="translate(363.98 426.86) rotate(180)"/><rect class="cls-5" x="160.41" y="175.39" width="34.57" height="2.35" rx="1.17" transform="translate(355.39 353.13) rotate(180)"/><rect class="cls-2" x="123.31" y="180.89" width="48.9" height="2.35" rx="1.17" transform="translate(295.51 364.12) rotate(180)"/><rect class="cls-6" x="175.42" y="180.89" width="19.56" height="2.35" rx="1.17" transform="translate(370.4 364.12) rotate(180)"/><rect class="cls-2" x="174.14" y="186.38" width="19.56" height="2.35" rx="1.17" transform="translate(367.85 375.12) rotate(180)"/><rect class="cls-5" x="162.43" y="191.88" width="19.56" height="2.35" rx="1.17" transform="translate(344.42 386.11) rotate(-180)"/><rect class="cls-5" x="177.96" y="196.82" width="19.56" height="2.35" rx="1.17" transform="translate(375.49 395.99) rotate(-180)"/><rect class="cls-6" x="163.64" y="201.76" width="19.56" height="2.35" rx="1.17" transform="translate(346.85 405.87) rotate(180)"/><rect class="cls-2" x="163.64" y="206.7" width="19.56" height="2.35" rx="1.17" transform="translate(346.85 415.75) rotate(180)"/><rect class="cls-5" x="164.36" y="217.82" width="19.56" height="2.35" rx="1.17" transform="translate(348.29 437.98) rotate(180)"/><rect class="cls-5" x="185.9" y="217.82" width="12.8" height="2.35" rx="1.17" transform="translate(384.59 437.98) rotate(180)"/><circle class="cls-5" cx="191.3" cy="237.07" r="7.36"/><circle class="cls-4" cx="191.3" cy="237.07" r="4.27"/><path class="cls-6" d="M102.33,192.39a1.5,1.5,0,0,1-1.51,1.49h-3a12.17,12.17,0,0,0-11.52-12l0-2.65a1.5,1.5,0,0,1,1.5-1.5,14.6,14.6,0,0,1,14.47,14.63Z"/><path class="cls-7" d="M97.86,193.87l-10.09-.06a1.52,1.52,0,0,1-1.49-1.51l.06-10.39a12.17,12.17,0,0,1,11.52,12Z"/><path class="cls-8" d="M557.43,271.12a845.24,845.24,0,0,0-230.56-25.91c-106.06,2.95-208.81,20.15-292.48,56C23.39,306-9.86,325.86,38.53,349s59.28-5.23,149.08,14.82,133.83,68.44,179.17,32.7,61.46-85.88,116.39-76.29S616.8,286.29,557.43,271.12Z"/><path class="cls-9" d="M100.44,277.77s2.1.19,6,.71"/><path class="cls-10" d="M118,280.31c40.78,7.23,144.08,33.31,216.43,118.8"/><path class="cls-9" d="M338.12,403.62c1.26,1.54,2.51,3.11,3.74,4.69"/><path class="cls-11" d="M154.36,264.4S362.79,251,439.82,327.09"/><path class="cls-11" d="M168.82,360.07S309,255.22,453.72,251.49"/><path class="cls-11" d="M479.12,319.59s35.1-29.55,94.13-41.82"/><path class="cls-11" d="M19.37,336.51s72.29-53.92,117.13-68.17"/><path class="cls-11" d="M554.15,309.67S515,261.46,449.44,251"/><ellipse class="cls-12" cx="234.85" cy="321.27" rx="37.08" ry="19.71"/><ellipse class="cls-13" cx="234.85" cy="321.27" rx="27.68" ry="14.71"/><ellipse class="cls-12" cx="120.66" cy="288.81" rx="56.6" ry="19.71" transform="translate(-48.34 25.35) rotate(-10)"/><ellipse class="cls-13" cx="120.66" cy="288.81" rx="42.25" ry="14.71" transform="translate(-48.34 25.35) rotate(-10)"/><g class="cls-14"><ellipse class="cls-12" cx="329.99" cy="275.33" rx="27.68" ry="11.93"/><ellipse class="cls-13" cx="329.99" cy="275.33" rx="20.66" ry="8.9"/></g><g class="cls-14"><ellipse class="cls-12" cx="526.19" cy="290.15" rx="11.93" ry="27.68" transform="translate(137.13 748.08) rotate(-78.52)"/><ellipse class="cls-13" cx="526.19" cy="290.15" rx="8.9" ry="20.66" transform="translate(137.13 748.08) rotate(-78.52)"/></g><rect class="cls-15" x="63.34" y="208.44" width="23.24" height="19.59" transform="matrix(0.99, -0.14, 0.14, 0.99, -29.98, 12.73)"/><rect class="cls-13" x="86.12" y="201.93" width="69.13" height="19.59" transform="matrix(0.99, -0.14, 0.14, 0.99, -28.61, 19.1)"/><rect class="cls-8" x="94.81" y="206.79" width="4.37" height="4.37" transform="translate(-28.46 15.74) rotate(-8.09)"/><rect class="cls-4" x="102.42" y="205.71" width="4.37" height="4.37" transform="translate(-28.23 16.8) rotate(-8.09)"/><rect class="cls-4" x="110.02" y="204.63" width="4.37" height="4.37" transform="translate(-28 17.86) rotate(-8.09)"/><rect class="cls-4" x="117.63" y="203.55" width="4.37" height="4.37" transform="translate(-27.77 18.92) rotate(-8.09)"/><rect class="cls-8" x="125.23" y="202.47" width="4.37" height="4.37" transform="translate(-27.54 19.98) rotate(-8.09)"/><rect class="cls-2" x="132.83" y="201.38" width="4.37" height="4.37" transform="translate(-27.32 21.04) rotate(-8.09)"/><rect class="cls-8" x="140.44" y="200.3" width="4.37" height="4.37" transform="translate(-27.09 22.1) rotate(-8.09)"/><rect class="cls-16" x="148.04" y="199.22" width="4.37" height="4.37" transform="translate(-26.86 23.16) rotate(-8.09)"/><rect class="cls-6" x="95.67" y="212.79" width="4.37" height="4.37" transform="translate(-29.29 15.92) rotate(-8.09)"/><rect class="cls-16" x="103.27" y="211.71" width="4.37" height="4.37" transform="translate(-29.06 16.98) rotate(-8.09)"/><rect class="cls-16" x="110.88" y="210.63" width="4.37" height="4.37" transform="translate(-28.84 18.04) rotate(-8.09)"/><rect class="cls-4" x="118.48" y="209.55" width="4.37" height="4.37" transform="translate(-28.61 19.1) rotate(-8.09)"/><rect class="cls-16" x="126.08" y="208.47" width="4.37" height="4.37" transform="translate(-28.38 20.16) rotate(-8.09)"/><rect class="cls-2" x="133.69" y="207.39" width="4.37" height="4.37" transform="translate(-28.15 21.22) rotate(-8.09)"/><rect class="cls-2" x="141.29" y="206.31" width="4.37" height="4.37" transform="translate(-27.92 22.28) rotate(-8.09)"/><rect class="cls-2" x="148.9" y="205.22" width="4.37" height="4.37" transform="translate(-27.7 23.34) rotate(-8.09)"/><rect class="cls-6" x="96.52" y="218.8" width="4.37" height="4.37" transform="translate(-30.13 16.1) rotate(-8.09)"/><rect class="cls-8" x="87.25" y="207.87" width="4.37" height="4.37" transform="translate(-28.68 14.68) rotate(-8.09)"/><rect class="cls-8" x="88.1" y="213.87" width="4.37" height="4.37" transform="translate(-29.52 14.86) rotate(-8.09)"/><rect class="cls-6" x="88.96" y="219.87" width="4.37" height="4.37" transform="translate(-30.36 15.04) rotate(-8.09)"/><rect class="cls-16" x="104.12" y="217.72" width="4.37" height="4.37" transform="translate(-29.9 17.16) rotate(-8.09)"/><rect class="cls-8" x="111.73" y="216.63" width="4.37" height="4.37" transform="translate(-29.67 18.22) rotate(-8.09)"/><rect class="cls-4" x="119.33" y="215.55" width="4.37" height="4.37" transform="translate(-29.44 19.28) rotate(-8.09)"/><rect class="cls-8" x="126.94" y="214.47" width="4.37" height="4.37" transform="translate(-29.22 20.34) rotate(-8.09)"/><rect class="cls-16" x="134.54" y="213.39" width="4.37" height="4.37" transform="translate(-28.99 21.4) rotate(-8.09)"/><rect class="cls-2" x="142.15" y="212.31" width="4.37" height="4.37" transform="translate(-28.76 22.46) rotate(-8.09)"/><rect class="cls-8" x="149.75" y="211.23" width="4.37" height="4.37" transform="translate(-28.53 23.52) rotate(-8.09)"/><polygon class="cls-8" points="82.63 213.44 65.14 215.92 65.64 213.43 83.13 210.95 82.63 213.44"/><polygon class="cls-8" points="83.31 218.25 65.82 220.74 66.33 218.25 83.82 215.76 83.31 218.25"/><polygon class="cls-8" points="84 223.07 66.51 225.56 67.01 223.07 84.5 220.58 84 223.07"/><rect class="cls-15" x="66.5" y="230.69" width="23.24" height="19.59" transform="matrix(0.99, -0.14, 0.14, 0.99, -33.08, 13.39)"/><rect class="cls-13" x="89.28" y="224.19" width="69.13" height="19.59" transform="translate(-31.71 19.77) rotate(-8.09)"/><rect class="cls-8" x="145.35" y="234.56" width="4.37" height="4.37" transform="translate(326.93 450.35) rotate(171.91)"/><rect class="cls-8" x="137.75" y="235.64" width="4.37" height="4.37" transform="translate(311.95 453.57) rotate(171.91)"/><rect class="cls-8" x="130.14" y="236.72" width="4.37" height="4.37" transform="translate(296.97 456.79) rotate(171.91)"/><rect class="cls-8" x="122.54" y="237.8" width="4.37" height="4.37" transform="translate(281.99 460.02) rotate(171.91)"/><rect class="cls-8" x="114.93" y="238.88" width="4.37" height="4.37" transform="translate(267.01 463.24) rotate(171.91)"/><rect class="cls-8" x="107.33" y="239.96" width="4.37" height="4.37" transform="translate(252.03 466.46) rotate(171.91)"/><rect class="cls-8" x="99.72" y="241.04" width="4.37" height="4.37" transform="translate(237.04 469.68) rotate(171.91)"/><rect class="cls-16" x="92.12" y="242.13" width="4.37" height="4.37" transform="translate(222.06 472.91) rotate(171.91)"/><rect class="cls-8" x="144.5" y="228.55" width="4.37" height="4.37" transform="translate(324.38 438.52) rotate(171.91)"/><rect class="cls-16" x="136.89" y="229.63" width="4.37" height="4.37" transform="translate(309.4 441.74) rotate(171.91)"/><rect class="cls-8" x="129.29" y="230.72" width="4.37" height="4.37" transform="translate(294.42 444.97) rotate(171.91)"/><rect class="cls-4" x="121.68" y="231.8" width="4.37" height="4.37" transform="translate(279.44 448.19) rotate(171.91)"/><rect class="cls-8" x="114.08" y="232.88" width="4.37" height="4.37" transform="translate(264.46 451.41) rotate(171.91)"/><rect class="cls-8" x="106.48" y="233.96" width="4.37" height="4.37" transform="translate(249.48 454.63) rotate(171.91)"/><rect class="cls-8" x="98.87" y="235.04" width="4.37" height="4.37" transform="translate(234.5 457.86) rotate(171.91)"/><rect class="cls-2" x="91.27" y="236.12" width="4.37" height="4.37" transform="translate(219.52 461.08) rotate(171.91)"/><rect class="cls-6" x="143.64" y="222.55" width="4.37" height="4.37" transform="translate(321.84 426.7) rotate(171.91)"/><rect class="cls-8" x="152.91" y="233.48" width="4.37" height="4.37" transform="translate(341.83 447.14) rotate(171.91)"/><rect class="cls-8" x="152.06" y="227.48" width="4.37" height="4.37" transform="translate(339.28 435.32) rotate(171.91)"/><rect class="cls-6" x="151.21" y="221.47" width="4.37" height="4.37" transform="translate(336.74 423.49) rotate(171.91)"/><rect class="cls-16" x="136.04" y="223.63" width="4.37" height="4.37" transform="translate(306.86 429.92) rotate(171.91)"/><rect class="cls-8" x="128.43" y="224.71" width="4.37" height="4.37" transform="translate(291.88 433.14) rotate(171.91)"/><rect class="cls-4" x="120.83" y="225.79" width="4.37" height="4.37" transform="translate(276.9 436.36) rotate(171.91)"/><rect class="cls-8" x="113.23" y="226.87" width="4.37" height="4.37" transform="translate(261.92 439.59) rotate(171.91)"/><rect class="cls-16" x="105.62" y="227.96" width="4.37" height="4.37" transform="translate(246.94 442.81) rotate(171.91)"/><rect class="cls-2" x="98.02" y="229.04" width="4.37" height="4.37" transform="translate(231.96 446.03) rotate(171.91)"/><rect class="cls-8" x="90.41" y="230.12" width="4.37" height="4.37" transform="translate(216.98 449.25) rotate(171.91)"/><polygon class="cls-8" points="85.79 235.69 68.3 238.18 68.81 235.69 86.3 233.2 85.79 235.69"/><polygon class="cls-8" points="86.48 240.51 68.99 242.99 69.49 240.5 86.98 238.02 86.48 240.51"/><polygon class="cls-8" points="87.16 245.32 69.67 247.81 70.18 245.32 87.67 242.83 87.16 245.32"/><rect class="cls-15" x="69.67" y="252.94" width="23.24" height="19.59" transform="translate(-36.18 14.06) rotate(-8.09)"/><rect class="cls-13" x="92.45" y="246.44" width="69.13" height="19.59" transform="translate(-34.81 20.43) rotate(-8.09)"/><rect class="cls-8" x="102.85" y="263.3" width="4.37" height="4.37" transform="translate(-36.33 17.43) rotate(-8.09)"/><rect class="cls-8" x="110.45" y="262.22" width="4.37" height="4.37" transform="translate(-36.1 18.49) rotate(-8.09)"/><rect class="cls-8" x="118.06" y="261.14" width="4.37" height="4.37" transform="translate(-35.88 19.55) rotate(-8.09)"/><rect class="cls-8" x="125.66" y="260.06" width="4.37" height="4.37" transform="translate(-35.65 20.61) rotate(-8.09)"/><rect class="cls-8" x="133.27" y="258.98" width="4.37" height="4.37" transform="translate(-35.42 21.67) rotate(-8.09)"/><rect class="cls-2" x="140.87" y="257.89" width="4.37" height="4.37" transform="translate(-35.19 22.73) rotate(-8.09)"/><rect class="cls-8" x="148.47" y="256.81" width="4.37" height="4.37" transform="translate(-34.96 23.79) rotate(-8.09)"/><rect class="cls-16" x="156.08" y="255.73" width="4.37" height="4.37" transform="translate(-34.74 24.85) rotate(-8.09)"/><rect class="cls-8" x="102" y="257.3" width="4.37" height="4.37" transform="translate(-35.49 17.25) rotate(-8.09)"/><rect class="cls-8" x="109.6" y="256.22" width="4.37" height="4.37" transform="translate(-35.27 18.31) rotate(-8.09)"/><rect class="cls-16" x="117.2" y="255.14" width="4.37" height="4.37" transform="translate(-35.04 19.37) rotate(-8.09)"/><rect class="cls-4" x="124.81" y="254.05" width="4.37" height="4.37" transform="translate(-34.81 20.43) rotate(-8.09)"/><rect class="cls-8" x="132.41" y="252.97" width="4.37" height="4.37" transform="translate(-34.58 21.49) rotate(-8.09)"/><rect class="cls-8" x="140.02" y="251.89" width="4.37" height="4.37" transform="translate(-34.35 22.55) rotate(-8.09)"/><rect class="cls-8" x="147.62" y="250.81" width="4.37" height="4.37" transform="translate(-34.13 23.61) rotate(-8.09)"/><rect class="cls-2" x="155.22" y="249.73" width="4.37" height="4.37" transform="translate(-33.9 24.67) rotate(-8.09)"/><rect class="cls-8" x="101.14" y="251.3" width="4.37" height="4.37" transform="translate(-34.66 17.07) rotate(-8.09)"/><rect class="cls-8" x="95.29" y="264.38" width="4.37" height="4.37" transform="translate(-36.56 16.38) rotate(-8.09)"/><rect class="cls-8" x="94.43" y="258.37" width="4.37" height="4.37" transform="translate(-35.72 16.2) rotate(-8.09)"/><rect class="cls-6" x="93.58" y="252.37" width="4.37" height="4.37" transform="translate(-34.89 16.02) rotate(-8.09)"/><rect class="cls-8" x="108.75" y="250.21" width="4.37" height="4.37" transform="translate(-34.43 18.13) rotate(-8.09)"/><rect class="cls-8" x="116.35" y="249.13" width="4.37" height="4.37" transform="translate(-34.2 19.19) rotate(-8.09)"/><rect class="cls-4" x="123.95" y="248.05" width="4.37" height="4.37" transform="translate(-33.97 20.25) rotate(-8.09)"/><rect class="cls-8" x="131.56" y="246.97" width="4.37" height="4.37" transform="translate(-33.75 21.31) rotate(-8.09)"/><rect class="cls-8" x="139.16" y="245.89" width="4.37" height="4.37" transform="translate(-33.52 22.37) rotate(-8.09)"/><rect class="cls-8" x="146.77" y="244.81" width="4.37" height="4.37" transform="translate(-33.29 23.43) rotate(-8.09)"/><rect class="cls-8" x="154.37" y="243.73" width="4.37" height="4.37" transform="translate(-33.06 24.49) rotate(-8.09)"/><polygon class="cls-8" points="88.96 257.94 71.47 260.43 71.97 257.94 89.46 255.45 88.96 257.94"/><polygon class="cls-8" points="89.64 262.76 72.15 265.25 72.66 262.75 90.14 260.27 89.64 262.76"/><polygon class="cls-8" points="90.33 267.58 72.84 270.06 73.34 267.57 90.83 265.09 90.33 267.58"/><rect class="cls-15" x="72.83" y="275.19" width="23.24" height="19.59" transform="translate(-39.28 14.73) rotate(-8.09)"/><rect class="cls-13" x="95.61" y="268.69" width="69.13" height="19.59" transform="translate(-37.91 21.1) rotate(-8.09)"/><polygon class="cls-8" points="92.12 280.19 74.63 282.68 75.14 280.19 92.62 277.7 92.12 280.19"/><polygon class="cls-8" points="92.81 285.01 75.32 287.5 75.82 285.01 93.31 282.52 92.81 285.01"/><rect class="cls-8" x="149.97" y="267.05" width="4.37" height="4.37" transform="translate(340.7 514.37) rotate(171.91)"/><rect class="cls-4" x="142.37" y="268.13" width="4.37" height="4.37" transform="translate(325.72 517.59) rotate(171.91)"/><rect class="cls-8" x="134.76" y="269.22" width="4.37" height="4.37" transform="translate(310.74 520.81) rotate(171.91)"/><rect class="cls-4" x="127.16" y="270.3" width="4.37" height="4.37" transform="translate(295.76 524.04) rotate(171.91)"/><rect class="cls-8" x="119.55" y="271.38" width="4.37" height="4.37" transform="translate(280.78 527.26) rotate(171.91)"/><rect class="cls-8" x="111.95" y="272.46" width="4.37" height="4.37" transform="translate(265.8 530.48) rotate(171.91)"/><rect class="cls-8" x="104.35" y="273.54" width="4.37" height="4.37" transform="translate(250.82 533.7) rotate(171.91)"/><rect class="cls-16" x="96.74" y="274.62" width="4.37" height="4.37" transform="translate(235.84 536.93) rotate(171.91)"/><rect class="cls-6" x="150.82" y="273.06" width="4.37" height="4.37" transform="translate(343.24 526.2) rotate(171.91)"/><rect class="cls-16" x="143.22" y="274.14" width="4.37" height="4.37" transform="translate(328.26 529.42) rotate(171.91)"/><rect class="cls-8" x="135.62" y="275.22" width="4.37" height="4.37" transform="translate(313.28 532.64) rotate(171.91)"/><rect class="cls-8" x="128.01" y="276.3" width="4.37" height="4.37" transform="translate(298.3 535.86) rotate(171.91)"/><rect class="cls-8" x="120.41" y="277.38" width="4.37" height="4.37" transform="translate(283.32 539.09) rotate(171.91)"/><rect class="cls-8" x="112.8" y="278.46" width="4.37" height="4.37" transform="translate(268.34 542.31) rotate(171.91)"/><rect class="cls-8" x="105.2" y="279.54" width="4.37" height="4.37" transform="translate(253.36 545.53) rotate(171.91)"/><rect class="cls-2" x="97.6" y="280.63" width="4.37" height="4.37" transform="translate(238.38 548.75) rotate(171.91)"/><rect class="cls-6" x="151.68" y="279.06" width="4.37" height="4.37" transform="translate(345.79 538.02) rotate(171.91)"/><rect class="cls-8" x="157.54" y="265.98" width="4.37" height="4.37" transform="translate(355.6 511.16) rotate(171.91)"/><rect class="cls-8" x="158.39" y="271.98" width="4.37" height="4.37" transform="translate(358.14 522.99) rotate(171.91)"/><rect class="cls-6" x="159.24" y="277.98" width="4.37" height="4.37" transform="translate(360.69 534.82) rotate(171.91)"/><rect class="cls-16" x="144.07" y="280.14" width="4.37" height="4.37" transform="translate(330.81 541.24) rotate(171.91)"/><rect class="cls-8" x="136.47" y="281.22" width="4.37" height="4.37" transform="translate(315.83 544.47) rotate(171.91)"/><rect class="cls-4" x="128.87" y="282.3" width="4.37" height="4.37" transform="translate(300.85 547.69) rotate(171.91)"/><rect class="cls-8" x="121.26" y="283.39" width="4.37" height="4.37" transform="translate(285.87 550.91) rotate(171.91)"/><rect class="cls-8" x="113.66" y="284.47" width="4.37" height="4.37" transform="translate(270.89 554.13) rotate(171.91)"/><rect class="cls-2" x="106.05" y="285.55" width="4.37" height="4.37" transform="translate(255.91 557.36) rotate(171.91)"/><rect class="cls-8" x="98.45" y="286.63" width="4.37" height="4.37" transform="translate(240.92 560.58) rotate(171.91)"/><polygon class="cls-8" points="93.49 289.83 76 292.31 76.5 289.82 93.99 287.34 93.49 289.83"/><path class="cls-15" d="M263.76,273.59c.12,3.29-13.77,6.51-31,7.18s-31.37-1.46-31.49-4.76,13.76-6.51,31-7.18S263.63,270.29,263.76,273.59Z"/><path class="cls-17" d="M263.76,273.59l1.71,44.27c.13,3.3-13.76,6.51-31,7.18s-31.36-1.46-31.49-4.76L201.24,276c.12,3.3,14.22,5.43,31.49,4.76S263.88,276.88,263.76,273.59Z"/><path class="cls-15" d="M263.88,276.89l.43,10.94c.12,3.3-13.77,6.51-31,7.18s-31.36-1.46-31.49-4.75l-.43-10.95c.13,3.3,14.23,5.43,31.5,4.76S264,280.19,263.88,276.89Z"/><path class="cls-15" d="M264.48,292.21l.42,10.94c.13,3.3-13.76,6.51-31,7.18s-31.36-1.46-31.49-4.76L202,294.63c.13,3.3,14.23,5.43,31.49,4.76S264.6,295.51,264.48,292.21Z"/><path class="cls-15" d="M265.07,307.53l.42,10.94c.13,3.29-13.76,6.51-31,7.18s-31.37-1.46-31.49-4.76L202.55,310c.13,3.3,14.23,5.43,31.49,4.76S265.2,310.82,265.07,307.53Z"/><ellipse class="cls-17" cx="260.2" cy="285.5" rx="4.27" ry="2.57" transform="translate(-77.43 473.17) rotate(-76.72)"/><ellipse class="cls-6" cx="260.2" cy="285.5" rx="1.98" ry="1.19" transform="matrix(0.23, -0.97, 0.97, 0.23, -77.43, 473.17)"/><ellipse class="cls-17" cx="260.79" cy="300.82" rx="4.27" ry="2.57" transform="translate(-91.88 485.55) rotate(-76.72)"/><ellipse class="cls-17" cx="261.39" cy="316.14" rx="4.27" ry="2.57" transform="translate(-106.33 497.93) rotate(-76.72)"/><path class="cls-17" d="M251.09,318.18l.07,1.8a.63.63,0,0,1-.53.65,145.77,145.77,0,0,1-15,1.31c-11.49.45-21.59-.35-27.09-1.9a.62.62,0,0,1-.44-.58l-.07-1.75a.62.62,0,0,1,.79-.62c5.58,1.48,15.47,2.23,26.69,1.79a146.47,146.47,0,0,0,14.84-1.29A.62.62,0,0,1,251.09,318.18Z"/><ellipse class="cls-2" cx="260.79" cy="300.82" rx="1.98" ry="1.19" transform="translate(-91.88 485.55) rotate(-76.72)"/><ellipse class="cls-16" cx="261.39" cy="316.14" rx="1.98" ry="1.19" transform="translate(-106.33 497.93) rotate(-76.72)"/><path class="cls-17" d="M250.49,302.81l.07,1.8a.63.63,0,0,1-.53.65,148.42,148.42,0,0,1-15,1.31c-11.5.44-21.6-.35-27.09-1.91a.61.61,0,0,1-.45-.57l-.07-1.75a.63.63,0,0,1,.8-.62c5.57,1.47,15.46,2.22,26.69,1.79,5.38-.21,10.43-.67,14.84-1.29A.6.6,0,0,1,250.49,302.81Z"/><path class="cls-17" d="M249.9,287.44l.07,1.8a.62.62,0,0,1-.53.64,145.77,145.77,0,0,1-15,1.31c-11.5.45-21.6-.35-27.09-1.9a.61.61,0,0,1-.44-.58l-.07-1.74a.62.62,0,0,1,.79-.63c5.58,1.48,15.47,2.23,26.69,1.8a146.3,146.3,0,0,0,14.84-1.3A.63.63,0,0,1,249.9,287.44Z"/><path class="cls-15" d="M496.36,265.38c0,1.06-4.53,1.88-10.08,1.82s-10.06-1-10-2,4.53-1.87,10.09-1.82S496.37,264.32,496.36,265.38Z"/><path class="cls-17" d="M496.36,265.38l-.15,14.26c0,1.06-4.53,1.87-10.08,1.81s-10.06-1-10.05-2l.15-14.26c0,1.06,4.49,2,10,2S496.35,266.44,496.36,265.38Z"/><path class="cls-15" d="M496.35,266.45l0,3.52c0,1.06-4.52,1.87-10.08,1.81s-10.06-1-10.05-2l0-3.53c0,1.07,4.49,2,10,2S496.34,267.51,496.35,266.45Z"/><path class="cls-15" d="M496.3,271.38l0,3.52c0,1.06-4.53,1.87-10.08,1.82s-10.06-1-10.05-2l0-3.52c0,1.06,4.48,2,10,2S496.29,272.44,496.3,271.38Z"/><path class="cls-15" d="M496.25,276.31l0,3.52c0,1.06-4.53,1.88-10.09,1.82s-10.05-1-10-2l0-3.52c0,1.06,4.48,2,10,2S496.23,277.37,496.25,276.31Z"/><ellipse class="cls-17" cx="495.03" cy="269.15" rx="1.37" ry="0.83" transform="translate(99.16 670.14) rotate(-73.9)"/><ellipse class="cls-6" cx="495.03" cy="269.15" rx="0.64" ry="0.38" transform="translate(99.16 670.14) rotate(-73.9)"/><ellipse class="cls-17" cx="494.98" cy="274.09" rx="1.37" ry="0.83" transform="matrix(0.28, -0.96, 0.96, 0.28, 94.39, 673.65)"/><ellipse class="cls-17" cx="494.93" cy="279.02" rx="1.37" ry="0.83" transform="translate(89.61 677.17) rotate(-73.9)"/><path class="cls-17" d="M491.58,279.51v.58a.2.2,0,0,1-.18.2,48,48,0,0,1-4.83.19,32.34,32.34,0,0,1-8.68-1,.21.21,0,0,1-.13-.2v-.56a.21.21,0,0,1,.27-.19,32.67,32.67,0,0,0,8.55,1,47.45,47.45,0,0,0,4.79-.18A.19.19,0,0,1,491.58,279.51Z"/><ellipse class="cls-2" cx="494.98" cy="274.09" rx="0.64" ry="0.38" transform="translate(94.39 673.65) rotate(-73.9)"/><ellipse class="cls-16" cx="494.93" cy="279.02" rx="0.64" ry="0.38" transform="matrix(0.28, -0.96, 0.96, 0.28, 89.61, 677.17)"/><path class="cls-17" d="M491.64,274.56v.58a.2.2,0,0,1-.18.2,48,48,0,0,1-4.83.19,32.4,32.4,0,0,1-8.68-1,.21.21,0,0,1-.13-.2v-.56a.21.21,0,0,1,.27-.19,32.73,32.73,0,0,0,8.55,1,47.45,47.45,0,0,0,4.79-.18A.2.2,0,0,1,491.64,274.56Z"/><path class="cls-17" d="M491.69,269.61v.58a.2.2,0,0,1-.18.2,47.86,47.86,0,0,1-4.83.19,32.46,32.46,0,0,1-8.68-1,.21.21,0,0,1-.13-.2v-.56a.2.2,0,0,1,.26-.19,32.73,32.73,0,0,0,8.55,1,47.45,47.45,0,0,0,4.79-.18A.2.2,0,0,1,491.69,269.61Z"/><path class="cls-15" d="M472.31,260.26c0,1.33-5.68,2.35-12.67,2.28S447,261.32,447,260s5.69-2.35,12.67-2.28S472.33,258.92,472.31,260.26Z"/><path class="cls-17" d="M472.31,260.26l-.18,17.91c0,1.33-5.69,2.35-12.68,2.28s-12.63-1.22-12.62-2.55L447,260c0,1.34,5.64,2.48,12.62,2.55S472.3,261.59,472.31,260.26Z"/><path class="cls-15" d="M472.3,261.59l-.05,4.43c0,1.33-5.68,2.35-12.67,2.28S447,267.09,447,265.75l.05-4.42c0,1.33,5.63,2.47,12.62,2.55S472.29,262.93,472.3,261.59Z"/><path class="cls-15" d="M472.23,267.79l0,4.43c0,1.33-5.69,2.35-12.67,2.28s-12.64-1.22-12.62-2.55l0-4.43c0,1.34,5.64,2.48,12.62,2.55S472.22,269.12,472.23,267.79Z"/><path class="cls-15" d="M472.17,274l-.05,4.42c0,1.34-5.68,2.36-12.67,2.28s-12.63-1.21-12.62-2.54l.05-4.43c0,1.33,5.63,2.48,12.62,2.55S472.15,275.32,472.17,274Z"/><ellipse class="cls-17" cx="470.64" cy="265" rx="1.72" ry="1.04" transform="translate(85.53 643.7) rotate(-73.9)"/><ellipse class="cls-6" cx="470.64" cy="265" rx="0.8" ry="0.48" transform="translate(85.53 643.7) rotate(-73.9)"/><ellipse class="cls-17" cx="470.58" cy="271.19" rx="1.72" ry="1.04" transform="translate(79.53 648.12) rotate(-73.9)"/><ellipse class="cls-17" cx="470.51" cy="277.39" rx="1.72" ry="1.04" transform="translate(73.53 652.53) rotate(-73.9)"/><path class="cls-17" d="M466.31,278v.73a.24.24,0,0,1-.22.25,60,60,0,0,1-6.07.23,40.18,40.18,0,0,1-10.9-1.31.24.24,0,0,1-.17-.24V277a.25.25,0,0,1,.33-.24A40.92,40.92,0,0,0,460,278a59.17,59.17,0,0,0,6-.22A.24.24,0,0,1,466.31,278Z"/><ellipse class="cls-2" cx="470.58" cy="271.19" rx="0.8" ry="0.48" transform="matrix(0.28, -0.96, 0.96, 0.28, 79.53, 648.12)"/><ellipse class="cls-2" cx="470.51" cy="277.39" rx="0.8" ry="0.48" transform="translate(73.53 652.53) rotate(-73.9)"/><path class="cls-17" d="M466.38,271.79v.73a.25.25,0,0,1-.23.25,57.11,57.11,0,0,1-6.07.23,40.67,40.67,0,0,1-10.9-1.3.25.25,0,0,1-.16-.25v-.7a.26.26,0,0,1,.34-.24,41.28,41.28,0,0,0,10.74,1.26c2.17,0,4.22-.07,6-.23A.25.25,0,0,1,466.38,271.79Z"/><path class="cls-17" d="M466.44,265.57v.73a.24.24,0,0,1-.22.25,57.22,57.22,0,0,1-6.07.23,40.67,40.67,0,0,1-10.9-1.3.26.26,0,0,1-.17-.25v-.7a.26.26,0,0,1,.33-.24,41.28,41.28,0,0,0,10.74,1.26,59,59,0,0,0,6-.23A.25.25,0,0,1,466.44,265.57Z"/><path class="cls-15" d="M474.77,288.74c0,1-4.43,1.84-9.87,1.78s-9.85-.95-9.84-2,4.43-1.84,9.87-1.78S474.78,287.7,474.77,288.74Z"/><path class="cls-17" d="M474.77,288.74l-.15,14c0,1-4.43,1.83-9.87,1.77s-9.84-.94-9.83-2l.14-13.95c0,1,4.39,1.92,9.84,2S474.76,289.78,474.77,288.74Z"/><path class="cls-15" d="M474.76,289.78l0,3.45c0,1-4.43,1.84-9.87,1.78s-9.84-.95-9.83-2l0-3.45c0,1,4.39,1.92,9.83,2S474.74,290.82,474.76,289.78Z"/><path class="cls-15" d="M474.7,294.61l0,3.45c0,1-4.43,1.83-9.87,1.78s-9.85-.95-9.83-2l0-3.45c0,1,4.39,1.93,9.83,2S474.69,295.65,474.7,294.61Z"/><path class="cls-15" d="M474.65,299.44l0,3.45c0,1-4.43,1.83-9.87,1.77s-9.85-.94-9.84-2l0-3.45c0,1,4.39,1.93,9.83,2S474.64,300.48,474.65,299.44Z"/><ellipse class="cls-17" cx="473.46" cy="292.44" rx="1.34" ry="0.81" transform="translate(61.21 666.24) rotate(-73.9)"/><ellipse class="cls-6" cx="473.46" cy="292.44" rx="0.62" ry="0.38" transform="matrix(0.28, -0.96, 0.96, 0.28, 61.21, 666.24)"/><ellipse class="cls-17" cx="473.41" cy="297.26" rx="1.34" ry="0.81" transform="translate(56.53 669.68) rotate(-73.9)"/><ellipse class="cls-17" cx="473.36" cy="302.09" rx="1.34" ry="0.81" transform="translate(51.86 673.12) rotate(-73.9)"/><path class="cls-17" d="M470.09,302.57v.57a.2.2,0,0,1-.17.2c-1.41.13-3,.19-4.73.18a31.58,31.58,0,0,1-8.49-1,.21.21,0,0,1-.13-.19v-.55a.19.19,0,0,1,.26-.18,32,32,0,0,0,8.37,1,45.6,45.6,0,0,0,4.69-.17A.19.19,0,0,1,470.09,302.57Z"/><ellipse class="cls-2" cx="473.41" cy="297.26" rx="0.62" ry="0.38" transform="translate(56.53 669.68) rotate(-73.9)"/><ellipse class="cls-16" cx="473.36" cy="302.09" rx="0.62" ry="0.38" transform="translate(51.86 673.12) rotate(-73.9)"/><path class="cls-17" d="M470.14,297.73v.57a.2.2,0,0,1-.18.19,46.23,46.23,0,0,1-4.73.18,31.17,31.17,0,0,1-8.49-1,.19.19,0,0,1-.13-.19v-.54a.2.2,0,0,1,.26-.19,32.37,32.37,0,0,0,8.37,1,45.43,45.43,0,0,0,4.69-.18A.19.19,0,0,1,470.14,297.73Z"/><path class="cls-17" d="M470.19,292.88v.57a.2.2,0,0,1-.18.2,46.23,46.23,0,0,1-4.73.18,31.58,31.58,0,0,1-8.49-1,.21.21,0,0,1-.13-.19v-.55a.2.2,0,0,1,.26-.18,32.13,32.13,0,0,0,8.37,1,45.6,45.6,0,0,0,4.69-.17A.19.19,0,0,1,470.19,292.88Z"/><path class="cls-15" d="M442.55,268.46c0,1.09-4.64,1.92-10.33,1.86s-10.29-1-10.28-2.08,4.63-1.92,10.32-1.86S442.56,267.37,442.55,268.46Z"/><path class="cls-17" d="M442.55,268.46l-.15,14.6c0,1.08-4.64,1.91-10.33,1.86s-10.3-1-10.29-2.08l.16-14.6c0,1.09,4.59,2,10.28,2.08S442.54,269.55,442.55,268.46Z"/><path class="cls-15" d="M442.54,269.55l0,3.61c0,1.08-4.63,1.92-10.33,1.86s-10.29-1-10.28-2.08l0-3.61c0,1.09,4.59,2,10.28,2.08S442.53,270.64,442.54,269.55Z"/><path class="cls-15" d="M442.48,274.6l0,3.61c0,1.08-4.64,1.92-10.33,1.86s-10.3-1-10.29-2.08l0-3.61c0,1.09,4.6,2,10.29,2.08S442.47,275.69,442.48,274.6Z"/><path class="cls-15" d="M442.43,279.65l0,3.61c0,1.08-4.63,1.92-10.32,1.86s-10.3-1-10.29-2.08l0-3.61c0,1.09,4.59,2,10.29,2.08S442.42,280.74,442.43,279.65Z"/><ellipse class="cls-17" cx="441.19" cy="272.32" rx="1.41" ry="0.85" transform="translate(57.2 620.69) rotate(-73.9)"/><ellipse class="cls-6" cx="441.19" cy="272.32" rx="0.65" ry="0.39" transform="translate(57.2 620.69) rotate(-73.9)"/><ellipse class="cls-17" cx="441.13" cy="277.37" rx="1.41" ry="0.85" transform="translate(52.31 624.29) rotate(-73.9)"/><ellipse class="cls-17" cx="441.08" cy="282.42" rx="1.41" ry="0.85" transform="translate(47.42 627.89) rotate(-73.9)"/><path class="cls-17" d="M437.66,282.93v.59a.21.21,0,0,1-.18.21c-1.47.13-3.16.2-5,.19a32.76,32.76,0,0,1-8.88-1.07.2.2,0,0,1-.14-.2v-.57a.21.21,0,0,1,.27-.2,33.5,33.5,0,0,0,8.75,1,46.65,46.65,0,0,0,4.91-.19A.21.21,0,0,1,437.66,282.93Z"/><ellipse class="cls-2" cx="441.13" cy="277.37" rx="0.65" ry="0.39" transform="matrix(0.28, -0.96, 0.96, 0.28, 52.31, 624.29)"/><ellipse class="cls-16" cx="441.08" cy="282.42" rx="0.65" ry="0.39" transform="translate(47.42 627.89) rotate(-73.9)"/><path class="cls-17" d="M437.71,277.86v.59a.2.2,0,0,1-.18.21,47.33,47.33,0,0,1-4.95.19,32.76,32.76,0,0,1-8.88-1.07.22.22,0,0,1-.14-.2V277a.2.2,0,0,1,.27-.19,34,34,0,0,0,8.75,1,46.65,46.65,0,0,0,4.91-.19A.21.21,0,0,1,437.71,277.86Z"/><path class="cls-17" d="M437.76,272.79v.6a.21.21,0,0,1-.19.2,47.24,47.24,0,0,1-4.94.19,32.91,32.91,0,0,1-8.89-1.07.21.21,0,0,1-.13-.19v-.58a.2.2,0,0,1,.27-.19,34.11,34.11,0,0,0,8.76,1c1.77,0,3.44,0,4.9-.18A.19.19,0,0,1,437.76,272.79Z"/><path class="cls-15" d="M452.64,292.65c0,1.41-6,2.49-13.37,2.41s-13.33-1.28-13.32-2.69,6-2.48,13.37-2.41S452.65,291.24,452.64,292.65Z"/><path class="cls-17" d="M452.64,292.65l-.2,18.9c0,1.41-6,2.48-13.37,2.41s-13.33-1.28-13.32-2.69l.2-18.9c0,1.41,5.95,2.61,13.32,2.69S452.62,294.06,452.64,292.65Z"/><path class="cls-15" d="M452.62,294.06l0,4.67c0,1.41-6,2.49-13.37,2.41s-13.34-1.28-13.32-2.69l.05-4.67c0,1.41,5.95,2.61,13.31,2.69S452.61,295.47,452.62,294.06Z"/><path class="cls-15" d="M452.56,300.6l-.05,4.67c0,1.41-6,2.49-13.37,2.41s-13.33-1.28-13.32-2.69l.05-4.67c0,1.41,5.95,2.61,13.32,2.69S452.54,302,452.56,300.6Z"/><path class="cls-15" d="M452.49,307.14l-.05,4.67c0,1.41-6,2.48-13.37,2.41s-13.33-1.28-13.32-2.69l.05-4.67c0,1.41,5.95,2.61,13.32,2.69S452.47,308.55,452.49,307.14Z"/><ellipse class="cls-17" cx="450.87" cy="297.65" rx="1.82" ry="1.1" transform="matrix(0.28, -0.96, 0.96, 0.28, 39.87, 648.31)"/><ellipse class="cls-6" cx="450.87" cy="297.65" rx="0.84" ry="0.51" transform="translate(39.87 648.31) rotate(-73.9)"/><ellipse class="cls-17" cx="450.81" cy="304.19" rx="1.82" ry="1.1" transform="translate(33.54 652.97) rotate(-73.9)"/><ellipse class="cls-17" cx="450.74" cy="310.73" rx="1.82" ry="1.1" transform="translate(27.21 657.63) rotate(-73.9)"/><path class="cls-17" d="M446.31,311.38v.77a.27.27,0,0,1-.24.27,60.51,60.51,0,0,1-6.4.24,42.38,42.38,0,0,1-11.51-1.38A.24.24,0,0,1,428,311v-.75a.28.28,0,0,1,.36-.25,43.36,43.36,0,0,0,11.33,1.33c2.3,0,4.46-.07,6.35-.24A.26.26,0,0,1,446.31,311.38Z"/><ellipse class="cls-2" cx="450.81" cy="304.19" rx="0.84" ry="0.51" transform="translate(33.54 652.97) rotate(-73.9)"/><ellipse class="cls-6" cx="450.74" cy="310.73" rx="0.84" ry="0.51" transform="translate(27.21 657.63) rotate(-73.9)"/><path class="cls-17" d="M446.38,304.82v.77a.28.28,0,0,1-.24.27c-1.91.17-4.09.26-6.41.24a42.36,42.36,0,0,1-11.5-1.38.27.27,0,0,1-.18-.26v-.74a.26.26,0,0,1,.35-.25,43.59,43.59,0,0,0,11.34,1.32,59.64,59.64,0,0,0,6.35-.24A.27.27,0,0,1,446.38,304.82Z"/><path class="cls-17" d="M446.44,298.26V299a.27.27,0,0,1-.24.26,63.46,63.46,0,0,1-6.41.25,42.76,42.76,0,0,1-11.5-1.38.27.27,0,0,1-.18-.26v-.74a.26.26,0,0,1,.35-.25,44,44,0,0,0,11.34,1.32,59.75,59.75,0,0,0,6.35-.24A.26.26,0,0,1,446.44,298.26Z"/><path class="cls-15" d="M413.77,267.3c0,1.38-5.89,2.44-13.14,2.37s-13.1-1.26-13.09-2.64,5.9-2.45,13.14-2.37S413.79,265.92,413.77,267.3Z"/><path class="cls-17" d="M413.77,267.3l-.19,18.58c0,1.38-5.9,2.44-13.14,2.37s-13.11-1.26-13.09-2.65l.19-18.57c0,1.38,5.85,2.56,13.09,2.64S413.76,268.68,413.77,267.3Z"/><path class="cls-15" d="M413.76,268.69l-.05,4.59c0,1.38-5.9,2.44-13.14,2.37s-13.11-1.26-13.09-2.65l0-4.59c0,1.39,5.84,2.57,13.09,2.64S413.75,270.07,413.76,268.69Z"/><path class="cls-15" d="M413.69,275.12l-.05,4.59c0,1.38-5.89,2.44-13.14,2.36s-13.1-1.26-13.09-2.64l0-4.59c0,1.38,5.84,2.57,13.09,2.64S413.68,276.5,413.69,275.12Z"/><path class="cls-15" d="M413.63,281.54l-.05,4.59c0,1.39-5.9,2.45-13.15,2.37s-13.1-1.26-13.09-2.64l.05-4.59c0,1.38,5.85,2.56,13.09,2.64S413.61,282.93,413.63,281.54Z"/><ellipse class="cls-17" cx="412.04" cy="272.22" rx="1.79" ry="1.08" transform="translate(36.24 592.62) rotate(-73.9)"/><ellipse class="cls-2" cx="412.04" cy="272.22" rx="0.83" ry="0.5" transform="translate(36.24 592.62) rotate(-73.9)"/><ellipse class="cls-17" cx="411.97" cy="278.65" rx="1.79" ry="1.08" transform="translate(30.02 597.2) rotate(-73.9)"/><ellipse class="cls-17" cx="411.91" cy="285.07" rx="1.79" ry="1.08" transform="translate(23.79 601.78) rotate(-73.9)"/><path class="cls-17" d="M407.55,285.72v.75a.25.25,0,0,1-.23.26,58.78,58.78,0,0,1-6.3.24,42,42,0,0,1-11.31-1.35.27.27,0,0,1-.17-.25v-.74a.26.26,0,0,1,.34-.24,43.11,43.11,0,0,0,11.14,1.3,60.5,60.5,0,0,0,6.25-.24A.27.27,0,0,1,407.55,285.72Z"/><ellipse class="cls-6" cx="411.97" cy="278.65" rx="0.83" ry="0.5" transform="translate(30.02 597.2) rotate(-73.9)"/><ellipse class="cls-16" cx="411.91" cy="285.07" rx="0.83" ry="0.5" transform="translate(23.79 601.78) rotate(-73.9)"/><path class="cls-17" d="M407.62,279.27V280a.25.25,0,0,1-.24.26,58.48,58.48,0,0,1-6.29.24,42,42,0,0,1-11.31-1.35.26.26,0,0,1-.17-.26v-.73a.26.26,0,0,1,.35-.24,43.11,43.11,0,0,0,11.14,1.3,60.19,60.19,0,0,0,6.24-.24A.27.27,0,0,1,407.62,279.27Z"/><path class="cls-17" d="M407.68,272.82v.75a.25.25,0,0,1-.24.26,58.48,58.48,0,0,1-6.29.24,42,42,0,0,1-11.31-1.35.25.25,0,0,1-.17-.26v-.73a.26.26,0,0,1,.35-.24,43.05,43.05,0,0,0,11.14,1.3c2.26,0,4.38-.07,6.24-.24A.25.25,0,0,1,407.68,272.82Z"/><polygon class="cls-15" points="351.59 235.29 351.59 275.75 308.41 275.75 308.41 226.17 342.01 226.17 351.59 235.29"/><polygon class="cls-13" points="350.53 234.22 350.53 274.69 309.45 274.69 309.45 225.1 341.41 225.1 350.53 234.22"/><polygon class="cls-18" points="340.15 235.49 341.41 225.1 350.53 234.22 340.15 235.49"/><polygon class="cls-8" points="341.41 234.22 341.41 225.1 350.53 234.22 341.41 234.22"/><rect class="cls-6" x="311.92" y="231.76" width="26.57" height="4.08" rx="1.02"/><rect class="cls-6" x="311.92" y="237.58" width="32.67" height="4.08" rx="1.02"/><path class="cls-16" d="M312.94,243.9h22.88a1,1,0,0,1,1,1h0a1,1,0,0,1-1,1H312.94a1,1,0,0,1-1-1h0A1,1,0,0,1,312.94,243.9Z"/><path class="cls-16" d="M312.94,247.82h13.15a1,1,0,0,1,1,1h0a1,1,0,0,1-1,1H312.94a1,1,0,0,1-1-1h0A1,1,0,0,1,312.94,247.82Z"/><path class="cls-16" d="M312.94,251.74h19.43a1,1,0,0,1,1,1h0a1,1,0,0,1-1,1H312.94a1,1,0,0,1-1-1h0A1,1,0,0,1,312.94,251.74Z"/><path class="cls-16" d="M312.94,255.67h22.88a1,1,0,0,1,1,1h0a1,1,0,0,1-1,1H312.94a1,1,0,0,1-1-1h0A1,1,0,0,1,312.94,255.67Z"/><path class="cls-2" d="M312.94,259.59h32a1,1,0,0,1,1,1h0a1,1,0,0,1-1,1h-32a1,1,0,0,1-1-1h0A1,1,0,0,1,312.94,259.59Z"/><path class="cls-2" d="M312.94,263.52h26.43a1,1,0,0,1,1,1h0a1,1,0,0,1-1,1H312.94a1,1,0,0,1-1-1h0A1,1,0,0,1,312.94,263.52Z"/><path class="cls-2" d="M312.94,267.44h20.45a1,1,0,0,1,1,1h0a1,1,0,0,1-1,1H312.94a1,1,0,0,1-1-1h0A1,1,0,0,1,312.94,267.44Z"/><path class="cls-2" d="M294.51,213.91a1.5,1.5,0,0,1,2.07.43l1.62,2.47A12.16,12.16,0,0,0,294.62,233l-2.22,1.45a1.5,1.5,0,0,1-2.08-.43,14.55,14.55,0,0,1,4.19-20.11Z"/><path class="cls-19" d="M298.2,216.81l5.53,8.42a1.51,1.51,0,0,1-.44,2.08L294.62,233a12.16,12.16,0,0,1,3.58-16.19Z"/><ellipse class="cls-13" cx="372.3" cy="300.75" rx="2.02" ry="0.85"/><ellipse class="cls-13" cx="363.75" cy="301.8" rx="5.55" ry="1.7"/><ellipse class="cls-13" cx="368.64" cy="298.96" rx="0.85" ry="0.36"/><ellipse class="cls-13" cx="355.24" cy="300.52" rx="0.95" ry="0.23"/><ellipse class="cls-13" cx="358.2" cy="304.93" rx="1.5" ry="0.62"/><ellipse class="cls-13" cx="369.31" cy="304.93" rx="2.28" ry="0.98"/><ellipse class="cls-13" cx="138.61" cy="326.33" rx="3.86" ry="1.62"/><ellipse class="cls-13" cx="154.92" cy="328.32" rx="10.61" ry="3.24"/><ellipse class="cls-13" cx="145.58" cy="322.91" rx="1.62" ry="0.68"/><ellipse class="cls-13" cx="171.17" cy="325.89" rx="1.81" ry="0.44"/><ellipse class="cls-13" cx="165.53" cy="334.3" rx="2.86" ry="1.18"/><ellipse class="cls-13" cx="144.31" cy="334.3" rx="4.36" ry="1.87"/><path class="cls-15" d="M440.59,224.41c0,1.17-5,2.07-11.12,2s-11.09-1.07-11.08-2.24,5-2.07,11.13-2S440.6,223.24,440.59,224.41Z"/><path class="cls-17" d="M440.59,224.41l-.16,15.72c0,1.17-5,2.07-11.12,2s-11.09-1.07-11.08-2.24l.16-15.72c0,1.17,4.95,2.17,11.08,2.24S440.58,225.58,440.59,224.41Z"/><path class="cls-15" d="M440.58,225.59l0,3.88c0,1.17-5,2.07-11.12,2s-11.09-1.06-11.08-2.23l0-3.89c0,1.17,4.95,2.18,11.08,2.24S440.57,226.76,440.58,225.59Z"/><path class="cls-15" d="M440.52,231l0,3.88c0,1.17-5,2.07-11.12,2s-11.09-1.06-11.08-2.23l0-3.89c0,1.17,4.95,2.17,11.08,2.24S440.51,232.2,440.52,231Z"/><path class="cls-15" d="M440.47,236.46l-.05,3.89c0,1.17-5,2.07-11.12,2s-11.09-1.06-11.07-2.23l0-3.89c0,1.17,4.94,2.17,11.07,2.24S440.45,237.64,440.47,236.46Z"/><ellipse class="cls-17" cx="439.12" cy="228.57" rx="1.51" ry="0.91" transform="translate(97.75 587.1) rotate(-73.9)"/><ellipse class="cls-6" cx="439.12" cy="228.57" rx="0.7" ry="0.42" transform="translate(97.75 587.1) rotate(-73.9)"/><ellipse class="cls-17" cx="439.07" cy="234.01" rx="1.51" ry="0.91" transform="translate(92.48 590.97) rotate(-73.9)"/><ellipse class="cls-17" cx="439.01" cy="239.45" rx="1.51" ry="0.91" transform="translate(87.21 594.85) rotate(-73.9)"/><path class="cls-17" d="M435.32,240v.64a.23.23,0,0,1-.2.22c-1.58.14-3.4.22-5.33.2a35.11,35.11,0,0,1-9.57-1.15.21.21,0,0,1-.14-.21v-.62a.23.23,0,0,1,.3-.21,36.23,36.23,0,0,0,9.42,1.1,51.16,51.16,0,0,0,5.29-.2A.22.22,0,0,1,435.32,240Z"/><ellipse class="cls-2" cx="439.07" cy="234.01" rx="0.7" ry="0.42" transform="translate(92.48 590.97) rotate(-73.9)"/><ellipse class="cls-16" cx="439.01" cy="239.45" rx="0.7" ry="0.42" transform="translate(87.21 594.85) rotate(-73.9)"/><path class="cls-17" d="M435.38,234.54v.64a.22.22,0,0,1-.19.22,51.84,51.84,0,0,1-5.33.2,35.11,35.11,0,0,1-9.57-1.15.22.22,0,0,1-.15-.21v-.62a.23.23,0,0,1,.29-.21,36.68,36.68,0,0,0,9.43,1.11c1.91,0,3.71-.06,5.28-.2A.22.22,0,0,1,435.38,234.54Z"/><path class="cls-17" d="M435.44,229.08v.64a.22.22,0,0,1-.2.22,51.53,51.53,0,0,1-5.32.2,35.05,35.05,0,0,1-9.57-1.15.22.22,0,0,1-.15-.21v-.62a.23.23,0,0,1,.29-.21,36.17,36.17,0,0,0,9.43,1.11c1.91,0,3.71-.06,5.28-.2A.22.22,0,0,1,435.44,229.08Z"/><path class="cls-6" d="M547,282.81l-.1.38c-.6,1.81-2.78,3.1-5.9,3.75a31.76,31.76,0,0,1-12.32-.29,30.56,30.56,0,0,1-12.12-5c-2.28-1.75-3.53-3.67-3.3-5.45v0a1.38,1.38,0,0,1,0-.2c.81-4,9-5.73,18.32-3.84S547.84,278.79,547,282.81Z"/><path class="cls-20" d="M546.92,283.19l-2.63,9.43c-.82,4-9,5.73-18.33,3.84s-16.19-6.68-15.37-10.68l.1-.4,2.59-9.19c-.23,1.78,1,3.7,3.3,5.45a30.56,30.56,0,0,0,12.12,5,31.76,31.76,0,0,0,12.32.29C544.14,286.29,546.32,285,546.92,283.19Z"/><rect class="cls-20" x="530.38" y="159.71" width="1.25" height="120.47" transform="translate(19.74 -42.63) rotate(4.68)"/><rect class="cls-20" x="539.47" y="160.46" width="1.25" height="120.47" transform="translate(19.83 -43.37) rotate(4.68)"/><rect class="cls-20" x="539.3" y="159.9" width="1.25" height="13.08" transform="translate(317.5 -352.94) rotate(49.68)"/><rect class="cls-20" x="539.3" y="159.9" width="1.25" height="13.08" transform="translate(1059.31 -55.99) rotate(139.68)"/><rect class="cls-20" x="538.33" y="171.74" width="1.25" height="13.08" transform="translate(326.2 -348.02) rotate(49.68)"/><rect class="cls-20" x="538.33" y="171.74" width="1.25" height="13.08" transform="translate(1065.26 -34.48) rotate(139.68)"/><rect class="cls-20" x="537.36" y="183.59" width="1.25" height="13.08" transform="translate(334.89 -343.09) rotate(49.68)"/><rect class="cls-20" x="537.36" y="183.59" width="1.25" height="13.08" transform="translate(1071.22 -12.97) rotate(139.68)"/><rect class="cls-20" x="536.39" y="195.44" width="1.25" height="13.08" transform="translate(343.58 -338.17) rotate(49.68)"/><rect class="cls-20" x="536.39" y="195.44" width="1.25" height="13.08" transform="translate(1077.17 8.55) rotate(139.68)"/><rect class="cls-20" x="535.42" y="207.29" width="1.25" height="13.08" transform="translate(352.27 -333.25) rotate(49.68)"/><rect class="cls-20" x="535.42" y="207.29" width="1.25" height="13.08" transform="translate(1083.12 30.06) rotate(139.68)"/><rect class="cls-20" x="534.45" y="219.14" width="1.25" height="13.08" transform="translate(360.96 -328.33) rotate(49.68)"/><rect class="cls-20" x="534.45" y="219.14" width="1.25" height="13.08" transform="translate(1089.08 51.57) rotate(139.68)"/><rect class="cls-20" x="533.48" y="230.99" width="1.25" height="13.08" transform="translate(369.65 -323.4) rotate(49.68)"/><rect class="cls-20" x="533.48" y="230.99" width="1.25" height="13.08" transform="translate(1095.03 73.08) rotate(139.68)"/><rect class="cls-20" x="532.51" y="242.83" width="1.25" height="13.08" transform="translate(378.35 -318.48) rotate(49.68)"/><rect class="cls-20" x="532.51" y="242.83" width="1.25" height="13.08" transform="translate(1100.99 94.59) rotate(139.68)"/><rect class="cls-20" x="531.54" y="254.68" width="1.25" height="13.08" transform="translate(387.04 -313.56) rotate(49.68)"/><rect class="cls-20" x="531.54" y="254.68" width="1.25" height="13.08" transform="translate(1106.94 116.1) rotate(139.68)"/><rect class="cls-20" x="530.57" y="266.53" width="1.25" height="13.08" transform="translate(395.73 -308.63) rotate(49.68)"/><rect class="cls-20" x="530.57" y="266.53" width="1.25" height="13.08" transform="translate(1112.9 137.61) rotate(139.68)"/><rect class="cls-6" x="527.98" y="159.52" width="1.25" height="120.47" transform="translate(19.71 -42.44) rotate(4.68)"/><rect class="cls-6" x="537.08" y="160.26" width="1.25" height="120.47" transform="translate(19.8 -43.18) rotate(4.68)"/><rect class="cls-6" x="537.01" y="159.71" width="1.25" height="13.08" transform="translate(316.55 -351.26) rotate(49.68)"/><rect class="cls-6" x="537.01" y="159.71" width="1.25" height="13.08" transform="translate(1055.14 -54.83) rotate(139.68)"/><rect class="cls-6" x="536.04" y="171.56" width="1.25" height="13.08" transform="matrix(0.65, 0.76, -0.76, 0.65, 325.24, -346.33)"/><rect class="cls-6" x="536.04" y="171.56" width="1.25" height="13.08" transform="translate(1061.09 -33.32) rotate(139.68)"/><rect class="cls-6" x="535.07" y="183.4" width="1.25" height="13.08" transform="translate(333.93 -341.41) rotate(49.68)"/><rect class="cls-6" x="535.07" y="183.4" width="1.25" height="13.08" transform="translate(1067.05 -11.81) rotate(139.68)"/><rect class="cls-6" x="534.09" y="195.25" width="1.25" height="13.08" transform="translate(342.63 -336.49) rotate(49.68)"/><rect class="cls-6" x="534.09" y="195.25" width="1.25" height="13.08" transform="translate(1073 9.7) rotate(139.68)"/><rect class="cls-6" x="533.12" y="207.1" width="1.25" height="13.08" transform="translate(351.32 -331.56) rotate(49.68)"/><rect class="cls-6" x="533.12" y="207.1" width="1.25" height="13.08" transform="translate(1078.96 31.21) rotate(139.68)"/><rect class="cls-6" x="532.15" y="218.95" width="1.25" height="13.08" transform="translate(360.01 -326.64) rotate(49.68)"/><rect class="cls-6" x="532.15" y="218.95" width="1.25" height="13.08" transform="translate(1084.91 52.72) rotate(139.68)"/><rect class="cls-6" x="531.18" y="230.8" width="1.25" height="13.08" transform="translate(368.7 -321.72) rotate(49.68)"/><rect class="cls-6" x="531.18" y="230.8" width="1.25" height="13.08" transform="translate(1090.87 74.23) rotate(139.68)"/><rect class="cls-6" x="530.21" y="242.65" width="1.25" height="13.08" transform="translate(377.39 -316.8) rotate(49.68)"/><rect class="cls-6" x="530.21" y="242.65" width="1.25" height="13.08" transform="translate(1096.82 95.74) rotate(139.68)"/><rect class="cls-6" x="529.24" y="254.49" width="1.25" height="13.08" transform="translate(386.08 -311.87) rotate(49.68)"/><rect class="cls-6" x="529.24" y="254.49" width="1.25" height="13.08" transform="translate(1102.78 117.25) rotate(139.68)"/><rect class="cls-6" x="528.27" y="266.34" width="1.25" height="13.08" transform="translate(394.78 -306.95) rotate(49.68)"/><rect class="cls-6" x="528.27" y="266.34" width="1.25" height="13.08" transform="translate(1108.73 138.77) rotate(139.68)"/><circle class="cls-21" cx="429.2" cy="159.7" r="6.7"/><circle class="cls-13" cx="429.2" cy="159.7" r="6.24"/><circle class="cls-17" cx="429.2" cy="159.7" r="5.36"/><circle class="cls-21" cx="429.2" cy="159.7" r="3.99"/><rect class="cls-22" x="428.99" y="156.19" width="0.42" height="1.79"/><rect class="cls-22" x="428.99" y="161.4" width="0.42" height="1.79"/><rect class="cls-22" x="428.99" y="161.4" width="0.42" height="1.79"/><rect class="cls-22" x="430.83" y="156.96" width="0.42" height="1.79" transform="translate(237.87 -258.56) rotate(45)"/><rect class="cls-22" x="427.14" y="160.64" width="0.42" height="1.79" transform="translate(239.39 -254.87) rotate(45)"/><rect class="cls-22" x="431.59" y="158.8" width="0.42" height="1.79" transform="translate(591.5 -272.11) rotate(90)"/><rect class="cls-22" x="426.38" y="158.8" width="0.42" height="1.79" transform="translate(586.29 -266.9) rotate(90)"/><rect class="cls-22" x="430.83" y="160.64" width="0.42" height="1.79" transform="translate(850.05 -29.03) rotate(135)"/><rect class="cls-22" x="427.14" y="156.96" width="0.42" height="1.79" transform="translate(841.16 -32.71) rotate(135)"/><polygon class="cls-8" points="423.92 150.06 423.92 155.57 424.94 154.52 425.01 150.15 423.92 150.06"/><polygon class="cls-8" points="435.47 151.01 434.9 156.17 434 155.01 434.38 150.92 435.47 151.01"/><rect class="cls-21" x="428.64" y="166.25" width="1.54" height="56.84"/><circle class="cls-21" cx="429.37" cy="223.09" r="1.86"/><rect class="cls-6" x="541.54" y="129.74" width="24.1" height="27.27" transform="translate(11.94 -40.03) rotate(4.19)"/><polygon class="cls-20" points="567.07 160.13 543.03 158.38 540.58 156.1 564.61 157.86 567.07 160.13"/><polygon class="cls-20" points="567.07 160.13 564.61 157.86 566.61 130.66 569.06 132.94 567.07 160.13"/><rect class="cls-22" x="543.73" y="131.04" width="10.6" height="14.08" transform="matrix(1, 0.07, -0.07, 1, 11.54, -39.71)"/><rect class="cls-22" x="555.27" y="131.83" width="8.63" height="24.46" transform="translate(12.01 -40.47) rotate(4.19)"/><polygon class="cls-8" points="543.71 138.16 554.12 141.16 553.8 145.49 543.23 144.72 543.71 138.16"/><rect class="cls-20" x="502.52" y="122.26" width="0.64" height="61.31" transform="translate(696.31 -335.76) rotate(94.68)"/><rect class="cls-20" x="502.14" y="126.89" width="0.64" height="61.31" transform="translate(700.52 -330.37) rotate(94.68)"/><rect class="cls-20" x="529.76" y="154.13" width="0.64" height="6.66" transform="translate(1036.13 -65.44) rotate(139.68)"/><rect class="cls-20" x="529.76" y="154.13" width="0.64" height="6.66" transform="translate(752.97 663.51) rotate(-130.32)"/><rect class="cls-20" x="523.73" y="153.63" width="0.64" height="6.66" transform="translate(1025.18 -62.41) rotate(139.68)"/><rect class="cls-20" x="523.73" y="153.63" width="0.64" height="6.66" transform="translate(743.42 658.1) rotate(-130.32)"/><rect class="cls-20" x="517.7" y="153.14" width="0.64" height="6.66" transform="translate(1014.23 -59.38) rotate(139.68)"/><rect class="cls-20" x="517.7" y="153.14" width="0.64" height="6.66" transform="translate(733.86 652.69) rotate(-130.32)"/><rect class="cls-20" x="511.67" y="152.65" width="0.64" height="6.66" transform="translate(1003.28 -56.35) rotate(139.68)"/><rect class="cls-20" x="511.67" y="152.65" width="0.64" height="6.66" transform="translate(724.31 647.27) rotate(-130.32)"/><rect class="cls-20" x="505.64" y="152.15" width="0.64" height="6.66" transform="translate(992.34 -53.32) rotate(139.68)"/><rect class="cls-20" x="505.64" y="152.15" width="0.64" height="6.66" transform="translate(714.75 641.86) rotate(-130.32)"/><rect class="cls-20" x="499.61" y="151.66" width="0.64" height="6.66" transform="translate(981.39 -50.29) rotate(139.68)"/><rect class="cls-20" x="499.61" y="151.66" width="0.64" height="6.66" transform="translate(705.2 636.45) rotate(-130.32)"/><rect class="cls-20" x="493.58" y="151.16" width="0.64" height="6.66" transform="translate(970.44 -47.26) rotate(139.68)"/><rect class="cls-20" x="493.58" y="151.16" width="0.64" height="6.66" transform="translate(695.64 631.04) rotate(-130.32)"/><rect class="cls-20" x="487.55" y="150.67" width="0.64" height="6.66" transform="translate(959.49 -44.23) rotate(139.68)"/><rect class="cls-20" x="487.55" y="150.67" width="0.64" height="6.66" transform="translate(686.09 625.63) rotate(-130.32)"/><rect class="cls-20" x="481.52" y="150.17" width="0.64" height="6.66" transform="translate(948.55 -41.19) rotate(139.68)"/><rect class="cls-20" x="481.52" y="150.17" width="0.64" height="6.66" transform="translate(676.53 620.22) rotate(-130.32)"/><rect class="cls-20" x="475.48" y="149.68" width="0.64" height="6.66" transform="translate(937.6 -38.16) rotate(139.68)"/><rect class="cls-20" x="475.48" y="149.68" width="0.64" height="6.66" transform="translate(666.98 614.8) rotate(-130.32)"/><rect class="cls-6" x="502.62" y="121.04" width="0.64" height="61.31" transform="translate(695.21 -337.18) rotate(94.68)"/><rect class="cls-6" x="502.24" y="125.67" width="0.64" height="61.31" transform="translate(699.41 -331.79) rotate(94.68)"/><rect class="cls-6" x="529.85" y="152.96" width="0.64" height="6.66" transform="translate(1035.54 -67.56) rotate(139.68)"/><rect class="cls-6" x="529.85" y="152.96" width="0.64" height="6.66" transform="translate(754.02 661.66) rotate(-130.32)"/><rect class="cls-6" x="523.82" y="152.47" width="0.64" height="6.66" transform="translate(1024.59 -64.53) rotate(139.68)"/><rect class="cls-6" x="523.82" y="152.47" width="0.64" height="6.66" transform="translate(744.47 656.25) rotate(-130.32)"/><rect class="cls-6" x="517.79" y="151.97" width="0.64" height="6.66" transform="translate(1013.65 -61.5) rotate(139.68)"/><rect class="cls-6" x="517.79" y="151.97" width="0.64" height="6.66" transform="translate(734.91 650.84) rotate(-130.32)"/><rect class="cls-6" x="511.76" y="151.48" width="0.64" height="6.66" transform="translate(1002.7 -58.47) rotate(139.68)"/><rect class="cls-6" x="511.76" y="151.48" width="0.64" height="6.66" transform="translate(725.36 645.42) rotate(-130.32)"/><rect class="cls-6" x="505.73" y="150.98" width="0.64" height="6.66" transform="translate(991.75 -55.44) rotate(139.68)"/><rect class="cls-6" x="505.73" y="150.98" width="0.64" height="6.66" transform="translate(715.8 640.01) rotate(-130.32)"/><rect class="cls-6" x="499.7" y="150.49" width="0.64" height="6.66" transform="translate(980.8 -52.41) rotate(139.68)"/><rect class="cls-6" x="499.7" y="150.49" width="0.64" height="6.66" transform="translate(706.25 634.6) rotate(-130.32)"/><rect class="cls-6" x="493.67" y="149.99" width="0.64" height="6.66" transform="translate(969.85 -49.38) rotate(139.68)"/><rect class="cls-6" x="493.67" y="149.99" width="0.64" height="6.66" transform="translate(696.69 629.19) rotate(-130.32)"/><rect class="cls-6" x="487.64" y="149.5" width="0.64" height="6.66" transform="translate(958.91 -46.35) rotate(139.68)"/><rect class="cls-6" x="487.64" y="149.5" width="0.64" height="6.66" transform="translate(687.14 623.78) rotate(-130.32)"/><rect class="cls-6" x="481.61" y="149.01" width="0.64" height="6.66" transform="translate(947.96 -43.32) rotate(139.68)"/><rect class="cls-6" x="481.61" y="149.01" width="0.64" height="6.66" transform="translate(677.58 618.36) rotate(-130.32)"/><rect class="cls-6" x="475.58" y="148.51" width="0.64" height="6.66" transform="translate(937.01 -40.29) rotate(139.68)"/><rect class="cls-6" x="475.58" y="148.51" width="0.64" height="6.66" transform="translate(668.03 612.95) rotate(-130.32)"/><rect class="cls-20" x="563.68" y="127.26" width="0.64" height="61.31" transform="translate(767.45 -391.3) rotate(94.68)"/><rect class="cls-20" x="563.3" y="131.89" width="0.64" height="61.31" transform="translate(771.65 -385.92) rotate(94.68)"/><rect class="cls-20" x="590.91" y="159.13" width="0.64" height="6.66" transform="translate(1147.15 -96.19) rotate(139.68)"/><rect class="cls-20" x="590.91" y="159.13" width="0.64" height="6.66" transform="translate(849.88 718.38) rotate(-130.32)"/><rect class="cls-20" x="584.88" y="158.64" width="0.64" height="6.66" transform="translate(1136.21 -93.16) rotate(139.68)"/><rect class="cls-20" x="584.88" y="158.64" width="0.64" height="6.66" transform="translate(840.33 712.97) rotate(-130.32)"/><rect class="cls-20" x="578.85" y="158.14" width="0.64" height="6.66" transform="translate(1125.26 -90.13) rotate(139.68)"/><rect class="cls-20" x="578.85" y="158.14" width="0.64" height="6.66" transform="translate(830.77 707.56) rotate(-130.32)"/><rect class="cls-20" x="572.82" y="157.65" width="0.64" height="6.66" transform="translate(1114.31 -87.1) rotate(139.68)"/><rect class="cls-20" x="572.82" y="157.65" width="0.64" height="6.66" transform="translate(821.22 702.14) rotate(-130.32)"/><rect class="cls-20" x="566.79" y="157.15" width="0.64" height="6.66" transform="translate(1103.36 -84.07) rotate(139.68)"/><rect class="cls-20" x="566.79" y="157.15" width="0.64" height="6.66" transform="translate(811.66 696.73) rotate(-130.32)"/><rect class="cls-20" x="560.76" y="156.66" width="0.64" height="6.66" transform="translate(1092.41 -81.04) rotate(139.68)"/><rect class="cls-20" x="560.76" y="156.66" width="0.64" height="6.66" transform="translate(802.11 691.32) rotate(-130.32)"/><rect class="cls-20" x="554.73" y="156.16" width="0.64" height="6.66" transform="translate(1081.47 -78.01) rotate(139.68)"/><rect class="cls-20" x="554.73" y="156.16" width="0.64" height="6.66" transform="translate(792.55 685.91) rotate(-130.32)"/><rect class="cls-20" x="548.7" y="155.67" width="0.64" height="6.66" transform="translate(1070.52 -74.98) rotate(139.68)"/><rect class="cls-20" x="548.7" y="155.67" width="0.64" height="6.66" transform="translate(783 680.5) rotate(-130.32)"/><rect class="cls-20" x="542.67" y="155.18" width="0.64" height="6.66" transform="translate(1059.57 -71.95) rotate(139.68)"/><rect class="cls-20" x="542.67" y="155.18" width="0.64" height="6.66" transform="translate(773.44 675.09) rotate(-130.32)"/><rect class="cls-20" x="536.64" y="154.68" width="0.64" height="6.66" transform="translate(1048.62 -68.92) rotate(139.68)"/><rect class="cls-20" x="536.64" y="154.68" width="0.64" height="6.66" transform="translate(763.89 669.67) rotate(-130.32)"/><rect class="cls-6" x="563.78" y="126.04" width="0.64" height="61.31" transform="translate(766.34 -392.72) rotate(94.68)"/><rect class="cls-6" x="563.4" y="130.67" width="0.64" height="61.31" transform="translate(770.55 -387.33) rotate(94.68)"/><rect class="cls-6" x="591.01" y="157.96" width="0.64" height="6.66" transform="translate(1146.57 -98.31) rotate(139.68)"/><rect class="cls-6" x="591.01" y="157.96" width="0.64" height="6.66" transform="translate(850.93 716.53) rotate(-130.32)"/><rect class="cls-6" x="584.98" y="157.47" width="0.64" height="6.66" transform="translate(1135.62 -95.28) rotate(139.68)"/><rect class="cls-6" x="584.98" y="157.47" width="0.64" height="6.66" transform="translate(841.38 711.12) rotate(-130.32)"/><rect class="cls-6" x="578.95" y="156.97" width="0.64" height="6.66" transform="translate(1124.67 -92.25) rotate(139.68)"/><rect class="cls-6" x="578.95" y="156.97" width="0.64" height="6.66" transform="translate(831.82 705.71) rotate(-130.32)"/><rect class="cls-6" x="572.92" y="156.48" width="0.64" height="6.66" transform="translate(1113.72 -89.22) rotate(139.68)"/><rect class="cls-6" x="572.92" y="156.48" width="0.64" height="6.66" transform="translate(822.27 700.29) rotate(-130.32)"/><rect class="cls-6" x="566.89" y="155.98" width="0.64" height="6.66" transform="translate(1102.78 -86.19) rotate(139.68)"/><rect class="cls-6" x="566.89" y="155.98" width="0.64" height="6.66" transform="translate(812.71 694.88) rotate(-130.32)"/><rect class="cls-6" x="560.86" y="155.49" width="0.64" height="6.66" transform="translate(1091.83 -83.16) rotate(139.68)"/><rect class="cls-6" x="560.86" y="155.49" width="0.64" height="6.66" transform="translate(803.16 689.47) rotate(-130.32)"/><rect class="cls-6" x="554.83" y="155" width="0.64" height="6.66" transform="translate(1080.88 -80.13) rotate(139.68)"/><rect class="cls-6" x="554.83" y="155" width="0.64" height="6.66" transform="translate(793.6 684.06) rotate(-130.32)"/><rect class="cls-6" x="548.8" y="154.5" width="0.64" height="6.66" transform="translate(1069.93 -77.1) rotate(139.68)"/><rect class="cls-6" x="548.8" y="154.5" width="0.64" height="6.66" transform="translate(784.05 678.65) rotate(-130.32)"/><rect class="cls-6" x="542.77" y="154.01" width="0.64" height="6.66" transform="translate(1058.98 -74.07) rotate(139.68)"/><rect class="cls-6" x="542.77" y="154.01" width="0.64" height="6.66" transform="translate(774.49 673.23) rotate(-130.32)"/><rect class="cls-6" x="536.74" y="153.51" width="0.64" height="6.66" transform="translate(1048.04 -71.04) rotate(139.68)"/><rect class="cls-6" x="536.74" y="153.51" width="0.64" height="6.66" transform="translate(764.94 667.82) rotate(-130.32)"/><rect class="cls-20" x="442.44" y="117.33" width="0.64" height="61.31" transform="translate(626.41 -281.2) rotate(94.68)"/><rect class="cls-20" x="442.06" y="121.96" width="0.64" height="61.31" transform="translate(630.61 -275.82) rotate(94.68)"/><rect class="cls-20" x="469.67" y="149.2" width="0.64" height="6.66" transform="translate(927.04 -35.25) rotate(139.68)"/><rect class="cls-20" x="469.67" y="149.2" width="0.64" height="6.66" transform="translate(657.76 609.58) rotate(-130.32)"/><rect class="cls-20" x="463.64" y="148.71" width="0.64" height="6.66" transform="translate(916.09 -32.21) rotate(139.68)"/><rect class="cls-20" x="463.64" y="148.71" width="0.64" height="6.66" transform="translate(648.21 604.17) rotate(-130.32)"/><rect class="cls-20" x="457.61" y="148.21" width="0.64" height="6.66" transform="translate(905.14 -29.18) rotate(139.68)"/><rect class="cls-20" x="457.61" y="148.21" width="0.64" height="6.66" transform="translate(638.65 598.76) rotate(-130.32)"/><rect class="cls-20" x="451.58" y="147.72" width="0.64" height="6.66" transform="translate(894.19 -26.15) rotate(139.68)"/><rect class="cls-20" x="451.58" y="147.72" width="0.64" height="6.66" transform="translate(629.1 593.35) rotate(-130.32)"/><rect class="cls-20" x="445.55" y="147.22" width="0.64" height="6.66" transform="translate(883.25 -23.12) rotate(139.68)"/><rect class="cls-20" x="445.55" y="147.22" width="0.64" height="6.66" transform="translate(619.54 587.93) rotate(-130.32)"/><rect class="cls-20" x="439.52" y="146.73" width="0.64" height="6.66" transform="translate(872.3 -20.09) rotate(139.68)"/><rect class="cls-20" x="439.52" y="146.73" width="0.64" height="6.66" transform="translate(609.99 582.52) rotate(-130.32)"/><rect class="cls-20" x="433.49" y="146.24" width="0.64" height="6.66" transform="translate(861.35 -17.06) rotate(139.68)"/><rect class="cls-20" x="433.49" y="146.24" width="0.64" height="6.66" transform="translate(600.43 577.11) rotate(-130.32)"/><rect class="cls-20" x="427.46" y="145.74" width="0.64" height="6.66" transform="translate(850.4 -14.03) rotate(139.68)"/><rect class="cls-20" x="427.46" y="145.74" width="0.64" height="6.66" transform="translate(590.88 571.7) rotate(-130.32)"/><rect class="cls-20" x="421.43" y="145.25" width="0.64" height="6.66" transform="translate(839.45 -11) rotate(139.68)"/><rect class="cls-20" x="421.43" y="145.25" width="0.64" height="6.66" transform="translate(581.32 566.29) rotate(-130.32)"/><rect class="cls-20" x="415.4" y="144.75" width="0.64" height="6.66" transform="translate(828.51 -7.97) rotate(139.68)"/><rect class="cls-20" x="415.4" y="144.75" width="0.64" height="6.66" transform="translate(571.77 560.87) rotate(-130.32)"/><rect class="cls-6" x="442.54" y="116.11" width="0.64" height="61.31" transform="translate(625.3 -282.62) rotate(94.68)"/><rect class="cls-6" x="442.16" y="120.74" width="0.64" height="61.31" transform="matrix(-0.08, 1, -1, -0.08, 629.5, -277.23)"/><rect class="cls-6" x="469.77" y="148.03" width="0.64" height="6.66" transform="translate(926.45 -37.37) rotate(139.68)"/><rect class="cls-6" x="469.77" y="148.03" width="0.64" height="6.66" transform="translate(658.81 607.73) rotate(-130.32)"/><rect class="cls-6" x="463.73" y="147.54" width="0.64" height="6.66" transform="translate(915.5 -34.34) rotate(139.68)"/><rect class="cls-6" x="463.73" y="147.54" width="0.64" height="6.66" transform="translate(649.26 602.32) rotate(-130.32)"/><rect class="cls-6" x="457.7" y="147.04" width="0.64" height="6.66" transform="translate(904.55 -31.3) rotate(139.68)"/><rect class="cls-6" x="457.7" y="147.04" width="0.64" height="6.66" transform="translate(639.7 596.91) rotate(-130.32)"/><rect class="cls-6" x="451.67" y="146.55" width="0.64" height="6.66" transform="translate(893.61 -28.27) rotate(139.68)"/><rect class="cls-6" x="451.67" y="146.55" width="0.64" height="6.66" transform="translate(630.15 591.49) rotate(-130.32)"/><rect class="cls-6" x="445.64" y="146.06" width="0.64" height="6.66" transform="translate(882.66 -25.24) rotate(139.68)"/><rect class="cls-6" x="445.64" y="146.06" width="0.64" height="6.66" transform="translate(620.59 586.08) rotate(-130.32)"/><rect class="cls-6" x="439.61" y="145.56" width="0.64" height="6.66" transform="translate(871.71 -22.21) rotate(139.68)"/><rect class="cls-6" x="439.61" y="145.56" width="0.64" height="6.66" transform="translate(611.04 580.67) rotate(-130.32)"/><rect class="cls-6" x="433.58" y="145.07" width="0.64" height="6.66" transform="translate(860.76 -19.18) rotate(139.68)"/><rect class="cls-6" x="433.58" y="145.07" width="0.64" height="6.66" transform="translate(601.48 575.26) rotate(-130.32)"/><rect class="cls-6" x="427.55" y="144.57" width="0.64" height="6.66" transform="translate(849.82 -16.15) rotate(139.68)"/><rect class="cls-6" x="427.55" y="144.57" width="0.64" height="6.66" transform="translate(591.93 569.85) rotate(-130.32)"/><rect class="cls-6" x="421.52" y="144.08" width="0.64" height="6.66" transform="translate(838.87 -13.12) rotate(139.68)"/><rect class="cls-6" x="421.52" y="144.08" width="0.64" height="6.66" transform="translate(582.37 564.43) rotate(-130.32)"/><rect class="cls-6" x="415.49" y="143.59" width="0.64" height="6.66" transform="translate(827.92 -10.09) rotate(139.68)"/><rect class="cls-6" x="415.49" y="143.59" width="0.64" height="6.66" transform="translate(572.82 559.02) rotate(-130.32)"/><path class="cls-23" d="M165.5,55.59c24.84,28.82,92.87,120.54,92.87,120.54s40.67,57.51,95.16,12.76c29.86-24.52,26.42-74.7-13-97.34,0,0-26.93-12.61-46.16-4s-123.94,54.44-168.2,55.27c-16.54.31-46.85-12.78-38.23-54C96.63,47,146.55,33.61,165.5,55.59Z"/><path class="cls-4" d="M333.51,125.46a29.07,29.07,0,1,0-1,41.11A29.07,29.07,0,0,0,333.51,125.46Zm1.92,69.64-6.57,2.44a2.13,2.13,0,0,1-2.67-1.08l-4.56-8.75a43.41,43.41,0,0,1-20.82-.63l-4.88,8.26a2.1,2.1,0,0,1-2.72.94l-6.43-2.78a2.14,2.14,0,0,1-1.18-2.64l2.77-9.52a42.88,42.88,0,0,1-13.25-14.16l-9.83,2.36a2.13,2.13,0,0,1-2.57-1.31l-2.47-6.56a2.13,2.13,0,0,1,1.07-2.68l8.87-4.67a43.39,43.39,0,0,1,.64-20.26l-9.13-5.34a2.11,2.11,0,0,1-1-2.72l2.76-6.44a2.12,2.12,0,0,1,2.62-1.2l10.53,3a43.11,43.11,0,0,1,14.82-13.62L288.94,97a2.12,2.12,0,0,1,1.32-2.57L296.83,92a2.13,2.13,0,0,1,2.67,1.09l5.18,9.93a43.33,43.33,0,0,1,19.51.92l5.3-9.62a2.11,2.11,0,0,1,2.69-1l6.52,2.59A2.15,2.15,0,0,1,340,98.5L337,109.75a1.11,1.11,0,0,1-.08.21,42.3,42.3,0,0,1,6.77,5.78,43,43,0,0,1,5.86,7.72l.08,0,11.39-2.36a2.12,2.12,0,0,1,2.52,1.39l2.27,6.64a2.12,2.12,0,0,1-1.16,2.64l-10,4.87a43.64,43.64,0,0,1-.15,18.52l9.05,5.3a2.12,2.12,0,0,1,.95,2.72l-2.75,6.45a2.13,2.13,0,0,1-2.64,1.18L349.35,168a43.28,43.28,0,0,1-7.11,8.82,44.45,44.45,0,0,1-7.8,5.9l2.31,9.86A2.13,2.13,0,0,1,335.43,195.1Z"/><path class="cls-4" d="M157,80a23.51,23.51,0,1,0-2,33.19A23.51,23.51,0,0,0,157,80Zm-.5,56.34-5.39,1.78a1.73,1.73,0,0,1-2.12-1l-3.43-7.2a35.24,35.24,0,0,1-16.81-1.13l-4.18,6.53a1.69,1.69,0,0,1-2.23.68l-5.12-2.44a1.72,1.72,0,0,1-.87-2.16l2.52-7.61a35.05,35.05,0,0,1-5.62-5.11,34.69,34.69,0,0,1-4.67-6.73l-8,1.62a1.72,1.72,0,0,1-2-1.14l-1.81-5.37a1.74,1.74,0,0,1,1-2.14l7.31-3.51a35,35,0,0,1,1.11-16.35l-7.22-4.59a1.71,1.71,0,0,1-.7-2.22l2.42-5.13a1.72,1.72,0,0,1,2.16-.89l8.42,2.76A34.77,34.77,0,0,1,123.55,64.5l-1.73-8.76a1.7,1.7,0,0,1,1.15-2l5.38-1.78a1.7,1.7,0,0,1,2.12,1l3.89,8.18a35.14,35.14,0,0,1,15.74,1.32l4.57-7.62a1.72,1.72,0,0,1,2.21-.76l5.19,2.29a1.73,1.73,0,0,1,.94,2.14l-2.69,9-.07.16a35.68,35.68,0,0,1,5.3,4.87,34.61,34.61,0,0,1,4.5,6.42l.07,0,9.27-1.57a1.71,1.71,0,0,1,2,1.2L183,83.93a1.72,1.72,0,0,1-1,2.1l-8.22,3.65a35,35,0,0,1-.67,15l7.17,4.55a1.71,1.71,0,0,1,.68,2.23l-2.41,5.12a1.72,1.72,0,0,1-2.17.88l-7.85-2.57a35,35,0,0,1-6,6.92,36.08,36.08,0,0,1-6.48,4.54l1.58,8A1.74,1.74,0,0,1,156.5,136.38Z"/><path class="cls-2" d="M377.32,143.92a5.18,5.18,0,1,0-.72,7.29A5.19,5.19,0,0,0,377.32,143.92Z"/><path class="cls-2" d="M89.91,90.92a5.18,5.18,0,1,0-.72,7.29A5.19,5.19,0,0,0,89.91,90.92Z"/><path class="cls-2" d="M314.31,82.18a3.33,3.33,0,1,0-.46,4.68A3.32,3.32,0,0,0,314.31,82.18Z"/><path class="cls-2" d="M130.79,140.7a3.33,3.33,0,1,0-.46,4.68A3.32,3.32,0,0,0,130.79,140.7Z"/><path class="cls-2" d="M273.47,183.72a5.72,5.72,0,1,0-.79,8.05A5.73,5.73,0,0,0,273.47,183.72Z"/><path class="cls-2" d="M150.67,41a7.09,7.09,0,1,0-1,10A7.1,7.1,0,0,0,150.67,41Z"/><circle class="cls-24" cx="440.94" cy="75.64" r="18.06"/><circle class="cls-25" cx="420.24" cy="95.01" r="6.87"/></svg>