<?xml version="1.0" encoding="UTF-8"?>
<svg width="150px" height="150px" viewBox="0 0 150 150" version="1.1" xmlns="http://www.w3.org/2000/svg" xmlns:xlink="http://www.w3.org/1999/xlink">
    <!-- Generator: Sketch 57.1 (83088) - https://sketch.com -->
    <title>DevOps Intelligence@2x</title>
    <desc>Created with Sketch.</desc>
    <defs>
        <linearGradient x1="92.0424309%" y1="11.2528123%" x2="12.0972457%" y2="11.2528123%" id="linearGradient-1">
            <stop stop-color="#FCAE2A" offset="0%"></stop>
            <stop stop-color="#D75F0D" offset="100%"></stop>
        </linearGradient>
    </defs>
    <g id="DevOps-Intelligence" stroke="none" stroke-width="1" fill="none" fill-rule="evenodd">
        <g id="Group" fill-rule="nonzero">
            <g id="Group-8" transform="translate(0.000000, 36.000000)" fill="url(#linearGradient-1)">
                <path d="M89.0941721,38.6144748 L101.095241,26.1324011 C104.820821,22.2566214 109.974809,20.4051428 115.322642,21.1091601 C118.056452,21.4688722 120.681424,22.5372905 122.918704,24.2105877 C132.439058,31.3298042 132.439058,45.8991455 122.918704,53.0190318 C120.681424,54.692329 118.056452,55.7607474 115.322642,56.1204594 C109.974809,56.8238069 104.820821,54.9723283 101.094597,51.0965486 L89.0941721,38.6144748 L62.9990114,11.4719596 C48.5867805,-3.5187203 25.2209212,-3.5187203 10.8086902,11.4719596 L10.8086902,11.4719596 C-3.60289674,26.4619696 -3.60289674,50.7663102 10.8086902,65.7569901 L10.8086902,65.7569901 C25.2209212,80.74767 48.5867805,80.74767 62.9990114,65.7569901 L74.9994365,53.2749163 L60.9047009,38.6144748 L49.197299,50.7917647 C45.9199478,54.2006556 41.5039923,56.2765355 36.8690745,56.2671576 C32.2071083,56.2577796 27.8343013,54.3058228 24.6058946,50.7797073 C18.1555212,43.7348447 18.4891168,32.3607107 25.3188103,25.7144117 C28.4725122,22.645807 32.5638882,20.962462 36.9038508,20.962462 C41.4370156,20.962462 45.6990534,22.7985339 48.9042759,26.1324011 L87.0005055,65.7569901 C101.412737,80.7470001 124.778596,80.7470001 139.190827,65.7569901 L139.190827,65.7569901 C153.603058,50.7663102 153.603058,26.4626395 139.190827,11.4719596 L138.817303,11.0834438 C124.46754,-3.84226015 101.153846,-3.67077733 87.0082336,11.4632515 L75.0187567,23.9734591 L89.0941721,38.6144748 Z" id="Path"></path>
            </g>
            <path d="M43.1813818,0.000148724616 C45.9242479,0.0232872079 48.6663185,0.0495569648 51.4075935,0.0791104412 C52.7607302,0.0938871794 53.5124728,0.83764967 53.6508889,2.23405143 C53.8274887,4.00233444 54.0470453,5.76815466 54.2140992,7.53890046 C54.2546694,7.96742587 54.4241098,8.13243278 54.8011743,8.29005132 C56.6371763,9.05844171 58.4612459,9.85884836 60.273383,10.6912713 C60.6456746,10.8612038 60.8819366,10.8735177 61.2112714,10.6026109 C62.5954324,9.4672648 63.9986852,8.35900943 65.406711,7.25321685 C66.4066479,6.46758694 67.4209038,6.54393342 68.3110625,7.47486793 C70.2536608,9.50092292 72.1906906,11.5343663 74.122152,13.575198 C75.0361755,14.5381488 75.0886782,15.5823716 74.2820464,16.63152 C73.1842636,18.0599381 72.0785258,19.4834305 70.9648331,20.9019974 C70.7434426,21.1235851 70.6935531,21.4708539 70.8431224,21.7491971 C71.6354352,23.6972637 72.3752454,25.6699583 73.1627853,27.6204877 C73.2725884,27.8610603 73.4780239,28.0407248 73.7259956,28.1130457 C75.3416455,28.3593246 76.9596819,28.6376199 78.5872643,28.7779989 C79.7065255,28.8740477 80.5155437,29.3099615 81,30.3591099 L80.948,35.999 L63.4218047,36.0000296 C63.4343925,35.753384 63.4418199,35.5053727 63.4439761,35.2561082 C63.5275968,25.882246 56.2355345,18.2111263 47.1517965,18.1170251 C38.0680585,18.022924 30.6282296,25.5414316 30.5294715,34.915137 C30.5256341,35.2793616 30.5329367,35.6410346 30.551052,35.9998107 L13,35.999 L13.0102409,34.7933627 C13.0229808,33.3903935 13.0361065,31.9870139 13.0496299,30.5832237 C13.0639488,29.1326406 13.7655752,28.366713 15.1592821,28.2115572 C16.8942562,28.0293108 18.6268439,27.8002714 20.3642045,27.6278761 C20.746042,27.5884714 20.8558203,27.406225 20.987077,27.0762112 C21.7483655,25.1626236 22.5239729,23.2539616 23.3401506,21.3650019 C23.5187723,21.0528344 23.4717762,20.6557503 23.2255993,20.3971255 C22.1445219,18.9834842 21.0777634,17.5526034 20.0229373,16.1217226 C19.2330109,15.0528718 19.306992,14.0111118 20.2281749,13.0703261 C22.19782,11.068899 24.1706471,9.07157658 26.1466562,7.07835878 C27.0749987,6.14496149 28.0820951,6.0932429 29.1058969,6.94783093 C30.4900578,8.08317698 31.8742188,9.22098583 33.2416743,10.3760342 C33.4645181,10.5951791 33.8022049,10.6325527 34.0650114,10.4671574 C35.9360152,9.65936239 37.8157694,8.87783713 39.7042741,8.12258162 C40.0312224,7.98959097 40.1958898,7.87630265 40.241233,7.47979351 C40.4440842,5.69180818 40.6970516,3.90874843 40.9070622,2.12076311 C41.0741161,0.721898554 41.8330181,-0.0120127779 43.1813818,0.000148724616 Z" id="Combined-Shape" fill="#FFBD7E"></path>
            <path d="M92.737538,113.000119 C95.4400678,113.023258 98.1418138,113.049527 100.842776,113.079081 C102.176014,113.093858 102.916701,113.83762 103.053082,115.234022 C103.227084,117.002305 103.443412,118.768125 103.608009,120.538871 C103.647983,120.967396 103.814932,121.132403 104.186451,121.290022 C105.995453,122.058412 107.792698,122.858819 109.578186,123.691242 C109.945003,123.861174 110.17779,123.873488 110.502282,123.602581 C111.866088,122.467235 113.248705,121.35898 114.636024,120.253187 C115.621256,119.467557 116.620596,119.543904 117.497665,120.474838 C119.411695,122.500893 121.320239,124.534337 123.223297,126.575168 C124.123879,127.538119 124.175609,128.582342 123.38084,129.63149 C122.299201,131.059908 121.209724,132.483401 120.112409,133.901968 C119.894274,134.123555 119.845118,134.470824 119.992488,134.749167 C120.773149,136.697234 121.50208,138.669929 122.278038,140.620458 C122.386227,140.861031 122.588641,141.040695 122.832966,141.113016 L124.744815,141.413043 C125.701755,141.559865 126.660557,141.693742 127.622746,141.777969 C128.725547,141.874018 129.522668,142.309932 130,143.35908 L129.949,148.99897 L112.680308,149 C112.69271,148.753354 112.700028,148.505343 112.702153,148.256079 C112.784544,138.882216 105.599718,131.211097 96.6495642,131.116995 C87.6994106,131.022894 80.3689909,138.541402 80.2716851,147.915107 C80.2679042,148.279332 80.2750994,148.641005 80.2929483,148.999781 L63,148.99897 L63.0100903,147.793333 C63.0226428,146.390364 63.0355755,144.986984 63.0489,143.583194 C63.0630084,142.132611 63.7543167,141.366683 65.1275279,141.211528 C66.8369878,141.029281 68.5440962,140.800242 70.2559074,140.627846 C70.6321297,140.588442 70.7402936,140.406195 70.86962,140.076182 C71.6197131,138.162594 72.3839145,136.253932 73.1880895,134.364972 C73.3640845,134.052805 73.3177795,133.655721 73.0752229,133.397096 C72.0100436,131.983455 70.9589727,130.552574 69.9196588,129.121693 C69.141349,128.052842 69.2142421,127.011082 70.1218782,126.070296 C72.062558,124.068869 74.0063729,122.071547 75.953323,120.078329 C76.8680134,119.144932 77.8602996,119.093213 78.8690454,119.947801 C80.2328511,121.083147 81.5966567,122.220956 82.9440026,123.376005 C83.1635693,123.595149 83.4962901,123.632523 83.7552319,123.467128 C85.5987209,122.659333 87.4508316,121.877807 89.3115641,121.122552 C89.6337044,120.989561 89.7959503,120.876273 89.8406267,120.479764 C90.0404947,118.691779 90.289742,116.908719 90.4966642,115.120733 C90.6612615,113.721869 91.4090032,112.987958 92.737538,113.000119 Z" id="Combined-Shape-Copy" fill="#D35400" transform="translate(96.500000, 130.999985) scale(1, -1) translate(-96.500000, -130.999985) "></path>
        </g>
    </g>
</svg>