<?xml version="1.0" encoding="UTF-8"?>
<svg width="150px" height="150px" viewBox="0 0 150 150" version="1.1" xmlns="http://www.w3.org/2000/svg" xmlns:xlink="http://www.w3.org/1999/xlink">
    <!-- Generator: Sketch 57.1 (83088) - https://sketch.com -->
    <title>Continuous Integration and Deployment</title>
    <desc>Created with Sketch.</desc>
    <g id="Continuous-Integration-and-Deployment" stroke="none" stroke-width="1" fill="none" fill-rule="evenodd">
        <path id="Path" d="M139.060345,48.1858043 C140.363731,47.7302253 141.789653,48.417508 142.245232,49.7208933 C144.177552,55.2491503 145.415448,61.0185988 145.91853,66.9257974 C146.035693,68.3015292 145.015422,69.5117597 143.63969,69.6289229 C142.263958,69.7460862 141.053728,68.7258147 140.936565,67.3500829 C140.469177,61.8620153 139.319607,56.5042241 137.525256,51.3706908 C137.069677,50.0673056 137.75696,48.6413833 139.060345,48.1858043 Z M15.6882464,36.0079718 C16.413604,34.8331435 17.9540091,34.4687755 19.1288374,35.194133 C20.3036658,35.9194906 20.6680338,37.4598957 19.9426762,38.634724 C19.2389621,39.7744975 18.5704545,40.9354707 17.938173,42.1160616 L27.2975295,44.60665 C28.2208152,44.8522279 28.770206,45.799779 28.5246282,46.7230647 C28.4555972,46.9825967 28.3270885,47.2224923 28.149279,47.4237532 L28.149279,47.4237532 L9.24352794,68.8230049 C8.61097053,69.538991 7.51776002,69.6066233 6.80177391,68.9740659 C6.52126994,68.7262471 6.32871055,68.394134 6.2529987,68.0275765 L6.2529987,68.0275765 L0.47704799,40.0634246 C0.283793548,39.1277871 0.885613996,38.2126393 1.82125158,38.0193848 C2.08425567,37.9650617 2.35629566,37.9727189 2.61582768,38.0417499 L2.61582768,38.0417499 L12.9825457,40.7995491 C13.821617,39.1676346 14.7242744,37.569273 15.6882464,36.0079718 Z M119.360493,20.8206053 C120.285356,19.7954254 121.866178,19.7141026 122.891358,20.6389656 C123.794808,21.4540102 124.67563,22.2908384 125.544857,23.1600682 C128.846316,26.4630799 131.814857,30.085648 134.402676,33.9723724 C135.167876,35.1216485 134.85652,36.6736373 133.707244,37.4388366 C132.557968,38.2040358 131.005979,37.89268 130.24078,36.743404 C127.835963,33.1315365 125.077006,29.7647274 122.008905,26.6951839 C121.200561,25.8868381 120.381859,25.1090264 119.542133,24.3514702 C118.516953,23.4266072 118.43563,21.8457851 119.360493,20.8206053 Z M40.7852929,11.7478879 C41.9841372,11.0629517 43.5112431,11.4795564 44.1961793,12.6784007 C44.8811156,13.877245 44.4645108,15.4043509 43.2656665,16.0892871 C38.5186673,18.8013924 34.1265231,22.1004853 30.1943936,25.9016952 C29.2016969,26.8613402 27.6190112,26.8345465 26.6593662,25.8418498 C25.6997212,24.8491531 25.7265149,23.2664675 26.7192115,22.3068225 C30.9500324,18.2168661 35.6762457,14.6668423 40.7852929,11.7478879 Z M88.9719753,6.25417708 C89.2897884,4.91054017 90.6366597,4.07894565 91.9802966,4.39675873 C97.7275704,5.75617268 103.257411,7.83208637 108.45775,10.5669467 C109.679777,11.2096108 110.149443,12.721241 109.506778,13.9432672 C108.864114,15.1652935 107.352484,15.6349593 106.130458,14.9922952 C101.300826,12.4523899 96.166077,10.5247946 90.8293936,9.26249838 C89.4857567,8.94468531 88.6541622,7.59781398 88.9719753,6.25417708 Z M74.4500534,2.5168544 C75.8305568,2.4928631 76.9691248,3.59253345 76.9931161,4.97303687 C77.0171074,6.3535403 75.917437,7.49210823 74.5369336,7.51609953 C69.0147306,7.61206802 63.5923392,8.39240317 58.3582036,9.82604716 C57.0265409,10.1907932 55.6513299,9.40695237 55.2865839,8.07528965 C54.9218378,6.74362693 55.7056786,5.36841591 57.0373414,5.00366986 C62.672901,3.46007474 68.5097987,2.62008807 74.4500534,2.5168544 Z" fill="#D2DAE1" fill-rule="nonzero"></path>
        <path id="Path-Copy" d="M137.681605,127.173772 C138.98499,126.718193 140.410913,127.405476 140.866492,128.708861 C142.798812,134.237118 144.036708,140.006567 144.53979,145.913765 C144.656953,147.289497 143.636682,148.499728 142.26095,148.616891 C140.885218,148.734054 139.674988,147.713783 139.557825,146.338051 C139.090437,140.849983 137.940867,135.492192 136.146516,130.358659 C135.690937,129.055273 136.37822,127.629351 137.681605,127.173772 Z M14.3095063,114.99594 C15.0348639,113.821111 16.575269,113.456743 17.7500973,114.182101 C18.9249257,114.907459 19.2892937,116.447864 18.5639361,117.622692 C17.860222,118.762465 17.1917143,119.923439 16.5594329,121.10403 L25.9187894,123.594618 C26.8420751,123.840196 27.3914659,124.787747 27.1458881,125.711033 C27.0768571,125.970565 26.9483483,126.21046 26.7705389,126.411721 L26.7705389,126.411721 L7.86478783,147.810973 C7.23223042,148.526959 6.13901991,148.594591 5.4230338,147.962034 C5.14252983,147.714215 4.94997045,147.382102 4.87425859,147.015544 L4.87425859,147.015544 L-0.901692118,119.051393 C-1.09494656,118.115755 -0.493126113,117.200607 0.442511474,117.007353 C0.705515561,116.95303 0.977555553,116.960687 1.23708758,117.029718 L1.23708758,117.029718 L11.6038056,119.787517 C12.4428769,118.155602 13.3455343,116.557241 14.3095063,114.99594 Z M117.981753,99.8085732 C118.906616,98.7833934 120.487438,98.7020705 121.512618,99.6269335 C122.416068,100.441978 123.29689,101.278806 124.166117,102.148036 C127.467576,105.451048 130.436117,109.073616 133.023936,112.96034 C133.789135,114.109616 133.47778,115.661605 132.328504,116.426804 C131.179228,117.192004 129.627239,116.880648 128.862039,115.731372 C126.457223,112.119504 123.698266,108.752695 120.630165,105.683152 C119.821821,104.874806 119.003119,104.096994 118.163393,103.339438 C117.138213,102.414575 117.05689,100.833753 117.981753,99.8085732 Z M39.4065528,90.7358559 C40.6053971,90.0509196 42.132503,90.4675244 42.8174392,91.6663686 C43.5023755,92.8652129 43.0857707,94.3923188 41.8869264,95.077255 C37.1399272,97.7893603 32.7477829,101.088453 28.8156535,104.889663 C27.8229568,105.849308 26.2402711,105.822514 25.2806261,104.829818 C24.3209811,103.837121 24.3477747,102.254435 25.3404714,101.29479 C29.5712923,97.204834 34.2975055,93.6548102 39.4065528,90.7358559 Z M87.5932352,85.242145 C87.9110483,83.8985081 89.2579196,83.0669136 90.6015565,83.3847266 C96.3488302,84.7441406 101.878671,86.8200543 107.07901,89.5549146 C108.301037,90.1975787 108.770702,91.7092089 108.128038,92.9312351 C107.485374,94.1532614 105.973744,94.6229272 104.751718,93.9802632 C99.9220858,91.4403578 94.7873369,89.5127625 89.4506535,88.2504663 C88.1070166,87.9326532 87.2754221,86.5857819 87.5932352,85.242145 Z M73.0713133,81.5048223 C74.4518167,81.480831 75.5903846,82.5805014 75.6143759,83.9610048 C75.6383672,85.3415082 74.5386969,86.4800761 73.1581935,86.5040674 C67.6359905,86.6000359 62.2135991,87.3803711 56.9794635,88.8140151 C55.6478008,89.1787611 54.2725898,88.3949203 53.9078437,87.0632576 C53.5430977,85.7315948 54.3269385,84.3563838 55.6586013,83.9916378 C61.2941609,82.4480427 67.1310586,81.608056 73.0713133,81.5048223 Z" fill="#D2DAE1" fill-rule="nonzero"></path>
        <path d="M81.0269623,114.999623 L68.6149807,114.884981 C67.3568872,114.236301 66.8258934,113.2135 66.7384001,111.792439 C66.6116856,109.761921 66.2888655,107.740455 66.0837088,105.712954 C66.0354366,105.224181 65.8393309,105.031086 65.3837623,104.847042 C63.0365281,103.895645 60.7043789,102.907038 58.3873147,101.881219 C57.9438142,101.685106 57.6632322,101.667004 57.2710208,101.977767 C55.5151206,103.362622 53.7381014,104.720323 51.9610822,106.075008 C50.6516995,107.073672 49.3875721,106.980142 48.226023,105.806484 C45.7923011,103.338485 43.3636076,100.864451 40.9399424,98.3843836 C39.7482232,97.1775379 39.687883,95.9133671 40.7438367,94.5828198 C42.1165766,92.8540134 43.4893164,91.1221899 44.8892093,89.4145032 C45.1895275,89.1249698 45.2530733,88.6676739 45.0430768,88.3072224 C44.0494747,85.9458277 43.0920767,83.5693474 42.1708828,81.1777816 C42.0859054,80.8011785 41.7572308,80.5295475 41.3713749,80.5170336 C39.1810252,80.2575618 36.9967096,79.9407648 34.8063599,79.6722417 C33.1047659,79.4640608 32.2147478,78.4955672 32.2266947,76.7788292 C32.2569859,73.3433419 32.2891674,69.9058432 32.3233601,66.4663331 C32.3414622,64.6892528 33.2284633,63.7509303 34.9903975,63.5608522 C37.1837642,63.3375857 39.3741139,63.0569941 41.5704976,62.8457961 C42.0532193,62.7975223 42.1920018,62.5742558 42.3579374,62.1699625 C43.3203638,59.8256648 44.3008922,57.4874014 45.3327099,55.1732748 C45.5585248,54.7908447 45.4991119,54.304385 45.1878934,53.987549 C43.8211875,52.2557255 42.4725838,50.5027821 41.1390651,48.7498388 C40.1404346,47.4404113 40.2339619,46.164172 41.398528,45.0116344 C43.8885675,42.5597263 46.3826295,40.1128467 48.8807143,37.6709957 C50.0543315,36.5275094 51.3275099,36.46415 52.6218075,37.5110886 C54.3716736,38.9019783 56.1215398,40.295885 57.8502868,41.7109115 C58.1320075,41.9793815 58.5589136,42.0251672 58.8911555,41.8225448 C61.2564918,40.8329313 63.6328905,39.8755004 66.0203516,38.9502521 C66.433682,38.7873279 66.6418557,38.6485407 66.6991789,38.1627853 C66.9556248,35.9723604 67.275428,33.7879698 67.5409249,31.5975449 C67.7521156,29.8838241 68.711525,28.9847241 70.416136,28.9996229 C73.8836868,29.0279694 77.350232,29.0601519 80.8157715,29.0963573 C82.5264165,29.11446 83.4767749,30.0256285 83.6517615,31.7363322 C83.8750203,33.9026201 84.1525853,36.065891 84.363776,38.235196 C84.4150652,38.7601739 84.6292729,38.9623205 85.1059606,39.1554159 C87.4270474,40.0967555 89.7330492,41.0773176 92.0239659,42.0971021 C92.4946196,42.305283 92.7933036,42.3203686 93.2096511,41.988486 C94.9595172,40.5975964 96.7335195,39.239895 98.5135557,37.8852108 C99.7776832,36.9227514 101.059913,37.0162819 102.185258,38.1567511 C104.641104,40.6388303 107.089911,43.1299609 109.531678,45.6301428 C110.687193,46.8098344 110.753568,48.0890908 109.733818,49.3743815 C108.345993,51.1243077 106.948112,52.8681996 105.540173,54.6060574 C105.26029,54.87752 105.197219,55.3029521 105.386306,55.6439446 C106.387953,58.0304819 107.323227,60.4471904 108.31884,62.8367448 C108.457654,63.1314654 108.717367,63.3515688 109.030855,63.4401676 C111.073371,63.741879 113.118904,64.0828129 115.176505,64.2547884 C116.591483,64.3724559 117.61425,64.9064851 118.226695,66.1917757 L118.10904,78.6072004 C117.469433,79.8713712 116.446667,80.3993662 115.025655,80.4868625 C112.99219,80.6135813 110.97381,80.9364125 108.949395,81.1415763 C108.534824,81.1450033 108.175584,81.429671 108.077479,81.8324954 C107.130138,84.1798102 106.14257,86.5110337 105.114775,88.826166 C104.885688,89.2058719 104.942793,89.6925209 105.253557,90.0088747 C106.62328,91.7406983 107.968867,93.4936416 109.302386,95.2435678 C110.310067,96.5620467 110.231625,97.8232004 109.058008,98.9787551 C106.56998,101.42664 104.074912,103.869497 101.572804,106.307325 C100.405221,107.447794 99.1139408,107.514171 97.8317113,106.488352 C96.1029643,105.118582 94.3742172,103.748813 92.6696062,102.348872 C92.3566999,102.034169 91.8710684,101.969746 91.486938,102.191982 C89.1819419,103.169527 86.8558268,104.098798 84.5236776,105.006949 C84.065092,105.184959 83.802612,105.341849 83.7422718,105.893981 C83.515996,107.918464 83.1388697,109.927862 82.9729341,111.955363 C82.8673387,113.367372 82.3122088,114.390174 81.0269623,114.999623 Z M97.2257687,72.6973665 C97.3350063,60.8308454 87.80904,51.1198531 75.9425226,51.000729 C64.0760053,50.8816049 54.3570044,60.3994032 54.227992,72.2657257 C54.0989796,84.1320483 63.6087498,93.8589014 75.4750522,93.9978 C87.3110671,94.1518664 97.120036,84.542353 97.2257687,72.6973665 Z" id="Shape-Copy-3" fill="#5BA8A8" fill-rule="nonzero"></path>
    </g>
</svg>