<?xml version="1.0" encoding="UTF-8"?>
<svg width="150px" height="150px" viewBox="0 0 150 150" version="1.1" xmlns="http://www.w3.org/2000/svg" xmlns:xlink="http://www.w3.org/1999/xlink">
    <!-- Generator: Sketch 57.1 (83088) - https://sketch.com -->
    <title>DevOps Monitoring Solutions@2x</title>
    <desc>Created with Sketch.</desc>
    <g id="DevOps-Monitoring-Solutions" stroke="none" stroke-width="1" fill="none" fill-rule="evenodd">
        <g id="Group" transform="translate(-0.295455, 25.000000)">
            <polygon id="Rectangle-Copy-3" fill="#C0C0C0" points="0 7.48794521 141.5625 7.48794521 141.5625 94.3646575 0 94.3646575"></polygon>
            <polygon id="Rectangle" fill="#EEEEEE" points="5.24305556 12.6591781 137.368056 12.6591781 137.368056 89.1934247 5.24305556 89.1934247"></polygon>
            <rect id="Rectangle" fill="#4279E8" x="11.8445391" y="70.3287671" width="7.34027778" height="15.5136986"></rect>
            <rect id="Rectangle-Copy" fill="#57A3A1" x="21.2820391" y="63.0890411" width="7.34027778" height="22.7534247"></rect>
            <rect id="Rectangle-Copy-2" fill="#4279E8" x="30.7195391" y="77.5684932" width="7.34027778" height="8.2739726"></rect>
            <rect id="Rectangle-Copy-4" fill="#57A3A1" x="40.1570391" y="49.6438356" width="7.34027778" height="36.1986301"></rect>
            <rect id="Rectangle-Copy-5" fill="#4279E8" x="49.5945391" y="70.3287671" width="7.34027778" height="15.5136986"></rect>
            <polyline id="Path-59" stroke="#979797" points="62.1778725 39.3013699 87.8688447 23.7876712 95.733428 31.5445205 114.608428 20.6849315 126.667456 20.6849315 145.01815 7.23972603"></polyline>
            <ellipse id="Oval" fill="#4279E8" cx="61.1292614" cy="39.3013699" rx="3.14583333" ry="3.10273973"></ellipse>
            <ellipse id="Oval-Copy" fill="#57A3A1" cx="88.3931503" cy="23.7876712" rx="3.14583333" ry="3.10273973"></ellipse>
            <ellipse id="Oval-Copy-2" fill="#4279E8" cx="95.733428" cy="29.9931507" rx="3.14583333" ry="3.10273973"></ellipse>
            <ellipse id="Oval-Copy-3" fill="#57A3A1" cx="115.657039" cy="20.6849315" rx="3.14583333" ry="3.10273973"></ellipse>
            <ellipse id="Oval-Copy-4" fill="#4279E8" cx="127.191761" cy="20.6849315" rx="3.14583333" ry="3.10273973"></ellipse>
            <ellipse id="Oval-Copy-5" fill="#57A3A1" cx="141.872317" cy="8.2739726" rx="8.38888889" ry="8.2739726"></ellipse>
            <rect id="Rectangle" fill="#57A3A1" x="22.3306503" y="17.5821918" width="26.2152778" height="3.27511416"></rect>
            <rect id="Rectangle" fill="#57A3A1" x="11.8445391" y="17.5821918" width="3.14583333" height="3.10273973"></rect>
            <rect id="Rectangle-Copy-8" fill="#57A3A1" x="11.8445391" y="25.8561644" width="3.14583333" height="3.10273973"></rect>
            <rect id="Rectangle-Copy-9" fill="#57A3A1" x="11.8445391" y="34.130137" width="3.14583333" height="3.10273973"></rect>
            <rect id="Rectangle-Copy-6" fill="#57A3A1" x="22.3306503" y="25.8561644" width="26.2152778" height="3.27511416"></rect>
            <rect id="Rectangle-Copy-7" fill="#57A3A1" x="22.3306503" y="34.130137" width="26.2152778" height="3.27511416"></rect>
            <ellipse id="Oval" fill="#4279E8" cx="118.278567" cy="92.5650685" rx="12.0590278" ry="11.8938356"></ellipse>
            <path d="M118.278567,110.664384 C128.413376,110.664384 136.629261,102.561044 136.629261,92.5650685 C136.629261,82.5690928 128.413376,74.4657534 118.278567,74.4657534 C108.143758,74.4657534 99.9278725,82.5690928 99.9278725,92.5650685 C99.9278725,102.561044 108.143758,110.664384 118.278567,110.664384 Z" id="Oval-Copy-6" stroke="#57A3A1" stroke-width="4" stroke-dasharray="18"></path>
        </g>
    </g>
</svg>