<?xml version="1.0" encoding="UTF-8"?>
<svg width="150px" height="150px" viewBox="0 0 150 150" version="1.1" xmlns="http://www.w3.org/2000/svg" xmlns:xlink="http://www.w3.org/1999/xlink">
    <!-- Generator: Sketch 57.1 (83088) - https://sketch.com -->
    <title>DevOps success with devops metrics </title>
    <desc>Created with Sketch.</desc>
    <g id="DevOps-success-with-devops-metrics-" stroke="none" stroke-width="1" fill="none" fill-rule="evenodd">
        <g id="Group" transform="translate(7.537570, 2.177717)" fill="#A4A7A9" fill-rule="nonzero">
            <path id="Path-Copy-2" d="M130.487863,43.8118785 C131.788692,43.3490509 133.218418,44.0283851 133.681245,45.329214 C135.645953,50.8512435 136.901358,56.6228427 137.404917,62.5356391 C137.52208,63.9113709 136.501809,65.1216015 135.126077,65.2387647 C133.750345,65.3559279 132.540115,64.3356564 132.422952,62.9599246 C131.955884,57.4756071 130.791968,52.1246256 128.970527,47.0052612 C128.5077,45.7044323 129.187034,44.2747062 130.487863,43.8118785 Z M-3.64483531,33.5902138 C-3.38160946,33.5369757 -3.10960335,33.5457545 -2.85035819,33.6158551 L-2.85035819,33.6158551 L7.514,36.418 L7.97138075,35.5628261 C8.60315145,34.4002096 10.0235035,33.9393624 11.2085195,34.4831969 L11.361668,34.5598544 C12.5109135,35.1843593 12.9744387,36.5794113 12.4596624,37.7560157 L21.8040632,40.2824752 C22.7263284,40.5318581 23.2718073,41.4816666 23.0224244,42.4039318 C22.9523238,42.663177 22.8228269,42.9025406 22.6441891,43.1030666 L22.6441891,43.1030666 L3.65035833,64.424178 C3.01485392,65.1375496 1.92137382,65.2006735 1.20800216,64.5651691 C0.928522464,64.3161956 0.737334195,63.9832914 0.66313449,63.6164248 L0.66313449,63.6164248 L-4.99745613,35.6286934 C-5.1868508,34.6922669 -4.58126183,33.7796085 -3.64483531,33.5902138 Z M110.473329,16.6923069 C111.381154,15.6520087 112.960419,15.5446175 114.000717,16.4524418 C115.186128,17.4869 116.334447,18.5600092 117.456399,19.6819643 C120.508334,22.7354626 123.270035,26.0681865 125.701882,29.6345939 C126.479733,30.7753452 126.185544,32.3306795 125.044793,33.1085302 C123.904042,33.886381 122.348707,33.592192 121.570857,32.4514408 C119.314589,29.1425277 116.751988,26.0500725 113.92041,23.2170429 C112.878811,22.1754418 111.813204,21.1796263 110.713195,20.2196947 C109.672896,19.3118704 109.565505,17.7326051 110.473329,16.6923069 Z M31.8405657,10.081036 C33.007896,9.34367228 34.5519555,9.69222904 35.2893193,10.8595593 C36.026683,12.0268896 35.6781263,13.5709492 34.510796,14.3083129 C29.8918849,17.2259255 25.6603531,20.7255791 21.9239436,24.7138919 C20.9799721,25.7215045 19.3979007,25.7730958 18.3902881,24.8291244 C17.3826754,23.8851529 17.3310841,22.3030815 18.2750555,21.2954689 C22.3016143,16.9974454 26.8619254,13.2258776 31.8405657,10.081036 Z M79.7729973,2.83556047 C80.0533537,1.48361167 81.3765986,0.614914416 82.7285474,0.895270846 C88.5201437,2.09628621 94.1048025,4.03526803 99.366518,6.65518688 C100.60249,7.27060352 101.10555,8.77145083 100.490134,10.0074232 C99.8747169,11.2433955 98.3738696,11.7464553 97.1378972,11.1310387 C92.2594889,8.70197653 87.0824896,6.90453324 81.7132869,5.79111053 C80.3613381,5.5107541 79.4926409,4.18750927 79.7729973,2.83556047 Z M65.1399432,-0.455568778 C66.5189272,-0.524622571 67.6927937,0.53728567 67.7618475,1.91626966 C67.8309013,3.29525366 66.7689931,4.46912022 65.3900091,4.53817401 C59.8842729,4.81387842 54.4956227,5.78828947 49.3194978,7.42557943 C48.003074,7.84198504 46.5983382,7.11237614 46.1819326,5.79595233 C45.765527,4.47952852 46.4951359,3.07479272 47.8115597,2.65838711 C53.3944454,0.892432274 59.2057738,-0.158410216 65.1399432,-0.455568778 Z"></path>
            <path id="Path-Copy-3" d="M129.13888,121.09507 C130.439709,120.632243 131.869435,121.311577 132.332262,122.612406 C134.29697,128.134435 135.552375,133.906034 136.055934,139.818831 C136.173097,141.194563 135.152826,142.404793 133.777094,142.521956 C132.401362,142.63912 131.191132,141.618848 131.073968,140.243116 C130.606901,134.758799 129.442985,129.407817 127.621544,124.288453 C127.158716,122.987624 127.838051,121.557898 129.13888,121.09507 Z M-4.99381844,110.873405 C-4.73059258,110.820167 -4.45858648,110.828946 -4.19934131,110.899047 L-4.19934131,110.899047 L6.165,113.701 L6.62239763,112.846018 C7.25416833,111.683401 8.67452036,111.222554 9.85953636,111.766389 L10.0126849,111.843046 C11.1616921,112.467421 11.6252633,113.862024 11.1109994,115.038475 L20.4550801,117.565667 C21.3773453,117.81505 21.9228242,118.764858 21.6734412,119.687123 C21.6033407,119.946369 21.4738438,120.185732 21.295206,120.386258 L21.295206,120.386258 L2.30137521,141.70737 C1.66587079,142.420741 0.572390687,142.483865 -0.140980963,141.848361 C-0.420460664,141.599387 -0.611648933,141.266483 -0.685848638,140.899616 L-0.685848638,140.899616 L-6.34643926,112.911885 C-6.53583393,111.975458 -5.93024496,111.0628 -4.99381844,110.873405 Z M109.124346,93.9754985 C110.032171,92.9352004 111.611436,92.8278091 112.651734,93.7356334 C113.837145,94.7700916 114.985464,95.8432008 116.107416,96.9651559 C119.15935,100.018654 121.921052,103.351378 124.352899,106.917786 C125.13075,108.058537 124.836561,109.613871 123.69581,110.391722 C122.555059,111.169573 120.999724,110.875384 120.221874,109.734632 C117.965606,106.425719 115.403005,103.333264 112.571426,100.500235 C111.529828,99.4586334 110.464221,98.462818 109.364211,97.5028863 C108.323913,96.595062 108.216522,95.0157967 109.124346,93.9754985 Z M30.4915825,87.3642276 C31.6589128,86.6268639 33.2029724,86.9754207 33.9403362,88.142751 C34.6776999,89.3100813 34.3291431,90.8541408 33.1618128,91.5915046 C28.5429018,94.5091171 24.31137,98.0087708 20.5749605,101.997084 C19.630989,103.004696 18.0489175,103.056287 17.0413049,102.112316 C16.0336923,101.168345 15.982101,99.5862731 16.9260724,98.5786605 C20.9526312,94.280637 25.5129423,90.5090692 30.4915825,87.3642276 Z M78.4240142,80.1187521 C78.7043706,78.7668033 80.0276154,77.898106 81.3795642,78.1784625 C87.1711606,79.3794778 92.7558194,81.3184597 98.0175349,83.9383785 C99.2535072,84.5537951 99.756567,86.0546425 99.1411504,87.2906148 C98.5257338,88.5265872 97.0248865,89.029647 95.7889141,88.4142303 C90.9105057,85.9851682 85.7335065,84.1877249 80.3643038,83.0743022 C79.012355,82.7939457 78.1436577,81.4707009 78.4240142,80.1187521 Z M63.79096,76.8276229 C65.169944,76.7585691 66.3438106,77.8204773 66.4128644,79.1994613 C66.4819182,80.5784453 65.4200099,81.7523118 64.0410259,81.8213656 C58.5352898,82.09707 53.1466396,83.0714811 47.9705147,84.7087711 C46.6540909,85.1251767 45.2493551,84.3955678 44.8329494,83.079144 C44.4165438,81.7627202 45.1461527,80.3579844 46.4625765,79.9415787 C52.0454623,78.1756239 57.8567907,77.1247814 63.79096,76.8276229 Z"></path>
        </g>
        <rect id="Rectangle" fill="#98BBFF" x="40" y="67" width="17" height="32"></rect>
        <rect id="Rectangle-Copy" fill="#4179E8" x="64" y="45" width="17" height="54"></rect>
        <rect id="Rectangle-Copy-2" fill="#355AA4" x="88" y="30" width="17" height="69"></rect>
    </g>
</svg>