<?xml version="1.0" encoding="UTF-8"?>
<svg width="150px" height="150px" viewBox="0 0 150 150" version="1.1" xmlns="http://www.w3.org/2000/svg" xmlns:xlink="http://www.w3.org/1999/xlink">
    <!-- Generator: Sketch 57.1 (83088) - https://sketch.com -->
    <title>Enabling Infrastructure Automation with Terraform@2x</title>
    <desc>Created with Sketch.</desc>
    <defs>
        <linearGradient x1="50.3063602%" y1="18.4959766%" x2="50%" y2="100%" id="linearGradient-1">
            <stop stop-color="#59AAC1" offset="0%"></stop>
            <stop stop-color="#4A8CDA" offset="100%"></stop>
        </linearGradient>
    </defs>
    <g id="Enabling-Infrastructure-Automation-with-Terraform" stroke="none" stroke-width="1" fill="none" fill-rule="evenodd">
        <g id="Group-2" transform="translate(2.000000, 0.000000)">
            <g id="Group" transform="translate(34.278261, 38.086957)" fill-rule="nonzero">
                <path d="M77.7471769,33.1296587 L71.0070717,33.1296587 C70.2099038,29.3780799 68.7224637,25.7641008 66.6448237,22.5322163 L71.4289679,17.7105449 C72.1533558,16.9804711 72.1533558,15.8012085 71.4289679,15.0711347 L64.7491335,8.33785252 C64.045215,7.62824805 62.7920353,7.62824805 62.0881168,8.33785252 L57.3210303,13.1424661 C54.1198499,11.0557286 50.5422607,9.56032817 46.8259347,8.7574744 L46.8259347,1.94686355 C46.8259347,0.912023694 45.986691,0.0727799457 44.9518511,0.0727799457 L35.5052416,0.0727799457 C34.4704018,0.0727799457 33.631158,0.912023694 33.631158,1.94686355 L33.631158,8.7574744 C29.9159692,9.56032817 26.3372428,11.0545914 23.1360624,13.1424661 L18.368976,8.33785252 C17.6650574,7.62824805 16.4118777,7.62824805 15.7079592,8.33785252 L9.02812482,15.0711347 C8.30373692,15.8012085 8.30373692,16.9804711 9.02812482,17.7105449 L13.8122691,22.5322163 C11.734629,25.7641008 10.2471889,29.3780799 9.45002107,33.1296587 L2.70991579,33.1296587 C1.67507594,33.1296587 0.835832188,33.9689024 0.835832188,35.0037423 L0.835832188,44.5254061 C0.835832188,45.560246 1.67507594,46.3994897 2.70991579,46.3994897 L9.45002107,46.3994897 C10.2471889,50.1522057 11.734629,53.7650477 13.8122691,56.9969321 L9.02812482,61.8186035 C8.30373692,62.5486774 8.30373692,63.7279399 9.02812482,64.4580137 L15.7079592,71.1912959 C16.0593499,71.5460981 16.5392426,71.7451058 17.0384676,71.7451058 C17.5376925,71.7451058 18.0175853,71.5460981 18.368976,71.1912959 L23.1360624,66.3866823 C26.3372428,68.4734198 29.914832,69.9688203 33.631158,70.771674 L33.631158,77.5822849 C33.631158,78.6171247 34.4704018,79.4563685 35.5052416,79.4563685 L44.9518511,79.4563685 C45.986691,79.4563685 46.8259347,78.6171247 46.8259347,77.5822849 L46.8259347,70.771674 C50.5411235,69.9688203 54.1198499,68.474557 57.3210303,66.3866823 L62.0881168,71.1912959 C62.7920353,71.9009004 64.045215,71.9009004 64.7491335,71.1912959 L71.4289679,64.4580137 C72.1533558,63.7279399 72.1533558,62.5486774 71.4289679,61.8186035 L66.6448237,56.9969321 C68.7224637,53.7650477 70.2099038,50.1522057 71.0070717,46.3994897 L77.7471769,46.3994897 C78.7820168,46.3994897 79.6212605,45.560246 79.6212605,44.5254061 L79.6212605,35.0026051 C79.6212605,33.9677653 78.7820168,33.1296587 77.7471769,33.1296587 Z M40.2279778,55.6323081 C31.5387346,55.6323081 24.4699824,48.5135197 24.4699824,39.7640056 C24.4699824,31.0144915 31.5387346,23.8957031 40.2279778,23.8957031 C48.917221,23.8957031 55.9859732,31.0144915 55.9859732,39.7640056 C55.9871104,48.5135197 48.917221,55.6323081 40.2279778,55.6323081 Z" id="Shape" fill="url(#linearGradient-1)"></path>
                <path d="M40.2279778,27.6438703 C33.6050027,27.6438703 28.2170124,33.0807597 28.2170124,39.7640056 C28.2170124,46.4472516 33.6050027,51.8841409 40.2279778,51.8841409 C46.8509528,51.8841409 52.2389432,46.4472516 52.2389432,39.7640056 C52.2389432,33.0807597 46.8509528,27.6438703 40.2279778,27.6438703 Z" id="Path" fill="#0359AE"></path>
            </g>
            <rect id="Rectangle" fill="#C5E2FF" x="110.452174" y="0" width="17.773913" height="17.773913"></rect>
            <rect id="Rectangle-Copy-3" fill="#0359AE" x="12.6956522" y="91.4086957" width="17.773913" height="17.773913"></rect>
            <rect id="Rectangle-Copy" fill="#0359AE" x="110.452174" y="20.3130435" width="17.773913" height="17.773913"></rect>
            <rect id="Rectangle-Copy-4" fill="#C5E2FF" x="12.6956522" y="111.721739" width="17.773913" height="17.773913"></rect>
            <rect id="Rectangle-Copy-2" fill="#0359AE" x="110.452174" y="40.626087" width="17.773913" height="17.773913"></rect>
            <rect id="Rectangle-Copy-5" fill="#0359AE" x="12.6956522" y="132.034783" width="17.773913" height="17.773913"></rect>
            <path id="Path-17" d="M18.0824584,65.3652174 C18.2121059,65.3652174 18.339973,65.3954027 18.4559333,65.4533829 L18.4559333,65.4533829 L30.7855196,71.618176 C31.1980487,71.8244406 31.3652591,72.3260718 31.1589946,72.7386009 C31.0781857,72.9002186 30.9471373,73.031267 30.7855196,73.1120758 L30.7855196,73.1120758 L18.4559333,79.276869 C18.0434043,79.4831335 17.541773,79.3159231 17.3355085,78.903394 C17.2775283,78.7874337 17.247343,78.6595667 17.247343,78.5299191 L17.247343,78.5299191 L17.247,73.365 L1,73.3652174 L1,119.608696 L12.6956522,119.608696 C13.2479369,119.608696 13.6956522,120.056411 13.6956522,120.608696 C13.6956522,121.16098 13.2479369,121.608696 12.6956522,121.608696 L12.6956522,121.608696 L0,121.608696 C-0.55228475,121.608696 -1,121.16098 -1,120.608696 L-1,120.608696 L-1,72.3652174 C-1,71.8129326 -0.55228475,71.3652174 0,71.3652174 L0,71.3652174 L17.247,71.365 L17.247343,66.2003327 C17.247343,65.7745898 17.5659271,65.4232563 17.9777033,65.3717241 Z" fill="#0359AE" fill-rule="nonzero"></path>
            <path id="Path-17-Copy" d="M133.612893,22.2 C133.742541,22.2 133.870408,22.2301853 133.986368,22.2881655 L133.986368,22.2881655 L146.315954,28.4529586 C146.728483,28.6592232 146.895694,29.1608544 146.689429,29.5733835 C146.608621,29.7350012 146.477572,29.8660496 146.315954,29.9468584 L146.315954,29.9468584 L133.986368,36.1116516 C133.573839,36.3179161 133.072208,36.1507057 132.865943,35.7381766 C132.807963,35.6222163 132.777778,35.4943493 132.777778,35.3647017 L132.777778,35.3647017 L132.777,30.199 L116.530435,30.2 L116.530435,76.4434783 L128.226087,76.4434783 C128.778372,76.4434783 129.226087,76.8911935 129.226087,77.4434783 C129.226087,77.995763 128.778372,78.4434783 128.226087,78.4434783 L128.226087,78.4434783 L115.530435,78.4434783 C114.97815,78.4434783 114.530435,77.995763 114.530435,77.4434783 L114.530435,77.4434783 L114.530435,29.2 C114.530435,28.6477153 114.97815,28.2 115.530435,28.2 L115.530435,28.2 L132.777,28.199 L132.777778,23.0351154 C132.777778,22.6093725 133.096362,22.2580389 133.508138,22.2065067 Z" fill="#0359AE" fill-rule="nonzero"></path>
        </g>
    </g>
</svg>