<?xml version="1.0" encoding="UTF-8"?>
<svg width="150px" height="150px" viewBox="0 0 150 150" version="1.1" xmlns="http://www.w3.org/2000/svg" xmlns:xlink="http://www.w3.org/1999/xlink">
    <!-- Generator: Sketch 57.1 (83088) - https://sketch.com -->
    <title>DevOps Automation@2x</title>
    <desc>Created with Sketch.</desc>
    <defs>
        <linearGradient x1="50.3063602%" y1="18.4959766%" x2="50%" y2="100%" id="linearGradient-1">
            <stop stop-color="#59AAC1" offset="0%"></stop>
            <stop stop-color="#4A8CDA" offset="100%"></stop>
        </linearGradient>
    </defs>
    <g id="DevOps-Automation" stroke="none" stroke-width="1" fill="none" fill-rule="evenodd">
        <g id="noun_build_2714948" transform="translate(2.000000, 3.000000)" fill-rule="nonzero">
            <g id="Group">
                <path d="M73,146 C32.7475645,146 0,113.252435 0,73 C0,32.7475645 32.7475645,0 73,0 C113.252435,0 146,32.7475645 146,73 C146,113.252435 113.252435,146 73,146 Z M73,3.53225806 C34.6950161,3.53225806 3.53225806,34.6950161 3.53225806,73 C3.53225806,111.304984 34.6950161,142.467742 73,142.467742 C111.304984,142.467742 142.467742,111.304984 142.467742,73 C142.467742,34.6950161 111.304984,3.53225806 73,3.53225806 Z" id="Shape" fill="#C5E2FF"></path>
                <g transform="translate(12.774194, 12.774194)">
                    <g transform="translate(19.016129, 19.016129)">
                        <path d="M80.4978065,34.3017581 L73.5192419,34.3017581 C72.693871,30.4174516 71.1538065,26.6756129 69.0026613,23.3293871 L73.9560645,18.337129 C74.7060806,17.5812258 74.7060806,16.3602419 73.9560645,15.6043387 L67.0399032,8.63283871 C66.3110806,7.89812903 65.0135645,7.89812903 64.2847419,8.63283871 L59.349,13.6074355 C56.0345645,11.446871 52.3304032,9.89856452 48.4825968,9.06730645 L48.4825968,2.01574194 C48.4825968,0.944290323 47.6136613,0.0753548387 46.5422097,0.0753548387 L36.7613871,0.0753548387 C35.6899355,0.0753548387 34.821,0.944290323 34.821,2.01574194 L34.821,9.06730645 C30.974371,9.89856452 27.2690323,11.4456935 23.9545968,13.6074355 L19.0188548,8.63283871 C18.2900323,7.89812903 16.9925161,7.89812903 16.2636935,8.63283871 L9.34753226,15.6043387 C8.59751613,16.3602419 8.59751613,17.5812258 9.34753226,18.337129 L14.3009355,23.3293871 C12.1497903,26.6756129 10.6097258,30.4174516 9.78435484,34.3017581 L2.80579032,34.3017581 C1.73433871,34.3017581 0.865403226,35.1706935 0.865403226,36.2421452 L0.865403226,46.1006774 C0.865403226,47.172129 1.73433871,48.0410645 2.80579032,48.0410645 L9.78435484,48.0410645 C10.6097258,51.9265484 12.1497903,55.6672097 14.3009355,59.0134355 L9.34753226,64.0056935 C8.59751613,64.7615968 8.59751613,65.9825806 9.34753226,66.7384839 L16.2636935,73.7099839 C16.6275161,74.0773387 17.1243871,74.2833871 17.6412742,74.2833871 C18.1581613,74.2833871 18.6550323,74.0773387 19.0188548,73.7099839 L23.9545968,68.7353871 C27.2690323,70.8959516 30.9731935,72.4442581 34.821,73.2755161 L34.821,80.3270806 C34.821,81.3985323 35.6899355,82.2674677 36.7613871,82.2674677 L46.5422097,82.2674677 C47.6136613,82.2674677 48.4825968,81.3985323 48.4825968,80.3270806 L48.4825968,73.2755161 C52.3292258,72.4442581 56.0345645,70.897129 59.349,68.7353871 L64.2847419,73.7099839 C65.0135645,74.4446935 66.3110806,74.4446935 67.0399032,73.7099839 L73.9560645,66.7384839 C74.7060806,65.9825806 74.7060806,64.7615968 73.9560645,64.0056935 L69.0026613,59.0134355 C71.1538065,55.6672097 72.693871,51.9265484 73.5192419,48.0410645 L80.4978065,48.0410645 C81.5692581,48.0410645 82.4381935,47.172129 82.4381935,46.1006774 L82.4381935,36.2409677 C82.4381935,35.1695161 81.5692581,34.3017581 80.4978065,34.3017581 Z M41.6512097,57.6005323 C32.6545484,57.6005323 25.3357097,50.2298871 25.3357097,41.1708226 C25.3357097,32.1117581 32.6545484,24.7411129 41.6512097,24.7411129 C50.647871,24.7411129 57.9667097,32.1117581 57.9667097,41.1708226 C57.9678871,50.2298871 50.647871,57.6005323 41.6512097,57.6005323 Z" id="Shape" fill="url(#linearGradient-1)"></path>
                        <path d="M41.6512097,28.6218871 C34.7939194,28.6218871 29.2153065,34.251129 29.2153065,41.1708226 C29.2153065,48.0905161 34.7939194,53.7197581 41.6512097,53.7197581 C48.5085,53.7197581 54.0871129,48.0905161 54.0871129,41.1708226 C54.0871129,34.251129 48.5085,28.6218871 41.6512097,28.6218871 Z" id="Path" fill="#0359AE"></path>
                    </g>
                    <g fill="#0359AE" id="Path">
                        <g transform="translate(13.129032, 0.000000)">
                            <path d="M98.0013226,31.2141935 C97.3714032,31.2141935 96.7532581,30.9080645 96.3800161,30.3429032 C85.9586774,14.563129 66.4394194,3.96046774 47.8091129,3.96046774 C30.5069355,3.96046774 14.4963871,11.8397581 3.88077419,25.5767097 C3.22495161,26.4244516 2.00632258,26.5786935 1.15975806,25.9252258 C0.31083871,25.2705806 0.155419355,24.0519516 0.811241935,23.2030323 C12.1674516,8.50766129 29.2977258,0.078516129 47.8102903,0.078516129 C67.6898387,0.078516129 88.5101452,11.3805645 99.6190968,28.2023548 C100.210161,29.0960161 99.9629032,30.2993387 99.0692419,30.8904032 C98.7395645,31.1105806 98.3686774,31.2141935 98.0013226,31.2141935 Z"></path>
                            <path d="M98.0001452,31.2141935 L88.8669032,31.2141935 C87.7954516,31.2141935 86.9265161,30.3452581 86.9265161,29.2738065 C86.9265161,28.2023548 87.7954516,27.3334194 88.8669032,27.3334194 L96.0444516,27.3334194 L95.9914677,20.7222097 C95.9832258,19.6507581 96.8450968,18.7747581 97.9165484,18.7664575 C98.9444355,18.7582742 99.8628226,19.6201452 99.8722419,20.6915968 L99.9406122,29.2585 C99.9452419,29.7753871 99.7415484,30.2734355 99.3777258,30.6407903 C99.0127258,31.0081452 98.5170323,31.2141935 98.0001452,31.2141935 Z"></path>
                        </g>
                        <g transform="translate(73.177419, 36.677419)">
                            <path d="M2.56912903,80.1975645 C1.74258065,80.1975645 0.977258065,79.665371 0.717048387,78.8352903 C0.397967742,77.8121129 0.96783871,76.7241774 1.99101613,76.4050968 C25.9338387,68.9249516 43.311371,46.4762742 43.311371,23.0244355 C43.311371,16.1306452 42.0727258,9.40404839 39.6307581,3.02832258 C39.2480968,2.02751613 39.7473226,0.905435484 40.748129,0.522774194 C41.7477581,0.138935484 42.8710161,0.63933871 43.2536774,1.64014516 C45.866371,8.45975806 47.1909677,15.6537903 47.1909677,23.0244355 C47.1909677,48.129371 28.6678065,72.1357742 3.14606452,80.1092581 C2.9565,80.1693065 2.76104839,80.1975645 2.56912903,80.1975645 Z"></path>
                            <path d="M10.3648226,83.6933226 C10.0987258,83.6933226 9.82909677,83.6379839 9.57241935,83.5225968 L1.77672581,80.0268387 C1.26101613,79.7960645 0.872467742,79.351 0.71116129,78.8093871 C0.549854839,78.2677742 0.633451613,77.6825968 0.938403226,77.2080968 L5.56566129,70.0081774 C6.14495161,69.1062742 7.34474194,68.8460645 8.24664516,69.4241774 C9.14854839,70.0034677 9.40993548,71.2032581 8.83064516,72.1051613 L5.42201613,77.4082581 L11.1607581,79.9820968 C12.1380161,80.4200968 12.5760161,81.5680806 12.1368387,82.5465161 C11.8130484,83.2670968 11.1054194,83.6933226 10.3648226,83.6933226 Z"></path>
                        </g>
                        <g transform="translate(0.000000, 34.322581)">
                            <path d="M60.9381452,84.9990806 C28.1682097,84.9990806 1.50672581,58.254 1.50672581,25.3792742 C1.50672581,18.0592581 4.96009677,9.07083871 7.48095161,2.50790323 L7.82240323,1.61541935 C8.20624194,0.615790323 9.32596774,0.113032258 10.329129,0.498048387 C11.3299355,0.881887097 11.8291613,2.00279032 11.4465,3.00477419 L11.1026935,3.8996129 C8.69016129,10.1799677 5.38632258,18.7798387 5.38632258,25.3804516 C5.38632258,56.1158065 30.3064032,81.1194839 60.9369677,81.1194839 C61.707,81.1194839 62.4735,81.1041774 63.2364677,81.0723871 C64.320871,81.0311774 65.211,81.8612581 65.2545645,82.9315323 C65.298129,84.0018065 64.4656935,84.9048871 63.3954194,84.949629 C62.5818226,84.9814194 61.7623387,84.9990806 60.9381452,84.9990806 Z"></path>
                            <path d="M13.2538387,12.3899839 C12.5108871,12.3899839 11.8020806,11.9602258 11.4794677,11.2372903 L8.69251613,4.96753226 L2.90079032,7.91696774 C1.94708065,8.4008871 0.777903226,8.0241129 0.291629032,7.06804839 C-0.194645161,6.11316129 0.184483871,4.94516129 1.14054839,4.4588871 L8.75491935,0.580467742 C9.23059677,0.339096774 9.78280645,0.302596774 10.2843871,0.481564516 C10.7859677,0.659354839 11.1933548,1.03495161 11.4088226,1.52122581 L15.0258548,9.66072581 C15.4615,10.6403387 15.0199677,11.7859677 14.0415323,12.2216129 C13.7848548,12.3358226 13.5175806,12.3899839 13.2538387,12.3899839 Z"></path>
                        </g>
                    </g>
                </g>
            </g>
        </g>
    </g>
</svg>