<svg id="Layer_1" data-name="Layer 1" xmlns="http://www.w3.org/2000/svg" viewBox="0 0 45 45"><defs><style>.cls-1{fill:#9098a0;}.cls-1,.cls-3{fill-rule:evenodd;}.cls-2,.cls-3{fill:#fff;}</style></defs><title>Icon-DataBrowser</title><path class="cls-1" d="M8,0H37a8,8,0,0,1,8,8V37a8,8,0,0,1-8,8H8a8,8,0,0,1-8-8V8A8,8,0,0,1,8,0Z"/><path class="cls-2" d="M35.5,15.5v17H8.5v-17h27M37,14H7V34H37V14Z"/><path class="cls-2" d="M8.5,14V13a1.53,1.53,0,0,1,1.55-1.5h23.9A1.53,1.53,0,0,1,35.5,13v1H37V13a3,3,0,0,0-3.05-3H10.05A3,3,0,0,0,7,13v1Z"/><path class="cls-3" d="M11.75,20h6a.75.75,0,1,0,0-1.5h-6a.75.75,0,1,0,0,1.5Zm0,3h4a.75.75,0,1,0,0-1.5h-4a.75.75,0,1,0,0,1.5ZM22,22.25a.75.75,0,0,0-.75-.75h-2.5a.75.75,0,1,0,0,1.5h2.5A.75.75,0,0,0,22,22.25Zm8.25-.75h-6a.75.75,0,1,0,0,1.5h6a.75.75,0,0,0,0-1.5Zm-11,3h-7.5a.75.75,0,0,0,0,1.5h7.5a.75.75,0,0,0,0-1.5Zm7.5,0h-4.5a.75.75,0,0,0,0,1.5h4.5a.75.75,0,1,0,0-1.5Zm-12.5,3h-2.5a.75.75,0,0,0,0,1.5h2.5a.75.75,0,0,0,0-1.5Zm4,0h-1a.75.75,0,0,0,0,1.5h1a.75.75,0,0,0,0-1.5Z"/></svg>