<svg id="f0d221c4-54c5-45b0-9d0e-54a9b7b4dc5c" data-name="Layer 1" xmlns="http://www.w3.org/2000/svg" viewBox="0 0 500 500"><defs><style>.a4c8d29a-c564-4a99-a03c-33c91926d1d6,.b89c13eb-63cf-4d15-b74e-2277c83a6cce,.ef8afcbf-65b9-4c1f-b4ea-dedc59ca0aa9{fill:none;}.a4c8d29a-c564-4a99-a03c-33c91926d1d6,.b89c13eb-63cf-4d15-b74e-2277c83a6cce{stroke:#a7a9ac;}.b89c13eb-63cf-4d15-b74e-2277c83a6cce,.ef8afcbf-65b9-4c1f-b4ea-dedc59ca0aa9{stroke-miterlimit:10;}.e5e1e078-20f3-4a48-90c0-6377195fb10e{fill:#f1f2f2;}.e73bf15e-7477-4108-8d5e-d1a05c12b57e{fill:#fff;}.efb30540-46ed-4b3d-a48f-a4492aceb770{fill:#f7bd2b;}.e64bb8bf-831f-4aef-9099-fc36a88f3796{fill:#3dba85;}.b605f413-c298-4361-9045-1c3ca523931c{fill:#f9c8a7;}.e0784ce2-c9f9-4b55-8a57-b8d180917aff{fill:#e6e6e6;}.bfd6b161-4123-4cba-ba5c-d7d91b0f4f9f{fill:#b3b3b3;}.bda03704-ecdf-42a3-ad5d-24f3e812c452{fill:#ef8f8b;}.a2d5621a-f7ad-4f5a-b446-0bb062fee968{fill:#161613;}.ba2c052a-61e1-4a38-a481-a42c09c6cbaf{fill:#00b9cc;}.b25b4a88-c511-4413-9cdb-6f73dd2f7522{fill:#00c7e5;}.ef8afcbf-65b9-4c1f-b4ea-dedc59ca0aa9{stroke:#161613;stroke-width:0.91px;}.e4eb6b49-719f-4069-95fd-bd9729c567b7{fill:#e6e7e8;}.a4c8d29a-c564-4a99-a03c-33c91926d1d6{stroke-linecap:round;stroke-linejoin:round;}.b7b7d571-11e8-4543-a028-658d6db86670{fill:#362625;}.e6f87f9d-50f0-4a8a-8b46-d79d317f33d1{fill:#efa98e;}.e7a1e8e7-9be2-4f8f-bdcf-21d21db9c84e{fill:#0562e8;}.a85f0bbc-6192-41d3-a8ca-fc11963d1fee{fill:#f99316;}.f3a82e58-5eec-475f-9b2c-0bcd26d83417{fill:#96b4d6;}.e15d03f0-4ba3-494b-bfe2-583dfbdbbb2d,.f9489e5e-54ab-48af-8f79-28188939bac2{fill:#d1d3d4;}.bba473e3-c327-4b7d-87a3-1d59220d62ef,.e15d03f0-4ba3-494b-bfe2-583dfbdbbb2d{opacity:0.5;}.e15d03f0-4ba3-494b-bfe2-583dfbdbbb2d{isolation:isolate;}.a25661a5-279d-4b7b-bdaf-f3bee25c1000{fill:#bcbec0;}.a6f909e1-bc23-428f-a2f5-0e2ec350065a{fill:#3988d8;}</style></defs><title>talk-to-specialist-Form-Banner</title><polygon class="b89c13eb-63cf-4d15-b74e-2277c83a6cce" points="250.96 424.37 40.42 424.37 51.86 385.98 262.39 385.98 250.96 424.37"/><polygon class="e5e1e078-20f3-4a48-90c0-6377195fb10e" points="256.83 430.24 46.29 430.24 57.73 391.85 268.26 391.85 256.83 430.24"/><rect class="e73bf15e-7477-4108-8d5e-d1a05c12b57e" x="65.28" y="402.07" width="170.41" height="17.61" rx="8.8"/><circle class="efb30540-46ed-4b3d-a48f-a4492aceb770" cx="76.04" cy="410.48" r="3.42"/><line class="b89c13eb-63cf-4d15-b74e-2277c83a6cce" x1="89.35" y1="410.09" x2="222.39" y2="410.09"/><circle class="e64bb8bf-831f-4aef-9099-fc36a88f3796" cx="52.25" cy="384.81" r="8.12"/><polygon class="e73bf15e-7477-4108-8d5e-d1a05c12b57e" points="58.6 382.22 50.85 389.97 45.9 385.02 47.07 383.86 50.91 387.7 57.49 381.12 58.6 382.22"/><polygon class="b605f413-c298-4361-9045-1c3ca523931c" points="328.13 164.09 324.28 173.87 331.91 176.66 333.11 166.1 328.13 164.09"/><path class="b605f413-c298-4361-9045-1c3ca523931c" d="M328.13,164.09a4,4,0,0,1,.41-4.5c1.38.26,15.17,2.64,18.8,3.33.39,2.73-2.2,4.24-14.23,3.18Z"/><polygon class="b605f413-c298-4361-9045-1c3ca523931c" points="194.22 166.15 197.08 177.65 188.13 179.64 188.36 167.66 194.22 166.15"/><path class="b605f413-c298-4361-9045-1c3ca523931c" d="M194.22,166.15c.37-.15,1.77-3.13.21-5.1-1.59.09-17.37.71-21.53.94-.83,3,1.84,5.07,15.46,5.67Z"/><ellipse class="e5e1e078-20f3-4a48-90c0-6377195fb10e" cx="247.99" cy="474.96" rx="80.81" ry="4.28"/><polygon class="e0784ce2-c9f9-4b55-8a57-b8d180917aff" points="119.01 213.2 60.69 213.2 69 184.28 127.32 184.28 119.01 213.2"/><polygon class="bfd6b161-4123-4cba-ba5c-d7d91b0f4f9f" points="107.95 196.03 73.66 196.03 75.57 189.39 109.86 189.39 107.95 196.03"/><polygon class="bda03704-ecdf-42a3-ad5d-24f3e812c452" points="87.13 205.39 70.94 205.39 72.84 198.74 89.03 198.74 87.13 205.39"/><circle class="e64bb8bf-831f-4aef-9099-fc36a88f3796" cx="119.31" cy="213.2" r="8.12"/><polygon class="e73bf15e-7477-4108-8d5e-d1a05c12b57e" points="125.66 210.62 117.92 218.36 112.97 213.41 114.13 212.25 117.98 216.09 124.56 209.51 125.66 210.62"/><polygon class="b605f413-c298-4361-9045-1c3ca523931c" points="260.8 462.61 262.27 437.21 274.51 437.2 271.87 462.6 260.8 462.61"/><path class="a2d5621a-f7ad-4f5a-b446-0bb062fee968" d="M260.8,462.61h13.71s16-.78,18.67,11.59l-33.09,0Z"/><polygon class="ba2c052a-61e1-4a38-a481-a42c09c6cbaf" points="287.24 293.06 278.96 451.05 253.96 451.07 258.84 293.08 287.24 293.06"/><polygon class="b605f413-c298-4361-9045-1c3ca523931c" points="218.35 462.64 222.48 437.25 234.72 437.24 229.41 462.63 218.35 462.64"/><path class="a2d5621a-f7ad-4f5a-b446-0bb062fee968" d="M218.35,462.64h13.71s16-.77,18.67,11.6l-33.7,0Z"/><path class="b25b4a88-c511-4413-9cdb-6f73dd2f7522" d="M235.89,294.11S211.82,450.71,213.2,451,240,451,240,451l32.34-157.62Z"/><line class="ef8afcbf-65b9-4c1f-b4ea-dedc59ca0aa9" x1="256.48" y1="372.06" x2="267.56" y2="319.06"/><path class="e4eb6b49-719f-4069-95fd-bd9729c567b7" d="M280.8,229.15a12.55,12.55,0,0,0-11.55-9.68,99.13,99.13,0,0,0-10.47-.08s-13.26.57-24.92,12.21l2,62.51,51.35-1.05Z"/><path class="e4eb6b49-719f-4069-95fd-bd9729c567b7" d="M250.19,221.36l-42.43,3.14-10.12-47.21-14.42,2.87,9.56,61.65a9.73,9.73,0,0,0,11.52,5.43s32.18,5.49,45.78-3.81C254.34,240.52,250.19,221.36,250.19,221.36Z"/><path class="e4eb6b49-719f-4069-95fd-bd9729c567b7" d="M271.91,219.94l44.25-8.2,5.26-39.34L335.87,175l-4.74,43.76c-.49,6.5-3.19,12.39-11.41,14.48L279.45,244.5Z"/><polyline class="a4c8d29a-c564-4a99-a03c-33c91926d1d6" points="234.79 242.84 242.64 242.51 242.64 272.78"/><path class="b605f413-c298-4361-9045-1c3ca523931c" d="M268.75,185.82c.39.65,5.79,13,4.82,18.57s-2.85,7.85-8.61,8.76l2.77,7.47s-.5,7.1-9.09,7.28a10.64,10.64,0,0,1-8.36-3.58l-3.75-32.41Z"/><path class="b7b7d571-11e8-4543-a028-658d6db86670" d="M248.11,213.73c.49.82,5-2,6.63-5s2.38-2.95,1.68-4.27-1.59-.07-3.35-2-2.95-5.3.14-6.12,3.88,1.46,4.79-.09-1.44-4.45-.38-5.45.91-3.56,7.07-2.89,11.58,1.94,10.76-2.24-4.88-2.52-2.6-5-1.91-4.78-7.14-2.33-15.43-3.57-22.37,5.12S237.76,196.7,248.11,213.73Z"/><path class="e6f87f9d-50f0-4a8a-8b46-d79d317f33d1" d="M265,213.15a13.12,13.12,0,0,1-7.13.13c-3.43-.88,2,2.86,4.3,3a18,18,0,0,1,4.21.76Z"/><path class="e4eb6b49-719f-4069-95fd-bd9729c567b7" d="M454.81,131.37a1.37,1.37,0,0,1-1.48-.58A2.26,2.26,0,0,0,454.81,131.37Z"/><path class="e4eb6b49-719f-4069-95fd-bd9729c567b7" d="M454.81,131.37a1.37,1.37,0,0,1-1.48-.58A2.26,2.26,0,0,0,454.81,131.37Z"/><path class="e4eb6b49-719f-4069-95fd-bd9729c567b7" d="M454.81,131.37a1.37,1.37,0,0,1-1.48-.58A2.26,2.26,0,0,0,454.81,131.37Z"/><path class="e4eb6b49-719f-4069-95fd-bd9729c567b7" d="M263,111.51a9.64,9.64,0,0,1,.93,1.42h0a9.73,9.73,0,0,0-1-1.48c-3.13-3.49-6.25-7-9.46-10.42l-.48-.53c.18.2.36.4.55.59C256.72,104.52,259.84,108,263,111.51Z"/><polygon class="e7a1e8e7-9be2-4f8f-bdcf-21d21db9c84e" points="282 99.71 267.35 116.04 267.34 116.03 281.99 99.7 282 99.71"/><path class="e4eb6b49-719f-4069-95fd-bd9729c567b7" d="M404.59,70.32a.2.2,0,0,1-.08,0l.25-.16A.66.66,0,0,1,404.59,70.32Z"/><path class="e4eb6b49-719f-4069-95fd-bd9729c567b7" d="M408.26,117.78a13,13,0,0,1-.79,1.64c-1.64,5.87-4.82,11-8.28,15.87a64.29,64.29,0,0,1-17.81,17.21h0a2.26,2.26,0,0,1-1.48-.58,1.37,1.37,0,0,0,1.48.58c-.38.71-1.74,1.21-2.42,1.6a61.5,61.5,0,0,1-8.87,3.9c-1.53.55-3.06,1.06-4.6,1.57a5.86,5.86,0,0,1-2,.58.13.13,0,0,1,0,.08h-.06a45.2,45.2,0,0,1-4.88,1.22,59.46,59.46,0,0,1-21.73.41h-.08l-.29-.05a.33.33,0,0,1,0-.14h-.05a7.64,7.64,0,0,1-1.25-.41c-1.24-.36-2.5-.69-3.75-1l7.83-15.6h0l0,0a11.68,11.68,0,0,1,1.27-3.64h.54a43.15,43.15,0,0,0,17-1.34s0,0,0,.05l.32-.08a59.93,59.93,0,0,0,10.74-5.31,2.41,2.41,0,0,0,.11,1,2.94,2.94,0,0,1-.08-1l.28-.17a62,62,0,0,0,6.49-5.39,52,52,0,0,0,11.14-16.79l0-.05c.11-.23.21-.47.31-.71a46.84,46.84,0,0,0,2.35-18.9A51.71,51.71,0,0,0,385.88,78l.2,0a2.06,2.06,0,0,0,.43,0h-.43l-.2-.05a1,1,0,0,0-.07-.18,49.63,49.63,0,0,0-15-18.3,45.12,45.12,0,0,0-16.35-7.24l0-.05c-.21-.07-.43-.11-.64-.17-4.91-.36-9.82-.79-14.75.13-8.11,1.51-15.23,5.27-22,9.65-14.39,9.3-26.12,21.57-37.66,34l-.22.23c-2.34-1.63-4-3.93-5.83-6.06-3-3.52-6.5-6.64-9.22-10.43,5-5,9.86-10.18,14.92-15.13,11.28-11,23.45-20.85,37.73-27.83,9.68-4.74,19.81-7.45,30.62-7a72.15,72.15,0,0,1,12,1.34.35.35,0,0,1,.05.08,57.93,57.93,0,0,1,23.48,10A68.28,68.28,0,0,1,405,66.82a5.08,5.08,0,0,1,.28.86h0c0,.06.05.1.07.16a.25.25,0,0,1,0,.07,0,0,0,0,1,0,0C408.44,73.6,410,79.74,411.09,86,413,96.85,411.71,107.42,408.26,117.78Z"/><path class="e4eb6b49-719f-4069-95fd-bd9729c567b7" d="M369.23,135.26a2.41,2.41,0,0,1-.11-1l0,0A2.94,2.94,0,0,0,369.23,135.26Z"/><path class="e4eb6b49-719f-4069-95fd-bd9729c567b7" d="M148.9,38.73a47.91,47.91,0,0,1,16.9-7.33s0,0,0-.08a51.78,51.78,0,0,1,20.25-2c2,.13,3.92.49,5.89.75a2.72,2.72,0,0,0-.84,1.6c-1.16,6.53-2.6,13-3.46,19.58v.31a42.16,42.16,0,0,0-16.32.88h-.14l0,.06c-3.91,1-7.39,3.12-11,4.83l-.3.15c-1.45-4.21-4.24-7.67-6.36-11.51A38.43,38.43,0,0,0,148.9,38.73Z"/><path class="e4eb6b49-719f-4069-95fd-bd9729c567b7" d="M267.34,116h0l0,0a19,19,0,0,0-3.42-3.1l0,0h0a9.64,9.64,0,0,0-.93-1.42c-3.13-3.49-6.25-7-9.46-10.41-.19-.19-.37-.39-.55-.59l.48.53c3.21,3.42,6.33,6.93,9.46,10.42a9.73,9.73,0,0,1,1,1.48l-.25.24c-.35.34-.71.67-1,1a298.91,298.91,0,0,1-23.9,23.32c-9.84,8.37-20.34,15.71-32.42,20.57l-4.23,1.68-.92.37c-.26-.08-.52-.15-.79-.21a8,8,0,0,0-2.45.49,71,71,0,0,1-15.15,2H180a64.58,64.58,0,0,1-14.11-1.9,7.37,7.37,0,0,0-1.62-.39A7.51,7.51,0,0,1,163,160c-1.12-.25-2.23-.54-3.32-.88a37.08,37.08,0,0,1-6.25-2.59q-30.76-16.44-36.57-50.86a57.53,57.53,0,0,1-.43-15,15.5,15.5,0,0,0,2,.43q8.49.74,17,1.41c1.58.13,2.65.6,2.53,2.55.16-2-.91-2.51-2.52-2.64l-17-1.41a15.5,15.5,0,0,1-2-.43,61.43,61.43,0,0,1,6.85-23.84l0,0a64.09,64.09,0,0,1,18.16-22.82c2.34-1.9,4.58-4,7.43-5.15A38.43,38.43,0,0,1,153.54,46c2.09,3.79,4.88,7.25,6.33,11.5-.62.41-1.25.8-1.85,1.25a53.31,53.31,0,0,0-15.56,18.51v.06h-.05a53.51,53.51,0,0,0-2.55,6.55,53.36,53.36,0,0,0-1.59,9.66,45.81,45.81,0,0,0,0,6.2,6,6,0,0,1-.47-3,6,6,0,0,0,.46,3.09,46.17,46.17,0,0,0,15.37,30.25c9.72,8.76,21.1,12.52,34.17,10.58,8.24-1.22,15.47-5,22.38-9.35,14.79-9.33,26.74-21.85,38.5-34.55l.19-.19-.08,0a2,2,0,0,0-.72-1.38c-2.46-2.6-4.9-5.23-7.38-7.81q-7.56-7.84-15.8-14.93A111.6,111.6,0,0,0,205.43,58.5a73,73,0,0,0-17.58-6.89h-.2v-.32c.87-6.57,2.31-13,3.47-19.58a2.72,2.72,0,0,1,.88-1.57c11.28,2.2,21.43,7.06,31,13.21,12.92,8.27,23.9,18.76,34.56,29.65,2.17,2.22,4,4.79,6.53,6.65,2.72,3.79,6.2,6.91,9.22,10.43,1.82,2.12,3.49,4.43,5.83,6.07a2,2,0,0,0,.75,1.35l2.1,2.2Z"/><path class="e4eb6b49-719f-4069-95fd-bd9729c567b7" d="M263.9,112.93h0a9.73,9.73,0,0,0-1-1.48c-3.13-3.49-6.25-7-9.46-10.42l-.48-.53c.18.2.36.4.55.59,3.21,3.42,6.33,6.92,9.46,10.41A9.64,9.64,0,0,1,263.9,112.93Z"/><path class="e4eb6b49-719f-4069-95fd-bd9729c567b7" d="M386.51,78a2.06,2.06,0,0,1-.43,0l-.2,0h0l.2.05Z"/><path class="e4eb6b49-719f-4069-95fd-bd9729c567b7" d="M404.76,70.2a.66.66,0,0,1-.17.12.2.2,0,0,1-.08,0Z"/><path class="e4eb6b49-719f-4069-95fd-bd9729c567b7" d="M386.51,78a2.06,2.06,0,0,1-.43,0l-.2,0h0l.2.05Z"/><path class="e4eb6b49-719f-4069-95fd-bd9729c567b7" d="M404.76,70.2a.66.66,0,0,1-.17.12.2.2,0,0,1-.08,0Z"/><path class="e4eb6b49-719f-4069-95fd-bd9729c567b7" d="M340.58,141a11.68,11.68,0,0,0-1.27,3.64l0,0a0,0,0,0,0,0,0,11.74,11.74,0,0,1,1.27-3.65Z"/><path class="e73bf15e-7477-4108-8d5e-d1a05c12b57e" d="M340.58,141h0a11.68,11.68,0,0,0-1.27,3.64l0,0h0l-4.93,9.79-.52,1-2.42,4.79c-1-.29-2-.59-3-.92l-6.79-2-.07,0-3.44-1c-.42-.13-.83-.28-1.24-.45a16.91,16.91,0,0,1-1.62-.75,106.63,106.63,0,0,1-10.91-6.32c-.8-.52-1.58-1-2.36-1.58-1.28-.88-2.53-1.78-3.77-2.71s-2.72-2-4-3.1l-1.09-.88h0c-.9-.72-1.78-1.46-2.66-2.2-2-1.66-3.9-3.36-5.81-5.09-.86-.76-1.71-1.52-2.55-2.29q-1.71-1.56-3.39-3.18t-3.42-3.35h0l-.9-.9L273,122.17c-.45-.46-.89-.93-1.33-1.4h0q-1.59-1.68-3.13-3.4c-.38-.44-.76-.88-1.17-1.32h0L282,99.7l0,0c2.55,2.69,5.11,5.39,7.69,8,4.11,4.18,8.46,8.13,12.87,12,.47.42.95.84,1.43,1.24l.2.17c.54.48,1.08.94,1.63,1.38a111.55,111.55,0,0,0,17.36,11.85q1.79,1,3.63,1.83c.76.36,1.52.7,2.29,1l1,.4c.95.4,1.92.76,2.9,1.11A66.32,66.32,0,0,0,340.58,141Z"/><path class="a85f0bbc-6192-41d3-a8ca-fc11963d1fee" d="M305.86,122.5a6.52,6.52,0,0,1-2.09,1.31.17.17,0,0,1-.23-.06l-1.4-1.65a.15.15,0,0,0-.22,0,11.19,11.19,0,0,1-2,.74c-.13,0-.19.08-.19.23v2.12c0,.1,0,.16-.13.19-.31.08-.62.19-.94.26s-.62.11-.93.16H297c-.22,0-.43-.07-.65-.09s-.13,0-.15-.15c-.12-.72-.26-1.43-.39-2.15,0-.09,0-.13-.15-.14a4.9,4.9,0,0,1-.67-.07c-.54-.09-1.07-.2-1.61-.3l-.08.13-1,1.67c-.17.28-.17.28-.49.21a6.17,6.17,0,0,1-2.82-1.32.17.17,0,0,1-.06-.23c.06-.16.12-.32.17-.48l.59-1.63-1.9-1.57-2,1.12c-.07,0-.12.06-.19,0a6.36,6.36,0,0,1-2-2.7.16.16,0,0,1,.06-.22c.55-.46,1.1-.94,1.66-1.4.09-.07.09-.12,0-.22a11.48,11.48,0,0,1-.74-2,.17.17,0,0,0-.19-.15h-2.17c-.07,0-.13,0-.16-.09a6.24,6.24,0,0,1-.34-3.31c0-.13.07-.16.19-.18l2.13-.39c.09,0,.11,0,.12-.13.05-.44.1-.88.17-1.31s.14-.65.21-1l-.17-.1-1.66-1c-.06,0-.11,0-.09-.14a6.28,6.28,0,0,1,1.33-3,.22.22,0,0,1,.3-.09c.6.23,1.22.44,1.82.66l3.25,3.38a8.18,8.18,0,0,0,11.37,10.74l1.95,1.73Z"/><path class="a85f0bbc-6192-41d3-a8ca-fc11963d1fee" d="M280.81,114.64v1a5.84,5.84,0,0,1-.11.73c0,.24-.06.16-.17.18L278,117c-.13,0-.18.06-.19.2a6.26,6.26,0,0,1-.12,1.05c-.1.55-.21,1.09-.32,1.64l.14.09,2.18,1.29c.07,0,.15.06.13.19a7.63,7.63,0,0,1-1.64,3.65.19.19,0,0,1-.24.06c-.8-.29-1.61-.57-2.41-.87-.14,0-.2,0-.29.1v0q-1.83-1.81-3.57-3.69a9.63,9.63,0,0,0,1.23-4.72,9.87,9.87,0,0,0-1.23-4.76l5.47-6.1a7.4,7.4,0,0,1,1.41,2.31.22.22,0,0,1-.07.3l-2,1.65a.16.16,0,0,0-.09.22l0,0a14,14,0,0,1,.9,2.39.19.19,0,0,0,.2.17h2.58a.2.2,0,0,1,.22.15c.1.37.23.74.31,1.11S280.75,114.27,280.81,114.64Z"/><path class="a85f0bbc-6192-41d3-a8ca-fc11963d1fee" d="M295.78,134.77v.57l-.06.43c0,.07,0,.09-.1.11l-1.49.26c-.07,0-.1,0-.11.12s0,.41-.07.62-.12.63-.18,1l.08.05,1.28.76s.08,0,.07.1a4.68,4.68,0,0,1-1,2.15c0,.05-.08.05-.14,0l-1-.37h0c-.9-.71-1.78-1.45-2.66-2.2a5.69,5.69,0,0,0-5-8.48A5.63,5.63,0,0,0,282,131c-1.14-1-2.28-2.1-3.4-3.17a4.22,4.22,0,0,1,1.76-1.24.12.12,0,0,1,.16,0c.13.17.27.33.41.49l.62.74h.06a8.17,8.17,0,0,1,1.45-.55c.07,0,.08-.05.08-.11v-1.51c0-.08,0-.11.09-.13a4.35,4.35,0,0,1,2.29-.23c.07,0,.1,0,.11.11l.27,1.48c0,.07,0,.1.11.11a5.73,5.73,0,0,1,1,.14l.58.12.81-1.37a.11.11,0,0,1,.14-.07,4.37,4.37,0,0,1,2.1,1,.14.14,0,0,1,.05.16c-.18.46-.34.93-.51,1.4,0,.08,0,.12.06.17.34.27.68.54,1,.82l.2.19,1.4-.78a.1.1,0,0,1,.14,0,4.6,4.6,0,0,1,1.35,1.87.15.15,0,0,1,0,.18l-1.15,1a.09.09,0,0,0,0,.14h0a8.38,8.38,0,0,1,.52,1.4.12.12,0,0,0,.13.1h1.5a.1.1,0,0,1,.12.08h0c.06.22.14.43.19.65S295.75,134.55,295.78,134.77Z"/><path class="a85f0bbc-6192-41d3-a8ca-fc11963d1fee" d="M324.09,135.5a4.54,4.54,0,0,1-1.88,1.36.15.15,0,0,1-.16,0l-1-1.16a.11.11,0,0,0-.15,0h0a8.35,8.35,0,0,1-1.37.51c-.09,0-.13.06-.13.16v1.48c0,.07,0,.11-.08.13s-.44.14-.66.19-.43.07-.65.1h-.55l-.44-.06c-.07,0-.1,0-.11-.1l-.27-1.5a.1.1,0,0,0-.1-.1h0a3.84,3.84,0,0,1-.48,0l-1.11-.2-.06.08-.69,1.17c-.11.19-.11.19-.34.15a4.32,4.32,0,0,1-2-.92.1.1,0,0,1,0-.16l.12-.34.41-1.14c-.45-.36-.88-.72-1.32-1.09l-1.38.78h-.13A4.34,4.34,0,0,1,308.2,133a.09.09,0,0,1,0-.14h0l1.16-1a.12.12,0,0,0,0-.16h0a8,8,0,0,1-.52-1.38c0-.09,0-.11-.14-.11h-1.5c-.05,0-.09,0-.11-.07a4.3,4.3,0,0,1-.24-2.3c0-.09,0-.11.13-.13l1.48-.26c.07,0,.08,0,.09-.1a5.67,5.67,0,0,1,.12-.91c.05-.3.09-.45.14-.68l-.12-.07-1.26-.75s-.07,0-.06-.11a2.94,2.94,0,0,1,.19-.72c1.3,1,2.63,2.06,4,3a3.57,3.57,0,0,0-.08.87,5.7,5.7,0,0,0,8.71,4.84c1,.6,2,1.17,3,1.72l.42.22c.14.25.27.5.41.74C324.09,135.37,324.09,135.4,324.09,135.5Z"/><path class="a85f0bbc-6192-41d3-a8ca-fc11963d1fee" d="M324.47,152.35v.9a5.43,5.43,0,0,1-.1.67.16.16,0,0,1-.14.16h0c-.78.14-1.55.29-2.33.42a.18.18,0,0,0-.18.17,0,0,0,0,0,0,0,7.27,7.27,0,0,1-.11,1c-.09.49-.2,1-.29,1.5l.12.08.28.17-.16-.05-3.44-1c-.43-.13-.84-.28-1.24-.44a9.94,9.94,0,0,0,.3-2.3,8.93,8.93,0,0,0-15.2-6.37q-1.91-1.32-3.76-2.7c.15-.18.31-.35.47-.53a.19.19,0,0,0-.07-.14l-1.15-2c0-.07-.07-.12,0-.2a6.93,6.93,0,0,1,3-2.14.18.18,0,0,1,.24.06c.21.26.43.51.64.76l1,1.16h.09a11.9,11.9,0,0,1,2.27-.85c.1,0,.12-.08.12-.18V138.1a.18.18,0,0,1,.15-.21,6.93,6.93,0,0,1,3.58-.36.19.19,0,0,1,.18.18l.42,2.32c0,.12,0,.15.17.17.53.06,1.05.13,1.57.22.31.05.6.13.91.2l1.34-2.22c.06-.09.1-.12.21-.1a7.12,7.12,0,0,1,3.3,1.48.2.2,0,0,1,.07.25c-.27.73-.52,1.47-.79,2.2-.05.12,0,.18.09.26l1.59,1.29c.11.09.21.2.31.3l2.19-1.23c.07,0,.13-.08.22,0a7.15,7.15,0,0,1,2.12,2.93.22.22,0,0,1-.07.28l-1.8,1.52a.15.15,0,0,0-.06.22h0a12.11,12.11,0,0,1,.82,2.2.2.2,0,0,0,.21.15h2.35c.11,0,.17,0,.2.14.09.34.21.68.29,1S324.41,152,324.47,152.35Z"/><path class="a85f0bbc-6192-41d3-a8ca-fc11963d1fee" d="M337.09,149l-3.25,6.51c-.19-.13-.37-.26-.54-.4a.19.19,0,0,1-.08-.25h0c.07-.18.13-.35.19-.53.22-.61.44-1.21.64-1.79l-2.07-1.7L329.83,152c-.07,0-.12.07-.2,0a6.88,6.88,0,0,1-2.13-3v-.23l1.81-1.53a.16.16,0,0,0,.07-.22l0,0a12.25,12.25,0,0,1-.81-2.16c0-.13-.08-.17-.22-.17H326a.16.16,0,0,1-.18-.1,7,7,0,0,1-.37-3.62c0-.13.08-.17.2-.19.78-.14,1.55-.29,2.33-.42.1,0,.12-.06.13-.15.06-.48.11-1,.19-1.43s.15-.71.23-1.07l-.19-.11-2-1.17c-.06,0-.11-.07-.09-.17a.82.82,0,0,1,.07-.33,64.12,64.12,0,0,0,6.69,2.78,8.66,8.66,0,0,0-.37,2.53A8.92,8.92,0,0,0,337.09,149Z"/><path class="f3a82e58-5eec-475f-9b2c-0bcd26d83417" d="M155.09,96.24c1.95-.7,3.87-1.4,5.8-2.06a1.24,1.24,0,0,0,.79-.83c.6-1.59,1.26-3.16,2-4.7a1.21,1.21,0,0,0,0-1.14c-.82-1.67-1.6-3.36-2.42-5a.67.67,0,0,1,.15-.94c1.37-1.33,2.72-2.69,4.06-4.06a.67.67,0,0,1,.93-.15h0c1.72.83,3.44,1.66,5.18,2.45a1.3,1.3,0,0,0,.87,0c1.64-.66,3.25-1.38,4.9-2a1.1,1.1,0,0,0,.73-.71c.62-1.78,1.28-3.55,1.89-5.33.13-.39.29-.54.71-.54h5.81a.64.64,0,0,1,.74.5c.6,1.79,1.27,3.56,1.88,5.34a1.12,1.12,0,0,0,.78.74q2.37.92,4.71,2a1.22,1.22,0,0,0,1.2,0c1.65-.82,3.32-1.58,5-2.4a.73.73,0,0,1,1,.17q1.94,2,4,4a.81.81,0,0,1,.16,1.12q-1.26,2.54-2.42,5.11a1.12,1.12,0,0,0,0,.86c.65,1.64,1.33,3.28,2,4.9a1.31,1.31,0,0,0,.64.67c1.78.68,3.59,1.29,5.38,2,.2.08.47.34.48.52v6.52c-1.91.68-3.79,1.37-5.68,2a1.32,1.32,0,0,0-.94.94c-.57,1.56-1.2,3.08-1.9,4.58a1.29,1.29,0,0,0,0,1.26c.81,1.65,1.58,3.32,2.39,5a.69.69,0,0,1-.15.94c-1.38,1.33-2.73,2.69-4.06,4.06a.71.71,0,0,1-1,.17l0,0c-1.72-.84-3.44-1.66-5.18-2.45a1.16,1.16,0,0,0-.86,0c-1.64.66-3.25,1.38-4.9,2a1,1,0,0,0-.74.7c-.61,1.78-1.27,3.55-1.88,5.34a.64.64,0,0,1-.72.53h-5.8a.64.64,0,0,1-.74-.51c-.6-1.79-1.27-3.55-1.88-5.34a1.08,1.08,0,0,0-.78-.73c-1.61-.62-3.2-1.28-4.77-2a1.08,1.08,0,0,0-1.07,0c-1.67.82-3.37,1.59-5,2.42a.72.72,0,0,1-1-.16l-4-4a.71.71,0,0,1-.16-1h0c.83-1.7,1.62-3.41,2.44-5.11a1,1,0,0,0,0-.94c-.71-1.62-1.36-3.27-2.07-4.89a1.35,1.35,0,0,0-.63-.68c-1.77-.66-3.54-1.3-5.33-1.9-.42-.14-.58-.31-.57-.76C155.09,100.5,155.09,98.37,155.09,96.24Zm28.5,19.89a16.46,16.46,0,1,0-16.47-16.45v.08a16.43,16.43,0,0,0,16.49,16.37h0Z"/><path class="f3a82e58-5eec-475f-9b2c-0bcd26d83417" d="M315.46,96.24c1.94-.7,3.86-1.4,5.8-2.06a1.2,1.2,0,0,0,.78-.83c.61-1.6,1.28-3.16,2-4.7a1.16,1.16,0,0,0,0-1.14c-.82-1.67-1.6-3.36-2.42-5a.67.67,0,0,1,.14-.94c1.38-1.33,2.73-2.69,4.06-4.06a.68.68,0,0,1,1-.17l0,0c1.72.83,3.44,1.66,5.18,2.45a1.27,1.27,0,0,0,.86,0c1.64-.66,3.26-1.38,4.91-2a1.1,1.1,0,0,0,.73-.71c.62-1.78,1.27-3.55,1.88-5.33a.63.63,0,0,1,.72-.54h5.81a.64.64,0,0,1,.73.5c.61,1.79,1.27,3.56,1.88,5.34a1.11,1.11,0,0,0,.79.74c1.58.61,3.16,1.26,4.7,2a1.24,1.24,0,0,0,1.21,0c1.64-.82,3.32-1.58,5-2.4a.72.72,0,0,1,1,.17c1.3,1.35,2.61,2.67,4,4a.82.82,0,0,1,.17,1.12q-1.26,2.54-2.43,5.11a1.27,1.27,0,0,0,0,.86c.66,1.64,1.34,3.28,2.05,4.9a1.29,1.29,0,0,0,.63.67c1.79.68,3.6,1.29,5.39,2,.2.08.47.34.47.52v6.52c-1.9.68-3.78,1.37-5.68,2a1.3,1.3,0,0,0-.93.94c-.57,1.56-1.21,3.08-1.91,4.58a1.29,1.29,0,0,0,0,1.26c.82,1.65,1.59,3.32,2.4,5a.68.68,0,0,1-.16.94c-1.37,1.33-2.72,2.69-4.06,4.06a.69.69,0,0,1-.94.14c-1.72-.84-3.44-1.66-5.18-2.45a1.16,1.16,0,0,0-.86,0c-1.64.66-3.26,1.38-4.91,2a1,1,0,0,0-.73.7c-.62,1.78-1.27,3.55-1.88,5.34a.64.64,0,0,1-.72.53h-5.81a.63.63,0,0,1-.73-.51c-.61-1.79-1.27-3.55-1.88-5.34a1.1,1.1,0,0,0-.79-.73c-1.6-.62-3.2-1.28-4.76-2a1.09,1.09,0,0,0-1.08,0c-1.67.82-3.36,1.59-5,2.42a.74.74,0,0,1-1-.16l-4-4a.71.71,0,0,1-.15-1c.84-1.7,1.62-3.41,2.45-5.11a1,1,0,0,0,0-.94c-.72-1.62-1.37-3.27-2.07-4.89a1.37,1.37,0,0,0-.64-.68c-1.76-.66-3.54-1.3-5.33-1.9a.68.68,0,0,1-.57-.76C315.47,100.5,315.46,98.37,315.46,96.24ZM344,116.13a16.46,16.46,0,1,0-16.47-16.45v.08A16.42,16.42,0,0,0,344,116.13Z"/><polygon class="e4eb6b49-719f-4069-95fd-bd9729c567b7" points="404.1 221.82 404.1 266.69 358.54 266.69 358.54 211.71 393.99 211.71 404.1 221.82"/><polygon class="e15d03f0-4ba3-494b-bfe2-583dfbdbbb2d" points="392.59 223.23 393.99 211.71 404.1 221.82 392.59 223.23"/><polygon class="a25661a5-279d-4b7b-bdaf-f3bee25c1000" points="393.99 221.82 393.99 211.71 404.1 221.82 393.99 221.82"/><path class="a6f909e1-bc23-428f-a2f5-0e2ec350065a" d="M373.86,238.52,367,241.38l6.88,3V247l-9.56-4.56v-2.06l9.56-4.47Z"/><path class="a6f909e1-bc23-428f-a2f5-0e2ec350065a" d="M378.07,247.73l-2.38-.84,10-16.22,2.36.84Z"/><path class="a6f909e1-bc23-428f-a2f5-0e2ec350065a" d="M395.66,241.38l-6.89-2.89v-2.57l9.57,4.46v2.1L388.77,247v-2.59Z"/><polygon class="e4eb6b49-719f-4069-95fd-bd9729c567b7" points="354.26 348.94 354.26 377.63 325.14 377.63 325.14 342.48 347.8 342.48 354.26 348.94"/><polygon class="e15d03f0-4ba3-494b-bfe2-583dfbdbbb2d" points="346.9 349.84 347.8 342.48 354.26 348.94 346.9 349.84"/><polygon class="a25661a5-279d-4b7b-bdaf-f3bee25c1000" points="347.8 348.94 347.8 342.48 354.26 348.94 347.8 348.94"/><path class="e64bb8bf-831f-4aef-9099-fc36a88f3796" d="M334.93,359.62l-4.39,1.83,4.39,1.93v1.68l-6.11-2.91v-1.32l6.11-2.86Z"/><path class="e64bb8bf-831f-4aef-9099-fc36a88f3796" d="M337.62,365.51,336.1,365l6.41-10.37,1.51.54Z"/><path class="e64bb8bf-831f-4aef-9099-fc36a88f3796" d="M348.87,361.45l-4.4-1.85V358l6.11,2.85v1.34l-6.11,2.91V363.4Z"/><g class="bba473e3-c327-4b7d-87a3-1d59220d62ef"><rect class="f9489e5e-54ab-48af-8f79-28188939bac2" x="58.9" y="221.93" width="52.23" height="8.03" rx="2"/><rect class="f9489e5e-54ab-48af-8f79-28188939bac2" x="58.9" y="233.37" width="110.7" height="8.03" rx="2"/><path class="f9489e5e-54ab-48af-8f79-28188939bac2" d="M60.91,245.78H123.6a2,2,0,0,1,2,2h0a2,2,0,0,1-2,2H60.91a2,2,0,0,1-2-2h0A2,2,0,0,1,60.91,245.78Z"/><path class="f9489e5e-54ab-48af-8f79-28188939bac2" d="M60.91,253.5H86.75a2,2,0,0,1,2,2h0a2,2,0,0,1-2,2H60.91a2,2,0,0,1-2-2h0A2,2,0,0,1,60.91,253.5Z"/><path class="f9489e5e-54ab-48af-8f79-28188939bac2" d="M60.91,261.21h55.67a2,2,0,0,1,2,2h0a2,2,0,0,1-2,2H60.91a2,2,0,0,1-2-2h0A2,2,0,0,1,60.91,261.21Z"/><path class="f9489e5e-54ab-48af-8f79-28188939bac2" d="M60.91,269h45a2,2,0,0,1,2,2h0a2,2,0,0,1-2,2h-45a2,2,0,0,1-2-2h0A2,2,0,0,1,60.91,269Z"/><path class="f9489e5e-54ab-48af-8f79-28188939bac2" d="M60.91,276.64H163.35a2,2,0,0,1,2,2h0a2,2,0,0,1-2,2H60.91a2,2,0,0,1-2-2h0A2,2,0,0,1,60.91,276.64Z"/><path class="f9489e5e-54ab-48af-8f79-28188939bac2" d="M60.91,284.35h61.92a2,2,0,0,1,2,2h0a2,2,0,0,1-2,2H60.91a2,2,0,0,1-2-2h0A2,2,0,0,1,60.91,284.35Z"/><path class="f9489e5e-54ab-48af-8f79-28188939bac2" d="M60.91,292.07h85.67a2,2,0,0,1,2,2h0a2,2,0,0,1-2,2H60.91a2,2,0,0,1-2-2h0A2,2,0,0,1,60.91,292.07Z"/></g><g class="bba473e3-c327-4b7d-87a3-1d59220d62ef"><path class="f9489e5e-54ab-48af-8f79-28188939bac2" d="M360.91,277.71h66.53a2.12,2.12,0,0,1,2.13,2.12h0a2.13,2.13,0,0,1-2.13,2.13H360.91a2.12,2.12,0,0,1-2.12-2.13h0A2.12,2.12,0,0,1,360.91,277.71Z"/><path class="f9489e5e-54ab-48af-8f79-28188939bac2" d="M360.91,285.9h27.43a2.12,2.12,0,0,1,2.12,2.13h0a2.12,2.12,0,0,1-2.12,2.12H360.91a2.12,2.12,0,0,1-2.12-2.12h0A2.12,2.12,0,0,1,360.91,285.9Z"/><path class="f9489e5e-54ab-48af-8f79-28188939bac2" d="M360.91,294.09H420a2.12,2.12,0,0,1,2.13,2.12h0a2.12,2.12,0,0,1-2.13,2.12H360.91a2.12,2.12,0,0,1-2.12-2.12h0A2.12,2.12,0,0,1,360.91,294.09Z"/><path class="f9489e5e-54ab-48af-8f79-28188939bac2" d="M360.91,302.31h47.76a2.12,2.12,0,0,1,2.12,2.12h0a2.12,2.12,0,0,1-2.12,2.13H360.91a2.12,2.12,0,0,1-2.12-2.13h0A2.12,2.12,0,0,1,360.91,302.31Z"/><path class="f9489e5e-54ab-48af-8f79-28188939bac2" d="M360.91,310.46H469.63a2.12,2.12,0,0,1,2.12,2.12h0a2.12,2.12,0,0,1-2.12,2.13H360.91a2.12,2.12,0,0,1-2.12-2.13h0A2.12,2.12,0,0,1,360.91,310.46Z"/><path class="f9489e5e-54ab-48af-8f79-28188939bac2" d="M360.91,318.64h65.72a2.12,2.12,0,0,1,2.12,2.13h0a2.12,2.12,0,0,1-2.12,2.12H360.91a2.12,2.12,0,0,1-2.12-2.12h0A2.12,2.12,0,0,1,360.91,318.64Z"/><path class="f9489e5e-54ab-48af-8f79-28188939bac2" d="M360.91,326.84h90.92A2.12,2.12,0,0,1,454,329h0a2.12,2.12,0,0,1-2.12,2.12H360.91a2.12,2.12,0,0,1-2.12-2.12h0A2.12,2.12,0,0,1,360.91,326.84Z"/></g><circle class="e4eb6b49-719f-4069-95fd-bd9729c567b7" cx="76.43" cy="96.91" r="12.26"/><circle class="e4eb6b49-719f-4069-95fd-bd9729c567b7" cx="451.57" cy="96.91" r="12.26"/><path class="e5e1e078-20f3-4a48-90c0-6377195fb10e" d="M137.21,346.72a1.57,1.57,0,0,1,1.07-1.08c2.17-.78,4.32-1.56,6.51-2.3v-7.47c0-.21-.31-.5-.55-.59-2-.78-4.12-1.46-6.16-2.23a1.5,1.5,0,0,1-.73-.78c-.79-1.85-1.57-3.73-2.35-5.61a1.41,1.41,0,0,1-.06-1c.46-1,.95-2.07,1.44-3.13A17,17,0,0,0,126,329.19a17.17,17.17,0,1,1-13.9-7,18.1,18.1,0,0,1,3.52.34c-.45-1-.9-1.92-1.37-2.89a.77.77,0,0,1,.14-1q2.3-2.22,4.52-4.52a1.2,1.2,0,0,1-.46-.64c-.69-2-1.45-4.07-2.14-6.11a.74.74,0,0,0-.85-.58h-6.66a.67.67,0,0,0-.78.6c-.7,2.05-1.45,4.08-2.16,6.11a1.17,1.17,0,0,1-.83.78c-1.89.74-3.75,1.57-5.62,2.35a1.31,1.31,0,0,1-1,0c-2-.9-4-1.84-5.93-2.8a.79.79,0,0,0-1.09.16c-1.56,1.56-3.08,3.13-4.65,4.65a.78.78,0,0,0-.16,1.08c.93,1.92,1.82,3.86,2.76,5.78a1.29,1.29,0,0,1,0,1.29c-.78,1.77-1.56,3.58-2.24,5.39a1.31,1.31,0,0,1-.9.94l-6.65,2.35v7.25a.79.79,0,0,0,.65.87c2,.7,4.08,1.42,6.1,2.18a1.56,1.56,0,0,1,.73.79c.79,1.85,1.57,3.73,2.35,5.58a1.11,1.11,0,0,1,0,1.09c-1,1.94-1.85,3.92-2.8,5.84a.8.8,0,0,0,.11,1.11l.06,0q2.36,2.25,4.59,4.6a.84.84,0,0,0,1.15.18c1.92-1,3.86-1.84,5.77-2.78a1.28,1.28,0,0,1,1.23,0c1.8.79,3.62,1.57,5.49,2.28a1.3,1.3,0,0,1,.9.85c.7,2,1.45,4.07,2.14,6.12a.8.8,0,0,0,.86.58h6.65c.48,0,.66-.16.78-.62.7-2,1.45-4.06,2.16-6.11a1.1,1.1,0,0,1,.45-.61,1.76,1.76,0,0,1,.39-.19c1.88-.73,3.74-1.57,5.62-2.3a1.38,1.38,0,0,1,1,0h0c2,.9,3.94,1.84,5.89,2.79a.78.78,0,0,0,1.1-.15h0l.12-.12c1.48-1.54,3-3,4.52-4.52a.78.78,0,0,0,.18-1.09c-.47-1-.94-1.92-1.39-2.88s-.89-1.88-1.36-2.81a1.48,1.48,0,0,1,0-1.44C135.83,350.26,136.56,348.5,137.21,346.72Z"/><path class="a25661a5-279d-4b7b-bdaf-f3bee25c1000" d="M162.73,352a1.48,1.48,0,0,0,0,1.44c.94,1.88,1.81,3.8,2.75,5.69a.78.78,0,0,1-.18,1.09q-2.34,2.28-4.65,4.64a.78.78,0,0,1-1.08.17c-2-1-3.92-1.9-5.94-2.81a1.38,1.38,0,0,0-1,0c-1.88.74-3.73,1.56-5.62,2.3a1.24,1.24,0,0,0-.84.78c-.7,2.05-1.46,4.08-2.15,6.11-.16.46-.33.62-.79.61h-6.66a.73.73,0,0,1-.84-.58c-.69-2-1.45-4.07-2.15-6.11a1.15,1.15,0,0,0-.46-.64q2.22-2.3,4.52-4.52a.78.78,0,0,0,.17-1.09q-.71-1.43-1.38-2.88a17.53,17.53,0,0,0,3.47.35,17.16,17.16,0,0,0,.65-34.32h-.73a17,17,0,0,0-13.76,7,17.28,17.28,0,0,0-3.33,10.26,17,17,0,0,0,3.32,10.09,17.2,17.2,0,0,1-10.45,6.68c.48-1,.95-2,1.44-3a1.17,1.17,0,0,0,0-1.09l-2.35-5.59a1.48,1.48,0,0,0-.72-.78c-2-.78-4.06-1.49-6.1-2.19a.78.78,0,0,1-.65-.87v-7.24l6.65-2.35a1.35,1.35,0,0,0,.9-.94q1-2.73,2.24-5.39a1.34,1.34,0,0,0,0-1.29c-.47-1-.93-1.92-1.39-2.89h0c-.45-.95-.91-1.92-1.38-2.89a.79.79,0,0,1,.14-1.1h0q2.3-2.22,4.52-4.52a2.86,2.86,0,0,0,.44.2c1.82.71,3.62,1.45,5.39,2.24a1.43,1.43,0,0,0,1.29.07h0a1.38,1.38,0,0,0,1,0l5.62-2.35a1.76,1.76,0,0,0,.39-.19,1.19,1.19,0,0,0,.46-.62c.7-2,1.45-4.07,2.15-6.11.15-.45.33-.62.78-.6h6.65a.79.79,0,0,1,.86.58c.69,2,1.45,4.07,2.14,6.11a1.24,1.24,0,0,0,1,.87c1.82.71,3.62,1.45,5.39,2.24a1.41,1.41,0,0,0,1.38,0c1.88-.94,3.8-1.81,5.68-2.75a.84.84,0,0,1,1.16.2c1.48,1.53,3,3.06,4.53,4.53a.9.9,0,0,1,.2,1.27h0q-1.46,2.91-2.79,5.85a1.46,1.46,0,0,0,.06,1c.78,1.88,1.57,3.76,2.35,5.61a1.48,1.48,0,0,0,.74.78c2,.79,4.11,1.48,6.15,2.24.23.09.54.38.55.58,0,2.49,0,5,0,7.48-2.19.78-4.34,1.56-6.51,2.3a1.55,1.55,0,0,0-1.08,1.07C164.22,348.5,163.52,350.26,162.73,352Z"/><circle class="e64bb8bf-831f-4aef-9099-fc36a88f3796" cx="193.83" cy="340.57" r="2.74"/><circle class="efb30540-46ed-4b3d-a48f-a4492aceb770" cx="56.87" cy="340.17" r="2.74"/><circle class="f9489e5e-54ab-48af-8f79-28188939bac2" cx="347.22" cy="434.87" r="11.35"/><circle class="f9489e5e-54ab-48af-8f79-28188939bac2" cx="385.04" cy="434.87" r="11.35"/><circle class="f9489e5e-54ab-48af-8f79-28188939bac2" cx="422.87" cy="434.87" r="11.35"/></svg>