<svg id="f6f8bf39-66ea-4e67-8db5-c85178241f63" data-name="Layer 1" xmlns="http://www.w3.org/2000/svg" viewBox="0 0 500 500"><defs><style>.abc5df01-6d2e-4ae4-8db9-d587f74971c2{fill:#f1f2f2;}.bf521213-450c-4b57-9671-8188f61b0112{fill:#5c6e87;}.b5644461-ad68-4039-a765-4a7f3b6b43b9{fill:#d1d3d4;}.b6b8f2cc-7e99-423d-832b-e6c321172cea{fill:#a7a9ac;}.b44740e6-c268-4e89-8ddb-8774a3ec3e63{fill:#fff;}.fce1bfb1-6b80-48a9-a8a9-d5fc9bfa405e{fill:#3dba85;}.b1ca36cd-1fb1-4e2c-8298-e4ec3322cbcb{fill:#3e83ff;}.aa56011c-200b-4bd0-8b9d-75c5d23c8969{fill:#ffb213;}.ba0acc9c-2839-4eed-bfd6-6cc5fbf22e42{fill:#d4ecff;}.bd8feb78-e4dd-4229-b4f8-605f15bbf213{fill:#396caa;}.efd84e28-00b8-4ef1-b152-c4811d96d57e{fill:#e8eced;}.be84c9fd-5682-4046-922b-bbd52ccb20a4{fill:#f8f9fa;}.a1dafb91-107b-49ff-bac9-08dea1ef8072{fill:#e8e8ea;}.fac63d1b-6b13-4c9b-a761-b27417ff02a7{fill:#34a54d;}.b3c76dcf-1f46-4313-9cf0-e50e528bae88{fill:#f13624;}.a0047d3d-2ad0-478f-91c4-12d7cb81e926{fill:#db8f14;}.e6255a16-fda9-4602-b1ca-d8665fd89584{fill:#ea8d1f;}.b51d18dc-0af4-4711-a6ef-4318ab745146{fill:#e6e7e8;}.b9912919-2fa0-4b91-81c5-298e12b7eb7a{fill:#bcbec0;}.e9802118-060f-4c8a-9efe-849815606994{fill:#3a4349;}.f816b545-6c1d-429c-aebd-8b35db4111f6{fill:#2a7752;}.a1d6dff2-db3a-4b97-9fc7-cb3639a33c49{fill:#309165;}.a75378b8-a963-442b-99be-abc61f473d1a{fill:#f9c8a7;}.be536be2-3b78-4e79-a849-ddcfced580ec{fill:#dbb397;}.bdf80e53-01ba-4952-8801-d73ab53f27b1{fill:#bcbcbc;}.eb3954be-76ec-4f3e-87fa-a179f3030e76{fill:#173d7a;}.ee2139ff-457f-486b-9aa5-1aa2b9907c21{fill:#5793ce;}.b6bb2252-d369-4c53-8f93-d2241de7d259{fill:#274f89;}</style></defs><title>Talk-To-experts-How-we-Do-illustration</title><path class="abc5df01-6d2e-4ae4-8db9-d587f74971c2" d="M382.2,450.75,336,424.08c-2.84-1.63-2.48-4.49.79-6.38L381.41,392c3.27-1.89,8.22-2.09,11.06-.46l46.18,26.67c2.84,1.63,2.48,4.49-.79,6.38l-44.6,25.75C390,452.18,385,452.39,382.2,450.75Z"/><path class="abc5df01-6d2e-4ae4-8db9-d587f74971c2" d="M91.52,239l-73-42.13c-4.48-2.59-3.92-7.11,1.25-10.09l70.47-40.69c5.17-3,13-3.31,17.47-.72l73,42.13c4.48,2.59,3.92,7.11-1.25,10.09L109,238.24C103.83,241.23,96,241.56,91.52,239Z"/><path class="abc5df01-6d2e-4ae4-8db9-d587f74971c2" d="M186.9,364.19l-73-42.14c-4.48-2.58-3.92-7.1,1.26-10.09l109.55-64.41c5.17-3,13-3.31,17.48-.72l73,42.13c4.47,2.59,3.91,7.11-1.26,10.09L204.37,363.46C199.2,366.45,191.38,366.77,186.9,364.19Z"/><path class="bf521213-450c-4b57-9671-8188f61b0112" d="M92.68,400.23l43.52,25.12,1.9-1.09L94.58,399.14Z"/><path class="bf521213-450c-4b57-9671-8188f61b0112" d="M270.63,337.05l88.49,50.84,1.89-1.1L272.53,336Z"/><path class="bf521213-450c-4b57-9671-8188f61b0112" d="M139.5,347.06,91.28,374.89l2.1,1.21,48.22-27.83Z"/><path class="bf521213-450c-4b57-9671-8188f61b0112" d="M177.25,237.47,159,226.79l-2.1,1.21,18.27,10.68Z"/><path class="bf521213-450c-4b57-9671-8188f61b0112" d="M325.79,228.28l-48.22,27.83,2.1,1.21,48.22-27.83Z"/><path class="bf521213-450c-4b57-9671-8188f61b0112" d="M422.22,167.47,374,195.31l2.1,1.21,48.22-27.84Z"/><path class="b5644461-ad68-4039-a765-4a7f3b6b43b9" d="M199.1,382.49l-120-69L231,225.84l120,69ZM85.36,313.66,198.83,378.9l145.89-84.23L231.25,229.43Z"/><path class="b5644461-ad68-4039-a765-4a7f3b6b43b9" d="M205.86,350.42,317,286.15c2.2-1.27,3.23-3,3.27-4.75l.06,0,0-29.23-6.18,5.18L244,217c-5.71-3.28-14.34-3.63-19.27-.78l-106.2,61.43-8.23-4.74v29.35l0,0c.06,2.16,1.6,4.41,4.67,6.18l71.62,41.27C192.3,352.93,200.92,353.28,205.86,350.42Z"/><path class="b6b8f2cc-7e99-423d-832b-e6c321172cea" d="M314.1,257.39,244,217c-5.71-3.28-14.34-3.63-19.27-.78L197,232.2V352.33a17.43,17.43,0,0,0,8.85-1.91L317,286.15c2.2-1.28,3.23-3,3.27-4.75l.06,0,0-29.23Z"/><path class="abc5df01-6d2e-4ae4-8db9-d587f74971c2" d="M113.58,267.79l111.1-64.27c4.94-2.86,13.57-2.51,19.28.78l71.61,41.27c5.71,3.29,6.33,8.27,1.4,11.12L205.86,321c-4.94,2.85-13.57,2.5-19.27-.79L115,278.92C109.26,275.63,108.64,270.65,113.58,267.79Z"/><path class="b44740e6-c268-4e89-8ddb-8774a3ec3e63" d="M205.6,324l111.11-64.27c2.7-1.57,3.68-3.77,3.13-6a6.72,6.72,0,0,1-2.87,3L205.86,321c-4.94,2.85-13.57,2.5-19.27-.79L115,278.92c-2.58-1.49-4.06-3.32-4.52-5.15-1.2,2.67.23,5.82,4.26,8.14l71.62,41.27C192,326.47,200.66,326.82,205.6,324Z"/><path class="b44740e6-c268-4e89-8ddb-8774a3ec3e63" d="M230.7,250.13c-4.14-2.39-4.15-6.27,0-8.66a16.56,16.56,0,0,1,15,0c4.15,2.38,4.15,6.26,0,8.66A16.59,16.59,0,0,1,230.7,250.13Z"/><path class="b6b8f2cc-7e99-423d-832b-e6c321172cea" d="M208,263.27c-4.14-2.39-4.15-6.27,0-8.66a16.59,16.59,0,0,1,15,0c4.15,2.39,4.15,6.27,0,8.66A16.59,16.59,0,0,1,208,263.27Z"/><path class="fce1bfb1-6b80-48a9-a8a9-d5fc9bfa405e" d="M185.28,276.4c-4.15-2.38-4.15-6.26,0-8.66a16.59,16.59,0,0,1,15,0c4.15,2.39,4.15,6.27,0,8.66A16.56,16.56,0,0,1,185.28,276.4Z"/><path class="b5644461-ad68-4039-a765-4a7f3b6b43b9" d="M283.94,342.89c-5.38,3.11-14.09,3.11-19.47,0s-5.37-8.13,0-11.24,14.09-3.1,19.47,0S289.31,339.79,283.94,342.89Z"/><polygon class="abc5df01-6d2e-4ae4-8db9-d587f74971c2" points="71.56 405.31 39.84 386.99 71.56 368.68 103.28 386.99 71.56 405.31"/><path class="b5644461-ad68-4039-a765-4a7f3b6b43b9" d="M71.57,414.83,23.35,387l48.21-27.83L119.78,387ZM27.54,387l44,25.42,44-25.41-44-25.42Z"/><polygon class="b6b8f2cc-7e99-423d-832b-e6c321172cea" points="103.28 377.84 71.56 396.15 71.56 359.52 103.28 341.21 103.28 377.84"/><polygon class="abc5df01-6d2e-4ae4-8db9-d587f74971c2" points="71.56 359.52 39.84 341.21 71.56 322.9 103.28 341.21 71.56 359.52"/><polygon class="b1ca36cd-1fb1-4e2c-8298-e4ec3322cbcb" points="71.31 350 56.09 341.21 71.31 332.42 86.54 341.21 71.31 350"/><polygon class="b5644461-ad68-4039-a765-4a7f3b6b43b9" points="71.56 396.15 39.84 377.84 39.84 341.21 71.56 359.52 71.56 396.15"/><polygon class="b44740e6-c268-4e89-8ddb-8774a3ec3e63" points="62.68 380.76 48.73 372.71 48.73 356.6 62.68 364.65 62.68 380.76"/><polygon class="abc5df01-6d2e-4ae4-8db9-d587f74971c2" points="350.95 234.98 319.23 216.67 350.95 198.36 382.67 216.67 350.95 234.98"/><polygon class="abc5df01-6d2e-4ae4-8db9-d587f74971c2" points="447.38 173.27 415.66 154.96 447.38 136.64 479.1 154.96 447.38 173.27"/><path class="b5644461-ad68-4039-a765-4a7f3b6b43b9" d="M351,242.8,302.73,215,351,187.13,399.16,215Zm-44-27.84,44,25.42L395,215l-44-25.42Z"/><polygon class="b6b8f2cc-7e99-423d-832b-e6c321172cea" points="382.67 205.81 350.95 224.12 350.95 187.5 382.67 169.18 382.67 205.81"/><polygon class="abc5df01-6d2e-4ae4-8db9-d587f74971c2" points="350.95 187.5 319.23 169.18 350.95 150.87 382.67 169.18 350.95 187.5"/><polygon class="b1ca36cd-1fb1-4e2c-8298-e4ec3322cbcb" points="350.69 177.97 335.47 169.18 350.69 160.39 365.92 169.18 350.69 177.97"/><polygon class="b5644461-ad68-4039-a765-4a7f3b6b43b9" points="350.95 224.12 319.23 205.81 319.23 169.18 350.95 187.5 350.95 224.12"/><polygon class="b44740e6-c268-4e89-8ddb-8774a3ec3e63" points="342.06 208.74 328.11 200.68 328.11 184.57 342.06 192.63 342.06 208.74"/><path class="b5644461-ad68-4039-a765-4a7f3b6b43b9" d="M447.38,182l-48.22-27.83,48.22-27.84,48.21,27.84Zm-44-27.83,44,25.41,44-25.41-44-25.42Z"/><polygon class="b6b8f2cc-7e99-423d-832b-e6c321172cea" points="479.1 145 447.38 163.31 447.38 126.69 479.1 108.38 479.1 145"/><polygon class="abc5df01-6d2e-4ae4-8db9-d587f74971c2" points="447.38 126.69 415.66 108.38 447.38 90.06 479.1 108.38 447.38 126.69"/><polygon class="bf521213-450c-4b57-9671-8188f61b0112" points="447.12 117.17 431.9 108.38 447.12 99.58 462.35 108.38 447.12 117.17"/><polygon class="b5644461-ad68-4039-a765-4a7f3b6b43b9" points="447.38 163.31 415.66 145 415.66 108.38 447.38 126.69 447.38 163.31"/><polygon class="b44740e6-c268-4e89-8ddb-8774a3ec3e63" points="438.49 147.93 424.54 139.87 424.54 123.76 438.49 131.82 438.49 147.93"/><polygon class="abc5df01-6d2e-4ae4-8db9-d587f74971c2" points="158.91 455.14 187.54 438.62 158.91 422.09 130.28 438.62 158.91 455.14"/><path class="b5644461-ad68-4039-a765-4a7f3b6b43b9" d="M115.39,438.62l43.52-25.13,43.52,25.12-43.52,25.13Zm43.52-22.95-39.74,22.95,39.74,22.94,39.73-22.95Z"/><polygon class="b6b8f2cc-7e99-423d-832b-e6c321172cea" points="130.28 430.35 158.91 446.88 158.91 413.82 130.28 397.29 130.28 430.35"/><polygon class="abc5df01-6d2e-4ae4-8db9-d587f74971c2" points="158.91 413.82 187.54 397.29 158.91 380.76 130.28 397.29 158.91 413.82"/><polygon class="aa56011c-200b-4bd0-8b9d-75c5d23c8969" points="159.14 405.23 172.88 397.29 159.14 389.36 145.39 397.29 159.14 405.23"/><polygon class="b5644461-ad68-4039-a765-4a7f3b6b43b9" points="158.91 446.88 187.54 430.35 187.54 397.29 158.91 413.82 158.91 446.88"/><polygon class="b44740e6-c268-4e89-8ddb-8774a3ec3e63" points="166.93 432.99 179.52 425.72 179.52 411.18 166.93 418.45 166.93 432.99"/><path class="b5644461-ad68-4039-a765-4a7f3b6b43b9" d="M99.63,255.83,4.25,200.76l95.38-55.07L195,200.76ZM9.51,200.76l90.12,52,90.11-52-90.11-52Z"/><path class="b6b8f2cc-7e99-423d-832b-e6c321172cea" d="M183.72,180h0V154.82l-56.46,0-19.52-11.27c-4.48-2.58-12.3-2.26-17.47.73L72.06,154.76l-56.51,0v25.89c-.13,1.75.84,3.44,3,4.69l73,42.13C96,230,103.83,229.7,109,226.71L179.47,186C182.45,184.31,183.89,182.08,183.72,180Z"/><path class="b6b8f2cc-7e99-423d-832b-e6c321172cea" d="M99.63,141.79a20,20,0,0,0-9.36,2.46L72.06,154.76l-56.51,0v25.89c-.13,1.75.84,3.44,3,4.69l73,42.13a15.8,15.8,0,0,0,8.11,1.73Z"/><path class="b5644461-ad68-4039-a765-4a7f3b6b43b9" d="M21.94,154.73H15.55v25.89c-.13,1.75.84,3.44,3,4.69l3.39,2Z"/><path class="b5644461-ad68-4039-a765-4a7f3b6b43b9" d="M92.65,228c3.86,1.65,9.45,1.56,14-.16v-29.4h-14Z"/><path class="abc5df01-6d2e-4ae4-8db9-d587f74971c2" d="M91.52,201.64l-73-42.14c-4.48-2.58-3.92-7.1,1.25-10.09l70.47-40.68c5.17-3,13-3.31,17.47-.72l73,42.13c4.48,2.59,3.92,7.1-1.25,10.09L109,200.91C103.83,203.9,96,204.22,91.52,201.64Z"/><path class="b44740e6-c268-4e89-8ddb-8774a3ec3e63" d="M179.47,155.27,109,196c-5.17,3-13,3.31-17.48.72l-73-42.13a6.79,6.79,0,0,1-2.24-2c-1.54,2.48-.84,5.17,2.24,6.94l73,42.14c4.48,2.58,12.31,2.26,17.48-.73l70.47-40.68c4-2.32,5.23-5.56,3.48-8.11A9.66,9.66,0,0,1,179.47,155.27Z"/><path class="b44740e6-c268-4e89-8ddb-8774a3ec3e63" d="M156.88,186.65a6.5,6.5,0,0,1-2.95,5.1c-1.63.94-3,.18-3-1.7a6.52,6.52,0,0,1,3-5.11C155.56,184,156.88,184.77,156.88,186.65Z"/><path class="b1ca36cd-1fb1-4e2c-8298-e4ec3322cbcb" d="M166.36,181.17a6.52,6.52,0,0,1-3,5.11c-1.62.94-2.94.17-2.94-1.71a6.52,6.52,0,0,1,2.94-5.1C165,178.53,166.36,179.29,166.36,181.17Z"/><path class="aa56011c-200b-4bd0-8b9d-75c5d23c8969" d="M175.85,175.7a6.52,6.52,0,0,1-2.95,5.1c-1.63.94-3,.18-3-1.7a6.52,6.52,0,0,1,3-5.11C174.53,173.05,175.85,173.82,175.85,175.7Z"/><path class="b1ca36cd-1fb1-4e2c-8298-e4ec3322cbcb" d="M95.84,175.51,61.69,155.8c-2.1-1.21-1.83-3.33.59-4.72l33-19c2.42-1.4,6.08-1.55,8.18-.34l34.15,19.72c2.09,1.21,1.83,3.32-.59,4.72l-33,19C101.6,176.57,97.94,176.72,95.84,175.51Z"/><path class="ba0acc9c-2839-4eed-bfd6-6cc5fbf22e42" d="M99.11,159l-4.73-2.72c-.29-.17-.25-.46.09-.66L99,153a1.29,1.29,0,0,1,1.13-.05l4.72,2.73c.29.17.26.46-.08.65L100.24,159A1.26,1.26,0,0,1,99.11,159Z"/><path class="bd8feb78-e4dd-4229-b4f8-605f15bbf213" d="M61.69,155.8l.1,0a4.65,4.65,0,0,1,.49-.33l33-19c2.42-1.4,6.08-1.55,8.18-.34l34,19.66c1.93-1.38,2-3.27.1-4.38L103.43,131.7c-2.1-1.21-5.76-1.06-8.18.34l-33,19C59.86,152.47,59.59,154.59,61.69,155.8Z"/><path class="b5644461-ad68-4039-a765-4a7f3b6b43b9" d="M160,229.25c-5,2.88-13.07,2.88-18,0s-5-7.54,0-10.42,13.06-2.88,18,0S165,226.37,160,229.25Z"/><path class="b5644461-ad68-4039-a765-4a7f3b6b43b9" d="M392.83,32.9h4.27a32.28,32.28,0,0,1,32.28,32.28V97.47a0,0,0,0,1,0,0H392.83a32.28,32.28,0,0,1-32.28-32.28v0A32.28,32.28,0,0,1,392.83,32.9Z"/><circle class="efd84e28-00b8-4ef1-b152-c4811d96d57e" cx="394.97" cy="65.18" r="27.22"/><circle class="efd84e28-00b8-4ef1-b152-c4811d96d57e" cx="394.97" cy="65.18" r="10.42"/><path class="be84c9fd-5682-4046-922b-bbd52ccb20a4" d="M405.4,65.18A10.43,10.43,0,0,1,395,75.61,10.42,10.42,0,1,1,405.4,65.18Z"/><path class="aa56011c-200b-4bd0-8b9d-75c5d23c8969" d="M413.46,45.23,402.05,57.54a10.4,10.4,0,0,0-12.57-1.21L380.6,42.06a27.18,27.18,0,0,1,32.86,3.17Z"/><path class="bf521213-450c-4b57-9671-8188f61b0112" d="M422.19,65.18a27.22,27.22,0,0,1-44.95,20.66l10.94-12.76a10.42,10.42,0,0,0,13.87-15.54l11.41-12.31A27.07,27.07,0,0,1,422.19,65.18Z"/><path class="b5644461-ad68-4039-a765-4a7f3b6b43b9" d="M298.91,89.28h4.27a32.28,32.28,0,0,1,32.28,32.28v32.28a0,0,0,0,1,0,0H298.91a32.28,32.28,0,0,1-32.28-32.28v0A32.28,32.28,0,0,1,298.91,89.28Z"/><circle class="a1dafb91-107b-49ff-bac9-08dea1ef8072" cx="301.05" cy="121.56" r="27.22"/><path class="be84c9fd-5682-4046-922b-bbd52ccb20a4" d="M301.05,94.34a27.22,27.22,0,0,0,0,54.44"/><circle class="b5644461-ad68-4039-a765-4a7f3b6b43b9" cx="287.05" cy="121.56" r="7.19"/><rect class="fac63d1b-6b13-4c9b-a761-b27417ff02a7" x="264.9" y="188.75" width="10.18" height="4.2" transform="translate(539.97 381.71) rotate(-180)"/><rect class="b1ca36cd-1fb1-4e2c-8298-e4ec3322cbcb" x="277.79" y="168.53" width="36.86" height="4.2" transform="translate(592.45 341.27) rotate(-180)"/><rect class="fac63d1b-6b13-4c9b-a761-b27417ff02a7" x="290.54" y="178.85" width="24.11" height="4.2" transform="translate(605.2 361.91) rotate(-180)"/><rect class="b5644461-ad68-4039-a765-4a7f3b6b43b9" x="261.1" y="178.85" width="24.11" height="4.2" transform="translate(546.31 361.91) rotate(-180)"/><rect class="b5644461-ad68-4039-a765-4a7f3b6b43b9" x="277.79" y="188.75" width="36.86" height="4.2" transform="translate(592.45 381.71) rotate(-180)"/><rect class="b5644461-ad68-4039-a765-4a7f3b6b43b9" x="260.44" y="198.65" width="54.22" height="4.2" transform="translate(575.1 401.5) rotate(-180)"/><rect class="fac63d1b-6b13-4c9b-a761-b27417ff02a7" x="358.86" y="129.38" width="10.18" height="4.2" transform="translate(727.9 262.96) rotate(-180)"/><rect class="b3c76dcf-1f46-4313-9cf0-e50e528bae88" x="371.76" y="109.16" width="36.86" height="4.2" transform="translate(780.38 222.53) rotate(-180)"/><rect class="b1ca36cd-1fb1-4e2c-8298-e4ec3322cbcb" x="384.51" y="119.48" width="24.11" height="4.2" transform="translate(793.13 243.16) rotate(-180)"/><rect class="b5644461-ad68-4039-a765-4a7f3b6b43b9" x="355.06" y="119.48" width="24.11" height="4.2" transform="translate(734.24 243.16) rotate(-180)"/><rect class="b5644461-ad68-4039-a765-4a7f3b6b43b9" x="371.76" y="129.38" width="36.86" height="4.2" transform="translate(780.38 262.96) rotate(-180)"/><rect class="b1ca36cd-1fb1-4e2c-8298-e4ec3322cbcb" x="354.4" y="139.28" width="54.22" height="4.2" transform="translate(763.03 282.76) rotate(-180)"/><path class="a0047d3d-2ad0-478f-91c4-12d7cb81e926" d="M312.9,146.07a27.24,27.24,0,0,1-29.74-4,21.8,21.8,0,0,1,25.53-5.41A24.57,24.57,0,0,0,312.9,146.07Z"/><path class="aa56011c-200b-4bd0-8b9d-75c5d23c8969" d="M328.27,121.56a27.17,27.17,0,0,1-11.16,22,22,22,0,0,0-8.42-6.89,24.79,24.79,0,0,1,16-28.53A27.11,27.11,0,0,1,328.27,121.56Z"/><path class="e6255a16-fda9-4602-b1ca-d8665fd89584" d="M317.11,143.53a28,28,0,0,1-4.21,2.54,24.57,24.57,0,0,1-4.21-9.43A22,22,0,0,1,317.11,143.53Z"/><path class="b51d18dc-0af4-4711-a6ef-4318ab745146" d="M343.08,299.14,288,331l59.89,33.71a6.21,6.21,0,0,0,6.16,0l48-27.73a2.64,2.64,0,0,0,0-4.58Z"/><path class="b44740e6-c268-4e89-8ddb-8774a3ec3e63" d="M315.24,325l-2.38,1.35L351,347.69a1.34,1.34,0,0,0,1.33,0l.86-.47a.56.56,0,0,0,0-1Z"/><path class="b9912919-2fa0-4b91-81c5-298e12b7eb7a" d="M347.34,336.28,345,337.63l17.65,9.8a1.32,1.32,0,0,0,1.32,0l.87-.47a.56.56,0,0,0,0-1Z"/><path class="b44740e6-c268-4e89-8ddb-8774a3ec3e63" d="M309.78,328.73l-2.38,1.35,16.3,9.17a1.32,1.32,0,0,0,1.32,0l.87-.47a.57.57,0,0,0,0-1Z"/><path class="b44740e6-c268-4e89-8ddb-8774a3ec3e63" d="M320.74,321.55l-2.39,1.34L339.88,335a1.32,1.32,0,0,0,1.32,0l.87-.47a.56.56,0,0,0,0-1Z"/><path class="b44740e6-c268-4e89-8ddb-8774a3ec3e63" d="M351.3,331.63,348.92,333l3.84,2a1.34,1.34,0,0,0,1.33,0l.86-.47a.56.56,0,0,0,0-1Z"/><path class="b44740e6-c268-4e89-8ddb-8774a3ec3e63" d="M351.74,325l-2.39,1.35,13.54,7.6a1.34,1.34,0,0,0,1.33,0l.86-.47a.56.56,0,0,0,0-1Z"/><path class="b44740e6-c268-4e89-8ddb-8774a3ec3e63" d="M370.21,335.55l-2.39,1.35,6.61,3.82a1.34,1.34,0,0,0,1.33,0l.87-.47a.56.56,0,0,0,0-1Z"/><path class="b9912919-2fa0-4b91-81c5-298e12b7eb7a" d="M333.46,314.55l-2.39,1.35L343.75,323a1.32,1.32,0,0,0,1.32,0l.87-.47a.56.56,0,0,0,0-1Z"/><path class="b9912919-2fa0-4b91-81c5-298e12b7eb7a" d="M338.84,310.76l-2.39,1.35,24.09,13.48a1.34,1.34,0,0,0,1.33,0l.86-.47a.56.56,0,0,0,0-1Z"/><path class="b51d18dc-0af4-4711-a6ef-4318ab745146" d="M177.53,148.09l-54.8-31.64,96.79-54.83a6.17,6.17,0,0,1,6.14,0l47.76,27.57a2.63,2.63,0,0,1,0,4.57Z"/><path class="b44740e6-c268-4e89-8ddb-8774a3ec3e63" d="M137.84,116.8l-2.39-1.35,38.12-21.4a1.32,1.32,0,0,1,1.32,0l.87.47a.57.57,0,0,1,0,1Z"/><path class="b44740e6-c268-4e89-8ddb-8774a3ec3e63" d="M181.29,92.64l-2.38-1.34,16.26-9.2a1.32,1.32,0,0,1,1.32,0l.86.46a.58.58,0,0,1,0,1Z"/><path class="b9912919-2fa0-4b91-81c5-298e12b7eb7a" d="M170.35,105.71,168,104.37l30-17a1.32,1.32,0,0,1,1.32,0l.86.46a.57.57,0,0,1,0,1Z"/><path class="b44740e6-c268-4e89-8ddb-8774a3ec3e63" d="M205.28,85.69l-2.38-1.34,16.26-9.2a1.32,1.32,0,0,1,1.32,0l.86.47a.56.56,0,0,1,0,1Z"/><path class="b44740e6-c268-4e89-8ddb-8774a3ec3e63" d="M143.83,120.48l-2.38-1.34L162.92,107a1.35,1.35,0,0,1,1.32,0l.86.47a.56.56,0,0,1,0,1Z"/><path class="b44740e6-c268-4e89-8ddb-8774a3ec3e63" d="M149.64,123.89l-2.39-1.35,38.12-21.39a1.32,1.32,0,0,1,1.32,0l.87.47a.57.57,0,0,1,0,1Z"/><path class="b44740e6-c268-4e89-8ddb-8774a3ec3e63" d="M193,99.69l-2.38-1.34,16.26-9.19a1.3,1.3,0,0,1,1.32,0l.86.47a.57.57,0,0,1,0,1Z"/><path class="b44740e6-c268-4e89-8ddb-8774a3ec3e63" d="M174.7,117l-2.37-1.34,25.92-14.81a1.35,1.35,0,0,1,1.32,0l.86.47a.56.56,0,0,1,0,1Z"/><path class="b44740e6-c268-4e89-8ddb-8774a3ec3e63" d="M205.54,99.2l-2.38-1.35,16.26-9.19a1.35,1.35,0,0,1,1.32,0l.86.47a.57.57,0,0,1,0,1Z"/><path class="b9912919-2fa0-4b91-81c5-298e12b7eb7a" d="M156.48,127.44l-2.38-1.34L166.74,119a1.35,1.35,0,0,1,1.32,0l.86.47a.56.56,0,0,1,0,1Z"/><path class="b9912919-2fa0-4b91-81c5-298e12b7eb7a" d="M161.83,131.21l-2.38-1.34,74.21-42a1.32,1.32,0,0,1,1.32,0l.86.47a.57.57,0,0,1,0,1Z"/><path class="b44740e6-c268-4e89-8ddb-8774a3ec3e63" d="M167.69,134.73l-2.37-1.34L213.57,106a1.32,1.32,0,0,1,1.32,0l.86.47a.57.57,0,0,1,0,1Z"/><path class="b44740e6-c268-4e89-8ddb-8774a3ec3e63" d="M220.85,104.3,218.48,103l16.25-9.19a1.3,1.3,0,0,1,1.32,0l.86.47a.56.56,0,0,1,0,1Z"/><path class="b44740e6-c268-4e89-8ddb-8774a3ec3e63" d="M173.56,138.26l-2.38-1.34,19-10.74a1.35,1.35,0,0,1,1.32,0l.86.47a.56.56,0,0,1,0,1Z"/><path class="b44740e6-c268-4e89-8ddb-8774a3ec3e63" d="M197.45,124.52l-2.37-1.34,16.25-9.2a1.35,1.35,0,0,1,1.32,0l.86.47a.56.56,0,0,1,0,1Z"/><path class="b9912919-2fa0-4b91-81c5-298e12b7eb7a" d="M220.08,111.71l-2.37-1.34L234,101.18a1.3,1.3,0,0,1,1.32,0l.86.47a.56.56,0,0,1,0,1Z"/><path class="b5644461-ad68-4039-a765-4a7f3b6b43b9" d="M380.78,467.1l-84.15-48.76,94.29-54.28,84.15,48.75Zm-79.34-48.81,79.44,46,89.39-51.46-79.45-46Z"/><path class="abc5df01-6d2e-4ae4-8db9-d587f74971c2" d="M442.4,403.82c0-3.72-2.26-8-5-9.64L391,367.39a3.2,3.2,0,0,0-3.27-.28h0l-55.41,32.2,53.58,40.38L440.44,408a3,3,0,0,0,.49-.28h0A4.75,4.75,0,0,0,442.4,403.82Z"/><path class="b6b8f2cc-7e99-423d-832b-e6c321172cea" d="M385.85,439.68,440.44,408a3,3,0,0,0,.49-.28h0a4.75,4.75,0,0,0,1.47-3.9,12.38,12.38,0,0,0-1.36-5.37l-62.23,35.93Z"/><path class="b5644461-ad68-4039-a765-4a7f3b6b43b9" d="M382.36,439.54,336,412.75c-2.78-1.61-5-5.93-5-9.64h0c0-3.72,2.26-5.42,5-3.81l46.41,26.79c2.79,1.61,5.05,5.92,5.05,9.64h0C387.41,439.44,385.15,441.15,382.36,439.54Z"/><path class="b44740e6-c268-4e89-8ddb-8774a3ec3e63" d="M382.92,425.84,336.51,399a3.19,3.19,0,0,0-3.34-.23,3.45,3.45,0,0,1,2.78.49l46.41,26.79c2.79,1.61,5.05,5.92,5.05,9.64h0c0,2-.67,3.42-1.71,4,1.36-.42,2.26-2,2.26-4.31h0C388,431.76,385.71,427.45,382.92,425.84Z"/><path class="b1ca36cd-1fb1-4e2c-8298-e4ec3322cbcb" d="M375.41,430.5l-5.58-3.21a2.42,2.42,0,0,1-1-1.93h0c0-.74.45-1.08,1-.76l5.58,3.22a2.4,2.4,0,0,1,1,1.92h0C376.42,430.48,376,430.82,375.41,430.5Z"/><path class="fce1bfb1-6b80-48a9-a8a9-d5fc9bfa405e" d="M382.54,392.88c1.46-.86,1.44-2.24,0-3.07a5.87,5.87,0,0,0-5.32.06c-1.45.86-1.44,2.23,0,3.06A5.85,5.85,0,0,0,382.54,392.88Z"/><path class="aa56011c-200b-4bd0-8b9d-75c5d23c8969" d="M390.64,397.44c1.46-.86,1.44-2.24,0-3.07a5.88,5.88,0,0,0-5.31.06c-1.46.86-1.44,2.23,0,3.07A5.9,5.9,0,0,0,390.64,397.44Z"/><path class="b5644461-ad68-4039-a765-4a7f3b6b43b9" d="M398.73,402c1.46-.86,1.45-2.23,0-3.06a5.85,5.85,0,0,0-5.31.05c-1.46.86-1.45,2.24,0,3.07A5.85,5.85,0,0,0,398.73,402Z"/><path class="b5644461-ad68-4039-a765-4a7f3b6b43b9" d="M168.82,288.18s2.27,5.08-1.55,7.46S156,302.57,156,302.57l-3.54-2-.86-1.49Z"/><path class="e9802118-060f-4c8a-9efe-849815606994" d="M143.11,335s-3.06-1.54-4.94.76-4.57,7.72-4.65,11.38,2.9,3.42,4.67,2.55,7-8.38,7.27-9.85a5.1,5.1,0,0,0-.87-3.85C144.09,335.62,143.11,335,143.11,335Z"/><path class="f816b545-6c1d-429c-aebd-8b35db4111f6" d="M143.77,334.29l.15,3.17a1.78,1.78,0,0,1-.9,1.64,3.47,3.47,0,0,1-2.36.37c-2.3-.37-2.51-1-2.67-4.2S143.77,334.29,143.77,334.29Z"/><path class="e9802118-060f-4c8a-9efe-849815606994" d="M131.91,328.93s-3.06-1.54-4.94.75-4.56,7.72-4.65,11.39,2.9,3.41,4.68,2.55,6.95-8.38,7.26-9.86a5.12,5.12,0,0,0-.86-3.85C132.9,329.52,131.91,328.93,131.91,328.93Z"/><path class="f816b545-6c1d-429c-aebd-8b35db4111f6" d="M132.58,328.19l.14,3.17a1.79,1.79,0,0,1-.9,1.65,3.53,3.53,0,0,1-2.36.37c-2.3-.37-2.51-1-2.67-4.2S132.58,328.19,132.58,328.19Z"/><path class="a1d6dff2-db3a-4b97-9fc7-cb3639a33c49" d="M159.87,270c-.9-14.73-16,2.17-16,2.17l-10.3,10.09-9.28,10.19a9.13,9.13,0,0,0-2.3,7.34l3.75,28.57a2.82,2.82,0,0,0,2.82,2.44,9.43,9.43,0,0,0,1.39-.12,3.49,3.49,0,0,0,3.1-3.7l-.69-26.72,19.48-11.75S160.78,284.74,159.87,270Z"/><path class="fce1bfb1-6b80-48a9-a8a9-d5fc9bfa405e" d="M171.07,275.62c-.91-14.73-15.95,2.17-15.95,2.17l-10.3,10.09-9.28,10.19a9.16,9.16,0,0,0-2.3,7.35L137,334a2.81,2.81,0,0,0,2.82,2.44,9.43,9.43,0,0,0,1.39-.12,3.49,3.49,0,0,0,3.1-3.7l-.69-26.72,19.48-11.74S172,290.35,171.07,275.62Z"/><path class="b5644461-ad68-4039-a765-4a7f3b6b43b9" d="M162.17,228.33c11.41,4.73,11.18,11.48,11.18,11.48s-2.24,24.72-1.48,41.23c.32,6.91-36.67,7.43-31.15-11,6.5-21.72,4.06-39.29,7.11-41.95S159.22,227.11,162.17,228.33Z"/><path class="a75378b8-a963-442b-99be-abc61f473d1a" d="M165.84,234.31c-.6,2.32-3.63,3.54-6.78,2.73s-5.22-3.35-4.62-5.66,3.63-3.54,6.78-2.73S166.43,232,165.84,234.31Z"/><path class="b44740e6-c268-4e89-8ddb-8774a3ec3e63" d="M161,237.84a8.38,8.38,0,0,1-2.09-.27,7.61,7.61,0,0,1-4-2.45,4.39,4.39,0,0,1-1-3.88c.67-2.6,4-4,7.45-3.12a7.61,7.61,0,0,1,4,2.45,4.13,4.13,0,0,1-1.75,6.78A7,7,0,0,1,161,237.84Zm-1.74-8.9c-2.12,0-3.89,1-4.3,2.57a3.32,3.32,0,0,0,.8,2.92,6.45,6.45,0,0,0,3.43,2.08,6.52,6.52,0,0,0,4-.17,3.28,3.28,0,0,0,2.11-2.16h0a3.32,3.32,0,0,0-.8-2.92,6.49,6.49,0,0,0-3.43-2.08A7.21,7.21,0,0,0,159.27,228.94Z"/><path class="a75378b8-a963-442b-99be-abc61f473d1a" d="M157.59,227.82a27.7,27.7,0,0,1-.1,4.07c-.06,1.14,3.92,2.2,4.95,1.17s.62-2.1.86-6S157.59,227.82,157.59,227.82Z"/><path class="be536be2-3b78-4e79-a849-ddcfced580ec" d="M163.3,227.09s-1,3.59-5.81,5l.08-3.26Z"/><circle class="a75378b8-a963-442b-99be-abc61f473d1a" cx="157.86" cy="220.18" r="8.78" transform="translate(-83.9 97.9) rotate(-27.53)"/><path class="be536be2-3b78-4e79-a849-ddcfced580ec" d="M159.88,220.5s-4.84,2.07-8.18,2.1-2.61-2.78-2.61-2.78l9.93-1.44Z"/><path class="e9802118-060f-4c8a-9efe-849815606994" d="M150.7,221.05s4.21-1.79,7.9-1a3.89,3.89,0,0,1,2.24,1.32,1.28,1.28,0,0,0,.67.49c.66.15,1.73-2.57,3-2.63s2.13.84,1.08,2.51-.69,3.54-.21,3.81,5.58-3.63,1.08-12.54-15.91-4.11-17.69-2.3c0,0-1.87,1.63-3.39.18C145.38,210.85,143.68,223.62,150.7,221.05Z"/><path class="a75378b8-a963-442b-99be-abc61f473d1a" d="M167,257.87v6.68a2.72,2.72,0,0,1-.89,2l-13.73,12.51,1.56,2.39L172,269.59a3.7,3.7,0,0,0,1.5-2.6l1.22-12.92Z"/><path class="b5644461-ad68-4039-a765-4a7f3b6b43b9" d="M172.38,236.47s4.16,6.26,5.72,22.74c0,0-7.12,2.3-11.15,1S172.38,236.47,172.38,236.47Z"/><path class="bdf80e53-01ba-4952-8801-d73ab53f27b1" d="M166.19,244.38a117.64,117.64,0,0,0-1.73,12.83,2.62,2.62,0,0,0,1.73,2.52h0Z"/><path class="eb3954be-76ec-4f3e-87fa-a179f3030e76" d="M162.63,287.76l-3-.4L140,276.06a2.7,2.7,0,0,0-2.45.1l-13.87,8-1.84-.24v1.83h0a.69.69,0,0,0,.42.64l22.19,12.81a2.7,2.7,0,0,0,2.45-.1L162,290.38a1,1,0,0,0,.6-.82h0Z"/><path class="bd8feb78-e4dd-4229-b4f8-605f15bbf213" d="M147.91,280.62l-1.39-.81H131.23l-7.54,4.35-1.84-.24v1.83h0a.69.69,0,0,0,.42.64l22.19,12.81a2.3,2.3,0,0,0,1.26.24Z"/><path class="ee2139ff-457f-486b-9aa5-1aa2b9907c21" d="M122.67,284l-.82-.11v1.83h0a.69.69,0,0,0,.42.64l.39.23Z"/><path class="b6bb2252-d369-4c53-8f93-d2241de7d259" d="M144.69,299.31a2.9,2.9,0,0,0,2.08-.13v-3.11h-2.08Z"/><path class="b44740e6-c268-4e89-8ddb-8774a3ec3e63" d="M144.47,297.38l-22.19-12.81c-.63-.37-.55-1,.17-1.42l15.11-8.72a2.73,2.73,0,0,1,2.45-.1l22.19,12.81c.63.36.55,1-.17,1.42l-15.11,8.72A2.73,2.73,0,0,1,144.47,297.38Z"/><path class="ba0acc9c-2839-4eed-bfd6-6cc5fbf22e42" d="M144.09,295.44l-18.45-10.66c-.52-.3-.46-.82.15-1.17l8.09-4.55a2.27,2.27,0,0,1,2-.09l18.45,10.65c.52.3.46.83-.14,1.18l-8.1,4.55A2.27,2.27,0,0,1,144.09,295.44Z"/><path class="a75378b8-a963-442b-99be-abc61f473d1a" d="M138.42,274l-.23,1.53a11.52,11.52,0,0,0,.1,3.93l.27,1.35a1.91,1.91,0,0,0,1.53,1.49h0a1,1,0,0,0,1.22-.91l.37-3.28s.84,1.1,1.24,1.1-.45-3.28-1.37-5.13S138.42,274,138.42,274Z"/><path class="a75378b8-a963-442b-99be-abc61f473d1a" d="M145.94,249.68l-2.38,4.71a9.27,9.27,0,0,0-1,3.58l-1,16.12-3.13-.08L137,255.91a6.67,6.67,0,0,1,.08-1.67l1.62-9.18Z"/><path class="eb3954be-76ec-4f3e-87fa-a179f3030e76" d="M143.72,298.61l-1.86-2.43-19.57-11.33a2.71,2.71,0,0,1-1.14-2.17l0-16-1.12-1.47,1-.61h0a.7.7,0,0,1,.76,0l22.18,12.84a2.76,2.76,0,0,1,1.13,2.18l0,17.44a1,1,0,0,1-.41.93h0Z"/><path class="bd8feb78-e4dd-4229-b4f8-605f15bbf213" d="M130.18,289.42l-1.39-.8-7.63-13.26v-8.7l-1.12-1.47,1-.61h0a.7.7,0,0,1,.76,0l22.18,12.84a2.26,2.26,0,0,1,.83,1Z"/><path class="ee2139ff-457f-486b-9aa5-1aa2b9907c21" d="M120.55,265.84l-.5-.65,1-.61h0a.7.7,0,0,1,.76,0l.39.23Z"/><path class="b6bb2252-d369-4c53-8f93-d2241de7d259" d="M144.25,277.6a2.87,2.87,0,0,1,.92,1.87L143,280.72l-1-1.8Z"/><path class="b44740e6-c268-4e89-8ddb-8774a3ec3e63" d="M143,278.07l-22.17-12.83c-.63-.37-1.14,0-1.14.85l0,17.45a2.73,2.73,0,0,0,1.13,2.17L143,298.55c.63.36,1.14,0,1.14-.86V280.25A2.71,2.71,0,0,0,143,278.07Z"/><path class="a75378b8-a963-442b-99be-abc61f473d1a" d="M153.89,281.46l-.35.73a4.91,4.91,0,0,1-1.85,2.06l-2.21,1.36a2.21,2.21,0,0,1-2.25.05l-.07-.05a1.32,1.32,0,0,1-.19-2l2.3-2.37s-1.29,1-1.65.59,1.25-1.72,2.42-1.76a4.57,4.57,0,0,0,2.29-1Z"/><path class="b5644461-ad68-4039-a765-4a7f3b6b43b9" d="M148.06,228.08s-8.44,9.18-11.84,17.6a17.2,17.2,0,0,0,9.94,7.24C153.23,255,148.06,228.08,148.06,228.08Z"/><path class="bdf80e53-01ba-4952-8801-d73ab53f27b1" d="M144.58,252.38l1.36-13.21-3.22,12.37A18.89,18.89,0,0,0,144.58,252.38Z"/></svg>