<svg id="a7fe4ea9-fc9e-4520-a1c3-3219d349853e" data-name="Layer 1" xmlns="http://www.w3.org/2000/svg" viewBox="0 0 150 150"><defs><style>.f7500f6d-90fe-4d05-a24d-009e8d27cc35{fill:#e6e7e8;}.a4fd5ea9-da3e-42ce-bfc3-864ab3f0b5ea{fill:#3dba85;}.ba86082b-d9ba-446a-8032-3f8863d154eb{fill:#fff;}.f0ac62eb-7ad6-41b8-8861-2a2a5b3e2308{fill:#ffb213;}.bcaf5d6b-b8e5-4d64-ab33-aa2a6dd5f23a{fill:#35a070;}.e0f3a082-bcc5-4e02-a408-d130c3e99a64{fill:#ea9d13;}</style></defs><title>main Page up Icons</title><path class="f7500f6d-90fe-4d05-a24d-009e8d27cc35" d="M129.07,91.29l-4.83,11.63,8.61,16.91,1.14,2.23L122.05,134l-19.59-9.26-11.63,4.78L84.92,147.6l-.75,2.4H67.29L60,129.6l-11.64-4.8-16.94,8.6-2.23,1.11L17.25,122.58,26.49,103,21.7,91.36l-18-5.89-2.39-.78V67.82l20.41-7.31,4.8-11.61L17.88,32l-1.13-2.23L28.67,17.8,48.29,27l11.61-4.8L65.8,4.18l.76-2.4H83.43l7.31,20.43,11.6,4.8,17-8.6,2.25-1.13L133.47,29.2l-9.24,19.59L129,60.42l18.09,5.9,2.38.76V84Z"/><polygon class="a4fd5ea9-da3e-42ce-bfc3-864ab3f0b5ea" points="74.29 110.03 59.59 148.52 42.85 148.52 58.57 107.59 74.29 110.03"/><polygon class="a4fd5ea9-da3e-42ce-bfc3-864ab3f0b5ea" points="78.06 110.03 92.76 148.52 109.49 148.52 93.78 107.59 78.06 110.03"/><path class="ba86082b-d9ba-446a-8032-3f8863d154eb" d="M88.49,46.37h0a13.88,13.88,0,0,0,13.12,10h0c13.37,0,18.93,17.91,8.11,26.13h0a14.84,14.84,0,0,0-5,16.15h0c4.13,13.31-10.42,24.38-21.23,16.15h0a13.3,13.3,0,0,0-16.22,0h0C56.45,123,41.9,111.94,46,98.63h0a14.85,14.85,0,0,0-5-16.15h0c-10.81-8.22-5.25-26.13,8.11-26.13h0a13.88,13.88,0,0,0,13.12-10h0A13.61,13.61,0,0,1,88.49,46.37Z"/><path class="f0ac62eb-7ad6-41b8-8861-2a2a5b3e2308" d="M86.54,52.08h0A11.75,11.75,0,0,0,97.72,60.2h0c11.38,0,16.12,14.57,6.91,21.26h0a11.76,11.76,0,0,0-4.27,13.14h0c3.52,10.82-8.87,19.83-18.08,13.13h0a11.77,11.77,0,0,0-13.82,0h0c-9.21,6.7-21.6-2.31-18.08-13.13h0a11.76,11.76,0,0,0-4.27-13.14h0C36.9,74.77,41.64,60.2,53,60.2h0a11.73,11.73,0,0,0,11.17-8.12h0C67.71,41.26,83,41.26,86.54,52.08Z"/><polygon class="bcaf5d6b-b8e5-4d64-ab33-aa2a6dd5f23a" points="59.59 148.52 42.85 148.52 44.84 143.12 61.58 143.12 59.59 148.52"/><polygon class="bcaf5d6b-b8e5-4d64-ab33-aa2a6dd5f23a" points="92.76 148.52 109.49 148.52 107.5 143.12 90.77 143.12 92.76 148.52"/><circle class="e0f3a082-bcc5-4e02-a408-d130c3e99a64" cx="75.37" cy="78.69" r="14.95"/></svg>