<svg id="fd4639e0-bf94-423a-bc6d-f3f32a2abe72" data-name="Layer 1" xmlns="http://www.w3.org/2000/svg" viewBox="0 0 50 50"><defs><style>.b57fbfb1-7762-48c9-b5eb-494d677fb2d1{opacity:0.3;}.b451d9ef-84d1-466b-b09d-de39ea2de3b1{fill:#0562e8;}.a286c469-e178-4de8-91af-261296829f21,.f84e2f44-9289-4c9d-9316-2cbfb35caefb{fill:none;stroke:#0562e8;stroke-miterlimit:10;}.a286c469-e178-4de8-91af-261296829f21{stroke-linecap:round;}</style></defs><title>Talk-to-Experts-Icon</title><g class="b57fbfb1-7762-48c9-b5eb-494d677fb2d1"><path id="ee1b3c38-371d-45ff-b0f2-525c8bdc9223" data-name="fde072ba-5952-448d-804c-4b737b076f94" class="b451d9ef-84d1-466b-b09d-de39ea2de3b1" d="M48.06,25A23.06,23.06,0,1,1,25,1.94,23.05,23.05,0,0,1,48.06,25Z"/></g><path class="f84e2f44-9289-4c9d-9316-2cbfb35caefb" d="M20.76,22.47c-.63,0-1.22-.08-1.8-.14s-1.26-.14-1.85-.22c-.79-.11-1.52-.24-2.19-.38-.5-.1-1-.22-1.38-.34s-.55-.16-.79-.24h0l-.52-.2a6.6,6.6,0,0,1-.84-.41l-.31-.22a1.06,1.06,0,0,1-.46-.77c0-1.14,2.94-2.14,7.32-2.67A18,18,0,0,0,20.76,22.47Z"/><path class="f84e2f44-9289-4c9d-9316-2cbfb35caefb" d="M40.1,19.55a1.06,1.06,0,0,1-.46.77l-.31.22a6.6,6.6,0,0,1-.84.41l-.52.2h0c-.24.08-.5.17-.79.24s-.88.24-1.38.34c-.67.14-1.4.27-2.19.38-.59.08-1.21.16-1.85.22-.46.05-.94.09-1.42.12a17.86,17.86,0,0,0,2.79-5.52C37.31,17.47,40.1,18.44,40.1,19.55Z"/><path class="f84e2f44-9289-4c9d-9316-2cbfb35caefb" d="M40.1,19.55v7.37c0,.8-1.43,1.53-3.78,2.07h0a31.68,31.68,0,0,1-3.76.62c-.47.06-.94.12-1.42.15-1.76.16-3.7.25-5.74.25s-4-.09-5.75-.25c-.47,0-.95-.09-1.43-.15A33.39,33.39,0,0,1,14.47,29l-.09,0c-2.35-.55-3.77-1.27-3.77-2.07V19.55a1.06,1.06,0,0,0,.46.77l.31.22a5.48,5.48,0,0,0,.84.41l.52.2h0a7.39,7.39,0,0,0,.79.24c.42.12.88.24,1.38.34.67.14,1.4.27,2.19.38.59.08,1.21.16,1.85.22s1.17.11,1.8.14a12.92,12.92,0,0,0,4.31,3.7,4.23,4.23,0,0,0,.47.25l.47-.25a13.13,13.13,0,0,0,4.32-3.72c.48,0,1-.07,1.42-.12.64-.06,1.26-.14,1.85-.22.79-.11,1.52-.24,2.19-.38.5-.1,1-.22,1.38-.34a6.75,6.75,0,0,0,.79-.24h0l.52-.2a5.48,5.48,0,0,0,.84-.41l.31-.22A1.06,1.06,0,0,0,40.1,19.55Z"/><path class="f84e2f44-9289-4c9d-9316-2cbfb35caefb" d="M16.25,25.51a59.21,59.21,0,0,0,8.82.66"/><path class="f84e2f44-9289-4c9d-9316-2cbfb35caefb" d="M34.76,25.47a56.94,56.94,0,0,1-8.75.7"/><path class="f84e2f44-9289-4c9d-9316-2cbfb35caefb" d="M34.76,37a57,57,0,0,1-9.41.71,57.79,57.79,0,0,1-9.1-.66"/><path class="f84e2f44-9289-4c9d-9316-2cbfb35caefb" d="M40.1,31.06c0,1.71-6.59,3.09-14.75,3.09s-14.74-1.38-14.74-3.09c0-.79,1.43-1.52,3.76-2.07a51.33,51.33,0,0,0,11,1,51.08,51.08,0,0,0,11-1C38.67,29.54,40.1,30.27,40.1,31.06Z"/><path class="f84e2f44-9289-4c9d-9316-2cbfb35caefb" d="M40.1,31.06v7.38c0,1.7-6.59,3.09-14.75,3.09s-14.74-1.39-14.74-3.09V31.06c0,1.71,6.59,3.09,14.74,3.09S40.1,32.77,40.1,31.06Z"/><path class="f84e2f44-9289-4c9d-9316-2cbfb35caefb" d="M33.12,16.93a17.86,17.86,0,0,1-2.79,5.52A13.13,13.13,0,0,1,26,26.17l-.47.25a4.23,4.23,0,0,1-.47-.25,12.92,12.92,0,0,1-4.31-3.7,18,18,0,0,1-2.83-5.59,24.59,24.59,0,0,1-1.12-6.83c4.4,0,8.73-5.25,8.73-5.25s4.31,5.25,8.71,5.25A24.76,24.76,0,0,1,33.12,16.93Z"/><polyline class="a286c469-e178-4de8-91af-261296829f21" points="21.3 16.59 23.97 19.05 30.96 12.79"/></svg>