<svg id="b68fd7fe-12bc-49ab-97c2-a1c3c9a2f334" data-name="Layer 1" xmlns="http://www.w3.org/2000/svg" viewBox="0 0 50 50"><defs><style>.a1d172df-55e4-446e-86fe-f1c5853d278b{opacity:0.3;}.a0859a09-a1fb-4e4e-b76b-1b1c543f40ae{fill:#3dba85;}.f28a08f3-f20e-4085-bce6-8babd5c9c596{fill:none;stroke:#3dba85;stroke-linecap:round;stroke-miterlimit:10;}</style></defs><title>Cloud Managed Services Mid Icons</title><g class="a1d172df-55e4-446e-86fe-f1c5853d278b"><path id="a1c198b5-611a-4298-91eb-b8d578b90c16" data-name="d1s64V5T7s" class="a0859a09-a1fb-4e4e-b76b-1b1c543f40ae" d="M48.06,25A23.06,23.06,0,1,1,25,1.94,23.07,23.07,0,0,1,48.06,25Z"/></g><ellipse class="f28a08f3-f20e-4085-bce6-8babd5c9c596" cx="25" cy="28.9" rx="15.67" ry="3.28"/><path class="f28a08f3-f20e-4085-bce6-8babd5c9c596" d="M40.67,28.9v7.84c0,1.82-7,3.28-15.67,3.28S9.33,38.56,9.33,36.74V28.9c0,1.81,7,3.28,15.67,3.28S40.67,30.71,40.67,28.9Z"/><path class="f28a08f3-f20e-4085-bce6-8babd5c9c596" d="M35,35.19a61.66,61.66,0,0,1-10,.74,61.29,61.29,0,0,1-9.68-.7"/><path class="a0859a09-a1fb-4e4e-b76b-1b1c543f40ae" d="M25.14,13.73A5.28,5.28,0,1,0,30.4,19,5.27,5.27,0,0,0,25.14,13.73Zm8,7.56L32.4,23l1.27,2.51.17.33-1.77,1.77-2.91-1.37L27.44,27l-.88,2.68-.11.36H23.94l-1.08-3-1.73-.71-2.51,1.27-.33.17-1.78-1.77L17.89,23l-.72-1.73-2.67-.87-.36-.12v-2.5l3-1.09L17.88,15l-1.27-2.51-.17-.33,1.77-1.77,2.91,1.37L22.85,11l.87-2.68L23.83,8h2.51l1.08,3,1.73.71,2.51-1.27.33-.17,1.78,1.77L32.39,15l.71,1.72,2.69.88.35.11v2.5Z"/></svg>