<svg id="edf4baab-2e50-4dd0-883a-4d8bb93a38d1" data-name="Layer 1" xmlns="http://www.w3.org/2000/svg" viewBox="0 0 150 150"><defs><style>.af619cb1-c5a3-4e98-80ce-7bedd32fba35{fill:#e6e7e8;}.f59932cc-9bfd-47d6-997d-927b1849fa96{fill:#bbbdbf;}.bded796d-255e-4d30-a342-fd4a3f9cf9fa{fill:#3dba85;}.bd96a784-86f0-41da-a0af-32c89edc8aff{fill:#ffb213;}.f2153cae-15b4-452e-ad86-0ac963ebd812{fill:#4285f4;}.ba6c126e-c0bb-4c98-a8ce-fbaa4a5a7831{fill:#fff;}</style></defs><title>main Page up Icons</title><circle class="af619cb1-c5a3-4e98-80ce-7bedd32fba35" cx="74.28" cy="101.34" r="46.07"/><path class="f59932cc-9bfd-47d6-997d-927b1849fa96" d="M28.22,101.33A46,46,0,0,1,74.28,55.27V147.4A46.06,46.06,0,0,1,28.22,101.33Z"/><path class="bded796d-255e-4d30-a342-fd4a3f9cf9fa" d="M74.28,2.6A21.67,21.67,0,0,0,58.64,39.26c4,4.11,15.64,16,15.64,16s12.88-12.49,16.84-17.4A21.65,21.65,0,0,0,74.28,2.6Z"/><path class="bd96a784-86f0-41da-a0af-32c89edc8aff" d="M82.62,77.17A12.54,12.54,0,0,0,95.09,89.71h41.12a12.49,12.49,0,0,0,4.17-24.26c0-.2,0-.41,0-.61a8.39,8.39,0,0,0-12.92-7.07,18.35,18.35,0,0,0-34.35,7A12.54,12.54,0,0,0,82.62,77.17Z"/><rect class="af619cb1-c5a3-4e98-80ce-7bedd32fba35" x="1.33" y="109.02" width="66.2" height="29.98" rx="14.99" transform="translate(68.85 248.02) rotate(-180)"/><circle class="f2153cae-15b4-452e-ad86-0ac963ebd812" cx="52.27" cy="124.01" r="8.18"/><rect class="f59932cc-9bfd-47d6-997d-927b1849fa96" x="4.54" y="121.04" width="32.76" height="6.51" rx="3.26"/><circle class="af619cb1-c5a3-4e98-80ce-7bedd32fba35" cx="29.23" cy="66.55" r="10.8"/><circle class="f59932cc-9bfd-47d6-997d-927b1849fa96" cx="119.05" cy="129.79" r="7.02"/><circle class="ba6c126e-c0bb-4c98-a8ce-fbaa4a5a7831" cx="63.13" cy="23.37" r="4.46"/><circle class="ba6c126e-c0bb-4c98-a8ce-fbaa4a5a7831" cx="74.33" cy="23.37" r="4.46"/><circle class="ba6c126e-c0bb-4c98-a8ce-fbaa4a5a7831" cx="85.52" cy="23.37" r="4.46"/></svg>