<svg id="b18fce44-466a-44a1-ba60-bc2a747b3666" data-name="Layer 1" xmlns="http://www.w3.org/2000/svg" viewBox="0 0 50 50"><defs><style>.aa01583d-69e6-4985-8528-6ed83e83e05a{opacity:0.3;}.b3fcbe1d-71a2-4e21-b53b-08b2c260b881{fill:#0562e8;}</style></defs><title>Cloud Managed Services Mid Icons</title><g class="aa01583d-69e6-4985-8528-6ed83e83e05a"><path id="fde072ba-5952-448d-804c-4b737b076f94" data-name="d1s64V5T7s" class="b3fcbe1d-71a2-4e21-b53b-08b2c260b881" d="M48.06,25A23.06,23.06,0,1,1,25,1.94,23.07,23.07,0,0,1,48.06,25Z"/></g><path class="b3fcbe1d-71a2-4e21-b53b-08b2c260b881" d="M24.27,11.89a13.13,13.13,0,0,0-.2-1.77,2.81,2.81,0,0,1,0-1,1,1,0,0,1,1.27-.81,1,1,0,0,1,.66.84,3.71,3.71,0,0,1,0,.88,10.91,10.91,0,0,0-.21,2.13.66.66,0,0,0,.18.47.47.47,0,0,1,.17.42c0,.14.06.17.19.18a12.67,12.67,0,0,1,7.62,3.61A.3.3,0,0,0,34,17a.17.17,0,0,0,.3,0,.45.45,0,0,1,.39-.11.82.82,0,0,0,.64-.24,13.71,13.71,0,0,0,1.33-1.31,3.29,3.29,0,0,1,.58-.54,1.19,1.19,0,0,1,.78-.28.93.93,0,0,1,.84,1.29,1.17,1.17,0,0,1-.35.5,4.08,4.08,0,0,1-.7.47,12,12,0,0,0-1.59,1,.78.78,0,0,0-.36.61.45.45,0,0,1-.18.28c-.15.14-.15.14,0,.32a12.58,12.58,0,0,1,2,6.23,13.46,13.46,0,0,1-.07,2,1,1,0,0,1,0,.17.12.12,0,0,0,.12.15.6.6,0,0,1,.43.29.49.49,0,0,0,.35.22,8.16,8.16,0,0,0,1.31.23c.41,0,.82,0,1.24.11a1.69,1.69,0,0,1,.61.2A1,1,0,0,1,42,29.81a1,1,0,0,1-1.11.64,3.72,3.72,0,0,1-.79-.22,12.49,12.49,0,0,0-1.81-.63.91.91,0,0,0-.86.1.29.29,0,0,1-.27,0c-.16,0-.21,0-.26.16a11.92,11.92,0,0,1-.65,1.56,12.62,12.62,0,0,1-4.63,5.09c-.2.13-.21.13-.12.36a.44.44,0,0,1,0,.3.76.76,0,0,0,0,.61,9.28,9.28,0,0,0,.87,1.45A8.09,8.09,0,0,1,33,40a1.47,1.47,0,0,1,.17.74.87.87,0,0,1-.59.84,1,1,0,0,1-1.07-.24,1.57,1.57,0,0,1-.36-.61l-.39-1.21a9,9,0,0,0-.45-1.12.72.72,0,0,0-.42-.4.43.43,0,0,1-.3-.27c-.05-.14-.14-.15-.27-.1a11.92,11.92,0,0,1-2.3.58,12.63,12.63,0,0,1-3,.11,12.19,12.19,0,0,1-3.22-.7c-.16-.06-.23,0-.28.12a.47.47,0,0,1-.33.28.71.71,0,0,0-.4.38,11.09,11.09,0,0,0-.68,1.85,3.16,3.16,0,0,1-.37.89,1.07,1.07,0,0,1-.66.5,1,1,0,0,1-1.15-1.15,2.1,2.1,0,0,1,.36-.79l.6-.89a8.12,8.12,0,0,0,.58-1,.71.71,0,0,0,0-.57.46.46,0,0,1,0-.38c.11-.23.07-.23-.12-.35a12.78,12.78,0,0,1-4.1-4.11A12.6,12.6,0,0,1,13.12,30c-.1-.29-.1-.3-.41-.25a.31.31,0,0,1-.26-.07.84.84,0,0,0-.68-.08,13.15,13.15,0,0,0-1.92.65,2.4,2.4,0,0,1-1,.22,1,1,0,0,1-.92-1.06,1,1,0,0,1,.58-.79,2.34,2.34,0,0,1,.82-.19A15.56,15.56,0,0,0,11,28.26l.5-.1a.69.69,0,0,0,.56-.38c.06-.13.19-.15.31-.17s.17-.1.16-.24-.06-.51-.07-.76A12.48,12.48,0,0,1,14.35,19c.11-.18.11-.19,0-.33a.38.38,0,0,1-.15-.29.73.73,0,0,0-.33-.56,11.19,11.19,0,0,0-1.36-.92c-.25-.14-.5-.27-.73-.43a2,2,0,0,1-.47-.45,1,1,0,0,1,0-1.14.94.94,0,0,1,1-.33A1.48,1.48,0,0,1,13,15l.86.9a7.26,7.26,0,0,0,.92.83.69.69,0,0,0,.55.16.37.37,0,0,1,.29.08c.19.13.2.13.36,0a12.1,12.1,0,0,1,2.19-1.78,12.49,12.49,0,0,1,5.17-1.86h.09c.27,0,.51-.05.47-.41,0-.05,0-.09.07-.12a.8.8,0,0,0,.27-.74A.66.66,0,0,1,24.27,11.89ZM18,18.61c0,.1.12.13.19.18l2.1,1.49,1.82,1.28a.85.85,0,0,0,1.37-.7c0-.81.08-1.62.13-2.43s.09-1.54.14-2.31c0-.28,0-.29-.27-.25h-.06a10.21,10.21,0,0,0-4.5,1.92A6.57,6.57,0,0,0,18,18.61Zm17,8.16a10.16,10.16,0,0,0-1.45-6.21l-.15.14-2.72,2.43c-.31.28-.63.54-.93.83A.83.83,0,0,0,30,25.35l.28.11,4.51,1.3A.32.32,0,0,0,35,26.77Zm-20,0a.52.52,0,0,0,.33,0l3.28-.95,1.28-.37a.79.79,0,0,0,.59-.59.8.8,0,0,0-.28-.86c-1-.92-2.08-1.86-3.12-2.79l-.68-.6A10.21,10.21,0,0,0,15,26.78Zm15.47,7.48.26-.17a10.22,10.22,0,0,0,3.67-4.66c.06-.17,0-.18-.11-.21l-.84-.14-4.09-.69a.74.74,0,0,0-.62.18.82.82,0,0,0-.23,1c.42,1,.83,2,1.24,3C30,33.11,30.21,33.67,30.46,34.26ZM32,18.6l0-.05-.1-.1A10.27,10.27,0,0,0,27.32,16c-.27-.06-.55-.12-.83-.16s-.24,0-.24.2c0,.06,0,.11,0,.17l.09,1.58L26.53,21a.75.75,0,0,0,.2.48.82.82,0,0,0,1.13.11l4-2.81C31.87,18.7,31.94,18.67,32,18.6ZM19.54,34.22a.33.33,0,0,0,.12-.2l1.74-4.2a3,3,0,0,0,.12-.32.82.82,0,0,0-.95-1.08l-2.9.48-1.89.32c-.2,0-.2,0-.13.24l0,.08a10,10,0,0,0,2.44,3.56A9.58,9.58,0,0,0,19.54,34.22Zm8.66,1.13-.11-.21-1.5-2.72-.86-1.53a.76.76,0,0,0-.62-.43.79.79,0,0,0-.84.44l-2.35,4.25-.09.18A10.13,10.13,0,0,0,28.2,35.35Zm-1.48-9.91s0-.1-.09-.16l-.78-1a.3.3,0,0,0-.26-.12H24.4a.3.3,0,0,0-.26.12c-.26.34-.53.67-.8,1a.23.23,0,0,0-.06.2l.3,1.29a.25.25,0,0,0,.13.17l1.13.53a.33.33,0,0,0,.32,0l.59-.28a2,2,0,0,0,.61-.33c.16-.16.13-.44.19-.66s.09-.39.14-.58S26.71,25.54,26.72,25.44Z"/></svg>