<svg id="a6f407af-538d-48c5-9b46-ee18be7ced6b" data-name="Layer 1" xmlns="http://www.w3.org/2000/svg" xmlns:xlink="http://www.w3.org/1999/xlink" viewBox="0 0 50 50"><defs><style>.afb004b7-48fc-43f3-8845-2f2c7b29c5a9,.fd2e359e-1dbf-4608-b551-06cafb1339d5{fill:none;}.a39a7684-3bcf-4a90-8f8f-ca0e2817832f{opacity:0.3;}.a682fa34-6974-4426-9fda-3b5647fb64f9{fill:#3dba85;}.f1e1c40e-9460-4d3a-97cc-8b82945219c2{clip-path:url(#ad6fafd4-c2b2-4c53-a1b7-76a204b10885);}.afb004b7-48fc-43f3-8845-2f2c7b29c5a9{stroke:#3dba85;stroke-linecap:round;stroke-miterlimit:10;}</style><clipPath id="ad6fafd4-c2b2-4c53-a1b7-76a204b10885"><path id="b2ac461e-87cd-4b86-b07c-4f164c823dcb" data-name="a1c198b5-611a-4298-91eb-b8d578b90c16" class="fd2e359e-1dbf-4608-b551-06cafb1339d5" d="M48.06,25A23.06,23.06,0,1,1,25,1.94,23.05,23.05,0,0,1,48.06,25Z"/></clipPath></defs><title>Talk-to-Experts-Icon</title><g class="a39a7684-3bcf-4a90-8f8f-ca0e2817832f"><path id="f113b0bf-ffa1-41d0-917b-cd6b1685ae17" data-name="a1c198b5-611a-4298-91eb-b8d578b90c16" class="a682fa34-6974-4426-9fda-3b5647fb64f9" d="M48.06,25A23.06,23.06,0,1,1,25,1.94,23.05,23.05,0,0,1,48.06,25Z"/></g><g class="f1e1c40e-9460-4d3a-97cc-8b82945219c2"><polyline class="afb004b7-48fc-43f3-8845-2f2c7b29c5a9" points="40.06 26.07 40.06 49.07 10.51 49.07 10.51 15.32 30.4 15.32"/><path class="a682fa34-6974-4426-9fda-3b5647fb64f9" d="M40.5,23.78h0l-.86,0-.64.58a1.09,1.09,0,0,1-.73.28,1.15,1.15,0,0,1-.41-.08L37,24.2l-.8.33a1.15,1.15,0,0,1-.41.08,1.09,1.09,0,0,1-.73-.28l-.64-.58-.86,0h0a1.08,1.08,0,0,1-1-.58l-.4-.76h0v6.74a.54.54,0,0,0,.78.48l3.85-1.93a.53.53,0,0,1,.49,0l3.84,1.93a.54.54,0,0,0,.79-.48V22.43h0l-.41.77A1.07,1.07,0,0,1,40.5,23.78Z"/><path class="a682fa34-6974-4426-9fda-3b5647fb64f9" d="M44.44,17a.5.5,0,0,0,0-.57L44,15.64a.56.56,0,0,1-.08-.4l.19-.84a.57.57,0,0,0-.2-.55l-.68-.53A.53.53,0,0,1,43,13l-.12-.86a.54.54,0,0,0-.37-.44l-.82-.26a.55.55,0,0,1-.31-.27l-.4-.76a.56.56,0,0,0-.49-.29h0l-.86,0h0a.54.54,0,0,1-.36-.14L38.6,9.4a.55.55,0,0,0-.37-.14.45.45,0,0,0-.2,0l-.8.33a.79.79,0,0,1-.2,0,.52.52,0,0,1-.21,0L36,9.3a.71.71,0,0,0-.2,0,.55.55,0,0,0-.37.14l-.64.58a.54.54,0,0,1-.36.14h0l-.86,0h0a.54.54,0,0,0-.48.29l-.41.76a.55.55,0,0,1-.31.27l-.82.26a.54.54,0,0,0-.37.44L31,13a.53.53,0,0,1-.21.35l-.69.53a.54.54,0,0,0-.19.55l.18.84a.56.56,0,0,1-.07.4l-.46.74a.53.53,0,0,0,0,.57l.46.73a.58.58,0,0,1,.07.41l-.18.84a.54.54,0,0,0,.19.55l.68.52a.54.54,0,0,1,.21.36l.12.85a.56.56,0,0,0,.37.45l.62.2.2.06a.57.57,0,0,1,.32.27l.4.76a.54.54,0,0,0,.48.29h0l.86,0h0a.55.55,0,0,1,.37.14l.64.58a.54.54,0,0,0,.36.14A.52.52,0,0,0,36,24l.79-.33a.78.78,0,0,1,.21,0,.45.45,0,0,1,.2,0L38,24a.78.78,0,0,0,.21,0,.54.54,0,0,0,.36-.14l.64-.58a.55.55,0,0,1,.37-.14h0l.86,0h0A.54.54,0,0,0,41,23l.4-.76a.58.58,0,0,1,.31-.27l.2-.06.63-.2a.56.56,0,0,0,.37-.45l.12-.85a.57.57,0,0,1,.2-.36l.68-.52a.53.53,0,0,0,.2-.55l-.18-.84a.58.58,0,0,1,.07-.41Zm-2.16,1.94a5.46,5.46,0,0,1-1.22,1.81,5.59,5.59,0,0,1-1.81,1.23,5.87,5.87,0,0,1-2.23.44,5.63,5.63,0,0,1-4-1.67,6.12,6.12,0,0,1-.84-1.06,6.59,6.59,0,0,1-.38-.75,5.72,5.72,0,0,1,3-7.49A5.79,5.79,0,0,1,37,11a5.88,5.88,0,0,1,2.23.45,5.59,5.59,0,0,1,1.81,1.23,5.41,5.41,0,0,1,1.22,1.81,5.73,5.73,0,0,1,0,4.45Z"/><path class="a682fa34-6974-4426-9fda-3b5647fb64f9" d="M37,11.61A5.06,5.06,0,0,0,32,16.66,5.29,5.29,0,0,0,32.14,18a5.06,5.06,0,0,0,9.76,0,4.87,4.87,0,0,0,.18-1.34A5.06,5.06,0,0,0,37,11.61Zm3.16,4.62-.12.11-1.14,1L39.27,19a.54.54,0,0,1-.8.58L37,18.77l-1.45.82a.54.54,0,0,1-.8-.58l.34-1.64-1.13-1-.13-.11a.55.55,0,0,1,.3-1l1.65-.2.72-1.54a.55.55,0,0,1,1,0l.72,1.54,1.87.26A.59.59,0,0,1,40.18,16.23Z"/><line class="afb004b7-48fc-43f3-8845-2f2c7b29c5a9" x1="13.32" y1="20.7" x2="28.32" y2="20.7"/><line class="afb004b7-48fc-43f3-8845-2f2c7b29c5a9" x1="13.32" y1="25" x2="28.32" y2="25"/><line class="afb004b7-48fc-43f3-8845-2f2c7b29c5a9" x1="13.32" y1="29.3" x2="28.32" y2="29.3"/><line class="afb004b7-48fc-43f3-8845-2f2c7b29c5a9" x1="13.32" y1="33.61" x2="36.08" y2="33.61"/><line class="afb004b7-48fc-43f3-8845-2f2c7b29c5a9" x1="13.32" y1="37.91" x2="36.08" y2="37.91"/><line class="afb004b7-48fc-43f3-8845-2f2c7b29c5a9" x1="13.32" y1="42.22" x2="36.08" y2="42.22"/><line class="afb004b7-48fc-43f3-8845-2f2c7b29c5a9" x1="13.32" y1="46.52" x2="36.08" y2="46.52"/></g></svg>