<svg id="bd6fea72-a150-46b8-965d-6a6576c45440" data-name="Layer 1" xmlns="http://www.w3.org/2000/svg" viewBox="0 0 500 500"><defs><style>.b54be23a-029e-4db6-91fe-b2c5978f487c{fill:#5c6e87;}.a39895c8-fd93-4417-806f-0a4b684b1f77{fill:#d1d3d4;}.e4f84328-f799-4341-ab38-989f821f3d2a{fill:#ffb213;}.b49ded0a-a333-49a5-9bb7-2d29c054d50f{fill:#dd971b;}.af03d026-779a-484d-86a7-8f15b1c4c1a7{fill:#9fb7ce;}.eebcb6a1-9f52-4aaf-9e0b-d661dcca13db{fill:#ffce80;}.fd984767-30b9-479e-be99-345d3e0f7340{fill:#f1f2f2;}.be1e5b21-2cf8-49b0-aed6-868b353ae222{fill:#a7a9ac;}.a431d63c-debe-48a8-a54c-a46e85efdc27{fill:#3e83ff;}.ec5dd536-90b1-47fc-85a1-69218a555168{fill:#fff;}.a4c1570d-0317-413e-abc9-038f30fa8426{fill:#3dba85;}.e2bf7a01-2748-46bb-96d0-faa1ab8ea173{fill:#d4ecff;}.e3d12910-f909-4148-a785-70bd9c40a6f0{fill:#396caa;}.ea0110b6-e09d-4504-bb95-ba5fabaa0348{fill:#f13624;}.b0da42d8-cf73-45a7-9a18-98c0b9391007{fill:#e6e7e8;}.f0e6da98-aa95-4d37-9294-625e647b9429{fill:#173d7a;}.efb738ed-70ec-4981-acc2-d888c092c601{fill:#f9c8a7;}.a1ff1152-0c60-4d0a-839f-877786031ebb{fill:#bcbec0;}.a3f3d440-cbbb-40bb-b86c-c312a06a86db{fill:#3a4349;}.ef4ac2b5-9f04-4394-9af8-a579845c980c{fill:#35a070;}.eef40e7d-d822-4310-9cb3-c2e45fa18d61{fill:#ea9d13;}.ab6029b2-e419-497b-9104-ba6e37ef0c65{fill:#e8eced;}.a9285301-b4f7-45ea-bf81-3ddf49369fea{fill:#f8f9fa;}.a553d0ad-3c1c-465f-ac64-724624130b1c{fill:#c7d0d8;}</style></defs><title>Talk-To-experts-How-we-Do-illustration</title><polygon class="b54be23a-029e-4db6-91fe-b2c5978f487c" points="136.94 271.03 138.5 272.25 58.99 317.77 57.3 316.79 136.94 271.03"/><path class="a39895c8-fd93-4417-806f-0a4b684b1f77" d="M169.26,228c-19-5.46-41.25.19-49.63,12.63s.23,26.95,19.25,32.41,41.24-.19,49.63-12.63S188.27,233.45,169.26,228Zm16.54,31.63c-7.73,11.46-28.2,16.67-45.72,11.64s-25.48-18.4-17.75-29.86,28.21-16.67,45.73-11.64S193.52,248.16,185.8,259.62Z"/><polygon class="b54be23a-029e-4db6-91fe-b2c5978f487c" points="383.91 420.77 293.59 472.54 255.3 450.38 257.13 449.32 293.59 470.44 382.22 419.8 383.91 420.77"/><path class="b54be23a-029e-4db6-91fe-b2c5978f487c" d="M263.5,249.75a.7.7,0,0,1-.7-.7V220.31a.7.7,0,0,1,1.4,0v28.74A.7.7,0,0,1,263.5,249.75Z"/><rect class="b54be23a-029e-4db6-91fe-b2c5978f487c" x="261" y="218.51" width="4.99" height="10.78"/><path class="b54be23a-029e-4db6-91fe-b2c5978f487c" d="M265.27,230.3a3.92,3.92,0,0,1-3.53,0,1.08,1.08,0,0,1,0-2,3.92,3.92,0,0,1,3.53,0A1.08,1.08,0,0,1,265.27,230.3Z"/><rect class="b54be23a-029e-4db6-91fe-b2c5978f487c" x="259.46" y="203.49" width="8.09" height="16.9"/><path class="e4f84328-f799-4341-ab38-989f821f3d2a" d="M261,220.28v3.65a6.56,6.56,0,0,0,5,0v-3.65A6.47,6.47,0,0,0,261,220.28Z"/><path class="b54be23a-029e-4db6-91fe-b2c5978f487c" d="M266.36,222a6.33,6.33,0,0,1-5.72,0c-1.58-.91-1.58-2.39,0-3.3a6.27,6.27,0,0,1,5.72,0C267.94,219.65,267.94,221.13,266.36,222Z"/><path class="b54be23a-029e-4db6-91fe-b2c5978f487c" d="M199.45,302.12s43.8-27.14,48.15-29.54,12.5,1.19,13.77,1.09c1.81-.15,1.43-1.94,1.43-2.75V248.38h1.4v24.31a2.64,2.64,0,0,1-2.2,2.52c-2.47.62-9.39-3.62-13.74-1.22S201,303,201,303Z"/><rect class="e4f84328-f799-4341-ab38-989f821f3d2a" x="213.67" y="266.31" width="5.46" height="11.77" transform="translate(290.57 -67.54) rotate(50.8)"/><path class="e4f84328-f799-4341-ab38-989f821f3d2a" d="M212.2,278.12a4.29,4.29,0,0,1-2.44-3c-.2-1.22.57-1.85,1.72-1.41a4.26,4.26,0,0,1,2.44,3C214.12,277.92,213.35,278.55,212.2,278.12Z"/><rect class="b54be23a-029e-4db6-91fe-b2c5978f487c" x="219.61" y="259.96" width="8.84" height="12.03" transform="translate(288.56 -75.74) rotate(50.8)"/><path class="b54be23a-029e-4db6-91fe-b2c5978f487c" d="M229.27,265.74a6.93,6.93,0,0,1-4-4.85c-.32-2,.93-3,2.8-2.28a6.93,6.93,0,0,1,3.95,4.85C232.38,265.42,231.13,266.45,229.27,265.74Z"/><path class="b49ded0a-a333-49a5-9bb7-2d29c054d50f" d="M217.74,267.59l-3.09,2.52a7,7,0,0,0,3.45,4.22l3.09-2.51A7.06,7.06,0,0,0,217.74,267.59Z"/><path class="b54be23a-029e-4db6-91fe-b2c5978f487c" d="M220,273.34A6.88,6.88,0,0,1,216,268.5c-.32-2,.93-3,2.79-2.28a6.84,6.84,0,0,1,4,4.84C223.06,273,221.81,274.05,220,273.34Z"/><path class="af03d026-779a-484d-86a7-8f15b1c4c1a7" d="M229,264.19a3.9,3.9,0,0,1-2.24-2.74c-.18-1.11.53-1.69,1.59-1.29a3.92,3.92,0,0,1,2.23,2.74C230.78,264,230.07,264.59,229,264.19Z"/><path class="eebcb6a1-9f52-4aaf-9e0b-d661dcca13db" d="M212.17,274.66c-.45.36-.89.2-1-.37a2,2,0,0,1,.65-1.7c.44-.36.88-.19,1,.38A2,2,0,0,1,212.17,274.66Z"/><path class="b54be23a-029e-4db6-91fe-b2c5978f487c" d="M297.59,357.62a8.33,8.33,0,0,0,4.32-1.22l2.92-1.83a.66.66,0,0,0,.24-.9.67.67,0,0,0-.91-.23l-2.93,1.83a7.05,7.05,0,0,1-10.67-6.54l.13-1.76c2.05-28.9,5.88-82.69-16.79-88.49a176.79,176.79,0,0,1-17.06-5.31c-11.63-4.16-12.43-3.94-28.47,8.18a.66.66,0,0,0-.13.92.67.67,0,0,0,.93.13c15.93-12,16.14-11.95,27.23-8a177.08,177.08,0,0,0,17.17,5.35c21.6,5.53,17.83,58.6,15.8,87.11l-.13,1.77a8.27,8.27,0,0,0,4,7.73A8.39,8.39,0,0,0,297.59,357.62Z"/><path class="b54be23a-029e-4db6-91fe-b2c5978f487c" d="M304.16,353.44s3.32-2.34,5.41.47c1.72,2.32,2.85,5,.25,6.67s-22.47,12.63-22.47,12.63l0-1.52s21-11.41,21.7-12.1,2.08-1.64-.51-4.93c-1.37-1.74-3.69-.09-3.69-.09Z"/><polygon class="fd984767-30b9-479e-be99-345d3e0f7340" points="45.4 344.49 22.47 331.26 45.4 318.02 68.32 331.26 45.4 344.49"/><path class="a39895c8-fd93-4417-806f-0a4b684b1f77" d="M45.4,350.14,10.55,330,45.4,309.9,80.25,330ZM13.58,330,45.4,348.39,77.22,330,45.4,311.65Z"/><polygon class="be1e5b21-2cf8-49b0-aed6-868b353ae222" points="68.32 323.41 45.4 336.64 45.4 310.17 68.32 296.94 68.32 323.41"/><polygon class="fd984767-30b9-479e-be99-345d3e0f7340" points="45.4 310.17 22.47 296.94 45.4 283.7 68.32 296.94 45.4 310.17"/><polygon class="a431d63c-debe-48a8-a54c-a46e85efdc27" points="45.22 303.29 34.21 296.94 45.22 290.58 56.22 296.94 45.22 303.29"/><polygon class="a39895c8-fd93-4417-806f-0a4b684b1f77" points="45.4 336.64 22.47 323.41 22.47 296.94 45.4 310.17 45.4 336.64"/><polygon class="ec5dd536-90b1-47fc-85a1-69218a555168" points="38.98 325.52 28.89 319.7 28.89 308.06 38.98 313.88 38.98 325.52"/><polygon class="fd984767-30b9-479e-be99-345d3e0f7340" points="406.7 426.09 374.93 407.75 406.7 389.41 438.46 407.75 406.7 426.09"/><path class="a39895c8-fd93-4417-806f-0a4b684b1f77" d="M406.7,433.92,358.41,406l48.29-27.88L455,406ZM362.6,406l44.1,25.46L450.79,406,406.7,380.59Z"/><polygon class="be1e5b21-2cf8-49b0-aed6-868b353ae222" points="438.47 396.87 406.7 415.21 406.7 378.53 438.47 360.19 438.47 396.87"/><polygon class="fd984767-30b9-479e-be99-345d3e0f7340" points="406.7 378.53 374.93 360.19 406.7 341.85 438.46 360.19 406.7 378.53"/><polygon class="a4c1570d-0317-413e-abc9-038f30fa8426" points="406.44 368.99 391.19 360.19 406.44 351.38 421.69 360.19 406.44 368.99"/><polygon class="a39895c8-fd93-4417-806f-0a4b684b1f77" points="406.7 415.21 374.93 396.87 374.93 360.19 406.7 378.53 406.7 415.21"/><polygon class="ec5dd536-90b1-47fc-85a1-69218a555168" points="397.8 399.8 383.82 391.74 383.82 375.6 397.8 383.67 397.8 399.8"/><path class="fd984767-30b9-479e-be99-345d3e0f7340" d="M168.39,471.77,70.84,415.45c-6-3.46-5.24-9.5,1.68-13.49l94.19-54.38c6.91-4,17.37-4.43,23.36-1l97.55,56.32c6,3.46,5.23,9.49-1.68,13.49L191.75,470.8C184.83,474.79,174.38,475.22,168.39,471.77Z"/><path class="a39895c8-fd93-4417-806f-0a4b684b1f77" d="M179.22,494.3,51.72,420.69l127.5-73.61,127.49,73.61ZM58.77,420.69l120.45,69.55,120.45-69.55L179.22,351.15Z"/><path class="be1e5b21-2cf8-49b0-aed6-868b353ae222" d="M291.63,392.94h0V359.28l-75.48,0-26.08-15.06c-6-3.46-16.45-3-23.36,1L142.37,359.2l-75.54,0v34.62c-.17,2.33,1.13,4.59,4,6.25l97.55,56.32c6,3.46,16.44,3,23.36-1L285.94,401C289.93,398.7,291.85,395.72,291.63,392.94Z"/><path class="be1e5b21-2cf8-49b0-aed6-868b353ae222" d="M179.23,341.87a26.9,26.9,0,0,0-12.52,3.28L142.37,359.2l-75.54,0v34.62c-.17,2.33,1.13,4.59,4,6.25l97.55,56.32a21.15,21.15,0,0,0,10.84,2.32Z"/><path class="a39895c8-fd93-4417-806f-0a4b684b1f77" d="M75.38,359.16H66.83v34.62c-.17,2.33,1.13,4.59,4,6.25l4.54,2.62Z"/><path class="a39895c8-fd93-4417-806f-0a4b684b1f77" d="M169.89,457.09c5.17,2.21,12.64,2.09,18.67-.21V417.57H169.89Z"/><path class="fd984767-30b9-479e-be99-345d3e0f7340" d="M168.39,421.86,70.84,365.54c-6-3.45-5.24-9.49,1.68-13.48l94.19-54.38c6.91-4,17.37-4.43,23.36-1L287.62,353c6,3.45,5.23,9.49-1.68,13.48l-94.19,54.38C184.83,424.89,174.38,425.32,168.39,421.86Z"/><path class="ec5dd536-90b1-47fc-85a1-69218a555168" d="M285.94,359.89l-94.19,54.38c-6.92,4-17.37,4.43-23.36,1L70.84,358.92a9.13,9.13,0,0,1-3-2.65c-2,3.31-1.12,6.9,3,9.27l97.55,56.32c6,3.46,16.44,3,23.36-1l94.19-54.38c5.37-3.1,7-7.43,4.66-10.83A13.1,13.1,0,0,1,285.94,359.89Z"/><path class="ec5dd536-90b1-47fc-85a1-69218a555168" d="M255.75,401.83a8.73,8.73,0,0,1-3.94,6.82c-2.18,1.26-3.94.24-3.94-2.27a8.7,8.7,0,0,1,3.94-6.83C254,398.29,255.75,399.31,255.75,401.83Z"/><path class="a431d63c-debe-48a8-a54c-a46e85efdc27" d="M268.42,394.51a8.7,8.7,0,0,1-3.94,6.82c-2.17,1.26-3.94.24-3.94-2.27a8.73,8.73,0,0,1,3.94-6.83C266.66,391,268.42,392,268.42,394.51Z"/><path class="e4f84328-f799-4341-ab38-989f821f3d2a" d="M281.1,387.19a8.68,8.68,0,0,1-3.94,6.82c-2.18,1.26-3.94.24-3.94-2.27a8.7,8.7,0,0,1,3.94-6.83C279.34,383.66,281.1,384.67,281.1,387.19Z"/><path class="a431d63c-debe-48a8-a54c-a46e85efdc27" d="M174.16,386.94l-45.65-26.35c-2.8-1.62-2.45-4.44.78-6.31l44.08-25.45c3.24-1.87,8.13-2.07,10.93-.45L230,354.73c2.8,1.62,2.45,4.45-.79,6.31l-44.07,25.45C181.85,388.36,177,388.56,174.16,386.94Z"/><path class="e2bf7a01-2748-46bb-96d0-faa1ab8ea173" d="M178.09,367.38l-10.22-5.9c-.63-.36-.55-1,.18-1.41l9.87-5.7a2.73,2.73,0,0,1,2.45-.1l10.22,5.9c.63.36.55,1-.18,1.41l-9.87,5.7A2.7,2.7,0,0,1,178.09,367.38Z"/><path class="e3d12910-f909-4148-a785-70bd9c40a6f0" d="M128.51,360.59l.13.07c.21-.15.41-.3.65-.45l44.08-25.44c3.24-1.87,8.13-2.07,10.93-.46l45.52,26.28c2.58-1.85,2.72-4.36.13-5.86L184.3,328.38c-2.8-1.62-7.69-1.42-10.93.45l-44.08,25.45C126.06,356.15,125.71,359,128.51,360.59Z"/><path class="a39895c8-fd93-4417-806f-0a4b684b1f77" d="M377.22,79h36.55a0,0,0,0,1,0,0v32.28A32.28,32.28,0,0,1,381.5,143.6h-4.27a32.28,32.28,0,0,1-32.28-32.28v0A32.28,32.28,0,0,1,377.22,79Z" transform="matrix(-1, 0.01, -0.01, -1, 760.15, 217.64)"/><rect class="ea0110b6-e09d-4504-bb95-ba5fabaa0348" x="72.98" y="64.69" width="19.83" height="8.19" transform="translate(165.79 137.57) rotate(-180)"/><rect class="ea0110b6-e09d-4504-bb95-ba5fabaa0348" x="98.1" y="25.32" width="71.8" height="8.19" transform="translate(267.99 58.82) rotate(-180)"/><rect class="a39895c8-fd93-4417-806f-0a4b684b1f77" x="122.93" y="45.41" width="46.96" height="8.19" transform="translate(292.82 99.02) rotate(-180)"/><rect class="a39895c8-fd93-4417-806f-0a4b684b1f77" x="65.58" y="45.41" width="46.96" height="8.19" transform="translate(178.13 99.02) rotate(-180)"/><rect class="ea0110b6-e09d-4504-bb95-ba5fabaa0348" x="98.1" y="64.69" width="71.8" height="8.19" transform="translate(267.99 137.57) rotate(-180)"/><rect class="a39895c8-fd93-4417-806f-0a4b684b1f77" x="64.3" y="83.97" width="105.59" height="8.19" transform="translate(234.19 176.13) rotate(-180)"/><rect class="a4c1570d-0317-413e-abc9-038f30fa8426" x="446.01" y="214.78" width="19.83" height="8.19"/><rect class="b0da42d8-cf73-45a7-9a18-98c0b9391007" x="368.92" y="175.4" width="71.8" height="8.19"/><rect class="a4c1570d-0317-413e-abc9-038f30fa8426" x="368.92" y="195.5" width="46.96" height="8.19"/><rect class="a4c1570d-0317-413e-abc9-038f30fa8426" x="426.26" y="195.5" width="46.96" height="8.19"/><rect class="b0da42d8-cf73-45a7-9a18-98c0b9391007" x="368.92" y="214.78" width="71.8" height="8.19"/><rect class="a4c1570d-0317-413e-abc9-038f30fa8426" x="368.92" y="234.06" width="105.59" height="8.19"/><ellipse class="b0da42d8-cf73-45a7-9a18-98c0b9391007" cx="253.12" cy="355.96" rx="21.45" ry="12.38"/><path class="f0e6da98-aa95-4d37-9294-625e647b9429" d="M242.89,350.66A3.3,3.3,0,0,0,241,354a5.26,5.26,0,0,0,.28,1.61A2.71,2.71,0,0,0,245,356.7c2-.79,6.48-5,6.64-7.73C251.9,343.87,246.07,349.3,242.89,350.66Z"/><path class="f0e6da98-aa95-4d37-9294-625e647b9429" d="M254.7,359.09a14.53,14.53,0,0,0-.24,3.48,3.77,3.77,0,0,0,3.7,1.44c2.06-.24,8-2.29,9.34-6.21,2.05-6.08-11.48.45-11.48.45Z"/><path class="a431d63c-debe-48a8-a54c-a46e85efdc27" d="M260.52,312.07,261,358a3.21,3.21,0,0,1-2.51,3.18,4.58,4.58,0,0,1-.55.07,2.83,2.83,0,0,1-2.73-1.13,3.31,3.31,0,0,1-.62-1.85l-.58-19.6-2.93-17.52-4.05,31a2.63,2.63,0,0,1-1.11,2,3.1,3.1,0,0,1-1.85.51,3.43,3.43,0,0,1-2.45-1.21,2.52,2.52,0,0,1-.59-1.66l1.61-18.67.6-23.8Z"/><path class="efb738ed-70ec-4981-acc2-d888c092c601" d="M254.57,271l-.73,4.18a1.92,1.92,0,0,0,1.57,1.82c1.59.4,2.09-.63,2.09-.63l.72-4.71Z"/><path class="efb738ed-70ec-4981-acc2-d888c092c601" d="M263.08,271.1c-2.67,2.65-6.73,2.87-9.09.5s-2.1-6.46.56-9.11,6.73-2.88,9.09-.5S265.74,268.45,263.08,271.1Z"/><path class="a39895c8-fd93-4417-806f-0a4b684b1f77" d="M254.76,275.24c-.11-.05-6.76-4.33-9.22.15-4,7.31-3.78,30.83-2.51,33.88,1.17,2.82,4.1,4.9,6.15,6.07a12.3,12.3,0,0,0,6,1.7c2.08,0,6.07-1.83,5.92-4.55-.66-12.5.44-23,1.46-33.25C262.52,279.24,261.25,277.86,254.76,275.24Z"/><path class="e3d12910-f909-4148-a785-70bd9c40a6f0" d="M251.06,321.14l-4.05,31a2.63,2.63,0,0,1-1.11,2,2.91,2.91,0,0,1-.35.2c.85-.63,3.3-26.66,3.75-29.56S251.06,321.14,251.06,321.14Z"/><polygon class="efb738ed-70ec-4981-acc2-d888c092c601" points="276.03 276.62 279.64 264.78 277.74 263.99 273.48 273.26 276.03 276.62"/><polygon class="efb738ed-70ec-4981-acc2-d888c092c601" points="239.59 267.28 242.3 254.96 244.46 254.98 243.65 265.2 239.59 267.28"/><path class="a39895c8-fd93-4417-806f-0a4b684b1f77" d="M262.52,279.24s6.5,1.29,10.63-6.27a1,1,0,0,1,1.71-.18A5.32,5.32,0,0,1,276,277c-2,7.39-12.93,9-14.89,13.31S262.52,279.24,262.52,279.24Z"/><path class="a39895c8-fd93-4417-806f-0a4b684b1f77" d="M250.54,273.7s-5.14.39-5.88-4.06a34.11,34.11,0,0,1-.52-4.45.9.9,0,0,0-1-.87c-1.23.15-3.14.52-3.4,1.35-.38,1.23-1.11,7.27,4,16.55C247,288.3,250.54,273.7,250.54,273.7Z"/><path class="efb738ed-70ec-4981-acc2-d888c092c601" d="M242.29,255l.05-1.41a2.9,2.9,0,0,1,.42-1.4l1.43-2.34.37-.47a1.08,1.08,0,0,1,1.42-.24l.33.21a1.34,1.34,0,0,1,.63,1.22l-.74,2,.93-.18a.32.32,0,0,1,.39.27h0a.33.33,0,0,1-.2.36l-1.52.62-1.39,2Z"/><path class="efb738ed-70ec-4981-acc2-d888c092c601" d="M279.7,264.84l.43-1.34a2.9,2.9,0,0,0,.08-1.46l-.55-2.69-.19-.56a1.08,1.08,0,0,0-1.25-.72l-.38.09a1.34,1.34,0,0,0-1,.94l0,2.13-.82-.49a.33.33,0,0,0-.45.12h0a.33.33,0,0,0,.06.41l1.23,1.1.71,2.59Z"/><path class="a1ff1152-0c60-4d0a-839f-877786031ebb" d="M259.48,288.19c-.59,2.7,1.07,23.66-4.34,28.85,2.08,0,6.07-1.83,5.92-4.55a166.48,166.48,0,0,1,.5-23c2.12-2.75,7.95-4.5,11.6-8C272.9,281.57,260.07,285.52,259.48,288.19Z"/><path class="ec5dd536-90b1-47fc-85a1-69218a555168" d="M252.37,274.05l.92-.95a7.52,7.52,0,0,0,2.74,1.83,14.88,14.88,0,0,0,2.19.45l.59,1.64S254,276.67,252.37,274.05Z"/><path class="a3f3d440-cbbb-40bb-b86c-c312a06a86db" d="M259.18,269.19a.79.79,0,0,0,.72,0c.39-.21,1-1.77,1.85-1.65,1.28.17,3.13,2.86,5.43-.89,1.2-1.94.5-3,1.08-4.1,0,0-.2.6-5.22-2.46s-9.13.67-10.4,2.8-2.1,6.31,1.19,8.67c.55.39,4.07-.31,4.14-.61s-.87-.76-.34-1.45A1.1,1.1,0,0,1,259.18,269.19Z"/><path class="b54be23a-029e-4db6-91fe-b2c5978f487c" d="M333.35,293.4a.7.7,0,0,1-.69-.7V264a.7.7,0,1,1,1.39,0V292.7A.7.7,0,0,1,333.35,293.4Z"/><rect class="b54be23a-029e-4db6-91fe-b2c5978f487c" x="330.86" y="262.15" width="4.99" height="10.78"/><path class="b54be23a-029e-4db6-91fe-b2c5978f487c" d="M335.12,273.94a3.86,3.86,0,0,1-3.53,0,1.07,1.07,0,0,1,0-2,3.86,3.86,0,0,1,3.53,0A1.07,1.07,0,0,1,335.12,273.94Z"/><rect class="b54be23a-029e-4db6-91fe-b2c5978f487c" x="329.31" y="247.13" width="8.09" height="16.9"/><path class="e4f84328-f799-4341-ab38-989f821f3d2a" d="M330.86,263.92v3.65a6.45,6.45,0,0,0,5,0v-3.65A6.45,6.45,0,0,0,330.86,263.92Z"/><path class="b54be23a-029e-4db6-91fe-b2c5978f487c" d="M336.22,265.68a6.29,6.29,0,0,1-5.73,0c-1.58-.91-1.58-2.39,0-3.3a6.35,6.35,0,0,1,5.73,0C337.8,263.29,337.8,264.77,336.22,265.68Z"/><path class="b54be23a-029e-4db6-91fe-b2c5978f487c" d="M272.1,344.05s41-25.43,45.35-27.82,12.5,1.18,13.77,1.08c1.82-.15,1.44-1.94,1.44-2.75V292h1.39v24.31a2.62,2.62,0,0,1-2.19,2.52c-2.48.63-9.4-3.61-13.74-1.22s-44.51,27.29-44.51,27.29Z"/><path class="be1e5b21-2cf8-49b0-aed6-868b353ae222" d="M355,156.35,255.6,99a5.08,5.08,0,0,0-5.13-.42v-.06l-9.64,5.57,6.77,2.47V178.9c0,5.89,3.58,12.73,8,15.28l95,54.82v8.49l9.74-5.61-.05,0c1.64-1,2.7-3.2,2.7-6.37V171.62C363,165.73,359.37,158.89,355,156.35Z"/><path class="b0da42d8-cf73-45a7-9a18-98c0b9391007" d="M345.14,257.19l-99.35-57.36c-4.41-2.55-8-9.39-8-15.27V110.69c0-5.89,3.58-8.6,8-6L345.14,162c4.41,2.55,8,9.39,8,15.28v73.87C353.13,257,349.55,259.74,345.14,257.19Z"/><path class="a4c1570d-0317-413e-abc9-038f30fa8426" d="M279.2,174.38c0,4.27-3,6-6.7,3.86a14.81,14.81,0,0,1-6.71-11.61c0-4.27,3-6,6.71-3.87A14.83,14.83,0,0,1,279.2,174.38Z"/><path class="a4c1570d-0317-413e-abc9-038f30fa8426" d="M299.51,186.1c0,4.27-3,6-6.71,3.87a14.83,14.83,0,0,1-6.7-11.61c0-4.28,3-6,6.7-3.87A14.8,14.8,0,0,1,299.51,186.1Z"/><path class="a39895c8-fd93-4417-806f-0a4b684b1f77" d="M319.81,197.82c0,4.28-3,6-6.7,3.87a14.8,14.8,0,0,1-6.7-11.61c0-4.27,3-6,6.7-3.87A14.83,14.83,0,0,1,319.81,197.82Z"/><path class="be1e5b21-2cf8-49b0-aed6-868b353ae222" d="M298.41,67.59,199.07,10.23c-2-1.14-3.75-1.18-5.14-.41V9.75l-9.64,5.57,6.77,2.47V90.14c0,5.89,3.58,12.73,8,15.28L294,160.24v8.49l9.74-5.61h-.05c1.64-1,2.7-3.21,2.7-6.38V82.86C306.41,77,302.83,70.14,298.41,67.59Z"/><path class="fd984767-30b9-479e-be99-345d3e0f7340" d="M288.6,168.43l-99.35-57.36c-4.41-2.55-8-9.38-8-15.27V21.93c0-5.89,3.58-8.59,8-6L288.6,73.24c4.42,2.55,8,9.39,8,15.28v73.87C296.59,168.28,293,171,288.6,168.43Z"/><path class="ea0110b6-e09d-4504-bb95-ba5fabaa0348" d="M222.66,85.62c0,4.27-3,6-6.7,3.87a14.83,14.83,0,0,1-6.7-11.61c0-4.28,3-6,6.7-3.87A14.8,14.8,0,0,1,222.66,85.62Z"/><path class="a39895c8-fd93-4417-806f-0a4b684b1f77" d="M243,97.34c0,4.28-3,6-6.7,3.87a14.8,14.8,0,0,1-6.71-11.61c0-4.27,3-6,6.71-3.87A14.83,14.83,0,0,1,243,97.34Z"/><path class="ea0110b6-e09d-4504-bb95-ba5fabaa0348" d="M263.28,109.07c0,4.27-3,6-6.71,3.87a14.83,14.83,0,0,1-6.7-11.62c0-4.27,3-6,6.7-3.86A14.81,14.81,0,0,1,263.28,109.07Z"/><polygon class="a4c1570d-0317-413e-abc9-038f30fa8426" points="356.04 204.41 344.61 234.34 331.59 234.34 343.82 202.5 356.04 204.41"/><polygon class="a4c1570d-0317-413e-abc9-038f30fa8426" points="358.97 204.41 370.4 234.34 383.42 234.34 371.19 202.5 358.97 204.41"/><path class="e4f84328-f799-4341-ab38-989f821f3d2a" d="M365.57,159.34h0a9.13,9.13,0,0,0,8.69,6.32h0a9.14,9.14,0,0,1,5.37,16.53h0a9.14,9.14,0,0,0-3.32,10.21h0a9.14,9.14,0,0,1-14.06,10.22h0a9.12,9.12,0,0,0-10.74,0h0a9.14,9.14,0,0,1-14.06-10.22h0a9.14,9.14,0,0,0-3.32-10.21h0a9.14,9.14,0,0,1,5.37-16.53h0a9.13,9.13,0,0,0,8.69-6.32h0A9.14,9.14,0,0,1,365.57,159.34Z"/><polygon class="ef4ac2b5-9f04-4394-9af8-a579845c980c" points="344.61 234.34 331.59 234.34 333.14 230.13 346.15 230.13 344.61 234.34"/><polygon class="ef4ac2b5-9f04-4394-9af8-a579845c980c" points="370.4 234.34 383.42 234.34 381.87 230.13 368.86 230.13 370.4 234.34"/><circle class="eef40e7d-d822-4310-9cb3-c2e45fa18d61" cx="356.88" cy="180.04" r="11.62"/><ellipse class="ab6029b2-e419-497b-9104-ba6e37ef0c65" cx="153.94" cy="242.1" rx="26.33" ry="17.21" transform="translate(-0.43 0.28) rotate(-0.1)"/><path class="a9285301-b4f7-45ea-bf81-3ddf49369fea" d="M149.88,248.13c-5.1-1.46-7.42-5.35-5.17-8.68a9,9,0,0,1,4.89-3.29,15,15,0,0,1,8.42-.1c3.31.95,5.44,2.92,5.9,5.11a4.56,4.56,0,0,1-.75,3.58,9.25,9.25,0,0,1-5.22,3.39A14.94,14.94,0,0,1,149.88,248.13Z"/><path class="e4f84328-f799-4341-ab38-989f821f3d2a" d="M164.39,257.87,158,248.13a9.23,9.23,0,0,0,5.22-3.38,4.56,4.56,0,0,0,.76-3.58L180,239.65a11.84,11.84,0,0,1-2,9.36C175.25,253.15,170.28,256.2,164.39,257.87Z"/><path class="a4c1570d-0317-413e-abc9-038f30fa8426" d="M143.33,257.85C130,254,124,243.87,129.84,235.18c2.65-3.93,7.26-6.89,12.74-8.59l7,9.57a9,9,0,0,0-4.89,3.29c-2.24,3.33.08,7.22,5.17,8.68a14.94,14.94,0,0,0,8.07,0l6.44,9.74A39.11,39.11,0,0,1,143.33,257.85Z"/><path class="a553d0ad-3c1c-465f-ac64-724624130b1c" d="M143.4,267.37c-9.19-2.64-14.91-8.3-15.64-14.41l-.08-9.54a12.42,12.42,0,0,0,1,3.55c2.12,4.68,7.26,8.75,14.65,10.86,13.3,3.82,28.84-.14,34.71-8.84a13.72,13.72,0,0,0,1.25-2.26,11.65,11.65,0,0,0,1-4.77l.08,9.54a12.41,12.41,0,0,1-2.25,7C172.25,267.23,156.71,271.19,143.4,267.37Z"/><polygon class="b54be23a-029e-4db6-91fe-b2c5978f487c" points="83.6 345.66 67.87 337.17 66.26 338.08 81.93 346.6 83.6 345.66"/><circle class="fd984767-30b9-479e-be99-345d3e0f7340" cx="379.49" cy="111.66" r="28.58"/><path class="a4c1570d-0317-413e-abc9-038f30fa8426" d="M378.33,112.88l-.43-21.75a21.75,21.75,0,1,0,14.81,38.08Z"/><path class="a431d63c-debe-48a8-a54c-a46e85efdc27" d="M381.63,112.1l14.77,16A21.75,21.75,0,0,0,397,96.65Z"/><path class="e4f84328-f799-4341-ab38-989f821f3d2a" d="M381.39,108.24,396,92.11a21.68,21.68,0,0,0-12.68-5.54c-.53,0-1.07-.08-1.61-.08Z"/></svg>