<?xml version="1.0" encoding="utf-8"?>
<!-- Generator: Adobe Illustrator 19.1.1, SVG Export Plug-In . SVG Version: 6.00 Build 0)  -->
<svg version="1.1" id="Layer_1" xmlns="http://www.w3.org/2000/svg" xmlns:xlink="http://www.w3.org/1999/xlink" x="0px" y="0px"
	 viewBox="132 -53.8 548 390.3" style="enable-background:new 132 -53.8 548 390.3;" xml:space="preserve">
<style type="text/css">
	.st0{fill:none;stroke:#D0D8DC;stroke-width:2;stroke-miterlimit:10;}
	.st1{fill:#D0D8DC;}
	.st2{fill:#95C8EC;}
	.st3{fill:#CBEAFB;}
	.st4{fill:#90A4AE;}
	.st5{fill:#E4F2FB;}
	.st6{fill:#B0BEC5;}
	.st7{fill:#70B2E2;}
	.st8{fill:#81C784;}
	.st9{fill:#FFFFFF;}
	.st10{fill:#58A6DA;}
	.st11{fill:#3D82C4;}
	.st12{fill:#BDDDF4;}
	.st13{fill:#F7C9A4;}
	.st14{fill:#FFD9B6;}
	.st15{fill:#493030;}
	.st16{fill:#546E7A;}
	.st17{fill:#3F535C;}
	.st18{fill:#EFC75E;}
	.st19{fill:#F5F5F5;}
</style>
<title>Disrupted-on-premises and cloud environments</title>
<g>
	<polyline class="st0" points="913.5,246 1085.1,246 1085.1,126.2 	"/>
	<path id="_Path_4" class="st1" d="M946.9,241.7h-6.8v-1.6c0-2.6-2.1-4.7-4.7-4.7h-43c-2.6,0-4.7,2.1-4.7,4.7v1.6h-6.8v8.5h6.8v1.6
		c0,2.6,2.1,4.7,4.7,4.7h43c2.6,0,4.7-2.1,4.7-4.7v-1.6h6.8V241.7z"/>
	<path id="_Path_5" class="st1" d="M1089.1,159.6v-6.8h1.7c2.6,0,4.7-2.1,4.7-4.7v-43c0-2.6-2.1-4.7-4.7-4.7h-1.7v-6.8h-8.4v6.8
		h-1.6c-2.6,0-4.7,2.1-4.7,4.7v43c0,2.6,2.1,4.7,4.7,4.7h1.6v6.8L1089.1,159.6z"/>
</g>
<path id="_Path_6" class="st2" d="M364.8,41.7c0.9-3.7,1.4-7.5,1.4-11.3c-0.1-25-20.3-45.3-45.3-45.4c-7.8-28.2-37.1-44.7-65.3-36.8
	c-20.8,5.8-36,23.6-38.5,45.1h-2.6c-29.1-0.4-53,22.8-53.4,51.9s22.8,53,51.9,53.4c0.5,0,1,0,1.5,0h148.9
	c15.7,0.1,28.5-12.5,28.7-28.2C392.3,54.9,380.2,42.2,364.8,41.7z"/>
<path id="_Path_7" class="st3" d="M327.5,73.8c0.6-2.3,0.9-4.6,0.9-7c0-15.5-12.5-28-28-28.1c-4.9-17.4-23-27.6-40.4-22.7
	c-12.8,3.6-22.1,14.6-23.7,27.7h-1.6c-18,0-32.5,14.6-32.5,32.5s14.6,32.5,32.5,32.5c0,0,0,0,0,0h92c9.7,0,17.6-7.9,17.5-17.6
	C344.2,81.9,336.8,74.2,327.5,73.8L327.5,73.8z"/>
<g>
	<path class="st4" d="M212.1,78.3h-70.4c-5.1,0-9.1,4.1-9.2,9.2v133.9c0,5.1,4.1,9.1,9.2,9.2h70.4c5.1,0,9.1-4.1,9.2-9.2V87.5
		c0-5-4-9.1-9.1-9.2C212.1,78.3,212.1,78.3,212.1,78.3z"/>
	<path class="st4" d="M311.9,78.3h-70.4c-5.1,0-9.1,4.1-9.2,9.2v133.9c0,5.1,4.1,9.1,9.2,9.2h70.4c5.1,0,9.1-4.1,9.2-9.2V87.5
		c0-5-4-9.1-9.1-9.2C312,78.3,311.9,78.3,311.9,78.3z"/>
	<path class="st4" d="M411.7,78.3h-70.4c-5.1,0-9.1,4.1-9.2,9.2v133.9c0,5.1,4.1,9.1,9.2,9.2h70.4c5.1,0,9.1-4.1,9.2-9.2V87.5
		c0-5-4-9.1-9.1-9.2C411.8,78.3,411.7,78.3,411.7,78.3z"/>
	<rect x="147.4" y="93.1" class="st5" width="58.8" height="122.8"/>
	<rect x="247.2" y="93.1" class="st5" width="58.8" height="122.8"/>
	<rect x="347" y="93.1" class="st5" width="58.8" height="122.8"/>
	<path class="st6" d="M201.2,177.7h-48.8V210h48.8V177.7z M196.5,205H157v-22.3h39.4V205z"/>
	<rect x="187.1" y="186.5" class="st2" width="4.7" height="14.7"/>
	<rect x="179.4" y="186.5" class="st7" width="5" height="14.7"/>
	<path class="st8" d="M166.9,201.5c4.4-0.4,7.6-4.4,7.2-8.8c-0.4-3.8-3.4-6.8-7.2-7.2c-4.3-0.1-7.9,3.3-8,7.7c0,0.1,0,0.2,0,0.3
		C159,198,162.5,201.5,166.9,201.5z M166.9,190.6c1.6,0,2.9,1.3,2.9,2.9c0,1.6-1.3,2.9-2.9,2.9c0,0,0,0,0,0c-1.6,0-2.9-1.3-2.9-2.9
		C163.9,192,165.2,190.6,166.9,190.6C166.9,190.6,166.9,190.6,166.9,190.6z"/>
	<path class="st6" d="M201.2,138.6h-48.8v32.2h48.8V138.6z M196.5,165.7H157v-22.5h39.4V165.7z"/>
	<rect x="187.1" y="147" class="st2" width="4.7" height="14.7"/>
	<rect x="179.4" y="147" class="st7" width="5" height="14.7"/>
	<path class="st8" d="M166.9,162.3c4.4,0,8-3.5,8-7.9c0,0,0-0.1,0-0.1c-0.4-4.4-4.4-7.6-8.8-7.2c-3.8,0.4-6.8,3.4-7.2,7.2
		C159,158.6,162.5,162.2,166.9,162.3z M166.9,151.4c1.6,0,2.9,1.3,2.9,2.9s-1.3,2.9-2.9,2.9s-2.9-1.3-2.9-2.9
		C164,152.7,165.3,151.4,166.9,151.4C166.9,151.4,166.9,151.4,166.9,151.4z"/>
	<path class="st6" d="M201.2,99.1h-48.8v32.2h48.8V99.1z M196.5,126.3H157v-22.5h39.4V126.3z"/>
	<rect x="187.1" y="107.6" class="st2" width="4.7" height="14.7"/>
	<rect x="179.4" y="107.6" class="st7" width="5" height="14.7"/>
	<path class="st8" d="M166.9,122.8c4.4-0.4,7.6-4.4,7.2-8.8c-0.4-3.8-3.4-6.8-7.2-7.2c-4.3-0.1-7.9,3.3-8,7.7c0,0.1,0,0.2,0,0.3
		C159,119.3,162.5,122.8,166.9,122.8z M166.9,111.9c1.6,0,2.9,1.3,2.9,2.9s-1.3,2.9-2.9,2.9c-1.6,0-2.9-1.3-2.9-2.9
		c-0.1-1.6,1.1-2.9,2.6-3C166.7,111.9,166.8,111.9,166.9,111.9L166.9,111.9z"/>
	<path class="st6" d="M301,177.7h-48.8V210H301V177.7z M296.3,205h-39.5v-22.3h39.5L296.3,205z"/>
	<rect x="287" y="186.5" class="st2" width="4.7" height="14.7"/>
	<rect x="279.2" y="186.5" class="st7" width="5" height="14.7"/>
	<path class="st8" d="M266.7,201.5c4.4,0,8-3.6,8-8s-3.6-8-8-8s-8,3.6-8,8S262.3,201.5,266.7,201.5z M266.7,190.6
		c1.6,0,2.9,1.3,2.9,2.9c0,1.6-1.3,2.9-2.9,2.9c0,0,0,0,0,0c-1.6,0-2.9-1.3-2.9-2.9C263.8,192,265.1,190.6,266.7,190.6
		C266.7,190.6,266.7,190.6,266.7,190.6z"/>
	<path class="st6" d="M301,138.6h-48.8v32.2H301V138.6z M296.3,165.7h-39.5v-22.5h39.5L296.3,165.7z"/>
	<rect x="287" y="147" class="st2" width="4.7" height="14.7"/>
	<rect x="279.2" y="147" class="st7" width="5" height="14.7"/>
	<path class="st8" d="M266.7,162.3c4.4,0,8-3.5,8-7.9c0,0,0-0.1,0-0.1c0.1-4.3-3.3-7.9-7.7-8c-0.1,0-0.2,0-0.3,0c-4.4,0-8,3.5-8,7.9
		c0,0,0,0.1,0,0.1C258.7,158.7,262.3,162.3,266.7,162.3z M266.7,151.4c1.6,0,2.9,1.3,2.9,2.9s-1.3,2.9-2.9,2.9s-2.9-1.3-2.9-2.9
		C263.8,152.7,265.1,151.4,266.7,151.4C266.7,151.4,266.7,151.4,266.7,151.4z"/>
	<path class="st6" d="M301,99.1h-48.8v32.2H301V99.1z M296.3,126.3h-39.5v-22.5h39.5L296.3,126.3z"/>
	<rect x="287" y="107.6" class="st2" width="4.7" height="14.7"/>
	<rect x="279.2" y="107.6" class="st7" width="5" height="14.7"/>
	<path class="st8" d="M266.7,122.8c4.4,0,8-3.6,8-8s-3.6-8-8-8s-8,3.6-8,8S262.3,122.8,266.7,122.8z M266.7,111.9c1.6,0,3,1.3,3,2.9
		c0,1.6-1.3,3-2.9,3c-1.6,0-3-1.3-3-2.9c0,0,0,0,0,0c-0.1-1.6,1.1-2.9,2.6-3C266.6,111.9,266.6,111.9,266.7,111.9L266.7,111.9z"/>
	<path class="st6" d="M400.8,177.7H352V210h48.8V177.7z M396.2,205h-39.5v-22.3h39.5L396.2,205z"/>
	<rect x="386.8" y="186.5" class="st2" width="4.7" height="14.7"/>
	<rect x="379" y="186.5" class="st7" width="5" height="14.7"/>
	<path class="st8" d="M366.6,201.5c4.4,0,8-3.6,8-8s-3.6-8-8-8s-8,3.6-8,8S362.1,201.5,366.6,201.5z M366.6,190.6
		c1.6,0,2.9,1.3,2.9,2.9c0,1.6-1.3,2.9-2.9,2.9c0,0,0,0,0,0c-1.6,0-2.9-1.3-2.9-2.9C363.6,192,364.9,190.6,366.6,190.6
		C366.5,190.6,366.5,190.6,366.6,190.6z"/>
	<path class="st6" d="M400.8,138.6H352v32.2h48.8V138.6z M396.2,165.7h-39.5v-22.5h39.5L396.2,165.7z"/>
	<rect x="386.8" y="147" class="st2" width="4.7" height="14.7"/>
	<rect x="379" y="147" class="st7" width="5" height="14.7"/>
	<path class="st8" d="M366.6,162.3c4.4,0,8-3.5,8-7.9c0,0,0-0.1,0-0.1c0.1-4.3-3.3-7.9-7.7-8c-0.1,0-0.2,0-0.3,0c-4.4,0-8,3.5-8,7.9
		c0,0,0,0.1,0,0.1C358.6,158.7,362.1,162.3,366.6,162.3z M366.6,151.4c1.6,0,2.9,1.3,2.9,2.9s-1.3,2.9-2.9,2.9s-2.9-1.3-2.9-2.9
		C363.6,152.7,364.9,151.4,366.6,151.4C366.5,151.4,366.5,151.4,366.6,151.4z"/>
	<path class="st6" d="M400.8,99.1H352v32.2h48.8V99.1z M396.2,126.3h-39.5v-22.5h39.5L396.2,126.3z"/>
	<rect x="386.8" y="107.6" class="st2" width="4.7" height="14.7"/>
	<rect x="379" y="107.6" class="st7" width="5" height="14.7"/>
	<path class="st8" d="M366.6,122.8c4.4,0,8-3.6,8-8s-3.6-8-8-8s-8,3.6-8,8S362.1,122.8,366.6,122.8z M366.6,111.9
		c1.6,0,2.9,1.3,2.9,2.9s-1.3,2.9-2.9,2.9s-2.9-1.3-2.9-2.9c-0.1-1.6,1.1-2.9,2.7-3C366.4,111.9,366.5,111.9,366.6,111.9
		L366.6,111.9z"/>
</g>
<g>
	<polyline class="st0" points="99.4,-255.1 -163,-255.1 -163,-106.7 	"/>
	<path id="_Path_" class="st1" d="M66-250.9h6.8v1.6c0,2.6,2.1,4.7,4.7,4.7h43c2.6,0,4.7-2.1,4.7-4.7v-1.6h6.8v-8.5h-6.8v-1.6
		c0-2.6-2.1-4.7-4.7-4.7c0,0,0,0,0,0h-43c-2.6,0-4.7,2.1-4.7,4.7v1.6H66V-250.9z"/>
	<path id="_Path_2" class="st1" d="M-167.2-119.9v6.8h-1.6c-2.6,0-4.7,2.1-4.7,4.7v43c0,2.6,2.1,4.7,4.7,4.7h1.6v6.8h8.5v-6.8h1.7
		c2.6,0,4.7-2.1,4.7-4.7v-43c0-2.6-2.1-4.7-4.7-4.7h-1.7v-6.8H-167.2z"/>
	<path id="_Path_3" class="st1" d="M-69.9-119.9v6.8h-1.6c-2.6,0-4.7,2.1-4.7,4.7v43c0,2.6,2.1,4.7,4.7,4.7h1.6v6.8h8.5v-6.8h1.6
		c2.6,0,4.7-2.1,4.7-4.7v-43c0-2.6-2.1-4.7-4.7-4.7h-1.6v-6.8H-69.9z"/>
	<polyline class="st0" points="-65.8,-109.9 -65.8,-179.2 -163,-179.2 	"/>
	<circle class="st8" cx="-114.4" cy="-179.2" r="22.9"/>
	<path class="st9" d="M-98.9-186.9l-2.5-2.5c-0.3-0.3-0.7-0.5-1.2-0.5l0,0c-0.5,0-0.9,0.2-1.2,0.5l-14.3,14.3l-6.5-6.5
		c-0.3-0.3-0.7-0.5-1.2-0.5l0,0c-0.5,0-0.9,0.2-1.2,0.5l-2.5,2.5c-0.7,0.7-0.7,1.7,0,2.4c0,0,0,0,0,0l10.2,10.2
		c0.7,0.7,1.7,0.7,2.4,0c0,0,0,0,0,0l17.8-17.8l0.2-0.2C-98.2-185.2-98.2-186.3-98.9-186.9z"/>
</g>
<g>
	<path class="st5" d="M551.6,291.4v41.5c0,2.6-2.1,4.8-4.8,4.8c0,0,0,0,0,0H304.4c-2.6,0-4.8-2.1-4.8-4.8l0,0v-41.5
		c0-21.7,14.8-40.6,35.8-45.8l65.2-16.2h49.9l65.2,16.2C536.8,250.9,551.6,269.7,551.6,291.4z"/>
	<polygon class="st10" points="442.2,337.7 409.1,337.7 416.2,286.9 417.5,277.2 433.8,277.2 435.1,286.9 	"/>
	<polygon class="st11" points="435.1,286.9 416.2,286.9 417.5,277.2 433.8,277.2 	"/>
	<path class="st12" d="M332.2,246.6c-12.1,11-19.7,29.3-19.7,44.9v46.3h-8.1c-2.6,0-4.8-2.1-4.8-4.8l0,0v-41.5
		C299.7,271,312.8,252.9,332.2,246.6z"/>
	<path class="st12" d="M519.1,246.6c12.1,11,19.7,29.3,19.7,44.9v46.3h8.1c2.6,0,4.8-2.1,4.8-4.8c0,0,0,0,0,0v-41.5
		C551.6,271,538.5,252.9,519.1,246.6z"/>
	<path class="st10" d="M413.7,278.8l-7.2-12.6c-1-1.7-1-3.8,0-5.5l7.3-12.5c1-1.7,2.8-2.7,4.7-2.7h14.5c2,0,3.8,1,4.7,2.7l7.3,12.5
		c1,1.7,1,3.8,0,5.5l-7.3,12.5c-1,1.7-2.8,2.7-4.7,2.7h-14.5C416.5,281.5,414.6,280.5,413.7,278.8z"/>
	<rect x="399.4" y="188.9" class="st13" width="52.5" height="48.6"/>
	<path class="st14" d="M507.7,141.9c0,9.2-6.3,17.2-15.2,19.3c-1.5,0.4-3,0.5-4.5,0.5c-10.9,0-19.8-8.9-19.8-19.8
		s8.9-19.8,19.8-19.8C498.8,122.1,507.7,130.9,507.7,141.9L507.7,141.9z"/>
	<path class="st13" d="M492.6,122.6v33.7c0,1.6-0.1,3.2-0.2,4.8c-1.5,0.4-3,0.5-4.5,0.5c-10.9,0.1-19.9-8.7-19.9-19.7
		c-0.1-10.9,8.7-19.9,19.7-19.9C489.3,122,491,122.3,492.6,122.6L492.6,122.6z"/>
	<path class="st14" d="M383.2,141.9c0,10.9-8.9,19.8-19.8,19.8c-1.5,0-3.1-0.2-4.6-0.5c-10.6-2.5-17.2-13.2-14.7-23.8
		c1.7-7.2,7.3-12.9,14.5-14.7c1.5-0.4,3.1-0.6,4.7-0.6C374.3,122,383.2,130.9,383.2,141.9C383.2,141.8,383.2,141.8,383.2,141.9z"/>
	<path class="st13" d="M383.2,141.9c0,10.9-8.9,19.8-19.8,19.8c-1.5,0-3.1-0.2-4.6-0.5c-0.1-1.6-0.2-3.2-0.2-4.8v-33.7
		c1.5-0.4,3.1-0.6,4.7-0.6C374.3,122,383.2,130.9,383.2,141.9C383.2,141.8,383.2,141.8,383.2,141.9z"/>
	<path class="st14" d="M480.5,85.3v69.4c0,30.3-24.6,54.8-54.9,54.8c-30.3,0-54.8-24.5-54.8-54.8V85.3H480.5z"/>
	<path class="st15" d="M400.3,150c-2.4,0-4.3-1.9-4.3-4.3v-4.7c0.1-2.4,2.1-4.2,4.5-4.1c2.2,0.1,4,1.9,4.1,4.1v4.7
		C404.6,148,402.7,150,400.3,150z"/>
	<path class="st15" d="M451,150c-2.4,0-4.3-1.9-4.3-4.3v-4.7c0.1-2.4,2.1-4.2,4.5-4.1c2.2,0.1,4,1.9,4.1,4.1v4.7
		C455.3,148,453.4,150,451,150z"/>
	<path class="st13" d="M480.5,85.3v48.2l-18.4-3.1c-3.1-0.5-5.4-3.2-5.4-6.4v-7.2c0-1.2-0.9-2.3-2.1-2.4
		c-18.7-2.3-37.6-3.7-56.4-4.1c-1.4,0-2.5,1.1-2.5,2.4c0,0,0,0,0,0.1V124c0,3.2-2.3,5.9-5.5,6.4l-19.3,3V85.3H480.5z"/>
	<path class="st16" d="M493.9,62.2c-0.8,17.3-4.1,34.5-9.8,50.8c-1.1,3-2.2,6-3.5,9l-8.6-1.4c-0.8-0.1-1.6-0.5-2.3-1.1
		c-1.1-0.9-1.7-2.2-1.7-3.6V109c0-2.3-1.7-4.3-4-4.7c-9.7-1.5-36.5-5.1-74.8-5.4c-2.6,0-4.8,2.1-4.8,4.7c0,0,0,0,0,0v12.2
		c0,2.3-1.7,4.3-4,4.7l-9.5,1.5c0,0-16.7-56.5,12.4-66.8c0,0,3.7-13.6,18.5-13.6h87.5c1.2,0,2.4,0.5,3.3,1.3c2,1.9,1.5,5.4,1.5,7.9
		C494.2,54.7,494.1,58.5,493.9,62.2C493.8,62.8,494.2,55.4,493.9,62.2z"/>
	<path class="st17" d="M493.9,62.2c-0.8,17.3-4.1,34.5-9.8,50.8c-1.1,3-2.2,6-3.5,9l-8.6-1.4c-0.8-0.1-1.6-0.5-2.3-1.1
		c15.7-38.4,12.2-77.9,12.2-77.9h7.4c1.2,0,2.4,0.5,3.3,1.3c2,1.9,1.5,5.4,1.5,7.9C494.1,54.7,494,58.4,493.9,62.2
		C493.8,62.8,494.2,55.4,493.9,62.2z"/>
	<path class="st12" d="M344.3,313v24.7h-8.9V313c0.1-2.5,2.2-4.4,4.7-4.3C342.4,308.8,344.2,310.7,344.3,313L344.3,313z"/>
	<path class="st12" d="M515.9,313v24.7H507V313c0.1-2.5,2.2-4.4,4.7-4.3C513.9,308.8,515.8,310.7,515.9,313z"/>
	<path class="st12" d="M392.7,217.6l32.9,19.8l-12.2,25.1c-1.2,2.4-4,3.3-6.4,2.2c-0.5-0.2-0.9-0.6-1.3-1l-24.3-25
		c-1.3-1.3-1.7-3.3-1-5.1l5.4-13.7c1-2.4,3.7-3.6,6.2-2.7C392.3,217.4,392.5,217.5,392.7,217.6z"/>
	<path class="st12" d="M458.6,217.6l-32.9,19.8l12.3,25.1c1.2,2.4,4,3.3,6.4,2.2c0.5-0.2,0.9-0.6,1.3-1l24.3-25
		c1.3-1.3,1.7-3.3,1-5.1l-5.5-13.8c-1-2.4-3.8-3.6-6.2-2.6C459,217.4,458.8,217.5,458.6,217.6z"/>
	<path class="st16" d="M487.8,288.3l-17.9,8.1l14.5,32l7.8-6.6l10.1-1.5L487.8,288.3z"/>
	<path class="st4" d="M474.5,288.6l17.9,8.1l-14.5,32l-7.8-6.6l-10.1-1.4L474.5,288.6L474.5,288.6z"/>
	<path class="st18" d="M504.4,292.5c0,1.7-2.5,3.2-2.8,4.8s1.3,4,0.6,5.6s-3.6,1.7-4.6,3s-0.6,4.2-1.9,5.3s-3.9,0-5.4,0.7
		s-2.3,3.5-3.9,3.9s-3.5-1.8-5.1-1.8s-3.6,2.1-5.2,1.8s-2.4-3.2-3.9-3.9s-4.1,0.4-5.4-0.7s-0.8-4-1.9-5.3s-3.9-1.5-4.6-3
		s0.9-3.9,0.6-5.6s-2.9-3.1-2.9-4.8s2.5-3.2,2.8-4.8s-1.3-4-0.6-5.6s3.6-1.7,4.6-3s0.6-4.2,1.9-5.3s3.9,0,5.4-0.7s2.3-3.5,3.9-3.9
		s3.5,1.8,5.1,1.8s3.6-2.1,5.2-1.8s2.4,3.2,3.9,3.9s4.1-0.4,5.4,0.7s0.8,4,1.9,5.3s3.9,1.5,4.6,3s-0.9,3.9-0.6,5.6
		S504.4,290.8,504.4,292.5z"/>
	<path class="st19" d="M481.2,283.2c-5.1,0-9.3,4.2-9.3,9.3c0,5.1,4.2,9.3,9.3,9.3c5.1,0,9.3-4.2,9.3-9.3
		C490.5,287.4,486.3,283.2,481.2,283.2C481.2,283.2,481.2,283.2,481.2,283.2z M481.2,296.7c-2.3,0-4.2-1.9-4.2-4.2
		c0-2.3,1.9-4.2,4.2-4.2c2.3,0,4.2,1.9,4.2,4.2l0,0C485.4,294.8,483.5,296.7,481.2,296.7C481.2,296.7,481.2,296.7,481.2,296.7z
		 M481.2,275.8c-9.2,0-16.7,7.5-16.7,16.7s7.5,16.7,16.7,16.7s16.7-7.5,16.7-16.7C497.9,283.3,490.4,275.8,481.2,275.8
		C481.2,275.8,481.2,275.8,481.2,275.8z M481.2,306.4c-7.7,0-13.9-6.2-13.9-13.9c0-7.7,6.2-13.9,13.9-13.9c7.7,0,13.9,6.2,13.9,13.9
		l0,0C495.1,300.2,488.9,306.4,481.2,306.4C481.2,306.4,481.2,306.4,481.2,306.4z"/>
	<g id="_Group_">
		<path id="_Path__1_" class="st9" d="M591.6-3C544.5-3,506,25.4,506,60.2c0,27.3,23,50.3,55.3,59.3l-9.7,35.6l28.8-32
			c3.6,0.4,7.5,0.7,11.1,0.7c47.1,0,85.2-28.4,85.2-63.3C676.8,25.4,638.7-3,591.6-3z"/>
		<path id="_Compound_Path_" class="st6" d="M591.6,120.6c23,0,43.5-6.8,58.6-18c14.7-10.8,23.7-25.9,23.7-42.4s-9-31.6-23.7-42.4
			c-15.1-11.1-35.6-18-58.6-18v-5.7c24.1,0,46,7.2,62.2,19S680,41.9,680,60.2s-10.1,35.2-26.2,47.1c-15.8,11.9-37.7,19.1-62.2,19.1
			V120.6L591.6,120.6z M591.6-0.1c-23,0-43.5,6.8-58.6,18c-14.7,10.8-23.7,25.8-23.7,42.4c0,12.6,5.4,24.4,14.4,34.2
			c9.4,10.1,23,18,38.8,22.6c1.5,0.5,2.4,2,2.2,3.6l0,0l-6.5,23.4l20.5-22.6c0.7-0.7,1.6-1,2.5-1.1c1.8,0,3.6,0.4,5.4,0.4h5.4v5.8
			h-5.8c-1.4,0.1-2.9-0.1-4.3-0.4l-28.4,30.9l0,0c-0.7,0.8-1.9,1.1-2.9,0.7c-1.5-0.5-2.4-2-2.2-3.6l9-32.7
			c-15.8-5-29.1-12.9-38.8-23.4c-10.1-10.8-15.8-23.7-15.8-38.1c0-18.3,10.1-35.2,26.2-47.1c15.8-11.9,37.7-19.1,62.2-19.1l0,0v6.1
			L591.6-0.1z"/>
	</g>
</g>
<g>
	<circle class="st8" cx="591.4" cy="60.2" r="40.6"/>
	<path class="st9" d="M618.9,46.4l-4.4-4.4c-0.6-0.6-1.3-0.9-2.1-0.9l0,0c-0.8,0-1.6,0.3-2.1,0.9l-25.3,25.3l-11.5-11.6
		c-0.6-0.6-1.3-0.9-2.1-0.9l0,0c-0.8,0-1.6,0.3-2.1,0.9l-4.4,4.4c-1.2,1.2-1.2,3.1,0,4.3c0,0,0,0,0,0l18.1,18.1
		c1.2,1.2,3.1,1.2,4.3,0c0,0,0,0,0,0l31.4-31.4l0.4-0.4C620.1,49.5,620.1,47.6,618.9,46.4z"/>
</g>
</svg>
