<?xml version="1.0" encoding="utf-8"?>
<!-- Generator: Adobe Illustrator 19.1.1, SVG Export Plug-In . SVG Version: 6.00 Build 0)  -->
<svg version="1.1" id="Layer_1" xmlns="http://www.w3.org/2000/svg" xmlns:xlink="http://www.w3.org/1999/xlink" x="0px" y="0px"
	 viewBox="132 -53.8 548 390.3" style="enable-background:new 132 -53.8 548 390.3;" xml:space="preserve">
<style type="text/css">
	.st0{fill:#95C8EC;}
	.st1{fill:#CBEAFB;}
	.st2{fill:#90A4AE;}
	.st3{fill:#E4F2FB;}
	.st4{fill:#B0BEC5;}
	.st5{fill:#70B2E2;}
	.st6{fill:#81C784;}
	.st7{fill:#F4AE7A;}
	.st8{fill:#71BE71;}
	.st9{fill:#B3B3B3;}
	.st10{fill:#57A7DB;}
	.st11{fill:#71BE72;}
	.st12{fill:#57A0D7;}
	.st13{fill:#3D82C4;}
	.st14{opacity:0.71;}
	.st15{opacity:0.71;fill:#BDDDF4;enable-background:new    ;}
	.st16{opacity:0.3;fill:#F1F2F2;enable-background:new    ;}
	.st17{fill:#FBE4D4;}
	.st18{fill:#E8E8E8;}
	.st19{fill:#58A6DA;}
	.st20{fill:#FFFFFF;}
	.st21{fill:none;stroke:#D0D8DC;stroke-width:4;stroke-miterlimit:10;}
</style>
<title>Disrupted-on-premises and cloud environments</title>
<path id="_Path_6" class="st0" d="M494.1,41.7c0.9-3.7,1.4-7.5,1.4-11.3c-0.1-25-20.3-45.3-45.3-45.4c-7.8-28.2-37.1-44.7-65.3-36.8
	c-20.8,5.8-36,23.6-38.5,45.1h-2.6c-29.1-0.4-53,22.8-53.4,51.9s22.8,53,51.9,53.4c0.5,0,1,0,1.5,0h148.9
	c15.7,0.1,28.5-12.5,28.7-28.2C521.6,54.9,509.5,42.2,494.1,41.7z"/>
<path id="_Path_7" class="st1" d="M460.3,73.8c0.6-2.3,0.9-4.6,0.9-7c0-15.5-12.5-28-28-28.1c-4.9-17.4-23-27.6-40.4-22.7
	c-12.8,3.6-22.1,14.6-23.7,27.7h-1.6c-18,0-32.5,14.6-32.5,32.5c0,18,14.6,32.5,32.5,32.5c0,0,0,0,0,0h92c9.7,0,17.6-7.9,17.5-17.6
	C477,81.9,469.7,74.2,460.3,73.8L460.3,73.8z"/>
<g>
	<path class="st2" d="M341.4,78.3H271c-5.1,0-9.1,4.1-9.2,9.2v133.9c0,5.1,4.1,9.1,9.2,9.2h70.4c5.1,0,9.1-4.1,9.2-9.2V87.5
		c0-5-4-9.1-9.1-9.2C341.4,78.3,341.4,78.3,341.4,78.3z"/>
	<path class="st2" d="M441.2,78.3h-70.4c-5.1,0-9.1,4.1-9.2,9.2v133.9c0,5.1,4.1,9.1,9.2,9.2h70.4c5.1,0,9.1-4.1,9.2-9.2V87.5
		c0-5-4-9.1-9.1-9.2C441.3,78.3,441.2,78.3,441.2,78.3z"/>
	<path class="st2" d="M541,78.3h-70.4c-5.1,0-9.1,4.1-9.2,9.2v133.9c0,5.1,4.1,9.1,9.2,9.2H541c5.1,0,9.1-4.1,9.2-9.2V87.5
		c0-5-4-9.1-9.1-9.2C541.1,78.3,541.1,78.3,541,78.3z"/>
	<rect x="276.7" y="93.1" class="st3" width="58.8" height="122.8"/>
	<rect x="376.5" y="93.1" class="st3" width="58.8" height="122.8"/>
	<rect x="476.3" y="93.1" class="st3" width="58.8" height="122.8"/>
	<path class="st4" d="M330.5,177.7h-48.8V210h48.8V177.7z M325.8,205h-39.5v-22.3h39.5V205z"/>
	<rect x="316.5" y="186.5" class="st0" width="4.7" height="14.7"/>
	<rect x="308.7" y="186.5" class="st5" width="5" height="14.7"/>
	<path class="st6" d="M296.2,201.5c4.4-0.4,7.6-4.4,7.2-8.8c-0.4-3.8-3.4-6.8-7.2-7.2c-4.3-0.1-7.9,3.3-8,7.7c0,0.1,0,0.2,0,0.3
		C288.3,198,291.8,201.5,296.2,201.5z M296.2,190.6c1.6,0,2.9,1.3,2.9,2.9c0,1.6-1.3,2.9-2.9,2.9c0,0,0,0,0,0
		c-1.6,0-2.9-1.3-2.9-2.9C293.3,192,294.6,190.6,296.2,190.6C296.2,190.6,296.2,190.6,296.2,190.6z"/>
	<path class="st4" d="M330.5,138.6h-48.8v32.2h48.8V138.6z M325.8,165.7h-39.5v-22.5h39.5V165.7z"/>
	<rect x="316.5" y="147" class="st0" width="4.7" height="14.7"/>
	<rect x="308.7" y="147" class="st5" width="5" height="14.7"/>
	<path class="st6" d="M296.2,162.3c4.4,0,8-3.5,8-7.9c0,0,0-0.1,0-0.1c-0.4-4.4-4.4-7.6-8.8-7.2c-3.8,0.4-6.8,3.4-7.2,7.2
		C288.3,158.6,291.8,162.2,296.2,162.3z M296.2,151.4c1.6,0,2.9,1.3,2.9,2.9s-1.3,2.9-2.9,2.9s-2.9-1.3-2.9-2.9
		C293.3,152.7,294.6,151.4,296.2,151.4C296.2,151.4,296.2,151.4,296.2,151.4z"/>
	<path class="st4" d="M330.5,99.1h-48.8v32.2h48.8V99.1z M325.8,126.3h-39.5v-22.5h39.5V126.3z"/>
	<rect x="316.5" y="107.6" class="st0" width="4.7" height="14.7"/>
	<rect x="308.7" y="107.6" class="st5" width="5" height="14.7"/>
	<path class="st6" d="M296.2,122.8c4.4-0.4,7.6-4.4,7.2-8.8c-0.4-3.8-3.4-6.8-7.2-7.2c-4.3-0.1-7.9,3.3-8,7.7c0,0.1,0,0.2,0,0.3
		C288.3,119.3,291.8,122.8,296.2,122.8z M296.2,111.9c1.6,0,2.9,1.3,2.9,2.9s-1.3,2.9-2.9,2.9c-1.6,0-2.9-1.3-2.9-2.9
		c-0.1-1.6,1.1-2.9,2.6-3C296,111.9,296.1,111.9,296.2,111.9L296.2,111.9z"/>
	<path class="st4" d="M430.3,177.7h-48.8V210h48.8V177.7z M425.6,205h-39.5v-22.3h39.5L425.6,205z"/>
	<rect x="416.3" y="186.5" class="st0" width="4.7" height="14.7"/>
	<rect x="408.5" y="186.5" class="st5" width="5" height="14.7"/>
	<path class="st6" d="M396,201.5c4.4,0,8-3.6,8-8s-3.6-8-8-8s-8,3.6-8,8S391.6,201.5,396,201.5z M396,190.6c1.6,0,2.9,1.3,2.9,2.9
		c0,1.6-1.3,2.9-2.9,2.9c0,0,0,0,0,0c-1.6,0-2.9-1.3-2.9-2.9C393.1,192,394.4,190.6,396,190.6C396,190.6,396,190.6,396,190.6z"/>
	<path class="st4" d="M430.3,138.6h-48.8v32.2h48.8V138.6z M425.6,165.7h-39.5v-22.5h39.5L425.6,165.7z"/>
	<rect x="416.3" y="147" class="st0" width="4.7" height="14.7"/>
	<rect x="408.5" y="147" class="st5" width="5" height="14.7"/>
	<path class="st6" d="M396,162.3c4.4,0,8-3.5,8-7.9c0,0,0-0.1,0-0.1c0.1-4.3-3.3-7.9-7.7-8c-0.1,0-0.2,0-0.3,0c-4.4,0-8,3.5-8,7.9
		c0,0,0,0.1,0,0.1C388,158.7,391.6,162.3,396,162.3z M396,151.4c1.6,0,2.9,1.3,2.9,2.9s-1.3,2.9-2.9,2.9s-2.9-1.3-2.9-2.9
		C393.1,152.7,394.4,151.4,396,151.4C396,151.4,396,151.4,396,151.4z"/>
	<path class="st4" d="M430.3,99.1h-48.8v32.2h48.8V99.1z M425.6,126.3h-39.5v-22.5h39.5L425.6,126.3z"/>
	<rect x="416.3" y="107.6" class="st0" width="4.7" height="14.7"/>
	<rect x="408.5" y="107.6" class="st5" width="5" height="14.7"/>
	<path class="st6" d="M396,122.8c4.4,0,8-3.6,8-8s-3.6-8-8-8s-8,3.6-8,8S391.6,122.8,396,122.8z M396,111.9c1.6,0,3,1.3,3,2.9
		c0,1.6-1.3,3-2.9,3c-1.6,0-3-1.3-3-2.9c0,0,0,0,0,0c-0.1-1.6,1.1-2.9,2.6-3C395.9,111.9,396,111.9,396,111.9L396,111.9z"/>
	<path class="st4" d="M530.1,177.7h-48.8V210h48.8V177.7z M525.5,205H486v-22.3h39.5L525.5,205z"/>
	<rect x="516.1" y="186.5" class="st0" width="4.7" height="14.7"/>
	<rect x="508.3" y="186.5" class="st5" width="5" height="14.7"/>
	<path class="st6" d="M495.9,201.5c4.4,0,8-3.6,8-8s-3.6-8-8-8s-8,3.6-8,8S491.5,201.5,495.9,201.5z M495.9,190.6
		c1.6,0,2.9,1.3,2.9,2.9c0,1.6-1.3,2.9-2.9,2.9c0,0,0,0,0,0c-1.6,0-2.9-1.3-2.9-2.9C492.9,192,494.2,190.6,495.9,190.6
		C495.9,190.6,495.9,190.6,495.9,190.6z"/>
	<path class="st4" d="M530.1,138.6h-48.8v32.2h48.8V138.6z M525.5,165.7H486v-22.5h39.5L525.5,165.7z"/>
	<rect x="516.1" y="147" class="st0" width="4.7" height="14.7"/>
	<rect x="508.3" y="147" class="st5" width="5" height="14.7"/>
	<path class="st6" d="M495.9,162.3c4.4,0,8-3.5,8-7.9c0,0,0-0.1,0-0.1c0.1-4.3-3.3-7.9-7.7-8c-0.1,0-0.2,0-0.3,0c-4.4,0-8,3.5-8,7.9
		c0,0,0,0.1,0,0.1C487.9,158.7,491.5,162.3,495.9,162.3z M495.9,151.4c1.6,0,2.9,1.3,2.9,2.9s-1.3,2.9-2.9,2.9s-2.9-1.3-2.9-2.9
		C492.9,152.7,494.2,151.4,495.9,151.4C495.9,151.4,495.9,151.4,495.9,151.4z"/>
	<path class="st4" d="M530.1,99.1h-48.8v32.2h48.8V99.1z M525.5,126.3H486v-22.5h39.5L525.5,126.3z"/>
	<rect x="516.1" y="107.6" class="st0" width="4.7" height="14.7"/>
	<rect x="508.3" y="107.6" class="st5" width="5" height="14.7"/>
	<path class="st6" d="M495.9,122.8c4.4,0,8-3.6,8-8s-3.6-8-8-8s-8,3.6-8,8S491.5,122.8,495.9,122.8z M495.9,111.9
		c1.6,0,2.9,1.3,2.9,2.9s-1.3,2.9-2.9,2.9s-2.9-1.3-2.9-2.9c-0.1-1.6,1.1-2.9,2.7-3C495.7,111.9,495.8,111.9,495.9,111.9
		L495.9,111.9z"/>
</g>
<g>
	<path class="st3" d="M553.6,124h85.6c6.1,0,11.2,5,11.2,11.2c0,6.1-5,11.2-11.2,11.2h-85.6c-6.1,0-11.2-5-11.2-11.2
		C542.5,129,547.5,124,553.6,124z"/>
	<path class="st7" d="M564.9,135.2c0,6.1-5,11.2-11.2,11.2s-11.2-5-11.2-11.2s5-11.2,11.2-11.2l0,0
		C559.9,124,564.9,129.1,564.9,135.2z"/>
	<path class="st3" d="M639.3,108h-85.7c-6.1,0-11.2-5-11.2-11.2s5-11.2,11.2-11.2l0,0h85.6c6.1,0,11.2,5,11.2,11.2
		S645.5,108,639.3,108L639.3,108z"/>
	<path class="st8" d="M650.4,96.8c0,6.1-5,11.2-11.2,11.2S628,103,628,96.8s5-11.2,11.2-11.2l0,0C645.3,85.7,650.4,90.6,650.4,96.8z
		"/>
	<path class="st3" d="M639.2,184.8H555c-6.1,0-11.2-5-11.2-11.2c0-6.1,5-11.2,11.2-11.2h40.7h43.4c6.1,0,11.2,5,11.2,11.2
		C650.4,179.7,645.3,184.8,639.2,184.8L639.2,184.8z"/>
	<path class="st9" d="M650.4,173.6c0,6.1-5,11.2-11.2,11.2s-11.2-5-11.2-11.2s5-11.2,11.2-11.2l0,0
		C645.3,162.4,650.4,167.3,650.4,173.6z"/>
	<path class="st10" d="M651.8,336.5c1.2,0,2.2-1,2.3-2.2v-0.1l-1-109.8v-0.5c0-0.9,0.5-1.6,1.2-2c15.7-7.9,21.9-27.1,14-42.8
		c-1.9-3.8-4.7-7.2-7.9-10c-1.1-1-2.9-0.9-3.9,0.3c-0.4,0.5-0.7,1.1-0.7,1.8v20.5c0,0.8-0.5,1.6-1.2,1.9l-13.7,7.1
		c-0.6,0.3-1.4,0.3-2,0l-13.8-7.1c-0.7-0.4-1.2-1.1-1.2-1.9v-20.5c0-1.1-0.6-2.1-1.6-2.5c-1-0.5-2.1-0.3-2.9,0.4
		c-13.5,11.3-15.2,31.4-3.9,44.9c2.7,3.3,6.1,6,10,7.9c0.7,0.4,1.3,1.1,1.2,2v0.5l-0.7,109.7c0,1.2,0.9,2.3,2.1,2.3c0,0,0,0,0.1,0
		L651.8,336.5z"/>
</g>
<g>
	<circle class="st11" cx="256.4" cy="155.5" r="33.4"/>
	<g id="_Group__1_">
		<path id="_Path_2-2" class="st12" d="M174.6,29.8L174.6,29.8c-6.4,4.1-8.3,12.6-4.1,19c0,0,0,0,0,0.1l32.4,50.2
			c4.1,6.4,12.6,8.3,19,4.2l0.1-0.1l0,0c6.4-4.1,8.3-12.6,4.2-19l-0.1-0.1l-32.4-50.2c-4-6.4-12.3-8.3-18.7-4.4
			C174.9,29.6,174.8,29.7,174.6,29.8z"/>
		<path id="_Path_3-2" class="st0" d="M173.6,35.6c-2.4,1.6-3.1,4.8-1.5,7.2c0,0,0,0,0,0.1l32.4,50.2c1.5,2.4,4.8,3.1,7.2,1.6
			l0.1-0.1c2.4-1.5,3.2-4.6,1.7-7c-0.1-0.1-0.1-0.2-0.2-0.3l-32.4-50.2C179.6,34.7,176.2,34.1,173.6,35.6z"/>
		<g id="_Group_2">
			<path id="_Path_4-2" class="st13" d="M217.6,96.7c-3.2,2.1-4.1,6.4-2,9.6l0,0l6.8,10.2c2.1,3.2,6.4,4.1,9.6,2l0,0
				c3.2-2.1,4.1-6.4,2-9.6l-6.8-10.2C225.1,95.5,220.9,94.6,217.6,96.7z"/>
		</g>
		<path class="st10" d="M308.8,166.9c-6.3,29.1-35,47.6-64.1,41.3h-0.1c-29.1-6.4-47.6-35-41.5-64.2c3-14.1,11.5-26.4,23.7-34.1l0,0
			c12-7.8,26.6-10.4,40.6-7.3c14,3,26.3,11.5,34,23.6C309.1,138.3,311.7,152.9,308.8,166.9z M289.7,133.9
			c-11.9-18.6-36.7-24.1-55.3-12.2c-0.1,0-0.1,0.1-0.2,0.1l0,0c-9,5.7-15.4,14.8-17.6,25.3c-4.6,21.7,9.2,43.2,30.7,47.8
			c10.4,2.2,21.3,0.3,30.2-5.5C296.2,177.4,301.7,152.6,289.7,133.9L289.7,133.9z"/>
		<g id="_Group_3" class="st14">
			<path id="_Path_5-2" class="st15" d="M277.5,189.4c-18.6,12-43.5,6.7-55.5-12c-5.8-9-7.8-19.9-5.5-30.3
				c2.2-10.5,8.6-19.6,17.6-25.3l0,0c18.6-12,43.4-6.7,55.4,11.9c0,0.1,0.1,0.1,0.1,0.2c12,18.6,6.7,43.4-11.9,55.4
				C277.7,189.3,277.6,189.4,277.5,189.4z"/>
		</g>
		<path id="_Path_6_1_" class="st16" d="M289.6,133.9c5.8,8.9,7.8,19.8,5.5,30.2c-0.6,2.9-1.6,5.8-2.9,8.5
			c-2.9,3.9-6.5,7.2-10.6,9.9c-18.6,12-43.4,6.6-55.4-12c-5.8-9-7.8-19.9-5.5-30.3c0.6-2.9,1.6-5.8,2.9-8.5
			c2.9-3.9,6.5-7.2,10.6-9.9l0,0c18.5-12,43.2-6.7,55.2,11.8C289.5,133.7,289.6,133.8,289.6,133.9L289.6,133.9z"/>
	</g>
	<g id="_Group_4">
		<g id="_Group_5">
			<g id="_Group_6">
				<g id="_Group_7">
					<path id="_Path_7_1_" class="st17" d="M146.8,57.4c4.4,9.4,9.9,9.4,9.9,9.4c4.6,15.5,12.3,16.4,12.3,16.4
						c3.5,13.7,11.4,11.3,11.4,11.3c1.2,17.9,9.9,21.3,15.5,18.1c2.1-1.1,3.7-3,4.4-5.3c3.1-9.1,4.9-42.2,8-42.2
						s13.1,10.8,13.1,10.8s12.3-31.4,8.7-39.9S198.9-9.7,198.9-9.7c-1-0.1-2.1-0.2-3.1-0.2c-9.5-0.8-38.9-3.1-41.8-1.7
						c-3.5,1.7-10.7,34.8-11.4,41.3C141.7,36,142.2,48.1,146.8,57.4z"/>
					<g id="_Group_8">
						<polygon id="_Path_8" class="st0" points="192.9,-15.2 210.8,-15.2 210.8,-52.7 192.9,-52.7 132,-52.7 132,-15.2 						"/>
						<polygon id="_Path_9" class="st18" points="190.7,-8.1 205,-8.1 205,-15.2 190.7,-15.2 142.2,-15.2 142.2,-8.1 						"/>
					</g>
				</g>
			</g>
		</g>
		<polygon id="_Path_10" class="st19" points="201.8,-15.2 210.8,-15.2 210.8,-52.7 201.8,-52.7 171.4,-52.7 171.4,-15.2 		"/>
	</g>
	<path class="st20" d="M251.8,164.8l-0.1-1.6c-0.4-3.3,0.7-7,3.8-10.7c2.8-3.3,4.3-5.7,4.3-8.5c0-3.2-2-5.3-5.9-5.3
		c-2.2,0-4.4,0.6-6.3,1.9l-1.5-3.9c2-1.5,5.6-2.5,8.9-2.5c7.1,0,10.3,4.4,10.3,9.1c0,4.2-2.4,7.2-5.3,10.8c-2.7,3.2-3.7,5.9-3.5,9.1
		l0.1,1.6L251.8,164.8z M250.4,173.4c-0.2-2,1.4-3.8,3.4-4s3.8,1.4,4,3.4c0,0.2,0,0.4,0,0.5c0,2-1.7,3.7-3.7,3.7
		S250.5,175.5,250.4,173.4L250.4,173.4z"/>
</g>
<path class="st21" d="M290.5,283.9h105c5.8,0,10.5-4.7,10.5-10.5v-38.3"/>
<path id="XMLID_1960_" class="st10" d="M193.9,318.7l-2.7-2.9c1.5-2.3,2.5-4.7,3.3-7.3l3.8,0.1c2.3,0.1,4.4-1.8,4.5-4.3l0.2-4.8
	c0.1-2.3-1.8-4.4-4.3-4.5l-3.8-0.1c-0.7-2.7-1.5-5.1-2.9-7.4l2.9-2.7c1.7-1.7,1.8-4.4,0.2-6.2l-3.3-3.6c-1.6-1.7-4.5-1.8-6.2-0.2
	l-2.9,2.7c-2.3-1.5-4.7-2.5-7.3-3.3l0.1-3.7c0.1-2.3-1.8-4.4-4.3-4.5l-5-0.1c-2.3-0.1-4.4,1.8-4.5,4.3l-0.1,3.8
	c-2.8,0.6-5.1,1.5-7.5,2.9l-2.7-2.9c-1.6-1.7-4.5-1.8-6.2-0.2l-3.6,3.3c-0.8,0.8-1.4,1.8-1.4,3.1c0,1.2,0.3,2.3,1.2,3.1l2.7,2.9
	c-1.5,2.3-2.5,4.7-3.3,7.3l-3.8-0.1c-2.3-0.1-4.4,1.8-4.5,4.3l-0.2,4.8c-0.1,2.3,1.8,4.4,4.3,4.5l3.8,0.1c0.6,2.8,1.5,5.1,2.9,7.5
	l-2.9,2.7c-0.8,0.8-1.4,1.8-1.4,3.1c0,1.2,0.3,2.3,1.2,3.1l3.3,3.6c0.8,0.8,1.8,1.4,3.1,1.4c1.2,0,2.3-0.3,3.1-1.2l2.9-2.7
	c2.3,1.5,4.7,2.5,7.3,3.3l-0.1,3.7c-0.1,2.3,1.8,4.4,4.3,4.5l4.8,0.2c2.3,0.1,4.4-1.8,4.5-4.3l0.1-3.8c2.8-0.6,5.1-1.5,7.5-2.9
	l2.7,2.9c0.8,0.8,1.8,1.4,3.1,1.4c1.2,0,2.3-0.3,3.1-1.2l3.6-3.3C195.6,323.4,195.6,320.5,193.9,318.7z M167.3,318.3
	c-2.5-0.1-5-0.7-7.2-1.7c-6-3-9.7-9.2-9.6-15.9c0.2-9.6,8.3-17,17.9-16.7c2.5,0.1,5,0.7,7.2,1.7c6,3,9.7,9.2,9.6,15.9
	C184.9,311.1,176.9,318.5,167.3,318.3z"/>
<path id="XMLID_1_" class="st11" d="M277,305.4l-3.2-3.5c1.8-2.8,3.1-5.8,4.1-8.9l4.6,0.1c2.8,0.1,5.3-2.3,5.5-5.2l0.3-5.9
	c0.1-2.8-2.3-5.3-5.2-5.5l-4.6-0.1c-0.7-3.4-1.8-6.2-3.5-9.1l3.5-3.2c2.1-2.1,2.3-5.3,0.3-7.6l-4.1-4.4c-2-2.1-5.5-2.3-7.6-0.3
	l-3.5,3.2c-2.8-1.8-5.8-3.1-8.9-4.1l0.1-4.5c0.1-2.8-2.3-5.3-5.2-5.5l-6-0.1c-2.8-0.1-5.3,2.3-5.5,5.2l-0.1,4.6
	c-3.4,0.7-6.2,1.8-9.1,3.5l-3.2-3.5c-2-2.1-5.5-2.3-7.6-0.3l-4.4,4.1c-1,1-1.7,2.3-1.7,3.8c0,1.4,0.4,2.8,1.4,3.8l3.2,3.5
	c-1.8,2.8-3.1,5.8-4.1,8.9l-4.6-0.1c-2.8-0.1-5.3,2.3-5.5,5.2l-0.3,5.9c-0.1,2.8,2.3,5.3,5.2,5.5l4.6,0.1c0.7,3.4,1.8,6.2,3.5,9.1
	l-3.5,3.2c-1,1-1.7,2.3-1.7,3.8c0,1.4,0.4,2.8,1.4,3.8l4.1,4.4c1,1,2.3,1.7,3.8,1.7c1.4,0,2.8-0.4,3.8-1.4l3.5-3.2
	c2.8,1.8,5.8,3.1,8.9,4.1l-0.1,4.6c-0.1,2.8,2.3,5.3,5.2,5.5l5.9,0.3c2.8,0.1,5.3-2.3,5.5-5.2l0.1-4.6c3.4-0.7,6.2-1.8,9.1-3.5
	l3.2,3.5c1,1,2.3,1.7,3.8,1.7c1.4,0,2.8-0.4,3.8-1.4l4.4-4.1C279,311,279,307.5,277,305.4z M244.6,304.8c-3.1-0.1-6-0.8-8.7-2.1
	c-7.3-3.7-11.8-11.3-11.7-19.4c0.3-11.7,10.1-20.7,21.8-20.4c3.1,0.1,6,0.8,8.7,2.1c7.3,3.7,11.8,11.3,11.7,19.4
	C266.1,296.1,256.2,305.1,244.6,304.8z"/>
<g id="XMLID_5_">
	<polygon id="XMLID_6_" class="st4" points="419,252.2 405.8,229.5 392.7,252.2 	"/>
</g>
</svg>
