<?xml version="1.0" encoding="utf-8"?>
<!-- Generator: Adobe Illustrator 19.1.1, SVG Export Plug-In . SVG Version: 6.00 Build 0)  -->
<svg version="1.1" id="Layer_1" xmlns="http://www.w3.org/2000/svg" xmlns:xlink="http://www.w3.org/1999/xlink" x="0px" y="0px"
	 viewBox="132 -53.8 548 390.3" style="enable-background:new 132 -53.8 548 390.3;" xml:space="preserve">
<style type="text/css">
	.st0{fill:none;stroke:#D0D8DC;stroke-width:4;stroke-miterlimit:10;}
	.st1{fill:#90A4AE;}
	.st2{fill:#E4F2FB;}
	.st3{fill:#B0BEC5;}
	.st4{fill:#95C8EC;}
	.st5{fill:#70B2E2;}
	.st6{fill:#81C784;}
	.st7{fill:#FFFFFF;}
	.st8{fill:#57A7DB;}
	.st9{fill:#71BE71;stroke:#FFFFFF;stroke-width:2.03;stroke-miterlimit:10;}
	.st10{fill:#F4AE7A;}
	.st11{fill:#57A0D7;}
	.st12{fill:#3D82C4;}
	.st13{opacity:0.71;}
	.st14{opacity:0.71;fill:#BDDDF4;enable-background:new    ;}
	.st15{opacity:0.3;fill:#F1F2F2;enable-background:new    ;}
	.st16{fill:#FBE4D4;}
	.st17{fill:#E8E8E8;}
	.st18{fill:#58A6DA;}
	.st19{fill:#CDD2E1;}
	.st20{fill:#333940;}
</style>
<path class="st0" d="M228.8,195.9v75c0,6.8,5.5,12.2,12.2,12.2h352V70"/>
<title>Disrupted-on-premises and cloud environments</title>
<g>
	<path class="st1" d="M313.5,111.4h-56.9c-4.1,0-7.4,3.3-7.4,7.4V227c0,4.1,3.3,7.4,7.4,7.4h56.9c4.1,0,7.4-3.3,7.4-7.4V118.8
		C320.9,114.7,317.6,111.4,313.5,111.4C313.5,111.4,313.5,111.4,313.5,111.4z"/>
	<path class="st1" d="M394.2,111.4h-56.9c-4.1,0-7.4,3.3-7.4,7.4V227c0,4.1,3.3,7.4,7.4,7.4h56.9c4.1,0,7.4-3.3,7.4-7.4V118.8
		C401.6,114.7,398.3,111.4,394.2,111.4C394.2,111.4,394.2,111.4,394.2,111.4z"/>
	<path class="st1" d="M474.9,111.4H418c-4.1,0-7.4,3.3-7.4,7.4V227c0,4.1,3.3,7.4,7.4,7.4h56.9c4.1,0,7.4-3.3,7.4-7.4V118.8
		C482.3,114.7,479,111.4,474.9,111.4C474.9,111.4,474.9,111.4,474.9,111.4z"/>
	<rect x="261.2" y="123.3" class="st2" width="47.5" height="99.3"/>
	<rect x="341.9" y="123.3" class="st2" width="47.5" height="99.3"/>
	<rect x="422.6" y="123.3" class="st2" width="47.5" height="99.3"/>
	<path class="st3" d="M304.7,191.6h-39.4v26.1h39.4V191.6z M300.9,213.7H269v-18h31.9V213.7z"/>
	<rect x="293.4" y="198.8" class="st4" width="3.8" height="11.9"/>
	<rect x="287.1" y="198.8" class="st5" width="4.1" height="11.9"/>
	<path class="st6" d="M277,210.9c3.6-0.4,6.1-3.5,5.8-7.1c-0.3-3.1-2.7-5.5-5.8-5.8c-3.5-0.1-6.4,2.7-6.5,6.2c0,0.1,0,0.2,0,0.3
		C270.6,208.1,273.5,210.9,277,210.9z M277,202.1c1.3,0,2.3,1.1,2.4,2.4c0,1.3-1,2.4-2.3,2.4c0,0,0,0,0,0c-1.3,0-2.4-1.1-2.4-2.4
		C274.6,203.2,275.7,202.1,277,202.1C277,202.1,277,202.1,277,202.1z"/>
	<path class="st3" d="M304.7,160h-39.4v26h39.4V160z M300.9,182H269v-18.2h31.9V182z"/>
	<rect x="293.4" y="166.9" class="st4" width="3.8" height="11.9"/>
	<rect x="287.1" y="166.9" class="st5" width="4.1" height="11.9"/>
	<path class="st6" d="M277,179.2c3.5,0,6.4-2.8,6.5-6.4c0,0,0-0.1,0-0.1c-0.4-3.6-3.5-6.1-7.1-5.8c-3.1,0.3-5.5,2.7-5.8,5.8
		C270.6,176.3,273.5,179.1,277,179.2z M277,170.4c1.3,0,2.4,1.1,2.4,2.4s-1.1,2.4-2.4,2.4s-2.4-1.1-2.4-2.4
		C274.6,171.4,275.7,170.4,277,170.4C277,170.4,277,170.4,277,170.4z"/>
	<path class="st3" d="M304.7,128.1h-39.4v26h39.4V128.1z M300.9,150.1H269v-18.2h31.9V150.1z"/>
	<rect x="293.4" y="135" class="st4" width="3.8" height="11.9"/>
	<rect x="287.1" y="135" class="st5" width="4.1" height="11.9"/>
	<path class="st6" d="M277,147.3c3.6-0.4,6.1-3.5,5.8-7.1c-0.3-3.1-2.7-5.5-5.8-5.8c-3.5-0.1-6.4,2.7-6.5,6.2c0,0.1,0,0.2,0,0.3
		C270.6,144.4,273.5,147.3,277,147.3z M277,138.5c1.3,0,2.4,1.1,2.4,2.4c0,1.3-1.1,2.4-2.4,2.4c-1.3,0-2.4-1-2.4-2.4
		c-0.1-1.3,0.9-2.3,2.1-2.4C276.8,138.5,276.9,138.5,277,138.5L277,138.5z"/>
	<path class="st3" d="M385.4,191.6h-39.4v26.1h39.4V191.6z M381.6,213.7h-31.9v-18h31.9L381.6,213.7z"/>
	<rect x="374" y="198.8" class="st4" width="3.8" height="11.9"/>
	<rect x="367.8" y="198.8" class="st5" width="4.1" height="11.9"/>
	<path class="st6" d="M357.7,210.9c3.6,0,6.5-2.9,6.5-6.5s-2.9-6.5-6.5-6.5s-6.5,2.9-6.5,6.5S354.1,210.9,357.7,210.9z M357.7,202.1
		c1.3,0,2.4,1.1,2.4,2.4c0,1.3-1,2.4-2.3,2.4c0,0,0,0,0,0c-1.3,0-2.4-1.1-2.4-2.4C355.3,203.2,356.3,202.1,357.7,202.1
		C357.7,202.1,357.7,202.1,357.7,202.1z"/>
	<path class="st3" d="M385.4,160h-39.4v26h39.4V160z M381.6,182h-31.9v-18.2h31.9L381.6,182z"/>
	<rect x="374" y="166.9" class="st4" width="3.8" height="11.9"/>
	<rect x="367.8" y="166.9" class="st5" width="4.1" height="11.9"/>
	<path class="st6" d="M357.7,179.2c3.5,0,6.4-2.8,6.5-6.4c0,0,0-0.1,0-0.1c0.1-3.5-2.7-6.4-6.2-6.5c-0.1,0-0.2,0-0.3,0
		c-3.5,0-6.4,2.8-6.5,6.4c0,0,0,0.1,0,0.1C351.2,176.3,354.1,179.2,357.7,179.2z M357.7,170.4c1.3,0,2.4,1.1,2.4,2.4
		s-1.1,2.4-2.4,2.4s-2.4-1.1-2.4-2.4C355.3,171.4,356.3,170.4,357.7,170.4C357.7,170.4,357.7,170.4,357.7,170.4z"/>
	<path class="st3" d="M385.4,128.1h-39.4v26h39.4V128.1z M381.6,150.1h-31.9v-18.2h31.9L381.6,150.1z"/>
	<rect x="374" y="135" class="st4" width="3.8" height="11.9"/>
	<rect x="367.8" y="135" class="st5" width="4.1" height="11.9"/>
	<path class="st6" d="M357.7,147.3c3.6,0,6.5-2.9,6.5-6.5s-2.9-6.5-6.5-6.5s-6.5,2.9-6.5,6.5S354.1,147.3,357.7,147.3z M357.7,138.5
		c1.3,0,2.4,1,2.4,2.3c0,1.3-1,2.4-2.3,2.4s-2.4-1-2.4-2.3c0,0,0,0,0,0c-0.1-1.3,0.9-2.3,2.1-2.4
		C357.5,138.5,357.6,138.5,357.7,138.5L357.7,138.5z"/>
	<path class="st3" d="M466.1,191.6h-39.4v26.1h39.4V191.6z M462.3,213.7h-31.9v-18h31.9L462.3,213.7z"/>
	<rect x="454.7" y="198.8" class="st4" width="3.8" height="11.9"/>
	<rect x="448.4" y="198.8" class="st5" width="4.1" height="11.9"/>
	<path class="st6" d="M438.4,210.9c3.6,0,6.5-2.9,6.5-6.5s-2.9-6.5-6.5-6.5s-6.5,2.9-6.5,6.5S434.8,210.9,438.4,210.9z M438.4,202.1
		c1.3,0,2.4,1.1,2.4,2.4c0,1.3-1,2.4-2.3,2.4c0,0,0,0,0,0c-1.3,0-2.4-1.1-2.4-2.4C436,203.2,437,202.1,438.4,202.1
		C438.3,202.1,438.4,202.1,438.4,202.1z"/>
	<path class="st3" d="M466.1,160h-39.4v26h39.4V160z M462.3,182h-31.9v-18.2h31.9L462.3,182z"/>
	<rect x="454.7" y="166.9" class="st4" width="3.8" height="11.9"/>
	<rect x="448.4" y="166.9" class="st5" width="4.1" height="11.9"/>
	<path class="st6" d="M438.4,179.2c3.5,0,6.4-2.8,6.5-6.4c0,0,0-0.1,0-0.1c0.1-3.5-2.7-6.4-6.2-6.5c-0.1,0-0.2,0-0.3,0
		c-3.5,0-6.4,2.8-6.5,6.4c0,0,0,0.1,0,0.1C431.9,176.3,434.8,179.2,438.4,179.2z M438.4,170.4c1.3,0,2.4,1.1,2.4,2.4
		s-1.1,2.4-2.4,2.4s-2.4-1.1-2.4-2.4C436,171.4,437,170.4,438.4,170.4C438.3,170.4,438.4,170.4,438.4,170.4z"/>
	<path class="st3" d="M466.1,128.1h-39.4v26h39.4V128.1z M462.3,150.1h-31.9v-18.2h31.9L462.3,150.1z"/>
	<rect x="454.7" y="135" class="st4" width="3.8" height="11.9"/>
	<rect x="448.4" y="135" class="st5" width="4.1" height="11.9"/>
	<path class="st6" d="M438.4,147.3c3.6,0,6.5-2.9,6.5-6.5s-2.9-6.5-6.5-6.5s-6.5,2.9-6.5,6.5S434.8,147.3,438.4,147.3z M438.4,138.5
		c1.3,0,2.4,1.1,2.4,2.4s-1.1,2.4-2.4,2.4s-2.4-1.1-2.4-2.4c-0.1-1.3,0.9-2.3,2.2-2.4C438.2,138.5,438.3,138.5,438.4,138.5
		L438.4,138.5z"/>
	<path class="st1" d="M313.5-23.3h-56.9c-4.1,0-7.4,3.3-7.4,7.4V92.3c0,4.1,3.3,7.4,7.4,7.4h56.9c4.1,0,7.4-3.3,7.4-7.4V-15.9
		C320.9-20,317.6-23.3,313.5-23.3C313.5-23.3,313.5-23.3,313.5-23.3z"/>
	<path class="st1" d="M394.2-23.3h-56.9c-4.1,0-7.4,3.3-7.4,7.4V92.3c0,4.1,3.3,7.4,7.4,7.4h56.9c4.1,0,7.4-3.3,7.4-7.4V-15.9
		C401.6-20,398.3-23.3,394.2-23.3C394.2-23.3,394.2-23.3,394.2-23.3z"/>
	<path class="st1" d="M474.9-23.3H418c-4.1,0-7.4,3.3-7.4,7.4V92.3c0,4.1,3.3,7.4,7.4,7.4h56.9c4.1,0,7.4-3.3,7.4-7.4V-15.9
		C482.3-20,479-23.3,474.9-23.3C474.9-23.3,474.9-23.3,474.9-23.3z"/>
	<rect x="261.2" y="-11.5" class="st2" width="47.5" height="99.3"/>
	<rect x="341.9" y="-11.5" class="st2" width="47.5" height="99.3"/>
	<rect x="422.6" y="-11.5" class="st2" width="47.5" height="99.3"/>
	<path class="st3" d="M304.7,56.9h-39.4v26.1h39.4V56.9z M300.9,79H269V61h31.9V79z"/>
	<rect x="293.4" y="64" class="st4" width="3.8" height="11.9"/>
	<rect x="287.1" y="64" class="st5" width="4.1" height="11.9"/>
	<path class="st6" d="M277,76.2c3.6-0.4,6.1-3.5,5.8-7.1c-0.3-3.1-2.7-5.5-5.8-5.8c-3.5-0.1-6.4,2.7-6.5,6.2c0,0.1,0,0.2,0,0.3
		C270.6,73.4,273.5,76.2,277,76.2z M277,67.4c1.3,0,2.3,1.1,2.4,2.4c0,1.3-1,2.4-2.3,2.4c0,0,0,0,0,0c-1.3,0-2.4-1.1-2.4-2.4
		C274.6,68.5,275.7,67.4,277,67.4C277,67.4,277,67.4,277,67.4z"/>
	<path class="st3" d="M304.7,25.3h-39.4v26h39.4V25.3z M300.9,47.3H269V29.1h31.9V47.3z"/>
	<rect x="293.4" y="32.2" class="st4" width="3.8" height="11.9"/>
	<rect x="287.1" y="32.2" class="st5" width="4.1" height="11.9"/>
	<path class="st6" d="M277,44.5c3.5,0,6.4-2.8,6.5-6.4c0,0,0-0.1,0-0.1c-0.4-3.6-3.5-6.1-7.1-5.8c-3.1,0.3-5.5,2.7-5.8,5.8
		C270.6,41.6,273.5,44.4,277,44.5z M277,35.7c1.3,0,2.4,1.1,2.4,2.4c0,1.3-1.1,2.4-2.4,2.4s-2.4-1.1-2.4-2.4
		C274.6,36.7,275.7,35.7,277,35.7C277,35.7,277,35.7,277,35.7z"/>
	<path class="st3" d="M304.7-6.6h-39.4v26h39.4V-6.6z M300.9,15.4H269V-2.8h31.9V15.4z"/>
	<rect x="293.4" y="0.3" class="st4" width="3.8" height="11.9"/>
	<rect x="287.1" y="0.3" class="st5" width="4.1" height="11.9"/>
	<path class="st6" d="M277,12.6c3.6-0.4,6.1-3.5,5.8-7.1c-0.3-3.1-2.7-5.5-5.8-5.8c-3.5-0.1-6.4,2.7-6.5,6.2c0,0.1,0,0.2,0,0.3
		C270.6,9.7,273.5,12.6,277,12.6z M277,3.8c1.3,0,2.4,1.1,2.4,2.4c0,1.3-1.1,2.4-2.4,2.4c-1.3,0-2.4-1-2.4-2.4
		c-0.1-1.3,0.9-2.3,2.1-2.4C276.8,3.8,276.9,3.7,277,3.8L277,3.8z"/>
	<path class="st3" d="M385.4,56.9h-39.4v26.1h39.4V56.9z M381.6,79h-31.9V61h31.9L381.6,79z"/>
	<rect x="374" y="64" class="st4" width="3.8" height="11.9"/>
	<rect x="367.8" y="64" class="st5" width="4.1" height="11.9"/>
	<path class="st6" d="M357.7,76.2c3.6,0,6.5-2.9,6.5-6.5s-2.9-6.5-6.5-6.5c-3.6,0-6.5,2.9-6.5,6.5S354.1,76.2,357.7,76.2z
		 M357.7,67.4c1.3,0,2.4,1.1,2.4,2.4c0,1.3-1,2.4-2.3,2.4c0,0,0,0,0,0c-1.3,0-2.4-1.1-2.4-2.4C355.3,68.5,356.3,67.4,357.7,67.4
		C357.7,67.4,357.7,67.4,357.7,67.4z"/>
	<path class="st3" d="M385.4,25.3h-39.4v26h39.4V25.3z M381.6,47.3h-31.9V29.1h31.9L381.6,47.3z"/>
	<rect x="374" y="32.2" class="st4" width="3.8" height="11.9"/>
	<rect x="367.8" y="32.2" class="st5" width="4.1" height="11.9"/>
	<path class="st6" d="M357.7,44.5c3.5,0,6.4-2.8,6.5-6.4c0,0,0-0.1,0-0.1c0.1-3.5-2.7-6.4-6.2-6.5c-0.1,0-0.2,0-0.3,0
		c-3.5,0-6.4,2.8-6.5,6.4c0,0,0,0.1,0,0.1C351.2,41.6,354.1,44.5,357.7,44.5z M357.7,35.7c1.3,0,2.4,1.1,2.4,2.4
		c0,1.3-1.1,2.4-2.4,2.4s-2.4-1.1-2.4-2.4C355.3,36.7,356.3,35.7,357.7,35.7C357.7,35.7,357.7,35.7,357.7,35.7z"/>
	<path class="st3" d="M385.4-6.6h-39.4v26h39.4V-6.6z M381.6,15.4h-31.9V-2.8h31.9L381.6,15.4z"/>
	<rect x="374" y="0.3" class="st4" width="3.8" height="11.9"/>
	<rect x="367.8" y="0.3" class="st5" width="4.1" height="11.9"/>
	<path class="st6" d="M357.7,12.6c3.6,0,6.5-2.9,6.5-6.5s-2.9-6.5-6.5-6.5c-3.6,0-6.5,2.9-6.5,6.5S354.1,12.6,357.7,12.6z
		 M357.7,3.8c1.3,0,2.4,1,2.4,2.3c0,1.3-1,2.4-2.3,2.4c-1.3,0-2.4-1-2.4-2.3c0,0,0,0,0,0c-0.1-1.3,0.9-2.3,2.1-2.4
		C357.5,3.8,357.6,3.8,357.7,3.8L357.7,3.8z"/>
	<path class="st3" d="M466.1,56.9h-39.4v26.1h39.4V56.9z M462.3,79h-31.9V61h31.9L462.3,79z"/>
	<rect x="454.7" y="64" class="st4" width="3.8" height="11.9"/>
	<rect x="448.4" y="64" class="st5" width="4.1" height="11.9"/>
	<path class="st6" d="M438.4,76.2c3.6,0,6.5-2.9,6.5-6.5s-2.9-6.5-6.5-6.5s-6.5,2.9-6.5,6.5S434.8,76.2,438.4,76.2z M438.4,67.4
		c1.3,0,2.4,1.1,2.4,2.4c0,1.3-1,2.4-2.3,2.4c0,0,0,0,0,0c-1.3,0-2.4-1.1-2.4-2.4C436,68.5,437,67.4,438.4,67.4
		C438.3,67.4,438.4,67.4,438.4,67.4z"/>
	<path class="st3" d="M466.1,25.3h-39.4v26h39.4V25.3z M462.3,47.3h-31.9V29.1h31.9L462.3,47.3z"/>
	<rect x="454.7" y="32.2" class="st4" width="3.8" height="11.9"/>
	<rect x="448.4" y="32.2" class="st5" width="4.1" height="11.9"/>
	<path class="st6" d="M438.4,44.5c3.5,0,6.4-2.8,6.5-6.4c0,0,0-0.1,0-0.1c0.1-3.5-2.7-6.4-6.2-6.5c-0.1,0-0.2,0-0.3,0
		c-3.5,0-6.4,2.8-6.5,6.4c0,0,0,0.1,0,0.1C431.9,41.6,434.8,44.5,438.4,44.5z M438.4,35.7c1.3,0,2.4,1.1,2.4,2.4
		c0,1.3-1.1,2.4-2.4,2.4S436,39.4,436,38C436,36.7,437,35.7,438.4,35.7C438.3,35.7,438.4,35.7,438.4,35.7z"/>
	<path class="st3" d="M466.1-6.6h-39.4v26h39.4V-6.6z M462.3,15.4h-31.9V-2.8h31.9L462.3,15.4z"/>
	<rect x="454.7" y="0.3" class="st4" width="3.8" height="11.9"/>
	<rect x="448.4" y="0.3" class="st5" width="4.1" height="11.9"/>
	<path class="st6" d="M438.4,12.6c3.6,0,6.5-2.9,6.5-6.5s-2.9-6.5-6.5-6.5s-6.5,2.9-6.5,6.5S434.8,12.6,438.4,12.6z M438.4,3.8
		c1.3,0,2.4,1.1,2.4,2.4s-1.1,2.4-2.4,2.4S436,7.5,436,6.2c-0.1-1.3,0.9-2.3,2.2-2.4C438.2,3.8,438.3,3.7,438.4,3.8L438.4,3.8z"/>
</g>
<g>
	<circle class="st7" cx="592.8" cy="10.8" r="62.9"/>
	<path class="st8" d="M593-53.8c-35.9,0-65.1,29.1-65.1,65.1s29.1,65.1,65.1,65.1s65.1-29.1,65.1-65.1c0,0,0,0,0,0
		C658-24.7,628.9-53.8,593-53.8z M632.1,49.8c-0.1,0.1-0.2,0.2-0.2,0.3c-0.1,0.1-0.2,0.2-0.3,0.2c-21.5,21.3-56.1,21.3-77.6,0
		c-0.2,0-0.2-0.2-0.3-0.2c-0.1-0.1-0.2-0.2-0.2-0.3c-21.3-21.5-21.3-56.1,0-77.6c0-0.2,0.2-0.2,0.2-0.3c0.1-0.1,0.2-0.2,0.3-0.2
		c21.5-21.3,56.1-21.3,77.6,0c0.2,0,0.2,0.2,0.3,0.2c0.2,0,0.2,0.2,0.2,0.3C653.4-6.3,653.4,28.4,632.1,49.8z"/>
	<path class="st4" d="M632.5,7.8h8.9c-0.7-10.5-4.9-20.5-11.8-28.5l-6.4,6.4c-1.3,1.3-3.4,1.4-4.7,0.1c0,0-0.1-0.1-0.1-0.1
		c-1.3-1.2-1.4-3.1-0.2-4.4c0.1-0.1,0.1-0.2,0.2-0.2l6.4-6.4c-8-6.9-18-11.1-28.5-11.8v8.9c0,1.8-1.4,3.3-3.2,3.3c0,0,0,0,0,0
		c-1.8-0.1-3.2-1.5-3.3-3.3v-8.9c-10.5,0.7-20.5,4.9-28.5,11.8l6.4,6.4c1.3,1.2,1.4,3.1,0.2,4.4c-0.1,0.1-0.1,0.2-0.2,0.2
		c-1.3,1.3-3.4,1.4-4.7,0.1c0,0-0.1-0.1-0.1-0.1l-6.4-6.4c-6.9,8-11.1,18-11.8,28.5h8.9c1.8,0.1,3.2,1.6,3.1,3.4
		c-0.1,1.7-1.4,3-3.1,3.1h-9c0.7,10.5,4.9,20.5,11.8,28.5l6.4-6.4c1.3-1.2,3.4-1.1,4.6,0.2c1.1,1.2,1.1,3.1,0,4.4l-6.3,6.3
		c1.5,1.3,3.1,2.6,4.8,3.6c5.8-15,22.7-22.4,37.7-16.6c7.6,3,13.6,9,16.6,16.6c1.7-1.2,3.3-2.4,4.8-3.6l-6.4-6.4
		c-1.3-1.2-1.5-3.3-0.2-4.6c1.2-1.3,3.3-1.5,4.6-0.2c0.1,0.1,0.2,0.2,0.2,0.2l6.4,6.4c6.9-8,11.1-18,11.8-28.5h-8.9
		c-1.8,0-3.3-1.4-3.3-3.2c0,0,0,0,0,0C629.3,9.3,630.7,7.8,632.5,7.8z"/>
	<path class="st9" d="M595.6,16.5c-4.5,1.6-9.4-0.7-11-5.2c-1.6-4.5,0.7-9.4,5.2-11l0,0c2.6-0.9,5.4-0.6,7.7,0.8l26.8-4.5
		l-23.4,13.9C600.2,13.4,598.2,15.6,595.6,16.5z"/>
</g>
<g>
	<circle class="st10" cx="256.2" cy="155.6" r="33.4"/>
	<g id="_Group__1_">
		<path id="_Path_2-2" class="st11" d="M174.4,29.9L174.4,29.9c-6.4,4.1-8.3,12.6-4.1,19c0,0,0,0,0,0.1l32.4,50.2
			c4.1,6.4,12.6,8.3,19,4.2l0.1-0.1l0,0c6.4-4.1,8.3-12.6,4.2-19l-0.1-0.1L193.5,34c-4-6.4-12.3-8.3-18.7-4.4
			C174.7,29.7,174.6,29.8,174.4,29.9z"/>
		<path id="_Path_3-2" class="st4" d="M173.4,35.7c-2.4,1.6-3.1,4.8-1.5,7.2c0,0,0,0,0,0.1l32.4,50.2c1.5,2.4,4.8,3.1,7.2,1.6
			l0.1-0.1c2.4-1.5,3.2-4.6,1.7-7c-0.1-0.1-0.1-0.2-0.2-0.3l-32.4-50.2C179.4,34.8,176,34.2,173.4,35.7z"/>
		<g id="_Group_2">
			<path id="_Path_4-2" class="st12" d="M217.4,96.8c-3.2,2.1-4.1,6.4-2,9.6l0,0l6.8,10.2c2.1,3.2,6.4,4.1,9.6,2l0,0
				c3.2-2.1,4.1-6.4,2-9.6L227,98.8C224.9,95.6,220.7,94.7,217.4,96.8z"/>
		</g>
		<path class="st8" d="M308.6,167c-6.3,29.1-35,47.6-64.1,41.3h-0.1c-29.1-6.4-47.6-35-41.5-64.2c3-14.1,11.5-26.4,23.7-34.1l0,0
			c12-7.8,26.6-10.4,40.6-7.3c14,3,26.3,11.5,34,23.6C308.9,138.4,311.5,153,308.6,167z M289.5,134c-11.9-18.6-36.7-24.1-55.3-12.2
			c-0.1,0-0.1,0.1-0.2,0.1l0,0c-9,5.7-15.4,14.8-17.6,25.3c-4.6,21.7,9.2,43.2,30.7,47.8c10.4,2.2,21.3,0.3,30.2-5.5
			C296,177.5,301.5,152.7,289.5,134L289.5,134z"/>
		<g id="_Group_3" class="st13">
			<path id="_Path_5-2" class="st14" d="M277.3,189.5c-18.6,12-43.5,6.7-55.5-12c-5.8-9-7.8-19.9-5.5-30.3
				c2.2-10.5,8.6-19.6,17.6-25.3l0,0c18.6-12,43.4-6.7,55.4,11.9c0,0.1,0.1,0.1,0.1,0.2c12,18.6,6.7,43.4-11.9,55.4
				C277.5,189.4,277.4,189.5,277.3,189.5z"/>
		</g>
		<path id="_Path_6_1_" class="st15" d="M289.4,134c5.8,8.9,7.8,19.8,5.5,30.2c-0.6,2.9-1.6,5.8-2.9,8.5c-2.9,3.9-6.5,7.2-10.6,9.9
			c-18.6,12-43.4,6.6-55.4-12c-5.8-9-7.8-19.9-5.5-30.3c0.6-2.9,1.6-5.8,2.9-8.5c2.9-3.9,6.5-7.2,10.6-9.9l0,0
			c18.5-12,43.2-6.7,55.2,11.8C289.3,133.8,289.4,133.9,289.4,134L289.4,134z"/>
	</g>
	<g id="_Group_4">
		<g id="_Group_5">
			<g id="_Group_6">
				<g id="_Group_7">
					<path id="_Path_7_1_" class="st16" d="M146.6,57.5c4.4,9.4,9.9,9.4,9.9,9.4c4.6,15.5,12.3,16.4,12.3,16.4
						c3.5,13.7,11.4,11.3,11.4,11.3c1.2,17.9,9.9,21.3,15.5,18.1c2.1-1.1,3.7-3,4.4-5.3c3.1-9.1,4.9-42.2,8-42.2S221.2,76,221.2,76
						s12.3-31.4,8.7-39.9S198.7-9.6,198.7-9.6c-1-0.1-2.1-0.2-3.1-0.2c-9.5-0.8-38.9-3.1-41.8-1.7c-3.5,1.7-10.7,34.8-11.4,41.3
						C141.5,36.1,142,48.2,146.6,57.5z"/>
					<g id="_Group_8">
						<polygon id="_Path_8" class="st4" points="192.7,-15.1 210.6,-15.1 210.6,-52.6 192.7,-52.6 131.8,-52.6 131.8,-15.1 						
							"/>
						<polygon id="_Path_9" class="st17" points="190.5,-8 204.8,-8 204.8,-15.1 190.5,-15.1 142,-15.1 142,-8 						"/>
					</g>
				</g>
			</g>
		</g>
		<polygon id="_Path_10" class="st18" points="201.6,-15.1 210.6,-15.1 210.6,-52.6 201.6,-52.6 171.2,-52.6 171.2,-15.1 		"/>
	</g>
	<g>
		<path class="st7" d="M252.5,175.6c0-2.3,1.6-4,3.8-4c2.3,0,3.8,1.7,3.8,4s-1.5,4-3.8,4C254.1,179.7,252.5,177.9,252.5,175.6z
			 M254.1,166.3l-0.9-31.3h6.3l-0.9,31.3H254.1z"/>
	</g>
</g>
<g>
	<g>
		<path class="st12" d="M602.3,117.8h-87.4c-5.2,0-9.4,4.2-9.4,9.4v199c0,5.2,4.2,9.4,9.4,9.4h155.9c5.2,0,9.4-4.2,9.4-9.4v-199
			c0-5.2-4.2-9.4-9.4-9.4L602.3,117.8z"/>
		<path class="st7" d="M658.4,131.2h-131c-4.4,0-7.9,3.5-7.9,7.9v174.8c0,4.4,3.5,7.9,7.9,7.9h131c4.4,0,7.9-3.5,7.9-7.9V139.1
			C666.3,134.8,662.8,131.3,658.4,131.2z"/>
		<path class="st4" d="M609.5,108c0-9.1-7.4-16.6-16.5-16.6s-16.5,7.4-16.5,16.6h-36.3v33.1h105.6V108H609.5z"/>
		<path class="st3" d="M571.9,249.5h-31.1c-3.7,0-6.7-3-6.7-6.7v-31.1c0-3.7,3-6.7,6.7-6.7h31.1c3.7,0,6.7,3,6.7,6.7v31.1
			C578.6,246.5,575.6,249.5,571.9,249.5L571.9,249.5z M540.8,209.1c-1.4,0-2.6,1.1-2.6,2.6v31.1c0,1.4,1.1,2.6,2.6,2.6h31.1
			c1.4,0,2.6-1.1,2.6-2.6v-31.1c0-1.4-1.1-2.6-2.6-2.6H540.8z"/>
		<path class="st3" d="M571.9,301.3h-31.1c-3.7,0-6.7-3-6.7-6.7v-31.2c0-3.7,3-6.7,6.7-6.7h31.1c3.7,0,6.7,3,6.7,6.7v31.1
			C578.6,298.3,575.6,301.3,571.9,301.3z M540.8,260.9c-1.4,0-2.6,1.1-2.6,2.6v31.2c0,1.4,1.1,2.6,2.6,2.6h31.1
			c1.4,0,2.6-1.1,2.6-2.6v-31.3c0-1.4-1.1-2.6-2.6-2.6L540.8,260.9z"/>
		<rect x="540.1" y="131.2" class="st5" width="105.6" height="9.8"/>
		<rect x="588.5" y="156.8" class="st3" width="25.6" height="4.8"/>
		<rect x="588.5" y="169" class="st3" width="66.9" height="4.8"/>
		<rect x="588.5" y="180.9" class="st3" width="66.9" height="4.8"/>
		<rect x="588.5" y="192.8" class="st3" width="66.9" height="4.8"/>
		<rect x="588.5" y="220.9" class="st3" width="66.9" height="4.8"/>
		<rect x="588.5" y="232.8" class="st3" width="66.9" height="4.8"/>
		<rect x="588.5" y="244.7" class="st3" width="66.9" height="4.8"/>
		<rect x="588.5" y="272.6" class="st3" width="66.9" height="4.8"/>
		<rect x="588.5" y="284.5" class="st3" width="66.9" height="4.8"/>
		<rect x="588.5" y="296.4" class="st3" width="66.9" height="4.8"/>
		<rect x="588.5" y="208.6" class="st3" width="25.6" height="4.8"/>
		<rect x="588.5" y="260.4" class="st3" width="25.6" height="4.8"/>
		<path class="st6" d="M554.1,239.5l-12.5-12l4.7-4.9l7.6,7.3l12.5-13l4.9,4.7L554.1,239.5z"/>
		<path class="st3" d="M571.9,197.7h-31.1c-3.7,0-6.7-3-6.7-6.7v-31.1c0-3.7,3-6.7,6.7-6.7h31.1c3.7,0,6.7,3,6.7,6.7V191
			C578.6,194.7,575.6,197.7,571.9,197.7z M540.8,157.3c-1.4,0-2.6,1.1-2.6,2.6V191c0,1.4,1.1,2.6,2.6,2.6h31.1
			c1.4,0,2.6-1.1,2.6-2.6v-31.1c0-1.4-1.1-2.6-2.6-2.6H540.8z"/>
	</g>
	<path class="st6" d="M554,187.5l-12.5-12l4.7-4.9l7.6,7.3l12.5-13l4.9,4.7L554,187.5z"/>
	<path class="st6" d="M554,290.8l-12.5-12l4.7-4.9l7.6,7.3l12.5-13l4.9,4.7L554,290.8z"/>
</g>
<g>
	<g>
		
			<rect x="342.7" y="255.9" transform="matrix(0.7071 -0.7071 0.7071 0.7071 -83.425 322.4891)" class="st1" width="9.8" height="12.1"/>
	</g>
	<g>
		
			<rect x="397.9" y="257.1" transform="matrix(0.7071 -0.7071 0.7071 0.7071 -66.9769 362.371)" class="st1" width="12.1" height="9.8"/>
	</g>
	<circle class="st7" cx="375.7" cy="295.4" r="37.6"/>
	<path class="st2" d="M375.7,257.7L375.7,257.7v75.2l0,0c20.8,0,37.6-16.8,37.6-37.6S396.5,257.7,375.7,257.7z"/>
	<g>
		<path class="st19" d="M375.7,278.5c-9.3,0-16.9,7.6-16.9,16.9c0,0.1,0,0.1,0,0.2h-12.9c0-0.1,0-0.1,0-0.2
			c0-16.4,13.3-29.8,29.8-29.8c0.1,0,0.2,0,0.2,0v12.9C375.9,278.5,375.8,278.5,375.7,278.5z"/>
	</g>
	<path class="st1" d="M379.3,254.3v-6.1h-7.2v6.1c-21,1.8-37.6,19.5-37.6,41c0,22.7,18.5,41.2,41.2,41.2s41.2-18.5,41.2-41.2
		C416.9,273.8,400.4,256.1,379.3,254.3z M375.7,329.4c-18.8,0-34-15.3-34-34c0-18.8,15.3-34,34-34c18.8,0,34,15.3,34,34
		S394.5,329.4,375.7,329.4z"/>
	<path class="st1" d="M379.3,254.3v-6.1h-3.6v13.1l0,0c18.8,0,34,15.3,34,34c0,18.8-15.3,34-34,34l0,0v7.2l0,0
		c22.7,0,41.2-18.5,41.2-41.2C416.9,273.8,400.4,256.1,379.3,254.3z"/>
	<g>
		<rect x="367.7" y="241.9" class="st1" width="16.1" height="9.8"/>
	</g>
	<g>
		<rect x="375.7" y="241.9" class="st1" width="8.1" height="9.8"/>
	</g>
	<g>
		
			<rect x="364.5" y="279.6" transform="matrix(0.6846 -0.7289 0.7289 0.6846 -94.9001 359.6176)" class="st1" width="7.2" height="19.7"/>
	</g>
	<g>
		<polygon class="st20" points="375.7,291.7 375.7,295.9 377.8,293.6 		"/>
	</g>
	<g>
		<polygon class="st10" points="400.7,288.7 417.7,262.6 394.8,262.6 377.9,294.7 391.7,294.7 379.8,323.9 379.8,323.9 419.8,288.7 
					"/>
	</g>
	<g>
		<polygon class="st10" points="400.7,288.7 417.7,262.6 400.6,262.6 400.6,305.6 419.8,288.7 		"/>
	</g>
</g>
</svg>
