<?xml version="1.0" encoding="utf-8"?>
<!-- Generator: Adobe Illustrator 19.1.1, SVG Export Plug-In . SVG Version: 6.00 Build 0)  -->
<svg version="1.1" id="Layer_1" xmlns="http://www.w3.org/2000/svg" xmlns:xlink="http://www.w3.org/1999/xlink" x="0px" y="0px"
	 viewBox="132 -53.8 548 390.3" style="enable-background:new 132 -53.8 548 390.3;" xml:space="preserve">
<style type="text/css">
	.st0{fill:#B0BEC5;}
	.st1{fill:#90A4AE;}
	.st2{fill:#E4F2FB;}
	.st3{fill:#95C8EC;}
	.st4{fill:#70B2E2;}
	.st5{fill:#81C784;}
	.st6{fill:#57A0D7;}
	.st7{fill:#3D82C4;}
	.st8{fill:#57A7DB;}
	.st9{opacity:0.71;}
	.st10{opacity:0.71;fill:#BDDDF4;enable-background:new    ;}
	.st11{opacity:0.3;fill:#F1F2F2;enable-background:new    ;}
	.st12{fill:#FBE4D4;}
	.st13{fill:#E8E8E8;}
	.st14{fill:#58A6DA;}
	.st15{fill:#CBEAFB;}
	.st16{fill:none;stroke:#D0D8DC;stroke-width:4;stroke-miterlimit:10;}
	.st17{fill:#F4AE7A;}
	.st18{fill:#71BE71;}
	.st19{fill:#B3B3B3;}
	.st20{fill:#FFFFFF;}
	.st21{fill:#71BE71;stroke:#FFFFFF;stroke-width:2.03;stroke-miterlimit:10;}
	.st22{fill:#71BE72;}
</style>
<title>Disrupted-on-premises and cloud environments</title>
<g id="XMLID_2_">
	<polygon id="XMLID_4_" class="st0" points="-9.6,549.4 13.1,536.2 -9.6,523.1 	"/>
</g>
<g>
	<path class="st1" d="M313.5,111.4h-56.9c-4.1,0-7.4,3.3-7.4,7.4V227c0,4.1,3.3,7.4,7.4,7.4h56.9c4.1,0,7.4-3.3,7.4-7.4V118.8
		C320.9,114.7,317.6,111.4,313.5,111.4C313.5,111.4,313.5,111.4,313.5,111.4z"/>
	<path class="st1" d="M394.2,111.4h-56.9c-4.1,0-7.4,3.3-7.4,7.4V227c0,4.1,3.3,7.4,7.4,7.4h56.9c4.1,0,7.4-3.3,7.4-7.4V118.8
		C401.6,114.7,398.3,111.4,394.2,111.4C394.2,111.4,394.2,111.4,394.2,111.4z"/>
	<path class="st1" d="M474.9,111.4H418c-4.1,0-7.4,3.3-7.4,7.4V227c0,4.1,3.3,7.4,7.4,7.4h56.9c4.1,0,7.4-3.3,7.4-7.4V118.8
		C482.3,114.7,479,111.4,474.9,111.4C474.9,111.4,474.9,111.4,474.9,111.4z"/>
	<rect x="261.2" y="123.3" class="st2" width="47.5" height="99.3"/>
	<rect x="341.9" y="123.3" class="st2" width="47.5" height="99.3"/>
	<rect x="422.6" y="123.3" class="st2" width="47.5" height="99.3"/>
	<path class="st0" d="M304.7,191.6h-39.4v26.1h39.4V191.6z M300.9,213.7H269v-18h31.9V213.7z"/>
	<rect x="293.4" y="198.8" class="st3" width="3.8" height="11.9"/>
	<rect x="287.1" y="198.8" class="st4" width="4.1" height="11.9"/>
	<path class="st5" d="M277,210.9c3.6-0.4,6.1-3.5,5.8-7.1c-0.3-3.1-2.7-5.5-5.8-5.8c-3.5-0.1-6.4,2.7-6.5,6.2c0,0.1,0,0.2,0,0.3
		C270.6,208.1,273.5,210.9,277,210.9z M277,202.1c1.3,0,2.3,1.1,2.4,2.4c0,1.3-1,2.4-2.3,2.4c0,0,0,0,0,0c-1.3,0-2.4-1.1-2.4-2.4
		C274.6,203.2,275.7,202.1,277,202.1C277,202.1,277,202.1,277,202.1z"/>
	<path class="st0" d="M304.7,160h-39.4v26h39.4V160z M300.9,182H269v-18.2h31.9V182z"/>
	<rect x="293.4" y="166.9" class="st3" width="3.8" height="11.9"/>
	<rect x="287.1" y="166.9" class="st4" width="4.1" height="11.9"/>
	<path class="st5" d="M277,179.2c3.5,0,6.4-2.8,6.5-6.4c0,0,0-0.1,0-0.1c-0.4-3.6-3.5-6.1-7.1-5.8c-3.1,0.3-5.5,2.7-5.8,5.8
		C270.6,176.3,273.5,179.1,277,179.2z M277,170.4c1.3,0,2.4,1.1,2.4,2.4s-1.1,2.4-2.4,2.4s-2.4-1.1-2.4-2.4
		C274.6,171.4,275.7,170.4,277,170.4C277,170.4,277,170.4,277,170.4z"/>
	<path class="st0" d="M304.7,128.1h-39.4v26h39.4V128.1z M300.9,150.1H269v-18.2h31.9V150.1z"/>
	<rect x="293.4" y="135" class="st3" width="3.8" height="11.9"/>
	<rect x="287.1" y="135" class="st4" width="4.1" height="11.9"/>
	<path class="st5" d="M277,147.3c3.6-0.4,6.1-3.5,5.8-7.1c-0.3-3.1-2.7-5.5-5.8-5.8c-3.5-0.1-6.4,2.7-6.5,6.2c0,0.1,0,0.2,0,0.3
		C270.6,144.4,273.5,147.3,277,147.3z M277,138.5c1.3,0,2.4,1.1,2.4,2.4c0,1.3-1.1,2.4-2.4,2.4c-1.3,0-2.4-1-2.4-2.4
		c-0.1-1.3,0.9-2.3,2.1-2.4C276.8,138.5,276.9,138.5,277,138.5L277,138.5z"/>
	<path class="st0" d="M385.4,191.6h-39.4v26.1h39.4V191.6z M381.6,213.7h-31.9v-18h31.9L381.6,213.7z"/>
	<rect x="374" y="198.8" class="st3" width="3.8" height="11.9"/>
	<rect x="367.8" y="198.8" class="st4" width="4.1" height="11.9"/>
	<path class="st5" d="M357.7,210.9c3.6,0,6.5-2.9,6.5-6.5s-2.9-6.5-6.5-6.5s-6.5,2.9-6.5,6.5S354.1,210.9,357.7,210.9z M357.7,202.1
		c1.3,0,2.4,1.1,2.4,2.4c0,1.3-1,2.4-2.3,2.4c0,0,0,0,0,0c-1.3,0-2.4-1.1-2.4-2.4C355.3,203.2,356.3,202.1,357.7,202.1
		C357.7,202.1,357.7,202.1,357.7,202.1z"/>
	<path class="st0" d="M385.4,160h-39.4v26h39.4V160z M381.6,182h-31.9v-18.2h31.9L381.6,182z"/>
	<rect x="374" y="166.9" class="st3" width="3.8" height="11.9"/>
	<rect x="367.8" y="166.9" class="st4" width="4.1" height="11.9"/>
	<path class="st5" d="M357.7,179.2c3.5,0,6.4-2.8,6.5-6.4c0,0,0-0.1,0-0.1c0.1-3.5-2.7-6.4-6.2-6.5c-0.1,0-0.2,0-0.3,0
		c-3.5,0-6.4,2.8-6.5,6.4c0,0,0,0.1,0,0.1C351.2,176.3,354.1,179.2,357.7,179.2z M357.7,170.4c1.3,0,2.4,1.1,2.4,2.4
		s-1.1,2.4-2.4,2.4s-2.4-1.1-2.4-2.4C355.3,171.4,356.3,170.4,357.7,170.4C357.7,170.4,357.7,170.4,357.7,170.4z"/>
	<path class="st0" d="M385.4,128.1h-39.4v26h39.4V128.1z M381.6,150.1h-31.9v-18.2h31.9L381.6,150.1z"/>
	<rect x="374" y="135" class="st3" width="3.8" height="11.9"/>
	<rect x="367.8" y="135" class="st4" width="4.1" height="11.9"/>
	<path class="st5" d="M357.7,147.3c3.6,0,6.5-2.9,6.5-6.5s-2.9-6.5-6.5-6.5s-6.5,2.9-6.5,6.5S354.1,147.3,357.7,147.3z M357.7,138.5
		c1.3,0,2.4,1,2.4,2.3c0,1.3-1,2.4-2.3,2.4s-2.4-1-2.4-2.3c0,0,0,0,0,0c-0.1-1.3,0.9-2.3,2.1-2.4
		C357.5,138.5,357.6,138.5,357.7,138.5L357.7,138.5z"/>
	<path class="st0" d="M466.1,191.6h-39.4v26.1h39.4V191.6z M462.3,213.7h-31.9v-18h31.9L462.3,213.7z"/>
	<rect x="454.7" y="198.8" class="st3" width="3.8" height="11.9"/>
	<rect x="448.4" y="198.8" class="st4" width="4.1" height="11.9"/>
	<path class="st5" d="M438.4,210.9c3.6,0,6.5-2.9,6.5-6.5s-2.9-6.5-6.5-6.5s-6.5,2.9-6.5,6.5S434.8,210.9,438.4,210.9z M438.4,202.1
		c1.3,0,2.4,1.1,2.4,2.4c0,1.3-1,2.4-2.3,2.4c0,0,0,0,0,0c-1.3,0-2.4-1.1-2.4-2.4C436,203.2,437,202.1,438.4,202.1
		C438.3,202.1,438.4,202.1,438.4,202.1z"/>
	<path class="st0" d="M466.1,160h-39.4v26h39.4V160z M462.3,182h-31.9v-18.2h31.9L462.3,182z"/>
	<rect x="454.7" y="166.9" class="st3" width="3.8" height="11.9"/>
	<rect x="448.4" y="166.9" class="st4" width="4.1" height="11.9"/>
	<path class="st5" d="M438.4,179.2c3.5,0,6.4-2.8,6.5-6.4c0,0,0-0.1,0-0.1c0.1-3.5-2.7-6.4-6.2-6.5c-0.1,0-0.2,0-0.3,0
		c-3.5,0-6.4,2.8-6.5,6.4c0,0,0,0.1,0,0.1C431.9,176.3,434.8,179.2,438.4,179.2z M438.4,170.4c1.3,0,2.4,1.1,2.4,2.4
		s-1.1,2.4-2.4,2.4s-2.4-1.1-2.4-2.4C436,171.4,437,170.4,438.4,170.4C438.3,170.4,438.4,170.4,438.4,170.4z"/>
	<path class="st0" d="M466.1,128.1h-39.4v26h39.4V128.1z M462.3,150.1h-31.9v-18.2h31.9L462.3,150.1z"/>
	<rect x="454.7" y="135" class="st3" width="3.8" height="11.9"/>
	<rect x="448.4" y="135" class="st4" width="4.1" height="11.9"/>
	<path class="st5" d="M438.4,147.3c3.6,0,6.5-2.9,6.5-6.5s-2.9-6.5-6.5-6.5s-6.5,2.9-6.5,6.5S434.8,147.3,438.4,147.3z M438.4,138.5
		c1.3,0,2.4,1.1,2.4,2.4s-1.1,2.4-2.4,2.4s-2.4-1.1-2.4-2.4c-0.1-1.3,0.9-2.3,2.2-2.4C438.2,138.5,438.3,138.5,438.4,138.5
		L438.4,138.5z"/>
	<path class="st1" d="M313.5-23.3h-56.9c-4.1,0-7.4,3.3-7.4,7.4V92.3c0,4.1,3.3,7.4,7.4,7.4h56.9c4.1,0,7.4-3.3,7.4-7.4V-15.9
		C320.9-20,317.6-23.3,313.5-23.3C313.5-23.3,313.5-23.3,313.5-23.3z"/>
	<path class="st1" d="M394.2-23.3h-56.9c-4.1,0-7.4,3.3-7.4,7.4V92.3c0,4.1,3.3,7.4,7.4,7.4h56.9c4.1,0,7.4-3.3,7.4-7.4V-15.9
		C401.6-20,398.3-23.3,394.2-23.3C394.2-23.3,394.2-23.3,394.2-23.3z"/>
	<path class="st1" d="M474.9-23.3H418c-4.1,0-7.4,3.3-7.4,7.4V92.3c0,4.1,3.3,7.4,7.4,7.4h56.9c4.1,0,7.4-3.3,7.4-7.4V-15.9
		C482.3-20,479-23.3,474.9-23.3C474.9-23.3,474.9-23.3,474.9-23.3z"/>
	<rect x="261.2" y="-11.5" class="st2" width="47.5" height="99.3"/>
	<rect x="341.9" y="-11.5" class="st2" width="47.5" height="99.3"/>
	<rect x="422.6" y="-11.5" class="st2" width="47.5" height="99.3"/>
	<path class="st0" d="M304.7,56.9h-39.4v26.1h39.4V56.9z M300.9,79H269V61h31.9V79z"/>
	<rect x="293.4" y="64" class="st3" width="3.8" height="11.9"/>
	<rect x="287.1" y="64" class="st4" width="4.1" height="11.9"/>
	<path class="st5" d="M277,76.2c3.6-0.4,6.1-3.5,5.8-7.1c-0.3-3.1-2.7-5.5-5.8-5.8c-3.5-0.1-6.4,2.7-6.5,6.2c0,0.1,0,0.2,0,0.3
		C270.6,73.4,273.5,76.2,277,76.2z M277,67.4c1.3,0,2.3,1.1,2.4,2.4c0,1.3-1,2.4-2.3,2.4c0,0,0,0,0,0c-1.3,0-2.4-1.1-2.4-2.4
		C274.6,68.5,275.7,67.4,277,67.4C277,67.4,277,67.4,277,67.4z"/>
	<path class="st0" d="M304.7,25.3h-39.4v26h39.4V25.3z M300.9,47.3H269V29.1h31.9V47.3z"/>
	<rect x="293.4" y="32.2" class="st3" width="3.8" height="11.9"/>
	<rect x="287.1" y="32.2" class="st4" width="4.1" height="11.9"/>
	<path class="st5" d="M277,44.5c3.5,0,6.4-2.8,6.5-6.4c0,0,0-0.1,0-0.1c-0.4-3.6-3.5-6.1-7.1-5.8c-3.1,0.3-5.5,2.7-5.8,5.8
		C270.6,41.6,273.5,44.4,277,44.5z M277,35.7c1.3,0,2.4,1.1,2.4,2.4c0,1.3-1.1,2.4-2.4,2.4s-2.4-1.1-2.4-2.4
		C274.6,36.7,275.7,35.7,277,35.7C277,35.7,277,35.7,277,35.7z"/>
	<path class="st0" d="M304.7-6.6h-39.4v26h39.4V-6.6z M300.9,15.4H269V-2.8h31.9V15.4z"/>
	<rect x="293.4" y="0.3" class="st3" width="3.8" height="11.9"/>
	<rect x="287.1" y="0.3" class="st4" width="4.1" height="11.9"/>
	<path class="st5" d="M277,12.6c3.6-0.4,6.1-3.5,5.8-7.1c-0.3-3.1-2.7-5.5-5.8-5.8c-3.5-0.1-6.4,2.7-6.5,6.2c0,0.1,0,0.2,0,0.3
		C270.6,9.7,273.5,12.6,277,12.6z M277,3.8c1.3,0,2.4,1.1,2.4,2.4c0,1.3-1.1,2.4-2.4,2.4c-1.3,0-2.4-1-2.4-2.4
		c-0.1-1.3,0.9-2.3,2.1-2.4C276.8,3.8,276.9,3.7,277,3.8L277,3.8z"/>
	<path class="st0" d="M385.4,56.9h-39.4v26.1h39.4V56.9z M381.6,79h-31.9V61h31.9L381.6,79z"/>
	<rect x="374" y="64" class="st3" width="3.8" height="11.9"/>
	<rect x="367.8" y="64" class="st4" width="4.1" height="11.9"/>
	<path class="st5" d="M357.7,76.2c3.6,0,6.5-2.9,6.5-6.5s-2.9-6.5-6.5-6.5c-3.6,0-6.5,2.9-6.5,6.5S354.1,76.2,357.7,76.2z
		 M357.7,67.4c1.3,0,2.4,1.1,2.4,2.4c0,1.3-1,2.4-2.3,2.4c0,0,0,0,0,0c-1.3,0-2.4-1.1-2.4-2.4C355.3,68.5,356.3,67.4,357.7,67.4
		C357.7,67.4,357.7,67.4,357.7,67.4z"/>
	<path class="st0" d="M385.4,25.3h-39.4v26h39.4V25.3z M381.6,47.3h-31.9V29.1h31.9L381.6,47.3z"/>
	<rect x="374" y="32.2" class="st3" width="3.8" height="11.9"/>
	<rect x="367.8" y="32.2" class="st4" width="4.1" height="11.9"/>
	<path class="st5" d="M357.7,44.5c3.5,0,6.4-2.8,6.5-6.4c0,0,0-0.1,0-0.1c0.1-3.5-2.7-6.4-6.2-6.5c-0.1,0-0.2,0-0.3,0
		c-3.5,0-6.4,2.8-6.5,6.4c0,0,0,0.1,0,0.1C351.2,41.6,354.1,44.5,357.7,44.5z M357.7,35.7c1.3,0,2.4,1.1,2.4,2.4
		c0,1.3-1.1,2.4-2.4,2.4s-2.4-1.1-2.4-2.4C355.3,36.7,356.3,35.7,357.7,35.7C357.7,35.7,357.7,35.7,357.7,35.7z"/>
	<path class="st0" d="M385.4-6.6h-39.4v26h39.4V-6.6z M381.6,15.4h-31.9V-2.8h31.9L381.6,15.4z"/>
	<rect x="374" y="0.3" class="st3" width="3.8" height="11.9"/>
	<rect x="367.8" y="0.3" class="st4" width="4.1" height="11.9"/>
	<path class="st5" d="M357.7,12.6c3.6,0,6.5-2.9,6.5-6.5s-2.9-6.5-6.5-6.5c-3.6,0-6.5,2.9-6.5,6.5S354.1,12.6,357.7,12.6z
		 M357.7,3.8c1.3,0,2.4,1,2.4,2.3c0,1.3-1,2.4-2.3,2.4c-1.3,0-2.4-1-2.4-2.3c0,0,0,0,0,0c-0.1-1.3,0.9-2.3,2.1-2.4
		C357.5,3.8,357.6,3.8,357.7,3.8L357.7,3.8z"/>
	<path class="st0" d="M466.1,56.9h-39.4v26.1h39.4V56.9z M462.3,79h-31.9V61h31.9L462.3,79z"/>
	<rect x="454.7" y="64" class="st3" width="3.8" height="11.9"/>
	<rect x="448.4" y="64" class="st4" width="4.1" height="11.9"/>
	<path class="st5" d="M438.4,76.2c3.6,0,6.5-2.9,6.5-6.5s-2.9-6.5-6.5-6.5s-6.5,2.9-6.5,6.5S434.8,76.2,438.4,76.2z M438.4,67.4
		c1.3,0,2.4,1.1,2.4,2.4c0,1.3-1,2.4-2.3,2.4c0,0,0,0,0,0c-1.3,0-2.4-1.1-2.4-2.4C436,68.5,437,67.4,438.4,67.4
		C438.3,67.4,438.4,67.4,438.4,67.4z"/>
	<path class="st0" d="M466.1,25.3h-39.4v26h39.4V25.3z M462.3,47.3h-31.9V29.1h31.9L462.3,47.3z"/>
	<rect x="454.7" y="32.2" class="st3" width="3.8" height="11.9"/>
	<rect x="448.4" y="32.2" class="st4" width="4.1" height="11.9"/>
	<path class="st5" d="M438.4,44.5c3.5,0,6.4-2.8,6.5-6.4c0,0,0-0.1,0-0.1c0.1-3.5-2.7-6.4-6.2-6.5c-0.1,0-0.2,0-0.3,0
		c-3.5,0-6.4,2.8-6.5,6.4c0,0,0,0.1,0,0.1C431.9,41.6,434.8,44.5,438.4,44.5z M438.4,35.7c1.3,0,2.4,1.1,2.4,2.4
		c0,1.3-1.1,2.4-2.4,2.4S436,39.4,436,38C436,36.7,437,35.7,438.4,35.7C438.3,35.7,438.4,35.7,438.4,35.7z"/>
	<path class="st0" d="M466.1-6.6h-39.4v26h39.4V-6.6z M462.3,15.4h-31.9V-2.8h31.9L462.3,15.4z"/>
	<rect x="454.7" y="0.3" class="st3" width="3.8" height="11.9"/>
	<rect x="448.4" y="0.3" class="st4" width="4.1" height="11.9"/>
	<path class="st5" d="M438.4,12.6c3.6,0,6.5-2.9,6.5-6.5s-2.9-6.5-6.5-6.5s-6.5,2.9-6.5,6.5S434.8,12.6,438.4,12.6z M438.4,3.8
		c1.3,0,2.4,1.1,2.4,2.4s-1.1,2.4-2.4,2.4S436,7.5,436,6.2c-0.1-1.3,0.9-2.3,2.2-2.4C438.2,3.8,438.3,3.7,438.4,3.8L438.4,3.8z"/>
</g>
<g>
	<g id="_Group__2_">
		<path id="_Path_2-2_1_" class="st6" d="M174.6,29.5L174.6,29.5c-6.4,4.1-8.3,12.6-4.1,19c0,0,0,0,0,0.1l32.4,50.2
			c4.1,6.4,12.6,8.3,19,4.2l0.1-0.1l0,0c6.4-4.1,8.3-12.6,4.2-19l-0.1-0.1l-32.4-50.2c-4-6.4-12.3-8.3-18.7-4.4
			C174.9,29.3,174.8,29.4,174.6,29.5z"/>
		<path id="_Path_3-2_1_" class="st3" d="M173.6,35.3c-2.4,1.6-3.1,4.8-1.5,7.2c0,0,0,0,0,0.1l32.4,50.2c1.5,2.4,4.8,3.1,7.2,1.6
			l0.1-0.1c2.4-1.5,3.2-4.6,1.7-7c-0.1-0.1-0.1-0.2-0.2-0.3l-32.4-50.2C179.6,34.4,176.2,33.8,173.6,35.3z"/>
		<g id="_Group_2_1_">
			<path id="_Path_4-2_1_" class="st7" d="M217.6,96.4c-3.2,2.1-4.1,6.4-2,9.6l0,0l6.8,10.2c2.1,3.2,6.4,4.1,9.6,2l0,0
				c3.2-2.1,4.1-6.4,2-9.6l-6.8-10.2C225.1,95.2,220.9,94.3,217.6,96.4z"/>
		</g>
		<path class="st8" d="M308.8,166.6c-6.3,29.1-35,47.6-64.1,41.3h-0.1c-29.1-6.4-47.6-35-41.5-64.2c3-14.1,11.5-26.4,23.7-34.1l0,0
			c12-7.8,26.6-10.4,40.6-7.3c14,3,26.3,11.5,34,23.6C309.1,138,311.7,152.6,308.8,166.6z M289.7,133.6
			c-11.9-18.6-36.7-24.1-55.3-12.2c-0.1,0-0.1,0.1-0.2,0.1l0,0c-9,5.7-15.4,14.8-17.6,25.3c-4.6,21.7,9.2,43.2,30.7,47.8
			c10.4,2.2,21.3,0.3,30.2-5.5C296.2,177.1,301.7,152.3,289.7,133.6L289.7,133.6z"/>
		<g id="_Group_3_1_" class="st9">
			<path id="_Path_5-2_1_" class="st10" d="M277.5,189.1c-18.6,12-43.5,6.7-55.5-12c-5.8-9-7.8-19.9-5.5-30.3
				c2.2-10.5,8.6-19.6,17.6-25.3l0,0c18.6-12,43.4-6.7,55.4,11.9c0,0.1,0.1,0.1,0.1,0.2c12,18.6,6.7,43.4-11.9,55.4
				C277.7,189,277.6,189.1,277.5,189.1z"/>
		</g>
		<path id="_Path_6_2_" class="st11" d="M289.6,133.6c5.8,8.9,7.8,19.8,5.5,30.2c-0.6,2.9-1.6,5.8-2.9,8.5
			c-2.9,3.9-6.5,7.2-10.6,9.9c-18.6,12-43.4,6.6-55.4-12c-5.8-9-7.8-19.9-5.5-30.3c0.6-2.9,1.6-5.8,2.9-8.5
			c2.9-3.9,6.5-7.2,10.6-9.9l0,0c18.5-12,43.2-6.7,55.2,11.8C289.5,133.4,289.6,133.5,289.6,133.6L289.6,133.6z"/>
	</g>
	<g id="_Group_4_1_">
		<g id="_Group_5_1_">
			<g id="_Group_6_1_">
				<g id="_Group_7_1_">
					<path id="_Path_7_2_" class="st12" d="M146.8,57.1c4.4,9.4,9.9,9.4,9.9,9.4C161.3,82,169,82.9,169,82.9
						c3.5,13.7,11.4,11.3,11.4,11.3c1.2,17.9,9.9,21.3,15.5,18.1c2.1-1.1,3.7-3,4.4-5.3c3.1-9.1,4.9-42.2,8-42.2
						s13.1,10.8,13.1,10.8s12.3-31.4,8.7-39.9S198.9-10,198.9-10c-1-0.1-2.1-0.2-3.1-0.2c-9.5-0.8-38.9-3.1-41.8-1.7
						c-3.5,1.7-10.7,34.8-11.4,41.3C141.7,35.7,142.2,47.8,146.8,57.1z"/>
					<g id="_Group_8_1_">
						<polygon id="_Path_8_1_" class="st3" points="192.9,-15.5 210.8,-15.5 210.8,-53 192.9,-53 132,-53 132,-15.5 						"/>
						<polygon id="_Path_9_1_" class="st13" points="190.7,-8.4 205,-8.4 205,-15.5 190.7,-15.5 142.2,-15.5 142.2,-8.4 						"/>
					</g>
				</g>
			</g>
		</g>
		<polygon id="_Path_10_1_" class="st14" points="201.8,-15.5 210.8,-15.5 210.8,-53 201.8,-53 171.4,-53 171.4,-15.5 		"/>
	</g>
</g>
<path id="_Path_7_3_" class="st15" d="M663.3,5.1c0.6-2.3,0.9-4.6,0.9-7c0-15.5-12.5-28-28-28.1c-4.9-17.4-23-27.6-40.4-22.7
	C583-49,573.6-38.1,572.1-24.9h-1.6c-18,0-32.5,14.6-32.5,32.5s14.6,32.5,32.5,32.5c0,0,0,0,0,0h92c9.7,0,17.6-7.9,17.5-17.6
	C680,13.2,672.6,5.5,663.3,5.1L663.3,5.1z"/>
<path class="st16" d="M609,38.6v62.9c0,8.1-6.5,14.6-14.6,14.6H488"/>
<g id="XMLID_11_">
	<polygon id="XMLID_12_" class="st0" points="505,102.9 482.3,116.1 505,129.2 	"/>
</g>
<g id="XMLID_13_">
	<polygon id="XMLID_14_" class="st0" points="622.1,61.3 608.9,38.6 595.8,61.3 	"/>
</g>
<g>
	<path class="st2" d="M581.8,175.3h64.5c4.6,0,8.4,3.8,8.4,8.4c0,4.6-3.8,8.4-8.4,8.4h-64.5c-4.6,0-8.4-3.8-8.4-8.4
		C573.4,179.1,577.2,175.3,581.8,175.3z"/>
	<path class="st17" d="M590.3,183.7c0,4.6-3.8,8.4-8.4,8.4c-4.7,0-8.4-3.8-8.4-8.4s3.8-8.4,8.4-8.4l0,0
		C586.6,175.3,590.3,179.1,590.3,183.7z"/>
	<path class="st2" d="M646.4,163.2h-64.6c-4.6,0-8.4-3.8-8.4-8.4s3.8-8.4,8.4-8.4l0,0h64.5c4.6,0,8.4,3.8,8.4,8.4
		S651.1,163.2,646.4,163.2L646.4,163.2z"/>
	<path class="st18" d="M654.8,154.8c0,4.6-3.8,8.4-8.4,8.4c-4.7,0-8.4-3.8-8.4-8.4s3.8-8.4,8.4-8.4l0,0
		C650.9,146.4,654.8,150.1,654.8,154.8z"/>
	<path class="st2" d="M646.3,221.1h-63.5c-4.6,0-8.4-3.8-8.4-8.4c0-4.6,3.8-8.4,8.4-8.4h30.7h32.7c4.6,0,8.4,3.8,8.4,8.4
		C654.8,217.3,650.9,221.1,646.3,221.1L646.3,221.1z"/>
	<path class="st19" d="M654.8,212.7c0,4.6-3.8,8.4-8.4,8.4c-4.7,0-8.4-3.8-8.4-8.4s3.8-8.4,8.4-8.4l0,0
		C650.9,204.2,654.8,207.9,654.8,212.7z"/>
	<path class="st8" d="M655.8,335.5c0.9,0,1.7-0.8,1.7-1.7v-0.1l-0.8-82.8v-0.4c0-0.7,0.4-1.2,0.9-1.5c11.8-6,16.5-20.4,10.6-32.3
		c-1.4-2.9-3.5-5.4-6-7.5c-0.8-0.8-2.2-0.7-2.9,0.2c-0.3,0.4-0.5,0.8-0.5,1.4v15.5c0,0.6-0.4,1.2-0.9,1.4l-10.3,5.4
		c-0.5,0.2-1.1,0.2-1.5,0l-10.4-5.4c-0.5-0.3-0.9-0.8-0.9-1.4v-15.5c0-0.8-0.5-1.6-1.2-1.9c-0.8-0.4-1.6-0.2-2.2,0.3
		c-10.2,8.5-11.5,23.7-2.9,33.8c2,2.5,4.6,4.5,7.5,6c0.5,0.3,1,0.8,0.9,1.5v0.4l-0.5,82.7c0,0.9,0.7,1.7,1.6,1.7c0,0,0,0,0.1,0
		L655.8,335.5z"/>
</g>
<g>
	<circle class="st20" cx="500.3" cy="270" r="62.9"/>
	<path class="st8" d="M500.5,205.3c-35.9,0-65.1,29.1-65.1,65.1s29.1,65.1,65.1,65.1s65.1-29.1,65.1-65.1c0,0,0,0,0,0
		C565.5,234.5,536.4,205.4,500.5,205.3z M539.6,309c-0.1,0.1-0.2,0.2-0.2,0.3c-0.1,0.1-0.2,0.2-0.3,0.2c-21.5,21.3-56.1,21.3-77.6,0
		c-0.2,0-0.2-0.2-0.3-0.2c-0.1-0.1-0.2-0.2-0.2-0.3c-21.3-21.5-21.3-56.1,0-77.6c0-0.2,0.2-0.2,0.2-0.3c0.1-0.1,0.2-0.2,0.3-0.2
		c21.5-21.3,56.1-21.3,77.6,0c0.2,0,0.2,0.2,0.3,0.2c0.2,0,0.2,0.2,0.2,0.3C560.9,252.9,560.9,287.5,539.6,309z"/>
	<path class="st3" d="M540,267h8.9c-0.7-10.5-4.9-20.5-11.8-28.5l-6.4,6.4c-1.3,1.3-3.4,1.4-4.7,0.1c0,0-0.1-0.1-0.1-0.1
		c-1.3-1.2-1.4-3.1-0.2-4.4c0.1-0.1,0.1-0.2,0.2-0.2l6.4-6.4c-8-6.9-18-11.1-28.5-11.8v8.9c0,1.8-1.4,3.3-3.2,3.3c0,0,0,0,0,0
		c-1.8-0.1-3.2-1.5-3.3-3.3V222c-10.5,0.7-20.5,4.9-28.5,11.8l6.4,6.4c1.3,1.2,1.4,3.1,0.2,4.4c-0.1,0.1-0.1,0.2-0.2,0.2
		c-1.3,1.3-3.4,1.4-4.7,0.1c0,0-0.1-0.1-0.1-0.1l-6.4-6.4c-6.9,8-11.1,18-11.8,28.5h8.9c1.8,0.1,3.2,1.6,3.1,3.4
		c-0.1,1.7-1.4,3-3.1,3.1h-9c0.7,10.5,4.9,20.5,11.8,28.5l6.4-6.4c1.3-1.2,3.4-1.1,4.6,0.2c1.1,1.2,1.1,3.1,0,4.4l-6.3,6.3
		c1.5,1.3,3.1,2.6,4.8,3.6c5.8-15,22.7-22.4,37.7-16.6c7.6,3,13.6,9,16.6,16.6c1.7-1.2,3.3-2.4,4.8-3.6l-6.4-6.4
		c-1.3-1.2-1.5-3.3-0.2-4.6c1.2-1.3,3.3-1.5,4.6-0.2c0.1,0.1,0.2,0.2,0.2,0.2l6.4,6.4c6.9-8,11.1-18,11.8-28.5H540
		c-1.8,0-3.3-1.4-3.3-3.2c0,0,0,0,0,0C536.8,268.4,538.2,267,540,267z"/>
	<path class="st21" d="M503,275.7c-4.5,1.6-9.4-0.7-11-5.2c-1.6-4.5,0.7-9.4,5.2-11l0,0c2.6-0.9,5.4-0.6,7.7,0.8l26.8-4.5
		l-23.4,13.9C507.7,272.6,505.7,274.8,503,275.7z"/>
</g>
<path class="st16" d="M292.1,287.3h63.3c5.8,0,10.5-4.7,10.5-10.5v-38.3"/>
<path id="XMLID_18_" class="st8" d="M195.5,320.1l-2.7-2.9c1.5-2.3,2.5-4.7,3.3-7.3l3.8,0.1c2.3,0.1,4.4-1.8,4.5-4.3l0.2-4.8
	c0.1-2.3-1.8-4.4-4.3-4.5l-3.8-0.1c-0.7-2.7-1.5-5.1-2.9-7.4l2.9-2.7c1.7-1.7,1.8-4.4,0.2-6.2l-3.3-3.6c-1.6-1.7-4.5-1.8-6.2-0.2
	l-2.9,2.7c-2.3-1.5-4.7-2.5-7.3-3.3l0.1-3.7c0.1-2.3-1.8-4.4-4.3-4.5l-5-0.1c-2.3-0.1-4.4,1.8-4.5,4.3l-0.1,3.8
	c-2.8,0.6-5.1,1.5-7.5,2.9l-2.7-2.9c-1.6-1.7-4.5-1.8-6.2-0.2l-3.6,3.3c-0.8,0.8-1.4,1.8-1.4,3.1c0,1.2,0.3,2.3,1.2,3.1l2.7,2.9
	c-1.5,2.3-2.5,4.7-3.3,7.3l-3.8-0.1c-2.3-0.1-4.4,1.8-4.5,4.3l-0.2,4.8c-0.1,2.3,1.8,4.4,4.3,4.5l3.8,0.1c0.6,2.8,1.5,5.1,2.9,7.5
	l-2.9,2.7c-0.8,0.8-1.4,1.8-1.4,3.1c0,1.2,0.3,2.3,1.2,3.1l3.3,3.6c0.8,0.8,1.8,1.4,3.1,1.4c1.2,0,2.3-0.3,3.1-1.2l2.9-2.7
	c2.3,1.5,4.7,2.5,7.3,3.3l-0.1,3.7c-0.1,2.3,1.8,4.4,4.3,4.5l4.8,0.2c2.3,0.1,4.4-1.8,4.5-4.3l0.1-3.8c2.8-0.6,5.1-1.5,7.5-2.9
	l2.7,2.9c0.8,0.8,1.8,1.4,3.1,1.4c1.2,0,2.3-0.3,3.1-1.2l3.6-3.3C197.2,324.8,197.2,321.9,195.5,320.1z M168.9,319.7
	c-2.5-0.1-5-0.7-7.2-1.7c-6-3-9.7-9.2-9.6-15.9c0.2-9.6,8.3-17,17.9-16.7c2.5,0.1,5,0.7,7.2,1.7c6,3,9.7,9.2,9.6,15.9
	C186.5,312.5,178.5,319.9,168.9,319.7z"/>
<path id="XMLID_17_" class="st22" d="M278.6,306.8l-3.2-3.5c1.8-2.8,3.1-5.8,4.1-8.9l4.6,0.1c2.8,0.1,5.3-2.3,5.5-5.2l0.3-5.9
	c0.1-2.8-2.3-5.3-5.2-5.5l-4.6-0.1c-0.7-3.4-1.8-6.2-3.5-9.1l3.5-3.2c2.1-2.1,2.3-5.3,0.3-7.6l-4.1-4.4c-2-2.1-5.5-2.3-7.6-0.3
	l-3.5,3.2c-2.8-1.8-5.8-3.1-8.9-4.1l0.1-4.5c0.1-2.8-2.3-5.3-5.2-5.5l-6-0.1c-2.8-0.1-5.3,2.3-5.5,5.2l-0.1,4.6
	c-3.4,0.7-6.2,1.8-9.1,3.5l-3.2-3.5c-2-2.1-5.5-2.3-7.6-0.3l-4.4,4.1c-1,1-1.7,2.3-1.7,3.8c0,1.4,0.4,2.8,1.4,3.8l3.2,3.5
	c-1.8,2.8-3.1,5.8-4.1,8.9l-4.6-0.1c-2.8-0.1-5.3,2.3-5.5,5.2l-0.3,5.9c-0.1,2.8,2.3,5.3,5.2,5.5l4.6,0.1c0.7,3.4,1.8,6.2,3.5,9.1
	l-3.5,3.2c-1,1-1.7,2.3-1.7,3.8c0,1.4,0.4,2.8,1.4,3.8l4.1,4.4c1,1,2.3,1.7,3.8,1.7c1.4,0,2.8-0.4,3.8-1.4l3.5-3.2
	c2.8,1.8,5.8,3.1,8.9,4.1l-0.1,4.6c-0.1,2.8,2.3,5.3,5.2,5.5l5.9,0.3c2.8,0.1,5.3-2.3,5.5-5.2l0.1-4.6c3.4-0.7,6.2-1.8,9.1-3.5
	l3.2,3.5c1,1,2.3,1.7,3.8,1.7c1.4,0,2.8-0.4,3.8-1.4l4.4-4.1C280.6,312.4,280.6,308.9,278.6,306.8z M246.2,306.2
	c-3.1-0.1-6-0.8-8.7-2.1c-7.3-3.7-11.8-11.3-11.7-19.4c0.3-11.7,10.1-20.7,21.8-20.4c3.1,0.1,6,0.8,8.7,2.1
	c7.3,3.7,11.8,11.3,11.7,19.4C267.7,297.5,257.8,306.5,246.2,306.2z"/>
<g id="XMLID_15_">
	<polygon id="XMLID_16_" class="st0" points="378.9,257.6 365.7,234.9 352.6,257.6 	"/>
</g>
</svg>
