<?xml version="1.0" encoding="utf-8"?>
<!-- Generator: Adobe Illustrator 19.1.1, SVG Export Plug-In . SVG Version: 6.00 Build 0)  -->
<svg version="1.1" id="Layer_1" xmlns="http://www.w3.org/2000/svg" xmlns:xlink="http://www.w3.org/1999/xlink" x="0px" y="0px"
	 viewBox="132 -53.8 548 390.3" style="enable-background:new 132 -53.8 548 390.3;" xml:space="preserve">
<style type="text/css">
	.st0{fill:none;stroke:#D0D8DC;stroke-width:4;stroke-miterlimit:10;}
	.st1{fill:#90A4AE;}
	.st2{fill:#E4F2FB;}
	.st3{fill:#B0BEC5;}
	.st4{fill:#95C8EC;}
	.st5{fill:#70B2E2;}
	.st6{fill:#81C784;}
	.st7{fill:#71BE72;}
	.st8{fill:#57A7DB;}
	.st9{fill:#FFFFFF;}
	.st10{fill:#F4AE7A;}
	.st11{fill:#71BE71;}
	.st12{fill:#B3B3B3;}
	.st13{fill:none;stroke:#546E7A;stroke-width:2;stroke-miterlimit:10;}
	.st14{fill:#546E7A;}
	.st15{fill:#4F9BC6;}
	.st16{fill:#E6E2E0;}
	.st17{fill:#62B1DD;}
	.st18{fill:#71BE71;stroke:#FFFFFF;stroke-width:2.03;stroke-miterlimit:10;}
</style>
<title>Disrupted-on-premises and cloud environments</title>
<g>
	<line class="st0" x1="456.5" y1="186.1" x2="456.5" y2="59.5"/>
	<g>
		<path class="st1" d="M400.5,207.3h-59.7c-4.3,0-7.7,3.5-7.8,7.8v113.6c0,4.3,3.5,7.7,7.8,7.8h59.7c4.3,0,7.7-3.5,7.8-7.8V215.1
			C408.3,210.9,405,207.4,400.5,207.3C400.5,207.3,400.5,207.3,400.5,207.3z"/>
		<path class="st1" d="M485.2,207.3h-59.7c-4.3,0-7.7,3.5-7.8,7.8v113.6c0,4.3,3.5,7.7,7.8,7.8h59.7c4.3,0,7.7-3.5,7.8-7.8V215.1
			C493,210.9,489.6,207.4,485.2,207.3C485.3,207.3,485.2,207.3,485.2,207.3z"/>
		<path class="st1" d="M569.8,207.3h-59.7c-4.3,0-7.7,3.5-7.8,7.8v113.6c0,4.3,3.5,7.7,7.8,7.8h59.7c4.3,0,7.7-3.5,7.8-7.8V215.1
			C577.6,210.9,574.2,207.4,569.8,207.3C569.9,207.3,569.9,207.3,569.8,207.3z"/>
		<rect x="345.7" y="219.8" class="st2" width="49.9" height="104.2"/>
		<rect x="430.3" y="219.8" class="st2" width="49.9" height="104.2"/>
		<rect x="515" y="219.8" class="st2" width="49.9" height="104.2"/>
		<path class="st3" d="M391.3,291.6h-41.4V319h41.4V291.6z M387.3,314.7h-33.5v-18.9h33.5V314.7z"/>
		<rect x="379.4" y="299.1" class="st4" width="4" height="12.5"/>
		<rect x="372.8" y="299.1" class="st5" width="4.2" height="12.5"/>
		<path class="st6" d="M362.2,311.8c3.7-0.3,6.4-3.7,6.1-7.5c-0.3-3.2-2.9-5.8-6.1-6.1c-3.6-0.1-6.7,2.8-6.8,6.5c0,0.1,0,0.2,0,0.3
			C355.5,308.8,358.5,311.8,362.2,311.8z M362.2,302.5c1.4,0,2.5,1.1,2.5,2.5s-1.1,2.5-2.5,2.5l0,0c-1.4,0-2.5-1.1-2.5-2.5
			C359.7,303.7,360.9,302.5,362.2,302.5L362.2,302.5z"/>
		<path class="st3" d="M391.3,258.4h-41.4v27.3h41.4V258.4z M387.3,281.4h-33.5v-19.1h33.5V281.4z"/>
		<rect x="379.4" y="265.6" class="st4" width="4" height="12.5"/>
		<rect x="372.8" y="265.6" class="st5" width="4.2" height="12.5"/>
		<path class="st6" d="M362.2,278.5c3.7,0,6.8-3,6.8-6.7v-0.1c-0.3-3.7-3.7-6.4-7.5-6.1c-3.2,0.3-5.8,2.9-6.1,6.1
			C355.5,275.4,358.5,278.4,362.2,278.5z M362.2,269.3c1.4,0,2.5,1.1,2.5,2.5s-1.1,2.5-2.5,2.5c-1.4,0-2.5-1.1-2.5-2.5
			C359.7,270.4,360.9,269.3,362.2,269.3L362.2,269.3z"/>
		<path class="st3" d="M391.3,224.9h-41.4v27.3h41.4V224.9z M387.3,248h-33.5v-19.1h33.5V248z"/>
		<rect x="379.4" y="232.1" class="st4" width="4" height="12.5"/>
		<rect x="372.8" y="232.1" class="st5" width="4.2" height="12.5"/>
		<path class="st6" d="M362.2,245c3.7-0.3,6.4-3.7,6.1-7.5c-0.3-3.2-2.9-5.8-6.1-6.1c-3.6-0.1-6.7,2.8-6.8,6.5c0,0.1,0,0.2,0,0.3
			C355.5,242.1,358.5,245,362.2,245z M362.2,235.8c1.4,0,2.5,1.1,2.5,2.5c0,1.4-1.1,2.5-2.5,2.5c-1.4,0-2.5-1.1-2.5-2.5
			c-0.1-1.4,0.9-2.5,2.2-2.5C362,235.8,362.1,235.8,362.2,235.8L362.2,235.8z"/>
		<path class="st3" d="M475.9,291.6h-41.4V319h41.4V291.6z M472,314.7h-33.5v-18.9H472V314.7z"/>
		<rect x="464.1" y="299.1" class="st4" width="4" height="12.5"/>
		<rect x="457.5" y="299.1" class="st5" width="4.2" height="12.5"/>
		<path class="st6" d="M446.9,311.8c3.7,0,6.8-3.1,6.8-6.8c0-3.7-3.1-6.8-6.8-6.8c-3.7,0-6.8,3.1-6.8,6.8
			C440.1,308.7,443.1,311.8,446.9,311.8z M446.9,302.5c1.4,0,2.5,1.1,2.5,2.5s-1.1,2.5-2.5,2.5l0,0c-1.4,0-2.5-1.1-2.5-2.5
			C444.4,303.7,445.5,302.5,446.9,302.5L446.9,302.5z"/>
		<path class="st3" d="M475.9,258.4h-41.4v27.3h41.4V258.4z M472,281.4h-33.5v-19.1H472V281.4z"/>
		<rect x="464.1" y="265.6" class="st4" width="4" height="12.5"/>
		<rect x="457.5" y="265.6" class="st5" width="4.2" height="12.5"/>
		<path class="st6" d="M446.9,278.5c3.7,0,6.8-3,6.8-6.7v-0.1c0.1-3.6-2.8-6.7-6.5-6.8c-0.1,0-0.2,0-0.3,0c-3.7,0-6.8,3-6.8,6.7v0.1
			C440.1,275.5,443.1,278.5,446.9,278.5z M446.9,269.3c1.4,0,2.5,1.1,2.5,2.5s-1.1,2.5-2.5,2.5c-1.4,0-2.5-1.1-2.5-2.5
			S445.5,269.3,446.9,269.3L446.9,269.3z"/>
		<path class="st3" d="M475.9,224.9h-41.4v27.3h41.4V224.9z M472,248h-33.5v-19.1H472V248z"/>
		<rect x="464.1" y="232.1" class="st4" width="4" height="12.5"/>
		<rect x="457.5" y="232.1" class="st5" width="4.2" height="12.5"/>
		<path class="st6" d="M446.9,245c3.7,0,6.8-3.1,6.8-6.8s-3.1-6.8-6.8-6.8c-3.7,0-6.8,3.1-6.8,6.8S443.1,245,446.9,245z
			 M446.9,235.8c1.4,0,2.5,1.1,2.5,2.5c0,1.4-1.1,2.5-2.5,2.5c-1.4,0-2.5-1.1-2.5-2.5l0,0c-0.1-1.4,0.9-2.5,2.2-2.5
			C446.8,235.8,446.9,235.8,446.9,235.8L446.9,235.8z"/>
		<path class="st3" d="M560.6,291.6h-41.4V319h41.4V291.6z M556.7,314.7h-33.5v-18.9h33.5V314.7z"/>
		<rect x="548.7" y="299.1" class="st4" width="4" height="12.5"/>
		<rect x="542.1" y="299.1" class="st5" width="4.2" height="12.5"/>
		<path class="st6" d="M531.6,311.8c3.7,0,6.8-3.1,6.8-6.8c0-3.7-3.1-6.8-6.8-6.8s-6.8,3.1-6.8,6.8
			C524.8,308.7,527.8,311.8,531.6,311.8z M531.6,302.5c1.4,0,2.5,1.1,2.5,2.5s-1.1,2.5-2.5,2.5l0,0c-1.4,0-2.5-1.1-2.5-2.5
			C529,303.7,530.1,302.5,531.6,302.5L531.6,302.5z"/>
		<path class="st3" d="M560.6,258.4h-41.4v27.3h41.4V258.4z M556.7,281.4h-33.5v-19.1h33.5V281.4z"/>
		<rect x="548.7" y="265.6" class="st4" width="4" height="12.5"/>
		<rect x="542.1" y="265.6" class="st5" width="4.2" height="12.5"/>
		<path class="st6" d="M531.6,278.5c3.7,0,6.8-3,6.8-6.7v-0.1c0.1-3.6-2.8-6.7-6.5-6.8c-0.1,0-0.2,0-0.3,0c-3.7,0-6.8,3-6.8,6.7v0.1
			C524.8,275.5,527.8,278.5,531.6,278.5z M531.6,269.3c1.4,0,2.5,1.1,2.5,2.5s-1.1,2.5-2.5,2.5c-1.4,0-2.5-1.1-2.5-2.5
			C529,270.4,530.1,269.3,531.6,269.3L531.6,269.3z"/>
		<path class="st3" d="M560.6,224.9h-41.4v27.3h41.4V224.9z M556.7,248h-33.5v-19.1h33.5V248z"/>
		<rect x="548.7" y="232.1" class="st4" width="4" height="12.5"/>
		<rect x="542.1" y="232.1" class="st5" width="4.2" height="12.5"/>
		<path class="st6" d="M531.6,245c3.7,0,6.8-3.1,6.8-6.8s-3.1-6.8-6.8-6.8s-6.8,3.1-6.8,6.8S527.8,245,531.6,245z M531.6,235.8
			c1.4,0,2.5,1.1,2.5,2.5c0,1.4-1.1,2.5-2.5,2.5c-1.4,0-2.5-1.1-2.5-2.5c-0.1-1.4,0.9-2.5,2.3-2.5
			C531.4,235.8,531.5,235.8,531.6,235.8L531.6,235.8z"/>
	</g>
	<g>
		<g>
			<g>
				<path class="st7" d="M530.3-53.4c-1.8,0-3.5,0-4.8,0c-0.5,0-53.9-4-75.6,66.5c-18.7,61.7-62.2,59.1-64.4,58.7
					c-0.8,0-1.8,0-2.6,0c-30.4-1.3-54.8-26.6-54.8-57.4c0-31.8,25.7-57.4,57.4-57.4c19.5,0,37.4,9.9,48.3,26.5l9.1-6.1
					c-12.7-19.5-34.4-31.3-57.4-31.3c-37.9,0-68.3,30.4-68.3,68.3c0,36.6,28.6,66.5,65.2,68.3c0.8,0,2.2,0,2.6,0c0,0,0.8,0,1.8,0
					c9.6,0,54.3-3.5,74-66.5c18.7-61.7,62.2-59.1,64.4-58.7c1.3,0,3,0,4.3,0c29.6,2.2,53.1,27.5,53.1,56.9
					c0,31.8-25.7,57.4-57.4,57.4c-19.5,0-37.4-9.9-48.3-26.5l-9.1,6.1c12.6,19.5,33.9,31.3,57.4,31.3c37.9,0,68.3-30.4,68.3-68.3
					C593.4-20.8,565.6-50.4,530.3-53.4z"/>
			</g>
		</g>
		<g>
			<path class="st8" d="M371.1,14.5c0,5.3-1.3,9.1-4.3,11.7c-2.6,2.6-7,4-12.2,4h-8.8V-1.2h9.6c4.8,0,8.8,1.3,11.3,4
				C369.3,5.4,371.1,9.7,371.1,14.5z M367.2,14.8c0-4-0.8-7-3-9.1s-5.3-3-9.1-3h-5.3v24.8h4.3c4.3,0,7.4-0.8,9.6-3
				C366.3,22.3,367.2,18.8,367.2,14.8z"/>
			<path class="st8" d="M395.5,30.5h-17.4V-0.7h17.4v3h-13.9v9.9h13.1v3h-13.1v11.3h13.9V30.5z"/>
			<path class="st8" d="M420.3-0.7h4L413,30.5h-3.5L398.2-0.7h4l7,20c0.8,2.2,1.3,4.8,2.2,7c0.5-2.2,1.3-4.8,2.2-7L420.3-0.7z"/>
		</g>
		<g>
			<path class="st8" d="M515.1,15.3c0,4.8-1.3,8.8-4,11.7s-6.1,4.3-10.4,4.3c-4.8,0-8.3-1.3-10.4-4.3c-2.6-2.6-4-7-4-11.7
				c0-5.3,1.3-9.1,4-11.7c2.6-2.6,6.1-4.3,10.9-4.3c4.3,0,7.8,1.3,10.4,4.3C513.8,6.2,515.1,10.2,515.1,15.3z M490.3,15.3
				c0,4.3,0.8,7.4,2.6,9.6c1.8,2.2,4.3,3.5,7.8,3.5c3.5,0,6.1-1.3,7.8-3.5c1.8-2.2,2.6-5.3,2.6-9.6s-0.8-7.4-2.6-9.6
				c-1.8-2.2-4.3-3-7.8-3c-3.5,0-6.1,1.3-7.8,3.5C491.1,7.9,490.3,11,490.3,15.3z"/>
			<path class="st8" d="M541.6,8.9c0,3-0.8,5.6-3,7.4c-2.2,1.8-5.3,2.6-9.1,2.6H526V31h-3.5V-0.4h8.3C537.6-0.4,541.6,2.7,541.6,8.9
				z M525.5,15.3h3.5c3,0,5.6-0.5,7-1.8c1.3-0.8,2.2-2.6,2.2-4.8s-0.8-3.5-2.2-4.8c-1.3-1.3-3.5-1.3-6.5-1.3h-4V15.3L525.5,15.3z"/>
			<path class="st8" d="M565.9,22.3c0,2.6-0.8,4.8-3,6.5c-2.2,1.8-4.8,2.2-8.3,2.2s-6.5-0.5-8.8-1.3v-3.4c1.3,0.5,2.6,0.8,4.3,1.3
				c1.3,0.5,3,0.5,4.3,0.5c2.6,0,4.3-0.5,5.6-1.3c1.3-0.8,1.8-2.2,1.8-4c0-0.8,0-2.2-0.5-2.6c-0.5-0.8-1.3-1.3-2.2-1.8
				c-0.8-0.5-2.6-1.3-4.8-2.2c-3-0.8-4.8-2.2-6.1-3.5c-1.3-1.3-1.8-3.5-1.8-5.6c0-2.6,0.8-4.3,2.6-5.6c1.8-1.3,4.3-2.2,7-2.2
				c3,0,6.1,0.5,8.8,1.8l-1.3,3c-2.6-0.8-5.3-1.8-7.4-1.8c-1.8,0-3.5,0.5-4.3,1.3s-1.8,2.2-1.8,3.5c0,0.8,0,2.2,0.5,2.6
				c0.5,0.8,0.8,1.3,2.2,1.8c0.8,0.5,2.2,1.3,4.3,1.8c3.5,1.3,5.6,2.6,7,4C565.1,18.8,565.9,20.6,565.9,22.3z"/>
		</g>
	</g>
	<circle class="st9" cx="459.1" cy="127.3" r="20.7"/>
	<path id="XMLID_17_" class="st7" d="M480.5,140.1l-2.4-2.7c1.4-2.1,2.4-4.4,3.1-6.8l3.5,0.1c2.1,0.1,4-1.8,4.2-4l0.2-4.5
		c0.1-2.1-1.8-4-4-4.2l-3.5-0.1c-0.5-2.6-1.4-4.7-2.7-6.9l2.7-2.4c1.6-1.6,1.8-4,0.2-5.8l-3.1-3.4c-1.5-1.6-4.2-1.8-5.8-0.2
		l-2.7,2.4c-2.1-1.4-4.4-2.4-6.8-3.1l0.1-3.4c0.1-2.1-1.8-4-4-4.2l-4.6-0.1c-2.1-0.1-4,1.8-4.2,4l-0.1,3.5c-2.6,0.5-4.7,1.4-6.9,2.7
		l-2.4-2.7c-1.5-1.6-4.2-1.8-5.8-0.2l-3.4,3.1c-0.8,0.8-1.3,1.8-1.3,2.9c0,1.1,0.3,2.1,1.1,2.9l2.4,2.7c-1.4,2.1-2.4,4.4-3.1,6.8
		l-3.5-0.1c-2.1-0.1-4,1.8-4.2,4l-0.2,4.5c-0.1,2.1,1.8,4,4,4.2l3.5,0.1c0.5,2.6,1.4,4.7,2.7,6.9l-2.7,2.4c-0.8,0.8-1.3,1.8-1.3,2.9
		c0,1.1,0.3,2.1,1.1,2.9l3.1,3.4c0.8,0.8,1.8,1.3,2.9,1.3c1.1,0,2.1-0.3,2.9-1.1l2.7-2.4c2.1,1.4,4.4,2.4,6.8,3.1l-0.1,3.5
		c-0.1,2.1,1.8,4,4,4.2l4.5,0.2c2.1,0.1,4-1.8,4.2-4l0.1-3.5c2.6-0.5,4.7-1.4,6.9-2.7l2.4,2.7c0.8,0.8,1.8,1.3,2.9,1.3
		c1.1,0,2.1-0.3,2.9-1.1l3.4-3.1C482,144.3,482,141.7,480.5,140.1z M455.7,139.6c-2.4-0.1-4.6-0.6-6.6-1.6c-5.6-2.8-9-8.6-8.9-14.8
		c0.2-8.9,7.7-15.8,16.6-15.6c2.4,0.1,4.6,0.6,6.6,1.6c5.6,2.8,9,8.6,8.9,14.8C472.2,133,464.6,139.8,455.7,139.6z"/>
	<g id="XMLID_15_">
		<polygon id="XMLID_16_" class="st3" points="443.3,184 456.5,206.7 469.6,184 		"/>
	</g>
</g>
<g>
	<path class="st2" d="M247.4,141.6H326c5.6,0,10.3,4.6,10.3,10.3c0,5.6-4.6,10.3-10.3,10.3h-78.5c-5.6,0-10.3-4.6-10.3-10.3
		C237.3,146.2,241.9,141.6,247.4,141.6z"/>
	<path class="st10" d="M257.8,151.8c0,5.6-4.6,10.3-10.3,10.3s-10.3-4.6-10.3-10.3s4.6-10.3,10.3-10.3l0,0
		C253.2,141.6,257.8,146.2,257.8,151.8z"/>
	<path class="st2" d="M326,126.9h-78.6c-5.6,0-10.3-4.6-10.3-10.3s4.6-10.3,10.3-10.3l0,0H326c5.6,0,10.3,4.6,10.3,10.3
		S331.7,126.9,326,126.9L326,126.9z"/>
	<path class="st11" d="M336.2,116.6c0,5.6-4.6,10.3-10.3,10.3c-5.7,0-10.3-4.6-10.3-10.3s4.6-10.3,10.3-10.3l0,0
		C331.5,106.4,336.2,110.9,336.2,116.6z"/>
	<path class="st2" d="M326,197.3h-77.2c-5.6,0-10.3-4.6-10.3-10.3c0-5.6,4.6-10.3,10.3-10.3h37.3h39.8c5.6,0,10.3,4.6,10.3,10.3
		C336.2,192.7,331.5,197.3,326,197.3L326,197.3z"/>
	<path class="st12" d="M336.2,187.1c0,5.6-4.6,10.3-10.3,10.3c-5.7,0-10.3-4.6-10.3-10.3s4.6-10.3,10.3-10.3l0,0
		C331.5,176.8,336.2,181.3,336.2,187.1z"/>
	<path class="st8" d="M337.5,336.5c1.1,0,2-0.9,2.1-2v-0.1l-0.9-100.7v-0.5c0-0.8,0.5-1.5,1.1-1.8c14.4-7.2,20.1-24.9,12.8-39.3
		c-1.7-3.5-4.3-6.6-7.2-9.2c-1-0.9-2.7-0.8-3.6,0.3c-0.4,0.5-0.6,1-0.6,1.7v18.8c0,0.7-0.5,1.5-1.1,1.7l-12.6,6.5
		c-0.6,0.3-1.3,0.3-1.8,0l-12.7-6.5c-0.6-0.4-1.1-1-1.1-1.7v-18.8c0-1-0.6-1.9-1.5-2.3c-0.9-0.5-1.9-0.3-2.7,0.4
		c-12.4,10.4-13.9,28.8-3.6,41.2c2.5,3,5.6,5.5,9.2,7.2c0.6,0.4,1.2,1,1.1,1.8v0.5l-0.6,100.6c0,1.1,0.8,2.1,1.9,2.1c0,0,0,0,0.1,0
		L337.5,336.5z"/>
</g>
<g>
	<polyline class="st13" points="146.7,-36.2 189.2,-36.2 277,-36.2 	"/>
	<polyline class="st13" points="189.2,-39.3 189.2,16.7 276.1,16.7 	"/>
	<polyline class="st13" points="233.5,16.7 233.5,69.1 273,69.1 	"/>
	<path class="st10" d="M186.9-21.7l-12.5-12.5c-1.3-1.2-1.4-3.3-0.2-4.6c0.1-0.1,0.1-0.1,0.2-0.2l12.5-12.5c1.2-1.3,3.3-1.4,4.6-0.2
		c0.1,0.1,0.1,0.1,0.2,0.2L204.3-39c1.3,1.2,1.4,3.3,0.2,4.6c-0.1,0.1-0.1,0.1-0.2,0.2l-12.6,12.5c-1.2,1.3-3.3,1.4-4.6,0.2
		C187-21.5,187-21.6,186.9-21.7z"/>
	<path class="st14" d="M231.3-21.7l-12.5-12.5c-1.3-1.2-1.4-3.3-0.2-4.6c0.1-0.1,0.1-0.1,0.2-0.2l12.5-12.5c1.2-1.3,3.3-1.4,4.6-0.2
		c0.1,0.1,0.1,0.1,0.2,0.2L248.7-39c1.3,1.2,1.4,3.3,0.2,4.6c-0.1,0.1-0.1,0.1-0.2,0.2l-12.5,12.5c-1.2,1.3-3.3,1.4-4.6,0.2
		C231.4-21.5,231.3-21.6,231.3-21.7z"/>
	<path class="st15" d="M157.8-22.2H137c-2.1-0.1-3.8-1.9-4-4v-20.5c0.1-2.1,1.9-3.8,4-4h20.8c2.1,0.1,3.8,1.9,4,4v20.8
		C161.5-23.9,159.8-22.3,157.8-22.2z"/>
	<circle class="st6" cx="273" cy="-36.2" r="13.7"/>
	<path class="st10" d="M186.9,31.5L174.4,19c-1.3-1.2-1.4-3.3-0.2-4.6c0.1-0.1,0.1-0.1,0.2-0.2l12.5-12.5c1.2-1.3,3.3-1.4,4.6-0.2
		c0.1,0.1,0.1,0.1,0.2,0.2l12.5,12.5c1.3,1.2,1.4,3.3,0.2,4.6c-0.1,0.1-0.1,0.1-0.2,0.2l-12.6,12.5c-1.2,1.3-3.3,1.4-4.6,0.2
		C187,31.7,187,31.6,186.9,31.5z"/>
	<path class="st15" d="M243.5,31h-20.8c-2.1-0.1-3.8-1.9-4-4V6.2c0.1-2.1,1.9-3.8,4-4h20.8c2.1,0.1,3.8,1.9,4,4V27
		c0.2,2.1-1.4,3.9-3.5,4C243.9,31,243.7,31,243.5,31z"/>
	<path class="st15" d="M243.5,83.3h-20.8c-2.1-0.1-3.8-1.9-4-4V58.5c0.1-2.1,1.9-3.8,4-4h20.8c2.1,0.1,3.8,1.9,4,4v20.8
		c0.1,2.1-1.6,3.9-3.8,4C243.7,83.3,243.6,83.3,243.5,83.3z"/>
	<circle class="st6" cx="273" cy="16.7" r="13.7"/>
	<circle class="st6" cx="273" cy="69.1" r="13.7"/>
</g>
<g>
	<polygon class="st16" points="579.2,175 566.6,194.3 591.1,218.7 610.4,206.1 	"/>
	<polygon class="st15" points="651.9,173.6 611.7,133.5 576.3,139 554.2,161.1 582.9,162.3 623.1,202.4 624.3,231.1 646.3,209.1 	
		"/>
	<path class="st17" d="M678.1,107.2c-23.7-6.6-45.8,5.7-56.2,16.1c-3.1,3.1-49.4,49.4-49.4,49.4l40.1,40.1c0,0,41.9-41.9,49.4-49.4
		C672.5,153,684.7,130.9,678.1,107.2z"/>
	<path class="st15" d="M587.1,198.3c-1.2-1.2-1.2-3.1,0-4.3l42.6-42.6c1.2-1.2,3.1-1.2,4.3,0c1.2,1.2,1.2,3.1,0,4.3l-42.6,42.6
		C590.2,199.5,588.3,199.5,587.1,198.3z"/>
	<circle class="st2" cx="651.9" cy="133.5" r="11.3"/>
	<g>
		<path class="st10" d="M548.6,217c-1.2-1.2-1.2-3.1,0-4.3l11.7-11.7c1.2-1.2,3.1-1.2,4.3,0s1.2,3.1,0,4.3L553,217
			C551.8,218.2,549.8,218.2,548.6,217z"/>
		<path class="st10" d="M568.4,236.7c-1.2-1.2-1.2-3.1,0-4.3l11.7-11.7c1.2-1.2,3.1-1.2,4.3,0s1.2,3.1,0,4.3l-11.7,11.7
			C571.5,237.9,569.6,237.9,568.4,236.7z"/>
		<path class="st10" d="M553.6,231.3c-1.2-1.2-1.2-3.1,0-4.3l16.4-16.4c1.2-1.2,3.1-1.2,4.3,0c1.2,1.2,1.2,3.1,0,4.3l-16.4,16.4
			C556.7,232.5,554.8,232.5,553.6,231.3z"/>
	</g>
</g>
<g>
	<circle class="st9" cx="197.4" cy="271" r="62.9"/>
	<path class="st8" d="M197.6,206.3c-35.9,0-65.1,29.1-65.1,65.1s29.1,65.1,65.1,65.1s65.1-29.1,65.1-65.1c0,0,0,0,0,0
		C262.6,235.5,233.5,206.4,197.6,206.3z M236.7,310c-0.1,0.1-0.2,0.2-0.2,0.3c-0.1,0.1-0.2,0.2-0.3,0.2c-21.5,21.3-56.1,21.3-77.6,0
		c-0.2,0-0.2-0.2-0.3-0.2c-0.1-0.1-0.2-0.2-0.2-0.3c-21.3-21.5-21.3-56.1,0-77.6c0-0.2,0.2-0.2,0.2-0.3c0.1-0.1,0.2-0.2,0.3-0.2
		c21.5-21.3,56.1-21.3,77.6,0c0.2,0,0.2,0.2,0.3,0.2s0.2,0.2,0.2,0.3C258,253.9,258,288.5,236.7,310z"/>
	<path class="st4" d="M237.1,268h8.9c-0.7-10.5-4.9-20.5-11.8-28.5l-6.4,6.4c-1.3,1.3-3.4,1.4-4.7,0.1c0,0-0.1-0.1-0.1-0.1
		c-1.3-1.2-1.4-3.1-0.2-4.4c0.1-0.1,0.1-0.2,0.2-0.2l6.4-6.4c-8-6.9-18-11.1-28.5-11.8v8.9c0,1.8-1.4,3.3-3.2,3.3c0,0,0,0,0,0
		c-1.8-0.1-3.2-1.5-3.3-3.3V223c-10.5,0.7-20.5,4.9-28.5,11.8l6.4,6.4c1.3,1.2,1.4,3.1,0.2,4.4c-0.1,0.1-0.1,0.2-0.2,0.2
		c-1.3,1.3-3.4,1.4-4.7,0.1c0,0-0.1-0.1-0.1-0.1l-6.4-6.4c-6.9,8-11.1,18-11.8,28.5h8.9c1.8,0.1,3.2,1.6,3.1,3.4
		c-0.1,1.7-1.4,3-3.1,3.1h-9c0.7,10.5,4.9,20.5,11.8,28.5l6.4-6.4c1.3-1.2,3.4-1.1,4.6,0.2c1.1,1.2,1.1,3.1,0,4.4l-6.3,6.3
		c1.5,1.3,3.1,2.6,4.8,3.6c5.8-15,22.7-22.4,37.7-16.6c7.6,3,13.6,9,16.6,16.6c1.7-1.2,3.3-2.4,4.8-3.6l-6.4-6.4
		c-1.3-1.2-1.5-3.3-0.2-4.6c1.2-1.3,3.3-1.5,4.6-0.2c0.1,0.1,0.2,0.2,0.2,0.2l6.4,6.4c6.9-8,11.1-18,11.8-28.5h-8.9
		c-1.8,0-3.3-1.4-3.3-3.2c0,0,0,0,0,0C233.9,269.4,235.3,268,237.1,268z"/>
	<path class="st18" d="M200.2,276.7c-4.5,1.6-9.4-0.7-11-5.2c-1.6-4.5,0.7-9.4,5.2-11l0,0c2.6-0.9,5.4-0.6,7.7,0.8l26.8-4.5
		l-23.4,13.9C204.8,273.6,202.8,275.8,200.2,276.7z"/>
</g>
</svg>
