<?xml version="1.0" encoding="utf-8"?>
<!-- Generator: Adobe Illustrator 19.1.1, SVG Export Plug-In . SVG Version: 6.00 Build 0)  -->
<svg version="1.1" id="Layer_1" xmlns="http://www.w3.org/2000/svg" xmlns:xlink="http://www.w3.org/1999/xlink" x="0px" y="0px"
	 viewBox="132 -53.8 548 390.3" style="enable-background:new 132 -53.8 548 390.3;" xml:space="preserve">
<style type="text/css">
	.st0{fill:none;stroke:#D0D8DC;stroke-width:4;stroke-miterlimit:10;}
	.st1{fill:#90A4AE;}
	.st2{fill:#E4F2FB;}
	.st3{fill:#B0BEC5;}
	.st4{fill:#95C8EC;}
	.st5{fill:#70B2E2;}
	.st6{fill:#81C784;}
	.st7{fill:#71BE72;}
	.st8{fill:#57A7DB;}
	.st9{fill:#58A6DA;}
	.st10{fill:#3D82C4;}
	.st11{fill:#BDDDF4;}
	.st12{fill:#F7C9A4;}
	.st13{fill:#FFD9B6;}
	.st14{fill:#493030;}
	.st15{fill:#546E7A;}
	.st16{fill:#3F535C;}
	.st17{fill:#EFC75E;}
	.st18{fill:#F5F5F5;}
	.st19{fill:#FFFFFF;}
</style>
<line class="st0" x1="271.3" y1="186.1" x2="271.3" y2="59.5"/>
<g>
	<path class="st1" d="M215.4,207.3h-59.7c-4.3,0-7.7,3.5-7.8,7.8v113.6c0,4.3,3.5,7.7,7.8,7.8h59.7c4.3,0,7.7-3.5,7.8-7.8V215.1
		C223.2,210.9,219.8,207.4,215.4,207.3C215.4,207.3,215.4,207.3,215.4,207.3z"/>
	<path class="st1" d="M300,207.3h-59.7c-4.3,0-7.7,3.5-7.8,7.8v113.6c0,4.3,3.5,7.7,7.8,7.8H300c4.3,0,7.7-3.5,7.8-7.8V215.1
		C307.8,210.9,304.4,207.4,300,207.3C300.1,207.3,300,207.3,300,207.3z"/>
	<path class="st1" d="M384.6,207.3h-59.7c-4.3,0-7.7,3.5-7.8,7.8v113.6c0,4.3,3.5,7.7,7.8,7.8h59.7c4.3,0,7.7-3.5,7.8-7.8V215.1
		C392.5,210.9,389.1,207.4,384.6,207.3C384.7,207.3,384.7,207.3,384.6,207.3z"/>
	<rect x="160.5" y="219.8" class="st2" width="49.9" height="104.2"/>
	<rect x="245.1" y="219.8" class="st2" width="49.9" height="104.2"/>
	<rect x="329.8" y="219.8" class="st2" width="49.9" height="104.2"/>
	<path class="st3" d="M206.1,291.6h-41.4V319h41.4V291.6z M202.1,314.7h-33.5v-18.9h33.5V314.7z"/>
	<rect x="194.2" y="299.1" class="st4" width="4" height="12.5"/>
	<rect x="187.6" y="299.1" class="st5" width="4.2" height="12.5"/>
	<path class="st6" d="M177,311.8c3.7-0.3,6.4-3.7,6.1-7.5c-0.3-3.2-2.9-5.8-6.1-6.1c-3.6-0.1-6.7,2.8-6.8,6.5c0,0.1,0,0.2,0,0.3
		C170.3,308.8,173.3,311.8,177,311.8z M177,302.5c1.4,0,2.5,1.1,2.5,2.5s-1.1,2.5-2.5,2.5l0,0c-1.4,0-2.5-1.1-2.5-2.5
		C174.6,303.7,175.7,302.5,177,302.5L177,302.5z"/>
	<path class="st3" d="M206.1,258.4h-41.4v27.3h41.4V258.4z M202.1,281.4h-33.5v-19.1h33.5V281.4z"/>
	<rect x="194.2" y="265.6" class="st4" width="4" height="12.5"/>
	<rect x="187.6" y="265.6" class="st5" width="4.2" height="12.5"/>
	<path class="st6" d="M177,278.5c3.7,0,6.8-3,6.8-6.7v-0.1c-0.3-3.7-3.7-6.4-7.5-6.1c-3.2,0.3-5.8,2.9-6.1,6.1
		C170.3,275.4,173.3,278.4,177,278.5z M177,269.3c1.4,0,2.5,1.1,2.5,2.5s-1.1,2.5-2.5,2.5s-2.5-1.1-2.5-2.5
		C174.6,270.4,175.7,269.3,177,269.3L177,269.3z"/>
	<path class="st3" d="M206.1,224.9h-41.4v27.3h41.4V224.9z M202.1,248h-33.5v-19.1h33.5V248z"/>
	<rect x="194.2" y="232.1" class="st4" width="4" height="12.5"/>
	<rect x="187.6" y="232.1" class="st5" width="4.2" height="12.5"/>
	<path class="st6" d="M177,245c3.7-0.3,6.4-3.7,6.1-7.5c-0.3-3.2-2.9-5.8-6.1-6.1c-3.6-0.1-6.7,2.8-6.8,6.5c0,0.1,0,0.2,0,0.3
		C170.3,242.1,173.3,245,177,245z M177,235.8c1.4,0,2.5,1.1,2.5,2.5c0,1.4-1.1,2.5-2.5,2.5s-2.5-1.1-2.5-2.5
		c-0.1-1.4,0.9-2.5,2.2-2.5C176.9,235.8,176.9,235.8,177,235.8L177,235.8z"/>
	<path class="st3" d="M290.8,291.6h-41.4V319h41.4V291.6z M286.8,314.7h-33.5v-18.9h33.5V314.7z"/>
	<rect x="278.9" y="299.1" class="st4" width="4" height="12.5"/>
	<rect x="272.3" y="299.1" class="st5" width="4.2" height="12.5"/>
	<path class="st6" d="M261.7,311.8c3.7,0,6.8-3.1,6.8-6.8c0-3.7-3.1-6.8-6.8-6.8c-3.7,0-6.8,3.1-6.8,6.8
		C254.9,308.7,257.9,311.8,261.7,311.8z M261.7,302.5c1.4,0,2.5,1.1,2.5,2.5s-1.1,2.5-2.5,2.5l0,0c-1.4,0-2.5-1.1-2.5-2.5
		C259.2,303.7,260.3,302.5,261.7,302.5L261.7,302.5z"/>
	<path class="st3" d="M290.8,258.4h-41.4v27.3h41.4V258.4z M286.8,281.4h-33.5v-19.1h33.5V281.4z"/>
	<rect x="278.9" y="265.6" class="st4" width="4" height="12.5"/>
	<rect x="272.3" y="265.6" class="st5" width="4.2" height="12.5"/>
	<path class="st6" d="M261.7,278.5c3.7,0,6.8-3,6.8-6.7v-0.1c0.1-3.6-2.8-6.7-6.5-6.8c-0.1,0-0.2,0-0.3,0c-3.7,0-6.8,3-6.8,6.7v0.1
		C254.9,275.5,257.9,278.5,261.7,278.5z M261.7,269.3c1.4,0,2.5,1.1,2.5,2.5s-1.1,2.5-2.5,2.5c-1.4,0-2.5-1.1-2.5-2.5
		S260.3,269.3,261.7,269.3L261.7,269.3z"/>
	<path class="st3" d="M290.8,224.9h-41.4v27.3h41.4V224.9z M286.8,248h-33.5v-19.1h33.5V248z"/>
	<rect x="278.9" y="232.1" class="st4" width="4" height="12.5"/>
	<rect x="272.3" y="232.1" class="st5" width="4.2" height="12.5"/>
	<path class="st6" d="M261.7,245c3.7,0,6.8-3.1,6.8-6.8s-3.1-6.8-6.8-6.8c-3.7,0-6.8,3.1-6.8,6.8S257.9,245,261.7,245z M261.7,235.8
		c1.4,0,2.5,1.1,2.5,2.5c0,1.4-1.1,2.5-2.5,2.5c-1.4,0-2.5-1.1-2.5-2.5l0,0c-0.1-1.4,0.9-2.5,2.2-2.5
		C261.6,235.8,261.7,235.8,261.7,235.8L261.7,235.8z"/>
	<path class="st3" d="M375.4,291.6H334V319h41.4V291.6z M371.5,314.7H338v-18.9h33.5V314.7z"/>
	<rect x="363.5" y="299.1" class="st4" width="4" height="12.5"/>
	<rect x="356.9" y="299.1" class="st5" width="4.2" height="12.5"/>
	<path class="st6" d="M346.4,311.8c3.7,0,6.8-3.1,6.8-6.8c0-3.7-3.1-6.8-6.8-6.8s-6.8,3.1-6.8,6.8
		C339.6,308.7,342.7,311.8,346.4,311.8z M346.4,302.5c1.4,0,2.5,1.1,2.5,2.5s-1.1,2.5-2.5,2.5l0,0c-1.4,0-2.5-1.1-2.5-2.5
		C343.9,303.7,345,302.5,346.4,302.5L346.4,302.5z"/>
	<path class="st3" d="M375.4,258.4H334v27.3h41.4V258.4z M371.5,281.4H338v-19.1h33.5V281.4z"/>
	<rect x="363.5" y="265.6" class="st4" width="4" height="12.5"/>
	<rect x="356.9" y="265.6" class="st5" width="4.2" height="12.5"/>
	<path class="st6" d="M346.4,278.5c3.7,0,6.8-3,6.8-6.7v-0.1c0.1-3.6-2.8-6.7-6.5-6.8c-0.1,0-0.2,0-0.3,0c-3.7,0-6.8,3-6.8,6.7v0.1
		C339.6,275.5,342.7,278.5,346.4,278.5z M346.4,269.3c1.4,0,2.5,1.1,2.5,2.5s-1.1,2.5-2.5,2.5c-1.4,0-2.5-1.1-2.5-2.5
		C343.9,270.4,345,269.3,346.4,269.3L346.4,269.3z"/>
	<path class="st3" d="M375.4,224.9H334v27.3h41.4V224.9z M371.5,248H338v-19.1h33.5V248z"/>
	<rect x="363.5" y="232.1" class="st4" width="4" height="12.5"/>
	<rect x="356.9" y="232.1" class="st5" width="4.2" height="12.5"/>
	<path class="st6" d="M346.4,245c3.7,0,6.8-3.1,6.8-6.8s-3.1-6.8-6.8-6.8s-6.8,3.1-6.8,6.8S342.7,245,346.4,245z M346.4,235.8
		c1.4,0,2.5,1.1,2.5,2.5c0,1.4-1.1,2.5-2.5,2.5c-1.4,0-2.5-1.1-2.5-2.5c-0.1-1.4,0.9-2.5,2.3-2.5
		C346.2,235.8,346.3,235.8,346.4,235.8L346.4,235.8z"/>
</g>
<g>
	<g>
		<g>
			<path class="st7" d="M345.1-53.4c-1.8,0-3.5,0-4.8,0c-0.5,0-53.9-4-75.6,66.5c-18.7,61.7-62.2,59.1-64.4,58.7c-0.8,0-1.8,0-2.6,0
				c-30.4-1.3-54.8-26.6-54.8-57.4c0-31.8,25.7-57.4,57.4-57.4c19.5,0,37.4,9.9,48.3,26.5l9.1-6.1c-12.7-19.5-34.4-31.3-57.4-31.3
				c-37.9,0-68.3,30.4-68.3,68.3c0,36.6,28.6,66.5,65.2,68.3c0.8,0,2.2,0,2.6,0c0,0,0.8,0,1.8,0c9.6,0,54.3-3.5,74-66.5
				c18.7-61.7,62.2-59.1,64.4-58.7c1.3,0,3,0,4.3,0c29.6,2.2,53.1,27.5,53.1,56.9c0,31.8-25.7,57.4-57.4,57.4
				c-19.5,0-37.4-9.9-48.3-26.5l-9.1,6.1c12.6,19.5,33.9,31.3,57.4,31.3c37.9,0,68.3-30.4,68.3-68.3
				C408.2-20.8,380.4-50.4,345.1-53.4z"/>
		</g>
	</g>
	<g>
		<path class="st8" d="M185.9,14.5c0,5.3-1.3,9.1-4.3,11.7c-2.6,2.6-7,4-12.2,4h-8.8V-1.2h9.6c4.8,0,8.8,1.3,11.3,4
			C184.1,5.4,185.9,9.7,185.9,14.5z M182,14.8c0-4-0.8-7-3-9.1s-5.3-3-9.1-3h-5.3v24.8h4.3c4.3,0,7.4-0.8,9.6-3
			C181.1,22.3,182,18.8,182,14.8z"/>
		<path class="st8" d="M210.3,30.5h-17.4V-0.7h17.4v3h-13.9v9.9h13.1v3h-13.1v11.3h13.9V30.5z"/>
		<path class="st8" d="M235.1-0.7h4l-11.3,31.3h-3.5L213-0.7h4l7,20c0.8,2.2,1.3,4.8,2.2,7c0.5-2.2,1.3-4.8,2.2-7L235.1-0.7z"/>
	</g>
	<g>
		<path class="st8" d="M329.9,15.3c0,4.8-1.3,8.8-4,11.7c-2.6,3-6.1,4.3-10.4,4.3c-4.8,0-8.3-1.3-10.4-4.3c-2.6-2.6-4-7-4-11.7
			c0-5.3,1.3-9.1,4-11.7c2.6-2.6,6.1-4.3,10.9-4.3c4.3,0,7.8,1.3,10.4,4.3C328.6,6.2,329.9,10.2,329.9,15.3z M305.1,15.3
			c0,4.3,0.8,7.4,2.6,9.6c1.8,2.2,4.3,3.5,7.8,3.5c3.5,0,6.1-1.3,7.8-3.5c1.8-2.2,2.6-5.3,2.6-9.6s-0.8-7.4-2.6-9.6
			c-1.8-2.2-4.3-3-7.8-3c-3.5,0-6.1,1.3-7.8,3.5C305.9,7.9,305.1,11,305.1,15.3z"/>
		<path class="st8" d="M356.4,8.9c0,3-0.8,5.6-3,7.4c-2.2,1.8-5.3,2.6-9.1,2.6h-3.5V31h-3.5V-0.4h8.3C352.4-0.4,356.4,2.7,356.4,8.9
			z M340.3,15.3h3.5c3,0,5.6-0.5,7-1.8c1.3-0.8,2.2-2.6,2.2-4.8s-0.8-3.5-2.2-4.8s-3.5-1.3-6.5-1.3h-4V15.3L340.3,15.3z"/>
		<path class="st8" d="M380.7,22.3c0,2.6-0.8,4.8-3,6.5c-2.2,1.8-4.8,2.2-8.3,2.2c-3.5,0-6.5-0.5-8.8-1.3v-3.4
			c1.3,0.5,2.6,0.8,4.3,1.3c1.3,0.5,3,0.5,4.3,0.5c2.6,0,4.3-0.5,5.6-1.3c1.3-0.8,1.8-2.2,1.8-4c0-0.8,0-2.2-0.5-2.6
			c-0.5-0.8-1.3-1.3-2.2-1.8c-0.8-0.5-2.6-1.3-4.8-2.2c-3-0.8-4.8-2.2-6.1-3.5c-1.3-1.3-1.8-3.5-1.8-5.6c0-2.6,0.8-4.3,2.6-5.6
			c1.8-1.3,4.3-2.2,7-2.2c3,0,6.1,0.5,8.8,1.8l-1.3,3c-2.6-0.8-5.3-1.8-7.4-1.8c-1.8,0-3.5,0.5-4.3,1.3c-0.8,0.8-1.8,2.2-1.8,3.5
			c0,0.8,0,2.2,0.5,2.6c0.5,0.8,0.8,1.3,2.2,1.8c0.8,0.5,2.2,1.3,4.3,1.8c3.5,1.3,5.6,2.6,7,4C379.9,18.8,380.7,20.6,380.7,22.3z"/>
	</g>
</g>
<title>Disrupted-on-premises and cloud environments</title>
<g>
	<path class="st2" d="M551.6,288.6v41.5c0,2.6-2.1,4.8-4.8,4.8l0,0H304.4c-2.6,0-4.8-2.1-4.8-4.8l0,0v-41.5
		c0-21.7,14.8-40.6,35.8-45.8l65.2-16.2h49.9l65.2,16.2C536.8,248.1,551.6,266.9,551.6,288.6z"/>
	<polygon class="st9" points="442.2,334.9 409.1,334.9 416.2,284.1 417.5,274.4 433.8,274.4 435.1,284.1 	"/>
	<polygon class="st10" points="435.1,284.1 416.2,284.1 417.5,274.4 433.8,274.4 	"/>
	<path class="st11" d="M332.2,243.8c-12.1,11-19.7,29.3-19.7,44.9V335h-8.1c-2.6,0-4.8-2.1-4.8-4.8l0,0v-41.5
		C299.7,268.2,312.8,250.1,332.2,243.8z"/>
	<path class="st11" d="M519.1,243.8c12.1,11,19.7,29.3,19.7,44.9V335h8.1c2.6,0,4.8-2.1,4.8-4.8l0,0v-41.5
		C551.6,268.2,538.5,250.1,519.1,243.8z"/>
	<path class="st9" d="M413.7,276l-7.2-12.6c-1-1.7-1-3.8,0-5.5l7.3-12.5c1-1.7,2.8-2.7,4.7-2.7H433c2,0,3.8,1,4.7,2.7l7.3,12.5
		c1,1.7,1,3.8,0,5.5l-7.3,12.5c-1,1.7-2.8,2.7-4.7,2.7h-14.5C416.5,278.7,414.6,277.7,413.7,276z"/>
	<rect x="399.4" y="186.1" class="st12" width="52.5" height="48.6"/>
	<path class="st13" d="M507.7,139.1c0,9.2-6.3,17.2-15.2,19.3c-1.5,0.4-3,0.5-4.5,0.5c-10.9,0-19.8-8.9-19.8-19.8
		s8.9-19.8,19.8-19.8C498.8,119.3,507.7,128.1,507.7,139.1L507.7,139.1z"/>
	<path class="st12" d="M492.6,119.8v33.7c0,1.6-0.1,3.2-0.2,4.8c-1.5,0.4-3,0.5-4.5,0.5c-10.9,0.1-19.9-8.7-19.9-19.7
		c-0.1-10.9,8.7-19.9,19.7-19.9C489.3,119.2,491,119.5,492.6,119.8L492.6,119.8z"/>
	<path class="st13" d="M383.2,139.1c0,10.9-8.9,19.8-19.8,19.8c-1.5,0-3.1-0.2-4.6-0.5c-10.6-2.5-17.2-13.2-14.7-23.8
		c1.7-7.2,7.3-12.9,14.5-14.7c1.5-0.4,3.1-0.6,4.7-0.6C374.3,119.2,383.2,128.1,383.2,139.1C383.2,139,383.2,139,383.2,139.1z"/>
	<path class="st12" d="M383.2,139.1c0,10.9-8.9,19.8-19.8,19.8c-1.5,0-3.1-0.2-4.6-0.5c-0.1-1.6-0.2-3.2-0.2-4.8v-33.7
		c1.5-0.4,3.1-0.6,4.7-0.6C374.3,119.2,383.2,128.1,383.2,139.1C383.2,139,383.2,139,383.2,139.1z"/>
	<path class="st13" d="M480.5,82.5v69.4c0,30.3-24.6,54.8-54.9,54.8s-54.8-24.5-54.8-54.8V82.5H480.5z"/>
	<path class="st14" d="M400.3,147.2c-2.4,0-4.3-1.9-4.3-4.3v-4.7c0.1-2.4,2.1-4.2,4.5-4.1c2.2,0.1,4,1.9,4.1,4.1v4.7
		C404.6,145.2,402.7,147.2,400.3,147.2z"/>
	<path class="st14" d="M451,147.2c-2.4,0-4.3-1.9-4.3-4.3v-4.7c0.1-2.4,2.1-4.2,4.5-4.1c2.2,0.1,4,1.9,4.1,4.1v4.7
		C455.3,145.2,453.4,147.2,451,147.2z"/>
	<path class="st12" d="M480.5,82.5v48.2l-18.4-3.1c-3.1-0.5-5.4-3.2-5.4-6.4V114c0-1.2-0.9-2.3-2.1-2.4c-18.7-2.3-37.6-3.7-56.4-4.1
		c-1.4,0-2.5,1.1-2.5,2.4c0,0,0,0,0,0.1v11.2c0,3.2-2.3,5.9-5.5,6.4l-19.3,3V82.5H480.5z"/>
	<path class="st15" d="M493.9,59.4c-0.8,17.3-4.1,34.5-9.8,50.8c-1.1,3-2.2,6-3.5,9l-8.6-1.4c-0.8-0.1-1.6-0.5-2.3-1.1
		c-1.1-0.9-1.7-2.2-1.7-3.6v-6.9c0-2.3-1.7-4.3-4-4.7c-9.7-1.5-36.5-5.1-74.8-5.4c-2.6,0-4.8,2.1-4.8,4.7l0,0V113
		c0,2.3-1.7,4.3-4,4.7l-9.5,1.5c0,0-16.7-56.5,12.4-66.8c0,0,3.7-13.6,18.5-13.6h87.5c1.2,0,2.4,0.5,3.3,1.3c2,1.9,1.5,5.4,1.5,7.9
		C494.2,51.9,494.1,55.7,493.9,59.4C493.8,60,494.2,52.6,493.9,59.4z"/>
	<path class="st16" d="M493.9,59.4c-0.8,17.3-4.1,34.5-9.8,50.8c-1.1,3-2.2,6-3.5,9l-8.6-1.4c-0.8-0.1-1.6-0.5-2.3-1.1
		c15.7-38.4,12.2-77.9,12.2-77.9h7.4c1.2,0,2.4,0.5,3.3,1.3c2,1.9,1.5,5.4,1.5,7.9C494.1,51.9,494,55.6,493.9,59.4
		C493.8,60,494.2,52.6,493.9,59.4z"/>
	<path class="st11" d="M344.3,310.2v24.7h-8.9v-24.7c0.1-2.5,2.2-4.4,4.7-4.3C342.4,306,344.2,307.9,344.3,310.2L344.3,310.2z"/>
	<path class="st11" d="M515.9,310.2v24.7H507v-24.7c0.1-2.5,2.2-4.4,4.7-4.3C513.9,306,515.8,307.9,515.9,310.2z"/>
	<path class="st11" d="M392.7,214.8l32.9,19.8l-12.2,25.1c-1.2,2.4-4,3.3-6.4,2.2c-0.5-0.2-0.9-0.6-1.3-1l-24.3-25
		c-1.3-1.3-1.7-3.3-1-5.1l5.4-13.7c1-2.4,3.7-3.6,6.2-2.7C392.3,214.6,392.5,214.7,392.7,214.8z"/>
	<path class="st11" d="M458.6,214.8l-32.9,19.8l12.3,25.1c1.2,2.4,4,3.3,6.4,2.2c0.5-0.2,0.9-0.6,1.3-1l24.3-25
		c1.3-1.3,1.7-3.3,1-5.1l-5.5-13.8c-1-2.4-3.8-3.6-6.2-2.6C459,214.6,458.8,214.7,458.6,214.8z"/>
	<path class="st15" d="M487.8,285.5l-17.9,8.1l14.5,32l7.8-6.6l10.1-1.5L487.8,285.5z"/>
	<path class="st1" d="M474.5,285.8l17.9,8.1l-14.5,32l-7.8-6.6l-10.1-1.4L474.5,285.8L474.5,285.8z"/>
	<path class="st17" d="M504.4,289.7c0,1.7-2.5,3.2-2.8,4.8s1.3,4,0.6,5.6s-3.6,1.7-4.6,3s-0.6,4.2-1.9,5.3s-3.9,0-5.4,0.7
		s-2.3,3.5-3.9,3.9s-3.5-1.8-5.1-1.8s-3.6,2.1-5.2,1.8s-2.4-3.2-3.9-3.9s-4.1,0.4-5.4-0.7s-0.8-4-1.9-5.3s-3.9-1.5-4.6-3
		s0.9-3.9,0.6-5.6s-2.9-3.1-2.9-4.8s2.5-3.2,2.8-4.8s-1.3-4-0.6-5.6s3.6-1.7,4.6-3s0.6-4.2,1.9-5.3s3.9,0,5.4-0.7s2.3-3.5,3.9-3.9
		s3.5,1.8,5.1,1.8s3.6-2.1,5.2-1.8s2.4,3.2,3.9,3.9s4.1-0.4,5.4,0.7s0.8,4,1.9,5.3s3.9,1.5,4.6,3s-0.9,3.9-0.6,5.6
		S504.4,288,504.4,289.7z"/>
	<path class="st18" d="M481.2,280.4c-5.1,0-9.3,4.2-9.3,9.3c0,5.1,4.2,9.3,9.3,9.3c5.1,0,9.3-4.2,9.3-9.3
		C490.5,284.6,486.3,280.4,481.2,280.4L481.2,280.4z M481.2,293.9c-2.3,0-4.2-1.9-4.2-4.2c0-2.3,1.9-4.2,4.2-4.2
		c2.3,0,4.2,1.9,4.2,4.2l0,0C485.4,292,483.5,293.9,481.2,293.9L481.2,293.9z M481.2,273c-9.2,0-16.7,7.5-16.7,16.7
		s7.5,16.7,16.7,16.7s16.7-7.5,16.7-16.7C497.9,280.5,490.4,273,481.2,273L481.2,273z M481.2,303.6c-7.7,0-13.9-6.2-13.9-13.9
		c0-7.7,6.2-13.9,13.9-13.9c7.7,0,13.9,6.2,13.9,13.9l0,0C495.1,297.4,488.9,303.6,481.2,303.6L481.2,303.6z"/>
	<g id="_Group_">
		<path id="_Path__1_" class="st19" d="M591.6-5.8c-47.1,0-85.6,28.4-85.6,63.2c0,27.3,23,50.3,55.3,59.3l-9.7,35.6l28.8-32
			c3.6,0.4,7.5,0.7,11.1,0.7c47.1,0,85.2-28.4,85.2-63.3C676.8,22.6,638.7-5.8,591.6-5.8z"/>
		<path id="_Compound_Path_" class="st3" d="M591.6,117.8c23,0,43.5-6.8,58.6-18c14.7-10.8,23.7-25.9,23.7-42.4s-9-31.6-23.7-42.4
			C635.1,3.9,614.6-3,591.6-3v-5.7c24.1,0,46,7.2,62.2,19S680,39.1,680,57.4s-10.1,35.2-26.2,47.1c-15.8,11.9-37.7,19.1-62.2,19.1
			V117.8L591.6,117.8z M591.6-2.9c-23,0-43.5,6.8-58.6,18c-14.7,10.8-23.7,25.8-23.7,42.4c0,12.6,5.4,24.4,14.4,34.2
			c9.4,10.1,23,18,38.8,22.6c1.5,0.5,2.4,2,2.2,3.6l0,0l-6.5,23.4l20.5-22.6c0.7-0.7,1.6-1,2.5-1.1c1.8,0,3.6,0.4,5.4,0.4h5.4v5.8
			h-5.8c-1.4,0.1-2.9-0.1-4.3-0.4l-28.4,30.9l0,0c-0.7,0.8-1.9,1.1-2.9,0.7c-1.5-0.5-2.4-2-2.2-3.6l9-32.7
			c-15.8-5-29.1-12.9-38.8-23.4c-10.1-10.8-15.8-23.7-15.8-38.1c0-18.3,10.1-35.2,26.2-47.1C544.8-1.8,566.7-9,591.2-9l0,0v6.1
			L591.6-2.9z"/>
	</g>
</g>
<g>
	<circle class="st6" cx="591.4" cy="57.4" r="40.6"/>
	<path class="st19" d="M618.9,43.6l-4.4-4.4c-0.6-0.6-1.3-0.9-2.1-0.9l0,0c-0.8,0-1.6,0.3-2.1,0.9L585,64.5l-11.5-11.6
		c-0.6-0.6-1.3-0.9-2.1-0.9l0,0c-0.8,0-1.6,0.3-2.1,0.9l-4.4,4.4c-1.2,1.2-1.2,3.1,0,4.3l0,0L583,79.7c1.2,1.2,3.1,1.2,4.3,0l0,0
		l31.4-31.4l0.4-0.4C620.1,46.7,620.1,44.8,618.9,43.6z"/>
</g>
<circle class="st19" cx="274" cy="127.3" r="20.7"/>
<path id="XMLID_17_" class="st7" d="M295.3,140.1l-2.4-2.7c1.4-2.1,2.4-4.4,3.1-6.8l3.5,0.1c2.1,0.1,4-1.8,4.2-4l0.2-4.5
	c0.1-2.1-1.8-4-4-4.2l-3.5-0.1c-0.5-2.6-1.4-4.7-2.7-6.9l2.7-2.4c1.6-1.6,1.8-4,0.2-5.8l-3.1-3.4c-1.5-1.6-4.2-1.8-5.8-0.2l-2.7,2.4
	c-2.1-1.4-4.4-2.4-6.8-3.1l0.1-3.4c0.1-2.1-1.8-4-4-4.2l-4.6-0.1c-2.1-0.1-4,1.8-4.2,4l-0.1,3.5c-2.6,0.5-4.7,1.4-6.9,2.7l-2.4-2.7
	c-1.5-1.6-4.2-1.8-5.8-0.2l-3.4,3.1c-0.8,0.8-1.3,1.8-1.3,2.9c0,1.1,0.3,2.1,1.1,2.9l2.4,2.7c-1.4,2.1-2.4,4.4-3.1,6.8l-3.5-0.1
	c-2.1-0.1-4,1.8-4.2,4l-0.2,4.5c-0.1,2.1,1.8,4,4,4.2l3.5,0.1c0.5,2.6,1.4,4.7,2.7,6.9l-2.7,2.4c-0.8,0.8-1.3,1.8-1.3,2.9
	c0,1.1,0.3,2.1,1.1,2.9l3.1,3.4c0.8,0.8,1.8,1.3,2.9,1.3c1.1,0,2.1-0.3,2.9-1.1l2.7-2.4c2.1,1.4,4.4,2.4,6.8,3.1l-0.1,3.5
	c-0.1,2.1,1.8,4,4,4.2l4.5,0.2c2.1,0.1,4-1.8,4.2-4l0.1-3.5c2.6-0.5,4.7-1.4,6.9-2.7l2.4,2.7c0.8,0.8,1.8,1.3,2.9,1.3
	c1.1,0,2.1-0.3,2.9-1.1l3.4-3.1C296.8,144.3,296.8,141.7,295.3,140.1z M270.6,139.6c-2.4-0.1-4.6-0.6-6.6-1.6
	c-5.6-2.8-9-8.6-8.9-14.8c0.2-8.9,7.7-15.8,16.6-15.6c2.4,0.1,4.6,0.6,6.6,1.6c5.6,2.8,9,8.6,8.9,14.8
	C287,133,279.4,139.8,270.6,139.6z"/>
<g id="XMLID_15_">
	<polygon id="XMLID_16_" class="st3" points="258.1,184 271.3,206.7 284.4,184 	"/>
</g>
</svg>
