<?xml version="1.0" encoding="utf-8"?>
<!-- Generator: Adobe Illustrator 19.1.1, SVG Export Plug-In . SVG Version: 6.00 Build 0)  -->
<svg version="1.1" id="Layer_1" xmlns="http://www.w3.org/2000/svg" xmlns:xlink="http://www.w3.org/1999/xlink" x="0px" y="0px"
	 viewBox="132 -53.8 548 390.3" style="enable-background:new 132 -53.8 548 390.3;" xml:space="preserve">
<style type="text/css">
	.st0{fill:#90A4AE;}
	.st1{fill:#E4F2FB;}
	.st2{fill:#B0BEC5;}
	.st3{fill:#95C8EC;}
	.st4{fill:#70B2E2;}
	.st5{fill:#81C784;}
	.st6{fill:none;stroke:#546E7A;stroke-width:2;stroke-miterlimit:10;}
	.st7{fill:#F4AE7A;}
	.st8{fill:#546E7A;}
	.st9{fill:#4F9BC6;}
	.st10{fill:#388CB2;}
	.st11{fill:#62B1DD;}
	.st12{fill:#1C9A46;}
	.st13{fill:#58A6DA;}
	.st14{fill:#3D82C4;}
	.st15{fill:#BDDDF4;}
	.st16{fill:#F7C9A4;}
	.st17{fill:#FFD9B6;}
	.st18{fill:#493030;}
	.st19{fill:#3F535C;}
	.st20{fill:#EFC75E;}
	.st21{fill:#F5F5F5;}
	.st22{fill:#FFFFFF;}
	.st23{fill:none;}
	.st24{enable-background:new    ;}
</style>
<g>
	<path class="st0" d="M195-54.1h-56.9c-4.1,0-7.3,3.3-7.4,7.4V61.6c0,4.1,3.3,7.3,7.4,7.4H195c4.1,0,7.3-3.3,7.4-7.4V-46.6
		C202.4-50.6,199.2-54,195-54.1L195-54.1z"/>
	<path class="st0" d="M275.7-54.1h-56.9c-4.1,0-7.3,3.3-7.4,7.4V61.6c0,4.1,3.3,7.3,7.4,7.4h56.9c4.1,0,7.3-3.3,7.4-7.4V-46.6
		C283.1-50.6,279.9-54,275.7-54.1L275.7-54.1z"/>
	<path class="st0" d="M356.3-54.1h-56.9c-4.1,0-7.3,3.3-7.4,7.4V61.6c0,4.1,3.3,7.3,7.4,7.4h56.9c4.1,0,7.3-3.3,7.4-7.4V-46.6
		C363.7-50.6,360.5-54,356.3-54.1C356.4-54.1,356.4-54.1,356.3-54.1z"/>
	<rect x="142.7" y="-42.1" class="st1" width="47.5" height="99.3"/>
	<rect x="223.4" y="-42.1" class="st1" width="47.5" height="99.3"/>
	<rect x="304" y="-42.1" class="st1" width="47.5" height="99.3"/>
	<path class="st2" d="M186.2,26.2h-39.4v26.1h39.4V26.2z M182.4,48.4h-31.9v-18h31.9V48.4z"/>
	<rect x="174.9" y="33.4" class="st3" width="3.8" height="11.9"/>
	<rect x="168.6" y="33.4" class="st4" width="4" height="11.9"/>
	<path class="st5" d="M158.5,45.5c3.5-0.3,6.1-3.5,5.8-7.1c-0.3-3-2.8-5.5-5.8-5.8c-3.4-0.1-6.4,2.7-6.5,6.2c0,0.1,0,0.2,0,0.3
		C152.1,42.6,154.9,45.5,158.5,45.5z M158.5,36.7c1.3,0,2.4,1,2.4,2.4c0,1.3-1,2.4-2.4,2.4l0,0c-1.3,0-2.4-1-2.4-2.4
		C156.1,37.8,157.2,36.7,158.5,36.7L158.5,36.7z"/>
	<path class="st2" d="M186.2-5.4h-39.4v26h39.4V-5.4z M182.4,16.5h-31.9V-1.7h31.9V16.5z"/>
	<rect x="174.9" y="1.5" class="st3" width="3.8" height="11.9"/>
	<rect x="168.6" y="1.5" class="st4" width="4" height="11.9"/>
	<path class="st5" d="M158.5,13.8c3.5,0,6.5-2.9,6.5-6.4V7.3c-0.3-3.5-3.5-6.1-7.1-5.8c-3,0.3-5.5,2.8-5.8,5.8
		C152.1,10.8,154.9,13.8,158.5,13.8z M158.5,5c1.3,0,2.4,1,2.4,2.4s-1,2.4-2.4,2.4c-1.3,0-2.4-1-2.4-2.4C156.1,6.1,157.2,5,158.5,5
		L158.5,5z"/>
	<path class="st2" d="M186.2-37.3h-39.4v26h39.4V-37.3z M182.4-15.3h-31.9v-18.2h31.9V-15.3z"/>
	<rect x="174.9" y="-30.3" class="st3" width="3.8" height="11.9"/>
	<rect x="168.6" y="-30.3" class="st4" width="4" height="11.9"/>
	<path class="st5" d="M158.5-18.1c3.5-0.3,6.1-3.5,5.8-7.1c-0.3-3-2.8-5.5-5.8-5.8c-3.4-0.1-6.4,2.7-6.5,6.2c0,0.1,0,0.2,0,0.3
		C152.1-20.9,154.9-18.1,158.5-18.1z M158.5-26.9c1.3,0,2.4,1,2.4,2.4c0,1.3-1,2.4-2.4,2.4c-1.3,0-2.4-1-2.4-2.4
		c-0.1-1.3,0.9-2.4,2.1-2.4C158.3-26.9,158.4-26.9,158.5-26.9L158.5-26.9z"/>
	<path class="st2" d="M266.8,26.2h-39.4v26.1h39.4V26.2z M263,48.4h-31.9v-18H263V48.4z"/>
	<rect x="255.5" y="33.4" class="st3" width="3.8" height="11.9"/>
	<rect x="249.2" y="33.4" class="st4" width="4" height="11.9"/>
	<path class="st5" d="M239.1,45.5c3.5,0,6.5-3,6.5-6.5s-3-6.5-6.5-6.5c-3.5,0-6.5,3-6.5,6.5C232.6,42.5,235.6,45.5,239.1,45.5z
		 M239.1,36.7c1.3,0,2.4,1,2.4,2.4c0,1.3-1,2.4-2.4,2.4l0,0c-1.3,0-2.4-1-2.4-2.4C236.8,37.8,237.9,36.7,239.1,36.7L239.1,36.7z"/>
	<path class="st2" d="M266.8-5.4h-39.4v26h39.4V-5.4z M263,16.5h-31.9V-1.7H263V16.5z"/>
	<rect x="255.5" y="1.5" class="st3" width="3.8" height="11.9"/>
	<rect x="249.2" y="1.5" class="st4" width="4" height="11.9"/>
	<path class="st5" d="M239.1,13.8c3.5,0,6.5-2.9,6.5-6.4V7.3c0.1-3.4-2.7-6.4-6.2-6.5c-0.1,0-0.2,0-0.3,0c-3.5,0-6.5,2.9-6.5,6.4
		v0.1C232.6,10.9,235.6,13.8,239.1,13.8z M239.1,5c1.3,0,2.4,1,2.4,2.4s-1,2.4-2.4,2.4c-1.3,0-2.4-1-2.4-2.4
		C236.8,6.1,237.9,5,239.1,5L239.1,5z"/>
	<path class="st2" d="M266.8-37.3h-39.4v26h39.4V-37.3z M263-15.3h-31.9v-18.2H263V-15.3z"/>
	<rect x="255.5" y="-30.3" class="st3" width="3.8" height="11.9"/>
	<rect x="249.2" y="-30.3" class="st4" width="4" height="11.9"/>
	<path class="st5" d="M239.1-18.1c3.5,0,6.5-3,6.5-6.5s-3-6.5-6.5-6.5c-3.5,0-6.5,3-6.5,6.5S235.6-18.1,239.1-18.1z M239.1-26.9
		c1.3,0,2.4,1,2.4,2.4c0,1.3-1,2.4-2.4,2.4c-1.3,0-2.4-1-2.4-2.4l0,0c-0.1-1.3,0.9-2.4,2.1-2.4C239-26.9,239.1-26.9,239.1-26.9
		L239.1-26.9z"/>
	<path class="st2" d="M347.5,26.2h-39.4v26.1h39.4V26.2z M343.8,48.4h-31.9v-18h31.9V48.4z"/>
	<rect x="336.2" y="33.4" class="st3" width="3.8" height="11.9"/>
	<rect x="329.9" y="33.4" class="st4" width="4" height="11.9"/>
	<path class="st5" d="M319.8,45.5c3.5,0,6.5-3,6.5-6.5s-3-6.5-6.5-6.5s-6.5,3-6.5,6.5C313.4,42.5,316.3,45.5,319.8,45.5z
		 M319.8,36.7c1.3,0,2.4,1,2.4,2.4c0,1.3-1,2.4-2.4,2.4l0,0c-1.3,0-2.4-1-2.4-2.4C317.4,37.8,318.5,36.7,319.8,36.7L319.8,36.7z"/>
	<path class="st2" d="M347.5-5.4h-39.4v26h39.4V-5.4z M343.8,16.5h-31.9V-1.7h31.9V16.5z"/>
	<rect x="336.2" y="1.5" class="st3" width="3.8" height="11.9"/>
	<rect x="329.9" y="1.5" class="st4" width="4" height="11.9"/>
	<path class="st5" d="M319.8,13.8c3.5,0,6.5-2.9,6.5-6.4V7.3c0.1-3.4-2.7-6.4-6.2-6.5c-0.1,0-0.2,0-0.3,0c-3.5,0-6.5,2.9-6.5,6.4
		v0.1C313.4,10.9,316.3,13.8,319.8,13.8z M319.8,5c1.3,0,2.4,1,2.4,2.4s-1,2.4-2.4,2.4s-2.4-1-2.4-2.4C317.4,6.1,318.5,5,319.8,5
		L319.8,5z"/>
	<path class="st2" d="M347.5-37.3h-39.4v26h39.4V-37.3z M343.8-15.3h-31.9v-18.2h31.9V-15.3z"/>
	<rect x="336.2" y="-30.3" class="st3" width="3.8" height="11.9"/>
	<rect x="329.9" y="-30.3" class="st4" width="4" height="11.9"/>
	<path class="st5" d="M319.8-18.1c3.5,0,6.5-3,6.5-6.5s-3-6.5-6.5-6.5s-6.5,3-6.5,6.5S316.3-18.1,319.8-18.1z M319.8-26.9
		c1.3,0,2.4,1,2.4,2.4c0,1.3-1,2.4-2.4,2.4s-2.4-1-2.4-2.4c-0.1-1.3,0.9-2.4,2.2-2.4C319.7-26.9,319.8-26.9,319.8-26.9L319.8-26.9z"
		/>
</g>
<title>Disrupted-on-premises and cloud environments</title>
<g>
	<polyline class="st6" points="546.7,-38.2 587.2,-38.2 670.7,-38.2 	"/>
	<polyline class="st6" points="587.2,-41.2 587.2,12.2 670,12.2 	"/>
	<polyline class="st6" points="629.4,12.2 629.4,62.1 667,62.1 	"/>
	<path class="st7" d="M585-24.3L573-36.2c-1.3-1.2-1.4-3.1-0.2-4.5c0.1-0.1,0.1-0.1,0.2-0.2L585-52.8c1.2-1.3,3.1-1.4,4.5-0.2
		c0.1,0.1,0.1,0.1,0.2,0.2l11.9,11.9c1.3,1.2,1.4,3.1,0.2,4.5c-0.1,0.1-0.1,0.1-0.2,0.2l-12,11.9c-1.2,1.3-3.1,1.3-4.4,0.1
		C585.1-24.3,585-24.3,585-24.3z"/>
	<path class="st8" d="M627.2-24.3l-11.9-11.9c-1.3-1.2-1.4-3.1-0.2-4.5c0.1-0.1,0.1-0.1,0.2-0.2l11.9-11.9c1.2-1.3,3.1-1.4,4.5-0.2
		c0.1,0.1,0.1,0.1,0.2,0.2l11.9,11.9c1.3,1.2,1.4,3.1,0.2,4.5c-0.1,0.1-0.1,0.1-0.2,0.2l-11.9,11.9c-1.2,1.3-3.1,1.4-4.4,0.2
		C627.4-24.2,627.3-24.3,627.2-24.3z"/>
	<path class="st9" d="M557.2-24.9h-19.8c-2-0.1-3.7-1.7-3.8-3.8v-19.5c0.1-2,1.7-3.7,3.8-3.8h19.8c2,0.1,3.7,1.7,3.8,3.8v19.8
		C560.8-26.5,559.2-25,557.2-24.9z"/>
	<circle class="st5" cx="667" cy="-38.2" r="13"/>
	<path class="st7" d="M585,26.3L573,14.4c-1.3-1.2-1.4-3.1-0.2-4.5c0.1-0.1,0.1-0.1,0.2-0.2L585-2.2c1.2-1.3,3.1-1.4,4.5-0.2
		c0.1,0.1,0.1,0.1,0.2,0.2l11.9,11.9c1.3,1.2,1.4,3.1,0.2,4.5c-0.1,0.1-0.1,0.1-0.2,0.2l-12,11.9c-1.2,1.3-3.1,1.3-4.4,0.1
		C585.1,26.4,585,26.4,585,26.3z"/>
	<path class="st9" d="M638.9,25.8h-19.8c-2-0.1-3.7-1.7-3.8-3.8V2.1c0.1-2,1.7-3.7,3.8-3.8h19.8c2,0.1,3.7,1.7,3.8,3.8V22
		c0.1,1.9-1.3,3.7-3.3,3.8C639.3,25.8,639.1,25.8,638.9,25.8z"/>
	<path class="st9" d="M638.9,75.7h-19.8c-2-0.1-3.7-1.7-3.8-3.8V52c0.1-2,1.7-3.7,3.8-3.8h19.8c2,0.1,3.7,1.7,3.8,3.8v19.8
		c0.1,2-1.5,3.8-3.6,3.8C639.1,75.7,639,75.7,638.9,75.7z"/>
	<circle class="st5" cx="667" cy="12.2" r="13"/>
	<circle class="st5" cx="667" cy="62.1" r="13"/>
</g>
<g>
	<g>
		<g>
			<rect x="153.9" y="55.1" class="st10" width="137.3" height="5.2"/>
			<rect x="153.9" y="60" class="st1" width="137.3" height="148.6"/>
			<rect x="153.9" y="203.9" class="st10" width="21.2" height="4.7"/>
			<rect x="175.2" y="203.9" class="st10" width="116" height="4.7"/>
		</g>
		<rect x="291.2" y="60" class="st3" width="49.3" height="148.6"/>
		<rect x="291.2" y="203.9" class="st10" width="49.3" height="4.7"/>
		<g>
			<g>
				<rect x="175.2" y="24.1" class="st9" width="40.8" height="184.5"/>
				<rect x="175.2" y="24.1" class="st11" width="10.9" height="184.5"/>
				<rect x="195.6" y="24.1" class="st11" width="5.4" height="184.5"/>
				<rect x="175.2" y="19.5" class="st10" width="40.8" height="4.5"/>
				<g>
					<g>
						<rect x="175.2" y="49.7" class="st0" width="40.8" height="2.5"/>
						<rect x="175.2" y="93.3" class="st0" width="40.8" height="2.5"/>
						<rect x="175.2" y="136.9" class="st0" width="40.8" height="2.5"/>
						<rect x="175.2" y="180.5" class="st0" width="40.8" height="2.5"/>
					</g>
				</g>
			</g>
			<g>
				<rect x="216" y="19.5" class="st11" width="19.7" height="189.1"/>
				<rect x="216" y="19.5" class="st10" width="19.7" height="4.5"/>
				<rect x="216" y="49.7" class="st0" width="19.7" height="2.5"/>
				<rect x="216" y="93.3" class="st0" width="19.7" height="2.5"/>
				<rect x="216" y="136.9" class="st0" width="19.7" height="2.5"/>
				<rect x="216" y="180.5" class="st0" width="19.7" height="2.5"/>
			</g>
		</g>
		<rect x="291.2" y="55.1" class="st10" width="49.3" height="4.9"/>
		<g>
			<rect x="242.6" y="178.7" class="st11" width="41.7" height="25.2"/>
			<rect x="242.6" y="183.3" class="st0" width="41.7" height="1.2"/>
			<rect x="255" y="178.7" class="st0" width="1.2" height="25.2"/>
			<rect x="270.8" y="178.7" class="st0" width="1.2" height="25.2"/>
		</g>
		<g>
			<g>
				<rect x="242.6" y="68.8" class="st3" width="17.2" height="4"/>
				<rect x="242.6" y="79.3" class="st3" width="17.2" height="4"/>
				<rect x="242.6" y="89.8" class="st3" width="17.2" height="4"/>
				<rect x="242.6" y="100.4" class="st3" width="17.2" height="4"/>
				<rect x="242.6" y="110.9" class="st3" width="17.2" height="4"/>
				<rect x="242.6" y="121.3" class="st3" width="17.2" height="4"/>
				<rect x="242.6" y="131.9" class="st3" width="17.2" height="4"/>
				<rect x="242.6" y="142.4" class="st3" width="17.2" height="4"/>
				<rect x="242.6" y="153" class="st3" width="17.2" height="4"/>
				<rect x="242.6" y="163.4" class="st3" width="17.2" height="4"/>
			</g>
			<g>
				<rect x="267.1" y="68.8" class="st3" width="17.2" height="4"/>
				<rect x="267.1" y="79.3" class="st3" width="17.2" height="4"/>
				<rect x="267.1" y="89.8" class="st3" width="17.2" height="4"/>
				<rect x="267.1" y="100.4" class="st3" width="17.2" height="4"/>
				<rect x="267.1" y="110.9" class="st3" width="17.2" height="4"/>
				<rect x="267.1" y="121.3" class="st3" width="17.2" height="4"/>
				<rect x="267.1" y="131.9" class="st3" width="17.2" height="4"/>
				<rect x="267.1" y="142.4" class="st3" width="17.2" height="4"/>
				<rect x="267.1" y="153" class="st3" width="17.2" height="4"/>
				<rect x="267.1" y="163.4" class="st3" width="17.2" height="4"/>
			</g>
		</g>
		<g>
			<g>
				<g>
					<g>
						<rect x="155.9" y="68.8" class="st3" width="17.2" height="4"/>
					</g>
					<g>
						<rect x="155.9" y="79.3" class="st3" width="17.2" height="4"/>
					</g>
					<g>
						<rect x="155.9" y="89.8" class="st3" width="17.2" height="4"/>
					</g>
					<g>
						<rect x="155.9" y="100.4" class="st3" width="17.2" height="4"/>
					</g>
					<g>
						<rect x="155.9" y="110.9" class="st3" width="17.2" height="4"/>
					</g>
					<g>
						<rect x="155.9" y="121.3" class="st3" width="17.2" height="4"/>
					</g>
					<g>
						<rect x="155.9" y="131.9" class="st3" width="17.2" height="4"/>
					</g>
					<g>
						<rect x="155.9" y="142.4" class="st3" width="17.2" height="4"/>
					</g>
					<g>
						<rect x="155.9" y="153" class="st3" width="17.2" height="4"/>
					</g>
					<g>
						<rect x="155.9" y="163.4" class="st3" width="17.2" height="4"/>
					</g>
				</g>
			</g>
		</g>
		<g>
			<rect x="155.9" y="178.7" class="st9" width="17.2" height="25.2"/>
			<rect x="155.9" y="178.7" class="st11" width="4.1" height="25.2"/>
		</g>
		<g>
			<g>
				<rect x="298.9" y="66.8" class="st9" width="7.4" height="130"/>
				<g>
					<rect x="298.9" y="76.7" class="st0" width="7.4" height="2.8"/>
					<rect x="298.9" y="103.7" class="st0" width="7.4" height="2.8"/>
					<rect x="298.9" y="130.6" class="st0" width="7.4" height="2.8"/>
					<rect x="298.9" y="157.5" class="st0" width="7.4" height="2.8"/>
					<rect x="298.9" y="184.5" class="st0" width="7.4" height="2.8"/>
				</g>
			</g>
			<g>
				<rect x="312.3" y="66.8" class="st9" width="7.4" height="130"/>
				<g>
					<rect x="312.3" y="76.7" class="st0" width="7.4" height="2.8"/>
					<rect x="312.3" y="103.7" class="st0" width="7.4" height="2.8"/>
					<rect x="312.3" y="130.6" class="st0" width="7.4" height="2.8"/>
					<rect x="312.3" y="157.5" class="st0" width="7.4" height="2.8"/>
					<rect x="312.3" y="184.5" class="st0" width="7.4" height="2.8"/>
				</g>
			</g>
			<g>
				<g>
					<rect x="325.5" y="66.8" class="st9" width="7.4" height="130"/>
					<g>
						<rect x="325.5" y="76.7" class="st0" width="7.4" height="2.8"/>
						<rect x="325.5" y="103.7" class="st0" width="7.4" height="2.8"/>
						<rect x="325.5" y="130.6" class="st0" width="7.4" height="2.8"/>
						<rect x="325.5" y="157.5" class="st0" width="7.4" height="2.8"/>
						<rect x="325.5" y="184.5" class="st0" width="7.4" height="2.8"/>
					</g>
				</g>
			</g>
		</g>
	</g>
	<g>
		<g>
			<g>
				<g>
					<path class="st12" d="M159.6,208.7h4.7"/>
				</g>
			</g>
		</g>
	</g>
</g>
<g>
	<g>
		<path class="st1" d="M453.2,290.1v41.5c0,2.6-2.1,4.8-4.8,4.8l0,0H206c-2.6,0-4.8-2.1-4.8-4.8l0,0v-41.5
			c0-21.7,14.8-40.6,35.8-45.8l65.2-16.2h49.9l65.2,16.2C438.4,249.6,453.2,268.4,453.2,290.1z"/>
		<polygon class="st13" points="343.8,336.4 310.7,336.4 317.8,285.6 319.1,275.9 335.4,275.9 336.7,285.6 		"/>
		<polygon class="st14" points="336.7,285.6 317.8,285.6 319.1,275.9 335.4,275.9 		"/>
		<path class="st15" d="M233.8,245.3c-12.1,11-19.7,29.3-19.7,44.9v46.3H206c-2.6,0-4.8-2.1-4.8-4.8l0,0v-41.5
			C201.3,269.7,214.4,251.6,233.8,245.3z"/>
		<path class="st15" d="M420.7,245.3c12.1,11,19.7,29.3,19.7,44.9v46.3h8.1c2.6,0,4.8-2.1,4.8-4.8l0,0v-41.5
			C453.2,269.7,440.1,251.6,420.7,245.3z"/>
		<path class="st13" d="M315.3,277.5l-7.2-12.6c-1-1.7-1-3.8,0-5.5l7.3-12.5c1-1.7,2.8-2.7,4.7-2.7h14.5c2,0,3.8,1,4.7,2.7l7.3,12.5
			c1,1.7,1,3.8,0,5.5l-7.3,12.5c-1,1.7-2.8,2.7-4.7,2.7h-14.5C318.1,280.2,316.2,279.2,315.3,277.5z"/>
		<rect x="301" y="187.6" class="st16" width="52.5" height="48.6"/>
		<path class="st17" d="M409.3,140.6c0,9.2-6.3,17.2-15.2,19.3c-1.5,0.4-3,0.5-4.5,0.5c-10.9,0-19.8-8.9-19.8-19.8
			s8.9-19.8,19.8-19.8C400.4,120.8,409.3,129.6,409.3,140.6L409.3,140.6z"/>
		<path class="st16" d="M394.2,121.3V155c0,1.6-0.1,3.2-0.2,4.8c-1.5,0.4-3,0.5-4.5,0.5c-10.9,0.1-19.9-8.7-19.9-19.7
			c-0.1-10.9,8.7-19.9,19.7-19.9C390.9,120.7,392.6,121,394.2,121.3L394.2,121.3z"/>
		<path class="st17" d="M284.8,140.6c0,10.9-8.9,19.8-19.8,19.8c-1.5,0-3.1-0.2-4.6-0.5c-10.6-2.5-17.2-13.2-14.7-23.8
			c1.7-7.2,7.3-12.9,14.5-14.7c1.5-0.4,3.1-0.6,4.7-0.6C275.9,120.7,284.8,129.6,284.8,140.6C284.8,140.5,284.8,140.5,284.8,140.6z"
			/>
		<path class="st16" d="M284.8,140.6c0,10.9-8.9,19.8-19.8,19.8c-1.5,0-3.1-0.2-4.6-0.5c-0.1-1.6-0.2-3.2-0.2-4.8v-33.7
			c1.5-0.4,3.1-0.6,4.7-0.6C275.9,120.7,284.8,129.6,284.8,140.6C284.8,140.5,284.8,140.5,284.8,140.6z"/>
		<path class="st17" d="M382.1,84v69.4c0,30.3-24.6,54.8-54.9,54.8s-54.8-24.5-54.8-54.8V84H382.1z"/>
		<path class="st18" d="M301.9,148.7c-2.4,0-4.3-1.9-4.3-4.3v-4.7c0.1-2.4,2.1-4.2,4.5-4.1c2.2,0.1,4,1.9,4.1,4.1v4.7
			C306.2,146.7,304.3,148.7,301.9,148.7z"/>
		<path class="st18" d="M352.6,148.7c-2.4,0-4.3-1.9-4.3-4.3v-4.7c0.1-2.4,2.1-4.2,4.5-4.1c2.2,0.1,4,1.9,4.1,4.1v4.7
			C356.9,146.7,355,148.7,352.6,148.7z"/>
		<path class="st16" d="M382.1,84v48.2l-18.4-3.1c-3.1-0.5-5.4-3.2-5.4-6.4v-7.2c0-1.2-0.9-2.3-2.1-2.4c-18.7-2.3-37.6-3.7-56.4-4.1
			c-1.4,0-2.5,1.1-2.5,2.4c0,0,0,0,0,0.1v11.2c0,3.2-2.3,5.9-5.5,6.4l-19.3,3V84H382.1z"/>
		<path class="st8" d="M395.5,60.9c-0.8,17.3-4.1,34.5-9.8,50.8c-1.1,3-2.2,6-3.5,9l-8.6-1.4c-0.8-0.1-1.6-0.5-2.3-1.1
			c-1.1-0.9-1.7-2.2-1.7-3.6v-6.9c0-2.3-1.7-4.3-4-4.7c-9.7-1.5-36.5-5.1-74.8-5.4c-2.6,0-4.8,2.1-4.8,4.7l0,0v12.2
			c0,2.3-1.7,4.3-4,4.7l-9.5,1.5c0,0-16.7-56.5,12.4-66.8c0,0,3.7-13.6,18.5-13.6h87.5c1.2,0,2.4,0.5,3.3,1.3c2,1.9,1.5,5.4,1.5,7.9
			C395.8,53.4,395.7,57.2,395.5,60.9C395.4,61.5,395.8,54.1,395.5,60.9z"/>
		<path class="st19" d="M395.5,60.9c-0.8,17.3-4.1,34.5-9.8,50.8c-1.1,3-2.2,6-3.5,9l-8.6-1.4c-0.8-0.1-1.6-0.5-2.3-1.1
			c15.7-38.4,12.2-77.9,12.2-77.9h7.4c1.2,0,2.4,0.5,3.3,1.3c2,1.9,1.5,5.4,1.5,7.9C395.7,53.4,395.6,57.1,395.5,60.9
			C395.4,61.5,395.8,54.1,395.5,60.9z"/>
		<path class="st15" d="M245.9,311.7v24.7H237v-24.7c0.1-2.5,2.2-4.4,4.7-4.3C244,307.5,245.8,309.4,245.9,311.7L245.9,311.7z"/>
		<path class="st15" d="M417.5,311.7v24.7h-8.9v-24.7c0.1-2.5,2.2-4.4,4.7-4.3C415.5,307.5,417.4,309.4,417.5,311.7z"/>
		<path class="st15" d="M294.3,216.3l32.9,19.8L315,261.2c-1.2,2.4-4,3.3-6.4,2.2c-0.5-0.2-0.9-0.6-1.3-1l-24.3-25
			c-1.3-1.3-1.7-3.3-1-5.1l5.4-13.7c1-2.4,3.7-3.6,6.2-2.7C293.9,216.1,294.1,216.2,294.3,216.3z"/>
		<path class="st15" d="M360.2,216.3l-32.9,19.8l12.3,25.1c1.2,2.4,4,3.3,6.4,2.2c0.5-0.2,0.9-0.6,1.3-1l24.3-25
			c1.3-1.3,1.7-3.3,1-5.1l-5.5-13.8c-1-2.4-3.8-3.6-6.2-2.6C360.6,216.1,360.4,216.2,360.2,216.3z"/>
		<path class="st8" d="M389.4,287l-17.9,8.1l14.5,32l7.8-6.6l10.1-1.5L389.4,287z"/>
		<path class="st0" d="M376.1,287.3l17.9,8.1l-14.5,32l-7.8-6.6l-10.1-1.4L376.1,287.3L376.1,287.3z"/>
		<path class="st20" d="M406,291.2c0,1.7-2.5,3.2-2.8,4.8s1.3,4,0.6,5.6s-3.6,1.7-4.6,3s-0.6,4.2-1.9,5.3s-3.9,0-5.4,0.7
			s-2.3,3.5-3.9,3.9s-3.5-1.8-5.1-1.8s-3.6,2.1-5.2,1.8s-2.4-3.2-3.9-3.9s-4.1,0.4-5.4-0.7s-0.8-4-1.9-5.3s-3.9-1.5-4.6-3
			s0.9-3.9,0.6-5.6s-2.9-3.1-2.9-4.8s2.5-3.2,2.8-4.8s-1.3-4-0.6-5.6s3.6-1.7,4.6-3s0.6-4.2,1.9-5.3s3.9,0,5.4-0.7s2.3-3.5,3.9-3.9
			s3.5,1.8,5.1,1.8s3.6-2.1,5.2-1.8s2.4,3.2,3.9,3.9s4.1-0.4,5.4,0.7s0.8,4,1.9,5.3s3.9,1.5,4.6,3s-0.9,3.9-0.6,5.6
			S406,289.5,406,291.2z"/>
		<path class="st21" d="M382.8,281.9c-5.1,0-9.3,4.2-9.3,9.3c0,5.1,4.2,9.3,9.3,9.3c5.1,0,9.3-4.2,9.3-9.3
			C392.1,286.1,387.9,281.9,382.8,281.9L382.8,281.9z M382.8,295.4c-2.3,0-4.2-1.9-4.2-4.2c0-2.3,1.9-4.2,4.2-4.2
			c2.3,0,4.2,1.9,4.2,4.2l0,0C387,293.5,385.1,295.4,382.8,295.4L382.8,295.4z M382.8,274.5c-9.2,0-16.7,7.5-16.7,16.7
			s7.5,16.7,16.7,16.7s16.7-7.5,16.7-16.7C399.5,282,392,274.5,382.8,274.5L382.8,274.5z M382.8,305.1c-7.7,0-13.9-6.2-13.9-13.9
			c0-7.7,6.2-13.9,13.9-13.9c7.7,0,13.9,6.2,13.9,13.9l0,0C396.7,298.9,390.5,305.1,382.8,305.1L382.8,305.1z"/>
		<g id="_Group_">
			<path id="_Path__1_" class="st22" d="M493.2-4.3c-47.1,0-85.6,28.4-85.6,63.2c0,27.3,23,50.3,55.3,59.3l-9.7,35.6l28.8-32
				c3.6,0.4,7.5,0.7,11.1,0.7c47.1,0,85.2-28.4,85.2-63.3C578.4,24.1,540.3-4.3,493.2-4.3z"/>
			<path id="_Compound_Path_" class="st2" d="M493.2,119.3c23,0,43.5-6.8,58.6-18c14.7-10.8,23.7-25.9,23.7-42.4s-9-31.6-23.7-42.4
				c-15.1-11.1-35.6-18-58.6-18v-5.7c24.1,0,46,7.2,62.2,19s26.2,28.8,26.2,47.1s-10.1,35.2-26.2,47.1
				c-15.8,11.9-37.7,19.1-62.2,19.1V119.3L493.2,119.3z M493.2-1.4c-23,0-43.5,6.8-58.6,18c-14.7,10.8-23.7,25.8-23.7,42.4
				c0,12.6,5.4,24.4,14.4,34.2c9.4,10.1,23,18,38.8,22.6c1.5,0.5,2.4,2,2.2,3.6l0,0l-6.5,23.4l20.5-22.6c0.7-0.7,1.6-1,2.5-1.1
				c1.8,0,3.6,0.4,5.4,0.4h5.4v5.8h-5.8c-1.4,0.1-2.9-0.1-4.3-0.4l-28.4,30.9l0,0c-0.7,0.8-1.9,1.1-2.9,0.7c-1.5-0.5-2.4-2-2.2-3.6
				l9-32.7c-15.8-5-29.1-12.9-38.8-23.4c-10.1-10.8-15.8-23.7-15.8-38.1c0-18.3,10.1-35.2,26.2-47.1c15.8-11.9,37.7-19.1,62.2-19.1
				l0,0v6.1L493.2-1.4z"/>
		</g>
	</g>
	<g>
		<circle class="st5" cx="493" cy="58.9" r="40.6"/>
		<path class="st22" d="M520.5,45.1l-4.4-4.4c-0.6-0.6-1.3-0.9-2.1-0.9l0,0c-0.8,0-1.6,0.3-2.1,0.9L486.6,66l-11.5-11.6
			c-0.6-0.6-1.3-0.9-2.1-0.9l0,0c-0.8,0-1.6,0.3-2.1,0.9l-4.4,4.4c-1.2,1.2-1.2,3.1,0,4.3l0,0l18.1,18.1c1.2,1.2,3.1,1.2,4.3,0l0,0
			l31.4-31.4l0.4-0.4C521.7,48.2,521.7,46.3,520.5,45.1z"/>
	</g>
</g>
<g>
	<g>
		<path class="st14" d="M616,157.3h-71.8c-4.3,0-7.7,3.5-7.7,7.7v163.6c0,4.3,3.5,7.7,7.7,7.7h128c4.3,0,7.7-3.5,7.7-7.7V165.1
			c0-4.3-3.5-7.7-7.7-7.7H616z"/>
		<path class="st22" d="M662.1,168.3H554.4c-3.6,0-6.4,2.8-6.4,6.4v143.8c0,3.6,2.8,6.4,6.4,6.4h107.7c3.6,0,6.4-2.8,6.4-6.4V174.9
			C668.7,171.3,665.7,168.4,662.1,168.3z"/>
		<path class="st3" d="M621.8,149.2c0-7.5-6.1-13.7-13.5-13.7s-13.5,6.1-13.5,13.7H565v27.2h86.8v-27.2H621.8z"/>
		<path class="st2" d="M591,265.7h-25.5c-3.1,0-5.5-2.5-5.5-5.5v-25.5c0-3.1,2.5-5.5,5.5-5.5H591c3.1,0,5.5,2.5,5.5,5.5v25.5
			C596.4,263.1,594,265.7,591,265.7L591,265.7z M565.4,232.4c-1.2,0-2.2,0.9-2.2,2.2v25.5c0,1.2,0.9,2.2,2.2,2.2H591
			c1.2,0,2.2-0.9,2.2-2.2v-25.5c0-1.2-0.9-2.2-2.2-2.2H565.4z"/>
		<path class="st2" d="M591,308.2h-25.5c-3.1,0-5.5-2.5-5.5-5.5V277c0-3.1,2.5-5.5,5.5-5.5H591c3.1,0,5.5,2.5,5.5,5.5v25.5
			C596.4,305.8,594,308.2,591,308.2z M565.4,275c-1.2,0-2.2,0.9-2.2,2.2v25.7c0,1.2,0.9,2.2,2.2,2.2H591c1.2,0,2.2-0.9,2.2-2.2V277
			c0-1.2-0.9-2.2-2.2-2.2L565.4,275z"/>
		<rect x="564.8" y="168.3" class="st4" width="86.8" height="8"/>
		<rect x="604.7" y="189.3" class="st2" width="21" height="4"/>
		<rect x="604.7" y="199.4" class="st2" width="55.1" height="4"/>
		<rect x="604.7" y="209.2" class="st2" width="55.1" height="4"/>
		<rect x="604.7" y="219" class="st2" width="55.1" height="4"/>
		<rect x="604.7" y="242.1" class="st2" width="55.1" height="4"/>
		<rect x="604.7" y="251.9" class="st2" width="55.1" height="4"/>
		<rect x="604.7" y="261.7" class="st2" width="55.1" height="4"/>
		<rect x="604.7" y="284.6" class="st2" width="55.1" height="4"/>
		<rect x="604.7" y="294.4" class="st2" width="55.1" height="4"/>
		<rect x="604.7" y="304.2" class="st2" width="55.1" height="4"/>
		<rect x="604.7" y="232" class="st2" width="21" height="4"/>
		<rect x="604.7" y="274.6" class="st2" width="21" height="4"/>
		<path class="st2" d="M591,223h-25.5c-3.1,0-5.5-2.5-5.5-5.5v-25.5c0-3.1,2.5-5.5,5.5-5.5H591c3.1,0,5.5,2.5,5.5,5.5v25.5
			C596.4,220.5,594,223,591,223z M565.4,189.8c-1.2,0-2.2,0.9-2.2,2.2v25.5c0,1.2,0.9,2.2,2.2,2.2H591c1.2,0,2.2-0.9,2.2-2.2V192
			c0-1.2-0.9-2.2-2.2-2.2H565.4z"/>
	</g>
	<rect x="570.3" y="192" class="st23" width="37" height="42.2"/>
	<g class="st24">
		<path class="st7" d="M582,215.6h-3.6v-14.3c0-1.7,0-3.1,0.1-4c-0.2,0.2-0.5,0.5-0.9,0.8c-0.3,0.3-1.5,1.2-3.4,2.8l-1.8-2.3
			l6.5-5.1h3V215.6z"/>
	</g>
	<rect x="569" y="234.7" class="st23" width="37" height="42.2"/>
	<g class="st24">
		<path class="st4" d="M585.3,258.3h-15v-2.7l5.7-5.7c1.7-1.7,2.8-2.9,3.3-3.7c0.5-0.7,0.9-1.4,1.2-2c0.3-0.6,0.4-1.3,0.4-2
			c0-1-0.3-1.8-0.9-2.4c-0.6-0.6-1.4-0.9-2.5-0.9c-0.8,0-1.7,0.2-2.5,0.5s-1.7,0.9-2.7,1.7l-1.9-2.3c1.2-1,2.4-1.8,3.6-2.2
			c1.2-0.4,2.4-0.6,3.7-0.6c2.1,0,3.7,0.5,4.9,1.6c1.2,1.1,1.9,2.5,1.9,4.3c0,1-0.2,1.9-0.5,2.8c-0.4,0.9-0.9,1.8-1.6,2.8
			c-0.7,1-2,2.2-3.7,3.9l-3.8,3.7v0.2h10.5V258.3z"/>
	</g>
	<rect x="570.3" y="278.2" class="st23" width="37" height="42.2"/>
	<g class="st24">
		<path class="st5" d="M585.8,284.7c0,1.4-0.4,2.6-1.2,3.5c-0.8,0.9-2,1.6-3.4,1.9v0.1c1.8,0.2,3.1,0.8,4,1.7
			c0.9,0.9,1.3,2.1,1.3,3.5c0,2.1-0.8,3.8-2.3,4.9c-1.5,1.2-3.6,1.7-6.4,1.7c-2.4,0-4.5-0.4-6.2-1.2v-3.2c0.9,0.5,1.9,0.8,3,1.1
			c1,0.3,2.1,0.4,3,0.4c1.7,0,3-0.3,3.8-1c0.8-0.6,1.3-1.6,1.3-2.9c0-1.2-0.5-2-1.4-2.6c-0.9-0.6-2.4-0.8-4.4-0.8h-1.9v-2.9h1.9
			c3.5,0,5.3-1.2,5.3-3.7c0-0.9-0.3-1.7-0.9-2.2c-0.6-0.5-1.5-0.8-2.7-0.8c-0.8,0-1.6,0.1-2.4,0.4c-0.8,0.2-1.7,0.7-2.8,1.4
			l-1.7-2.5c2-1.5,4.4-2.2,7.1-2.2c2.2,0,4,0.5,5.2,1.4C585.1,281.7,585.8,283,585.8,284.7z"/>
	</g>
</g>
</svg>
