<?xml version="1.0"?>
<svg xmlns="http://www.w3.org/2000/svg" height="64px" viewBox="0 -47 512 512" width="64px"><path d="m87.996094 418c-1.285156 0-2.585938-.25-3.824219-.761719-3.734375-1.546875-6.171875-5.195312-6.171875-9.238281v-60h-20c-31.980469 0-58-26.019531-58-58v-232c0-31.980469 26.019531-58 58-58h396c31.980469 0 58 26.019531 58 58v232c0 31.980469-26.019531 58-58 58h-43.886719c-5.519531 0-10-4.476562-10-10s4.480469-10 10-10h43.886719c20.953125 0 38-17.046875 38-38v-232c0-20.953125-17.046875-38-38-38h-396c-20.953125 0-38 17.046875-38 38v232c0 20.953125 17.046875 38 38 38h30c5.523438 0 10 4.476562 10 10v45.859375l52.929688-52.929687c1.875-1.875 4.417968-2.929688 7.070312-2.929688h172.117188c5.523437 0 10 4.476562 10 10s-4.476563 10-10 10h-167.972657l-67.074219 67.070312c-1.914062 1.914063-4.46875 2.929688-7.074218 2.929688zm0 0" fill="#000000"/><path d="m404.058594 251.882812c-2.652344 0-5.195313-1.054687-7.070313-2.929687l-26.871093-26.871094-26.867188 26.871094c-3.90625 3.902344-10.238281 3.902344-14.144531 0l-33.941407-33.941406c-1.875-1.875-2.929687-4.417969-2.929687-7.070313s1.054687-5.195312 2.929687-7.070312l26.871094-26.871094-26.871094-26.871094c-1.875-1.875-2.929687-4.417968-2.929687-7.070312s1.054687-5.195313 2.929687-7.070313l33.941407-33.941406c3.90625-3.90625 10.238281-3.90625 14.144531 0l26.867188 26.871094 26.871093-26.871094c1.875-1.875 4.417969-2.929687 7.070313-2.929687s5.195312 1.054687 7.074218 2.929687l33.9375 33.941406c3.90625 3.90625 3.90625 10.234375 0 14.140625l-26.871093 26.871094 26.871093 26.871094c3.90625 3.902344 3.90625 10.234375 0 14.140625l-33.9375 33.941406c-1.875 1.875-4.421874 2.929687-7.074218 2.929687zm-87.679688-43.941406 19.796875 19.796875 26.871094-26.871093c3.90625-3.902344 10.234375-3.902344 14.144531 0l26.867188 26.871093 19.800781-19.796875-26.871094-26.871094c-3.902343-3.90625-3.902343-10.234374 0-14.140624l26.871094-26.871094-19.800781-19.796875-26.867188 26.867187c-3.90625 3.90625-10.238281 3.90625-14.144531 0l-26.871094-26.867187-19.796875 19.796875 26.867188 26.871094c1.875 1.875 2.929687 4.417968 2.929687 7.070312s-1.054687 5.195312-2.929687 7.070312zm0 0" fill="#000000"/><path d="m135.0625 248.683594c-2.5625 0-5.121094-.976563-7.074219-2.929688l-14.882812-14.882812c-.140625-.128906-.28125-.257813-.417969-.394532l-45.757812-45.761718c-3.90625-3.902344-3.90625-10.234375 0-14.140625l33.9375-33.941407c3.90625-3.90625 10.238281-3.90625 14.144531 0l20.039062 20.039063 54.425781-54.425781c3.90625-3.902344 10.234376-3.90625 14.140626 0l33.941406 33.941406c1.875 1.875 2.929687 4.417969 2.929687 7.070312 0 2.652344-1.054687 5.195313-2.929687 7.070313l-95.425782 95.425781c-1.953124 1.953125-4.511718 2.929688-7.070312 2.929688zm-8.636719-32.753906c.140625.125.28125.257812.417969.394531l8.21875 8.214843 81.28125-81.28125-19.796875-19.800781-54.425781 54.425781c-3.90625 3.902344-10.234375 3.90625-14.144532 0l-20.035156-20.039062-19.800781 19.800781zm0 0" fill="#000000"/><path d="m370.121094 347.96875c-2.632813 0-5.210938-1.058594-7.082032-2.917969-1.859374-1.871093-2.917968-4.453125-2.917968-7.082031s1.058594-5.199219 2.917968-7.070312c1.871094-1.859376 4.449219-2.929688 7.082032-2.929688 2.628906 0 5.207031 1.070312 7.066406 2.929688 1.863281 1.871093 2.933594 4.441406 2.933594 7.070312s-1.070313 5.210938-2.933594 7.082031c-1.859375 1.859375-4.4375 2.917969-7.066406 2.917969zm0 0" fill="#000000"/></svg>
