<?xml version="1.0" encoding="iso-8859-1"?>
<!-- Generator: Adobe Illustrator 19.0.0, SVG Export Plug-In . SVG Version: 6.00 Build 0)  -->
<svg xmlns="http://www.w3.org/2000/svg" xmlns:xlink="http://www.w3.org/1999/xlink" version="1.1" id="Capa_1" x="0px" y="0px" viewBox="0 0 512.001 512.001" style="enable-background:new 0 0 512.001 512.001;" xml:space="preserve" width="64px" height="64px">
<g>
	<g>
		<path d="M441.008,105.604c-34.445,0-60.688-15.846-78.001-47.096c-13.477-24.327-16.374-49.272-16.41-49.59    C346.045,3.845,341.76,0,336.656,0H175.344c-5.205,0-9.541,4.009-9.968,9.196c-0.021,0.249-2.2,25.156-15.314,49.428    c-16.841,31.173-43.444,46.98-79.069,46.98c-5.523,0-10,4.477-10,10v118.418c0,61.01,18.209,119.635,52.659,169.538    c34.474,49.938,82.51,87.234,138.915,107.853c2.078,0.76,4.664,0.806,6.867,0c56.405-20.62,104.441-57.914,138.916-107.853    c34.449-49.903,52.659-108.528,52.659-169.538V115.605C451.009,110.082,446.531,105.604,441.008,105.604z M431.008,234.023    c0,114.421-70.171,217.353-175.007,257.324C151.164,451.375,80.993,348.443,80.993,234.023V125.234    c38.368-2.898,68.315-22.706,87.001-57.723c9.871-18.501,14.226-36.876,16.067-47.51h144.098    c2.079,10.558,6.844,29.019,17.027,47.606c19.103,34.872,48.637,54.634,85.823,57.605V234.023z" fill="#000000"/>
	</g>
</g>
<g>
	<g>
		<path d="M401.007,140.436c-29.188-0.001-52.729-15.058-69.968-44.754c-13.536-23.314-17.935-47.197-17.976-47.424    c-0.846-4.776-4.996-8.256-9.847-8.256h-94.432c-4.67,0-8.719,3.233-9.752,7.787c-0.21,0.927-21.787,92.646-88.038,92.646    c-5.523,0-10,4.477-10,10c0,5.523,4.477,10,10,10c34.37,0,63.969-19.043,85.596-55.07c10.712-17.845,16.904-35.552,19.839-45.363    h78.803c2.555,9.949,8.031,27.512,18.211,45.204c20.79,36.131,51.069,55.23,87.565,55.23c5.523,0,10-4.477,10-10    C411.007,144.913,406.53,140.436,401.007,140.436z" fill="#000000"/>
	</g>
</g>
<g>
	<g>
		<path d="M363.235,361.055c-4.544-3.046-10.83-1.795-13.871,2.75c-24.621,36.802-56.912,64.273-93.384,79.443    c-22.75-9.39-44.02-24.13-63.221-43.81c-3.752-3.846-10.311-3.911-14.143-0.183c-3.916,3.81-4.012,10.226-0.18,14.142    c22.231,22.791,47.122,39.602,73.963,49.952c2.341,0.903,4.909,0.891,7.24-0.02c21.251-8.3,41.362-20.401,59.772-35.961    c17.521-14.801,33.191-32.441,46.572-52.432C369.054,370.345,367.815,364.126,363.235,361.055z" fill="#000000"/>
	</g>
</g>
<g>
	<g>
		<path d="M356.36,225.258l-28.285-28.285c-3.905-3.905-10.237-3.905-14.144,0l-79.932,79.932l-35.93-35.93    c-3.905-3.905-10.237-3.905-14.144,0L155.64,269.26c-3.891,3.892-3.907,10.196-0.035,14.108c0,0,70.568,71.28,70.928,71.643    c1.84,1.859,4.458,2.807,7.084,2.817c2.608,0.009,5.224-0.907,7.096-2.779c0,0,115.548-115.548,115.647-115.647    C360.223,235.539,360.219,229.118,356.36,225.258z M233.677,333.799l-56.857-57.431l14.179-14.178l35.93,35.93    c3.905,3.905,10.237,3.905,14.144,0l79.932-79.932l14.143,14.143L233.677,333.799z" fill="#000000"/>
	</g>
</g>
<g>
	<g>
		<circle cx="377.006" cy="335.014" r="10" fill="#000000"/>
	</g>
</g>
<g>
</g>
<g>
</g>
<g>
</g>
<g>
</g>
<g>
</g>
<g>
</g>
<g>
</g>
<g>
</g>
<g>
</g>
<g>
</g>
<g>
</g>
<g>
</g>
<g>
</g>
<g>
</g>
<g>
</g>
</svg>
