<?xml version="1.0" encoding="iso-8859-1"?>
<!-- Generator: Adobe Illustrator 19.0.0, SVG Export Plug-In . SVG Version: 6.00 Build 0)  -->
<svg xmlns="http://www.w3.org/2000/svg" xmlns:xlink="http://www.w3.org/1999/xlink" version="1.1" id="Layer_1" x="0px" y="0px" viewBox="0 0 512 512" style="enable-background:new 0 0 512 512;" xml:space="preserve" width="64px" height="64px">
<g>
	<g>
		<g>
			<path d="M501.574,213.627H315.268V166.56c0-5.758-4.669-10.426-10.426-10.426h-31.228c-1.744-5.142-3.829-10.164-6.244-15.031     l22.094-22.095c4.071-4.071,4.071-10.673,0-14.744l-40.732-40.732c-4.072-4.071-10.672-4.071-14.745,0l-22.094,22.094     c-4.868-2.415-9.89-4.501-15.031-6.244V48.154c0-5.758-4.669-10.426-10.426-10.426h-57.605c-5.757,0-10.426,4.668-10.426,10.426     v31.228c-5.142,1.743-10.163,3.829-15.031,6.245L81.281,63.532c-4.071-4.07-10.671-4.071-14.745,0l-40.732,40.732     c-4.071,4.071-4.071,10.673,0,14.744l22.094,22.095c-2.414,4.867-4.5,9.889-6.244,15.031H10.426     C4.669,156.134,0,160.801,0,166.56v57.604c0,5.758,4.669,10.426,10.426,10.426h31.228c1.743,5.142,3.829,10.163,6.244,15.031     l-22.094,22.095c-4.071,4.071-4.071,10.673,0,14.744l40.732,40.732c4.072,4.071,10.672,4.071,14.745,0l22.094-22.094     c4.868,2.415,9.89,4.501,15.031,6.244v31.228c0,5.758,4.669,10.426,10.426,10.426h28.691v110.851     c0,5.758,4.669,10.426,10.426,10.426h333.626c5.757,0,10.426-4.668,10.426-10.426V224.053     C512,218.295,507.331,213.627,501.574,213.627z M448.423,234.478v20.852H178.374v-20.852H448.423z M157.525,332.145h-18.267     v-0.002v-28.536c0-4.725-3.178-8.859-7.743-10.074c-8.671-2.309-17.012-5.775-24.789-10.3c-4.087-2.378-9.268-1.707-12.615,1.639     l-20.201,20.203l-25.987-25.987l20.202-20.203c3.346-3.346,4.018-8.525,1.639-12.615c-4.524-7.776-7.989-16.116-10.3-24.79     c-1.217-4.565-5.351-7.742-10.074-7.742H20.852v-36.752h28.536c4.724,0,8.858-3.177,10.074-7.742     c2.311-8.674,5.776-17.015,10.3-24.79c2.379-4.09,1.707-9.27-1.639-12.615l-20.202-20.203l25.987-25.985l20.202,20.202     c3.346,3.346,8.527,4.018,12.615,1.639c7.777-4.524,16.117-7.989,24.79-10.3c4.565-1.217,7.742-5.349,7.742-10.074V58.579h36.752     v28.536c0,4.725,3.177,8.859,7.743,10.074c8.671,2.309,17.012,5.775,24.789,10.3c4.087,2.378,9.268,1.708,12.615-1.639     l20.202-20.202l25.987,25.987l-20.202,20.203c-3.346,3.346-4.018,8.525-1.639,12.615c4.524,7.776,7.988,16.116,10.3,24.79     c1.217,4.565,5.351,7.742,10.074,7.742h28.536v36.642h-67.944c1.555-5.831,2.391-11.951,2.391-18.266     c0-39.276-31.953-71.229-71.229-71.229c-39.276,0-71.229,31.953-71.229,71.229c0,39.239,31.894,71.166,71.119,71.226V332.145z      M157.523,224.053v21.684c-27.726-0.06-50.267-22.633-50.267-50.374c0-27.779,22.6-50.378,50.378-50.378     c27.777,0,50.378,22.599,50.378,50.378c0.001,6.442-1.225,12.6-3.442,18.265h-36.621     C162.191,213.627,157.523,218.295,157.523,224.053z M491.148,453.421H178.374V276.182h312.774V453.421z M491.148,255.33h-21.873     v-20.852h21.873V255.33z" fill="#000000"/>
			<path d="M392.609,325.911c1.907,1.493,4.171,2.217,6.419,2.217c3.095,0,6.16-1.373,8.217-3.999l0.587-0.751     c3.549-4.534,2.751-11.087-1.783-14.637c-4.532-3.548-11.085-2.751-14.636,1.782l-0.587,0.751     C387.277,315.808,388.076,322.361,392.609,325.911z" fill="#000000"/>
			<path d="M315.766,420.262c1.98,2.442,4.955,3.858,8.097,3.858c0.029,0,0.06,0,0.09,0c3.174-0.027,6.162-1.499,8.119-3.997     l51.33-65.548c3.55-4.533,2.753-11.087-1.781-14.637c-4.532-3.551-11.086-2.752-14.636,1.781l-43.267,55.251l-34.158-42.102     c-3.628-4.472-10.192-5.156-14.665-1.527c-4.471,3.627-5.155,10.193-1.527,14.665L315.766,420.262z" fill="#000000"/>
		</g>
	</g>
</g>
<g>
</g>
<g>
</g>
<g>
</g>
<g>
</g>
<g>
</g>
<g>
</g>
<g>
</g>
<g>
</g>
<g>
</g>
<g>
</g>
<g>
</g>
<g>
</g>
<g>
</g>
<g>
</g>
<g>
</g>
</svg>
