<?xml version="1.0" encoding="utf-8"?>
<!-- Generator: Adobe Illustrator 19.1.1, SVG Export Plug-In . SVG Version: 6.00 Build 0)  -->
<svg version="1.1" id="Layer_1" xmlns="http://www.w3.org/2000/svg" xmlns:xlink="http://www.w3.org/1999/xlink" x="0px" y="0px"
	 viewBox="132 -53.8 548 390.3" style="enable-background:new 132 -53.8 548 390.3;" xml:space="preserve">
<style type="text/css">
	.st0{fill:none;stroke:#D0D8DC;stroke-width:4;stroke-miterlimit:10;}
	.st1{fill:#95C8EC;}
	.st2{fill:#CBEAFB;}
	.st3{fill:#90A4AE;}
	.st4{fill:#E4F2FB;}
	.st5{fill:#B0BEC5;}
	.st6{fill:#70B2E2;}
	.st7{fill:#81C784;}
	.st8{fill:#FFFFFF;stroke:#D0D8DC;stroke-width:1.77;stroke-miterlimit:10;}
	.st9{fill:#71BE72;}
	.st10{fill:#99CF8C;}
	.st11{fill:#54B958;}
	.st12{opacity:0.2;}
	.st13{fill:#D0D8DC;}
	.st14{fill:#FFFFFF;}
	.st15{fill:#78909C;}
	.st16{fill:#57A0D7;}
	.st17{fill:#3D82C4;}
	.st18{fill:#57A7DB;}
	.st19{opacity:0.71;enable-background:new    ;}
	.st20{opacity:0.71;fill:#BDDDF4;enable-background:new    ;}
	.st21{opacity:0.3;fill:#F1F2F2;enable-background:new    ;}
	.st22{fill:#FBE4D4;}
	.st23{fill:#E8E8E8;}
	.st24{fill:#58A6DA;}
	.st25{fill:#F4AE7A;}
</style>
<path class="st0" d="M252.1,155.2v113c0,8.2,6.6,14.8,14.8,14.8h310.5c8.2,0,14.8-6.6,14.8-14.8V144"/>
<title>Disrupted-on-premises and cloud environments</title>
<path id="_Path_6" class="st1" d="M509.1,41.7c0.9-3.7,1.4-7.5,1.4-11.3c-0.1-25-20.3-45.3-45.3-45.4c-7.8-28.2-37.1-44.7-65.3-36.8
	c-20.8,5.8-36,23.6-38.5,45.1h-2.6c-29.1-0.4-53,22.8-53.4,51.9s22.8,53,51.9,53.4c0.5,0,1,0,1.5,0h148.9
	c15.7,0.1,28.5-12.5,28.7-28.2C536.6,54.9,524.5,42.2,509.1,41.7z"/>
<path id="_Path_7" class="st2" d="M475.3,73.8c0.6-2.3,0.9-4.6,0.9-7c0-15.5-12.5-28-28-28.1c-4.9-17.4-23-27.6-40.4-22.7
	c-12.8,3.6-22.1,14.6-23.7,27.7h-1.6c-18,0-32.5,14.6-32.5,32.5c0,18,14.6,32.5,32.5,32.5c0,0,0,0,0,0h92c9.7,0,17.6-7.9,17.5-17.6
	C492,81.9,484.7,74.2,475.3,73.8L475.3,73.8z"/>
<g>
	<path class="st3" d="M356.4,78.3H286c-5.1,0-9.1,4.1-9.2,9.2v133.9c0,5.1,4.1,9.1,9.2,9.2h70.4c5.1,0,9.1-4.1,9.2-9.2V87.5
		c0-5-4-9.1-9.1-9.2C356.4,78.3,356.4,78.3,356.4,78.3z"/>
	<path class="st3" d="M456.2,78.3h-70.4c-5.1,0-9.1,4.1-9.2,9.2v133.9c0,5.1,4.1,9.1,9.2,9.2h70.4c5.1,0,9.1-4.1,9.2-9.2V87.5
		c0-5-4-9.1-9.1-9.2C456.3,78.3,456.2,78.3,456.2,78.3z"/>
	<path class="st3" d="M556,78.3h-70.4c-5.1,0-9.1,4.1-9.2,9.2v133.9c0,5.1,4.1,9.1,9.2,9.2H556c5.1,0,9.1-4.1,9.2-9.2V87.5
		c0-5-4-9.1-9.1-9.2C556.1,78.3,556.1,78.3,556,78.3z"/>
	<rect x="291.7" y="93.1" class="st4" width="58.8" height="122.8"/>
	<rect x="391.5" y="93.1" class="st4" width="58.8" height="122.8"/>
	<rect x="491.3" y="93.1" class="st4" width="58.8" height="122.8"/>
	<path class="st5" d="M345.5,177.7h-48.8V210h48.8V177.7z M340.8,205h-39.5v-22.3h39.5V205z"/>
	<rect x="331.5" y="186.5" class="st1" width="4.7" height="14.7"/>
	<rect x="323.7" y="186.5" class="st6" width="5" height="14.7"/>
	<path class="st7" d="M311.2,201.5c4.4-0.4,7.6-4.4,7.2-8.8c-0.4-3.8-3.4-6.8-7.2-7.2c-4.3-0.1-7.9,3.3-8,7.7c0,0.1,0,0.2,0,0.3
		C303.3,198,306.8,201.5,311.2,201.5z M311.2,190.6c1.6,0,2.9,1.3,2.9,2.9c0,1.6-1.3,2.9-2.9,2.9c0,0,0,0,0,0
		c-1.6,0-2.9-1.3-2.9-2.9C308.3,192,309.6,190.6,311.2,190.6C311.2,190.6,311.2,190.6,311.2,190.6z"/>
	<path class="st5" d="M345.5,138.6h-48.8v32.2h48.8V138.6z M340.8,165.7h-39.5v-22.5h39.5V165.7z"/>
	<rect x="331.5" y="147" class="st1" width="4.7" height="14.7"/>
	<rect x="323.7" y="147" class="st6" width="5" height="14.7"/>
	<path class="st7" d="M311.2,162.3c4.4,0,8-3.5,8-7.9c0,0,0-0.1,0-0.1c-0.4-4.4-4.4-7.6-8.8-7.2c-3.8,0.4-6.8,3.4-7.2,7.2
		C303.3,158.6,306.8,162.2,311.2,162.3z M311.2,151.4c1.6,0,2.9,1.3,2.9,2.9s-1.3,2.9-2.9,2.9s-2.9-1.3-2.9-2.9
		C308.3,152.7,309.6,151.4,311.2,151.4C311.2,151.4,311.2,151.4,311.2,151.4z"/>
	<path class="st5" d="M345.5,99.1h-48.8v32.2h48.8V99.1z M340.8,126.3h-39.5v-22.5h39.5V126.3z"/>
	<rect x="331.5" y="107.6" class="st1" width="4.7" height="14.7"/>
	<rect x="323.7" y="107.6" class="st6" width="5" height="14.7"/>
	<path class="st7" d="M311.2,122.8c4.4-0.4,7.6-4.4,7.2-8.8c-0.4-3.8-3.4-6.8-7.2-7.2c-4.3-0.1-7.9,3.3-8,7.7c0,0.1,0,0.2,0,0.3
		C303.3,119.3,306.8,122.8,311.2,122.8z M311.2,111.9c1.6,0,2.9,1.3,2.9,2.9s-1.3,2.9-2.9,2.9c-1.6,0-2.9-1.3-2.9-2.9
		c-0.1-1.6,1.1-2.9,2.6-3C311,111.9,311.1,111.9,311.2,111.9L311.2,111.9z"/>
	<path class="st5" d="M445.3,177.7h-48.8V210h48.8V177.7z M440.6,205h-39.5v-22.3h39.5L440.6,205z"/>
	<rect x="431.3" y="186.5" class="st1" width="4.7" height="14.7"/>
	<rect x="423.5" y="186.5" class="st6" width="5" height="14.7"/>
	<path class="st7" d="M411,201.5c4.4,0,8-3.6,8-8s-3.6-8-8-8s-8,3.6-8,8S406.6,201.5,411,201.5z M411,190.6c1.6,0,2.9,1.3,2.9,2.9
		c0,1.6-1.3,2.9-2.9,2.9c0,0,0,0,0,0c-1.6,0-2.9-1.3-2.9-2.9C408.1,192,409.4,190.6,411,190.6C411,190.6,411,190.6,411,190.6z"/>
	<path class="st5" d="M445.3,138.6h-48.8v32.2h48.8V138.6z M440.6,165.7h-39.5v-22.5h39.5L440.6,165.7z"/>
	<rect x="431.3" y="147" class="st1" width="4.7" height="14.7"/>
	<rect x="423.5" y="147" class="st6" width="5" height="14.7"/>
	<path class="st7" d="M411,162.3c4.4,0,8-3.5,8-7.9c0,0,0-0.1,0-0.1c0.1-4.3-3.3-7.9-7.7-8c-0.1,0-0.2,0-0.3,0c-4.4,0-8,3.5-8,7.9
		c0,0,0,0.1,0,0.1C403,158.7,406.6,162.3,411,162.3z M411,151.4c1.6,0,2.9,1.3,2.9,2.9s-1.3,2.9-2.9,2.9s-2.9-1.3-2.9-2.9
		C408.1,152.7,409.4,151.4,411,151.4C411,151.4,411,151.4,411,151.4z"/>
	<path class="st5" d="M445.3,99.1h-48.8v32.2h48.8V99.1z M440.6,126.3h-39.5v-22.5h39.5L440.6,126.3z"/>
	<rect x="431.3" y="107.6" class="st1" width="4.7" height="14.7"/>
	<rect x="423.5" y="107.6" class="st6" width="5" height="14.7"/>
	<path class="st7" d="M411,122.8c4.4,0,8-3.6,8-8s-3.6-8-8-8s-8,3.6-8,8S406.6,122.8,411,122.8z M411,111.9c1.6,0,3,1.3,3,2.9
		c0,1.6-1.3,3-2.9,3c-1.6,0-3-1.3-3-2.9c0,0,0,0,0,0c-0.1-1.6,1.1-2.9,2.6-3C410.9,111.9,411,111.9,411,111.9L411,111.9z"/>
	<path class="st5" d="M545.1,177.7h-48.8V210h48.8V177.7z M540.5,205H501v-22.3h39.5L540.5,205z"/>
	<rect x="531.1" y="186.5" class="st1" width="4.7" height="14.7"/>
	<rect x="523.3" y="186.5" class="st6" width="5" height="14.7"/>
	<path class="st7" d="M510.9,201.5c4.4,0,8-3.6,8-8s-3.6-8-8-8c-4.4,0-8,3.6-8,8S506.5,201.5,510.9,201.5z M510.9,190.6
		c1.6,0,2.9,1.3,2.9,2.9c0,1.6-1.3,2.9-2.9,2.9c0,0,0,0,0,0c-1.6,0-2.9-1.3-2.9-2.9C507.9,192,509.2,190.6,510.9,190.6
		C510.9,190.6,510.9,190.6,510.9,190.6z"/>
	<path class="st5" d="M545.1,138.6h-48.8v32.2h48.8V138.6z M540.5,165.7H501v-22.5h39.5L540.5,165.7z"/>
	<rect x="531.1" y="147" class="st1" width="4.7" height="14.7"/>
	<rect x="523.3" y="147" class="st6" width="5" height="14.7"/>
	<path class="st7" d="M510.9,162.3c4.4,0,8-3.5,8-7.9c0,0,0-0.1,0-0.1c0.1-4.3-3.3-7.9-7.7-8c-0.1,0-0.2,0-0.3,0c-4.4,0-8,3.5-8,7.9
		c0,0,0,0.1,0,0.1C502.9,158.7,506.5,162.3,510.9,162.3z M510.9,151.4c1.6,0,2.9,1.3,2.9,2.9s-1.3,2.9-2.9,2.9
		c-1.6,0-2.9-1.3-2.9-2.9C507.9,152.7,509.2,151.4,510.9,151.4C510.9,151.4,510.9,151.4,510.9,151.4z"/>
	<path class="st5" d="M545.1,99.1h-48.8v32.2h48.8V99.1z M540.5,126.3H501v-22.5h39.5L540.5,126.3z"/>
	<rect x="531.1" y="107.6" class="st1" width="4.7" height="14.7"/>
	<rect x="523.3" y="107.6" class="st6" width="5" height="14.7"/>
	<path class="st7" d="M510.9,122.8c4.4,0,8-3.6,8-8s-3.6-8-8-8c-4.4,0-8,3.6-8,8S506.5,122.8,510.9,122.8z M510.9,111.9
		c1.6,0,2.9,1.3,2.9,2.9s-1.3,2.9-2.9,2.9c-1.6,0-2.9-1.3-2.9-2.9c-0.1-1.6,1.1-2.9,2.7-3C510.7,111.9,510.8,111.9,510.9,111.9
		L510.9,111.9z"/>
</g>
<g id="Layer_5">
	<g id="_Group_5_1_">
		<g id="_Group_6_1_">
			<g id="_Group_7_1_">
				<g id="_Group_8_1_">
					<g id="_Group_9">
						<g id="_Group_10">
							<g id="_Group_11">
								<g id="_Group_12">
									<g id="_Group_13">
										<g id="_Group_14">
											<path id="_Path_12" class="st8" d="M677.1-26.9c-51,5.4-84.8-26.2-84.8-26.2s-33.5,31.6-84.8,26.2
												c0,0-15.9,142.7,84.8,171C692.9,115.5,677.1-26.9,677.1-26.9z"/>
										</g>
									</g>
								</g>
							</g>
						</g>
					</g>
				</g>
			</g>
			<g id="_Group_15">
				<g id="_Group_16">
					<g id="_Group_17">
						<g id="_Group_18">
							<g id="_Group_19">
								<g id="_Group_20">
									<g id="_Group_21">
										<g id="_Group_22">
											<path id="_Path_13" class="st9" d="M592.4,125.7c-62.3-21.2-68.7-100.2-68.1-134.6c24.3-1.1,47.8-8.8,68.1-22.3
												c13.5,8.8,37,21.2,68.1,22.3C661,25.2,654.6,104.2,592.4,125.7z"/>
										</g>
									</g>
								</g>
							</g>
						</g>
					</g>
				</g>
			</g>
			<g id="_Group_23">
				<g id="_Group_24">
					<g id="_Group_25">
						<g id="_Group_26">
							<g id="_Group_27">
								<g id="_Group_28">
									<g id="_Group_29">
										<g id="_Group_30">
											<path id="_Path_14" class="st10" d="M593-23.2L593-23.2v140.6l0,0c55.8-19,61.2-89.9,61.1-120.8
												C632.1-4.3,611-11.2,593-23.2z"/>
										</g>
									</g>
								</g>
							</g>
						</g>
					</g>
				</g>
			</g>
			<g id="_Group_31">
				<g id="_Group_32">
					<g id="_Group_33">
						<g id="_Group_34">
							<g id="_Group_35">
								<g id="_Group_36">
									<g id="_Group_37">
										<g id="_Group_38">
											<path id="_Compound_Path_2" class="st11" d="M592.4,127.4l-0.7-0.3C528.2,105.2,522,24.5,522.5-9v-1.8h1.8
												c24-1,47.3-8.7,67.3-22.1l0.8-0.7l0.8,0.7c20,13.2,43.2,21,67.1,22.1h1.8V-9c0.3,33.8-5.8,114.4-69.2,136.1L592.4,127.4z
												 M526-7.5c-0.3,33.8,6.3,110.2,66.5,131.1c59.7-21,66.5-97.2,66.5-131.1c-23.7-1.4-46.6-8.8-66.5-21.8
												C572.6-16.3,549.7-8.9,526-7.5z"/>
										</g>
									</g>
								</g>
							</g>
						</g>
					</g>
				</g>
			</g>
		</g>
		<g id="_Group_39">
			<g id="_Group_40">
				<g id="_Group_41" class="st12">
					<g id="_Group_42">
						<path id="_Compound_Path_3" d="M626.3,30.4h-3.4v-9.4c0-14.6-11.9-26.3-26.5-26.5h-0.7c-14.6,0-26.3,11.9-26.5,26.5v9.4h-3.4
							c-2.3,0-4.3,1.9-4.3,4.3v49.8c0,2.3,1.9,4.3,4.3,4.3h60.4c2.3,0,4.3-1.9,4.3-4.3V34.7C630.5,32.4,628.7,30.6,626.3,30.4z
							 M577.8,30.4v-9.4c0-9.9,8-17.9,17.9-17.9l0,0h0.7c9.9,0,17.9,8,17.9,17.9c0,0,0,0,0,0.1v9.4L577.8,30.4z"/>
					</g>
				</g>
				<g id="_Group_43">
					<g id="_Group_44">
						<g id="_Group_45">
							<g id="_Group_46">
								<path id="_Path_15" class="st13" d="M626.8,80.6c0,2.3-1.9,4.3-4.3,4.3h-60.4c-2.3,0-4.3-1.9-4.3-4.3V30.8
									c0-2.3,1.9-4.3,4.3-4.3h60.3c2.3,0,4.3,1.9,4.3,4.3v49.8H626.8z"/>
							</g>
						</g>
					</g>
					<g id="_Group_47">
						<g id="_Group_48">
							<g id="_Group_49">
								<g id="_Group_50">
									<g id="_Group_51">
										<g id="_Group_52">
											<g id="_Group_53">
												<g id="_Group_54">
													<path id="_Path_16" class="st14" d="M574.1,26.7v-9.4c0-9.9,8-17.9,17.9-17.9c0,0,0,0,0.1,0h0.7
														c9.9,0,17.9,8,17.9,17.9c0,0,0,0,0,0.1v9.4h8.4v-9.4c0-14.6-11.9-26.3-26.5-26.5H592c-14.6,0-26.3,11.9-26.5,26.5v9.4
														L574.1,26.7z"/>
												</g>
											</g>
										</g>
									</g>
								</g>
							</g>
						</g>
					</g>
					<g id="_Group_55">
						<g id="_Group_56">
							<g id="_Group_57">
								<g id="_Group_58">
									<g id="_Group_59">
										<g id="_Group_60">
											<g id="_Group_61">
												<g id="_Group_62">
													<path id="_Path_17" class="st15" d="M601.8,50.7c-0.1-5.2-4.6-9.4-9.9-9.2c-5,0.1-9,4.1-9.2,9.2c0,4,2.5,7.6,6.3,8.8
														v12.8h6.5V59.5C599.3,58.3,601.8,54.7,601.8,50.7z"/>
												</g>
											</g>
										</g>
									</g>
								</g>
							</g>
						</g>
					</g>
				</g>
			</g>
		</g>
	</g>
</g>
<circle class="st9" cx="255.6" cy="98.5" r="33.4"/>
<g>
	<g id="XMLID_2471_">
		<path id="XMLID_2480_" class="st16" d="M173.8,224.2c6.5,4.3,15,2.4,19.1-4.1l32.4-50.2c4.1-6.5,2.4-15-4.1-19.1l0,0
			c-6.5-4.1-15-2.4-19.1,4.1l-32.4,50.2C165.5,211.4,167.4,220.1,173.8,224.2L173.8,224.2L173.8,224.2z"/>
		<path id="XMLID_2479_" class="st1" d="M172.8,218.4c2.6,1.5,6,0.9,7.3-1.5l32.4-50.2c1.7-2.4,1-5.8-1.5-7.3
			c-2.4-1.7-5.8-0.9-7.3,1.5l-32.4,50.2C169.6,213.4,170.4,216.8,172.8,218.4L172.8,218.4z"/>
		<g id="XMLID_2477_">
			<path id="XMLID_2478_" class="st17" d="M216.8,157.3c3.2,2,7.5,1.2,9.6-2l6.8-10.2c2-3.2,1.2-7.5-2-9.6l0,0c-3.2-2-7.5-1.2-9.6,2
				l-6.8,10.2C212.7,151,213.6,155.2,216.8,157.3L216.8,157.3z"/>
		</g>
		<path class="st18" d="M300.6,127.8c-7.8,12.1-19.8,20.5-34,23.6c-14.2,3.1-28.5,0.5-40.6-7.3l0,0c-12.3-7.9-20.7-20-23.7-34.1
			c-6.1-29,12.3-57.9,41.5-64.2c14-3.1,28.5-0.5,40.6,7.3c12.1,7.7,20.5,19.8,23.6,34C310.9,101,308.3,115.5,300.6,127.8z
			 M294.3,89.9c-2.2-10.4-8.5-19.5-17.6-25.3c-9-5.8-19.8-7.7-30.2-5.5c-21.5,4.6-35.3,26.1-30.7,47.8c2.2,10.4,8.5,19.5,17.6,25.3
			l0,0c9,5.8,19.8,7.7,30.2,5.5c10.4-2.4,19.5-8.5,25.3-17.6C294.7,111,296.7,100.3,294.3,89.9z"/>
		<g id="XMLID_2473_" class="st19">
			<g>
				<path id="XMLID_2474_" class="st20" d="M276.7,64.6c9,5.8,15.4,14.7,17.6,25.3c2.4,10.4,0.3,21.2-5.5,30.2
					c-5.8,9-14.8,15.4-25.3,17.6c-10.4,2.2-21.2,0.3-30.2-5.5l0,0c-9-5.8-15.4-14.7-17.6-25.3c-4.8-21.7,9-43.2,30.7-47.8
					C257,56.9,267.7,58.8,276.7,64.6L276.7,64.6z"/>
			</g>
		</g>
		<path id="XMLID_2472_" class="st21" d="M263.6,137.7c-10.4,2.2-21.2,0.3-30.2-5.5l0,0c-4.1-2.7-7.7-6-10.6-9.9
			c-1.4-2.7-2.2-5.6-2.9-8.5c-4.8-21.7,9-43.2,30.7-47.8c10.4-2.2,21.2-0.3,30.2,5.5c4.1,2.7,7.7,6,10.6,9.9
			c1.4,2.7,2.2,5.6,2.9,8.5c2.4,10.4,0.3,21.2-5.5,30.2C283.1,129.1,274,135.4,263.6,137.7z"/>
	</g>
	<g id="XMLID_2460_">
		<g id="XMLID_2463_">
			<g id="XMLID_2464_">
				<g id="XMLID_2465_">
					<path id="XMLID_2470_" class="st22" d="M141.8,224.3c0.7,6.5,7.9,39.6,11.4,41.3c2.9,1.4,32.3-0.9,41.8-1.7
						c1.9,0,3.1-0.2,3.1-0.2s27.6-37.2,31.2-45.7c3.6-8.5-8.7-39.9-8.7-39.9s-10.1,10.8-13.1,10.8c-3.1,0-4.9-33.1-8-42.2
						c-0.9-2.4-2.4-4.3-4.4-5.3c-5.6-3.2-14.3,0.2-15.5,18.1c0,0-7.9-2.4-11.4,11.3c0,0-7.7,0.9-12.3,16.4c0,0-5.5,0-9.9,9.4
						C141.4,205.9,140.9,218,141.8,224.3z"/>
					<g id="XMLID_2466_">
						<polygon id="XMLID_2468_" class="st1" points="131.2,269.2 131.2,336.8 192.1,336.8 210,336.8 210,269.2 192.1,269.2 						
							"/>
						<polygon id="XMLID_2467_" class="st23" points="141.4,262.1 141.4,269.2 189.9,269.2 204.2,269.2 204.2,262.1 189.9,262.1 
													"/>
					</g>
				</g>
			</g>
		</g>
		<polygon id="XMLID_2461_" class="st24" points="170.6,269.2 170.6,336.8 201,336.8 210,336.8 210,269.2 201,269.2 		"/>
	</g>
</g>
<g>
	<path class="st14" d="M251,107.8l-0.1-1.6c-0.4-3.3,0.7-7,3.8-10.7c2.8-3.3,4.3-5.7,4.3-8.5c0-3.2-2-5.3-5.9-5.3
		c-2.2,0-4.7,0.7-6.3,1.9l-1.5-3.9c2-1.5,5.6-2.5,8.9-2.5c7.1,0,10.3,4.4,10.3,9.1c0,4.2-2.4,7.2-5.3,10.8c-2.7,3.2-3.7,5.9-3.5,9.1
		l0.1,1.6H251z M249.6,116.4c0-2.3,1.5-3.9,3.7-3.9s3.7,1.6,3.7,3.9c0,2.2-1.4,3.8-3.7,3.8C251.1,120.3,249.6,118.6,249.6,116.4z"/>
</g>
<g>
	<g>
		<path class="st17" d="M427.9,154.9H355c-4.3,0-7.8,3.5-7.8,7.8v165.9c0,4.3,3.5,7.8,7.8,7.8H485c4.3,0,7.8-3.5,7.8-7.8V162.8
			c0-4.3-3.5-7.8-7.8-7.8L427.9,154.9z"/>
		<path class="st14" d="M474.6,166.1H365.5c-3.7,0-6.6,2.9-6.6,6.6v145.7c0,3.7,2.9,6.6,6.6,6.6h109.2c3.7,0,6.6-2.9,6.6-6.6V172.7
			C481.2,169.1,478.3,166.2,474.6,166.1z"/>
		<path class="st1" d="M433.9,146.8c0-7.6-6.2-13.8-13.8-13.8c-7.6,0-13.8,6.2-13.8,13.8h-30.3v27.6h88v-27.6H433.9z"/>
		<rect x="376" y="166.1" class="st6" width="88" height="8.2"/>
		<rect x="392.4" y="184.9" class="st5" width="30.5" height="4"/>
		<rect x="392.4" y="191.8" class="st5" width="79.7" height="4"/>
		<rect x="392.4" y="200.9" class="st5" width="45.2" height="4"/>
		<rect x="392.4" y="207.4" class="st5" width="64" height="4"/>
		<rect x="392.4" y="223.2" class="st5" width="79.7" height="4"/>
		<rect x="392.4" y="233.5" class="st5" width="45.2" height="4"/>
		<rect x="392.4" y="240.1" class="st5" width="60" height="4"/>
		<rect x="392.4" y="256.4" class="st5" width="79.7" height="4"/>
		<rect x="392.4" y="265.9" class="st5" width="79.7" height="4"/>
		<rect x="392.4" y="272.5" class="st5" width="79.7" height="4"/>
		<rect x="392.4" y="216.7" class="st5" width="30.5" height="4"/>
		<rect x="392.4" y="249.5" class="st5" width="30.5" height="4"/>
		<circle class="st25" cx="378.4" cy="190.1" r="5.1"/>
		<circle class="st1" cx="378.4" cy="222.2" r="5.1"/>
		<circle class="st7" cx="378.4" cy="238.8" r="5.1"/>
		<circle class="st25" cx="378.4" cy="206.4" r="5.1"/>
		<circle class="st25" cx="378.4" cy="255" r="5.1"/>
		<circle class="st7" cx="378.4" cy="286.9" r="5.1"/>
		<circle class="st25" cx="378.4" cy="303.5" r="5.1"/>
		<circle class="st1" cx="378.4" cy="271.2" r="5.1"/>
		<rect x="392.4" y="281.8" class="st5" width="45.2" height="4"/>
		<rect x="392.4" y="288.4" class="st5" width="60" height="4"/>
		<rect x="392.4" y="304.7" class="st5" width="79.7" height="4"/>
		<rect x="392.4" y="297.8" class="st5" width="30.5" height="4"/>
	</g>
</g>
</svg>
