<?xml version="1.0" encoding="utf-8"?>
<!-- Generator: Adobe Illustrator 19.1.1, SVG Export Plug-In . SVG Version: 6.00 Build 0)  -->
<svg version="1.1" id="Layer_1" xmlns="http://www.w3.org/2000/svg" xmlns:xlink="http://www.w3.org/1999/xlink" x="0px" y="0px"
	 viewBox="132 -53.8 548 390.3" style="enable-background:new 132 -53.8 548 390.3;" xml:space="preserve">
<style type="text/css">
	.st0{fill:#57A7DB;}
	.st1{fill:#F4AE7A;}
	.st2{fill:none;stroke:#D0D8DC;stroke-width:4;stroke-miterlimit:10;}
	.st3{fill:#95C8EC;}
	.st4{fill:#CBEAFB;}
	.st5{fill:#90A4AE;}
	.st6{fill:#E4F2FB;}
	.st7{fill:#B0BEC5;}
	.st8{fill:#70B2E2;}
	.st9{fill:#81C784;}
	.st10{fill:#71BE72;}
</style>
<path id="XMLID_1960_" class="st0" d="M494.3,228.4l-3.9-4.3c2.2-3.4,3.8-7,5-10.8l5.7,0.2c3.4,0.2,6.5-2.7,6.7-6.3l0.3-7.2
	c0.2-3.4-2.7-6.5-6.3-6.7L496,193c-1-3.9-2.2-7.5-4.3-11l4.3-3.9c2.6-2.6,2.7-6.5,0.3-9.3l-5-5.3c-2.4-2.6-6.7-2.7-9.3-0.3l-4.3,3.9
	c-3.4-2.2-7-3.8-10.8-5l0.2-5.5c0.2-3.4-2.7-6.5-6.3-6.7l-7.4-0.2c-3.4-0.2-6.5,2.7-6.7,6.3l-0.2,5.7c-4.1,0.9-7.5,2.2-11.1,4.3
	l-3.9-4.3c-2.4-2.6-6.7-2.7-9.3-0.3l-5.3,5c-1.2,1.2-2.1,2.7-2.1,4.6c0,1.7,0.5,3.4,1.7,4.6l3.9,4.3c-2.2,3.4-3.8,7-5,10.8l-5.7-0.2
	c-3.4-0.2-6.5,2.7-6.7,6.3l-0.3,7.2c-0.2,3.4,2.7,6.5,6.3,6.7l5.7,0.2c0.9,4.1,2.2,7.5,4.3,11.1l-4.3,3.9c-1.2,1.2-2.1,2.7-2.1,4.6
	c0,1.7,0.5,3.4,1.7,4.6l5,5.3c1.2,1.2,2.7,2.1,4.6,2.1c1.7,0,3.4-0.5,4.6-1.7l4.3-3.9c3.4,2.2,7,3.8,10.8,5l-0.2,5.5
	c-0.2,3.4,2.7,6.5,6.3,6.7l7.2,0.3c3.4,0.2,6.5-2.7,6.7-6.3l0.2-5.7c4.1-0.9,7.5-2.2,11.1-4.3l3.9,4.3c1.2,1.2,2.7,2.1,4.6,2.1
	c1.7,0,3.4-0.5,4.6-1.7l5.3-5C496.7,235.2,496.7,230.9,494.3,228.4z M454.7,227.7c-3.8-0.2-7.4-1-10.6-2.6
	c-8.9-4.5-14.4-13.7-14.2-23.7c0.3-14.2,12.3-25.2,26.6-24.9c3.8,0.2,7.4,1,10.6,2.6c8.9,4.5,14.4,13.7,14.2,23.7
	C480.9,217,468.9,228,454.7,227.7z"/>
<path id="XMLID_3_" class="st1" d="M391,169.1l-6.2-6.8c3.5-5.4,6-11.1,7.9-17.1l9,0.3c5.4,0.3,10.3-4.3,10.6-10l0.5-11.4
	c0.3-5.4-4.3-10.3-10-10.6l-9-0.3c-1.4-6.5-3.5-11.9-6.8-17.6l6.8-6.2c4.1-4.1,4.3-10.3,0.5-14.6l-7.9-8.4
	c-3.8-4.1-10.6-4.3-14.6-0.5L365,72c-5.4-3.5-11.1-6-17.1-7.9l0.3-8.7c0.3-5.4-4.3-10.3-10-10.6l-11.7-0.3
	c-5.4-0.3-10.3,4.3-10.6,10l-0.3,9c-6.5,1.4-11.9,3.5-17.6,6.8l-6.2-6.8c-3.8-4.1-10.6-4.3-14.6-0.5l-8.4,7.9
	c-1.9,1.9-3.3,4.3-3.3,7.3c0,2.7,0.8,5.4,2.7,7.3l6.2,6.8c-3.5,5.4-6,11.1-7.9,17.1l-9-0.3c-5.4-0.3-10.3,4.3-10.6,10l-0.5,11.4
	c-0.3,5.4,4.3,10.3,10,10.6l9,0.3c1.4,6.5,3.5,11.9,6.8,17.6l-6.8,6.2c-1.9,1.9-3.3,4.3-3.3,7.3c0,3,0.8,5.4,2.7,7.3l7.9,8.4
	c1.9,1.9,4.3,3.3,7.3,3.3c2.7,0,5.4-0.8,7.3-2.7l6.8-6.2c5.4,3.5,11.1,6,17.1,7.9l-0.3,9c-0.3,5.4,4.3,10.3,10,10.6l11.4,0.5
	c5.4,0.3,10.3-4.3,10.6-10l0.3-9c6.5-1.4,11.9-3.5,17.6-6.8l6.2,6.8c1.9,1.9,4.3,3.3,7.3,3.3c2.7,0,5.4-0.8,7.3-2.7l8.4-7.9
	C394.8,179.9,394.8,173.4,391,169.1z M328.3,168c-6-0.3-11.7-1.6-16.8-4.1c-14.1-7.1-22.8-21.7-22.5-37.4
	c0.5-22.5,19.5-39.9,42-39.3c6,0.3,11.7,1.6,16.8,4.1c14.1,7.1,22.8,21.7,22.5,37.4C369.8,151.2,350.9,168.5,328.3,168z"/>
<path class="st2" d="M547.1,276.6H199.4c-9.6,0-17.4-7.8-17.4-17.4v-238c0-9.6,7.8-17.4,17.4-17.4h347.7c9.6,0,17.4,7.8,17.4,17.4
	v238C564.5,268.8,556.7,276.6,547.1,276.6z"/>
<title>Disrupted-on-premises and cloud environments</title>
<path id="_Path_6" class="st3" d="M652.6,41.7c0.9-3.7,1.4-7.5,1.4-11.3c-0.1-25-20.3-45.3-45.3-45.4c-7.8-28.2-37.1-44.7-65.3-36.8
	c-20.8,5.8-36,23.6-38.5,45.1h-2.6c-29.1-0.4-53,22.8-53.4,51.9s22.8,53,51.9,53.4c0.5,0,1,0,1.5,0h148.9
	C667,98.6,679.9,86,680,70.3C680.1,54.9,668,42.2,652.6,41.7z"/>
<path id="_Path_7" class="st4" d="M618.8,73.8c0.6-2.3,0.9-4.6,0.9-7c0-15.5-12.5-28-28-28.1c-4.9-17.4-23-27.6-40.4-22.7
	c-12.8,3.6-22.1,14.6-23.7,27.7H526c-18,0-32.5,14.6-32.5,32.5c0,18,14.6,32.5,32.5,32.5c0,0,0,0,0,0h92c9.7,0,17.6-7.9,17.5-17.6
	C635.5,81.9,628.2,74.2,618.8,73.8L618.8,73.8z"/>
<g>
	<path class="st5" d="M212.2,184.2h-70.4c-5.1,0-9.1,4.1-9.2,9.2v133.9c0,5.1,4.1,9.1,9.2,9.2h70.4c5.1,0,9.1-4.1,9.2-9.2V193.4
		c0-5-4-9.1-9.1-9.2C212.2,184.2,212.2,184.2,212.2,184.2z"/>
	<path class="st5" d="M312,184.2h-70.4c-5.1,0-9.1,4.1-9.2,9.2v133.9c0,5.1,4.1,9.1,9.2,9.2H312c5.1,0,9.1-4.1,9.2-9.2V193.4
		c0-5-4-9.1-9.1-9.2C312.1,184.2,312,184.2,312,184.2z"/>
	<path class="st5" d="M411.8,184.2h-70.4c-5.1,0-9.1,4.1-9.2,9.2v133.9c0,5.1,4.1,9.1,9.2,9.2h70.4c5.1,0,9.1-4.1,9.2-9.2V193.4
		c0-5-4-9.1-9.1-9.2C411.9,184.2,411.9,184.2,411.8,184.2z"/>
	<rect x="147.5" y="198.9" class="st6" width="58.8" height="122.8"/>
	<rect x="247.3" y="198.9" class="st6" width="58.8" height="122.8"/>
	<rect x="347.1" y="198.9" class="st6" width="58.8" height="122.8"/>
	<path class="st7" d="M201.3,283.5h-48.8v32.4h48.8V283.5z M196.6,310.8h-39.4v-22.3h39.4V310.8z"/>
	<rect x="187.3" y="292.3" class="st3" width="4.7" height="14.7"/>
	<rect x="179.5" y="292.3" class="st8" width="5" height="14.7"/>
	<path class="st9" d="M167,307.4c4.4-0.4,7.6-4.4,7.2-8.8c-0.4-3.8-3.4-6.8-7.2-7.2c-4.3-0.1-7.9,3.3-8,7.7c0,0.1,0,0.2,0,0.3
		C159.1,303.9,162.6,307.4,167,307.4z M167,296.5c1.6,0,2.9,1.3,2.9,2.9c0,1.6-1.3,2.9-2.9,2.9c0,0,0,0,0,0c-1.6,0-2.9-1.3-2.9-2.9
		C164.1,297.8,165.4,296.5,167,296.5C167,296.5,167,296.5,167,296.5z"/>
	<path class="st7" d="M201.3,244.4h-48.8v32.2h48.8V244.4z M196.6,271.6h-39.4v-22.5h39.4V271.6z"/>
	<rect x="187.3" y="252.9" class="st3" width="4.7" height="14.7"/>
	<rect x="179.5" y="252.9" class="st8" width="5" height="14.7"/>
	<path class="st9" d="M167,268.1c4.4,0,8-3.5,8-7.9c0,0,0-0.1,0-0.1c-0.4-4.4-4.4-7.6-8.8-7.2c-3.8,0.4-6.8,3.4-7.2,7.2
		C159.1,264.5,162.6,268.1,167,268.1z M167,257.2c1.6,0,2.9,1.3,2.9,2.9c0,1.6-1.3,2.9-2.9,2.9c-1.6,0-2.9-1.3-2.9-2.9
		C164.1,258.5,165.4,257.2,167,257.2C167,257.2,167,257.2,167,257.2z"/>
	<path class="st7" d="M201.3,205h-48.8v32.2h48.8V205z M196.6,232.1h-39.4v-22.5h39.4V232.1z"/>
	<rect x="187.3" y="213.4" class="st3" width="4.7" height="14.7"/>
	<rect x="179.5" y="213.4" class="st8" width="5" height="14.7"/>
	<path class="st9" d="M167,228.7c4.4-0.4,7.6-4.4,7.2-8.8c-0.4-3.8-3.4-6.8-7.2-7.2c-4.3-0.1-7.9,3.3-8,7.7c0,0.1,0,0.2,0,0.3
		C159.1,225.1,162.6,228.7,167,228.7z M167,217.8c1.6,0,2.9,1.3,2.9,2.9c0,1.6-1.3,2.9-2.9,2.9c-1.6,0-2.9-1.3-2.9-2.9
		c-0.1-1.6,1.1-2.9,2.6-3C166.8,217.7,166.9,217.7,167,217.8L167,217.8z"/>
	<path class="st7" d="M301.1,283.5h-48.8v32.4h48.8V283.5z M296.4,310.8h-39.5v-22.3h39.5L296.4,310.8z"/>
	<rect x="287.1" y="292.3" class="st3" width="4.7" height="14.7"/>
	<rect x="279.3" y="292.3" class="st8" width="5" height="14.7"/>
	<path class="st9" d="M266.8,307.4c4.4,0,8-3.6,8-8s-3.6-8-8-8s-8,3.6-8,8S262.4,307.4,266.8,307.4z M266.8,296.5
		c1.6,0,2.9,1.3,2.9,2.9c0,1.6-1.3,2.9-2.9,2.9c0,0,0,0,0,0c-1.6,0-2.9-1.3-2.9-2.9C263.9,297.8,265.2,296.5,266.8,296.5
		C266.8,296.5,266.8,296.5,266.8,296.5z"/>
	<path class="st7" d="M301.1,244.4h-48.8v32.2h48.8V244.4z M296.4,271.6h-39.5v-22.5h39.5L296.4,271.6z"/>
	<rect x="287.1" y="252.9" class="st3" width="4.7" height="14.7"/>
	<rect x="279.3" y="252.9" class="st8" width="5" height="14.7"/>
	<path class="st9" d="M266.8,268.1c4.4,0,8-3.5,8-7.9c0,0,0-0.1,0-0.1c0.1-4.3-3.3-7.9-7.7-8c-0.1,0-0.2,0-0.3,0c-4.4,0-8,3.5-8,7.9
		c0,0,0,0.1,0,0.1C258.8,264.5,262.4,268.1,266.8,268.1z M266.8,257.2c1.6,0,2.9,1.3,2.9,2.9s-1.3,2.9-2.9,2.9s-2.9-1.3-2.9-2.9
		C263.9,258.5,265.2,257.2,266.8,257.2C266.8,257.2,266.8,257.2,266.8,257.2z"/>
	<path class="st7" d="M301.1,205h-48.8v32.2h48.8V205z M296.4,232.1h-39.5v-22.5h39.5L296.4,232.1z"/>
	<rect x="287.1" y="213.4" class="st3" width="4.7" height="14.7"/>
	<rect x="279.3" y="213.4" class="st8" width="5" height="14.7"/>
	<path class="st9" d="M266.8,228.7c4.4,0,8-3.6,8-8s-3.6-8-8-8s-8,3.6-8,8S262.4,228.7,266.8,228.7z M266.8,217.8c1.6,0,3,1.3,3,2.9
		c0,1.6-1.3,3-2.9,3c-1.6,0-3-1.3-3-2.9c0,0,0,0,0,0c-0.1-1.6,1.1-2.9,2.6-3C266.7,217.7,266.8,217.7,266.8,217.8L266.8,217.8z"/>
	<path class="st7" d="M400.9,283.5h-48.8v32.4h48.8V283.5z M396.3,310.8h-39.5v-22.3h39.5L396.3,310.8z"/>
	<rect x="386.9" y="292.3" class="st3" width="4.7" height="14.7"/>
	<rect x="379.1" y="292.3" class="st8" width="5" height="14.7"/>
	<path class="st9" d="M366.7,307.4c4.4,0,8-3.6,8-8s-3.6-8-8-8s-8,3.6-8,8S362.3,307.4,366.7,307.4z M366.7,296.5
		c1.6,0,2.9,1.3,2.9,2.9c0,1.6-1.3,2.9-2.9,2.9c0,0,0,0,0,0c-1.6,0-2.9-1.3-2.9-2.9C363.7,297.8,365,296.5,366.7,296.5
		C366.7,296.5,366.7,296.5,366.7,296.5z"/>
	<path class="st7" d="M400.9,244.4h-48.8v32.2h48.8V244.4z M396.3,271.6h-39.5v-22.5h39.5L396.3,271.6z"/>
	<rect x="386.9" y="252.9" class="st3" width="4.7" height="14.7"/>
	<rect x="379.1" y="252.9" class="st8" width="5" height="14.7"/>
	<path class="st9" d="M366.7,268.1c4.4,0,8-3.5,8-7.9c0,0,0-0.1,0-0.1c0.1-4.3-3.3-7.9-7.7-8c-0.1,0-0.2,0-0.3,0c-4.4,0-8,3.5-8,7.9
		c0,0,0,0.1,0,0.1C358.7,264.5,362.3,268.1,366.7,268.1z M366.7,257.2c1.6,0,2.9,1.3,2.9,2.9s-1.3,2.9-2.9,2.9s-2.9-1.3-2.9-2.9
		C363.7,258.5,365,257.2,366.7,257.2C366.7,257.2,366.7,257.2,366.7,257.2z"/>
	<path class="st7" d="M400.9,205h-48.8v32.2h48.8V205z M396.3,232.1h-39.5v-22.5h39.5L396.3,232.1z"/>
	<rect x="386.9" y="213.4" class="st3" width="4.7" height="14.7"/>
	<rect x="379.1" y="213.4" class="st8" width="5" height="14.7"/>
	<path class="st9" d="M366.7,228.7c4.4,0,8-3.6,8-8s-3.6-8-8-8s-8,3.6-8,8S362.3,228.7,366.7,228.7z M366.7,217.8
		c1.6,0,2.9,1.3,2.9,2.9s-1.3,2.9-2.9,2.9s-2.9-1.3-2.9-2.9c-0.1-1.6,1.1-2.9,2.7-3C366.5,217.7,366.6,217.7,366.7,217.8
		L366.7,217.8z"/>
</g>
<g id="XMLID_7_">
	<polygon id="XMLID_8_" class="st7" points="577.7,131.6 564.5,108.9 551.4,131.6 	"/>
</g>
<g id="XMLID_9_">
	<polygon id="XMLID_10_" class="st7" points="448,17 470.7,3.8 448,-9.3 	"/>
</g>
<path class="st10" d="M586.3,55.8l-4.4-4.4c-0.6-0.6-1.3-0.9-2.1-0.9l0,0c-0.8,0-1.6,0.3-2.1,0.9l-25.3,25.3l-11.5-11.6
	c-0.6-0.6-1.3-0.9-2.1-0.9l0,0c-0.8,0-1.6,0.3-2.1,0.9l-4.4,4.4c-1.2,1.2-1.2,3.1,0,4.3c0,0,0,0,0,0l18.1,18.1
	c1.2,1.2,3.1,1.2,4.3,0c0,0,0,0,0,0L586,60.5l0.4-0.4C587.5,58.9,587.5,57,586.3,55.8z"/>
</svg>
