<?xml version="1.0" encoding="utf-8"?>
<!-- Generator: Adobe Illustrator 19.1.1, SVG Export Plug-In . SVG Version: 6.00 Build 0)  -->
<svg version="1.1" id="Layer_1" xmlns="http://www.w3.org/2000/svg" xmlns:xlink="http://www.w3.org/1999/xlink" x="0px" y="0px"
	 viewBox="132 -53.8 548 390.3" style="enable-background:new 132 -53.8 548 390.3;" xml:space="preserve">
<style type="text/css">
	.st0{fill:none;stroke:#ADDBAD;stroke-width:8;stroke-miterlimit:10;}
	.st1{fill:#ADDBAD;stroke:#FFFFFF;stroke-width:2;stroke-miterlimit:10;}
	.st2{fill:none;stroke:#D0D8DC;stroke-width:4;stroke-miterlimit:10;}
	.st3{fill:#90A4AE;}
	.st4{fill:#E4F2FB;}
	.st5{fill:#B0BEC5;}
	.st6{fill:#95C8EC;}
	.st7{fill:#70B2E2;}
	.st8{fill:#81C784;}
	.st9{fill:#FFFFFF;}
	.st10{fill:#57A7DB;}
	.st11{fill:#71BE71;stroke:#FFFFFF;stroke-width:2.03;stroke-miterlimit:10;}
	.st12{fill:#388CB2;}
	.st13{fill:#4F9BC6;}
	.st14{fill:#62B1DD;}
	.st15{fill:#1C9A46;}
	.st16{fill:#F4AE7A;}
	.st17{fill:#57A0D7;}
	.st18{fill:#3D82C4;}
	.st19{opacity:0.71;}
	.st20{opacity:0.71;fill:#BDDDF4;enable-background:new    ;}
	.st21{opacity:0.3;fill:#F1F2F2;enable-background:new    ;}
	.st22{fill:#FBE4D4;}
	.st23{fill:#E8E8E8;}
	.st24{fill:#58A6DA;}
	.st25{fill:#CBEAFB;}
	.st26{fill:none;stroke:#95C8EC;stroke-width:10;stroke-miterlimit:10;}
</style>
<polyline class="st0" points="151,326.8 285.8,222.8 371.4,289.6 639.7,141.3 "/>
<circle class="st1" cx="285.8" cy="222.8" r="11"/>
<path class="st2" d="M254.1,208.9v39.8c0,9.4,7.6,17,17,17h292"/>
<g>
	<path class="st3" d="M351.2,60.7h-59.7c-4.3,0-7.7,3.5-7.8,7.8v113.6c0,4.3,3.5,7.7,7.8,7.8h59.7c4.3,0,7.7-3.5,7.8-7.8V68.5
		C359,64.3,355.6,60.8,351.2,60.7C351.2,60.7,351.2,60.7,351.2,60.7z"/>
	<path class="st3" d="M435.9,60.7h-59.7c-4.3,0-7.7,3.5-7.8,7.8v113.6c0,4.3,3.5,7.7,7.8,7.8h59.7c4.3,0,7.7-3.5,7.8-7.8V68.5
		C443.7,64.3,440.3,60.8,435.9,60.7C435.9,60.7,435.9,60.7,435.9,60.7z"/>
	<path class="st3" d="M520.5,60.7h-59.7c-4.3,0-7.7,3.5-7.8,7.8v113.6c0,4.3,3.5,7.7,7.8,7.8h59.7c4.3,0,7.7-3.5,7.8-7.8V68.5
		C528.3,64.3,524.9,60.8,520.5,60.7C520.6,60.7,520.6,60.7,520.5,60.7z"/>
	<rect x="296.3" y="73.3" class="st4" width="49.9" height="104.2"/>
	<rect x="381" y="73.3" class="st4" width="49.9" height="104.2"/>
	<rect x="465.6" y="73.3" class="st4" width="49.9" height="104.2"/>
	<path class="st5" d="M342,145h-41.4v27.4H342V145z M338,168.2h-33.5v-18.9H338V168.2z"/>
	<rect x="330.1" y="152.5" class="st6" width="4" height="12.5"/>
	<rect x="323.5" y="152.5" class="st7" width="4.2" height="12.5"/>
	<path class="st8" d="M312.9,165.2c3.7-0.3,6.4-3.7,6.1-7.5c-0.3-3.2-2.9-5.8-6.1-6.1c-3.6-0.1-6.7,2.8-6.8,6.5c0,0.1,0,0.2,0,0.3
		C306.2,162.2,309.1,165.2,312.9,165.2z M312.9,156c1.4,0,2.5,1.1,2.5,2.5c0,1.4-1.1,2.5-2.5,2.5l0,0c-1.4,0-2.5-1.1-2.5-2.5
		C310.4,157.1,311.5,156,312.9,156L312.9,156z"/>
	<path class="st5" d="M342,111.8h-41.4v27.3H342V111.8z M338,134.8h-33.5v-19.1H338V134.8z"/>
	<rect x="330.1" y="119" class="st6" width="4" height="12.5"/>
	<rect x="323.5" y="119" class="st7" width="4.2" height="12.5"/>
	<path class="st8" d="M312.9,131.9c3.7,0,6.8-3,6.8-6.7v-0.1c-0.3-3.7-3.7-6.4-7.5-6.1c-3.2,0.3-5.8,2.9-6.1,6.1
		C306.2,128.8,309.1,131.9,312.9,131.9z M312.9,122.7c1.4,0,2.5,1.1,2.5,2.5c0,1.4-1.1,2.5-2.5,2.5c-1.4,0-2.5-1.1-2.5-2.5
		C310.4,123.8,311.5,122.7,312.9,122.7L312.9,122.7z"/>
	<path class="st5" d="M342,78.3h-41.4v27.3H342V78.3z M338,101.4h-33.5V82.3H338V101.4z"/>
	<rect x="330.1" y="85.6" class="st6" width="4" height="12.5"/>
	<rect x="323.5" y="85.6" class="st7" width="4.2" height="12.5"/>
	<path class="st8" d="M312.9,98.4c3.7-0.3,6.4-3.7,6.1-7.5c-0.3-3.2-2.9-5.8-6.1-6.1c-3.6-0.1-6.7,2.8-6.8,6.5c0,0.1,0,0.2,0,0.3
		C306.2,95.5,309.1,98.4,312.9,98.4z M312.9,89.2c1.4,0,2.5,1.1,2.5,2.5s-1.1,2.5-2.5,2.5c-1.4,0-2.5-1.1-2.5-2.5
		c-0.1-1.4,0.9-2.5,2.2-2.5C312.7,89.2,312.8,89.2,312.9,89.2L312.9,89.2z"/>
	<path class="st5" d="M426.6,145h-41.4v27.4h41.4V145z M422.6,168.2h-33.5v-18.9h33.5V168.2z"/>
	<rect x="414.7" y="152.5" class="st6" width="4" height="12.5"/>
	<rect x="408.1" y="152.5" class="st7" width="4.2" height="12.5"/>
	<path class="st8" d="M397.5,165.2c3.7,0,6.8-3.1,6.8-6.8c0-3.7-3.1-6.8-6.8-6.8s-6.8,3.1-6.8,6.8
		C390.7,162.1,393.8,165.2,397.5,165.2z M397.5,156c1.4,0,2.5,1.1,2.5,2.5c0,1.4-1.1,2.5-2.5,2.5l0,0c-1.4,0-2.5-1.1-2.5-2.5
		C395.1,157.1,396.2,156,397.5,156L397.5,156z"/>
	<path class="st5" d="M426.6,111.8h-41.4v27.3h41.4V111.8z M422.6,134.8h-33.5v-19.1h33.5V134.8z"/>
	<rect x="414.7" y="119" class="st6" width="4" height="12.5"/>
	<rect x="408.1" y="119" class="st7" width="4.2" height="12.5"/>
	<path class="st8" d="M397.5,131.9c3.7,0,6.8-3,6.8-6.7v-0.1c0.1-3.6-2.8-6.7-6.5-6.8c-0.1,0-0.2,0-0.3,0c-3.7,0-6.8,3-6.8,6.7v0.1
		C390.7,128.9,393.8,131.9,397.5,131.9z M397.5,122.7c1.4,0,2.5,1.1,2.5,2.5c0,1.4-1.1,2.5-2.5,2.5c-1.4,0-2.5-1.1-2.5-2.5
		C395.1,123.8,396.2,122.7,397.5,122.7L397.5,122.7z"/>
	<path class="st5" d="M426.6,78.3h-41.4v27.3h41.4V78.3z M422.6,101.4h-33.5V82.3h33.5V101.4z"/>
	<rect x="414.7" y="85.6" class="st6" width="4" height="12.5"/>
	<rect x="408.1" y="85.6" class="st7" width="4.2" height="12.5"/>
	<path class="st8" d="M397.5,98.4c3.7,0,6.8-3.1,6.8-6.8s-3.1-6.8-6.8-6.8s-6.8,3.1-6.8,6.8S393.8,98.4,397.5,98.4z M397.5,89.2
		c1.4,0,2.5,1.1,2.5,2.5s-1.1,2.5-2.5,2.5c-1.4,0-2.5-1.1-2.5-2.5l0,0c-0.1-1.4,0.9-2.5,2.2-2.5C397.4,89.2,397.5,89.2,397.5,89.2
		L397.5,89.2z"/>
	<path class="st5" d="M511.3,145h-41.4v27.4h41.4V145z M507.4,168.2h-33.5v-18.9h33.5V168.2z"/>
	<rect x="499.4" y="152.5" class="st6" width="4" height="12.5"/>
	<rect x="492.8" y="152.5" class="st7" width="4.2" height="12.5"/>
	<path class="st8" d="M482.2,165.2c3.7,0,6.8-3.1,6.8-6.8c0-3.7-3.1-6.8-6.8-6.8s-6.8,3.1-6.8,6.8
		C475.5,162.1,478.5,165.2,482.2,165.2z M482.2,156c1.4,0,2.5,1.1,2.5,2.5c0,1.4-1.1,2.5-2.5,2.5l0,0c-1.4,0-2.5-1.1-2.5-2.5
		C479.7,157.1,480.8,156,482.2,156L482.2,156z"/>
	<path class="st5" d="M511.3,111.8h-41.4v27.3h41.4V111.8z M507.4,134.8h-33.5v-19.1h33.5V134.8z"/>
	<rect x="499.4" y="119" class="st6" width="4" height="12.5"/>
	<rect x="492.8" y="119" class="st7" width="4.2" height="12.5"/>
	<path class="st8" d="M482.2,131.9c3.7,0,6.8-3,6.8-6.7v-0.1c0.1-3.6-2.8-6.7-6.5-6.8c-0.1,0-0.2,0-0.3,0c-3.7,0-6.8,3-6.8,6.7v0.1
		C475.5,128.9,478.5,131.9,482.2,131.9z M482.2,122.7c1.4,0,2.5,1.1,2.5,2.5c0,1.4-1.1,2.5-2.5,2.5c-1.4,0-2.5-1.1-2.5-2.5
		C479.7,123.8,480.8,122.7,482.2,122.7L482.2,122.7z"/>
	<path class="st5" d="M511.3,78.3h-41.4v27.3h41.4V78.3z M507.4,101.4h-33.5V82.3h33.5V101.4z"/>
	<rect x="499.4" y="85.6" class="st6" width="4" height="12.5"/>
	<rect x="492.8" y="85.6" class="st7" width="4.2" height="12.5"/>
	<path class="st8" d="M482.2,98.4c3.7,0,6.8-3.1,6.8-6.8s-3.1-6.8-6.8-6.8s-6.8,3.1-6.8,6.8S478.5,98.4,482.2,98.4z M482.2,89.2
		c1.4,0,2.5,1.1,2.5,2.5s-1.1,2.5-2.5,2.5c-1.4,0-2.5-1.1-2.5-2.5c-0.1-1.4,0.9-2.5,2.3-2.5C482.1,89.2,482.2,89.2,482.2,89.2
		L482.2,89.2z"/>
</g>
<title>Disrupted-on-premises and cloud environments</title>
<g>
	<circle class="st9" cx="614.8" cy="10.8" r="62.9"/>
	<path class="st10" d="M614.9-53.8c-35.9,0-65.1,29.1-65.1,65.1s29.1,65.1,65.1,65.1c35.9,0,65.1-29.1,65.1-65.1c0,0,0,0,0,0
		C680-24.7,650.9-53.8,614.9-53.8z M654.1,49.8c-0.1,0.1-0.2,0.2-0.2,0.3c-0.1,0.1-0.2,0.2-0.3,0.2c-21.5,21.3-56.1,21.3-77.6,0
		c-0.2,0-0.2-0.2-0.3-0.2c-0.1-0.1-0.2-0.2-0.2-0.3c-21.3-21.5-21.3-56.1,0-77.6c0-0.2,0.2-0.2,0.2-0.3c0.1-0.1,0.2-0.2,0.3-0.2
		c21.5-21.3,56.1-21.3,77.6,0c0.2,0,0.2,0.2,0.3,0.2c0.2,0,0.2,0.2,0.2,0.3C675.4-6.3,675.4,28.4,654.1,49.8z"/>
	<path class="st6" d="M654.4,7.8h8.9c-0.7-10.5-4.9-20.5-11.8-28.5l-6.4,6.4c-1.3,1.3-3.4,1.4-4.7,0.1c0,0-0.1-0.1-0.1-0.1
		c-1.3-1.2-1.4-3.1-0.2-4.4c0.1-0.1,0.1-0.2,0.2-0.2l6.4-6.4c-8-6.9-18-11.1-28.5-11.8v8.9c0,1.8-1.4,3.3-3.2,3.3c0,0,0,0,0,0
		c-1.8-0.1-3.2-1.5-3.3-3.3v-8.9c-10.5,0.7-20.5,4.9-28.5,11.8l6.4,6.4c1.3,1.2,1.4,3.1,0.2,4.4c-0.1,0.1-0.1,0.2-0.2,0.2
		c-1.3,1.3-3.4,1.4-4.7,0.1c0,0-0.1-0.1-0.1-0.1l-6.4-6.4c-6.9,8-11.1,18-11.8,28.5h8.9c1.8,0.1,3.2,1.6,3.1,3.4
		c-0.1,1.7-1.4,3-3.1,3.1h-9c0.7,10.5,4.9,20.5,11.8,28.5l6.4-6.4c1.3-1.2,3.4-1.1,4.6,0.2c1.1,1.2,1.1,3.1,0,4.4l-6.3,6.3
		c1.5,1.3,3.1,2.6,4.8,3.6c5.8-15,22.7-22.4,37.7-16.6c7.6,3,13.6,9,16.6,16.6c1.7-1.2,3.3-2.4,4.8-3.6l-6.4-6.4
		c-1.3-1.2-1.5-3.3-0.2-4.6c1.2-1.3,3.3-1.5,4.6-0.2c0.1,0.1,0.2,0.2,0.2,0.2l6.4,6.4c6.9-8,11.1-18,11.8-28.5h-8.9
		c-1.8,0-3.3-1.4-3.3-3.2c0,0,0,0,0,0C651.2,9.3,652.7,7.8,654.4,7.8z"/>
	<path class="st11" d="M617.5,16.5c-4.5,1.6-9.4-0.7-11-5.2c-1.6-4.5,0.7-9.4,5.2-11l0,0c2.6-0.9,5.4-0.6,7.7,0.8l26.8-4.5
		l-23.4,13.9C622.1,13.4,620.1,15.6,617.5,16.5z"/>
</g>
<g>
	<g>
		<g>
			<rect x="308.1" y="175.3" class="st12" width="144.1" height="5.5"/>
			<rect x="308.1" y="180.4" class="st4" width="144.1" height="156"/>
			<rect x="308.1" y="331.5" class="st12" width="22.3" height="4.9"/>
			<rect x="330.4" y="331.5" class="st12" width="121.8" height="4.9"/>
		</g>
		<rect x="452.2" y="180.4" class="st6" width="51.7" height="156"/>
		<rect x="452.2" y="331.5" class="st12" width="51.7" height="4.9"/>
		<g>
			<g>
				<rect x="330.4" y="142.7" class="st13" width="42.8" height="193.7"/>
				<rect x="330.4" y="142.7" class="st14" width="11.4" height="193.7"/>
				<rect x="351.8" y="142.7" class="st14" width="5.7" height="193.7"/>
				<rect x="330.4" y="137.9" class="st12" width="42.8" height="4.7"/>
				<g>
					<g>
						<rect x="330.4" y="169.6" class="st3" width="42.8" height="2.6"/>
						<rect x="330.4" y="215.4" class="st3" width="42.8" height="2.6"/>
						<rect x="330.4" y="261.1" class="st3" width="42.8" height="2.6"/>
						<rect x="330.4" y="306.9" class="st3" width="42.8" height="2.6"/>
					</g>
				</g>
			</g>
			<g>
				<rect x="373.2" y="137.9" class="st14" width="20.7" height="198.5"/>
				<rect x="373.2" y="137.9" class="st12" width="20.7" height="4.7"/>
				<rect x="373.2" y="169.6" class="st3" width="20.7" height="2.6"/>
				<rect x="373.2" y="215.4" class="st3" width="20.7" height="2.6"/>
				<rect x="373.2" y="261.1" class="st3" width="20.7" height="2.6"/>
				<rect x="373.2" y="306.9" class="st3" width="20.7" height="2.6"/>
			</g>
		</g>
		<rect x="452.2" y="175.3" class="st12" width="51.7" height="5.1"/>
		<g>
			<rect x="401.2" y="305" class="st14" width="43.8" height="26.5"/>
			<rect x="401.2" y="309.8" class="st3" width="43.8" height="1.3"/>
			<rect x="414.2" y="305" class="st3" width="1.3" height="26.5"/>
			<rect x="430.8" y="305" class="st3" width="1.3" height="26.5"/>
		</g>
		<g>
			<g>
				<rect x="401.2" y="189.7" class="st6" width="18.1" height="4.2"/>
				<rect x="401.2" y="200.7" class="st6" width="18.1" height="4.2"/>
				<rect x="401.2" y="211.7" class="st6" width="18.1" height="4.2"/>
				<rect x="401.2" y="222.8" class="st6" width="18.1" height="4.2"/>
				<rect x="401.2" y="233.8" class="st6" width="18.1" height="4.2"/>
				<rect x="401.2" y="244.8" class="st6" width="18.1" height="4.2"/>
				<rect x="401.2" y="255.9" class="st6" width="18.1" height="4.2"/>
				<rect x="401.2" y="266.9" class="st6" width="18.1" height="4.2"/>
				<rect x="401.2" y="278" class="st6" width="18.1" height="4.2"/>
				<rect x="401.2" y="289" class="st6" width="18.1" height="4.2"/>
			</g>
			<g>
				<rect x="426.9" y="189.7" class="st6" width="18.1" height="4.2"/>
				<rect x="426.9" y="200.7" class="st6" width="18.1" height="4.2"/>
				<rect x="426.9" y="211.7" class="st6" width="18.1" height="4.2"/>
				<rect x="426.9" y="222.8" class="st6" width="18.1" height="4.2"/>
				<rect x="426.9" y="233.8" class="st6" width="18.1" height="4.2"/>
				<rect x="426.9" y="244.8" class="st6" width="18.1" height="4.2"/>
				<rect x="426.9" y="255.9" class="st6" width="18.1" height="4.2"/>
				<rect x="426.9" y="266.9" class="st6" width="18.1" height="4.2"/>
				<rect x="426.9" y="278" class="st6" width="18.1" height="4.2"/>
				<rect x="426.9" y="289" class="st6" width="18.1" height="4.2"/>
			</g>
		</g>
		<g>
			<g>
				<g>
					<g>
						<rect x="310.2" y="189.7" class="st6" width="18.1" height="4.2"/>
					</g>
					<g>
						<rect x="310.2" y="200.7" class="st6" width="18.1" height="4.2"/>
					</g>
					<g>
						<rect x="310.2" y="211.7" class="st6" width="18.1" height="4.2"/>
					</g>
					<g>
						<rect x="310.2" y="222.8" class="st6" width="18.1" height="4.2"/>
					</g>
					<g>
						<rect x="310.2" y="233.8" class="st6" width="18.1" height="4.2"/>
					</g>
					<g>
						<rect x="310.2" y="244.8" class="st6" width="18.1" height="4.2"/>
					</g>
					<g>
						<rect x="310.2" y="255.9" class="st6" width="18.1" height="4.2"/>
					</g>
					<g>
						<rect x="310.2" y="266.9" class="st6" width="18.1" height="4.2"/>
					</g>
					<g>
						<rect x="310.2" y="278" class="st6" width="18.1" height="4.2"/>
					</g>
					<g>
						<rect x="310.2" y="289" class="st6" width="18.1" height="4.2"/>
					</g>
				</g>
			</g>
		</g>
		<g>
			<rect x="310.2" y="305" class="st13" width="18.1" height="26.5"/>
			<rect x="310.2" y="305" class="st14" width="4.3" height="26.5"/>
		</g>
		<g>
			<g>
				<rect x="460.2" y="187.6" class="st13" width="7.8" height="136.4"/>
				<g>
					<rect x="460.2" y="198" class="st3" width="7.8" height="2.9"/>
					<rect x="460.2" y="226.3" class="st3" width="7.8" height="2.9"/>
					<rect x="460.2" y="254.5" class="st3" width="7.8" height="2.9"/>
					<rect x="460.2" y="282.8" class="st3" width="7.8" height="2.9"/>
					<rect x="460.2" y="311.1" class="st3" width="7.8" height="2.9"/>
				</g>
			</g>
			<g>
				<rect x="474.3" y="187.6" class="st13" width="7.8" height="136.4"/>
				<g>
					<rect x="474.3" y="198" class="st3" width="7.8" height="2.9"/>
					<rect x="474.3" y="226.3" class="st3" width="7.8" height="2.9"/>
					<rect x="474.3" y="254.5" class="st3" width="7.8" height="2.9"/>
					<rect x="474.3" y="282.8" class="st3" width="7.8" height="2.9"/>
					<rect x="474.3" y="311.1" class="st3" width="7.8" height="2.9"/>
				</g>
			</g>
			<g>
				<g>
					<rect x="488.2" y="187.6" class="st13" width="7.8" height="136.4"/>
					<g>
						<rect x="488.2" y="198" class="st3" width="7.8" height="2.9"/>
						<rect x="488.2" y="226.3" class="st3" width="7.8" height="2.9"/>
						<rect x="488.2" y="254.5" class="st3" width="7.8" height="2.9"/>
						<rect x="488.2" y="282.8" class="st3" width="7.8" height="2.9"/>
						<rect x="488.2" y="311.1" class="st3" width="7.8" height="2.9"/>
					</g>
				</g>
			</g>
		</g>
	</g>
	<g>
		<g>
			<g>
				<g>
					<path class="st15" d="M314,336.5h4.9"/>
				</g>
			</g>
		</g>
	</g>
</g>
<g id="XMLID_1_">
	<polygon id="XMLID_2_" class="st5" points="545.7,278 568.4,264.8 545.7,251.7 	"/>
</g>
<path class="st2" d="M614.9,76.3v43.8c0,8.4-6.8,15.1-15.1,15.1h-63.5"/>
<g id="XMLID_3_">
	<polygon id="XMLID_4_" class="st5" points="551,121.7 528.3,134.9 551,148 	"/>
</g>
<g>
	<circle class="st16" cx="256.4" cy="155.5" r="33.4"/>
	<g id="_Group__2_">
		<path id="_Path_2-2_1_" class="st17" d="M174.6,29.8L174.6,29.8c-6.4,4.1-8.3,12.6-4.1,19c0,0,0,0,0,0.1l32.4,50.2
			c4.1,6.4,12.6,8.3,19,4.2l0.1-0.1l0,0c6.4-4.1,8.3-12.6,4.2-19l-0.1-0.1l-32.4-50.2c-4-6.4-12.3-8.3-18.7-4.4
			C174.9,29.6,174.8,29.7,174.6,29.8z"/>
		<path id="_Path_3-2_1_" class="st6" d="M173.6,35.6c-2.4,1.6-3.1,4.8-1.5,7.2c0,0,0,0,0,0.1l32.4,50.2c1.5,2.4,4.8,3.1,7.2,1.6
			l0.1-0.1c2.4-1.5,3.2-4.6,1.7-7c-0.1-0.1-0.1-0.2-0.2-0.3l-32.4-50.2C179.6,34.7,176.2,34.1,173.6,35.6z"/>
		<g id="_Group_2_1_">
			<path id="_Path_4-2_1_" class="st18" d="M217.6,96.7c-3.2,2.1-4.1,6.4-2,9.6l0,0l6.8,10.2c2.1,3.2,6.4,4.1,9.6,2l0,0
				c3.2-2.1,4.1-6.4,2-9.6l-6.8-10.2C225.1,95.5,220.9,94.6,217.6,96.7z"/>
		</g>
		<path class="st10" d="M308.8,166.9c-6.3,29.1-35,47.6-64.1,41.3h-0.1c-29.1-6.4-47.6-35-41.5-64.2c3-14.1,11.5-26.4,23.7-34.1l0,0
			c12-7.8,26.6-10.4,40.6-7.3c14,3,26.3,11.5,34,23.6C309.1,138.3,311.7,152.9,308.8,166.9z M289.7,133.9
			c-11.9-18.6-36.7-24.1-55.3-12.2c-0.1,0-0.1,0.1-0.2,0.1l0,0c-9,5.7-15.4,14.8-17.6,25.3c-4.6,21.7,9.2,43.2,30.7,47.8
			c10.4,2.2,21.3,0.3,30.2-5.5C296.2,177.4,301.7,152.6,289.7,133.9L289.7,133.9z"/>
		<g id="_Group_3_1_" class="st19">
			<path id="_Path_5-2_1_" class="st20" d="M277.5,189.4c-18.6,12-43.5,6.7-55.5-12c-5.8-9-7.8-19.9-5.5-30.3
				c2.2-10.5,8.6-19.6,17.6-25.3l0,0c18.6-12,43.4-6.7,55.4,11.9c0,0.1,0.1,0.1,0.1,0.2c12,18.6,6.7,43.4-11.9,55.4
				C277.7,189.3,277.6,189.4,277.5,189.4z"/>
		</g>
		<path id="_Path_6_2_" class="st21" d="M289.6,133.9c5.8,8.9,7.8,19.8,5.5,30.2c-0.6,2.9-1.6,5.8-2.9,8.5
			c-2.9,3.9-6.5,7.2-10.6,9.9c-18.6,12-43.4,6.6-55.4-12c-5.8-9-7.8-19.9-5.5-30.3c0.6-2.9,1.6-5.8,2.9-8.5
			c2.9-3.9,6.5-7.2,10.6-9.9l0,0c18.5-12,43.2-6.7,55.2,11.8C289.5,133.7,289.6,133.8,289.6,133.9L289.6,133.9z"/>
	</g>
	<g id="_Group_4_1_">
		<g id="_Group_5_1_">
			<g id="_Group_6_1_">
				<g id="_Group_7_1_">
					<path id="_Path_7_2_" class="st22" d="M146.8,57.4c4.4,9.4,9.9,9.4,9.9,9.4c4.6,15.5,12.3,16.4,12.3,16.4
						c3.5,13.7,11.4,11.3,11.4,11.3c1.2,17.9,9.9,21.3,15.5,18.1c2.1-1.1,3.7-3,4.4-5.3c3.1-9.1,4.9-42.2,8-42.2
						s13.1,10.8,13.1,10.8s12.3-31.4,8.7-39.9S198.9-9.7,198.9-9.7c-1-0.1-2.1-0.2-3.1-0.2c-9.5-0.8-38.9-3.1-41.8-1.7
						c-3.5,1.7-10.7,34.8-11.4,41.3C141.7,36,142.2,48.1,146.8,57.4z"/>
					<g id="_Group_8_1_">
						<polygon id="_Path_8_1_" class="st6" points="192.9,-15.2 210.8,-15.2 210.8,-52.7 192.9,-52.7 132,-52.7 132,-15.2 						"/>
						<polygon id="_Path_9_1_" class="st23" points="190.7,-8.1 205,-8.1 205,-15.2 190.7,-15.2 142.2,-15.2 142.2,-8.1 						"/>
					</g>
				</g>
			</g>
		</g>
		<polygon id="_Path_10_1_" class="st24" points="201.8,-15.2 210.8,-15.2 210.8,-52.7 201.8,-52.7 171.4,-52.7 171.4,-15.2 		"/>
	</g>
	<g>
		<path class="st9" d="M252.7,175.5c0-2.3,1.6-4,3.8-4c2.3,0,3.8,1.7,3.8,4s-1.5,4-3.8,4C254.3,179.6,252.7,177.8,252.7,175.5z
			 M254.3,166.2l-0.9-31.3h6.3l-0.9,31.3H254.3z"/>
	</g>
</g>
<g>
	<g>
		<path class="st18" d="M629.9,196.1h-56.3c-3.4,0-6.1,2.7-6.1,6.1v128.3c0,3.4,2.7,6.1,6.1,6.1h100.5c3.4,0,6.1-2.7,6.1-6.1V202.1
			c0-3.4-2.7-6.1-6.1-6.1L629.9,196.1z"/>
		<path class="st9" d="M666.1,204.7h-84.4c-2.8,0-5.1,2.3-5.1,5.1v112.7c0,2.8,2.3,5.1,5.1,5.1h84.4c2.8,0,5.1-2.3,5.1-5.1V209.8
			C671.2,207,668.9,204.8,666.1,204.7z"/>
		<path class="st6" d="M634.6,189.8c0-5.9-4.8-10.7-10.6-10.7c-5.9,0-10.6,4.8-10.6,10.7h-23.4v21.3H658v-21.3H634.6z"/>
		<path class="st5" d="M610.3,281h-20c-2.4,0-4.3-1.9-4.3-4.3v-20c0-2.4,1.9-4.3,4.3-4.3h20c2.4,0,4.3,1.9,4.3,4.3v20
			C614.6,279,612.7,281,610.3,281L610.3,281z M590.3,254.9c-0.9,0-1.7,0.7-1.7,1.7v20c0,0.9,0.7,1.7,1.7,1.7h20
			c0.9,0,1.7-0.7,1.7-1.7v-20c0-0.9-0.7-1.7-1.7-1.7H590.3z"/>
		<path class="st5" d="M610.3,314.4h-20c-2.4,0-4.3-1.9-4.3-4.3v-20.1c0-2.4,1.9-4.3,4.3-4.3h20c2.4,0,4.3,1.9,4.3,4.3v20
			C614.6,312.4,612.7,314.4,610.3,314.4z M590.3,288.3c-0.9,0-1.7,0.7-1.7,1.7v20.1c0,0.9,0.7,1.7,1.7,1.7h20c0.9,0,1.7-0.7,1.7-1.7
			v-20.2c0-0.9-0.7-1.7-1.7-1.7L590.3,288.3z"/>
		<rect x="589.8" y="204.7" class="st7" width="68.1" height="6.3"/>
		<rect x="621" y="221.2" class="st5" width="16.5" height="3.1"/>
		<rect x="621" y="229.1" class="st5" width="43.1" height="3.1"/>
		<rect x="621" y="236.8" class="st5" width="43.1" height="3.1"/>
		<rect x="621" y="244.4" class="st5" width="43.1" height="3.1"/>
		<rect x="621" y="262.5" class="st5" width="43.1" height="3.1"/>
		<rect x="621" y="270.2" class="st5" width="43.1" height="3.1"/>
		<rect x="621" y="277.9" class="st5" width="43.1" height="3.1"/>
		<rect x="621" y="295.9" class="st5" width="43.1" height="3.1"/>
		<rect x="621" y="303.5" class="st5" width="43.1" height="3.1"/>
		<rect x="621" y="311.2" class="st5" width="43.1" height="3.1"/>
		<rect x="621" y="254.6" class="st5" width="16.5" height="3.1"/>
		<rect x="621" y="288" class="st5" width="16.5" height="3.1"/>
		<path class="st8" d="M598.9,274.5l-8.1-7.7l3-3.2l4.9,4.7l8.1-8.4l3.2,3L598.9,274.5z"/>
		<path class="st5" d="M610.3,247.6h-20c-2.4,0-4.3-1.9-4.3-4.3v-20c0-2.4,1.9-4.3,4.3-4.3h20c2.4,0,4.3,1.9,4.3,4.3v20
			C614.6,245.6,612.7,247.6,610.3,247.6z M590.3,221.5c-0.9,0-1.7,0.7-1.7,1.7v20c0,0.9,0.7,1.7,1.7,1.7h20c0.9,0,1.7-0.7,1.7-1.7
			v-20c0-0.9-0.7-1.7-1.7-1.7H590.3z"/>
	</g>
	<path class="st8" d="M598.8,241l-8.1-7.7l3-3.2l4.9,4.7l8.1-8.4l3.2,3L598.8,241z"/>
	<path class="st8" d="M598.8,307.6l-8.1-7.7l3-3.2l4.9,4.7l8.1-8.4l3.2,3L598.8,307.6z"/>
</g>
<path id="_Path_7" class="st25" d="M460.3,5.2c0.6-2.3,0.9-4.6,0.9-7c0-15.5-12.5-28-28-28.1c-4.9-17.4-23-27.6-40.4-22.7
	C380-49,370.7-38,369.1-24.9h-1.6c-18,0-32.5,14.6-32.5,32.5c0,18,14.6,32.5,32.5,32.5l0,0h92c9.7,0,17.6-7.9,17.5-17.6
	C477,13.3,469.7,5.6,460.3,5.2L460.3,5.2z"/>
<line class="st26" x1="404.3" y1="60.7" x2="404.3" y2="6.9"/>
<g id="XMLID_5_">
	<polygon id="XMLID_6_" class="st6" points="425.5,14.1 404.3,-8.6 383.2,14.1 	"/>
</g>
<circle class="st1" cx="156.9" cy="320.4" r="15.1"/>
<circle class="st1" cx="654.1" cy="136.1" r="25.9"/>
<path class="st9" d="M650.5,149.3l-13.5-12.9l5.1-5.3l8.2,7.9l13.5-14l5.3,5.1L650.5,149.3z"/>
</svg>
