<?xml version="1.0" encoding="utf-8"?>
<!-- Generator: Adobe Illustrator 19.1.1, SVG Export Plug-In . SVG Version: 6.00 Build 0)  -->
<svg version="1.1" id="Layer_1" xmlns="http://www.w3.org/2000/svg" xmlns:xlink="http://www.w3.org/1999/xlink" x="0px" y="0px"
	 viewBox="0 0 1928 576.2" style="enable-background:new 0 0 1928 576.2;" xml:space="preserve">
<style type="text/css">
	.st0{fill:#4B6C7E;}
	.st1{fill:#4B6C7E;stroke:#FFFFFF;stroke-width:5;stroke-miterlimit:10;}
	.st2{fill:#FFFFFF;}
	.st3{fill:none;stroke:#FFFFFF;stroke-width:5;stroke-miterlimit:10;}
	.st4{fill:#F2A24C;}
	.st5{fill:#F2A24C;stroke:#FFFFFF;stroke-width:5;stroke-miterlimit:10;}
	.st6{fill:#FFFFFF;stroke:#FFFFFF;stroke-width:3;stroke-miterlimit:10;}
	.st7{fill:#FFFFFF;stroke:#FFFFFF;stroke-width:2;stroke-miterlimit:10;}
	.st8{fill:#FFFFFF;stroke:#FFFFFF;stroke-width:4;stroke-miterlimit:10;}
	.st9{fill:none;stroke:#FFFFFF;stroke-width:6;stroke-miterlimit:10;}
	.st10{fill:#71BE71;}
	.st11{fill:#71BE71;stroke:#FFFFFF;stroke-width:5;stroke-miterlimit:10;}
	.st12{fill:#48A4D8;}
	.st13{fill:#48A4D8;stroke:#FFFFFF;stroke-width:5;stroke-miterlimit:10;}
	.st14{fill:none;stroke:#FFFFFF;stroke-width:6;stroke-linecap:round;stroke-miterlimit:10;}
	.st15{fill:#465966;}
</style>
<g>
	<g>
		<rect x="982.4" y="298" class="st0" width="278.5" height="278.3"/>
		<rect x="995" y="310.6" class="st1" width="253.1" height="252.8"/>
		<g>
			<g>
				<path class="st2" d="M1119.5,385.6c-27.8,0-50.5,22.6-50.5,50.5s22.6,50.5,50.5,50.5s50.5-22.6,50.5-50.5
					S1147.3,385.6,1119.5,385.6z M1119.5,482.3c-25.5,0-46.2-20.7-46.2-46.2c0-25.5,20.7-46.2,46.2-46.2s46.2,20.7,46.2,46.2
					C1165.7,461.6,1144.9,482.3,1119.5,482.3z"/>
				<path class="st2" d="M1193.4,417.8h-6.2c-1.6-5.8-3.9-11.4-6.9-16.7l4.4-4.4c1.6-1.6,2.5-3.7,2.5-6c0-2.3-0.9-4.4-2.5-6
					l-13.9-13.9c-3.2-3.2-8.8-3.2-12,0l-4.4,4.4c-5.2-3-10.8-5.3-16.7-6.9v-6.2c0-4.7-3.8-8.5-8.5-8.5h-19.7c-4.7,0-8.5,3.8-8.5,8.5
					v6.2c-5.8,1.6-11.4,3.9-16.7,6.9l-4.4-4.4c-3.2-3.2-8.8-3.2-12,0l-13.9,13.9c-1.6,1.6-2.5,3.7-2.5,6c0,2.3,0.9,4.4,2.5,6
					l4.4,4.4c-3,5.2-5.3,10.8-6.9,16.7h-6.2c-4.7,0-8.5,3.8-8.5,8.5v19.7c0,4.7,3.8,8.5,8.5,8.5h6.2c1.6,5.8,3.9,11.4,6.9,16.7
					l-4.4,4.4c-1.6,1.6-2.5,3.7-2.5,6c0,2.3,0.9,4.4,2.5,6l13.9,13.9c3.2,3.2,8.8,3.2,12,0l4.4-4.4c5.2,3,10.8,5.3,16.7,6.9v6.2
					c0,4.7,3.8,8.5,8.5,8.5h19.7c4.7,0,8.5-3.8,8.5-8.5v-6.2c5.8-1.6,11.4-3.9,16.7-6.9l4.4,4.4c3.2,3.2,8.8,3.2,12,0l13.9-13.9
					c1.6-1.6,2.5-3.7,2.5-6c0-2.3-0.9-4.4-2.5-6l-4.4-4.4c3-5.2,5.3-10.8,6.9-16.7h6.2c4.7,0,8.5-3.8,8.5-8.5v-19.7
					C1201.9,421.6,1198.1,417.8,1193.4,417.8z M1196.7,446.1c0,1.3-1.1,2.4-2.4,2.4h-11.1l-0.6,2.4c-1.6,6.9-4.3,13.5-8.1,19.5
					l-1.3,2.1l7.8,7.8c0.9,0.9,0.9,2.5,0,3.4l-14.1,14.1c-0.9,0.9-2.5,0.9-3.4,0l-7.8-7.8l-2.1,1.3c-6,3.8-12.6,6.5-19.5,8.1
					l-2.4,0.6v11.1c0,1.3-1.1,2.4-2.4,2.4h-19.9c-1.3,0-2.4-1.1-2.4-2.4v-11.1l-2.4-0.6c-6.9-1.6-13.5-4.3-19.5-8.1l-2.1-1.3
					l-7.8,7.8c-0.9,0.9-2.5,0.9-3.4,0l-14.1-14.1c-0.9-0.9-0.9-2.5,0-3.4l7.8-7.8l-1.3-2.1c-3.8-6-6.5-12.6-8.1-19.5l-0.6-2.4h-11.1
					c-1.3,0-2.4-1.1-2.4-2.4v-19.9c0-1.3,1.1-2.4,2.4-2.4h11.1l0.6-2.4c1.6-6.9,4.3-13.5,8.1-19.5l1.3-2.1l-7.8-7.8
					c-0.9-0.9-0.9-2.5,0-3.4l14.1-14.1c0.9-0.9,2.5-0.9,3.4,0l7.8,7.8l2.1-1.3c6-3.8,12.6-6.5,19.5-8.1l2.4-0.6v-11.1
					c0-1.3,1.1-2.4,2.4-2.4h19.9c1.3,0,2.4,1.1,2.4,2.4v11.1l2.4,0.6c6.9,1.6,13.5,4.3,19.5,8.1l2.1,1.3l7.8-7.8
					c0.9-0.9,2.5-0.9,3.4,0l14.1,14.1c0.9,0.9,0.9,2.5,0,3.4l-7.8,7.8l1.3,2.1c3.8,6,6.5,12.6,8.1,19.5l0.6,2.4h11.1
					c1.3,0,2.4,1.1,2.4,2.4V446.1z"/>
			</g>
			<line class="st3" x1="1119.5" y1="470.5" x2="1119.5" y2="485.2"/>
			<line class="st3" x1="1119.5" y1="389.9" x2="1119.5" y2="403.1"/>
			<line class="st3" x1="1153.2" y1="437.6" x2="1167.8" y2="437.6"/>
			<line class="st3" x1="1070.2" y1="437.6" x2="1085.8" y2="437.6"/>
			<line class="st3" x1="1144.7" y1="414.4" x2="1156.2" y2="402.9"/>
			<line class="st3" x1="1085.8" y1="473.3" x2="1097.1" y2="462"/>
			<line class="st3" x1="1143" y1="460.9" x2="1154.4" y2="472.2"/>
			<line class="st3" x1="1083.2" y1="401" x2="1095.4" y2="413.2"/>
			<g>
				<path class="st2" d="M1119.5,428.9c4.1,0,7.5,3.3,7.5,7.5s-3.3,7.5-7.5,7.5s-7.5-3.3-7.5-7.5S1115.4,428.9,1119.5,428.9
					 M1119.5,423.9c-6.9,0-12.5,5.6-12.5,12.5s5.6,12.5,12.5,12.5s12.5-5.6,12.5-12.5S1126.4,423.9,1119.5,423.9L1119.5,423.9z"/>
			</g>
			<polyline class="st3" points="1125,428.1 1147.3,426.3 1128.2,441 			"/>
		</g>
	</g>
	<g>
		<rect x="683.1" y="298" class="st4" width="278.5" height="278.3"/>
		<rect x="695.9" y="310.6" class="st5" width="253.1" height="252.8"/>
		<g>
			<path class="st6" d="M801.5,397.8c-11.9,0-21.6,9.7-21.6,21.6c0,11.9,9.7,21.6,21.6,21.6s21.6-9.7,21.6-21.6
				C823.1,407.5,813.4,397.8,801.5,397.8z M801.5,439.1c-10.9,0-19.7-8.9-19.7-19.7c0-10.9,8.9-19.7,19.7-19.7s19.7,8.9,19.7,19.7
				C821.3,430.3,812.4,439.1,801.5,439.1z"/>
			<path class="st7" d="M836.1,410.8h-2.9c-0.7-2.7-1.8-5.3-3.2-7.8l2-2c0.7-0.7,1.2-1.7,1.2-2.8c0-1.1-0.4-2.1-1.2-2.8l-6.5-6.5
				c-1.5-1.5-4.1-1.5-5.6,0l-2,2c-2.4-1.4-5.1-2.5-7.8-3.2v-2.9c0-2.2-1.8-4-4-4h-9.2c-2.2,0-4,1.8-4,4v2.9
				c-2.7,0.7-5.3,1.8-7.8,3.2l-2-2c-1.5-1.5-4.1-1.5-5.6,0l-6.5,6.5c-0.7,0.7-1.2,1.7-1.2,2.8c0,1.1,0.4,2.1,1.2,2.8l2,2
				c-1.4,2.4-2.5,5.1-3.2,7.8H767c-2.2,0-4,1.8-4,4v9.2c0,2.2,1.8,4,4,4h2.9c0.7,2.7,1.8,5.3,3.2,7.8l-2,2c-0.7,0.7-1.2,1.7-1.2,2.8
				c0,1.1,0.4,2.1,1.2,2.8l6.5,6.5c1.5,1.5,4.1,1.5,5.6,0l2-2c2.4,1.4,5.1,2.5,7.8,3.2v2.9c0,2.2,1.8,4,4,4h9.2c2.2,0,4-1.8,4-4V451
				c2.7-0.7,5.3-1.8,7.8-3.2l2,2c1.5,1.5,4.1,1.5,5.6,0l6.5-6.5c0.7-0.7,1.2-1.7,1.2-2.8c0-1.1-0.4-2.1-1.2-2.8l-2-2
				c1.4-2.4,2.5-5.1,3.2-7.8h2.9c2.2,0,4-1.8,4-4v-9.2C840,412.6,838.2,410.8,836.1,410.8z M837.6,424c0,0.6-0.5,1.1-1.1,1.1h-5.2
				l-0.3,1.1c-0.8,3.2-2,6.3-3.8,9.1l-0.6,1l3.7,3.7c0.4,0.4,0.4,1.2,0,1.6l-6.6,6.6c-0.4,0.4-1.2,0.4-1.6,0l-3.7-3.7l-1,0.6
				c-2.8,1.8-5.9,3-9.1,3.8l-1.1,0.3v5.2c0,0.6-0.5,1.1-1.1,1.1h-9.3c-0.6,0-1.1-0.5-1.1-1.1v-5.2l-1.1-0.3c-3.2-0.8-6.3-2-9.1-3.8
				l-1-0.6l-3.7,3.7c-0.4,0.4-1.2,0.4-1.6,0l-6.6-6.6c-0.4-0.4-0.4-1.2,0-1.6l3.7-3.7l-0.6-1c-1.8-2.8-3-5.9-3.8-9.1l-0.3-1.1h-5.2
				c-0.6,0-1.1-0.5-1.1-1.1v-9.3c0-0.6,0.5-1.1,1.1-1.1h5.2l0.3-1.1c0.8-3.2,2-6.3,3.8-9.1l0.6-1l-3.7-3.7c-0.4-0.4-0.4-1.2,0-1.6
				l6.6-6.6c0.4-0.4,1.2-0.4,1.6,0l3.7,3.7l1-0.6c2.8-1.8,5.9-3,9.1-3.8l1.1-0.3v-5.2c0-0.6,0.5-1.1,1.1-1.1h9.3
				c0.6,0,1.1,0.5,1.1,1.1v5.2l1.1,0.3c3.2,0.8,6.3,2,9.1,3.8l1,0.6l3.7-3.7c0.4-0.4,1.2-0.4,1.6,0l6.6,6.6c0.4,0.4,0.4,1.2,0,1.6
				l-3.7,3.7l0.6,1c1.8,2.8,3,5.9,3.8,9.1l0.3,1.1h5.2c0.6,0,1.1,0.5,1.1,1.1V424z"/>
		</g>
		<g>
			<path class="st8" d="M861.9,444.1c-6.9,0-12.5,5.6-12.5,12.5c0,6.9,5.6,12.5,12.5,12.5s12.5-5.6,12.5-12.5
				C874.4,449.7,868.8,444.1,861.9,444.1z M861.9,467.9c-6.3,0-11.4-5.1-11.4-11.4c0-6.3,5.1-11.4,11.4-11.4
				c6.3,0,11.4,5.1,11.4,11.4C873.3,462.8,868.2,467.9,861.9,467.9z"/>
			<path class="st6" d="M886.4,450.5h-2c-0.5-1.9-1.3-3.8-2.3-5.5l1.4-1.4c0.5-0.5,0.8-1.2,0.8-2c0-0.8-0.3-1.5-0.8-2l-4.6-4.6
				c-1.1-1.1-2.9-1.1-4,0l-1.4,1.4c-1.7-1-3.6-1.8-5.5-2.3v-2c0-1.6-1.3-2.8-2.8-2.8h-6.5c-1.6,0-2.8,1.3-2.8,2.8v2
				c-1.9,0.5-3.8,1.3-5.5,2.3l-1.4-1.4c-1.1-1.1-2.9-1.1-4,0l-4.6,4.6c-0.5,0.5-0.8,1.2-0.8,2c0,0.8,0.3,1.5,0.8,2l1.4,1.4
				c-1,1.7-1.8,3.6-2.3,5.5h-2c-1.6,0-2.8,1.3-2.8,2.8v6.5c0,1.6,1.3,2.8,2.8,2.8h2c0.5,1.9,1.3,3.8,2.3,5.5l-1.4,1.4
				c-0.5,0.5-0.8,1.2-0.8,2c0,0.8,0.3,1.5,0.8,2l4.6,4.6c1.1,1.1,2.9,1.1,4,0l1.4-1.4c1.7,1,3.6,1.8,5.5,2.3v2
				c0,1.6,1.3,2.8,2.8,2.8h6.5c1.6,0,2.8-1.3,2.8-2.8v-2c1.9-0.5,3.8-1.3,5.5-2.3l1.4,1.4c1.1,1.1,2.9,1.1,4,0l4.6-4.6
				c0.5-0.5,0.8-1.2,0.8-2c0-0.8-0.3-1.5-0.8-2l-1.4-1.4c1-1.7,1.8-3.6,2.3-5.5h2c1.6,0,2.8-1.3,2.8-2.8v-6.5
				C889.2,451.8,888,450.5,886.4,450.5z M887.5,459.9c0,0.4-0.4,0.8-0.8,0.8h-3.7l-0.2,0.8c-0.5,2.3-1.4,4.5-2.7,6.5l-0.4,0.7
				l2.6,2.6c0.3,0.3,0.3,0.8,0,1.1l-4.7,4.7c-0.3,0.3-0.8,0.3-1.1,0l-2.6-2.6l-0.7,0.4c-2,1.2-4.2,2.1-6.5,2.7l-0.8,0.2v3.7
				c0,0.4-0.4,0.8-0.8,0.8h-6.6c-0.4,0-0.8-0.4-0.8-0.8v-3.7l-0.8-0.2c-2.3-0.5-4.5-1.4-6.5-2.7l-0.7-0.4l-2.6,2.6
				c-0.3,0.3-0.8,0.3-1.1,0l-4.7-4.7c-0.3-0.3-0.3-0.8,0-1.1l2.6-2.6l-0.4-0.7c-1.2-2-2.1-4.2-2.7-6.5l-0.2-0.8h-3.7
				c-0.4,0-0.8-0.4-0.8-0.8v-6.6c0-0.4,0.4-0.8,0.8-0.8h3.7l0.2-0.8c0.5-2.3,1.4-4.5,2.7-6.5l0.4-0.7l-2.6-2.6
				c-0.3-0.3-0.3-0.8,0-1.1l4.7-4.7c0.3-0.3,0.8-0.3,1.1,0l2.6,2.6l0.7-0.4c2-1.2,4.2-2.1,6.5-2.7l0.8-0.2v-3.7
				c0-0.4,0.4-0.8,0.8-0.8h6.6c0.4,0,0.8,0.4,0.8,0.8v3.7l0.8,0.2c2.3,0.5,4.5,1.4,6.5,2.7l0.7,0.4l2.6-2.6c0.3-0.3,0.8-0.3,1.1,0
				l4.7,4.7c0.3,0.3,0.3,0.8,0,1.1l-2.6,2.6l0.4,0.7c1.2,2,2.1,4.2,2.7,6.5l0.2,0.8h3.7c0.4,0,0.8,0.4,0.8,0.8V459.9z"/>
		</g>
		<g>
			<path class="st9" d="M754.8,475.4c-8.6-15.6-12.2-34.1-8.9-53c7.7-44.2,49.7-73.8,93.8-66.1c11.4,2,21.8,6.2,30.9,12.2"/>
			<path class="st9" d="M899.4,401.8c6.8,14.5,9.4,31.3,6.5,48.3c-7.7,44.2-49.7,73.8-93.8,66.1c-10.6-1.8-20.3-5.6-28.9-10.9"/>
			<polyline class="st9" points="849,374.5 873.1,370.4 866.9,347.9 			"/>
			<polyline class="st9" points="802.2,496.8 779.3,505.1 789.4,526.1 			"/>
		</g>
	</g>
	<g>
		<rect x="683.1" class="st10" width="278.5" height="278.3"/>
		<rect x="695.9" y="12.7" class="st11" width="253.1" height="252.8"/>
		<g>
			<g>
				<g>
					<g>
						<g>
							<g>
								<g>
									<path class="st9" d="M845.7,87.5c-49.5,0-49.5,0-49.5,0c-2.2,0-4-1.8-4-4c0-21.1,0-21.1,0-21.1c0-2.2,1.8-4,4-4
										c49.5,0,49.5,0,49.5,0c2.2,0,4,1.8,4,4c0,21.1,0,21.1,0,21.1C849.7,85.7,847.9,87.5,845.7,87.5L845.7,87.5z"/>
									<path class="st9" d="M786.8,152.2c-31.7,0-31.7,0-31.7,0c-2,0-3.6-1.6-3.6-3.4c0-31.7,0-31.7,0-31.7c0-2,1.6-3.4,3.6-3.4
										c31.7,0,31.7,0,31.7,0c1.8,0,3.4,1.3,3.4,3.4c0,31.7,0,31.7,0,31.7C790.1,150.6,788.6,152.2,786.8,152.2L786.8,152.2z"/>
									<path class="st9" d="M851.1,129.9c19.1-19.1,19.1-19.1,19.1-19.1c1.1-1.1,3.1-1.1,4.3,0c19.1,19.1,19.1,19.1,19.1,19.1
										c1.1,1.1,1.1,3.1,0,4.3c-19.1,19.1-19.1,19.1-19.1,19.1c-1.1,1.1-3.1,1.1-4.3,0c-19.1-19.1-19.1-19.1-19.1-19.1
										C850,133.1,850,131.1,851.1,129.9L851.1,129.9z"/>
									<path class="st9" d="M791.3,201.2c0,11.2-9.2,20.5-20.5,20.5c-11.2,0-20.5-9.2-20.5-20.5c0-11.2,9.2-20.2,20.5-20.2
										C782,180.9,791.3,189.9,791.3,201.2L791.3,201.2z"/>
									<path class="st9" d="M886.8,220.5c-31.7,0-31.7,0-31.7,0c-1.8,0-3.4-1.6-3.4-3.4c0-31.7,0-31.7,0-31.7c0-2,1.6-3.6,3.4-3.6
										c31.7,0,31.7,0,31.7,0c1.8,0,3.4,1.6,3.4,3.6c0,31.7,0,31.7,0,31.7C890.2,218.9,888.6,220.5,886.8,220.5L886.8,220.5z"/>
									<path class="st9" d="M791.3,72.9c-16.2,0-16.2,0-16.2,0c-2.5,0-4.3,1.8-4.3,4c0,35.7,0,35.7,0,35.7"/>
									<line class="st9" x1="770.8" y1="152.2" x2="770.8" y2="180.9"/>
									<path class="st9" d="M851.1,72.9c17.1,0,17.1,0,17.1,0c2.2,0,4,1.8,4,4c0,33,0,33,0,33"/>
									<line class="st9" x1="872.2" y1="154" x2="872.2" y2="181.8"/>
									<line class="st9" x1="790.1" y1="132.9" x2="851.1" y2="132.9"/>
								</g>
							</g>
						</g>
					</g>
				</g>
			</g>
		</g>
	</g>
	<g>
		<rect x="982.4" class="st12" width="278.5" height="278.3"/>
		<rect x="995.1" y="12.7" class="st13" width="253.1" height="252.8"/>
		<polygon class="st12" points="1085.5,148.9 1115.2,152.1 1134.5,161 1148.6,174 1155.4,182.3 1146.8,193.5 1137,202.4 
			1084.1,188.5 		"/>
		<g>
			<g>
				<path class="st2" d="M1204.4,75.2c-0.9-5.2-3.4-9.9-7.3-13.4c-4.3-4-10-6.2-15.9-6.2c-4.5,0-9,1.3-12.8,3.8
					c-3.2,2-5.8,4.8-7.6,8c-0.8-0.2-1.6-0.2-2.5-0.2c-7.1,0-12.9,5.8-12.9,12.9c0,0.9,0.1,1.8,0.3,2.7c-4.6,3.3-7.4,8.7-7.4,14.4
					c0,4.6,1.7,9.1,4.9,12.7c3.2,3.6,7.5,5.8,12,6c0.1,0,0.1,0,0.1,0h14.4c1.3,0,2.3-1,2.3-2.3s-1-2.3-2.3-2.3h-14.3
					c-6.8-0.4-12.6-6.9-12.6-14.2c0-4.7,2.5-9.1,6.6-11.5c1-0.6,1.4-1.7,1-2.7c-0.3-0.9-0.5-1.9-0.5-2.9c0-4.6,3.8-8.4,8.4-8.4
					c1,0,2,0.2,2.9,0.5c1.1,0.4,2.3-0.1,2.8-1.2c3.1-6.6,9.9-10.9,17.2-10.9c9.8,0,18,7.4,18.9,17.2c0.1,1,0.9,1.8,1.9,2
					c7.4,1.3,13,8.1,13,16c0,8.3-6.5,15.5-14.6,16.1h-12.3c-1.3,0-2.3,1-2.3,2.3s1,2.3,2.3,2.3h12.4c0.1,0,0.1,0,0.2,0
					c5.1-0.4,9.8-2.7,13.4-6.6c3.5-3.9,5.4-8.8,5.4-14C1219.6,85.8,1213.2,77.5,1204.4,75.2z"/>
				<path class="st2" d="M1191,126.3c-0.6,0-1.2,0.2-1.6,0.7l-8.1,8.1v-43l8.1,8.1c0.9,0.9,2.3,0.9,3.2,0c0.9-0.9,0.9-2.3,0-3.2
					L1180.6,85c-0.4-0.4-1-0.7-1.6-0.7c-0.6,0-1.2,0.2-1.6,0.7L1165.5,97c-0.9,0.9-0.9,2.3,0,3.2c0.4,0.4,1,0.7,1.6,0.7
					s1.2-0.2,1.6-0.7l8.1-8.1v43l-8.1-8.1c-0.9-0.9-2.3-0.9-3.2,0c-0.9,0.9-0.9,2.3,0,3.2l11.9,11.9c0.4,0.4,1,0.7,1.6,0.7
					c0.6,0,1.2-0.2,1.6-0.7l11.9-11.9c0.9-0.9,0.9-2.3,0-3.2C1192.1,126.6,1191.5,126.3,1191,126.3z"/>
			</g>
		</g>
		<path class="st12" d="M1155.8,124.5h-89.8c-2.2,0-3.9-1.8-3.9-3.9V90.3c0-2.2,1.8-3.9,3.9-3.9h89.8c2.2,0,3.9,1.8,3.9,3.9v30.3
			C1159.7,122.7,1157.9,124.5,1155.8,124.5z"/>
		<g>
			<path class="st9" d="M1149.9,124.5h-85c-2,0-3.6-1.6-3.6-3.6V95.6c0-0.9,0.3-1.6,0.8-2.3c0.7-0.8,1.7-1.4,2.8-1.4h85
				c2,0,3.6,1.6,3.6,3.6v25.3C1153.5,122.9,1151.9,124.5,1149.9,124.5z"/>
			<circle class="st9" cx="1133.6" cy="108.3" r="7.1"/>
			<line class="st14" x1="1073" y1="108.2" x2="1095.2" y2="108.2"/>
			<path class="st9" d="M1149.9,172.2h-85c-2,0-3.6-1.6-3.6-3.6v-25.3c0-0.9,0.3-1.6,0.8-2.3c0.7-0.8,1.7-1.4,2.8-1.4h85
				c2,0,3.6,1.6,3.6,3.6v25.3C1153.5,170.5,1151.9,172.2,1149.9,172.2z"/>
			<circle class="st9" cx="1133.6" cy="156" r="7.1"/>
			<line class="st14" x1="1073" y1="155.9" x2="1095.2" y2="155.9"/>
			<path class="st9" d="M1149.9,219.6h-85c-2,0-3.6-1.6-3.6-3.6v-25.3c0-0.9,0.3-1.6,0.8-2.3c0.7-0.8,1.7-1.4,2.8-1.4h85
				c2,0,3.6,1.6,3.6,3.6V216C1153.5,218,1151.9,219.6,1149.9,219.6z"/>
			<circle class="st9" cx="1133.6" cy="203.5" r="7.1"/>
			<line class="st14" x1="1073" y1="203.4" x2="1095.2" y2="203.4"/>
		</g>
	</g>
</g>
<g>
	<path class="st15" d="M1300.3,60.1h10.7c4.9,0,8.4,0.7,10.6,2.1s3.3,3.6,3.3,6.6c0,2-0.5,3.7-1.4,5s-2.2,2.1-3.8,2.4v0.2
		c2.2,0.5,3.7,1.4,4.7,2.7s1.4,3.1,1.4,5.3c0,3.1-1.1,5.6-3.4,7.3s-5.3,2.6-9.2,2.6h-12.8V60.1z M1307.6,73.7h4.2
		c2,0,3.4-0.3,4.3-0.9s1.3-1.6,1.3-3c0-1.3-0.5-2.3-1.4-2.8s-2.5-0.9-4.6-0.9h-3.8V73.7z M1307.6,79.4v8.9h4.7c2,0,3.5-0.4,4.4-1.1
		s1.4-1.9,1.4-3.5c0-2.8-2-4.3-6.1-4.3H1307.6z"/>
	<path class="st15" d="M1350.6,94.4l-1-3.4h-0.4c-0.8,1.2-1.9,2.2-3.3,2.8s-3,1-4.8,1c-3.1,0-5.4-0.8-7-2.5s-2.3-4-2.3-7.1V68.2h7.1
		v15.3c0,1.9,0.3,3.3,1,4.3s1.7,1.4,3.2,1.4c2,0,3.4-0.7,4.3-2s1.3-3.6,1.3-6.6V68.2h7.1v26.2H1350.6z"/>
	<path class="st15" d="M1363.2,61.4c0-2.3,1.3-3.5,3.9-3.5s3.9,1.2,3.9,3.5c0,1.1-0.3,2-1,2.6s-1.6,0.9-2.9,0.9
		C1364.5,64.9,1363.2,63.7,1363.2,61.4z M1370.7,94.4h-7.1V68.2h7.1V94.4z"/>
	<path class="st15" d="M1385.3,94.4h-7.1V57.9h7.1V94.4z"/>
	<path class="st15" d="M1401.1,94.8c-3.1,0-5.5-1.2-7.3-3.6s-2.6-5.7-2.6-9.9c0-4.3,0.9-7.6,2.7-10s4.3-3.6,7.4-3.6
		c3.3,0,5.8,1.3,7.5,3.8h0.2c-0.4-2-0.5-3.7-0.5-5.2v-8.4h7.2v36.5h-5.5l-1.4-3.4h-0.3C1406.9,93.5,1404.5,94.8,1401.1,94.8z
		 M1403.6,89.1c1.8,0,3.2-0.5,4-1.6s1.3-2.9,1.4-5.4v-0.8c0-2.8-0.4-4.8-1.3-6s-2.3-1.8-4.2-1.8c-1.6,0-2.8,0.7-3.7,2
		s-1.3,3.3-1.3,5.9s0.4,4.5,1.3,5.8S1402,89.1,1403.6,89.1z"/>
	<path class="st15" d="M1422.9,61.4c0-2.3,1.3-3.5,3.9-3.5s3.9,1.2,3.9,3.5c0,1.1-0.3,2-1,2.6s-1.6,0.9-2.9,0.9
		C1424.2,64.9,1422.9,63.7,1422.9,61.4z M1430.4,94.4h-7.1V68.2h7.1V94.4z"/>
	<path class="st15" d="M1462.1,94.4h-7.1V79.1c0-1.9-0.3-3.3-1-4.3s-1.7-1.4-3.2-1.4c-2,0-3.4,0.7-4.3,2s-1.3,3.6-1.3,6.6v12.3h-7.1
		V68.2h5.5l1,3.4h0.4c0.8-1.3,1.9-2.2,3.3-2.9s3-1,4.8-1c3,0,5.4,0.8,6.9,2.5s2.4,4,2.4,7.1V94.4z"/>
	<path class="st15" d="M1492.2,68.2v3.6l-4.1,1.1c0.8,1.2,1.1,2.5,1.1,3.9c0,2.8-1,5-2.9,6.6s-4.7,2.4-8.2,2.4l-1.3-0.1l-1.1-0.1
		c-0.7,0.6-1.1,1.2-1.1,1.9c0,1,1.3,1.5,3.9,1.5h4.5c2.9,0,5.1,0.6,6.6,1.9s2.3,3,2.3,5.4c0,3.1-1.3,5.4-3.8,7.1s-6.2,2.5-11,2.5
		c-3.7,0-6.4-0.6-8.4-1.9s-2.9-3.1-2.9-5.4c0-1.6,0.5-2.9,1.5-4s2.4-1.8,4.3-2.3c-0.7-0.3-1.4-0.8-1.9-1.5s-0.8-1.5-0.8-2.3
		c0-1,0.3-1.8,0.9-2.5s1.4-1.3,2.5-2c-1.4-0.6-2.5-1.5-3.3-2.9s-1.2-2.9-1.2-4.6c0-2.9,0.9-5.1,2.8-6.6s4.5-2.3,8-2.3
		c0.7,0,1.6,0.1,2.6,0.2s1.7,0.2,1.9,0.3H1492.2z M1472,98.1c0,1,0.5,1.8,1.4,2.3s2.3,0.8,4,0.8c2.6,0,4.6-0.4,6-1.1
		s2.2-1.7,2.2-2.9c0-1-0.4-1.7-1.3-2s-2.2-0.6-4-0.6h-3.7c-1.3,0-2.4,0.3-3.3,0.9S1472,97.1,1472,98.1z M1474.6,76.7
		c0,1.4,0.3,2.5,1,3.4s1.6,1.2,3,1.2c1.3,0,2.3-0.4,3-1.2s0.9-2,0.9-3.4c0-3.2-1.3-4.7-3.9-4.7C1475.9,72,1474.6,73.6,1474.6,76.7z"
		/>
	<path class="st15" d="M1532.8,81.2c0,4.3-1.1,7.6-3.4,10s-5.4,3.6-9.4,3.6c-2.5,0-4.7-0.6-6.7-1.7s-3.4-2.7-4.4-4.7
		s-1.5-4.5-1.5-7.2c0-4.3,1.1-7.6,3.4-10s5.4-3.6,9.4-3.6c2.5,0,4.7,0.5,6.7,1.6s3.4,2.7,4.4,4.7S1532.8,78.5,1532.8,81.2z
		 M1514.7,81.2c0,2.6,0.4,4.6,1.3,5.9s2.2,2,4.2,2c1.9,0,3.3-0.7,4.1-2s1.3-3.3,1.3-5.9c0-2.6-0.4-4.5-1.3-5.8s-2.2-1.9-4.1-1.9
		c-1.9,0-3.3,0.6-4.1,1.9S1514.7,78.6,1514.7,81.2z"/>
	<path class="st15" d="M1553.3,67.7c1,0,1.8,0.1,2.4,0.2l-0.5,6.7c-0.6-0.2-1.3-0.2-2.1-0.2c-2.3,0-4.1,0.6-5.3,1.8
		s-1.9,2.8-1.9,4.9v13.3h-7.1V68.2h5.4l1.1,4.4h0.4c0.8-1.5,1.9-2.7,3.3-3.6S1551.7,67.7,1553.3,67.7z"/>
	<path class="st15" d="M1596.4,94.4h-7.1V79.1c0-1.9-0.3-3.3-0.9-4.3s-1.6-1.4-3-1.4c-1.8,0-3.2,0.7-4,2s-1.2,3.6-1.2,6.6v12.3h-7.1
		V68.2h5.5l1,3.4h0.4c0.7-1.2,1.7-2.1,3-2.8s2.9-1,4.6-1c3.9,0,6.6,1.3,8,3.8h0.6c0.7-1.2,1.7-2.2,3.1-2.8s2.9-1,4.6-1
		c3,0,5.2,0.8,6.7,2.3s2.3,4,2.3,7.3v17.1h-7.2V79.1c0-1.9-0.3-3.3-0.9-4.3s-1.6-1.4-3-1.4c-1.8,0-3.1,0.6-3.9,1.9s-1.3,3.2-1.3,6
		V94.4z"/>
	<path class="st15" d="M1619.8,61.4c0-2.3,1.3-3.5,3.9-3.5s3.9,1.2,3.9,3.5c0,1.1-0.3,2-1,2.6s-1.6,0.9-2.9,0.9
		C1621.1,64.9,1619.8,63.7,1619.8,61.4z M1627.3,94.4h-7.1V68.2h7.1V94.4z"/>
	<path class="st15" d="M1657.6,68.2v3.6l-4.1,1.1c0.8,1.2,1.1,2.5,1.1,3.9c0,2.8-1,5-2.9,6.6s-4.7,2.4-8.2,2.4l-1.3-0.1l-1.1-0.1
		c-0.7,0.6-1.1,1.2-1.1,1.9c0,1,1.3,1.5,3.9,1.5h4.5c2.9,0,5.1,0.6,6.6,1.9s2.3,3,2.3,5.4c0,3.1-1.3,5.4-3.8,7.1s-6.2,2.5-11,2.5
		c-3.7,0-6.4-0.6-8.4-1.9s-2.9-3.1-2.9-5.4c0-1.6,0.5-2.9,1.5-4s2.4-1.8,4.3-2.3c-0.7-0.3-1.4-0.8-1.9-1.5s-0.8-1.5-0.8-2.3
		c0-1,0.3-1.8,0.9-2.5s1.4-1.3,2.5-2c-1.4-0.6-2.5-1.5-3.3-2.9s-1.2-2.9-1.2-4.6c0-2.9,0.9-5.1,2.8-6.6s4.5-2.3,8-2.3
		c0.7,0,1.6,0.1,2.6,0.2s1.7,0.2,1.9,0.3H1657.6z M1637.3,98.1c0,1,0.5,1.8,1.4,2.3s2.3,0.8,4,0.8c2.6,0,4.6-0.4,6-1.1
		s2.2-1.7,2.2-2.9c0-1-0.4-1.7-1.3-2s-2.2-0.6-4-0.6h-3.7c-1.3,0-2.4,0.3-3.3,0.9S1637.3,97.1,1637.3,98.1z M1639.9,76.7
		c0,1.4,0.3,2.5,1,3.4s1.6,1.2,3,1.2c1.3,0,2.3-0.4,3-1.2s0.9-2,0.9-3.4c0-3.2-1.3-4.7-3.9-4.7C1641.3,72,1639.9,73.6,1639.9,76.7z"
		/>
	<path class="st15" d="M1676.5,67.7c1,0,1.8,0.1,2.4,0.2l-0.5,6.7c-0.6-0.2-1.3-0.2-2.1-0.2c-2.3,0-4.1,0.6-5.3,1.8
		s-1.9,2.8-1.9,4.9v13.3h-7.1V68.2h5.4l1.1,4.4h0.4c0.8-1.5,1.9-2.7,3.3-3.6S1674.9,67.7,1676.5,67.7z"/>
	<path class="st15" d="M1700.3,94.4l-1.4-3.6h-0.2c-1.2,1.5-2.4,2.6-3.7,3.2s-2.9,0.9-5,0.9c-2.5,0-4.5-0.7-5.9-2.2
		s-2.2-3.5-2.2-6.1c0-2.8,1-4.8,2.9-6.2s4.9-2.1,8.8-2.2l4.5-0.1v-1.1c0-2.7-1.4-4-4.1-4c-2.1,0-4.6,0.6-7.4,1.9l-2.4-4.8
		c3-1.6,6.4-2.4,10-2.4c3.5,0,6.2,0.8,8.1,2.3s2.8,3.9,2.8,7v17.5H1700.3z M1698.2,82.2l-2.8,0.1c-2.1,0.1-3.6,0.4-4.6,1.1
		s-1.5,1.7-1.5,3.1c0,2,1.2,3,3.5,3c1.7,0,3-0.5,4-1.4s1.5-2.2,1.5-3.8V82.2z"/>
	<path class="st15" d="M1723.7,89.1c1.3,0,2.8-0.3,4.5-0.8v5.3c-1.8,0.8-4,1.2-6.6,1.2c-2.9,0-4.9-0.7-6.2-2.2s-2-3.6-2-6.5V73.5
		h-3.4v-3l3.9-2.4l2.1-5.5h4.6v5.6h7.3v5.4h-7.3v12.6c0,1,0.3,1.8,0.9,2.3S1722.8,89.1,1723.7,89.1z"/>
	<path class="st15" d="M1733.2,61.4c0-2.3,1.3-3.5,3.9-3.5s3.9,1.2,3.9,3.5c0,1.1-0.3,2-1,2.6s-1.6,0.9-2.9,0.9
		C1734.5,64.9,1733.2,63.7,1733.2,61.4z M1740.7,94.4h-7.1V68.2h7.1V94.4z"/>
	<path class="st15" d="M1772.3,94.4h-7.1V79.1c0-1.9-0.3-3.3-1-4.3s-1.7-1.4-3.2-1.4c-2,0-3.4,0.7-4.3,2s-1.3,3.6-1.3,6.6v12.3h-7.1
		V68.2h5.5l1,3.4h0.4c0.8-1.3,1.9-2.2,3.3-2.9s3-1,4.8-1c3,0,5.4,0.8,6.9,2.5s2.4,4,2.4,7.1V94.4z"/>
	<path class="st15" d="M1802.5,68.2v3.6l-4.1,1.1c0.8,1.2,1.1,2.5,1.1,3.9c0,2.8-1,5-2.9,6.6s-4.7,2.4-8.2,2.4l-1.3-0.1l-1.1-0.1
		c-0.7,0.6-1.1,1.2-1.1,1.9c0,1,1.3,1.5,3.9,1.5h4.5c2.9,0,5.1,0.6,6.6,1.9s2.3,3,2.3,5.4c0,3.1-1.3,5.4-3.8,7.1s-6.2,2.5-11,2.5
		c-3.7,0-6.4-0.6-8.4-1.9s-2.9-3.1-2.9-5.4c0-1.6,0.5-2.9,1.5-4s2.4-1.8,4.3-2.3c-0.7-0.3-1.4-0.8-1.9-1.5s-0.8-1.5-0.8-2.3
		c0-1,0.3-1.8,0.9-2.5s1.4-1.3,2.5-2c-1.4-0.6-2.5-1.5-3.3-2.9s-1.2-2.9-1.2-4.6c0-2.9,0.9-5.1,2.8-6.6s4.5-2.3,8-2.3
		c0.7,0,1.6,0.1,2.6,0.2s1.7,0.2,1.9,0.3H1802.5z M1782.3,98.1c0,1,0.5,1.8,1.4,2.3s2.3,0.8,4,0.8c2.6,0,4.6-0.4,6-1.1
		s2.2-1.7,2.2-2.9c0-1-0.4-1.7-1.3-2s-2.2-0.6-4-0.6h-3.7c-1.3,0-2.4,0.3-3.3,0.9S1782.3,97.1,1782.3,98.1z M1784.9,76.7
		c0,1.4,0.3,2.5,1,3.4s1.6,1.2,3,1.2c1.3,0,2.3-0.4,3-1.2s0.9-2,0.9-3.4c0-3.2-1.3-4.7-3.9-4.7C1786.2,72,1784.9,73.6,1784.9,76.7z"
		/>
	<path class="st15" d="M1317.6,148.5h-0.2c-1.8,2.6-4.5,3.9-8.1,3.9c-3.4,0-6-1.1-7.8-3.4s-2.8-5.6-2.8-9.8s0.9-7.5,2.8-9.9
		s4.5-3.5,7.8-3.5c3.5,0,6.2,1.3,8,3.8h0.3l-0.2-1.9l-0.1-1.8v-10.5h3.9V152h-3.2L1317.6,148.5z M1309.8,149.2
		c2.7,0,4.6-0.7,5.8-2.2s1.8-3.8,1.8-7v-0.8c0-3.6-0.6-6.2-1.8-7.8s-3.1-2.3-5.8-2.3c-2.3,0-4,0.9-5.2,2.7s-1.8,4.3-1.8,7.5
		c0,3.3,0.6,5.8,1.8,7.4S1307.5,149.2,1309.8,149.2z"/>
	<path class="st15" d="M1329.2,119.3c0-0.9,0.2-1.5,0.7-2s1-0.6,1.6-0.6c0.6,0,1.2,0.2,1.6,0.6s0.7,1.1,0.7,1.9s-0.2,1.5-0.7,2
		s-1,0.6-1.6,0.6c-0.7,0-1.2-0.2-1.6-0.6S1329.2,120.2,1329.2,119.3z M1333.4,152h-3.9v-25.7h3.9V152z"/>
	<path class="st15" d="M1362.7,126.3v2.5l-4.8,0.6c0.4,0.5,0.8,1.3,1.2,2.1s0.5,1.9,0.5,3c0,2.5-0.9,4.5-2.6,6s-4.1,2.3-7.1,2.3
		c-0.8,0-1.5-0.1-2.2-0.2c-1.7,0.9-2.5,2-2.5,3.3c0,0.7,0.3,1.2,0.9,1.6s1.6,0.5,3,0.5h4.5c2.8,0,4.9,0.6,6.4,1.8s2.2,2.9,2.2,5.1
		c0,2.8-1.1,5-3.4,6.5s-5.6,2.2-10,2.2c-3.4,0-5.9-0.6-7.8-1.9s-2.7-3-2.7-5.3c0-1.6,0.5-2.9,1.5-4.1s2.4-1.9,4.2-2.3
		c-0.7-0.3-1.2-0.8-1.7-1.4s-0.7-1.4-0.7-2.2c0-0.9,0.3-1.8,0.8-2.5s1.3-1.4,2.4-2c-1.3-0.5-2.4-1.5-3.2-2.8s-1.3-2.8-1.3-4.5
		c0-2.8,0.8-5,2.5-6.5s4.1-2.3,7.2-2.3c1.3,0,2.6,0.2,3.6,0.5H1362.7z M1342.2,156.3c0,1.4,0.6,2.4,1.8,3.2s2.9,1.1,5,1.1
		c3.3,0,5.7-0.5,7.3-1.5s2.4-2.3,2.4-4c0-1.4-0.4-2.4-1.3-2.9s-2.5-0.8-4.9-0.8h-4.7c-1.8,0-3.1,0.4-4.1,1.3
		S1342.2,154.7,1342.2,156.3z M1344.3,134.5c0,1.8,0.5,3.2,1.5,4.1s2.4,1.4,4.2,1.4c3.8,0,5.7-1.8,5.7-5.5c0-3.9-1.9-5.8-5.8-5.8
		c-1.8,0-3.2,0.5-4.2,1.5S1344.3,132.6,1344.3,134.5z"/>
	<path class="st15" d="M1367.6,119.3c0-0.9,0.2-1.5,0.7-2s1-0.6,1.6-0.6c0.6,0,1.2,0.2,1.6,0.6s0.7,1.1,0.7,1.9s-0.2,1.5-0.7,2
		s-1,0.6-1.6,0.6c-0.7,0-1.2-0.2-1.6-0.6S1367.6,120.2,1367.6,119.3z M1371.9,152h-3.9v-25.7h3.9V152z"/>
	<path class="st15" d="M1388.4,149.2c0.7,0,1.4-0.1,2-0.2s1.1-0.2,1.5-0.3v3c-0.4,0.2-1,0.4-1.9,0.5s-1.6,0.2-2.2,0.2
		c-5,0-7.5-2.6-7.5-7.9v-15.3h-3.7v-1.9l3.7-1.6l1.6-5.5h2.3v6h7.5v3h-7.5v15.1c0,1.5,0.4,2.7,1.1,3.6S1387.1,149.2,1388.4,149.2z"
		/>
	<path class="st15" d="M1412.9,152l-0.8-3.7h-0.2c-1.3,1.6-2.6,2.7-3.8,3.3s-2.9,0.9-4.8,0.9c-2.5,0-4.5-0.7-6-2s-2.2-3.2-2.2-5.6
		c0-5.2,4.1-7.9,12.4-8.2l4.4-0.1V135c0-2-0.4-3.5-1.3-4.5s-2.3-1.4-4.2-1.4c-2.1,0-4.6,0.7-7.3,2l-1.2-3c1.3-0.7,2.7-1.2,4.2-1.6
		s3-0.6,4.5-0.6c3.1,0,5.3,0.7,6.8,2s2.2,3.5,2.2,6.5V152H1412.9z M1404.1,149.2c2.4,0,4.3-0.7,5.7-2s2.1-3.2,2.1-5.6v-2.3l-3.9,0.2
		c-3.1,0.1-5.3,0.6-6.7,1.4s-2.1,2.2-2.1,4c0,1.4,0.4,2.5,1.3,3.2S1402.5,149.2,1404.1,149.2z"/>
	<path class="st15" d="M1427.6,152h-3.9v-36.5h3.9V152z"/>
	<path class="st15" d="M1464.2,152l-0.8-3.7h-0.2c-1.3,1.6-2.6,2.7-3.8,3.3s-2.9,0.9-4.8,0.9c-2.5,0-4.5-0.7-6-2s-2.2-3.2-2.2-5.6
		c0-5.2,4.1-7.9,12.4-8.2l4.4-0.1V135c0-2-0.4-3.5-1.3-4.5s-2.3-1.4-4.2-1.4c-2.1,0-4.6,0.7-7.3,2l-1.2-3c1.3-0.7,2.7-1.2,4.2-1.6
		s3-0.6,4.5-0.6c3.1,0,5.3,0.7,6.8,2s2.2,3.5,2.2,6.5V152H1464.2z M1455.4,149.2c2.4,0,4.3-0.7,5.7-2s2.1-3.2,2.1-5.6v-2.3l-3.9,0.2
		c-3.1,0.1-5.3,0.6-6.7,1.4s-2.1,2.2-2.1,4c0,1.4,0.4,2.5,1.3,3.2S1453.8,149.2,1455.4,149.2z"/>
	<path class="st15" d="M1492.6,152v-16.6c0-2.1-0.5-3.7-1.4-4.7s-2.4-1.5-4.5-1.5c-2.7,0-4.7,0.7-5.9,2.2s-1.9,3.9-1.9,7.2V152h-3.9
		v-25.7h3.2l0.6,3.5h0.2c0.8-1.3,1.9-2.2,3.4-2.9s3-1,4.8-1c3.1,0,5.4,0.7,7,2.2s2.3,3.9,2.3,7.2V152H1492.6z"/>
	<path class="st15" d="M1522,148.5h-0.2c-1.8,2.6-4.5,3.9-8.1,3.9c-3.4,0-6-1.1-7.8-3.4s-2.8-5.6-2.8-9.8s0.9-7.5,2.8-9.9
		s4.5-3.5,7.8-3.5c3.5,0,6.2,1.3,8,3.8h0.3l-0.2-1.9l-0.1-1.8v-10.5h3.9V152h-3.2L1522,148.5z M1514.2,149.2c2.7,0,4.6-0.7,5.8-2.2
		s1.8-3.8,1.8-7v-0.8c0-3.6-0.6-6.2-1.8-7.8s-3.1-2.3-5.8-2.3c-2.3,0-4,0.9-5.2,2.7s-1.8,4.3-1.8,7.5c0,3.3,0.6,5.8,1.8,7.4
		S1511.9,149.2,1514.2,149.2z"/>
	<path class="st15" d="M1556.7,152.4c-3.7,0-6.6-1.1-8.6-3.4s-3.1-5.5-3.1-9.7c0-4.3,1-7.6,3.1-10s5-3.5,8.8-3.5
		c1.2,0,2.5,0.1,3.7,0.4s2.2,0.6,2.9,0.9l-1.2,3.3c-0.9-0.3-1.8-0.6-2.8-0.9s-1.9-0.3-2.7-0.3c-5.2,0-7.8,3.3-7.8,10
		c0,3.2,0.6,5.6,1.9,7.3s3.2,2.5,5.7,2.5c2.1,0,4.3-0.5,6.6-1.4v3.4C1561.4,152,1559.3,152.4,1556.7,152.4z"/>
	<path class="st15" d="M1573.1,152h-3.9v-36.5h3.9V152z"/>
	<path class="st15" d="M1603.6,139.1c0,4.2-1.1,7.5-3.2,9.8s-5,3.5-8.7,3.5c-2.3,0-4.3-0.5-6.1-1.6s-3.2-2.6-4.1-4.6
		s-1.5-4.4-1.5-7.1c0-4.2,1-7.4,3.1-9.8s5-3.5,8.7-3.5c3.6,0,6.4,1.2,8.6,3.6S1603.6,135,1603.6,139.1z M1584,139.1
		c0,3.3,0.7,5.8,2,7.5s3.2,2.6,5.8,2.6s4.5-0.9,5.8-2.6s2-4.2,2-7.5c0-3.3-0.7-5.7-2-7.4s-3.3-2.5-5.8-2.5c-2.5,0-4.5,0.8-5.8,2.5
		S1584,135.8,1584,139.1z"/>
	<path class="st15" d="M1614,126.3v16.7c0,2.1,0.5,3.7,1.4,4.7s2.4,1.5,4.5,1.5c2.7,0,4.7-0.7,5.9-2.2s1.9-3.9,1.9-7.2v-13.5h3.9
		V152h-3.2l-0.6-3.4h-0.2c-0.8,1.3-1.9,2.2-3.3,2.9s-3,1-4.8,1c-3.1,0-5.5-0.7-7-2.2s-2.3-3.9-2.3-7.1v-16.8H1614z"/>
	<path class="st15" d="M1657.3,148.5h-0.2c-1.8,2.6-4.5,3.9-8.1,3.9c-3.4,0-6-1.1-7.8-3.4s-2.8-5.6-2.8-9.8s0.9-7.5,2.8-9.9
		s4.5-3.5,7.8-3.5c3.5,0,6.2,1.3,8,3.8h0.3l-0.2-1.9l-0.1-1.8v-10.5h3.9V152h-3.2L1657.3,148.5z M1649.6,149.2
		c2.7,0,4.6-0.7,5.8-2.2s1.8-3.8,1.8-7v-0.8c0-3.6-0.6-6.2-1.8-7.8s-3.1-2.3-5.8-2.3c-2.3,0-4,0.9-5.2,2.7s-1.8,4.3-1.8,7.5
		c0,3.3,0.6,5.8,1.8,7.4S1647.2,149.2,1649.6,149.2z"/>
	<path class="st15" d="M1316.7,202.6c0,2.4-0.9,4.2-2.7,5.5s-4.3,1.9-7.5,1.9c-3.4,0-6.1-0.5-8-1.6v-3.6c1.2,0.6,2.6,1.1,4,1.5
		s2.8,0.5,4.1,0.5c2,0,3.6-0.3,4.7-1s1.6-1.6,1.6-3c0-1-0.4-1.9-1.3-2.6s-2.6-1.6-5.1-2.5c-2.4-0.9-4.1-1.7-5.1-2.3
		s-1.8-1.4-2.3-2.3s-0.7-1.9-0.7-3c0-2.1,0.9-3.7,2.6-5s4-1.8,7-1.8c2.8,0,5.5,0.6,8.1,1.7l-1.4,3.2c-2.6-1.1-4.9-1.6-7-1.6
		c-1.8,0-3.2,0.3-4.2,0.9s-1.4,1.4-1.4,2.4c0,0.7,0.2,1.3,0.5,1.8s0.9,0.9,1.7,1.4s2.3,1.1,4.5,1.9c3,1.1,5.1,2.2,6.2,3.4
		S1316.7,200.9,1316.7,202.6z"/>
	<path class="st15" d="M1345.2,196.7c0,4.2-1.1,7.5-3.2,9.8s-5,3.5-8.7,3.5c-2.3,0-4.3-0.5-6.1-1.6s-3.2-2.6-4.1-4.6
		s-1.5-4.4-1.5-7.1c0-4.2,1-7.4,3.1-9.8s5-3.5,8.7-3.5c3.6,0,6.4,1.2,8.6,3.6S1345.2,192.6,1345.2,196.7z M1325.6,196.7
		c0,3.3,0.7,5.8,2,7.5s3.2,2.6,5.8,2.6s4.5-0.9,5.8-2.6s2-4.2,2-7.5c0-3.3-0.7-5.7-2-7.4s-3.3-2.5-5.8-2.5c-2.5,0-4.5,0.8-5.8,2.5
		S1325.6,193.4,1325.6,196.7z"/>
	<path class="st15" d="M1355.9,209.6h-3.9v-36.5h3.9V209.6z"/>
	<path class="st15" d="M1367.8,183.9v16.7c0,2.1,0.5,3.7,1.4,4.7s2.4,1.5,4.5,1.5c2.7,0,4.7-0.7,5.9-2.2s1.9-3.9,1.9-7.2v-13.5h3.9
		v25.7h-3.2l-0.6-3.4h-0.2c-0.8,1.3-1.9,2.2-3.3,2.9s-3,1-4.8,1c-3.1,0-5.5-0.7-7-2.2s-2.3-3.9-2.3-7.1v-16.8H1367.8z"/>
	<path class="st15" d="M1401.9,206.8c0.7,0,1.4-0.1,2-0.2s1.1-0.2,1.5-0.3v3c-0.4,0.2-1,0.4-1.9,0.5s-1.6,0.2-2.2,0.2
		c-5,0-7.5-2.6-7.5-7.9v-15.3h-3.7V185l3.7-1.6l1.6-5.5h2.3v6h7.5v3h-7.5V202c0,1.5,0.4,2.7,1.1,3.6S1400.6,206.8,1401.9,206.8z"/>
	<path class="st15" d="M1410.2,176.9c0-0.9,0.2-1.5,0.7-2s1-0.6,1.6-0.6c0.6,0,1.2,0.2,1.6,0.6s0.7,1.1,0.7,1.9s-0.2,1.5-0.7,2
		s-1,0.6-1.6,0.6c-0.7,0-1.2-0.2-1.6-0.6S1410.2,177.8,1410.2,176.9z M1414.5,209.6h-3.9v-25.7h3.9V209.6z"/>
	<path class="st15" d="M1444.9,196.7c0,4.2-1.1,7.5-3.2,9.8s-5,3.5-8.7,3.5c-2.3,0-4.3-0.5-6.1-1.6s-3.2-2.6-4.1-4.6
		s-1.5-4.4-1.5-7.1c0-4.2,1-7.4,3.1-9.8s5-3.5,8.7-3.5c3.6,0,6.4,1.2,8.6,3.6S1444.9,192.6,1444.9,196.7z M1425.3,196.7
		c0,3.3,0.7,5.8,2,7.5s3.2,2.6,5.8,2.6s4.5-0.9,5.8-2.6s2-4.2,2-7.5c0-3.3-0.7-5.7-2-7.4s-3.3-2.5-5.8-2.5c-2.5,0-4.5,0.8-5.8,2.5
		S1425.3,193.4,1425.3,196.7z"/>
	<path class="st15" d="M1469.3,209.6V193c0-2.1-0.5-3.7-1.4-4.7s-2.4-1.5-4.5-1.5c-2.7,0-4.7,0.7-5.9,2.2s-1.9,3.9-1.9,7.2v13.5
		h-3.9v-25.7h3.2l0.6,3.5h0.2c0.8-1.3,1.9-2.2,3.4-2.9s3-1,4.8-1c3.1,0,5.4,0.7,7,2.2s2.3,3.9,2.3,7.2v16.8H1469.3z"/>
	<path class="st15" d="M1497.7,202.6c0,2.4-0.9,4.2-2.7,5.5s-4.3,1.9-7.5,1.9c-3.4,0-6.1-0.5-8-1.6v-3.6c1.2,0.6,2.6,1.1,4,1.5
		s2.8,0.5,4.1,0.5c2,0,3.6-0.3,4.7-1s1.6-1.6,1.6-3c0-1-0.4-1.9-1.3-2.6s-2.6-1.6-5.1-2.5c-2.4-0.9-4.1-1.7-5.1-2.3
		s-1.8-1.4-2.3-2.3s-0.7-1.9-0.7-3c0-2.1,0.9-3.7,2.6-5s4-1.8,7-1.8c2.8,0,5.5,0.6,8.1,1.7l-1.4,3.2c-2.6-1.1-4.9-1.6-7-1.6
		c-1.8,0-3.2,0.3-4.2,0.9s-1.4,1.4-1.4,2.4c0,0.7,0.2,1.3,0.5,1.8s0.9,0.9,1.7,1.4s2.3,1.1,4.5,1.9c3,1.1,5.1,2.2,6.2,3.4
		S1497.7,200.9,1497.7,202.6z"/>
</g>
<g>
	<path class="st15" d="M1338.4,373.8c0,5.7-1.4,10-4.2,13.1s-6.8,4.6-12.1,4.6s-9.3-1.5-12.1-4.6s-4.2-7.4-4.2-13.1
		s1.4-10.1,4.2-13.1s6.9-4.5,12.1-4.5s9.3,1.5,12.1,4.5S1338.4,368.1,1338.4,373.8z M1313.4,373.8c0,3.8,0.7,6.7,2.2,8.6
		s3.6,2.9,6.5,2.9c5.8,0,8.7-3.9,8.7-11.6c0-7.7-2.9-11.6-8.6-11.6c-2.9,0-5.1,1-6.5,2.9S1313.4,370,1313.4,373.8z"/>
	<path class="st15" d="M1359.3,391.5c-3.1,0-5.5-1.1-7.2-3.4h-0.4c0.3,2.2,0.4,3.5,0.4,3.8v10.6h-7.1v-37.7h5.8l1,3.4h0.3
		c1.7-2.6,4.1-3.9,7.4-3.9c3.1,0,5.5,1.2,7.3,3.6s2.6,5.7,2.6,10c0,2.8-0.4,5.2-1.2,7.3s-2,3.6-3.5,4.7S1361.4,391.5,1359.3,391.5z
		 M1357.2,370c-1.8,0-3.1,0.5-3.9,1.6s-1.2,2.9-1.3,5.4v0.8c0,2.8,0.4,4.8,1.3,6s2.2,1.8,4,1.8c3.2,0,4.8-2.6,4.8-7.9
		c0-2.6-0.4-4.5-1.2-5.8S1358.9,370,1357.2,370z"/>
	<path class="st15" d="M1386.4,385.8c1.3,0,2.8-0.3,4.5-0.8v5.3c-1.8,0.8-4,1.2-6.6,1.2c-2.9,0-4.9-0.7-6.2-2.2s-2-3.6-2-6.5v-12.6
		h-3.4v-3l3.9-2.4l2.1-5.5h4.6v5.6h7.3v5.4h-7.3v12.6c0,1,0.3,1.8,0.9,2.3S1385.4,385.8,1386.4,385.8z"/>
	<path class="st15" d="M1395.9,358c0-2.3,1.3-3.5,3.9-3.5s3.9,1.2,3.9,3.5c0,1.1-0.3,2-1,2.6s-1.6,0.9-2.9,0.9
		C1397.2,361.5,1395.9,360.4,1395.9,358z M1403.3,391h-7.1v-26.2h7.1V391z"/>
	<path class="st15" d="M1434.3,391h-7.1v-15.3c0-1.9-0.3-3.3-0.9-4.3s-1.6-1.4-3-1.4c-1.8,0-3.2,0.7-4,2s-1.2,3.6-1.2,6.6V391h-7.1
		v-26.2h5.5l1,3.4h0.4c0.7-1.2,1.7-2.1,3-2.8s2.9-1,4.6-1c3.9,0,6.6,1.3,8,3.8h0.6c0.7-1.2,1.7-2.2,3.1-2.8s2.9-1,4.6-1
		c3,0,5.2,0.8,6.7,2.3s2.3,4,2.3,7.3V391h-7.2v-15.3c0-1.9-0.3-3.3-0.9-4.3s-1.6-1.4-3-1.4c-1.8,0-3.1,0.6-3.9,1.9s-1.3,3.2-1.3,6
		V391z"/>
	<path class="st15" d="M1457.6,358c0-2.3,1.3-3.5,3.9-3.5s3.9,1.2,3.9,3.5c0,1.1-0.3,2-1,2.6s-1.6,0.9-2.9,0.9
		C1458.9,361.5,1457.6,360.4,1457.6,358z M1465.1,391h-7.1v-26.2h7.1V391z"/>
	<path class="st15" d="M1490.8,391h-20.7v-4.2l12.1-16.5h-11.4v-5.5h19.5v4.6l-11.8,16.1h12.2V391z"/>
	<path class="st15" d="M1495.7,358c0-2.3,1.3-3.5,3.9-3.5s3.9,1.2,3.9,3.5c0,1.1-0.3,2-1,2.6s-1.6,0.9-2.9,0.9
		C1497,361.5,1495.7,360.4,1495.7,358z M1503.2,391h-7.1v-26.2h7.1V391z"/>
	<path class="st15" d="M1534.8,391h-7.1v-15.3c0-1.9-0.3-3.3-1-4.3s-1.7-1.4-3.2-1.4c-2,0-3.4,0.7-4.3,2s-1.3,3.6-1.3,6.6V391h-7.1
		v-26.2h5.5l1,3.4h0.4c0.8-1.3,1.9-2.2,3.3-2.9s3-1,4.8-1c3,0,5.4,0.8,6.9,2.5s2.4,4,2.4,7.1V391z"/>
	<path class="st15" d="M1565,364.8v3.6l-4.1,1.1c0.8,1.2,1.1,2.5,1.1,3.9c0,2.8-1,5-2.9,6.6s-4.7,2.4-8.2,2.4l-1.3-0.1l-1.1-0.1
		c-0.7,0.6-1.1,1.2-1.1,1.9c0,1,1.3,1.5,3.9,1.5h4.5c2.9,0,5.1,0.6,6.6,1.9s2.3,3,2.3,5.4c0,3.1-1.3,5.4-3.8,7.1s-6.2,2.5-11,2.5
		c-3.7,0-6.4-0.6-8.4-1.9s-2.9-3.1-2.9-5.4c0-1.6,0.5-2.9,1.5-4s2.4-1.8,4.3-2.3c-0.7-0.3-1.4-0.8-1.9-1.5s-0.8-1.5-0.8-2.3
		c0-1,0.3-1.8,0.9-2.5s1.4-1.3,2.5-2c-1.4-0.6-2.5-1.5-3.3-2.9s-1.2-2.9-1.2-4.6c0-2.9,0.9-5.1,2.8-6.6s4.5-2.3,8-2.3
		c0.7,0,1.6,0.1,2.6,0.2s1.7,0.2,1.9,0.3H1565z M1544.8,394.7c0,1,0.5,1.8,1.4,2.3s2.3,0.8,4,0.8c2.6,0,4.6-0.4,6-1.1
		s2.2-1.7,2.2-2.9c0-1-0.4-1.7-1.3-2s-2.2-0.6-4-0.6h-3.7c-1.3,0-2.4,0.3-3.3,0.9S1544.8,393.7,1544.8,394.7z M1547.4,373.4
		c0,1.4,0.3,2.5,1,3.4s1.6,1.2,3,1.2c1.3,0,2.3-0.4,3-1.2s0.9-2,0.9-3.4c0-3.2-1.3-4.7-3.9-4.7
		C1548.7,368.6,1547.4,370.2,1547.4,373.4z"/>
	<path class="st15" d="M1303,422.9h4.2l5.6,14.6c1.2,3.3,2,5.8,2.3,7.2h0.2c0.2-0.8,0.6-2.2,1.3-4.1s2.8-7.9,6.4-17.8h4.2l-11,29.3
		c-1.1,2.9-2.4,4.9-3.8,6.2s-3.3,1.8-5.4,1.8c-1.2,0-2.4-0.1-3.5-0.4v-3.1c0.9,0.2,1.8,0.3,2.9,0.3c2.7,0,4.6-1.5,5.7-4.5l1.4-3.7
		L1303,422.9z"/>
	<path class="st15" d="M1353.5,435.7c0,4.2-1.1,7.5-3.2,9.8s-5,3.5-8.7,3.5c-2.3,0-4.3-0.5-6.1-1.6s-3.2-2.6-4.1-4.6
		s-1.5-4.4-1.5-7.1c0-4.2,1-7.4,3.1-9.8s5-3.5,8.7-3.5c3.6,0,6.4,1.2,8.6,3.6S1353.5,431.6,1353.5,435.7z M1333.9,435.7
		c0,3.3,0.7,5.8,2,7.5s3.2,2.6,5.8,2.6s4.5-0.9,5.8-2.6s2-4.2,2-7.5c0-3.3-0.7-5.7-2-7.4s-3.3-2.5-5.8-2.5c-2.5,0-4.5,0.8-5.8,2.5
		S1333.9,432.4,1333.9,435.7z"/>
	<path class="st15" d="M1364,422.9v16.7c0,2.1,0.5,3.7,1.4,4.7s2.4,1.5,4.5,1.5c2.7,0,4.7-0.7,5.9-2.2s1.9-3.9,1.9-7.2v-13.5h3.9
		v25.7h-3.2l-0.6-3.4h-0.2c-0.8,1.3-1.9,2.2-3.3,2.9s-3,1-4.8,1c-3.1,0-5.5-0.7-7-2.2s-2.3-3.9-2.3-7.1v-16.8H1364z"/>
	<path class="st15" d="M1401.5,422.4c1.1,0,2.2,0.1,3.1,0.3l-0.5,3.6c-1.1-0.2-2-0.4-2.8-0.4c-2.1,0-3.9,0.8-5.3,2.5
		s-2.2,3.8-2.2,6.3v13.8h-3.9v-25.7h3.2l0.4,4.8h0.2c1-1.7,2.1-3,3.4-3.9S1399.9,422.4,1401.5,422.4z"/>
	<path class="st15" d="M1422.4,448.6v-34.3h4v34.3H1422.4z"/>
	<path class="st15" d="M1446.3,448.6h-4v-30.7h-10.9v-3.5h25.7v3.5h-10.9V448.6z"/>
	<path class="st15" d="M1473.9,415.9c0-0.9,0.2-1.5,0.7-2s1-0.6,1.6-0.6c0.6,0,1.2,0.2,1.6,0.6s0.7,1.1,0.7,1.9s-0.2,1.5-0.7,2
		s-1,0.6-1.6,0.6c-0.7,0-1.2-0.2-1.6-0.6S1473.9,416.8,1473.9,415.9z M1478.1,448.6h-3.9v-25.7h3.9V448.6z"/>
	<path class="st15" d="M1504,448.6V432c0-2.1-0.5-3.7-1.4-4.7s-2.4-1.5-4.5-1.5c-2.7,0-4.7,0.7-5.9,2.2s-1.9,3.9-1.9,7.2v13.5h-3.9
		v-25.7h3.2l0.6,3.5h0.2c0.8-1.3,1.9-2.2,3.4-2.9s3-1,4.8-1c3.1,0,5.4,0.7,7,2.2s2.3,3.9,2.3,7.2v16.8H1504z"/>
	<path class="st15" d="M1527.4,425.9h-6.5v22.7h-3.9v-22.7h-4.6v-1.8l4.6-1.4v-1.4c0-6.3,2.8-9.5,8.3-9.5c1.4,0,3,0.3,4.8,0.8
		l-1,3.1c-1.5-0.5-2.8-0.7-3.8-0.7c-1.5,0-2.6,0.5-3.3,1.5s-1.1,2.5-1.1,4.7v1.7h6.5V425.9z"/>
	<path class="st15" d="M1543.8,422.4c1.1,0,2.2,0.1,3.1,0.3l-0.5,3.6c-1.1-0.2-2-0.4-2.8-0.4c-2.1,0-3.9,0.8-5.3,2.5
		s-2.2,3.8-2.2,6.3v13.8h-3.9v-25.7h3.2l0.4,4.8h0.2c1-1.7,2.1-3,3.4-3.9S1542.2,422.4,1543.8,422.4z"/>
	<path class="st15" d="M1567.5,448.6l-0.8-3.7h-0.2c-1.3,1.6-2.6,2.7-3.8,3.3s-2.9,0.9-4.8,0.9c-2.5,0-4.5-0.7-6-2s-2.2-3.2-2.2-5.6
		c0-5.2,4.1-7.9,12.4-8.2l4.4-0.1v-1.6c0-2-0.4-3.5-1.3-4.5s-2.3-1.4-4.2-1.4c-2.1,0-4.6,0.7-7.3,2l-1.2-3c1.3-0.7,2.7-1.2,4.2-1.6
		s3-0.6,4.5-0.6c3.1,0,5.3,0.7,6.8,2s2.2,3.5,2.2,6.5v17.5H1567.5z M1558.7,445.8c2.4,0,4.3-0.7,5.7-2s2.1-3.2,2.1-5.6V436l-3.9,0.2
		c-3.1,0.1-5.3,0.6-6.7,1.4s-2.1,2.2-2.1,4c0,1.4,0.4,2.5,1.3,3.2S1557.2,445.8,1558.7,445.8z"/>
	<path class="st15" d="M1595,441.6c0,2.4-0.9,4.2-2.7,5.5s-4.3,1.9-7.5,1.9c-3.4,0-6.1-0.5-8-1.6v-3.6c1.2,0.6,2.6,1.1,4,1.5
		s2.8,0.5,4.1,0.5c2,0,3.6-0.3,4.7-1s1.6-1.6,1.6-3c0-1-0.4-1.9-1.3-2.6s-2.6-1.6-5.1-2.5c-2.4-0.9-4.1-1.7-5.1-2.3
		s-1.8-1.4-2.3-2.3s-0.7-1.9-0.7-3c0-2.1,0.9-3.7,2.6-5s4-1.8,7-1.8c2.8,0,5.5,0.6,8.1,1.7l-1.4,3.2c-2.6-1.1-4.9-1.6-7-1.6
		c-1.8,0-3.2,0.3-4.2,0.9s-1.4,1.4-1.4,2.4c0,0.7,0.2,1.3,0.5,1.8s0.9,0.9,1.7,1.4s2.3,1.1,4.5,1.9c3,1.1,5.1,2.2,6.2,3.4
		S1595,439.9,1595,441.6z"/>
	<path class="st15" d="M1609.6,445.8c0.7,0,1.4-0.1,2-0.2s1.1-0.2,1.5-0.3v3c-0.4,0.2-1,0.4-1.9,0.5s-1.6,0.2-2.2,0.2
		c-5,0-7.5-2.6-7.5-7.9v-15.3h-3.7v-1.9l3.7-1.6l1.6-5.5h2.3v6h7.5v3h-7.5V441c0,1.5,0.4,2.7,1.1,3.6S1608.3,445.8,1609.6,445.8z"/>
	<path class="st15" d="M1630,422.4c1.1,0,2.2,0.1,3.1,0.3l-0.5,3.6c-1.1-0.2-2-0.4-2.8-0.4c-2.1,0-3.9,0.8-5.3,2.5s-2.2,3.8-2.2,6.3
		v13.8h-3.9v-25.7h3.2l0.4,4.8h0.2c1-1.7,2.1-3,3.4-3.9S1628.3,422.4,1630,422.4z"/>
	<path class="st15" d="M1641.5,422.9v16.7c0,2.1,0.5,3.7,1.4,4.7s2.4,1.5,4.5,1.5c2.7,0,4.7-0.7,5.9-2.2s1.9-3.9,1.9-7.2v-13.5h3.9
		v25.7h-3.2l-0.6-3.4h-0.2c-0.8,1.3-1.9,2.2-3.3,2.9s-3,1-4.8,1c-3.1,0-5.5-0.7-7-2.2s-2.3-3.9-2.3-7.1v-16.8H1641.5z"/>
	<path class="st15" d="M1677.6,449.1c-3.7,0-6.6-1.1-8.6-3.4s-3.1-5.5-3.1-9.7c0-4.3,1-7.6,3.1-10s5-3.5,8.8-3.5
		c1.2,0,2.5,0.1,3.7,0.4s2.2,0.6,2.9,0.9l-1.2,3.3c-0.9-0.3-1.8-0.6-2.8-0.9s-1.9-0.3-2.7-0.3c-5.2,0-7.8,3.3-7.8,10
		c0,3.2,0.6,5.6,1.9,7.3s3.2,2.5,5.7,2.5c2.1,0,4.3-0.5,6.6-1.4v3.4C1682.3,448.6,1680.2,449.1,1677.6,449.1z"/>
	<path class="st15" d="M1698.4,445.8c0.7,0,1.4-0.1,2-0.2s1.1-0.2,1.5-0.3v3c-0.4,0.2-1,0.4-1.9,0.5s-1.6,0.2-2.2,0.2
		c-5,0-7.5-2.6-7.5-7.9v-15.3h-3.7v-1.9l3.7-1.6l1.6-5.5h2.3v6h7.5v3h-7.5V441c0,1.5,0.4,2.7,1.1,3.6S1697.2,445.8,1698.4,445.8z"/>
	<path class="st15" d="M1710.7,422.9v16.7c0,2.1,0.5,3.7,1.4,4.7s2.4,1.5,4.5,1.5c2.7,0,4.7-0.7,5.9-2.2s1.9-3.9,1.9-7.2v-13.5h3.9
		v25.7h-3.2l-0.6-3.4h-0.2c-0.8,1.3-1.9,2.2-3.3,2.9s-3,1-4.8,1c-3.1,0-5.5-0.7-7-2.2s-2.3-3.9-2.3-7.1v-16.8H1710.7z"/>
	<path class="st15" d="M1748.3,422.4c1.1,0,2.2,0.1,3.1,0.3l-0.5,3.6c-1.1-0.2-2-0.4-2.8-0.4c-2.1,0-3.9,0.8-5.3,2.5
		s-2.2,3.8-2.2,6.3v13.8h-3.9v-25.7h3.2l0.4,4.8h0.2c1-1.7,2.1-3,3.4-3.9S1746.7,422.4,1748.3,422.4z"/>
	<path class="st15" d="M1767,449.1c-3.8,0-6.8-1.2-9-3.5s-3.3-5.5-3.3-9.6c0-4.1,1-7.4,3.1-9.9s4.8-3.7,8.2-3.7
		c3.2,0,5.8,1.1,7.6,3.2s2.8,4.9,2.8,8.4v2.5h-17.7c0.1,3,0.8,5.3,2.3,6.9s3.5,2.3,6.1,2.3c2.8,0,5.5-0.6,8.2-1.7v3.5
		c-1.4,0.6-2.7,1-3.9,1.3S1768.7,449.1,1767,449.1z M1765.9,425.7c-2.1,0-3.7,0.7-4.9,2s-1.9,3.2-2.2,5.6h13.4
		c0-2.5-0.5-4.3-1.6-5.6S1768,425.7,1765.9,425.7z"/>
	<path class="st15" d="M1328.1,506.2l-4.7-15.1c-0.3-0.9-0.9-3-1.7-6.3h-0.2c-0.6,2.7-1.2,4.8-1.6,6.3l-4.9,15h-4.5l-7-25.7h4.1
		c1.7,6.5,2.9,11.4,3.8,14.7s1.4,5.6,1.5,6.8h0.2c0.2-0.9,0.4-2,0.8-3.5s0.7-2.5,1-3.4l4.7-14.7h4.2l4.6,14.7
		c0.9,2.7,1.5,4.9,1.8,6.8h0.2c0.1-0.6,0.2-1.4,0.5-2.6s1.9-7.5,4.9-18.9h4l-7.1,25.7H1328.1z"/>
	<path class="st15" d="M1366.6,493.3c0,4.2-1.1,7.5-3.2,9.8s-5,3.5-8.7,3.5c-2.3,0-4.3-0.5-6.1-1.6s-3.2-2.6-4.1-4.6
		s-1.5-4.4-1.5-7.1c0-4.2,1-7.4,3.1-9.8s5-3.5,8.7-3.5c3.6,0,6.4,1.2,8.6,3.6S1366.6,489.2,1366.6,493.3z M1347.1,493.3
		c0,3.3,0.7,5.8,2,7.5s3.2,2.6,5.8,2.6s4.5-0.9,5.8-2.6s2-4.2,2-7.5c0-3.3-0.7-5.7-2-7.4s-3.3-2.5-5.8-2.5c-2.5,0-4.5,0.8-5.8,2.5
		S1347.1,490,1347.1,493.3z"/>
	<path class="st15" d="M1385.2,480c1.1,0,2.2,0.1,3.1,0.3l-0.5,3.6c-1.1-0.2-2-0.4-2.8-0.4c-2.1,0-3.9,0.8-5.3,2.5s-2.2,3.8-2.2,6.3
		v13.8h-3.9v-25.7h3.2l0.4,4.8h0.2c1-1.7,2.1-3,3.4-3.9S1383.6,480,1385.2,480z"/>
	<path class="st15" d="M1396.9,493c0.7-1,1.7-2.2,3.1-3.8l8.3-8.8h4.6l-10.4,10.9l11.1,14.7h-4.7l-9.1-12.1l-2.9,2.5v9.6h-3.8v-36.5
		h3.8v19.3c0,0.9-0.1,2.2-0.2,4H1396.9z"/>
	<path class="st15" d="M1422.1,506.2h-3.9v-36.5h3.9V506.2z"/>
	<path class="st15" d="M1452.6,493.3c0,4.2-1.1,7.5-3.2,9.8s-5,3.5-8.7,3.5c-2.3,0-4.3-0.5-6.1-1.6s-3.2-2.6-4.1-4.6
		s-1.5-4.4-1.5-7.1c0-4.2,1-7.4,3.1-9.8s5-3.5,8.7-3.5c3.6,0,6.4,1.2,8.6,3.6S1452.6,489.2,1452.6,493.3z M1433,493.3
		c0,3.3,0.7,5.8,2,7.5s3.2,2.6,5.8,2.6s4.5-0.9,5.8-2.6s2-4.2,2-7.5c0-3.3-0.7-5.7-2-7.4s-3.3-2.5-5.8-2.5c-2.5,0-4.5,0.8-5.8,2.5
		S1433,490,1433,493.3z"/>
	<path class="st15" d="M1475.2,506.2l-0.8-3.7h-0.2c-1.3,1.6-2.6,2.7-3.8,3.3s-2.9,0.9-4.8,0.9c-2.5,0-4.5-0.7-6-2s-2.2-3.2-2.2-5.6
		c0-5.2,4.1-7.9,12.4-8.2l4.4-0.1v-1.6c0-2-0.4-3.5-1.3-4.5s-2.3-1.4-4.2-1.4c-2.1,0-4.6,0.7-7.3,2l-1.2-3c1.3-0.7,2.7-1.2,4.2-1.6
		s3-0.6,4.5-0.6c3.1,0,5.3,0.7,6.8,2s2.2,3.5,2.2,6.5v17.5H1475.2z M1466.4,503.4c2.4,0,4.3-0.7,5.7-2s2.1-3.2,2.1-5.6v-2.3
		l-3.9,0.2c-3.1,0.1-5.3,0.6-6.7,1.4s-2.1,2.2-2.1,4c0,1.4,0.4,2.5,1.3,3.2S1464.9,503.4,1466.4,503.4z"/>
	<path class="st15" d="M1503.6,502.7h-0.2c-1.8,2.6-4.5,3.9-8.1,3.9c-3.4,0-6-1.1-7.8-3.4s-2.8-5.6-2.8-9.8s0.9-7.5,2.8-9.9
		s4.5-3.5,7.8-3.5c3.5,0,6.2,1.3,8,3.8h0.3l-0.2-1.9l-0.1-1.8v-10.5h3.9v36.5h-3.2L1503.6,502.7z M1495.8,503.4
		c2.7,0,4.6-0.7,5.8-2.2s1.8-3.8,1.8-7v-0.8c0-3.6-0.6-6.2-1.8-7.8s-3.1-2.3-5.8-2.3c-2.3,0-4,0.9-5.2,2.7s-1.8,4.3-1.8,7.5
		c0,3.3,0.6,5.8,1.8,7.4S1493.4,503.4,1495.8,503.4z"/>
	<path class="st15" d="M1532.1,499.2c0,2.4-0.9,4.2-2.7,5.5s-4.3,1.9-7.5,1.9c-3.4,0-6.1-0.5-8-1.6v-3.6c1.2,0.6,2.6,1.1,4,1.5
		s2.8,0.5,4.1,0.5c2,0,3.6-0.3,4.7-1s1.6-1.6,1.6-3c0-1-0.4-1.9-1.3-2.6s-2.6-1.6-5.1-2.5c-2.4-0.9-4.1-1.7-5.1-2.3
		s-1.8-1.4-2.3-2.3s-0.7-1.9-0.7-3c0-2.1,0.9-3.7,2.6-5s4-1.8,7-1.8c2.8,0,5.5,0.6,8.1,1.7l-1.4,3.2c-2.6-1.1-4.9-1.6-7-1.6
		c-1.8,0-3.2,0.3-4.2,0.9s-1.4,1.4-1.4,2.4c0,0.7,0.2,1.3,0.5,1.8s0.9,0.9,1.7,1.4s2.3,1.1,4.5,1.9c3,1.1,5.1,2.2,6.2,3.4
		S1532.1,497.5,1532.1,499.2z"/>
</g>
<g>
	<path class="st15" d="M463.8,72.5c0,3.7-1.2,6.5-3.5,8.5s-5.6,2.9-9.8,2.9h-3.1v12.2h-7.3V61.8h10.9c4.2,0,7.3,0.9,9.5,2.7
		S463.8,68.9,463.8,72.5z M447.4,77.9h2.4c2.2,0,3.9-0.4,5-1.3s1.7-2.2,1.7-3.9c0-1.7-0.5-3-1.4-3.8s-2.4-1.2-4.4-1.2h-3.3V77.9z"/>
	<path class="st15" d="M476.9,96.1h-7.1V59.6h7.1V96.1z"/>
	<path class="st15" d="M501,96.1l-1.4-3.6h-0.2c-1.2,1.5-2.4,2.6-3.7,3.2s-2.9,0.9-5,0.9c-2.5,0-4.5-0.7-5.9-2.2s-2.2-3.5-2.2-6.1
		c0-2.8,1-4.8,2.9-6.2s4.9-2.1,8.8-2.2l4.5-0.1v-1.1c0-2.7-1.4-4-4.1-4c-2.1,0-4.6,0.6-7.4,1.9l-2.4-4.8c3-1.6,6.4-2.4,10-2.4
		c3.5,0,6.2,0.8,8.1,2.3s2.8,3.9,2.8,7v17.5H501z M498.9,83.9l-2.8,0.1c-2.1,0.1-3.6,0.4-4.6,1.1s-1.5,1.7-1.5,3.1c0,2,1.2,3,3.5,3
		c1.7,0,3-0.5,4-1.4s1.5-2.2,1.5-3.8V83.9z"/>
	<path class="st15" d="M537.5,96.1h-7.1V80.7c0-1.9-0.3-3.3-1-4.3s-1.7-1.4-3.2-1.4c-2,0-3.4,0.7-4.3,2s-1.3,3.6-1.3,6.6v12.3h-7.1
		V69.8h5.5l1,3.4h0.4c0.8-1.3,1.9-2.2,3.3-2.9s3-1,4.8-1c3,0,5.4,0.8,6.9,2.5s2.4,4,2.4,7.1V96.1z"/>
	<path class="st15" d="M569.1,96.1h-7.1V80.7c0-1.9-0.3-3.3-1-4.3s-1.7-1.4-3.2-1.4c-2,0-3.4,0.7-4.3,2s-1.3,3.6-1.3,6.6v12.3h-7.1
		V69.8h5.5l1,3.4h0.4c0.8-1.3,1.9-2.2,3.3-2.9s3-1,4.8-1c3,0,5.4,0.8,6.9,2.5s2.4,4,2.4,7.1V96.1z"/>
	<path class="st15" d="M576.1,63.1c0-2.3,1.3-3.5,3.9-3.5s3.9,1.2,3.9,3.5c0,1.1-0.3,2-1,2.6s-1.6,0.9-2.9,0.9
		C577.4,66.6,576.1,65.4,576.1,63.1z M583.6,96.1h-7.1V69.8h7.1V96.1z"/>
	<path class="st15" d="M615.3,96.1h-7.1V80.7c0-1.9-0.3-3.3-1-4.3s-1.7-1.4-3.2-1.4c-2,0-3.4,0.7-4.3,2s-1.3,3.6-1.3,6.6v12.3h-7.1
		V69.8h5.5l1,3.4h0.4c0.8-1.3,1.9-2.2,3.3-2.9s3-1,4.8-1c3,0,5.4,0.8,6.9,2.5s2.4,4,2.4,7.1V96.1z"/>
	<path class="st15" d="M645.4,69.8v3.6l-4.1,1.1c0.8,1.2,1.1,2.5,1.1,3.9c0,2.8-1,5-2.9,6.6s-4.7,2.4-8.2,2.4l-1.3-0.1l-1.1-0.1
		c-0.7,0.6-1.1,1.2-1.1,1.9c0,1,1.3,1.5,3.9,1.5h4.5c2.9,0,5.1,0.6,6.6,1.9s2.3,3,2.3,5.4c0,3.1-1.3,5.4-3.8,7.1s-6.2,2.5-11,2.5
		c-3.7,0-6.4-0.6-8.4-1.9s-2.9-3.1-2.9-5.4c0-1.6,0.5-2.9,1.5-4s2.4-1.8,4.3-2.3c-0.7-0.3-1.4-0.8-1.9-1.5s-0.8-1.5-0.8-2.3
		c0-1,0.3-1.8,0.9-2.5s1.4-1.3,2.5-2c-1.4-0.6-2.5-1.5-3.3-2.9s-1.2-2.9-1.2-4.6c0-2.9,0.9-5.1,2.8-6.6s4.5-2.3,8-2.3
		c0.7,0,1.6,0.1,2.6,0.2s1.7,0.2,1.9,0.3H645.4z M625.2,99.8c0,1,0.5,1.8,1.4,2.3s2.3,0.8,4,0.8c2.6,0,4.6-0.4,6-1.1
		s2.2-1.7,2.2-2.9c0-1-0.4-1.7-1.3-2s-2.2-0.6-4-0.6h-3.7c-1.3,0-2.4,0.3-3.3,0.9S625.2,98.7,625.2,99.8z M627.8,78.4
		c0,1.4,0.3,2.5,1,3.4s1.6,1.2,3,1.2c1.3,0,2.3-0.4,3-1.2s0.9-2,0.9-3.4c0-3.2-1.3-4.7-3.9-4.7C629.1,73.7,627.8,75.3,627.8,78.4z"
		/>
	<path class="st15" d="M54.5,150.9c0.7,0,1.4-0.1,2-0.2s1.1-0.2,1.5-0.3v3c-0.4,0.2-1,0.4-1.9,0.5s-1.6,0.2-2.2,0.2
		c-5,0-7.5-2.6-7.5-7.9V131h-3.7v-1.9l3.7-1.6l1.6-5.5h2.3v6h7.5v3h-7.5v15.1c0,1.5,0.4,2.7,1.1,3.6S53.3,150.9,54.5,150.9z"/>
	<path class="st15" d="M80.8,153.7V137c0-2.1-0.5-3.7-1.4-4.7s-2.4-1.5-4.5-1.5c-2.7,0-4.7,0.7-5.9,2.2s-1.9,3.9-1.9,7.2v13.4h-3.9
		v-36.5h3.9v11c0,1.3-0.1,2.4-0.2,3.3h0.2c0.8-1.2,1.9-2.2,3.3-2.9s3-1.1,4.8-1.1c3.1,0,5.5,0.7,7.1,2.2s2.4,3.9,2.4,7.1v16.8H80.8z
		"/>
	<path class="st15" d="M103.5,154.1c-3.8,0-6.8-1.2-9-3.5s-3.3-5.5-3.3-9.6c0-4.1,1-7.4,3.1-9.9s4.8-3.7,8.2-3.7
		c3.2,0,5.8,1.1,7.6,3.2s2.8,4.9,2.8,8.4v2.5H95.2c0.1,3,0.8,5.3,2.3,6.9s3.5,2.3,6.1,2.3c2.8,0,5.5-0.6,8.2-1.7v3.5
		c-1.4,0.6-2.7,1-3.9,1.3S105.2,154.1,103.5,154.1z M102.4,130.8c-2.1,0-3.7,0.7-4.9,2s-1.9,3.2-2.2,5.6h13.4c0-2.5-0.5-4.3-1.6-5.6
		S104.5,130.8,102.4,130.8z"/>
	<path class="st15" d="M147.8,153.7l-0.8-3.7h-0.2c-1.3,1.6-2.6,2.7-3.8,3.3s-2.9,0.9-4.8,0.9c-2.5,0-4.5-0.7-6-2s-2.2-3.2-2.2-5.6
		c0-5.2,4.1-7.9,12.4-8.2l4.4-0.1v-1.6c0-2-0.4-3.5-1.3-4.5s-2.3-1.4-4.2-1.4c-2.1,0-4.6,0.7-7.3,2l-1.2-3c1.3-0.7,2.7-1.2,4.2-1.6
		s3-0.6,4.5-0.6c3.1,0,5.3,0.7,6.8,2s2.2,3.5,2.2,6.5v17.5H147.8z M139,150.9c2.4,0,4.3-0.7,5.7-2s2.1-3.2,2.1-5.6V141l-3.9,0.2
		c-3.1,0.1-5.3,0.6-6.7,1.4s-2.1,2.2-2.1,4c0,1.4,0.4,2.5,1.3,3.2S137.5,150.9,139,150.9z"/>
	<path class="st15" d="M170.5,127.5c1.1,0,2.2,0.1,3.1,0.3l-0.5,3.6c-1.1-0.2-2-0.4-2.8-0.4c-2.1,0-3.9,0.8-5.3,2.5
		s-2.2,3.8-2.2,6.3v13.8h-3.9V128h3.2l0.4,4.8h0.2c1-1.7,2.1-3,3.4-3.9S168.8,127.5,170.5,127.5z"/>
	<path class="st15" d="M190,127.5c1.1,0,2.2,0.1,3.1,0.3l-0.5,3.6c-1.1-0.2-2-0.4-2.8-0.4c-2.1,0-3.9,0.8-5.3,2.5s-2.2,3.8-2.2,6.3
		v13.8h-3.9V128h3.2l0.4,4.8h0.2c1-1.7,2.1-3,3.4-3.9S188.4,127.5,190,127.5z"/>
	<path class="st15" d="M213.7,153.7l-0.8-3.7h-0.2c-1.3,1.6-2.6,2.7-3.8,3.3s-2.9,0.9-4.8,0.9c-2.5,0-4.5-0.7-6-2s-2.2-3.2-2.2-5.6
		c0-5.2,4.1-7.9,12.4-8.2l4.4-0.1v-1.6c0-2-0.4-3.5-1.3-4.5s-2.3-1.4-4.2-1.4c-2.1,0-4.6,0.7-7.3,2l-1.2-3c1.3-0.7,2.7-1.2,4.2-1.6
		s3-0.6,4.5-0.6c3.1,0,5.3,0.7,6.8,2s2.2,3.5,2.2,6.5v17.5H213.7z M204.9,150.9c2.4,0,4.3-0.7,5.7-2s2.1-3.2,2.1-5.6V141l-3.9,0.2
		c-3.1,0.1-5.3,0.6-6.7,1.4s-2.1,2.2-2.1,4c0,1.4,0.4,2.5,1.3,3.2S203.4,150.9,204.9,150.9z"/>
	<path class="st15" d="M242.2,153.7V137c0-2.1-0.5-3.7-1.4-4.7s-2.4-1.5-4.5-1.5c-2.7,0-4.7,0.7-5.9,2.2s-1.9,3.9-1.9,7.2v13.5h-3.9
		V128h3.2l0.6,3.5h0.2c0.8-1.3,1.9-2.2,3.4-2.9s3-1,4.8-1c3.1,0,5.4,0.7,7,2.2s2.3,3.9,2.3,7.2v16.8H242.2z"/>
	<path class="st15" d="M275.1,128v2.5l-4.8,0.6c0.4,0.5,0.8,1.3,1.2,2.1s0.5,1.9,0.5,3c0,2.5-0.9,4.5-2.6,6s-4.1,2.3-7.1,2.3
		c-0.8,0-1.5-0.1-2.2-0.2c-1.7,0.9-2.5,2-2.5,3.3c0,0.7,0.3,1.2,0.9,1.6s1.6,0.5,3,0.5h4.5c2.8,0,4.9,0.6,6.4,1.8s2.2,2.9,2.2,5.1
		c0,2.8-1.1,5-3.4,6.5s-5.6,2.2-10,2.2c-3.4,0-5.9-0.6-7.8-1.9s-2.7-3-2.7-5.3c0-1.6,0.5-2.9,1.5-4.1s2.4-1.9,4.2-2.3
		c-0.7-0.3-1.2-0.8-1.7-1.4s-0.7-1.4-0.7-2.2c0-0.9,0.3-1.8,0.8-2.5s1.3-1.4,2.4-2c-1.3-0.5-2.4-1.5-3.2-2.8s-1.3-2.8-1.3-4.5
		c0-2.8,0.8-5,2.5-6.5s4.1-2.3,7.2-2.3c1.3,0,2.6,0.2,3.6,0.5H275.1z M254.6,158c0,1.4,0.6,2.4,1.8,3.2s2.9,1.1,5,1.1
		c3.3,0,5.7-0.5,7.3-1.5s2.4-2.3,2.4-4c0-1.4-0.4-2.4-1.3-2.9s-2.5-0.8-4.9-0.8h-4.7c-1.8,0-3.1,0.4-4.1,1.3S254.6,156.4,254.6,158z
		 M256.7,136.2c0,1.8,0.5,3.2,1.5,4.1s2.4,1.4,4.2,1.4c3.8,0,5.7-1.8,5.7-5.5c0-3.9-1.9-5.8-5.8-5.8c-1.8,0-3.2,0.5-4.2,1.5
		S256.7,134.3,256.7,136.2z"/>
	<path class="st15" d="M291.2,154.1c-3.8,0-6.8-1.2-9-3.5s-3.3-5.5-3.3-9.6c0-4.1,1-7.4,3.1-9.9s4.8-3.7,8.2-3.7
		c3.2,0,5.8,1.1,7.6,3.2s2.8,4.9,2.8,8.4v2.5H283c0.1,3,0.8,5.3,2.3,6.9s3.5,2.3,6.1,2.3c2.8,0,5.5-0.6,8.2-1.7v3.5
		c-1.4,0.6-2.7,1-3.9,1.3S293,154.1,291.2,154.1z M290.2,130.8c-2.1,0-3.7,0.7-4.9,2s-1.9,3.2-2.2,5.6h13.4c0-2.5-0.5-4.3-1.6-5.6
		S292.2,130.8,290.2,130.8z"/>
	<path class="st15" d="M340,153.7v-16.7c0-2-0.4-3.6-1.3-4.6s-2.2-1.5-4.1-1.5c-2.4,0-4.2,0.7-5.4,2.1s-1.7,3.5-1.7,6.4v14.3h-3.9
		v-16.7c0-2-0.4-3.6-1.3-4.6s-2.2-1.5-4.1-1.5c-2.4,0-4.2,0.7-5.4,2.2s-1.7,3.9-1.7,7.2v13.5h-3.9V128h3.2l0.6,3.5h0.2
		c0.7-1.3,1.8-2.2,3.1-2.9s2.8-1.1,4.5-1.1c4,0,6.6,1.5,7.9,4.4h0.2c0.8-1.3,1.9-2.4,3.3-3.2s3.1-1.2,5-1.2c2.9,0,5.1,0.7,6.5,2.2
		s2.2,3.9,2.2,7.2v16.8H340z"/>
	<path class="st15" d="M362.8,154.1c-3.8,0-6.8-1.2-9-3.5s-3.3-5.5-3.3-9.6c0-4.1,1-7.4,3.1-9.9s4.8-3.7,8.2-3.7
		c3.2,0,5.8,1.1,7.6,3.2s2.8,4.9,2.8,8.4v2.5h-17.7c0.1,3,0.8,5.3,2.3,6.9s3.5,2.3,6.1,2.3c2.8,0,5.5-0.6,8.2-1.7v3.5
		c-1.4,0.6-2.7,1-3.9,1.3S364.5,154.1,362.8,154.1z M361.8,130.8c-2.1,0-3.7,0.7-4.9,2s-1.9,3.2-2.2,5.6h13.4c0-2.5-0.5-4.3-1.6-5.6
		S363.8,130.8,361.8,130.8z"/>
	<path class="st15" d="M396.5,153.7V137c0-2.1-0.5-3.7-1.4-4.7s-2.4-1.5-4.5-1.5c-2.7,0-4.7,0.7-5.9,2.2s-1.9,3.9-1.9,7.2v13.5h-3.9
		V128h3.2l0.6,3.5h0.2c0.8-1.3,1.9-2.2,3.4-2.9s3-1,4.8-1c3.1,0,5.4,0.7,7,2.2s2.3,3.9,2.3,7.2v16.8H396.5z"/>
	<path class="st15" d="M416.6,150.9c0.7,0,1.4-0.1,2-0.2s1.1-0.2,1.5-0.3v3c-0.4,0.2-1,0.4-1.9,0.5s-1.6,0.2-2.2,0.2
		c-5,0-7.5-2.6-7.5-7.9V131h-3.7v-1.9l3.7-1.6l1.6-5.5h2.3v6h7.5v3h-7.5v15.1c0,1.5,0.4,2.7,1.1,3.6S415.4,150.9,416.6,150.9z"/>
	<path class="st15" d="M459.9,140.8c0,4.2-1.1,7.5-3.2,9.8s-5,3.5-8.7,3.5c-2.3,0-4.3-0.5-6.1-1.6s-3.2-2.6-4.1-4.6
		s-1.5-4.4-1.5-7.1c0-4.2,1-7.4,3.1-9.8s5-3.5,8.7-3.5c3.6,0,6.4,1.2,8.6,3.6S459.9,136.7,459.9,140.8z M440.4,140.8
		c0,3.3,0.7,5.8,2,7.5s3.2,2.6,5.8,2.6s4.5-0.9,5.8-2.6s2-4.2,2-7.5c0-3.3-0.7-5.7-2-7.4s-3.3-2.5-5.8-2.5c-2.5,0-4.5,0.8-5.8,2.5
		S440.4,137.5,440.4,140.8z"/>
	<path class="st15" d="M478.3,131h-6.5v22.7h-3.9V131h-4.6v-1.8l4.6-1.4v-1.4c0-6.3,2.8-9.5,8.3-9.5c1.4,0,3,0.3,4.8,0.8l-1,3.1
		c-1.5-0.5-2.8-0.7-3.8-0.7c-1.5,0-2.6,0.5-3.3,1.5s-1.1,2.5-1.1,4.7v1.7h6.5V131z"/>
	<path class="st15" d="M491.4,128h4.2l5.6,14.6c1.2,3.3,2,5.8,2.3,7.2h0.2c0.2-0.8,0.6-2.2,1.3-4.1s2.8-7.9,6.4-17.8h4.2l-11,29.3
		c-1.1,2.9-2.4,4.9-3.8,6.2s-3.3,1.8-5.4,1.8c-1.2,0-2.4-0.1-3.5-0.4v-3.1c0.9,0.2,1.8,0.3,2.9,0.3c2.7,0,4.6-1.5,5.7-4.5l1.4-3.7
		L491.4,128z"/>
	<path class="st15" d="M541.8,140.8c0,4.2-1.1,7.5-3.2,9.8s-5,3.5-8.7,3.5c-2.3,0-4.3-0.5-6.1-1.6s-3.2-2.6-4.1-4.6
		s-1.5-4.4-1.5-7.1c0-4.2,1-7.4,3.1-9.8s5-3.5,8.7-3.5c3.6,0,6.4,1.2,8.6,3.6S541.8,136.7,541.8,140.8z M522.3,140.8
		c0,3.3,0.7,5.8,2,7.5s3.2,2.6,5.8,2.6s4.5-0.9,5.8-2.6s2-4.2,2-7.5c0-3.3-0.7-5.7-2-7.4s-3.3-2.5-5.8-2.5c-2.5,0-4.5,0.8-5.8,2.5
		S522.3,137.5,522.3,140.8z"/>
	<path class="st15" d="M552.3,128v16.7c0,2.1,0.5,3.7,1.4,4.7s2.4,1.5,4.5,1.5c2.7,0,4.7-0.7,5.9-2.2s1.9-3.9,1.9-7.2V128h3.9v25.7
		h-3.2l-0.6-3.4h-0.2c-0.8,1.3-1.9,2.2-3.3,2.9s-3,1-4.8,1c-3.1,0-5.5-0.7-7-2.2s-2.3-3.9-2.3-7.1V128H552.3z"/>
	<path class="st15" d="M589.8,127.5c1.1,0,2.2,0.1,3.1,0.3l-0.5,3.6c-1.1-0.2-2-0.4-2.8-0.4c-2.1,0-3.9,0.8-5.3,2.5
		s-2.2,3.8-2.2,6.3v13.8h-3.9V128h3.2l0.4,4.8h0.2c1-1.7,2.1-3,3.4-3.9S588.2,127.5,589.8,127.5z"/>
	<path class="st15" d="M610.8,153.7v-34.3h4v34.3H610.8z"/>
	<path class="st15" d="M634.7,153.7h-4v-30.7h-10.9v-3.5h25.7v3.5h-10.9V153.7z"/>
	<path class="st15" d="M97.2,178.6c0-0.9,0.2-1.5,0.7-2s1-0.6,1.6-0.6c0.6,0,1.2,0.2,1.6,0.6s0.7,1.1,0.7,1.9s-0.2,1.5-0.7,2
		s-1,0.6-1.6,0.6c-0.7,0-1.2-0.2-1.6-0.6S97.2,179.5,97.2,178.6z M101.5,211.3h-3.9v-25.7h3.9V211.3z"/>
	<path class="st15" d="M127.3,211.3v-16.6c0-2.1-0.5-3.7-1.4-4.7s-2.4-1.5-4.5-1.5c-2.7,0-4.7,0.7-5.9,2.2s-1.9,3.9-1.9,7.2v13.5
		h-3.9v-25.7h3.2l0.6,3.5h0.2c0.8-1.3,1.9-2.2,3.4-2.9s3-1,4.8-1c3.1,0,5.4,0.7,7,2.2s2.3,3.9,2.3,7.2v16.8H127.3z"/>
	<path class="st15" d="M150.7,188.6h-6.5v22.7h-3.9v-22.7h-4.6v-1.8l4.6-1.4V184c0-6.3,2.8-9.5,8.3-9.5c1.4,0,3,0.3,4.8,0.8l-1,3.1
		c-1.5-0.5-2.8-0.7-3.8-0.7c-1.5,0-2.6,0.5-3.3,1.5s-1.1,2.5-1.1,4.7v1.7h6.5V188.6z"/>
	<path class="st15" d="M167.1,185.1c1.1,0,2.2,0.1,3.1,0.3l-0.5,3.6c-1.1-0.2-2-0.4-2.8-0.4c-2.1,0-3.9,0.8-5.3,2.5
		s-2.2,3.8-2.2,6.3v13.8h-3.9v-25.7h3.2l0.4,4.8h0.2c1-1.7,2.1-3,3.4-3.9S165.5,185.1,167.1,185.1z"/>
	<path class="st15" d="M190.8,211.3l-0.8-3.7h-0.2c-1.3,1.6-2.6,2.7-3.8,3.3s-2.9,0.9-4.8,0.9c-2.5,0-4.5-0.7-6-2s-2.2-3.2-2.2-5.6
		c0-5.2,4.1-7.9,12.4-8.2l4.4-0.1v-1.6c0-2-0.4-3.5-1.3-4.5s-2.3-1.4-4.2-1.4c-2.1,0-4.6,0.7-7.3,2l-1.2-3c1.3-0.7,2.7-1.2,4.2-1.6
		s3-0.6,4.5-0.6c3.1,0,5.3,0.7,6.8,2s2.2,3.5,2.2,6.5v17.5H190.8z M182,208.5c2.4,0,4.3-0.7,5.7-2s2.1-3.2,2.1-5.6v-2.3l-3.9,0.2
		c-3.1,0.1-5.3,0.6-6.7,1.4s-2.1,2.2-2.1,4c0,1.4,0.4,2.5,1.3,3.2S180.5,208.5,182,208.5z"/>
	<path class="st15" d="M218.3,204.2c0,2.4-0.9,4.2-2.7,5.5s-4.3,1.9-7.5,1.9c-3.4,0-6.1-0.5-8-1.6v-3.6c1.2,0.6,2.6,1.1,4,1.5
		s2.8,0.5,4.1,0.5c2,0,3.6-0.3,4.7-1s1.6-1.6,1.6-3c0-1-0.4-1.9-1.3-2.6s-2.6-1.6-5.1-2.5c-2.4-0.9-4.1-1.7-5.1-2.3
		s-1.8-1.4-2.3-2.3s-0.7-1.9-0.7-3c0-2.1,0.9-3.7,2.6-5s4-1.8,7-1.8c2.8,0,5.5,0.6,8.1,1.7l-1.4,3.2c-2.6-1.1-4.9-1.6-7-1.6
		c-1.8,0-3.2,0.3-4.2,0.9s-1.4,1.4-1.4,2.4c0,0.7,0.2,1.3,0.5,1.8s0.9,0.9,1.7,1.4s2.3,1.1,4.5,1.9c3,1.1,5.1,2.2,6.2,3.4
		S218.3,202.5,218.3,204.2z"/>
	<path class="st15" d="M232.9,208.5c0.7,0,1.4-0.1,2-0.2s1.1-0.2,1.5-0.3v3c-0.4,0.2-1,0.4-1.9,0.5s-1.6,0.2-2.2,0.2
		c-5,0-7.5-2.6-7.5-7.9v-15.3h-3.7v-1.9l3.7-1.6l1.6-5.5h2.3v6h7.5v3h-7.5v15.1c0,1.5,0.4,2.7,1.1,3.6S231.6,208.5,232.9,208.5z"/>
	<path class="st15" d="M253.3,185.1c1.1,0,2.2,0.1,3.1,0.3l-0.5,3.6c-1.1-0.2-2-0.4-2.8-0.4c-2.1,0-3.9,0.8-5.3,2.5
		s-2.2,3.8-2.2,6.3v13.8h-3.9v-25.7h3.2l0.4,4.8h0.2c1-1.7,2.1-3,3.4-3.9S251.7,185.1,253.3,185.1z"/>
	<path class="st15" d="M264.8,185.6v16.7c0,2.1,0.5,3.7,1.4,4.7s2.4,1.5,4.5,1.5c2.7,0,4.7-0.7,5.9-2.2s1.9-3.9,1.9-7.2v-13.5h3.9
		v25.7h-3.2l-0.6-3.4h-0.2c-0.8,1.3-1.9,2.2-3.3,2.9s-3,1-4.8,1c-3.1,0-5.5-0.7-7-2.2s-2.3-3.9-2.3-7.1v-16.8H264.8z"/>
	<path class="st15" d="M300.9,211.7c-3.7,0-6.6-1.1-8.6-3.4s-3.1-5.5-3.1-9.7c0-4.3,1-7.6,3.1-10s5-3.5,8.8-3.5
		c1.2,0,2.5,0.1,3.7,0.4s2.2,0.6,2.9,0.9l-1.2,3.3c-0.9-0.3-1.8-0.6-2.8-0.9s-1.9-0.3-2.7-0.3c-5.2,0-7.8,3.3-7.8,10
		c0,3.2,0.6,5.6,1.9,7.3s3.2,2.5,5.7,2.5c2.1,0,4.3-0.5,6.6-1.4v3.4C305.7,211.3,303.5,211.7,300.9,211.7z"/>
	<path class="st15" d="M321.8,208.5c0.7,0,1.4-0.1,2-0.2s1.1-0.2,1.5-0.3v3c-0.4,0.2-1,0.4-1.9,0.5s-1.6,0.2-2.2,0.2
		c-5,0-7.5-2.6-7.5-7.9v-15.3h-3.7v-1.9l3.7-1.6l1.6-5.5h2.3v6h7.5v3h-7.5v15.1c0,1.5,0.4,2.7,1.1,3.6S320.5,208.5,321.8,208.5z"/>
	<path class="st15" d="M334.1,185.6v16.7c0,2.1,0.5,3.7,1.4,4.7s2.4,1.5,4.5,1.5c2.7,0,4.7-0.7,5.9-2.2s1.9-3.9,1.9-7.2v-13.5h3.9
		v25.7h-3.2l-0.6-3.4h-0.2c-0.8,1.3-1.9,2.2-3.3,2.9s-3,1-4.8,1c-3.1,0-5.5-0.7-7-2.2s-2.3-3.9-2.3-7.1v-16.8H334.1z"/>
	<path class="st15" d="M371.6,185.1c1.1,0,2.2,0.1,3.1,0.3l-0.5,3.6c-1.1-0.2-2-0.4-2.8-0.4c-2.1,0-3.9,0.8-5.3,2.5
		s-2.2,3.8-2.2,6.3v13.8h-3.9v-25.7h3.2l0.4,4.8h0.2c1-1.7,2.1-3,3.4-3.9S370,185.1,371.6,185.1z"/>
	<path class="st15" d="M390.3,211.7c-3.8,0-6.8-1.2-9-3.5s-3.3-5.5-3.3-9.6c0-4.1,1-7.4,3.1-9.9s4.8-3.7,8.2-3.7
		c3.2,0,5.8,1.1,7.6,3.2s2.8,4.9,2.8,8.4v2.5h-17.7c0.1,3,0.8,5.3,2.3,6.9s3.5,2.3,6.1,2.3c2.8,0,5.5-0.6,8.2-1.7v3.5
		c-1.4,0.6-2.7,1-3.9,1.3S392.1,211.7,390.3,211.7z M389.3,188.4c-2.1,0-3.7,0.7-4.9,2s-1.9,3.2-2.2,5.6h13.4c0-2.5-0.5-4.3-1.6-5.6
		S391.3,188.4,389.3,188.4z"/>
	<path class="st15" d="M439.8,211.3l-4.7-15.1c-0.3-0.9-0.9-3-1.7-6.3h-0.2c-0.6,2.7-1.2,4.8-1.6,6.3l-4.9,15h-4.5l-7-25.7h4.1
		c1.7,6.5,2.9,11.4,3.8,14.7s1.4,5.6,1.5,6.8h0.2c0.2-0.9,0.4-2,0.8-3.5s0.7-2.5,1-3.4l4.7-14.7h4.2l4.6,14.7
		c0.9,2.7,1.5,4.9,1.8,6.8h0.2c0.1-0.6,0.2-1.4,0.5-2.6s1.9-7.5,4.9-18.9h4l-7.1,25.7H439.8z"/>
	<path class="st15" d="M478.4,198.4c0,4.2-1.1,7.5-3.2,9.8s-5,3.5-8.7,3.5c-2.3,0-4.3-0.5-6.1-1.6s-3.2-2.6-4.1-4.6
		s-1.5-4.4-1.5-7.1c0-4.2,1-7.4,3.1-9.8s5-3.5,8.7-3.5c3.6,0,6.4,1.2,8.6,3.6S478.4,194.3,478.4,198.4z M458.8,198.4
		c0,3.3,0.7,5.8,2,7.5s3.2,2.6,5.8,2.6s4.5-0.9,5.8-2.6s2-4.2,2-7.5c0-3.3-0.7-5.7-2-7.4s-3.3-2.5-5.8-2.5c-2.5,0-4.5,0.8-5.8,2.5
		S458.8,195.1,458.8,198.4z"/>
	<path class="st15" d="M496.9,185.1c1.1,0,2.2,0.1,3.1,0.3l-0.5,3.6c-1.1-0.2-2-0.4-2.8-0.4c-2.1,0-3.9,0.8-5.3,2.5
		s-2.2,3.8-2.2,6.3v13.8h-3.9v-25.7h3.2l0.4,4.8h0.2c1-1.7,2.1-3,3.4-3.9S495.3,185.1,496.9,185.1z"/>
	<path class="st15" d="M508.6,198.1c0.7-1,1.7-2.2,3.1-3.8l8.3-8.8h4.6l-10.4,10.9l11.1,14.7h-4.7l-9.1-12.1l-2.9,2.5v9.6h-3.8
		v-36.5h3.8v19.3c0,0.9-0.1,2.2-0.2,4H508.6z"/>
	<path class="st15" d="M533.9,211.3H530v-36.5h3.9V211.3z"/>
	<path class="st15" d="M564.3,198.4c0,4.2-1.1,7.5-3.2,9.8s-5,3.5-8.7,3.5c-2.3,0-4.3-0.5-6.1-1.6s-3.2-2.6-4.1-4.6
		s-1.5-4.4-1.5-7.1c0-4.2,1-7.4,3.1-9.8s5-3.5,8.7-3.5c3.6,0,6.4,1.2,8.6,3.6S564.3,194.3,564.3,198.4z M544.7,198.4
		c0,3.3,0.7,5.8,2,7.5s3.2,2.6,5.8,2.6s4.5-0.9,5.8-2.6s2-4.2,2-7.5c0-3.3-0.7-5.7-2-7.4s-3.3-2.5-5.8-2.5c-2.5,0-4.5,0.8-5.8,2.5
		S544.7,195.1,544.7,198.4z"/>
	<path class="st15" d="M586.9,211.3l-0.8-3.7H586c-1.3,1.6-2.6,2.7-3.8,3.3s-2.9,0.9-4.8,0.9c-2.5,0-4.5-0.7-6-2s-2.2-3.2-2.2-5.6
		c0-5.2,4.1-7.9,12.4-8.2l4.4-0.1v-1.6c0-2-0.4-3.5-1.3-4.5s-2.3-1.4-4.2-1.4c-2.1,0-4.6,0.7-7.3,2l-1.2-3c1.3-0.7,2.7-1.2,4.2-1.6
		s3-0.6,4.5-0.6c3.1,0,5.3,0.7,6.8,2s2.2,3.5,2.2,6.5v17.5H586.9z M578.1,208.5c2.4,0,4.3-0.7,5.7-2s2.1-3.2,2.1-5.6v-2.3l-3.9,0.2
		c-3.1,0.1-5.3,0.6-6.7,1.4s-2.1,2.2-2.1,4c0,1.4,0.4,2.5,1.3,3.2S576.6,208.5,578.1,208.5z"/>
	<path class="st15" d="M615.3,207.8h-0.2c-1.8,2.6-4.5,3.9-8.1,3.9c-3.4,0-6-1.1-7.8-3.4s-2.8-5.6-2.8-9.8s0.9-7.5,2.8-9.9
		s4.5-3.5,7.8-3.5c3.5,0,6.2,1.3,8,3.8h0.3l-0.2-1.9l-0.1-1.8v-10.5h3.9v36.5h-3.2L615.3,207.8z M607.5,208.5c2.7,0,4.6-0.7,5.8-2.2
		s1.8-3.8,1.8-7v-0.8c0-3.6-0.6-6.2-1.8-7.8s-3.1-2.3-5.8-2.3c-2.3,0-4,0.9-5.2,2.7s-1.8,4.3-1.8,7.5c0,3.3,0.6,5.8,1.8,7.4
		S605.2,208.5,607.5,208.5z"/>
	<path class="st15" d="M643.8,204.2c0,2.4-0.9,4.2-2.7,5.5s-4.3,1.9-7.5,1.9c-3.4,0-6.1-0.5-8-1.6v-3.6c1.2,0.6,2.6,1.1,4,1.5
		s2.8,0.5,4.1,0.5c2,0,3.6-0.3,4.7-1s1.6-1.6,1.6-3c0-1-0.4-1.9-1.3-2.6s-2.6-1.6-5.1-2.5c-2.4-0.9-4.1-1.7-5.1-2.3
		s-1.8-1.4-2.3-2.3s-0.7-1.9-0.7-3c0-2.1,0.9-3.7,2.6-5s4-1.8,7-1.8c2.8,0,5.5,0.6,8.1,1.7l-1.4,3.2c-2.6-1.1-4.9-1.6-7-1.6
		c-1.8,0-3.2,0.3-4.2,0.9s-1.4,1.4-1.4,2.4c0,0.7,0.2,1.3,0.5,1.8s0.9,0.9,1.7,1.4s2.3,1.1,4.5,1.9c3,1.1,5.1,2.2,6.2,3.4
		S643.8,202.5,643.8,204.2z"/>
</g>
<g>
	<path class="st15" d="M438.5,376.3c0,5.7-1.4,10-4.2,13.1s-6.8,4.6-12.1,4.6s-9.3-1.5-12.1-4.6s-4.2-7.4-4.2-13.1
		s1.4-10.1,4.2-13.1s6.9-4.5,12.1-4.5s9.3,1.5,12.1,4.5S438.5,370.7,438.5,376.3z M413.5,376.3c0,3.8,0.7,6.7,2.2,8.6
		s3.6,2.9,6.5,2.9c5.8,0,8.7-3.9,8.7-11.6c0-7.7-2.9-11.6-8.6-11.6c-2.9,0-5.1,1-6.5,2.9S413.5,372.5,413.5,376.3z"/>
	<path class="st15" d="M459.5,394c-3.1,0-5.5-1.1-7.2-3.4h-0.4c0.3,2.2,0.4,3.5,0.4,3.8v10.6h-7.1v-37.7h5.8l1,3.4h0.3
		c1.7-2.6,4.1-3.9,7.4-3.9c3.1,0,5.5,1.2,7.3,3.6s2.6,5.7,2.6,10c0,2.8-0.4,5.2-1.2,7.3s-2,3.6-3.5,4.7S461.5,394,459.5,394z
		 M457.4,372.6c-1.8,0-3.1,0.5-3.9,1.6s-1.2,2.9-1.3,5.4v0.8c0,2.8,0.4,4.8,1.3,6s2.2,1.8,4,1.8c3.2,0,4.8-2.6,4.8-7.9
		c0-2.6-0.4-4.5-1.2-5.8S459,372.6,457.4,372.6z"/>
	<path class="st15" d="M487.3,394c-4.2,0-7.5-1.2-9.9-3.5s-3.6-5.6-3.6-9.9c0-4.4,1.1-7.8,3.3-10.2s5.2-3.6,9.1-3.6
		c3.7,0,6.6,1.1,8.6,3.2s3.1,5,3.1,8.7v3.5h-16.9c0.1,2,0.7,3.6,1.8,4.8s2.7,1.7,4.7,1.7c1.6,0,3.1-0.2,4.5-0.5s2.9-0.9,4.4-1.6v5.5
		c-1.3,0.6-2.6,1.1-4,1.4S489.4,394,487.3,394z M486.3,371.9c-1.5,0-2.7,0.5-3.6,1.4s-1.4,2.3-1.5,4.1h10c0-1.8-0.5-3.1-1.4-4.1
		S487.8,371.9,486.3,371.9z"/>
	<path class="st15" d="M518.4,366.8c1,0,1.8,0.1,2.4,0.2l-0.5,6.7c-0.6-0.2-1.3-0.2-2.1-0.2c-2.3,0-4.1,0.6-5.3,1.8
		s-1.9,2.8-1.9,4.9v13.3h-7.1v-26.2h5.4l1.1,4.4h0.4c0.8-1.5,1.9-2.7,3.3-3.6S516.8,366.8,518.4,366.8z"/>
	<path class="st15" d="M542.3,393.5l-1.4-3.6h-0.2c-1.2,1.5-2.4,2.6-3.7,3.2s-2.9,0.9-5,0.9c-2.5,0-4.5-0.7-5.9-2.2
		s-2.2-3.5-2.2-6.1c0-2.8,1-4.8,2.9-6.2s4.9-2.1,8.8-2.2l4.5-0.1v-1.1c0-2.7-1.4-4-4.1-4c-2.1,0-4.6,0.6-7.4,1.9l-2.4-4.8
		c3-1.6,6.4-2.4,10-2.4c3.5,0,6.2,0.8,8.1,2.3s2.8,3.9,2.8,7v17.5H542.3z M540.1,381.4l-2.8,0.1c-2.1,0.1-3.6,0.4-4.6,1.1
		s-1.5,1.7-1.5,3.1c0,2,1.2,3,3.5,3c1.7,0,3-0.5,4-1.4s1.5-2.2,1.5-3.8V381.4z"/>
	<path class="st15" d="M565.6,388.3c1.3,0,2.8-0.3,4.5-0.8v5.3c-1.8,0.8-4,1.2-6.6,1.2c-2.9,0-4.9-0.7-6.2-2.2s-2-3.6-2-6.5v-12.6
		H552v-3l3.9-2.4l2.1-5.5h4.6v5.6h7.3v5.4h-7.3v12.6c0,1,0.3,1.8,0.9,2.3S564.7,388.3,565.6,388.3z"/>
	<path class="st15" d="M575.1,360.6c0-2.3,1.3-3.5,3.9-3.5s3.9,1.2,3.9,3.5c0,1.1-0.3,2-1,2.6s-1.6,0.9-2.9,0.9
		C576.4,364.1,575.1,362.9,575.1,360.6z M582.6,393.5h-7.1v-26.2h7.1V393.5z"/>
	<path class="st15" d="M614.3,393.5h-7.1v-15.3c0-1.9-0.3-3.3-1-4.3s-1.7-1.4-3.2-1.4c-2,0-3.4,0.7-4.3,2s-1.3,3.6-1.3,6.6v12.3
		h-7.1v-26.2h5.5l1,3.4h0.4c0.8-1.3,1.9-2.2,3.3-2.9s3-1,4.8-1c3,0,5.4,0.8,6.9,2.5s2.4,4,2.4,7.1V393.5z"/>
	<path class="st15" d="M644.4,367.3v3.6l-4.1,1.1c0.8,1.2,1.1,2.5,1.1,3.9c0,2.8-1,5-2.9,6.6s-4.7,2.4-8.2,2.4l-1.3-0.1l-1.1-0.1
		c-0.7,0.6-1.1,1.2-1.1,1.9c0,1,1.3,1.5,3.9,1.5h4.5c2.9,0,5.1,0.6,6.6,1.9s2.3,3,2.3,5.4c0,3.1-1.3,5.4-3.8,7.1s-6.2,2.5-11,2.5
		c-3.7,0-6.4-0.6-8.4-1.9s-2.9-3.1-2.9-5.4c0-1.6,0.5-2.9,1.5-4s2.4-1.8,4.3-2.3c-0.7-0.3-1.4-0.8-1.9-1.5s-0.8-1.5-0.8-2.3
		c0-1,0.3-1.8,0.9-2.5s1.4-1.3,2.5-2c-1.4-0.6-2.5-1.5-3.3-2.9s-1.2-2.9-1.2-4.6c0-2.9,0.9-5.1,2.8-6.6s4.5-2.3,8-2.3
		c0.7,0,1.6,0.1,2.6,0.2s1.7,0.2,1.9,0.3H644.4z M624.2,397.2c0,1,0.5,1.8,1.4,2.3s2.3,0.8,4,0.8c2.6,0,4.6-0.4,6-1.1
		s2.2-1.7,2.2-2.9c0-1-0.4-1.7-1.3-2s-2.2-0.6-4-0.6h-3.7c-1.3,0-2.4,0.3-3.3,0.9S624.2,396.2,624.2,397.2z M626.8,375.9
		c0,1.4,0.3,2.5,1,3.4s1.6,1.2,3,1.2c1.3,0,2.3-0.4,3-1.2s0.9-2,0.9-3.4c0-3.2-1.3-4.7-3.9-4.7C628.1,371.2,626.8,372.7,626.8,375.9
		z"/>
	<path class="st15" d="M210.4,448.4c0.7,0,1.4-0.1,2-0.2s1.1-0.2,1.5-0.3v3c-0.4,0.2-1,0.4-1.9,0.5s-1.6,0.2-2.2,0.2
		c-5,0-7.5-2.6-7.5-7.9v-15.3h-3.7v-1.9l3.7-1.6l1.6-5.5h2.3v6h7.5v3h-7.5v15.1c0,1.5,0.4,2.7,1.1,3.6S209.1,448.4,210.4,448.4z"/>
	<path class="st15" d="M236.6,451.1v-16.6c0-2.1-0.5-3.7-1.4-4.7s-2.4-1.5-4.5-1.5c-2.7,0-4.7,0.7-5.9,2.2s-1.9,3.9-1.9,7.2v13.4
		H219v-36.5h3.9v11c0,1.3-0.1,2.4-0.2,3.3h0.2c0.8-1.2,1.9-2.2,3.3-2.9s3-1.1,4.8-1.1c3.1,0,5.5,0.7,7.1,2.2s2.4,3.9,2.4,7.1v16.8
		H236.6z"/>
	<path class="st15" d="M259.3,451.6c-3.8,0-6.8-1.2-9-3.5s-3.3-5.5-3.3-9.6c0-4.1,1-7.4,3.1-9.9s4.8-3.7,8.2-3.7
		c3.2,0,5.8,1.1,7.6,3.2s2.8,4.9,2.8,8.4v2.5h-17.7c0.1,3,0.8,5.3,2.3,6.9s3.5,2.3,6.1,2.3c2.8,0,5.5-0.6,8.2-1.7v3.5
		c-1.4,0.6-2.7,1-3.9,1.3S261.1,451.6,259.3,451.6z M258.3,428.2c-2.1,0-3.7,0.7-4.9,2s-1.9,3.2-2.2,5.6h13.4c0-2.5-0.5-4.3-1.6-5.6
		S260.3,428.2,258.3,428.2z"/>
	<path class="st15" d="M288.5,451.1v-34.3h4v34.3H288.5z"/>
	<path class="st15" d="M312.4,451.1h-4v-30.7h-10.9v-3.5h25.7v3.5h-10.9V451.1z"/>
	<path class="st15" d="M340,418.5c0-0.9,0.2-1.5,0.7-2s1-0.6,1.6-0.6c0.6,0,1.2,0.2,1.6,0.6s0.7,1.1,0.7,1.9s-0.2,1.5-0.7,2
		s-1,0.6-1.6,0.6c-0.7,0-1.2-0.2-1.6-0.6S340,419.4,340,418.5z M344.2,451.1h-3.9v-25.7h3.9V451.1z"/>
	<path class="st15" d="M370,451.1v-16.6c0-2.1-0.5-3.7-1.4-4.7s-2.4-1.5-4.5-1.5c-2.7,0-4.7,0.7-5.9,2.2s-1.9,3.9-1.9,7.2v13.5h-3.9
		v-25.7h3.2l0.6,3.5h0.2c0.8-1.3,1.9-2.2,3.4-2.9s3-1,4.8-1c3.1,0,5.4,0.7,7,2.2s2.3,3.9,2.3,7.2v16.8H370z"/>
	<path class="st15" d="M393.5,428.5h-6.5v22.7H383v-22.7h-4.6v-1.8l4.6-1.4v-1.4c0-6.3,2.8-9.5,8.3-9.5c1.4,0,3,0.3,4.8,0.8l-1,3.1
		c-1.5-0.5-2.8-0.7-3.8-0.7c-1.5,0-2.6,0.5-3.3,1.5s-1.1,2.5-1.1,4.7v1.7h6.5V428.5z"/>
	<path class="st15" d="M409.9,425c1.1,0,2.2,0.1,3.1,0.3l-0.5,3.6c-1.1-0.2-2-0.4-2.8-0.4c-2.1,0-3.9,0.8-5.3,2.5s-2.2,3.8-2.2,6.3
		v13.8h-3.9v-25.7h3.2l0.4,4.8h0.2c1-1.7,2.1-3,3.4-3.9S408.3,425,409.9,425z"/>
	<path class="st15" d="M433.5,451.1l-0.8-3.7h-0.2c-1.3,1.6-2.6,2.7-3.8,3.3s-2.9,0.9-4.8,0.9c-2.5,0-4.5-0.7-6-2s-2.2-3.2-2.2-5.6
		c0-5.2,4.1-7.9,12.4-8.2l4.4-0.1v-1.6c0-2-0.4-3.5-1.3-4.5s-2.3-1.4-4.2-1.4c-2.1,0-4.6,0.7-7.3,2l-1.2-3c1.3-0.7,2.7-1.2,4.2-1.6
		s3-0.6,4.5-0.6c3.1,0,5.3,0.7,6.8,2s2.2,3.5,2.2,6.5v17.5H433.5z M424.8,448.4c2.4,0,4.3-0.7,5.7-2s2.1-3.2,2.1-5.6v-2.3l-3.9,0.2
		c-3.1,0.1-5.3,0.6-6.7,1.4s-2.1,2.2-2.1,4c0,1.4,0.4,2.5,1.3,3.2S423.2,448.4,424.8,448.4z"/>
	<path class="st15" d="M461,444.1c0,2.4-0.9,4.2-2.7,5.5s-4.3,1.9-7.5,1.9c-3.4,0-6.1-0.5-8-1.6v-3.6c1.2,0.6,2.6,1.1,4,1.5
		s2.8,0.5,4.1,0.5c2,0,3.6-0.3,4.7-1s1.6-1.6,1.6-3c0-1-0.4-1.9-1.3-2.6s-2.6-1.6-5.1-2.5c-2.4-0.9-4.1-1.7-5.1-2.3
		s-1.8-1.4-2.3-2.3s-0.7-1.9-0.7-3c0-2.1,0.9-3.7,2.6-5s4-1.8,7-1.8c2.8,0,5.5,0.6,8.1,1.7l-1.4,3.2c-2.6-1.1-4.9-1.6-7-1.6
		c-1.8,0-3.2,0.3-4.2,0.9s-1.4,1.4-1.4,2.4c0,0.7,0.2,1.3,0.5,1.8s0.9,0.9,1.7,1.4s2.3,1.1,4.5,1.9c3,1.1,5.1,2.2,6.2,3.4
		S461,442.4,461,444.1z"/>
	<path class="st15" d="M475.6,448.4c0.7,0,1.4-0.1,2-0.2s1.1-0.2,1.5-0.3v3c-0.4,0.2-1,0.4-1.9,0.5s-1.6,0.2-2.2,0.2
		c-5,0-7.5-2.6-7.5-7.9v-15.3h-3.7v-1.9l3.7-1.6l1.6-5.5h2.3v6h7.5v3h-7.5v15.1c0,1.5,0.4,2.7,1.1,3.6S474.4,448.4,475.6,448.4z"/>
	<path class="st15" d="M496,425c1.1,0,2.2,0.1,3.1,0.3l-0.5,3.6c-1.1-0.2-2-0.4-2.8-0.4c-2.1,0-3.9,0.8-5.3,2.5s-2.2,3.8-2.2,6.3
		v13.8h-3.9v-25.7h3.2l0.4,4.8h0.2c1-1.7,2.1-3,3.4-3.9S494.4,425,496,425z"/>
	<path class="st15" d="M507.5,425.4v16.7c0,2.1,0.5,3.7,1.4,4.7s2.4,1.5,4.5,1.5c2.7,0,4.7-0.7,5.9-2.2s1.9-3.9,1.9-7.2v-13.5h3.9
		v25.7h-3.2l-0.6-3.4h-0.2c-0.8,1.3-1.9,2.2-3.3,2.9s-3,1-4.8,1c-3.1,0-5.5-0.7-7-2.2s-2.3-3.9-2.3-7.1v-16.8H507.5z"/>
	<path class="st15" d="M543.6,451.6c-3.7,0-6.6-1.1-8.6-3.4s-3.1-5.5-3.1-9.7c0-4.3,1-7.6,3.1-10s5-3.5,8.8-3.5
		c1.2,0,2.5,0.1,3.7,0.4s2.2,0.6,2.9,0.9l-1.2,3.3c-0.9-0.3-1.8-0.6-2.8-0.9s-1.9-0.3-2.7-0.3c-5.2,0-7.8,3.3-7.8,10
		c0,3.2,0.6,5.6,1.9,7.3s3.2,2.5,5.7,2.5c2.1,0,4.3-0.5,6.6-1.4v3.4C548.4,451.2,546.2,451.6,543.6,451.6z"/>
	<path class="st15" d="M564.5,448.4c0.7,0,1.4-0.1,2-0.2s1.1-0.2,1.5-0.3v3c-0.4,0.2-1,0.4-1.9,0.5s-1.6,0.2-2.2,0.2
		c-5,0-7.5-2.6-7.5-7.9v-15.3h-3.7v-1.9l3.7-1.6l1.6-5.5h2.3v6h7.5v3h-7.5v15.1c0,1.5,0.4,2.7,1.1,3.6S563.2,448.4,564.5,448.4z"/>
	<path class="st15" d="M576.8,425.4v16.7c0,2.1,0.5,3.7,1.4,4.7s2.4,1.5,4.5,1.5c2.7,0,4.7-0.7,5.9-2.2s1.9-3.9,1.9-7.2v-13.5h3.9
		v25.7h-3.2l-0.6-3.4h-0.2c-0.8,1.3-1.9,2.2-3.3,2.9s-3,1-4.8,1c-3.1,0-5.5-0.7-7-2.2s-2.3-3.9-2.3-7.1v-16.8H576.8z"/>
	<path class="st15" d="M614.3,425c1.1,0,2.2,0.1,3.1,0.3l-0.5,3.6c-1.1-0.2-2-0.4-2.8-0.4c-2.1,0-3.9,0.8-5.3,2.5s-2.2,3.8-2.2,6.3
		v13.8h-3.9v-25.7h3.2l0.4,4.8h0.2c1-1.7,2.1-3,3.4-3.9S612.7,425,614.3,425z"/>
	<path class="st15" d="M633,451.6c-3.8,0-6.8-1.2-9-3.5s-3.3-5.5-3.3-9.6c0-4.1,1-7.4,3.1-9.9s4.8-3.7,8.2-3.7
		c3.2,0,5.8,1.1,7.6,3.2s2.8,4.9,2.8,8.4v2.5h-17.7c0.1,3,0.8,5.3,2.3,6.9s3.5,2.3,6.1,2.3c2.8,0,5.5-0.6,8.2-1.7v3.5
		c-1.4,0.6-2.7,1-3.9,1.3S634.8,451.6,633,451.6z M632,428.2c-2.1,0-3.7,0.7-4.9,2s-1.9,3.2-2.2,5.6h13.4c0-2.5-0.5-4.3-1.6-5.6
		S634,428.2,632,428.2z"/>
	<path class="st15" d="M221.8,508.7l-0.8-3.7h-0.2c-1.3,1.6-2.6,2.7-3.8,3.3s-2.9,0.9-4.8,0.9c-2.5,0-4.5-0.7-6-2s-2.2-3.2-2.2-5.6
		c0-5.2,4.1-7.9,12.4-8.2l4.4-0.1v-1.6c0-2-0.4-3.5-1.3-4.5s-2.3-1.4-4.2-1.4c-2.1,0-4.6,0.7-7.3,2l-1.2-3c1.3-0.7,2.7-1.2,4.2-1.6
		s3-0.6,4.5-0.6c3.1,0,5.3,0.7,6.8,2s2.2,3.5,2.2,6.5v17.5H221.8z M213,506c2.4,0,4.3-0.7,5.7-2s2.1-3.2,2.1-5.6v-2.3l-3.9,0.2
		c-3.1,0.1-5.3,0.6-6.7,1.4s-2.1,2.2-2.1,4c0,1.4,0.4,2.5,1.3,3.2S211.5,506,213,506z"/>
	<path class="st15" d="M250.3,508.7v-16.6c0-2.1-0.5-3.7-1.4-4.7s-2.4-1.5-4.5-1.5c-2.7,0-4.7,0.7-5.9,2.2s-1.9,3.9-1.9,7.2v13.5
		h-3.9V483h3.2l0.6,3.5h0.2c0.8-1.3,1.9-2.2,3.4-2.9s3-1,4.8-1c3.1,0,5.4,0.7,7,2.2s2.3,3.9,2.3,7.2v16.8H250.3z"/>
	<path class="st15" d="M279.7,505.3h-0.2c-1.8,2.6-4.5,3.9-8.1,3.9c-3.4,0-6-1.1-7.8-3.4s-2.8-5.6-2.8-9.8s0.9-7.5,2.8-9.9
		s4.5-3.5,7.8-3.5c3.5,0,6.2,1.3,8,3.8h0.3l-0.2-1.9l-0.1-1.8v-10.5h3.9v36.5h-3.2L279.7,505.3z M271.9,505.9c2.7,0,4.6-0.7,5.8-2.2
		s1.8-3.8,1.8-7V496c0-3.6-0.6-6.2-1.8-7.8s-3.1-2.3-5.8-2.3c-2.3,0-4,0.9-5.2,2.7s-1.8,4.3-1.8,7.5c0,3.3,0.6,5.8,1.8,7.4
		S269.6,505.9,271.9,505.9z"/>
	<path class="st15" d="M303.8,476.1c0-0.9,0.2-1.5,0.7-2s1-0.6,1.6-0.6c0.6,0,1.2,0.2,1.6,0.6s0.7,1.1,0.7,1.9s-0.2,1.5-0.7,2
		s-1,0.6-1.6,0.6c-0.7,0-1.2-0.2-1.6-0.6S303.8,477,303.8,476.1z M308,508.7h-3.9V483h3.9V508.7z"/>
	<path class="st15" d="M324.5,506c0.7,0,1.4-0.1,2-0.2s1.1-0.2,1.5-0.3v3c-0.4,0.2-1,0.4-1.9,0.5s-1.6,0.2-2.2,0.2
		c-5,0-7.5-2.6-7.5-7.9v-15.3h-3.7v-1.9l3.7-1.6l1.6-5.5h2.3v6h7.5v3h-7.5v15.1c0,1.5,0.4,2.7,1.1,3.6S323.2,506,324.5,506z"/>
	<path class="st15" d="M349.7,501.7c0,2.4-0.9,4.2-2.7,5.5s-4.3,1.9-7.5,1.9c-3.4,0-6.1-0.5-8-1.6V504c1.2,0.6,2.6,1.1,4,1.5
		s2.8,0.5,4.1,0.5c2,0,3.6-0.3,4.7-1s1.6-1.6,1.6-3c0-1-0.4-1.9-1.3-2.6s-2.6-1.6-5.1-2.5c-2.4-0.9-4.1-1.7-5.1-2.3
		s-1.8-1.4-2.3-2.3s-0.7-1.9-0.7-3c0-2.1,0.9-3.7,2.6-5s4-1.8,7-1.8c2.8,0,5.5,0.6,8.1,1.7l-1.4,3.2c-2.6-1.1-4.9-1.6-7-1.6
		c-1.8,0-3.2,0.3-4.2,0.9s-1.4,1.4-1.4,2.4c0,0.7,0.2,1.3,0.5,1.8s0.9,0.9,1.7,1.4s2.3,1.1,4.5,1.9c3,1.1,5.1,2.2,6.2,3.4
		S349.7,500,349.7,501.7z"/>
	<path class="st15" d="M378.8,509.2c-3.7,0-6.6-1.1-8.6-3.4s-3.1-5.5-3.1-9.7c0-4.3,1-7.6,3.1-10s5-3.5,8.8-3.5
		c1.2,0,2.5,0.1,3.7,0.4s2.2,0.6,2.9,0.9l-1.2,3.3c-0.9-0.3-1.8-0.6-2.8-0.9s-1.9-0.3-2.7-0.3c-5.2,0-7.8,3.3-7.8,10
		c0,3.2,0.6,5.6,1.9,7.3s3.2,2.5,5.7,2.5c2.1,0,4.3-0.5,6.6-1.4v3.4C383.6,508.8,381.4,509.2,378.8,509.2z"/>
	<path class="st15" d="M413.6,495.9c0,4.2-1.1,7.5-3.2,9.8s-5,3.5-8.7,3.5c-2.3,0-4.3-0.5-6.1-1.6s-3.2-2.6-4.1-4.6
		s-1.5-4.4-1.5-7.1c0-4.2,1-7.4,3.1-9.8s5-3.5,8.7-3.5c3.6,0,6.4,1.2,8.6,3.6S413.6,491.8,413.6,495.9z M394,495.9
		c0,3.3,0.7,5.8,2,7.5s3.2,2.6,5.8,2.6s4.5-0.9,5.8-2.6s2-4.2,2-7.5c0-3.3-0.7-5.7-2-7.4s-3.3-2.5-5.8-2.5c-2.5,0-4.5,0.8-5.8,2.5
		S394,492.5,394,495.9z"/>
	<path class="st15" d="M453.1,508.7V492c0-2-0.4-3.6-1.3-4.6s-2.2-1.5-4.1-1.5c-2.4,0-4.2,0.7-5.4,2.1s-1.7,3.5-1.7,6.4v14.3h-3.9
		V492c0-2-0.4-3.6-1.3-4.6s-2.2-1.5-4.1-1.5c-2.4,0-4.2,0.7-5.4,2.2s-1.7,3.9-1.7,7.2v13.5h-3.9V483h3.2l0.6,3.5h0.2
		c0.7-1.3,1.8-2.2,3.1-2.9s2.8-1.1,4.5-1.1c4,0,6.6,1.5,7.9,4.4h0.2c0.8-1.3,1.9-2.4,3.3-3.2s3.1-1.2,5-1.2c2.9,0,5.1,0.7,6.5,2.2
		s2.2,3.9,2.2,7.2v16.8H453.1z"/>
	<path class="st15" d="M477,509.2c-1.7,0-3.2-0.3-4.6-0.9s-2.5-1.6-3.5-2.8h-0.3c0.2,1.5,0.3,2.9,0.3,4.3v10.6H465V483h3.2l0.5,3.5
		h0.2c1-1.4,2.2-2.4,3.5-3s2.9-0.9,4.6-0.9c3.4,0,6,1.2,7.9,3.5s2.8,5.6,2.8,9.8c0,4.2-0.9,7.5-2.8,9.8S480.3,509.2,477,509.2z
		 M476.4,485.9c-2.6,0-4.5,0.7-5.7,2.2s-1.8,3.8-1.8,6.9v0.9c0,3.6,0.6,6.2,1.8,7.7s3.1,2.3,5.8,2.3c2.2,0,4-0.9,5.2-2.7
		s1.9-4.3,1.9-7.4c0-3.2-0.6-5.7-1.9-7.4S478.7,485.9,476.4,485.9z"/>
	<path class="st15" d="M516.6,495.9c0,4.2-1.1,7.5-3.2,9.8s-5,3.5-8.7,3.5c-2.3,0-4.3-0.5-6.1-1.6s-3.2-2.6-4.1-4.6
		s-1.5-4.4-1.5-7.1c0-4.2,1-7.4,3.1-9.8s5-3.5,8.7-3.5c3.6,0,6.4,1.2,8.6,3.6S516.6,491.8,516.6,495.9z M497,495.9
		c0,3.3,0.7,5.8,2,7.5s3.2,2.6,5.8,2.6s4.5-0.9,5.8-2.6s2-4.2,2-7.5c0-3.3-0.7-5.7-2-7.4s-3.3-2.5-5.8-2.5c-2.5,0-4.5,0.8-5.8,2.5
		S497,492.5,497,495.9z"/>
	<path class="st15" d="M541,508.7v-16.6c0-2.1-0.5-3.7-1.4-4.7s-2.4-1.5-4.5-1.5c-2.7,0-4.7,0.7-5.9,2.2s-1.9,3.9-1.9,7.2v13.5h-3.9
		V483h3.2l0.6,3.5h0.2c0.8-1.3,1.9-2.2,3.4-2.9s3-1,4.8-1c3.1,0,5.4,0.7,7,2.2s2.3,3.9,2.3,7.2v16.8H541z"/>
	<path class="st15" d="M563.7,509.2c-3.8,0-6.8-1.2-9-3.5s-3.3-5.5-3.3-9.6c0-4.1,1-7.4,3.1-9.9s4.8-3.7,8.2-3.7
		c3.2,0,5.8,1.1,7.6,3.2s2.8,4.9,2.8,8.4v2.5h-17.7c0.1,3,0.8,5.3,2.3,6.9s3.5,2.3,6.1,2.3c2.8,0,5.5-0.6,8.2-1.7v3.5
		c-1.4,0.6-2.7,1-3.9,1.3S565.5,509.2,563.7,509.2z M562.7,485.8c-2.1,0-3.7,0.7-4.9,2s-1.9,3.2-2.2,5.6H569c0-2.5-0.5-4.3-1.6-5.6
		S564.7,485.8,562.7,485.8z"/>
	<path class="st15" d="M597.4,508.7v-16.6c0-2.1-0.5-3.7-1.4-4.7s-2.4-1.5-4.5-1.5c-2.7,0-4.7,0.7-5.9,2.2s-1.9,3.9-1.9,7.2v13.5
		h-3.9V483h3.2l0.6,3.5h0.2c0.8-1.3,1.9-2.2,3.4-2.9s3-1,4.8-1c3.1,0,5.4,0.7,7,2.2s2.3,3.9,2.3,7.2v16.8H597.4z"/>
	<path class="st15" d="M617.6,506c0.7,0,1.4-0.1,2-0.2s1.1-0.2,1.5-0.3v3c-0.4,0.2-1,0.4-1.9,0.5s-1.6,0.2-2.2,0.2
		c-5,0-7.5-2.6-7.5-7.9v-15.3h-3.7v-1.9l3.7-1.6l1.6-5.5h2.3v6h7.5v3h-7.5v15.1c0,1.5,0.4,2.7,1.1,3.6S616.3,506,617.6,506z"/>
	<path class="st15" d="M642.8,501.7c0,2.4-0.9,4.2-2.7,5.5s-4.3,1.9-7.5,1.9c-3.4,0-6.1-0.5-8-1.6V504c1.2,0.6,2.6,1.1,4,1.5
		s2.8,0.5,4.1,0.5c2,0,3.6-0.3,4.7-1s1.6-1.6,1.6-3c0-1-0.4-1.9-1.3-2.6s-2.6-1.6-5.1-2.5c-2.4-0.9-4.1-1.7-5.1-2.3
		s-1.8-1.4-2.3-2.3s-0.7-1.9-0.7-3c0-2.1,0.9-3.7,2.6-5s4-1.8,7-1.8c2.8,0,5.5,0.6,8.1,1.7l-1.4,3.2c-2.6-1.1-4.9-1.6-7-1.6
		c-1.8,0-3.2,0.3-4.2,0.9s-1.4,1.4-1.4,2.4c0,0.7,0.2,1.3,0.5,1.8s0.9,0.9,1.7,1.4s2.3,1.1,4.5,1.9c3,1.1,5.1,2.2,6.2,3.4
		S642.8,500,642.8,501.7z"/>
</g>
</svg>
