<?xml version="1.0" encoding="utf-8"?>
<!-- Generator: Adobe Illustrator 22.0.1, SVG Export Plug-In . SVG Version: 6.00 Build 0)  -->
<svg version="1.1" id="Layer_2_1_" xmlns="http://www.w3.org/2000/svg" xmlns:xlink="http://www.w3.org/1999/xlink" x="0px" y="0px"
	 viewBox="0 0 548 390.3" style="enable-background:new 0 0 548 390.3;" xml:space="preserve">
<style type="text/css">
	.st0{fill:#37474F;}
	.st1{fill:#D0D8DC;}
	.st2{fill:#B0BEC5;}
	.st3{fill:#90A4AE;}
	.st4{fill:#BDDDF4;}
	.st5{fill:#57A7DB;}
	.st6{fill:#FFFFFF;}
	.st7{display:none;opacity:0.2;enable-background:new    ;}
	.st8{display:none;fill:#2D83B2;}
	.st9{fill:#EEEEEE;stroke:#FFFFFF;stroke-width:4;}
	.st10{fill:#F4AE7A;}
	.st11{fill:#98C8F8;}
	.st12{fill:none;stroke:#48A23F;stroke-width:8;stroke-miterlimit:10;}
</style>
<title>integration</title>
<g>
	<g id="_Group_">
		<path id="_Path_4" class="st0" d="M56.4,84.7c-5.8,0-10.5,4.7-10.5,10.5l0,0v262.2c0,5.8,4.7,10.5,10.5,10.5l0,0h435.3
			c5.8,0,10.5-4.7,10.5-10.5l0,0V95.2c0-5.8-4.7-10.5-10.5-10.5l0,0H56.4z"/>
		<path id="_Path_5" class="st1" d="M22.6,380.1h502.9c12.4,0,22.5-10.1,22.6-22.6H0C0,370,10.1,380.1,22.6,380.1z"/>
		<path id="_Path_6" class="st2" d="M3.6,369.6c4.1,6.5,11.3,10.5,19,10.5h502.9c7.7,0.1,15-3.9,19-10.5H3.6z"/>
		<circle id="_Path_7" class="st3" cx="41" cy="363.2" r="2.4"/>
		<circle id="_Path_8" class="st3" cx="34" cy="363.2" r="2.6"/>
		<circle id="_Path_9" class="st3" cx="26.9" cy="363.2" r="2.6"/>
	</g>
	<g id="_Group_2">
		<rect x="63.4" y="101.6" class="st4" width="421.2" height="244.5"/>
	</g>
	<rect x="63.4" y="101.6" class="st5" width="421.2" height="42.6"/>
	<rect x="278.7" y="156.8" class="st6" width="192.3" height="170.7"/>
	<path class="st6" d="M89.4,132.5l-9.8-9.8l9.8-9.8l-3-3.1l-12.5,12.5l12.5,12.5L89.4,132.5z M100.5,132.5l9.8-9.8l-9.8-9.8l3-3
		l12.5,12.5L103.5,135L100.5,132.5z"/>
	<rect x="73.9" y="156.8" class="st6" width="192.3" height="170.7"/>
	<rect x="290" y="166.8" class="st4" width="97.3" height="12.3"/>
	<rect x="394.5" y="166.8" class="st4" width="64.7" height="12.3"/>
	<rect x="290" y="186.6" class="st4" width="69.7" height="12.3"/>
	<rect x="367" y="187.1" class="st4" width="61.2" height="12.3"/>
	<rect x="290" y="206.4" class="st4" width="92.5" height="12.3"/>
	<rect x="389.5" y="206.4" class="st4" width="26.1" height="12.3"/>
	<rect x="290" y="226.5" class="st4" width="119.3" height="12.3"/>
	<rect x="290" y="246.3" class="st4" width="68.9" height="12.3"/>
	<rect x="365.5" y="246.3" class="st4" width="43.9" height="12.3"/>
	<rect x="290" y="266.1" class="st4" width="119.3" height="12.3"/>
	<rect x="290" y="286.1" class="st4" width="125.6" height="12.3"/>
	<rect x="290" y="305.9" class="st4" width="153.7" height="12.3"/>
	<circle class="st4" cx="445.4" cy="110.1" r="3.8"/>
	<circle class="st4" cx="459" cy="110.1" r="3.8"/>
	<circle class="st4" cx="472.3" cy="110.1" r="3.8"/>
	<rect x="87.5" y="166.1" class="st4" width="75.7" height="67.9"/>
	<rect x="177.4" y="166.1" class="st4" width="75.7" height="67.9"/>
	<rect x="87.5" y="250.3" class="st4" width="75.7" height="67.9"/>
	<rect x="177.4" y="250.3" class="st4" width="75.7" height="67.9"/>
</g>
<image style="display:none;overflow:visible;enable-background:new    ;" width="449" height="565" xlink:href="41F6CA98.jpg"  transform="matrix(0.9989 0 0 0.9989 725.2435 -372.8636)">
</image>
<rect x="294.3" y="11" class="st7" width="242.4" height="324.6"/>
<g>
	<rect x="305.3" y="2.4" class="st8" width="212.1" height="284"/>
	<rect x="307.7" y="4.8" class="st9" width="212.1" height="284"/>
	<rect x="317.7" y="14.8" class="st8" width="212.1" height="284"/>
	<rect x="320.2" y="17.3" class="st9" width="212.1" height="284"/>
	<path class="st10" d="M471.3,71.4h-90.1c-2.7,0-4.9-2.2-4.9-4.9l0,0c0-2.7,2.2-4.9,4.9-4.9h90.1c2.7,0,4.9,2.2,4.9,4.9l0,0
		C476.2,69.2,474,71.4,471.3,71.4z"/>
	<path class="st11" d="M507.1,102.3H345.4c-2.7,0-4.9-2.2-4.9-4.9l0,0c0-2.7,2.2-4.9,4.9-4.9h161.7c2.7,0,4.9,2.2,4.9,4.9l0,0
		C512,100.1,509.8,102.3,507.1,102.3z"/>
	<path class="st11" d="M507.1,125.6H345.4c-2.7,0-4.9-2.2-4.9-4.9l0,0c0-2.7,2.2-4.9,4.9-4.9h161.7c2.7,0,4.9,2.2,4.9,4.9l0,0
		C512,123.4,509.8,125.6,507.1,125.6z"/>
	<path class="st11" d="M507.1,169.1H345.4c-2.7,0-4.9-2.2-4.9-4.9l0,0c0-2.7,2.2-4.9,4.9-4.9h161.7c2.7,0,4.9,2.2,4.9,4.9l0,0
		C512,166.9,509.8,169.1,507.1,169.1z"/>
	<path class="st11" d="M507.1,192.4H345.4c-2.7,0-4.9-2.2-4.9-4.9l0,0c0-2.7,2.2-4.9,4.9-4.9h161.7c2.7,0,4.9,2.2,4.9,4.9l0,0
		C512,190.2,509.8,192.4,507.1,192.4z"/>
	<path class="st10" d="M422.7,236.3h-77.3c-2.7,0-4.9-2.2-4.9-4.9l0,0c0-2.7,2.2-4.9,4.9-4.9h77.3c2.7,0,4.9,2.2,4.9,4.9l0,0
		C427.6,234.1,425.4,236.3,422.7,236.3z"/>
	<path class="st10" d="M422.7,259.6h-77.3c-2.7,0-4.9-2.2-4.9-4.9l0,0c0-2.7,2.2-4.9,4.9-4.9h77.3c2.7,0,4.9,2.2,4.9,4.9l0,0
		C427.6,257.4,425.4,259.6,422.7,259.6z"/>
	<path class="st5" d="M487.3,213.9c-19.4,0-35.1,15.7-35.1,35.1s15.7,35.1,35.1,35.1s35.1-15.7,35.1-35.1
		C522.3,229.6,506.6,213.9,487.3,213.9z M487.3,281.1c-17.7,0-32.1-14.4-32.1-32.1s14.4-32.1,32.1-32.1s32.1,14.4,32.1,32.1
		C519.4,266.7,505,281.1,487.3,281.1z"/>
	<path class="st5" d="M487.3,222.4c-14.7,0-26.6,11.9-26.6,26.6s11.9,26.6,26.6,26.6s26.6-11.9,26.6-26.6
		C513.8,234.3,502,222.4,487.3,222.4z M487.3,268.9c-11,0-19.9-8.9-19.9-19.9s8.9-19.9,19.9-19.9s19.9,8.9,19.9,19.9
		C507.2,260,498.3,268.9,487.3,268.9z"/>
	<polyline class="st12" points="499.5,243 484,255 475.1,248.1 	"/>
</g>
<g>
	<polygon class="st5" points="46.5,150.5 32.9,209.5 55.1,202.8 69.3,217.8 78.8,176.4 94.8,235.3 108.8,216.6 131.1,225.6 
		111.2,151.6 	"/>
	<path class="st10" d="M139.3,113.4c0,5.7-10.3,9.7-12,14.9c-1.7,5.3,4.2,14.6,0.9,19.1c-3.3,4.5-13.9,1.7-18.4,5
		c-4.4,3.2-5.1,14.3-10.4,16c-5.1,1.7-12.1-6.8-17.8-6.8c-5.7,0-12.7,8.5-17.8,6.8c-5.3-1.7-6-12.8-10.4-16
		c-4.5-3.3-15.2-0.5-18.4-5c-3.2-4.4,2.7-13.7,0.9-19.1c-1.7-5.1-12-9.2-12-14.9c0-5.7,10.3-9.7,12-14.9c1.7-5.3-4.2-14.6-0.9-19.1
		c3.3-4.5,13.9-1.7,18.4-5c4.4-3.2,5.1-14.3,10.4-16c5.1-1.7,12.1,6.8,17.8,6.8c5.7,0,12.7-8.5,17.8-6.8c5.3,1.7,6,12.8,10.4,16
		c4.5,3.3,15.2,0.5,18.4,5c3.2,4.4-2.7,13.7-0.9,19.1C129.1,103.7,139.3,107.7,139.3,113.4z"/>
	<circle class="st5" cx="81.7" cy="113.4" r="42.2"/>
	<circle class="st4" cx="81.7" cy="113.4" r="32.9"/>
</g>
</svg>
