<svg id="Layer_1" data-name="Layer 1" xmlns="http://www.w3.org/2000/svg" viewBox="0 0 548 390.3"><defs><style>.cls-1{fill:none;stroke:#b0bec5;stroke-width:1.85px;}.cls-1,.cls-18{stroke-miterlimit:10;}.cls-2{fill:#b0bec5;}.cls-3{fill:#71be72;}.cls-4{fill:#e4f2fb;}.cls-18,.cls-5{fill:#57a7db;}.cls-6{fill:#417da4;}.cls-7{fill:#bdddf4;}.cls-8{fill:#f7c9a4;}.cls-9{fill:#ffd9b6;}.cls-10{fill:#493030;}.cls-11{fill:#546e7a;}.cls-12{fill:#3f535c;}.cls-13{fill:#90a4ae;}.cls-14{fill:#efc75e;}.cls-15{fill:#f5f5f5;}.cls-16{fill:#d0d8dc;}.cls-17{fill:#fff;}.cls-18{stroke:#57a7db;}</style></defs><title>consulting</title><polyline class="cls-1" points="134.07 362.52 87.31 362.52 87.31 306.21 42.64 306.21 42.64 234.74 90.98 234.74 90.98 84.19 158.6 84.19"/><g id="_Group_" data-name="&lt;Group&gt;"><polygon id="_Path_" data-name="&lt;Path&gt;" class="cls-2" points="151.77 74.49 168.54 84.19 151.77 93.89 151.77 74.49"/></g><circle class="cls-3" cx="146.1" cy="362.52" r="12.02"/><circle class="cls-3" cx="90.62" cy="142.8" r="20.17"/><circle class="cls-3" cx="42.45" cy="235.59" r="26.13"/><circle class="cls-3" cx="87.59" cy="333.41" r="15.44"/><circle class="cls-3" cx="204.97" cy="83.79" r="34.4"/><path class="cls-4" d="M400,328.81v41.5a4.76,4.76,0,0,1-4.76,4.76H152.78a4.76,4.76,0,0,1-4.76-4.76v-41.5A47.21,47.21,0,0,1,183.86,283L249,266.8H299L364.14,283A47.21,47.21,0,0,1,400,328.81Z"/><polygon class="cls-5" points="290.58 375.07 257.42 375.07 264.51 324.3 265.86 314.62 282.15 314.62 283.5 324.3 290.58 375.07"/><polygon class="cls-6" points="283.5 324.3 264.51 324.3 265.86 314.62 282.15 314.62 283.5 324.3"/><path class="cls-7" d="M180.57,283.93c-12.08,11-19.69,29.31-19.69,44.88v46.26h-8.1a4.76,4.76,0,0,1-4.76-4.76v-41.5A47.2,47.2,0,0,1,180.57,283.93Z"/><path class="cls-7" d="M367.43,283.93c12.08,11,19.69,29.31,19.69,44.88v46.26h8.1a4.76,4.76,0,0,0,4.76-4.76v-41.5A47.2,47.2,0,0,0,367.43,283.93Z"/><path class="cls-5" d="M262,316.13l-7.25-12.55a5.47,5.47,0,0,1,0-5.47L262,285.56a5.47,5.47,0,0,1,4.74-2.73h14.49a5.47,5.47,0,0,1,4.74,2.73l7.25,12.55a5.47,5.47,0,0,1,0,5.47L286,316.13a5.47,5.47,0,0,1-4.74,2.73H266.75A5.47,5.47,0,0,1,262,316.13Z"/><rect class="cls-8" x="247.75" y="226.26" width="52.49" height="48.63"/><path class="cls-9" d="M356,179.23a19.8,19.8,0,0,1-15.25,19.27,19.41,19.41,0,0,1-4.55.53A19.8,19.8,0,1,1,356,179.23Z"/><path class="cls-8" d="M340.94,160v33.68c0,1.62-.06,3.23-.18,4.82a19.41,19.41,0,0,1-4.55.53,19.8,19.8,0,1,1,4.72-39Z"/><path class="cls-9" d="M231.6,179.23A19.8,19.8,0,0,1,211.79,199a19.48,19.48,0,0,1-4.56-.53,19.8,19.8,0,0,1-.18-38.49,19.41,19.41,0,0,1,4.73-.58A19.8,19.8,0,0,1,231.6,179.23Z"/><path class="cls-8" d="M231.6,179.23A19.8,19.8,0,0,1,211.79,199a19.48,19.48,0,0,1-4.56-.53c-.12-1.59-.18-3.2-.18-4.82V160a19.41,19.41,0,0,1,4.73-.58A19.8,19.8,0,0,1,231.6,179.23Z"/><path class="cls-9" d="M328.84,122.63v69.44a54.84,54.84,0,0,1-109.68,0V122.63Z"/><path class="cls-10" d="M248.67,187.34a4.34,4.34,0,0,1-4.34-4.34v-4.74a4.34,4.34,0,0,1,8.67,0V183A4.34,4.34,0,0,1,248.67,187.34Z"/><path class="cls-10" d="M299.33,187.34A4.34,4.34,0,0,1,295,183v-4.74a4.34,4.34,0,1,1,8.67,0V183A4.34,4.34,0,0,1,299.33,187.34Z"/><path class="cls-8" d="M328.84,122.63v48.2l-18.41-3.08a6.47,6.47,0,0,1-5.4-6.38v-7.24a2.47,2.47,0,0,0-2.15-2.45,532.88,532.88,0,0,0-56.42-4.05,2.47,2.47,0,0,0-2.52,2.47v11.32a6.47,6.47,0,0,1-5.47,6.39l-19.32,3V122.63Z"/><path class="cls-11" d="M342.21,99.6a177.94,177.94,0,0,1-9.79,50.84q-1.6,4.49-3.53,9L320.26,158a4.62,4.62,0,0,1-2.28-1.05,4.75,4.75,0,0,1-1.7-3.65v-6.93a4.76,4.76,0,0,0-4-4.71c-9.71-1.52-36.49-5.12-74.77-5.4A4.76,4.76,0,0,0,232.7,141v12.23a4.76,4.76,0,0,1-4,4.71l-9.47,1.48s-16.73-56.48,12.36-66.8c0,0,3.66-13.59,18.55-13.59h87.54A4.76,4.76,0,0,1,341,80.38c2,1.93,1.53,5.37,1.54,7.92q0,5.65-.29,11.3C342.18,100.21,342.58,92.77,342.21,99.6Z"/><path class="cls-12" d="M342.21,99.6a178,178,0,0,1-9.79,50.84q-1.6,4.49-3.53,9L320.26,158a4.62,4.62,0,0,1-2.28-1.05C333.72,118.56,330.21,79,330.21,79h7.43A4.76,4.76,0,0,1,341,80.38c2,1.93,1.53,5.37,1.54,7.92q0,5.65-.29,11.3C342.18,100.21,342.58,92.77,342.21,99.6Z"/><path class="cls-7" d="M192.69,350.35v24.73h-8.93V350.35a4.47,4.47,0,0,1,8.93,0Z"/><path class="cls-7" d="M364.24,350.35v24.73H355.3V350.35a4.47,4.47,0,0,1,8.93,0Z"/><path class="cls-7" d="M241.08,255,274,274.81l-12.26,25.08a4.77,4.77,0,0,1-7.7,1.23l-24.3-25a4.76,4.76,0,0,1-1-5.08l5.45-13.71A4.76,4.76,0,0,1,241.08,255Z"/><path class="cls-7" d="M306.92,255,274,274.81l12.26,25.08a4.77,4.77,0,0,0,7.7,1.23l24.3-25a4.76,4.76,0,0,0,1-5.08l-5.45-13.71A4.76,4.76,0,0,0,306.92,255Z"/><path class="cls-11" d="M336.17,325.64l-17.93,8.13,14.49,32,7.8-6.59,10.08-1.49Zm0,0"/><path class="cls-13" d="M322.88,326l17.93,8.13-14.49,32-7.8-6.64L308.4,358l14.49-32Zm0,0"/><path class="cls-14" d="M352.74,329.87c0,1.72-2.46,3.16-2.83,4.78s1.25,4,.56,5.57-3.58,1.72-4.6,3-.56,4.18-1.86,5.25-3.9,0-5.39.7-2.28,3.53-3.9,3.9-3.48-1.76-5.15-1.76-3.58,2.14-5.16,1.76-2.41-3.16-3.9-3.9-4.13.37-5.39-.7-.84-3.95-1.86-5.25-3.85-1.49-4.6-3,.93-3.9.56-5.57-2.93-3.06-2.93-4.78,2.46-3.16,2.83-4.78-1.25-4-.56-5.57,3.58-1.72,4.6-3,.56-4.18,1.86-5.25,3.9,0,5.39-.7,2.28-3.53,3.9-3.9,3.48,1.76,5.15,1.76,3.58-2.14,5.16-1.76,2.41,3.16,3.9,3.9,4.13-.37,5.39.7.84,3.95,1.86,5.25,3.85,1.49,4.6,3-.93,3.9-.56,5.57,2.93,3.07,2.93,4.78Zm0,0"/><path class="cls-15" d="M329.52,320.58a9.29,9.29,0,1,0,9.29,9.29,9.29,9.29,0,0,0-9.29-9.29Zm0,13.47a4.18,4.18,0,1,1,4.18-4.18,4.16,4.16,0,0,1-4.18,4.18Zm0-20.9a16.72,16.72,0,1,0,16.72,16.72,16.71,16.71,0,0,0-16.72-16.72Zm0,30.65a13.93,13.93,0,1,1,13.93-13.93,13.91,13.91,0,0,1-13.93,13.93Zm0,0"/><path class="cls-16" d="M500.59,47.31C484.52,35.53,462.5,28,438.58,28c-24.28,0-46.19,7.14-61.9,18.93-16.07,11.78-26.07,28.57-26.07,46.78,0,14.28,5.71,27.14,15.71,37.85,9.64,10.36,22.86,18.21,38.57,23.21L396,187.3a3.17,3.17,0,0,0,2.14,3.57,2.78,2.78,0,0,0,2.86-.71l28.21-30.71a17.39,17.39,0,0,0,4.29.36h5.71c24.14-.07,45.79-7.19,61.42-18.92,16.07-11.78,26.07-28.57,26.07-46.78S516.66,59.1,500.59,47.31ZM497,136.23c-15,11.07-35.35,17.86-58.21,17.86h-5c-1.79,0-3.57-.36-5.36-.36a3.86,3.86,0,0,0-2.5,1.07L405.6,177.3,412,154.09a3.17,3.17,0,0,0-2.14-3.57c-15.71-4.64-29.28-12.5-38.57-22.5C362.39,118.38,357,106.59,357,94.09,357,77.67,366,62.67,380.61,52c15-11.07,35.23-17.86,58.09-17.86S482,40.88,497,52c14.64,10.71,23.57,25.71,23.57,42.14S511.67,125.52,497,136.23Z"/><circle class="cls-5" cx="419.24" cy="91.89" r="6.24"/><circle class="cls-5" cx="438" cy="91.89" r="6.24"/><circle class="cls-5" cx="456.76" cy="91.89" r="6.24"/><path class="cls-17" d="M60.33,227.47,38.17,249.62a.5.5,0,0,1-.7,0h0L24.9,237a.5.5,0,0,1,0-.7h0L28,233.28a.5.5,0,0,1,.7,0h0l9.17,9.17L56.58,223.7a.5.5,0,0,1,.7,0h0l3.06,3.06a.5.5,0,0,1,0,.7h0Z"/><path class="cls-17" d="M227.76,72.59,199.24,101.1a.64.64,0,0,1-.9,0h0L182.15,84.91a.64.64,0,0,1,0-.9h0l3.93-3.93a.64.64,0,0,1,.9,0h0l11.8,11.8,24.14-24.14a.64.64,0,0,1,.9,0h0l3.93,3.93a.64.64,0,0,1,0,.9h0Z"/><path class="cls-17" d="M104,137.38,87.26,154.13a.38.38,0,0,1-.53,0h0l-9.51-9.51a.38.38,0,0,1,0-.53h0l2.31-2.31a.38.38,0,0,1,.53,0h0L87,148.71l14.18-14.18a.38.38,0,0,1,.53,0h0l2.31,2.31a.38.38,0,0,1,0,.53h0Z"/><path class="cls-18" d="M437.53,136.65a44.05,44.05,0,0,1-43.78-38.9,2.11,2.11,0,0,1,4.19-.49,39.76,39.76,0,0,0,78.78,1.54,2.11,2.11,0,0,1,4.16.65,44,44,0,0,1-43.36,37.19Z"/><polygon class="cls-18" points="403.63 105.45 395.99 98.75 389.3 106.4 388.89 100.31 395.58 92.67 403.22 99.36 403.63 105.45"/><path class="cls-18" d="M479,89.91A2.11,2.11,0,0,1,476.94,88a39.76,39.76,0,0,0-78.88-.84,2.11,2.11,0,0,1-4.17-.58,44,44,0,0,1,87.24.93,2.11,2.11,0,0,1-1.85,2.34Z"/><polygon class="cls-18" points="471.26 79.9 478.9 86.58 485.59 78.94 486 85.03 479.31 92.67 471.66 85.98 471.26 79.9"/></svg>