<svg id="Layer_2" data-name="Layer 2" xmlns="http://www.w3.org/2000/svg" viewBox="0 0 548 390.3"><defs><style>.cls-1{fill:#f4ae7a;}.cls-2{fill:#e8a577;}.cls-3{fill:#95c8ec;}.cls-4{fill:#57a7db;}.cls-5{fill:#71be72;}.cls-6{fill:#ea2a3d;}.cls-7{fill:#d7ebf8;}.cls-8{fill:#fff;}.cls-9{fill:#d0d8dc;}.cls-10{fill:#bdddf4;}.cls-11{fill:#37474f;}.cls-12{fill:#b0bec5;}.cls-13{fill:#90a4ae;}</style></defs><title>launch</title><path class="cls-1" d="M74.14,323.59c9.72,0,49.74-.92,61.67-.92,4.07,0,13.24.6,17,1.69l-19-59.3H85.25L66.14,324.75A28.37,28.37,0,0,1,74.14,323.59Z"/><path class="cls-2" d="M126.84,265.06H115.22l1.48,11.73a5.77,5.77,0,0,0,11.44-1.45Z"/><path class="cls-2" d="M92.21,265.06l-3,24.12a5.77,5.77,0,0,0,5,6.44,5.87,5.87,0,0,0,.73,0,5.77,5.77,0,0,0,5.71-5l3.23-25.57H92.21Z"/><path class="cls-3" d="M50.41,158.61q0-9.4.67-18.73c-18.5,10.42-31.24,33.62-31.24,60.49a77.46,77.46,0,0,0,10.2,39.13,3.4,3.4,0,0,0,4.22,1.43,74.83,74.83,0,0,1,27.86-5.5A250.89,250.89,0,0,1,50.41,158.61Z"/><path class="cls-3" d="M168,139.88q.66,9.31.67,18.73a250.87,250.87,0,0,1-11.72,76.81,74.83,74.83,0,0,1,27.86,5.5A3.4,3.4,0,0,0,189,239.5a77.45,77.45,0,0,0,10.2-39.13C199.2,173.5,186.46,150.3,168,139.88Z"/><path class="cls-4" d="M80.09,244.26V262a3.86,3.86,0,0,0,3.84,3.84h51.19A3.86,3.86,0,0,0,139,262V244.26Z"/><path class="cls-5" d="M156.31,77.59H62.74c-8.57,24.72-13.1,52.54-13.1,81,0,29.61,4.91,58.72,14.2,84.18A3.4,3.4,0,0,0,67,245h85a3.4,3.4,0,0,0,3.2-2.24c9.29-25.46,14.2-54.57,14.2-84.18C169.41,130.13,164.88,102.3,156.31,77.59Z"/><path class="cls-6" d="M87.37,77.59V90.34a3.86,3.86,0,0,0,3.84,3.84h36.63a3.86,3.86,0,0,0,3.84-3.84V77.59Z"/><path class="cls-1" d="M109.53,8.15a3.4,3.4,0,0,0-2.14.76c-17.17,13.91-31.64,35-41.83,61-1.08,2.77-2.1,5.59-3.08,8.44h94.1c-1-2.85-2-5.67-3.08-8.44-10.19-26-24.66-47.1-41.83-61A3.39,3.39,0,0,0,109.53,8.15Z"/><circle class="cls-3" cx="109.53" cy="147.25" r="39.22"/><circle class="cls-7" cx="109.53" cy="147.25" r="25.16"/><path class="cls-8" d="M93.59,147.25A25.17,25.17,0,0,0,114.14,172a25.16,25.16,0,1,1,0-49.47A25.16,25.16,0,0,0,93.59,147.25Z"/><path class="cls-3" d="M63,363.72a52,52,0,0,1,9.83-45.14,44.6,44.6,0,0,0-60.57,58.58H54.62A20.41,20.41,0,0,1,63,363.72Z"/><path class="cls-4" d="M113.34,299.08A52,52,0,0,0,63,363.72a20.31,20.31,0,0,1,32,13.43h18.59a23.11,23.11,0,0,1,17.72-21.94,42,42,0,0,1,25.34-32.94A51.89,51.89,0,0,0,113.34,299.08Z"/><path class="cls-4" d="M93.13,377.15h1.81a20.36,20.36,0,0,0-.63-2.8Q93.77,375.78,93.13,377.15Z"/><path class="cls-9" d="M74.78,359.94a20.45,20.45,0,0,0-20.16,17.21H93.13q.64-1.37,1.19-2.8A20.45,20.45,0,0,0,74.78,359.94Z"/><path class="cls-3" d="M131.26,355.21a23.11,23.11,0,0,0-17.72,21.94h20.54A41.84,41.84,0,0,1,130.85,361,42.29,42.29,0,0,1,131.26,355.21Z"/><path class="cls-3" d="M158.23,377.15h1.51a23.28,23.28,0,0,0-.18-2.42Q158.92,376,158.23,377.15Z"/><path class="cls-10" d="M172.83,319a41.93,41.93,0,0,0-41.57,36.19,42.3,42.3,0,0,0-.41,5.78,41.84,41.84,0,0,0,3.23,16.15h24.15q.69-1.19,1.33-2.42a23.28,23.28,0,0,1,.18,2.42h51.84A42,42,0,0,0,172.83,319Z"/><g id="_Group_" data-name="&lt;Group&gt;"><path id="_Path_" data-name="&lt;Path&gt;" class="cls-11" d="M182.91,158.68a7.81,7.81,0,0,0-7.82,7.82V361.25a7.81,7.81,0,0,0,7.82,7.82H506.32a7.81,7.81,0,0,0,7.82-7.82V166.5a7.81,7.81,0,0,0-7.82-7.82Z"/><path id="_Path_2" data-name="&lt;Path&gt;" class="cls-9" d="M157.76,378.15H531.33a16.81,16.81,0,0,0,16.76-16.76H141A16.81,16.81,0,0,0,157.76,378.15Z"/><path id="_Path_3" data-name="&lt;Path&gt;" class="cls-12" d="M143.65,370.33a16.93,16.93,0,0,0,14.11,7.82H531.33a16.43,16.43,0,0,0,14.11-7.82Z"/><circle id="_Path_4" data-name="&lt;Path&gt;" class="cls-13" cx="171.46" cy="365.58" r="1.82"/><circle id="_Path_5" data-name="&lt;Path&gt;" class="cls-13" cx="166.29" cy="365.58" r="1.96"/><circle id="_Path_6" data-name="&lt;Path&gt;" class="cls-13" cx="160.98" cy="365.58" r="1.96"/></g><g id="_Group_2" data-name="&lt;Group&gt;"><rect class="cls-10" x="188.07" y="171.24" width="312.88" height="181.63"/></g><rect class="cls-4" x="188.07" y="171.24" width="312.88" height="31.66"/><rect class="cls-8" x="348.05" y="212.21" width="142.84" height="126.83"/><path class="cls-8" d="M207.44,194.14l-7.26-7.26,7.26-7.26-2.23-2.23-9.31,9.31,9.31,9.31Zm8.19,0,7.26-7.26-7.26-7.26,2.23-2.23,9.31,9.31L217.87,196Z"/><rect class="cls-8" x="195.9" y="212.21" width="142.84" height="126.83"/><rect class="cls-10" x="356.44" y="219.66" width="72.26" height="9.13"/><rect class="cls-10" x="434.1" y="219.66" width="48.05" height="9.13"/><rect class="cls-10" x="356.44" y="234.37" width="51.77" height="9.13"/><rect class="cls-10" x="413.61" y="234.74" width="45.44" height="9.13"/><rect class="cls-10" x="356.44" y="249.08" width="68.72" height="9.13"/><rect class="cls-10" x="430.38" y="249.08" width="19.37" height="9.13"/><rect class="cls-10" x="356.44" y="263.98" width="88.65" height="9.13"/><rect class="cls-10" x="356.44" y="278.69" width="51.22" height="9.13"/><rect class="cls-10" x="412.5" y="278.69" width="32.59" height="9.13"/><rect class="cls-10" x="356.44" y="293.41" width="88.65" height="9.13"/><rect class="cls-10" x="356.44" y="308.31" width="93.3" height="9.13"/><rect class="cls-10" x="356.44" y="323.02" width="114.16" height="9.13"/><circle class="cls-10" cx="471.9" cy="177.57" r="2.79"/><circle class="cls-10" cx="481.96" cy="177.57" r="2.79"/><circle class="cls-10" cx="491.83" cy="177.57" r="2.79"/><rect class="cls-10" x="206" y="219.15" width="56.21" height="50.43"/><rect class="cls-10" x="272.79" y="219.15" width="56.21" height="50.43"/><rect class="cls-10" x="206" y="281.72" width="56.21" height="50.43"/><rect class="cls-10" x="272.79" y="281.72" width="56.21" height="50.43"/></svg>