<svg id="Layer_1" data-name="Layer 1" xmlns="http://www.w3.org/2000/svg" viewBox="0 0 250 178.06"><defs><style>.cls-1{fill:none;stroke:#d0d8dc;stroke-miterlimit:10;stroke-width:2px;}.cls-2{fill:#d0d8dc;}.cls-3{fill:#cbeafb;}.cls-4{fill:#57a7db;}.cls-5{fill:#fff;}.cls-6{fill:#81c784;}.cls-7{fill:#f4ae7a;}.cls-8{fill:#fc6142;}.cls-9{fill:#fcd156;}.cls-10{fill:#71be71;}</style></defs><title>custom-development</title><polyline class="cls-1" points="174.45 140.43 219.34 140.43 219.34 24.98 157.24 24.98"/><path id="_Path_" data-name="&lt;Path&gt;" class="cls-2" d="M193.65,137.9h-4.08v-1a2.82,2.82,0,0,0-2.81-2.81H161a2.82,2.82,0,0,0-2.81,2.81v1h-4.08V143h4.08v1a2.82,2.82,0,0,0,2.81,2.81h25.74a2.82,2.82,0,0,0,2.81-2.81v-1h4.08Z"/><path id="_Path_2" data-name="&lt;Path&gt;" class="cls-2" d="M171,22.44h-4.08v-1a2.82,2.82,0,0,0-2.81-2.81H138.37a2.82,2.82,0,0,0-2.81,2.81v1h-4.08v5.06h4.08v1a2.82,2.82,0,0,0,2.81,2.81h25.74a2.82,2.82,0,0,0,2.81-2.81v-1H171Z"/><rect class="cls-3" x="8.02" y="6.26" width="147.11" height="163.21"/><rect class="cls-4" x="8.02" y="163.94" width="147.11" height="8.21"/><rect class="cls-4" x="8.02" y="6.26" width="147.11" height="12.38"/><rect class="cls-5" x="41.43" y="143.31" width="9.84" height="2.03"/><rect class="cls-6" x="86.92" y="143.31" width="9.84" height="2.03"/><rect class="cls-5" x="41.43" y="137.1" width="41.04" height="2.03"/><rect class="cls-7" x="31.59" y="155.75" width="5.21" height="2.03"/><rect class="cls-7" x="31.59" y="31.4" width="6.11" height="2.03"/><rect class="cls-6" x="31.59" y="43.84" width="7" height="2.03"/><rect class="cls-5" x="41.43" y="43.84" width="19.52" height="2.03"/><rect class="cls-5" x="36.96" y="50.05" width="10.58" height="2.03"/><rect class="cls-5" x="79.39" y="50.05" width="10.58" height="2.03"/><rect class="cls-4" x="92.21" y="50.05" width="10.58" height="2.03"/><rect class="cls-5" x="51.27" y="50.05" width="24.35" height="2.03"/><rect class="cls-4" x="41.43" y="56.27" width="14.15" height="2.03"/><rect class="cls-5" x="59.61" y="56.27" width="30.36" height="2.03"/><rect class="cls-6" x="47.69" y="68.71" width="8.79" height="2.03"/><rect class="cls-7" x="47.69" y="74.92" width="8.79" height="2.03"/><rect class="cls-5" x="60.39" y="68.71" width="27.05" height="2.03"/><rect class="cls-5" x="60.39" y="74.92" width="37.63" height="2.03"/><rect class="cls-4" x="53.95" y="81.14" width="8.98" height="2.03"/><rect class="cls-5" x="60.39" y="87.36" width="60.16" height="2.03"/><rect class="cls-5" x="60.39" y="93.58" width="19.92" height="2.03"/><rect class="cls-4" x="83.84" y="93.58" width="8.89" height="2.03"/><rect class="cls-5" x="95.82" y="93.58" width="8.89" height="2.03"/><rect class="cls-7" x="37.85" y="99.79" width="6.11" height="2.03"/><rect class="cls-4" x="40.53" y="106.01" width="15.2" height="2.03"/><rect class="cls-4" x="123.71" y="106.01" width="10.73" height="2.03"/><rect class="cls-5" x="59.3" y="106.01" width="59.84" height="2.03"/><rect class="cls-5" x="49.48" y="112.23" width="50.79" height="2.03"/><rect class="cls-5" x="49.48" y="118.44" width="61.36" height="2.03"/><rect class="cls-4" x="45.9" y="124.66" width="7.16" height="2.03"/><rect class="cls-4" x="37.85" y="130.88" width="10.73" height="2.03"/><rect class="cls-5" x="55.07" y="143.31" width="27.4" height="2.03"/><circle class="cls-8" cx="16.08" cy="12.36" r="2.32"/><circle class="cls-6" cx="24.09" cy="12.36" r="2.32"/><circle class="cls-9" cx="32.1" cy="12.36" r="2.32"/><path id="_Path_3" data-name="&lt;Path&gt;" class="cls-10" d="M178.87,140.43a23.74,23.74,0,1,1-23.74-23.74A23.81,23.81,0,0,1,178.87,140.43Z"/><circle id="_Path_4" data-name="&lt;Path&gt;" class="cls-10" cx="219.36" cy="112.51" r="23.74"/><g id="_Group_" data-name="&lt;Group&gt;"><circle id="_Path_5" data-name="&lt;Path&gt;" class="cls-10" cx="219.36" cy="57.93" r="23.74"/></g><path id="_Compound_Path_" data-name="&lt;Compound Path&gt;" class="cls-5" d="M227.71,59c0-.4.1-.69.1-1.09a4.06,4.06,0,0,0-.1-1.09L230.09,55a.49.49,0,0,0,.1-.69l-2.27-3.86a.57.57,0,0,0-.69-.2l-2.77,1.09a7.16,7.16,0,0,0-1.88-1.09l-.4-3a.55.55,0,0,0-.59-.49h-4.45a.63.63,0,0,0-.59.49l-.4,3a11.65,11.65,0,0,0-1.88,1.09l-2.77-1.09a.57.57,0,0,0-.69.2l-2.27,3.86c-.1.2-.1.59.1.69L211,56.84c0,.4-.1.69-.1,1.09A4.06,4.06,0,0,0,211,59l-2.37,1.88a.49.49,0,0,0-.1.69l2.27,3.86a.57.57,0,0,0,.69.2l2.77-1.09a7.16,7.16,0,0,0,1.88,1.09l.4,3a.55.55,0,0,0,.59.49h4.45a.63.63,0,0,0,.59-.49l.4-3a11.65,11.65,0,0,0,1.88-1.09l2.77,1.09a.57.57,0,0,0,.69-.2l2.27-3.86c.1-.2.1-.59-.1-.69Zm-8.31,2.87a4,4,0,1,1,4-4A4,4,0,0,1,219.41,61.88Z"/><path class="cls-5" d="M149.46,134.71a.59.59,0,0,1-.17.32,15.07,15.07,0,0,1-3.37,2.88A20.08,20.08,0,0,1,142,140a1.11,1.11,0,0,0-.41.24,1,1,0,0,0,.37.25,27.05,27.05,0,0,1,3.84,2.25,16.88,16.88,0,0,1,3.37,2.88.8.8,0,0,1,.22.41s-.17.34-.51,1-.53,1-.58,1.17-.11.19-.18.19-.19-.08-.37-.24q-3.08-2.57-4.11-3.33a27.8,27.8,0,0,0-4.55-2.69.62.62,0,0,1-.39-.59v-2.32a.6.6,0,0,1,.46-.59,29.51,29.51,0,0,0,4.26-2.49,25.53,25.53,0,0,0,2.25-1.76q1.56-1.3,2.22-1.78a.7.7,0,0,1,.37-.19Q148.55,132.46,149.46,134.71Z"/><path class="cls-5" d="M159.51,127.58a2.79,2.79,0,0,1-.07.41q-1.07,4-3.11,12-.66,2.6-2,8-.27,1.3-.91,3.84-.12.34-.29.34-2.23-.9-2.38-1s-.07-.08-.07-.17a1.78,1.78,0,0,1,.1-.49q1.15-4,3.21-12.4.88-3.82,2.77-11.43.1-.34.27-.34a8.88,8.88,0,0,1,1.28.52Q159.51,127.43,159.51,127.58Z"/><path class="cls-5" d="M171.54,141.57a.62.62,0,0,1-.39.59,37.88,37.88,0,0,0-8.66,6,1.05,1.05,0,0,1-.37.24,19.69,19.69,0,0,1-1.27-2.35q0-.76,3.28-3a28.52,28.52,0,0,1,4.14-2.52,1,1,0,0,0,.37-.25,1.46,1.46,0,0,0-.41-.24,18.46,18.46,0,0,1-7.27-5,.58.58,0,0,1-.17-.32,8.12,8.12,0,0,1,.49-1,11.33,11.33,0,0,0,.55-1.11c0-.12.08-.19.13-.19a1.08,1.08,0,0,1,.39.22q1.44,1.23,4.47,3.53l2.1,1.35a14.76,14.76,0,0,0,2.16,1.13.6.6,0,0,1,.46.59Z"/><path class="cls-5" d="M215.69,125.45s-.06.08-.19.12a6.57,6.57,0,0,1-2.11.26,6.8,6.8,0,0,1-3-.51,2.91,2.91,0,0,1-1.47-2.84,9.64,9.64,0,0,1,.41-2.26,15.26,15.26,0,0,0,.53-2.34q.08-.83.08-1.45,0-1.66-.79-2.16a2.33,2.33,0,0,0-1.29-.38q-.25,0-.25-.3a3.3,3.3,0,0,1,.05-.48,3.23,3.23,0,0,0,.05-.48,3.07,3.07,0,0,0-.05-.46,3.12,3.12,0,0,1-.05-.46q0-.26.56-.38a3.29,3.29,0,0,0,1-.3,2.6,2.6,0,0,0,.78-2.22,13.52,13.52,0,0,0-.5-3,13.47,13.47,0,0,1-.5-3,2.89,2.89,0,0,1,1.47-2.82,6.8,6.8,0,0,1,3-.51,6.4,6.4,0,0,1,2.11.21.32.32,0,0,1,.19.32q0,.32-.06,1t-.07,1.08q0,.27-.25.27a7.27,7.27,0,0,1-1-.15A7.15,7.15,0,0,0,213,102q-1.15,0-1.15,1.25a11.09,11.09,0,0,0,.38,2.35,11.1,11.1,0,0,1,.38,2.36,6.63,6.63,0,0,1-.65,3.14,2.52,2.52,0,0,1-2.34,1.46q3,0,3,4.42a13.47,13.47,0,0,1-.38,2.6,13.43,13.43,0,0,0-.38,2.51q0,1.22,1.32,1.22a6.56,6.56,0,0,0,2.12-.41h.13q.12,0,.16.32a4.61,4.61,0,0,1,0,.63q0,.54,0,.48a3.86,3.86,0,0,0,.05.53A3.94,3.94,0,0,1,215.69,125.45Z"/><path class="cls-5" d="M231.1,113.58q0,.3-.23.3a2.29,2.29,0,0,0-1.29.38q-.79.5-.79,2.16,0,.62.06,1.45a15.18,15.18,0,0,0,.53,2.34,9.38,9.38,0,0,1,.43,2.26,2.9,2.9,0,0,1-1.49,2.84,8.93,8.93,0,0,1-5.11.26c-.12,0-.18-.08-.18-.12a3.94,3.94,0,0,1,.05-.53,3.87,3.87,0,0,0,.05-.53q0-.2,0-.58t0-.58q0-.27.17-.27h.12a9.18,9.18,0,0,0,2.12.41q1.32,0,1.32-1.22a13.49,13.49,0,0,0-.38-2.51,13.47,13.47,0,0,1-.38-2.6q0-4.42,3-4.42a2.5,2.5,0,0,1-2.34-1.46,6.52,6.52,0,0,1-.66-3.14,10.93,10.93,0,0,1,.38-2.36,10.94,10.94,0,0,0,.38-2.35q0-1.25-1.15-1.25a7.14,7.14,0,0,0-1.24.15,7.21,7.21,0,0,1-1.05.15q-.23,0-.23-.27T223.1,101q-.07-.7-.06-1a.32.32,0,0,1,.18-.32,6.54,6.54,0,0,1,2.12-.21,6.76,6.76,0,0,1,3,.51,2.89,2.89,0,0,1,1.49,2.82,13.28,13.28,0,0,1-.51,3,13.36,13.36,0,0,0-.51,3,2.57,2.57,0,0,0,.79,2.22,3.26,3.26,0,0,0,1,.3q.56.12.56.38a3.12,3.12,0,0,1-.05.46,3.07,3.07,0,0,0-.05.46,3.23,3.23,0,0,0,.05.48A3.3,3.3,0,0,1,231.1,113.58Z"/></svg>