<svg id="Layer_2" data-name="Layer 2" xmlns="http://www.w3.org/2000/svg" viewBox="0 0 548 390.3"><defs><style>.cls-1{fill:none;stroke:#d0d8dc;stroke-width:2px;}.cls-1,.cls-13,.cls-14{stroke-miterlimit:10;}.cls-2{fill:#d0d8dc;}.cls-3{fill:#70b2e2;}.cls-4{fill:#71be71;}.cls-5{fill:#b0bec5;}.cls-6{fill:#95c8ec;}.cls-7{fill:#99cf8c;}.cls-13,.cls-14,.cls-8{fill:#fff;}.cls-9{fill:#37474f;}.cls-10{fill:#90a4ae;}.cls-11{fill:#bdddf4;}.cls-12{fill:#57a7db;}.cls-13,.cls-14{stroke:#fff;}.cls-13{stroke-width:0.69px;}.cls-14{stroke-width:0.69px;}</style></defs><title>integration</title><polyline id="_Path_" data-name="&lt;Path&gt;" class="cls-1" points="492.5 141.65 492.5 57.65 48.16 57.65 48.16 322.62 141.47 322.62"/><path id="_Path_2" data-name="&lt;Path&gt;" class="cls-2" d="M188.67,319.57h-6.82v-1.65a4.71,4.71,0,0,0-4.7-4.7h-43a4.71,4.71,0,0,0-4.7,4.7v1.65h-6.82V328h6.82v1.65a4.71,4.71,0,0,0,4.7,4.7h43a4.71,4.71,0,0,0,4.7-4.7V328h6.82Z"/><path id="_Path_3" data-name="&lt;Path&gt;" class="cls-2" d="M497,184.82V178h1.65a4.71,4.71,0,0,0,4.7-4.7v-43a4.71,4.71,0,0,0-4.7-4.7H497v-6.82h-8.46v6.82h-1.65a4.71,4.71,0,0,0-4.7,4.7v43a4.71,4.71,0,0,0,4.7,4.7h1.65v6.82Z"/><circle class="cls-3" cx="492.75" cy="55.9" r="40.75"/><circle class="cls-4" cx="340.75" cy="55.9" r="40.75"/><circle class="cls-5" cx="188.75" cy="55.9" r="40.75"/><circle class="cls-6" cx="46.75" cy="125.9" r="40.75"/><circle class="cls-7" cx="46.75" cy="243.9" r="40.75"/><path class="cls-8" d="M73.71,230.26a2.77,2.77,0,0,0-2.77-2.76h0l-48.43.07a2.77,2.77,0,0,0-2.76,2.77l0,27.21a2.77,2.77,0,0,0,2.77,2.76h0L71,260.24a2.77,2.77,0,0,0,2.76-2.77Zm-18,17.49,12.55,9.73-43,.06,12.62-9.79a1.38,1.38,0,0,0-1.7-2.19l-13.6,10.54,0-24.52L46,247.79a1.38,1.38,0,0,0,1.58,0l23.4-16.27,0,24.58L57.39,245.56a1.38,1.38,0,0,0-1.69,2.19ZM25.55,230.32l42.35-.06L46.75,245Z"/><path class="cls-8" d="M69.69,106.15H23.81a2.66,2.66,0,0,0-2.65,2.65V143a2.66,2.66,0,0,0,2.65,2.65H69.69A2.66,2.66,0,0,0,72.35,143V108.8A2.66,2.66,0,0,0,69.69,106.15Zm-30.25,3.07a2,2,0,1,1-2,2A2,2,0,0,1,39.44,109.22Zm-5.77,0a2,2,0,1,1-2,2A2,2,0,0,1,33.67,109.22Zm-5.78,0a2,2,0,1,1-2,2A2,2,0,0,1,27.9,109.22ZM70,143a.34.34,0,0,1-.33.34H23.81a.33.33,0,0,1-.33-.34V115.28H70Z"/><path class="cls-8" d="M46.75,118.07a11.39,11.39,0,1,0,11.39,11.39A11.4,11.4,0,0,0,46.75,118.07ZM44.43,134a13.52,13.52,0,0,1-.82-3.63h6.27a13.56,13.56,0,0,1-.82,3.63Zm3.73,2a19.15,19.15,0,0,1-1.4,2.23,19,19,0,0,1-1.4-2.23Zm-10.77-5.65h4.26a15,15,0,0,0,.68,3.63H38.51A9.31,9.31,0,0,1,37.39,130.36ZM49.17,125a13.48,13.48,0,0,1,.72,3.38H43.61a13.38,13.38,0,0,1,.72-3.38Zm-4-2a15.56,15.56,0,0,1,1.53-2.36,15.57,15.57,0,0,1,1.53,2.36Zm-3.56,5.4H37.42A9.37,9.37,0,0,1,38.49,125H42.3A15.43,15.43,0,0,0,41.66,128.34Zm10.19,2h4.26A9.32,9.32,0,0,1,55,134H51.17A15.08,15.08,0,0,0,51.85,130.36Zm0-2A15.49,15.49,0,0,0,51.2,125H55a9.34,9.34,0,0,1,1.08,3.38Zm1.67-5.4H50.43A18.46,18.46,0,0,0,49,120.33,9.38,9.38,0,0,1,53.51,122.93Zm-9-2.61a18.3,18.3,0,0,0-1.45,2.61H40A9.4,9.4,0,0,1,44.52,120.33ZM40,136h3.11a19.74,19.74,0,0,0,1.47,2.59A9.39,9.39,0,0,1,40,136Zm8.88,2.59A19.5,19.5,0,0,0,50.37,136h3.11A9.38,9.38,0,0,1,48.9,138.6Z"/><g id="_Group_" data-name="&lt;Group&gt;"><path id="_Path_4" data-name="&lt;Path&gt;" class="cls-9" d="M168.45,152.64a8.1,8.1,0,0,0-8.11,8.11V362.63a8.1,8.1,0,0,0,8.11,8.11H503.7a8.1,8.1,0,0,0,8.11-8.11V160.75a8.1,8.1,0,0,0-8.11-8.11Z"/><path id="_Path_5" data-name="&lt;Path&gt;" class="cls-2" d="M142.38,380.15H529.62A17.43,17.43,0,0,0,547,362.77H125A17.43,17.43,0,0,0,142.38,380.15Z"/><path id="_Path_6" data-name="&lt;Path&gt;" class="cls-5" d="M127.75,372a17.55,17.55,0,0,0,14.63,8.11H529.62A17,17,0,0,0,544.25,372Z"/><circle id="_Path_7" data-name="&lt;Path&gt;" class="cls-10" cx="156.57" cy="367.12" r="1.88"/><circle id="_Path_8" data-name="&lt;Path&gt;" class="cls-10" cx="151.21" cy="367.12" r="2.03"/><circle id="_Path_9" data-name="&lt;Path&gt;" class="cls-10" cx="145.71" cy="367.12" r="2.03"/></g><g id="_Group_2" data-name="&lt;Group&gt;"><rect class="cls-11" x="173.8" y="165.66" width="324.33" height="188.28"/></g><rect class="cls-12" x="173.8" y="165.66" width="324.33" height="32.82"/><rect class="cls-8" x="339.63" y="208.13" width="148.07" height="131.47"/><path class="cls-8" d="M193.88,189.41l-7.53-7.53,7.53-7.53L191.56,172l-9.65,9.65,9.65,9.65Zm8.49,0,7.53-7.53-7.53-7.53,2.32-2.32,9.65,9.65-9.65,9.65Z"/><rect class="cls-8" x="181.91" y="208.13" width="148.07" height="131.47"/><rect class="cls-11" x="348.33" y="215.85" width="74.91" height="9.46"/><rect class="cls-11" x="428.83" y="215.85" width="49.81" height="9.46"/><rect class="cls-11" x="348.33" y="231.11" width="53.67" height="9.46"/><rect class="cls-11" x="407.6" y="231.49" width="47.11" height="9.46"/><rect class="cls-11" x="348.33" y="246.36" width="71.24" height="9.46"/><rect class="cls-11" x="424.97" y="246.36" width="20.08" height="9.46"/><rect class="cls-11" x="348.33" y="261.8" width="91.89" height="9.46"/><rect class="cls-11" x="348.33" y="277.05" width="53.09" height="9.46"/><rect class="cls-11" x="406.44" y="277.05" width="33.78" height="9.46"/><rect class="cls-11" x="348.33" y="292.3" width="91.89" height="9.46"/><rect class="cls-11" x="348.33" y="307.75" width="96.72" height="9.46"/><rect class="cls-11" x="348.33" y="323" width="118.34" height="9.46"/><circle class="cls-11" cx="468.01" cy="172.22" r="2.9"/><circle class="cls-11" cx="478.44" cy="172.22" r="2.9"/><circle class="cls-11" cx="488.67" cy="172.22" r="2.9"/><rect class="cls-11" x="192.38" y="215.33" width="58.27" height="52.28"/><rect class="cls-11" x="261.61" y="215.33" width="58.27" height="52.28"/><rect class="cls-11" x="192.38" y="280.19" width="58.27" height="52.28"/><rect class="cls-11" x="261.61" y="280.19" width="58.27" height="52.28"/><path class="cls-13" d="M193.46,38.3h-.4a5.75,5.75,0,0,0,1.46-3.83v-3.2a5.77,5.77,0,1,0-11.55,0v3.2a5.75,5.75,0,0,0,1.46,3.83H184a7.19,7.19,0,0,0-7.18,7.18v4.85a1,1,0,0,0,1,1h21.84a1,1,0,0,0,1-1V45.47A7.19,7.19,0,0,0,193.46,38.3Zm-4.71-10.87a3.84,3.84,0,0,1,3.79,3.27l-1.71-1a1,1,0,0,0-1.23.21,4.3,4.3,0,0,1-3.3,1.54h-1.38v-.19h0A3.84,3.84,0,0,1,188.75,27.43Zm-3.83,6h1.38a6.23,6.23,0,0,0,4.21-1.63L192.58,33v1.49a3.83,3.83,0,1,1-7.67,0V33.39Zm13.78,16H178.8V45.47A5.24,5.24,0,0,1,184,40.24h3.74v1.94a1,1,0,0,0,1.94,0V40.24h3.74a5.24,5.24,0,0,1,5.24,5.24Z"/><path class="cls-13" d="M178.86,64.18h-1.34a4.49,4.49,0,0,0,.81-2.58v-.89a4.52,4.52,0,1,0-9,0v.89a4.49,4.49,0,0,0,.81,2.58h-1.34A4.86,4.86,0,0,0,163.92,69v5.15a1,1,0,0,0,1,1h17.85a1,1,0,0,0,1-1V69A4.86,4.86,0,0,0,178.86,64.18Zm-7.62-3.46a2.58,2.58,0,0,1,5.15,0v.89a2.58,2.58,0,0,1-5.15,0Zm10.53,12.5H165.86V69a2.91,2.91,0,0,1,2.91-2.91h4.07v2a1,1,0,1,0,1.94,0v-2h4.07A2.91,2.91,0,0,1,181.77,69Z"/><path class="cls-13" d="M208.73,64.18h-1.34a4.49,4.49,0,0,0,.81-2.58v-.89a4.52,4.52,0,0,0-9,0v.89a4.49,4.49,0,0,0,.81,2.58h-1.34A4.86,4.86,0,0,0,193.79,69v5.15a1,1,0,0,0,1,1h17.85a1,1,0,0,0,1-1V69A4.86,4.86,0,0,0,208.73,64.18Zm-7.62-3.46a2.58,2.58,0,0,1,5.15,0v.89a2.58,2.58,0,0,1-5.15,0Zm10.53,12.5H195.73V69a2.91,2.91,0,0,1,2.91-2.91h4.07v2a1,1,0,1,0,1.94,0v-2h4.07A2.91,2.91,0,0,1,211.64,69Z"/><path class="cls-13" d="M194.8,63.31l-5.08-5.08V54.15a1,1,0,0,0-1.94,0v4.08l-5.08,5.08a1,1,0,0,0,1.37,1.37L188.75,60l4.68,4.68a1,1,0,0,0,1.37-1.37Z"/><path class="cls-13" d="M189.44,45.22a1,1,0,1,0,.28.69A1,1,0,0,0,189.44,45.22Z"/><path class="cls-14" d="M487.86,70.93A4.11,4.11,0,1,0,492,75,4.11,4.11,0,0,0,487.86,70.93Zm0,5.93A1.82,1.82,0,1,1,489.68,75,1.82,1.82,0,0,1,487.86,76.86Z"/><path class="cls-14" d="M502.28,70.93A4.11,4.11,0,1,0,506.39,75,4.11,4.11,0,0,0,502.28,70.93Zm0,5.93A1.82,1.82,0,1,1,504.09,75,1.82,1.82,0,0,1,502.28,76.86Z"/><path class="cls-14" d="M503.29,49.29H486.85a1.15,1.15,0,0,0,0,2.29h16.44a1.15,1.15,0,1,0,0-2.29Z"/><path class="cls-14" d="M502.4,55.25H487.74a1.15,1.15,0,0,0,0,2.29H502.4a1.15,1.15,0,0,0,0-2.29Z"/><path class="cls-14" d="M514.48,44.18a2.29,2.29,0,0,0-1.78-.85H477l-.72-3.5a2.3,2.3,0,0,0-1.33-1.64l-5-2.19a1.15,1.15,0,0,0-.91,2.1l5,2.19,5.55,26.95a2.3,2.3,0,0,0,2.25,1.83h27.49a1.15,1.15,0,1,0,0-2.29H481.79l-.68-3.28H509.5a2.3,2.3,0,0,0,2.25-1.83L515,46.09A2.29,2.29,0,0,0,514.48,44.18Zm-5,17H480.65l-3.21-15.58H512.7Z"/><rect class="cls-8" x="333.97" y="54.53" width="21.43" height="2.9"/><rect class="cls-8" x="333.97" y="60.5" width="21.43" height="2.9"/><path class="cls-8" d="M361.83,37.82l-9-8.67H327.54v7h-7V78.65h34.29v-7h7ZM353.7,34l3.09,3H353.7ZM352,75.75H323.47V39h4.07V71.68H352Zm-21.52-7V32.05H350.8v7.83h8.13v28.9Z"/><path class="cls-8" d="M344.8,45.87c-.65,0-1.16-.29-1.56-1.69l-.17-.61L341.2,44.7l.07.33a3.63,3.63,0,0,0,2.5,2.8v1.25h2V47.82a3.06,3.06,0,0,0,1.44-.9,3.23,3.23,0,0,0,.86-2.26v0a2.83,2.83,0,0,0-1.2-2.34,7,7,0,0,0-1.31-.79l-.73-.38c-.12-.07-.28-.18-.47-.3h0a.77.77,0,0,1-.36-.7.68.68,0,0,1,.65-.71c.43,0,.72.12,1.08.77l.25.45,1.76-1.14-.2-.39a3.06,3.06,0,0,0-1.76-1.61V36.22h-2v1.26a2.85,2.85,0,0,0-1.89,2.73,2.56,2.56,0,0,0,.87,2,6.19,6.19,0,0,0,1.7,1c1.13.54,1.51.89,1.51,1.4a1.25,1.25,0,0,1-.25.81A1.1,1.1,0,0,1,344.8,45.87Z"/></svg>