<?xml version="1.0" encoding="utf-8"?>
<!-- Generator: Adobe Illustrator 22.0.1, SVG Export Plug-In . SVG Version: 6.00 Build 0)  -->
<svg version="1.1" id="Layer_5" xmlns="http://www.w3.org/2000/svg" xmlns:xlink="http://www.w3.org/1999/xlink" x="0px" y="0px"
	 viewBox="0 0 548 390.3" style="enable-background:new 0 0 548 390.3;" xml:space="preserve">
<style type="text/css">
	.st0{fill:#EEEEEE;}
	.st1{fill:#F9DAC0;}
	.st2{fill:#FFFFFF;}
	.st3{fill:#3F535C;}
	.st4{fill:#546E7A;}
	.st5{fill:#BDDDF4;}
	.st6{fill:#57A7DB;}
	.st7{fill:#E4F2FB;}
	.st8{fill:#A3D1EE;}
	.st9{fill:#F4AE7A;}
	.st10{fill:#71BE72;}
</style>
<title>support</title>
<g id="_Group_">
	<g id="_Group_2">
		<path id="_Compound_Path_" class="st0" d="M390.3,200.5l1.3-3.4c2.4,0.2,4.9,0.2,7.3-0.2l1.5,3.1c0.9,2,3.2,2.9,5.1,2
			c0.1,0,0.2-0.1,0.3-0.2l4.2-1.9c2-0.9,2.9-3.2,2-5.1c0-0.1-0.1-0.2-0.2-0.3l-1.5-3.2c1.9-1.6,3.6-3.4,5.1-5.4l3.4,1.3
			c2,0.8,4.4-0.2,5.2-2.2v-0.1l1.5-4.2c0.7-2.1-0.3-4.4-2.3-5.2l-3.4-1.3c0.2-2.4,0.2-4.9-0.2-7.3l3.1-1.5c2-0.9,2.9-3.2,2-5.2
			c0-0.1-0.1-0.2-0.1-0.3l-1.9-4.2c-0.9-2-3.2-2.9-5.1-2c-0.1,0-0.2,0.1-0.3,0.2l-3.1,1.5c-1.6-1.9-3.4-3.6-5.5-5l1.3-3.1
			c0.7-2.1-0.3-4.4-2.3-5.2l-4.2-1.6c-1-0.5-2.2-0.4-3.1,0.2c-1,0.4-1.8,1.3-2.1,2.3l-1.3,3.4c-2.4-0.2-4.9-0.2-7.3,0.2l-1.5-3.2
			c-0.9-2-3.2-2.9-5.1-2c-0.1,0-0.2,0.1-0.3,0.2l-4.2,1.9c-2,0.9-2.9,3.2-2,5.1c0,0.1,0.1,0.2,0.2,0.3l1.5,3.2
			c-1.9,1.6-3.6,3.4-5,5.4l-3.4-1.3c-1-0.5-2.2-0.4-3.1,0.2c-1,0.4-1.8,1.3-2.1,2.3l-1.5,4.2c-0.5,1-0.4,2.2,0.2,3.1
			c0.4,1,1.3,1.8,2.3,2.1l3.4,1.3c-0.2,2.4-0.2,4.9,0.2,7.3l-3.1,1.5c-2,0.9-2.9,3.2-2,5.1c0,0.1,0.1,0.2,0.2,0.3l1.9,4.2
			c0.9,2,3.2,2.9,5.1,2c0.1,0,0.2-0.1,0.3-0.2l2.9-2.1c1.6,1.9,3.4,3.6,5.5,5l-1.3,3.3c-0.5,1-0.4,2.2,0.2,3.1
			c0.4,1,1.3,1.8,2.3,2.1l4.2,1.5C387.3,203.5,389.5,202.5,390.3,200.5L390.3,200.5z M379.8,178.2c-1-2.1-1.5-4.4-1.5-6.7
			c-0.1-6.2,3.6-11.9,9.2-14.5c8-3.7,17.5-0.3,21.2,7.7l0,0c1,2.1,1.5,4.4,1.5,6.7c0.1,6.3-3.5,12-9.2,14.5
			c-7.9,3.7-17.4,0.3-21.1-7.6C379.8,178.3,379.8,178.3,379.8,178.2z"/>
		<path id="_Compound_Path_2" class="st0" d="M378.8,240.5l0.6-1.9c1.4,0.1,2.8,0.1,4.2-0.2l0.8,1.9c0.5,1.1,1.8,1.5,2.8,1.1
			c0,0,0.1,0,0.1-0.1l2.3-1c1.1-0.5,1.5-1.8,1.1-2.8c0,0,0-0.1-0.1-0.1l-0.8-1.9c1.1-0.8,2-1.8,2.7-2.9l1.9,0.6
			c1.2,0.4,2.4-0.1,2.9-1.3l0.8-2.3c0.4-1.2-0.2-2.4-1.3-2.9l-1.9-0.6c0.1-1.4,0.1-2.8-0.2-4.2l1.9-0.8c1.1-0.5,1.5-1.8,1.1-2.8
			c0,0,0-0.1-0.1-0.1l-1-2.3c-0.5-1.1-1.8-1.5-2.8-1.1c0,0-0.1,0-0.1,0.1l-1.9,0.8c-0.8-1.1-1.8-2-2.9-2.7l0.6-1.9
			c0.4-1.1-0.1-2.4-1.2-2.9l-2.3-0.8c-0.5-0.2-1.1-0.2-1.7,0s-1.1,0.7-1.3,1.3l-0.7,1.9c-1.4-0.1-2.8-0.1-4.2,0.2l-0.8-1.9
			c-0.5-1.1-1.8-1.5-2.8-1.1c0,0-0.1,0-0.1,0.1l-2.3,1c-1.1,0.5-1.5,1.8-1.1,2.8c0,0,0,0.1,0.1,0.1l0.8,1.9c-1.1,0.8-2,1.8-2.7,2.9
			l-1.9-0.6c-0.5-0.2-1.1-0.2-1.7,0s-1.1,0.6-1.3,1.2l-0.8,2.3c-0.2,0.5-0.2,1.1,0,1.7c0.2,0.6,0.7,1,1.3,1.3l1.9,0.6
			c-0.1,1.4-0.1,2.8,0.2,4.2l-1.9,0.8c-1.1,0.5-1.5,1.8-1.1,2.8c0,0,0,0.1,0.1,0.1l1,2.3c0.5,1.1,1.8,1.5,2.8,1.1c0,0,0.1,0,0.1-0.1
			l1.9-0.8c0.8,1.1,1.8,2,2.9,2.7l-0.6,1.9c-0.2,0.5-0.2,1.1,0,1.7c0.2,0.6,0.7,1.1,1.3,1.3l2.3,0.8
			C377,242.2,378.3,241.6,378.8,240.5z M372.9,228.1c-0.6-1.2-0.9-2.5-0.8-3.8c0-3.5,2.1-6.6,5.2-8c4.5-2,9.7,0,11.8,4.4
			c0.6,1.2,0.9,2.5,0.8,3.8c0,3.5-2.1,6.6-5.2,8C380.2,234.5,375,232.5,372.9,228.1L372.9,228.1z"/>
		<path id="_Compound_Path_3" class="st0" d="M449.9,282.7l2.1-5.7c4.1,0.4,8.3,0.2,12.4-0.4l2.5,5.4c1.6,3.4,5.6,4.8,9,3.4l6.9-3.1
			c3.4-1.6,4.8-5.6,3.4-9l-2.5-5.5c3.3-2.6,6.1-5.7,8.4-9.2l5.7,2.1c3.5,1.3,7.5-0.5,8.8-4l2.7-7.1c1.2-3.5-0.6-7.4-4-8.8l-5.7-2.1
			c0.4-4.1,0.2-8.3-0.4-12.4l5.2-2.5c3.4-1.6,4.8-5.6,3.4-9l-3.4-6.9c-1.6-3.4-5.6-4.8-9-3.4l-5.5,2.5c-2.6-3.3-5.7-6.1-9.2-8.4
			l2.1-5.7c1.2-3.5-0.6-7.4-4-8.8l-7.1-2.7c-1.7-0.7-3.6-0.6-5.2,0.2s-2.9,2.1-3.6,3.8l-2.1,5.6c-4.1-0.4-8.3-0.2-12.4,0.4l-2.5-5.4
			c-1.6-3.4-5.6-4.8-9-3.4l-6.9,3.1c-3.4,1.6-4.8,5.6-3.4,9l2.5,5.4c-3.3,2.6-6.1,5.7-8.4,9.2l-5.7-2.1c-1.7-0.7-3.6-0.6-5.2,0.2
			s-2.9,2.1-3.6,3.8l-2.8,7.1c-0.7,1.7-0.6,3.6,0.2,5.2c0.8,1.6,2.1,2.9,3.8,3.6l5.7,2.1c-0.4,4.1-0.2,8.3,0.4,12.4l-5.5,2.5
			c-3.4,1.6-4.8,5.6-3.4,9l3.1,6.9c1.6,3.4,5.6,4.8,9,3.4l5.5-2.5c2.6,3.3,5.7,6.1,9.2,8.4l-2.1,5.7c-0.7,1.7-0.6,3.6,0.2,5.2
			c0.8,1.6,2.1,2.9,3.8,3.6l7.1,2.7c3.6,1.5,7.7-0.2,9.2-3.7C449.8,282.9,449.8,282.8,449.9,282.7z M432,245.3
			c-1.7-3.5-2.5-7.3-2.6-11.1c0-14.8,12-26.8,26.8-26.8c10.5,0,20.1,6.1,24.4,15.7c1.7,3.5,2.5,7.3,2.5,11.1
			c0,14.8-12,26.8-26.8,26.8C445.9,261.1,436.4,254.9,432,245.3L432,245.3z"/>
	</g>
</g>
<g>
	<path class="st1" d="M307.8,185.4l-36.2,33.5c-16.5,14.8-41.7,14.8-57.6,0l-36.2-33.5c-9.9-9.3-14.8-21.9-13.7-35.1l2.2-43.3
		c0-3.3,0.5-5.5,1.1-8.8c2.7-13.2,8.2-25.8,17-35.1c3.8-4.4,7.7-8.2,12.1-11.5c12.6-9.9,29.1-15.4,46.6-15.4s33.5,5.5,46.6,15.4
		c2.2,1.6,3.8,3.3,6,4.9c2.7,2.2,4.4,4.4,6.6,6.6c8.2,9.9,14.3,21.9,17,35.1c0.5,2.7,1.1,5.5,1.1,8.8l2.2,43.3
		C322.6,162.9,317.7,176.1,307.8,185.4z"/>
	<path class="st2" d="M269.4,173.9c0,2.7-0.5,5.5-1.1,7.7c-3.8,11-13.2,18.7-25.2,18.7c-11.5,0-21.9-7.7-25.2-18.7
		c-1.1-2.7-1.1-4.9-1.1-7.7H269.4z"/>
	<path class="st3" d="M341.8,98.8h-11.5c0-48.3-39-87.2-87.2-87.2c-48.3,0-87.2,39-87.2,87.2h-11.5c0-54.3,44.4-98.8,98.8-98.8
		S341.8,44.4,341.8,98.8z"/>
	<path class="st4" d="M318.8,97.7c-2.7-13.2-8.2-25.8-17-35.1c-2.2-2.7-3.8-4.4-6.6-6.6c-1.1-1.1-2.2-1.6-3.3-2.7l-0.5-0.5
		c-1.1-0.5-1.6-1.6-2.7-2.2l0,0l0,0c-12.7-10-29.2-15.5-46.7-15.5s-33.5,5.5-46.6,15.4l0,0l0,0c-1.1,1.1-2.2,1.6-3.3,2.7
		c0,0,0,0-0.5,0c-1.1,1.1-2.2,1.6-3.3,2.7c0,0,0,0-0.5,0.5c-1.1,1.1-2.2,2.2-2.7,2.7c0,0,0,0,0,0.5c-1.1,1.1-2.2,2.2-2.7,3.3
		c-8.2,9.9-14.3,21.9-17,35.1c11.5-3.3,21.4-9.3,29.1-17.6c11.5,12.1,28,19.2,46.6,19.2s34.6-7.7,46.6-19.2
		C297.4,88.3,307.2,94.4,318.8,97.7z"/>
	<g>
		<circle class="st4" cx="208.5" cy="133.3" r="8.8"/>
		<circle class="st4" cx="277.6" cy="133.3" r="8.8"/>
	</g>
	<g>
		<polygon class="st5" points="195.3,210.1 240.3,255.7 219.5,290.2 183.3,219.5 		"/>
		<polygon class="st5" points="290.2,210.1 245.2,255.7 267.2,290.2 302.3,219.5 		"/>
	</g>
	<polygon class="st6" points="255.7,285.3 243.1,263.3 230.4,285.3 243.1,297.4 	"/>
	<polygon class="st6" points="277.1,356.1 243.1,297.4 208.5,356.1 243.1,390.6 	"/>
	<path class="st4" d="M199.2,187.1c0,1.6-0.5,3.3-1.6,3.8c-1.1,1.1-2.7,1.6-3.8,1.6h-26.9c-12.6,0-23-10.4-23-23v-15.4h11.5v15.4
		c0,6.6,4.9,11.5,11.5,11.5h26.9C197,181.6,199.2,184.3,199.2,187.1z"/>
	<g>
		<path class="st6" d="M157.5,88.9c-19.8,0-36.2,16.5-36.2,36.2s16.5,36.2,36.2,36.2"/>
		<path class="st6" d="M328.6,88.9c19.8,0,36.2,16.5,36.2,36.2s-16.5,36.2-36.2,36.2"/>
	</g>
	<path class="st3" d="M199.2,187.1c0,1.6-0.5,3.3-1.6,3.8c-1.1,1.1-2.7,1.6-3.8,1.6h-17V181h17C197,181.6,199.2,184.3,199.2,187.1z"
		/>
	<g>
		<path class="st5" d="M425.2,364.3H318.8c-5.5,0-11-4.4-11-11V216.2c0-5.5,4.4-11,11-11h106.4c5.5,0,11,4.4,11,11v137.7
			C436.2,359.9,430.7,364.3,425.2,364.3z"/>
		<rect x="321.5" y="218.9" class="st7" width="100.9" height="132.2"/>
		<path class="st5" d="M383.5,199.2h-23.6c-3.8,0-6.6,3.3-6.6,6.6v22.5h37.3v-22.5C390.1,201.9,387.9,199.2,383.5,199.2z"/>
		<g>
			<rect x="334.1" y="241.4" class="st8" width="76.3" height="9.9"/>
			<rect x="334.1" y="262.2" class="st8" width="76.3" height="9.9"/>
			<rect x="334.1" y="284.2" class="st8" width="76.3" height="9.9"/>
			<rect x="334.1" y="305.6" class="st8" width="76.3" height="9.9"/>
			<rect x="334.1" y="326.4" class="st8" width="37.9" height="9.9"/>
		</g>
	</g>
	<path class="st9" d="M87.2,200.3c-26.9,0-48.8,21.9-48.8,48.8c0,15.4,6.6,28.5,18.1,37.3l-9.9,27.4l25.8-19.2l0,0
		c4.9,1.6,10.4,2.7,15.4,2.7c26.9,0,48.8-21.9,48.8-48.8C136.1,222.2,114.1,200.3,87.2,200.3z"/>
	<g>
		<path class="st2" d="M80.1,256.8c0-3.3,0.5-5.5,1.6-7.7s3.3-3.8,5.5-6c1.1-0.5,2.2-1.1,3.3-2.2c1.6-0.5,2.7-1.6,3.8-2.7
			s2.2-2.2,3.3-3.3c1.1-1.1,1.6-2.7,1.6-4.4c0-1.1,0-2.7-0.5-3.3c-0.5-1.1-1.1-1.6-2.2-2.7c-0.5-0.5-1.6-1.1-2.7-1.6
			s-2.2-0.5-3.3-0.5c-1.6,0-2.7,0-3.8,0.5c-1.1,0.5-2.2,1.1-3.3,1.6c-1.1,0.5-1.6,1.6-2.2,2.2c-0.5,1.1-1.1,1.6-1.6,2.7l-7.7-4.9
			c0.5-2.2,1.6-3.8,3.3-4.9c1.1-1.6,2.7-2.7,3.8-3.8c1.1-1.1,3.8-1.6,4.9-2.2c2.2-0.5,3.8-0.5,5.5-0.5c2.2,0,4.4,0.5,6.6,1.1
			c2.2,0.5,3.8,1.6,5.5,3.3s3.3,3.3,3.8,5.5c1.1,2.2,1.6,4.4,1.6,7.7c0,2.2,0,3.8-0.5,4.9c-0.5,1.1-1.1,2.7-2.2,3.8
			s-2.2,2.2-3.3,3.3c-1.1,1.1-2.7,2.2-3.8,2.7c-1.1,0.5-2.7,1.6-3.8,2.2c-1.1,0.5-2.2,1.6-3.3,2.2c-1.1,0.5-1.6,1.6-2.7,2.7
			c-0.5,1.1-1.1,2.2-1.1,3.8L80.1,256.8L80.1,256.8z M80.1,277.6v-12.1H90v12.1H80.1z"/>
	</g>
	<g>
		<path class="st10" d="M200.8,272.7l9.9-27.4l-25.8,19.2l0,0c-4.9-1.6-10.4-2.7-15.4-2.7c-26.9,0-48.8,21.9-48.8,48.8
			s21.9,48.8,48.8,48.8s48.8-21.9,48.8-48.8C218.4,295.2,211.8,281.4,200.8,272.7z"/>
		<g>
			<path class="st2" d="M164.6,317.1v-34.6H175v34.6H164.6z M164.6,338v-11.5H175V338H164.6z"/>
		</g>
	</g>
</g>
</svg>
