<svg id="Layer_1" data-name="Layer 1" xmlns="http://www.w3.org/2000/svg" xmlns:xlink="http://www.w3.org/1999/xlink" viewBox="0 0 412.45 131"><defs><style>.cls-1,.cls-9{fill:none;}.cls-2{clip-path:url(#clip-path);}.cls-3{clip-path:url(#clip-path-2);}.cls-4{fill:#737474;}.cls-5{fill:#ef5226;}.cls-6{fill:#80ba41;}.cls-7{fill:#339fd9;}.cls-8{fill:#fbb616;}.cls-9{stroke:#000;stroke-miterlimit:10;}.cls-10{fill:#856a1a;}</style><clipPath id="clip-path"><rect class="cls-1" y="5" width="164" height="121"/></clipPath><clipPath id="clip-path-2"><polyline class="cls-1" points="0 5 0 126 164 126 164 5"/></clipPath></defs><title>Microsoft_Gold_Partner_Collaboration_and_content</title><g class="cls-2"><g class="cls-3"><path d="M30.56,37.23H27.05V17.05q0-2.39.29-5.83h-.08a18.78,18.78,0,0,1-.9,2.91L16.15,37.23H14.44L4.2,14.31a17.33,17.33,0,0,1-.9-3.08H3.22q.17,1.8.17,5.87V37.23H0V7.18H4.64l9.19,21a26.67,26.67,0,0,1,1.36,3.6h.15q1-2.89,1.44-3.69L26.16,7.18h4.41V37.23"/><path d="M40.9,8.08a2.13,2.13,0,0,1-.67,1.6,2.32,2.32,0,0,1-3.18,0,2.14,2.14,0,0,1-.65-1.62A2.17,2.17,0,0,1,37,6.52a2.13,2.13,0,0,1,1.6-.66,2.18,2.18,0,0,1,1.61.65,2.15,2.15,0,0,1,.65,1.57m-.58,29.15H36.89V15.77h3.43V37.23"/><path d="M60.6,36.25a11.1,11.1,0,0,1-5.87,1.51,10.27,10.27,0,0,1-5.25-1.35,9.31,9.31,0,0,1-3.62-3.82A11.78,11.78,0,0,1,44.55,27a12,12,0,0,1,3-8.55,10.6,10.6,0,0,1,8.1-3.23,10.82,10.82,0,0,1,5,1.09v3.52a8.76,8.76,0,0,0-5.1-1.68,6.84,6.84,0,0,0-5.4,2.38,9,9,0,0,0-2.08,6.15,8.5,8.5,0,0,0,2,5.93,6.79,6.79,0,0,0,5.3,2.18A8.63,8.63,0,0,0,60.6,33v3.27"/><path d="M75.86,19.25a4.58,4.58,0,0,0-6.31,1.46,10,10,0,0,0-1.42,5.59V37.23H64.71V15.77h3.43v4.42h.08a7.57,7.57,0,0,1,2.19-3.51,5,5,0,0,1,3.41-1.29,5.58,5.58,0,0,1,2,.29v3.56"/><path d="M97.4,26.42a11.6,11.6,0,0,1-2.89,8.23,10.09,10.09,0,0,1-7.76,3.11,9.87,9.87,0,0,1-7.57-3,11.2,11.2,0,0,1-2.83-8q0-5.32,2.9-8.41a10.44,10.44,0,0,1,8-3.09,9.53,9.53,0,0,1,7.46,3q2.69,3,2.69,8.18m-3.51.13a9.5,9.5,0,0,0-1.79-6.2A6.26,6.26,0,0,0,87,18.18a6.56,6.56,0,0,0-5.22,2.21,9.21,9.21,0,0,0-1.92,6.23,8.74,8.74,0,0,0,1.93,6A6.63,6.63,0,0,0,87,34.82a6.28,6.28,0,0,0,5.12-2.14,9.38,9.38,0,0,0,1.78-6.14"/><path d="M113.31,31.49A5.56,5.56,0,0,1,111.17,36a8.75,8.75,0,0,1-5.69,1.74,10.52,10.52,0,0,1-5.31-1.3V32.77a8.61,8.61,0,0,0,5.56,2.05q4.07,0,4.07-3a2.63,2.63,0,0,0-.79-2,15.18,15.18,0,0,0-3.61-2.06,10.72,10.72,0,0,1-4-2.61,5.56,5.56,0,0,1-1.17-3.7A5.56,5.56,0,0,1,102.34,17a8.15,8.15,0,0,1,5.41-1.78,10.24,10.24,0,0,1,4.58,1v3.46a8,8,0,0,0-4.85-1.53,4.2,4.2,0,0,0-2.73.84,2.65,2.65,0,0,0-1,2.16,2.9,2.9,0,0,0,.79,2.19,11.77,11.77,0,0,0,3.28,1.81,11.82,11.82,0,0,1,4.28,2.72,5.29,5.29,0,0,1,1.23,3.58"/><path d="M136.68,26.42a11.6,11.6,0,0,1-2.89,8.23A10.09,10.09,0,0,1,126,37.76a9.87,9.87,0,0,1-7.57-3,11.2,11.2,0,0,1-2.83-8q0-5.32,2.9-8.41a10.44,10.44,0,0,1,8-3.09,9.53,9.53,0,0,1,7.46,3q2.69,3,2.69,8.18m-3.51.13a9.5,9.5,0,0,0-1.79-6.2,6.26,6.26,0,0,0-5.11-2.16,6.56,6.56,0,0,0-5.22,2.21,9.21,9.21,0,0,0-1.92,6.23,8.74,8.74,0,0,0,1.93,6,6.63,6.63,0,0,0,5.21,2.17,6.28,6.28,0,0,0,5.12-2.14,9.38,9.38,0,0,0,1.78-6.14"/><path d="M150.72,8.48a4.55,4.55,0,0,0-2.28-.57q-3.59,0-3.59,4.55v3.31h5v2.91h-5V37.23h-3.43V18.69h-3.63V15.77h3.63V12.29A7.33,7.33,0,0,1,143.34,7a6.47,6.47,0,0,1,4.89-2,6.7,6.7,0,0,1,2.49.38v3.1"/><path d="M163.16,37a6.55,6.55,0,0,1-3.22.69q-5.6,0-5.6-6.33V18.69h-3.68V15.77h3.68V10.53l3.43-1.11v6.35h5.39v2.91h-5.39V30.8a5,5,0,0,0,.73,3.07,3,3,0,0,0,2.44.91,3.64,3.64,0,0,0,2.22-.69V37"/><path d="M53.56,57.54a9,9,0,0,1-3,7,11.38,11.38,0,0,1-7.87,2.67H38.75V78.62H35.24V48.57h8.23q4.8,0,7.45,2.36a8.4,8.4,0,0,1,2.64,6.61m-3.68.19q0-6-7-6H38.75V64.08h3.68A8.28,8.28,0,0,0,48,62.43a5.85,5.85,0,0,0,1.92-4.7"/><path d="M71.44,78.62H68V75.27h-.08a7.16,7.16,0,0,1-6.58,3.88,7.08,7.08,0,0,1-5-1.69,5.82,5.82,0,0,1-1.86-4.54q0-6,7.06-7L68,65q0-5.45-4.41-5.45a10.56,10.56,0,0,0-7,2.62V58.67a10.44,10.44,0,0,1,3.22-1.37,14.75,14.75,0,0,1,4.05-.66q7.54,0,7.54,8v14M68,67.76l-5.18.73a7.64,7.64,0,0,0-3.72,1.27A3.56,3.56,0,0,0,58,72.65a3.22,3.22,0,0,0,1.15,2.59,4.39,4.39,0,0,0,2.95,1,5.47,5.47,0,0,0,4.21-1.8A6.4,6.4,0,0,0,68,69.9V67.76"/><path d="M88,60.64a4.58,4.58,0,0,0-6.31,1.46,10,10,0,0,0-1.42,5.59V78.62H76.82V57.16h3.43v4.42h.08a7.57,7.57,0,0,1,2.19-3.51,5,5,0,0,1,3.41-1.29,5.58,5.58,0,0,1,2,.29v3.56"/><path d="M103.94,78.41a6.55,6.55,0,0,1-3.22.69q-5.6,0-5.6-6.33V60.07H91.45V57.16h3.68V51.92l3.43-1.11v6.35h5.39v2.91H98.55V72.19a5,5,0,0,0,.73,3.07,3,3,0,0,0,2.44.91,3.64,3.64,0,0,0,2.21-.69v2.93"/><path d="M126.49,78.62h-3.43V66.38q0-6.81-5-6.81a5.43,5.43,0,0,0-4.23,1.92,7.09,7.09,0,0,0-1.7,4.89V78.62h-3.43V57.16h3.43v3.56h.08a7.68,7.68,0,0,1,7-4.09,6.49,6.49,0,0,1,5.38,2.31,10.22,10.22,0,0,1,1.85,6.54V78.62"/><path d="M148.9,68.75H133.8a8,8,0,0,0,1.91,5.54,6.66,6.66,0,0,0,5.07,1.92,10.46,10.46,0,0,0,6.62-2.35v3.21A12.2,12.2,0,0,1,140,79.14a9,9,0,0,1-7.14-3q-2.57-3-2.57-8.2a13.07,13.07,0,0,1,1.28-5.82,9.84,9.84,0,0,1,3.54-4.08,9.1,9.1,0,0,1,5-1.45,8.09,8.09,0,0,1,6.49,2.71q2.33,2.71,2.33,7.6v1.8m-3.51-2.91A7.13,7.13,0,0,0,144,61.22,4.85,4.85,0,0,0,140,59.57,5.51,5.51,0,0,0,136,61.29a8,8,0,0,0-2.13,4.55h11.55"/><path d="M164,60.64a4.58,4.58,0,0,0-6.31,1.46,10,10,0,0,0-1.42,5.59V78.62h-3.43V57.16h3.43v4.42h.08a7.57,7.57,0,0,1,2.19-3.51A5,5,0,0,1,162,56.78a5.58,5.58,0,0,1,2,.29v3.56"/><path class="cls-4" d="M91.21,116l-.66,1.85h0a17.81,17.81,0,0,0-.62-1.83l-3.53-8.88H82.91v14.12h2.28v-8.68c0-.54,0-1.18,0-1.92,0-.37-.05-.68-.06-.9h0c.12.53.24.94.32,1.21l4.23,10.3h1.59l4.2-10.39a9.22,9.22,0,0,0,.29-1.12h0c-.06,1-.1,2-.11,2.54v9h2.43V107.15H94.83L91.21,116"/><polyline class="cls-4" points="100.43 121.27 102.8 121.27 102.8 113.63 102.8 111.15 100.43 111.15 100.43 116.13 100.43 121.27"/><path class="cls-4" d="M101.64,106.85a1.43,1.43,0,0,0-1,.4,1.31,1.31,0,0,0-.42,1,1.28,1.28,0,0,0,.42,1,1.44,1.44,0,0,0,1,.39,1.46,1.46,0,0,0,1-.39,1.27,1.27,0,0,0,.42-1,1.34,1.34,0,0,0-.41-1,1.41,1.41,0,0,0-1-.41"/><path class="cls-4" d="M111.2,111.05a6.55,6.55,0,0,0-1.33-.14,5.84,5.84,0,0,0-2.89.7,4.67,4.67,0,0,0-1.9,2,6.26,6.26,0,0,0-.65,2.91,5.38,5.38,0,0,0,.64,2.61,4.47,4.47,0,0,0,1.78,1.8,5.28,5.28,0,0,0,2.59.63,5.66,5.66,0,0,0,2.86-.67l0,0v-2.18l-.1.07a4.46,4.46,0,0,1-1.16.61,3.5,3.5,0,0,1-1.14.22,2.92,2.92,0,0,1-2.22-.87,3.38,3.38,0,0,1-.82-2.41,3.51,3.51,0,0,1,.85-2.47,2.9,2.9,0,0,1,2.23-.92,3.8,3.8,0,0,1,2.26.79l.1.07v-2.3l0,0a3.92,3.92,0,0,0-1.1-.37"/><path class="cls-4" d="M119,111a2.43,2.43,0,0,0-1.59.57,3.23,3.23,0,0,0-.91,1.36h0v-1.75h-2.37v10.12h2.37V116.1a3.62,3.62,0,0,1,.59-2.15,1.81,1.81,0,0,1,1.53-.81,2.79,2.79,0,0,1,.71.11,1.81,1.81,0,0,1,.55.22l.1.07v-2.4l0,0A2.45,2.45,0,0,0,119,111"/><path class="cls-4" d="M125.46,110.91a5.26,5.26,0,0,0-3.93,1.45,5.46,5.46,0,0,0-1.42,4,5.17,5.17,0,0,0,1.38,3.79,5,5,0,0,0,3.72,1.4,5.12,5.12,0,0,0,3.85-1.47,5.45,5.45,0,0,0,1.42-3.93,5.31,5.31,0,0,0-1.33-3.82,4.89,4.89,0,0,0-3.69-1.39m1.89,7.79a2.4,2.4,0,0,1-2,.85,2.54,2.54,0,0,1-2-.86,3.67,3.67,0,0,1-.73-2.43,3.81,3.81,0,0,1,.73-2.5,2.5,2.5,0,0,1,2-.88,2.47,2.47,0,0,1,2,.84,3.73,3.73,0,0,1,.72,2.48,4,4,0,0,1-.68,2.51"/><path class="cls-4" d="M135.75,115.33a5.15,5.15,0,0,1-1.42-.74,1,1,0,0,1-.29-.78.87.87,0,0,1,.37-.72,1.63,1.63,0,0,1,1-.29,4.17,4.17,0,0,1,1.22.19,3.92,3.92,0,0,1,1.06.49l.1.07v-2.2l0,0a5.24,5.24,0,0,0-1.08-.3,6.59,6.59,0,0,0-1.18-.12,4.33,4.33,0,0,0-2.78.86,2.76,2.76,0,0,0-1.08,2.25,3.15,3.15,0,0,0,.23,1.25,2.51,2.51,0,0,0,.72.94A6.24,6.24,0,0,0,134,117a10.86,10.86,0,0,1,1.21.57,1.68,1.68,0,0,1,.53.44,1,1,0,0,1,.15.57c0,.68-.51,1-1.55,1a4.25,4.25,0,0,1-1.31-.24,4.93,4.93,0,0,1-1.34-.68l-.1-.07v2.32l0,0a6,6,0,0,0,1.27.39,6.81,6.81,0,0,0,1.36.16,4.6,4.6,0,0,0,2.94-.87,2.81,2.81,0,0,0,1.09-2.3,2.64,2.64,0,0,0-.59-1.74,5,5,0,0,0-2-1.28"/><path class="cls-4" d="M144.72,110.91a5.26,5.26,0,0,0-3.93,1.45,5.46,5.46,0,0,0-1.42,4,5.17,5.17,0,0,0,1.39,3.79,5,5,0,0,0,3.72,1.4,5.11,5.11,0,0,0,3.85-1.47,5.44,5.44,0,0,0,1.42-3.93,5.31,5.31,0,0,0-1.33-3.82,4.89,4.89,0,0,0-3.69-1.39m1.89,7.79a2.4,2.4,0,0,1-2,.85,2.54,2.54,0,0,1-2-.86,3.67,3.67,0,0,1-.73-2.43,3.81,3.81,0,0,1,.73-2.5,2.5,2.5,0,0,1,2-.88,2.47,2.47,0,0,1,2,.84,3.73,3.73,0,0,1,.72,2.48,4,4,0,0,1-.68,2.51"/><path class="cls-4" d="M162.39,113.09v-1.94H160v-3l-.08,0-2.26.69h0v2.29H154v-1.27a2,2,0,0,1,.39-1.35,1.38,1.38,0,0,1,1.1-.45,2.55,2.55,0,0,1,1,.24l.09,0v-2h0a4.05,4.05,0,0,0-1.33-.18,3.91,3.91,0,0,0-1.89.46,3.24,3.24,0,0,0-1.3,1.29,3.84,3.84,0,0,0-.46,1.89v1.4H150v1.94h1.67v8.18H154v-8.18h3.56v5.2c0,2.14,1,3.23,3,3.23a4.87,4.87,0,0,0,1-.11,2.79,2.79,0,0,0,.74-.24l0,0v-2l-.1.07a1.66,1.66,0,0,1-.48.21,1.83,1.83,0,0,1-.47.08,1.29,1.29,0,0,1-1-.37,2,2,0,0,1-.33-1.3v-4.78h2.4"/><polyline class="cls-5" points="63.54 113.63 52.38 113.63 52.38 102.44 63.54 102.44 63.54 113.63"/><polyline class="cls-6" points="75.86 113.63 64.7 113.63 64.7 102.44 75.86 102.44 75.86 113.63"/><polyline class="cls-7" points="63.54 126 52.38 126 52.38 114.8 63.54 114.8 63.54 126"/><polyline class="cls-8" points="75.86 126 64.7 126 64.7 114.8 75.86 114.8 75.86 126"/></g></g><line class="cls-9" x1="181" x2="181" y2="131"/><path class="cls-10" d="M209.43,69.82a10,10,0,0,1-3.31.59A5.07,5.07,0,0,1,200.58,65c0-3.22,2.23-5.57,5.84-5.57a6.67,6.67,0,0,1,2.69.5L208.77,61a5.59,5.59,0,0,0-2.38-.46A4,4,0,0,0,202,64.91c0,2.74,1.65,4.35,4.16,4.35a4.56,4.56,0,0,0,1.86-.29V65.75h-2.19V64.63h3.55Z"/><path class="cls-10" d="M218.52,66.36a3.79,3.79,0,0,1-3.86,4.11,3.68,3.68,0,0,1-3.71-4,3.78,3.78,0,0,1,3.84-4.11A3.67,3.67,0,0,1,218.52,66.36Zm-6.15.08c0,1.7,1,3,2.35,3s2.35-1.26,2.35-3c0-1.31-.66-3-2.32-3S212.37,65,212.37,66.44Z"/><path class="cls-10" d="M220.29,58.94h1.41V70.3h-1.41Z"/><path class="cls-10" d="M230.75,58.94V68.3c0,.69,0,1.47.06,2h-1.26L229.49,69h0a2.86,2.86,0,0,1-2.64,1.52c-1.87,0-3.31-1.58-3.31-3.94,0-2.58,1.58-4.16,3.47-4.16a2.59,2.59,0,0,1,2.34,1.18h0V58.94Zm-1.41,6.77a2.49,2.49,0,0,0-.06-.59,2.07,2.07,0,0,0-2-1.63c-1.46,0-2.32,1.28-2.32,3s.77,2.87,2.29,2.87a2.12,2.12,0,0,0,2.07-1.68,2.46,2.46,0,0,0,.06-.61Z"/><path class="cls-10" d="M244.07,69.95a6.9,6.9,0,0,1-2.85.51c-3,0-5.33-1.92-5.33-5.46a5.37,5.37,0,0,1,5.63-5.67,5.79,5.79,0,0,1,2.56.48L243.75,61a5.07,5.07,0,0,0-2.18-.45c-2.53,0-4.21,1.62-4.21,4.45,0,2.64,1.52,4.34,4.15,4.34a5.57,5.57,0,0,0,2.27-.45Z"/><path class="cls-10" d="M252.77,66.36a3.79,3.79,0,0,1-3.86,4.11,3.68,3.68,0,0,1-3.71-4A3.78,3.78,0,0,1,249,62.38,3.67,3.67,0,0,1,252.77,66.36Zm-6.15.08c0,1.7,1,3,2.35,3s2.35-1.26,2.35-3c0-1.31-.66-3-2.32-3S246.63,65,246.63,66.44Z"/><path class="cls-10" d="M254.54,58.94H256V70.3h-1.41Z"/><path class="cls-10" d="M258.32,58.94h1.41V70.3h-1.41Z"/><path class="cls-10" d="M266.38,70.3l-.11-1h0a2.88,2.88,0,0,1-2.37,1.15,2.21,2.21,0,0,1-2.37-2.22c0-1.87,1.66-2.9,4.66-2.88v-.16a1.6,1.6,0,0,0-1.76-1.79,3.86,3.86,0,0,0-2,.58l-.32-.93a4.81,4.81,0,0,1,2.54-.69c2.37,0,2.95,1.62,2.95,3.17v2.9a10.94,10.94,0,0,0,.13,1.86Zm-.21-4c-1.54,0-3.28.24-3.28,1.74a1.25,1.25,0,0,0,1.33,1.34,1.93,1.93,0,0,0,1.87-1.3,1.47,1.47,0,0,0,.08-.45Z"/><path class="cls-10" d="M269.74,70.3c0-.53.06-1.31.06-2V58.94h1.39V63.8h0a2.89,2.89,0,0,1,2.64-1.42c1.92,0,3.28,1.6,3.26,4,0,2.77-1.74,4.15-3.47,4.15A2.76,2.76,0,0,1,271.07,69h0L271,70.3Zm1.46-3.11a2.62,2.62,0,0,0,.06.51,2.17,2.17,0,0,0,2.11,1.65c1.47,0,2.35-1.2,2.35-3,0-1.55-.8-2.88-2.3-2.88a2.25,2.25,0,0,0-2.15,1.73,2.83,2.83,0,0,0-.08.58Z"/><path class="cls-10" d="M285.92,66.36a3.79,3.79,0,0,1-3.86,4.11,3.68,3.68,0,0,1-3.71-4,3.78,3.78,0,0,1,3.84-4.11A3.67,3.67,0,0,1,285.92,66.36Zm-6.15.08c0,1.7,1,3,2.35,3s2.35-1.26,2.35-3c0-1.31-.66-3-2.32-3S279.78,65,279.78,66.44Z"/><path class="cls-10" d="M287.7,65c0-.91,0-1.7-.06-2.42h1.23l0,1.52H289a2.32,2.32,0,0,1,2.14-1.7,1.51,1.51,0,0,1,.4,0v1.33a2.14,2.14,0,0,0-.48,0,2,2,0,0,0-1.89,1.81,4,4,0,0,0-.06.66V70.3H287.7Z"/><path class="cls-10" d="M297.22,70.3l-.11-1h0a2.88,2.88,0,0,1-2.37,1.15,2.21,2.21,0,0,1-2.37-2.22c0-1.87,1.66-2.9,4.66-2.88v-.16a1.6,1.6,0,0,0-1.76-1.79,3.86,3.86,0,0,0-2,.58l-.32-.93a4.81,4.81,0,0,1,2.54-.69c2.37,0,2.95,1.62,2.95,3.17v2.9a10.94,10.94,0,0,0,.13,1.86Zm-.21-4c-1.54,0-3.28.24-3.28,1.74a1.25,1.25,0,0,0,1.33,1.34,1.93,1.93,0,0,0,1.87-1.3,1.47,1.47,0,0,0,.08-.45Z"/><path class="cls-10" d="M302.34,60.33v2.23h2v1.07h-2V67.8c0,1,.27,1.5,1.06,1.5a3.1,3.1,0,0,0,.82-.1l.06,1.06a3.44,3.44,0,0,1-1.25.19,2,2,0,0,1-1.52-.59,2.87,2.87,0,0,1-.54-2V63.63h-1.2V62.55H301V60.7Z"/><path class="cls-10" d="M307.5,60.38a.87.87,0,0,1-1.75,0,.86.86,0,0,1,.88-.88A.84.84,0,0,1,307.5,60.38Zm-1.57,9.92V62.55h1.41V70.3Z"/><path class="cls-10" d="M316.69,66.36a3.79,3.79,0,0,1-3.86,4.11,3.68,3.68,0,0,1-3.71-4A3.78,3.78,0,0,1,313,62.38,3.67,3.67,0,0,1,316.69,66.36Zm-6.15.08c0,1.7,1,3,2.35,3s2.35-1.26,2.35-3c0-1.31-.66-3-2.32-3S310.54,65,310.54,66.44Z"/><path class="cls-10" d="M318.46,64.65c0-.8,0-1.46-.06-2.1h1.25l.08,1.28h0a2.85,2.85,0,0,1,2.56-1.46c1.07,0,2.74.64,2.74,3.3V70.3h-1.41V65.83c0-1.25-.46-2.29-1.79-2.29A2,2,0,0,0,320,65a2,2,0,0,0-.1.66V70.3h-1.41Z"/><path class="cls-10" d="M335,70.3l-.11-1h0a2.88,2.88,0,0,1-2.37,1.15,2.21,2.21,0,0,1-2.37-2.22c0-1.87,1.66-2.9,4.66-2.88v-.16A1.6,1.6,0,0,0,333,63.42a3.86,3.86,0,0,0-2,.58l-.32-.93a4.81,4.81,0,0,1,2.54-.69c2.37,0,2.95,1.62,2.95,3.17v2.9a10.94,10.94,0,0,0,.13,1.86Zm-.21-4c-1.54,0-3.28.24-3.28,1.74a1.25,1.25,0,0,0,1.33,1.34,1.93,1.93,0,0,0,1.87-1.3,1.47,1.47,0,0,0,.08-.45Z"/><path class="cls-10" d="M338.45,64.65c0-.8,0-1.46-.06-2.1h1.25l.08,1.28h0a2.85,2.85,0,0,1,2.56-1.46c1.07,0,2.74.64,2.74,3.3V70.3h-1.41V65.83c0-1.25-.46-2.29-1.79-2.29A2,2,0,0,0,340,65a2,2,0,0,0-.1.66V70.3h-1.41Z"/><path class="cls-10" d="M354,58.94V68.3c0,.69,0,1.47.06,2h-1.26L352.75,69h0a2.86,2.86,0,0,1-2.64,1.52c-1.87,0-3.31-1.58-3.31-3.94,0-2.58,1.58-4.16,3.47-4.16a2.59,2.59,0,0,1,2.34,1.18h0V58.94Zm-1.41,6.77a2.49,2.49,0,0,0-.06-.59,2.07,2.07,0,0,0-2-1.63c-1.46,0-2.32,1.28-2.32,3s.77,2.87,2.29,2.87a2.12,2.12,0,0,0,2.07-1.68,2.46,2.46,0,0,0,.06-.61Z"/><path class="cls-10" d="M367.33,69.95a6.9,6.9,0,0,1-2.85.51c-3,0-5.33-1.92-5.33-5.46a5.37,5.37,0,0,1,5.63-5.67,5.79,5.79,0,0,1,2.56.48L367,61a5.07,5.07,0,0,0-2.18-.45c-2.53,0-4.21,1.62-4.21,4.45,0,2.64,1.52,4.34,4.15,4.34a5.57,5.57,0,0,0,2.27-.45Z"/><path class="cls-10" d="M376,66.36a3.79,3.79,0,0,1-3.86,4.11,3.68,3.68,0,0,1-3.71-4,3.78,3.78,0,0,1,3.84-4.11A3.67,3.67,0,0,1,376,66.36Zm-6.15.08c0,1.7,1,3,2.35,3s2.35-1.26,2.35-3c0-1.31-.66-3-2.32-3S369.89,65,369.89,66.44Z"/><path class="cls-10" d="M377.81,64.65c0-.8,0-1.46-.06-2.1H379l.08,1.28h0a2.85,2.85,0,0,1,2.56-1.46c1.07,0,2.74.64,2.74,3.3V70.3H383V65.83c0-1.25-.46-2.29-1.79-2.29A2,2,0,0,0,379.31,65a2,2,0,0,0-.1.66V70.3h-1.41Z"/><path class="cls-10" d="M388.38,60.33v2.23h2v1.07h-2V67.8c0,1,.27,1.5,1.06,1.5a3.1,3.1,0,0,0,.82-.1l.06,1.06a3.44,3.44,0,0,1-1.25.19,2,2,0,0,1-1.52-.59,2.87,2.87,0,0,1-.54-2V63.63h-1.2V62.55H387V60.7Z"/><path class="cls-10" d="M392.77,66.68a2.48,2.48,0,0,0,2.66,2.69,5.1,5.1,0,0,0,2.15-.4l.24,1a6.27,6.27,0,0,1-2.58.48,3.6,3.6,0,0,1-3.81-3.91c0-2.34,1.38-4.18,3.63-4.18,2.53,0,3.2,2.23,3.2,3.65a5.17,5.17,0,0,1,0,.66Zm4.13-1a2,2,0,0,0-2-2.29,2.34,2.34,0,0,0-2.16,2.29Z"/><path class="cls-10" d="M400,64.65c0-.8,0-1.46-.06-2.1h1.25l.08,1.28h0a2.85,2.85,0,0,1,2.56-1.46c1.07,0,2.74.64,2.74,3.3V70.3h-1.41V65.83c0-1.25-.46-2.29-1.79-2.29A2,2,0,0,0,401.5,65a2,2,0,0,0-.1.66V70.3H400Z"/><path class="cls-10" d="M410.57,60.33v2.23h2v1.07h-2V67.8c0,1,.27,1.5,1.06,1.5a3.1,3.1,0,0,0,.82-.1l.06,1.06a3.44,3.44,0,0,1-1.25.19,2,2,0,0,1-1.52-.59,2.87,2.87,0,0,1-.54-2V63.63H408V62.55h1.2V60.7Z"/></svg>