<?xml version="1.0" encoding="utf-8"?>
<!-- Generator: Adobe Illustrator 22.0.1, SVG Export Plug-In . SVG Version: 6.00 Build 0)  -->
<svg version="1.1" id="Layer_5" xmlns="http://www.w3.org/2000/svg" xmlns:xlink="http://www.w3.org/1999/xlink" x="0px" y="0px"
	 viewBox="0 0 548 390.3" style="enable-background:new 0 0 548 390.3;" xml:space="preserve">
<style type="text/css">
	.st0{fill:#E5B589;}
	.st1{fill:#95C8EC;}
	.st2{fill:#D29B6E;}
	.st3{fill:#F4C898;}
	.st4{fill:#6AB1D8;}
	.st5{fill:#5B5D6E;}
	.st6{fill:#515262;}
	.st7{fill:#785550;}
	.st8{fill:#694B4B;}
	.st9{fill:#5A4146;}
	.st10{fill:#EFF2FA;}
	.st11{fill:#E4EAF6;}
	.st12{fill:#81C784;}
	.st13{fill:none;stroke:#A3D1EE;stroke-width:4;stroke-miterlimit:10;stroke-dasharray:12.08,12.08;}
	.st14{fill:#BBE0EF;}
	.st15{fill:#91C491;}
	.st16{fill:#71BE72;}
	.st17{fill:#FFFFFF;}
	.st18{fill:#B0BEC5;}
	.st19{fill:#5FB75F;}
	.st20{fill:#F4AE7A;}
	.st21{fill:#717E82;}
	.st22{fill:#E5E5E5;}
	.st23{fill:#B3C1C6;}
	.st24{fill:#EDF2F4;}
	.st25{fill:#9AAFB7;}
	.st26{fill:#F9A43E;}
	.st27{fill:#45555B;}
	.st28{fill:#90A4AE;}
	.st29{fill:#CBEAFB;}
	.st30{fill:#FC6142;}
	.st31{fill:#71BE71;}
	.st32{fill:none;stroke:#D0D8DC;stroke-width:2;stroke-miterlimit:10;}
	.st33{fill:#D0D8DC;}
	.st34{fill:#57A7DB;}
	.st35{fill:#FCD156;}
</style>
<g>
	<g>
		<g>
			<g>
				<g id="_Group_6_1_">
					<path id="_Path_4_1_" class="st21" d="M43.2,39.5c-4.5,0-7.9,3.6-7.9,7.9l0,0l0,0V248c0,4.5,3.6,8.1,7.9,8.1l0,0h310.8
						c4.5,0,7.9-3.6,7.9-7.9l0,0V47.6c0-4.5-3.6-7.9-7.9-7.9l0,0L43.2,39.5L43.2,39.5z"/>
					<path id="_Path_5_1_" class="st22" d="M17.3,265.3h362.2c9.4,0,17.1-7.7,17.3-17.3H0C0.2,257.6,7.7,265.3,17.3,265.3z"/>
					<path id="_Path_6_1_" class="st23" d="M2.8,257.2c3.2,4.9,8.7,7.9,14.5,7.9h362.2c5.8,0.2,11.5-3,14.5-7.9L2.8,257.2L2.8,257.2
						z"/>
					<circle id="_Path_7_1_" class="st23" cx="31.5" cy="252.3" r="1.9"/>
					<circle id="_Path_8_1_" class="st23" cx="26.2" cy="252.3" r="1.9"/>
					<circle id="_Path_9_1_" class="st23" cx="20.5" cy="252.3" r="1.9"/>
				</g>
				<g id="_Group_2-2_1_">
					<rect x="48.6" y="52.3" class="st24" width="299.8" height="187"/>
				</g>
			</g>
		</g>
	</g>
</g>
<path id="_Compound_Path__5_" class="st25" d="M67.6,118.1l6.4,2.7c-0.6,4.8-0.6,9.7,0,14.5l-6.2,2.7c-4.1,1.5-6,6.2-4.3,10.3
	c0,0.2,0.2,0.2,0.2,0.6l3.7,8.5c1.5,4.1,6.2,6,10.3,4.3c0.2,0,0.2-0.2,0.6-0.2l6.2-2.7c3.3,3.7,6.8,7.3,10.4,10.4l-2.7,6.4
	c-1.5,4.1,0.2,8.9,4.3,10.8l8.3,3.3c4.1,1.5,8.5-0.2,10.8-4.3l2.7-6.4c4.8,0.6,9.7,0.6,14.5,0l2.7,6.2c1.5,4.1,6.2,6,10.3,4.3
	c0.2,0,0.2-0.2,0.6-0.2l8.5-3.7c4.1-1.5,6-6.2,4.3-10.3c0-0.2-0.2-0.2-0.2-0.6l-2.7-6.2c3.7-3.3,7.3-6.8,10.4-10.4l6.2,2.7
	c4.1,1.5,8.5-0.2,10.8-4.3l3.3-8.3c0.8-1.9,0.8-4.3-0.2-6.2c-0.8-1.9-2.5-3.5-4.3-4.3l-6.4-2.7c0.6-4.8,0.6-9.7,0-14.5l6.4-3.3
	c4.1-1.5,6-6.2,4.3-10.3c0-0.2-0.2-0.2-0.2-0.6l-3.7-8.3c-1.5-4.1-6.2-6-10.3-4.3c-0.2,0-0.2,0.2-0.6,0.2l-6.2,2.7
	c-3.3-3.7-6.8-7.3-10.4-10.4l2.7-6.4c0.8-1.9,0.8-4.3-0.2-6.2c-0.8-1.9-2.5-3.5-4.3-4.3l-8.3-3.3c-1.9-0.8-4.3-0.8-6.2,0.2
	c-1.9,0.8-3.5,2.5-4.3,4.3l-2.7,6.4c-4.8-0.6-9.7-0.6-14.5,0l-2.7-6.2c-1.5-4.1-6.2-6-10.3-4.3c-0.2,0-0.2,0.2-0.6,0.2l-8.5,3.7
	c-4.1,1.5-6,6.2-4.3,10.3c0,0.2,0.2,0.2,0.2,0.6l4.1,6c-3.7,3.3-7.3,6.8-10.4,10.4l-6.4-2.5c-1.9-0.8-4.3-0.8-6.2,0.2
	c-1.9,0.8-3.5,2.5-4.3,4.3l-3.3,8.3C61.6,111.9,63.6,116.5,67.6,118.1L67.6,118.1z M112.5,98.5c4.1-1.9,8.9-2.7,13.3-2.7
	c12.4,0.2,23.6,7.5,28.2,19.1c7,16.1-0.6,35-16.6,42l0,0c-4.1,1.9-8.9,2.7-13.3,2.7c-12.4-0.2-23.6-7.5-28.2-19.1
	c-7.3-15.9,0.2-34.6,16.1-41.4C112.3,98.5,112.5,98.5,112.5,98.5z"/>
<path id="_Compound_Path__4_" class="st26" d="M190.8,166.6l3.4,1.3c-0.2,2.4-0.2,5.1,0,7.5l-3.1,1.3c-2.1,1-2.9,3.1-2.3,5.2v0.2
	l1.8,4.2c1,2.1,3.1,2.9,5.2,2.3h0.2l3.1-1.3c1.6,1.8,3.4,3.6,5.2,5.2l-1.3,3.4c-1,2.1,0,4.6,2.1,5.4l4.2,1.6c2.1,1,4.2-0.2,5.4-2.1
	l1.3-3.4c2.4,0.2,5.1,0.2,7.5,0l1.3,3.1c1,2.1,3.1,2.9,5.2,2.3h0.2l4.2-1.8c2.1-1,2.9-3.1,2.3-5.2v-0.2l-1.3-3.1
	c1.8-1.6,3.6-3.4,5.2-5.2l3.1,1.3c2.1,1,4.2-0.2,5.4-2.1l1.6-4.2c0.5-1,0.5-2.3,0-3.1c-0.5-1-1.1-1.8-2.3-2.1l-3.4-1.3
	c0.2-2.4,0.2-5.1,0-7.5l3.1-1.6c2.1-1,2.9-3.1,2.3-5.2v-0.2l-1.8-4.2c-1-2.1-3.1-2.9-5.2-2.3h-0.2l-3.1,1.3
	c-1.6-1.8-3.4-3.6-5.2-5.2l1.3-3.4c0.5-1,0.5-2.3,0-3.1c-0.5-1-1.1-1.8-2.3-2.1l-4.2-1.6c-1-0.5-2.3-0.5-3.1,0
	c-0.8,0.5-1.8,1.1-2.1,2.3l-1.3,3.4c-2.4-0.2-5.1-0.2-7.5,0l-1.3-3.1c-1-2.1-3.1-2.9-5.2-2.3h-0.2l-4.2,1.8c-2.1,1-2.9,3.1-2.3,5.2
	v0.2l2.1,2.9c-1.8,1.6-3.6,3.4-5.2,5.2l-3.4-1.3c-1-0.5-2.3-0.5-3.1,0c-1,0.5-1.8,1.1-2.1,2.3l-1.6,4.2
	C187.7,163.3,188.5,165.6,190.8,166.6L190.8,166.6z M213.5,156.6c2.1-1,4.6-1.3,6.9-1.3c6.4,0,12.1,3.9,14.4,9.8
	c3.6,8.2-0.2,17.6-8.3,21.4l0,0c-2.1,1-4.6,1.3-6.9,1.3c-6.4,0-12.1-3.9-14.4-9.8c-3.6-8.2,0.2-17.6,8.2-21
	C213.3,156.6,213.5,156.6,213.5,156.6z"/>
<g>
	<g>
		<g>
			<g>
				<g>
					<g id="_Group_6_5_">
						<path id="_Path_4_5_" class="st27" d="M128.3,112.9c-5.4,0-9.4,4.2-9.4,9.4l0,0l0,0v237.8c0,5.4,4.2,9.6,9.4,9.6l0,0h368.5
							c5.4,0,9.4-4.2,9.4-9.4l0,0V122.5c0-5.4-4.2-9.4-9.4-9.4l0,0L128.3,112.9L128.3,112.9z"/>
						<path id="_Path_5_5_" class="st22" d="M97.5,380.7H527c11.2,0,20.3-9.2,20.6-20.6H76.9C77.2,371.5,86.1,380.7,97.5,380.7z"/>
						<path id="_Path_6_5_" class="st25" d="M80.3,371.1c3.8,5.8,10.3,9.4,17.2,9.4H527c6.9,0.2,13.6-3.6,17.2-9.4H80.3z"/>
						<circle id="_Path_7_5_" class="st28" cx="114.3" cy="365.2" r="2.2"/>
						<circle id="_Path_8_5_" class="st28" cx="108" cy="365.2" r="2.2"/>
						<circle id="_Path_9_5_" class="st28" cx="101.3" cy="365.2" r="2.2"/>
					</g>
					<g id="_Group_2-2_5_">
						<rect x="134.4" y="127.7" class="st29" width="355.6" height="221.7"/>
					</g>
				</g>
			</g>
		</g>
	</g>
	<g>
		<path class="st30" d="M208.8,245.2c0,7.6-1.6,13.4-5.8,17.7c-3.4,4.2-9.2,5.8-15,5.8c-6.7,0-11.6-1.6-15.9-5.8
			c-3.4-4.2-5.8-10.1-5.8-17.7c0-7.6,1.6-13.4,5.8-17.7c3.4-4.2,9.2-5.8,15.9-5.8c6.7,0,11.6,1.6,15,5.8
			C206.3,231.8,208.8,237.6,208.8,245.2z M171.5,245.5c0,5.8,1.6,11,4.2,14.3s6.7,4.9,11.6,4.9c4.9,0,9.2-1.6,11.6-4.9
			s4.2-7.6,4.2-14.3c0-5.8-1.6-11-4.2-14.3c-2.5-3.4-6.7-4.9-11.6-4.9c-4.9,0-9.2,1.6-11.6,4.9C173.3,234.7,171.5,238.8,171.5,245.5
			z"/>
		<path class="st30" d="M233.8,237.6h-8.3v30.2h-4.9v-30.2h-5.8v-2.5l5.8-1.6V232c0-8.3,3.4-12.5,11-12.5c1.6,0,4.2,0,6.7,0.9
			l-1.6,4.2c-1.6-0.9-3.4-0.9-4.9-0.9s-3.4,0.9-4.2,1.6c-0.9,1.6-1.6,3.4-1.6,5.8v2.5h8.3v4H233.8z M255.7,237.6h-8.3v30.2h-4.9
			v-30.2h-5.8v-2.5l5.8-1.6V232c0-8.3,3.4-12.5,11-12.5c1.6,0,4.2,0,6.7,0.9l-2.5,4.2c-1.6-0.9-3.4-0.9-4.9-0.9s-3.4,0.9-4.2,1.6
			c-0.9,1.6-1.6,3.4-1.6,5.8v2.5h8.3v4.2h0.4V237.6z M261.5,224.2c0-0.9,0-1.6,0.9-2.5c0.9-0.9,1.6-0.9,2.5-0.9c0.9,0,1.6,0,2.5,0.9
			c0.9,0.9,0.9,1.6,0.9,2.5c0,0.9,0,1.6-0.9,2.5c-0.9,0.9-1.6,0.9-2.5,0.9c-0.9,0-1.6,0-2.5-0.9
			C261.5,226.9,261.5,225.1,261.5,224.2z M266.4,267.8h-4.9v-34.2h4.9V267.8z"/>
		<path class="st30" d="M291.7,268.7c-4.9,0-8.3-1.6-11.6-4.2c-2.5-3.4-4.2-7.6-4.2-12.5c0-5.8,1.6-10.1,4.2-13.4s6.7-4.9,11.6-4.9
			c1.6,0,3.1,0,5.1,0.7c2.2,0.7,1.3,0.4,4,1.3l-1.6,4c-1.3-0.4-2.9-1.1-3.8-1.1c-1.8-0.2-2.2-0.4-2.9-0.4c-6.7,0-10.1,4.2-10.1,13.4
			c0,4.2,0.9,7.6,2.5,10.1c1.6,2.5,4.2,3.4,7.6,3.4c2.5,0,5.8-0.9,8.3-1.6v4.2C297.5,267.8,295.1,268.7,291.7,268.7z"/>
		<path class="st30" d="M322.5,268.7c-4.9,0-9.2-1.6-11.6-4.9c-2.5-3.4-4.2-7.6-4.2-12.5c0-5.8,1.6-10.1,4.2-13.4
			c2.5-3.4,6.7-4.9,11-4.9s7.6,1.6,10.1,4.2c2.5,2.5,3.4,6.7,3.4,11v3.4h-23.5c0,4.2,0.9,6.7,3.4,9.2c2.5,2.5,4.9,3.4,8.3,3.4
			s7.6-0.9,11-2.5v4.9c-1.6,0.9-4.2,1.6-5.8,1.8C325.9,268.5,325,268.7,322.5,268.7z M321,237.6c-2.5,0-4.9,0.9-6.7,2.5
			c-1.6,1.6-2.5,4.2-2.5,7.6h18.5c0-3.4-0.7-5.8-2.2-7.4C326.3,238.5,324.3,237.6,321,237.6z"/>
		<path class="st30" d="M386,232.7c0,2.5-0.9,4.9-2.5,7.6c-1.6,1.6-4.2,3.4-6.7,3.4l0,0c3.4,0.9,6.7,1.6,8.3,3.4s2.5,4.2,2.5,7.6
			c0,4.2-1.6,7.6-4.2,10.1c-2.5,2.5-8,3.6-12.5,3.6c-2.5,0-4.9-0.2-6.9-0.9c-2.2-0.4-4-1.1-5.6-2v-4.9c1.6,0.9,4.2,1.6,6.7,2.5
			c2.5,0.9,4.2,0.9,6.7,0.9c7.6,0,11.6-3.4,11.6-9.2s-4.2-8.3-13.4-8.3h-4.2v-4.2h4.2c3.4,0,6.7-0.9,8.3-2.5
			c1.6-1.6,3.4-3.4,3.4-6.7c0-2.5-0.7-3.8-2.2-5.1c-2-1.6-3.1-1.6-5.8-1.6c-1.6,0-4.5,0.2-6.3,0.9c-1.8,0.7-4.2,1.6-5.8,3.4
			l-2.5-3.4c1.6-1.6,4-2.9,6.5-3.6c2.5-0.9,5.1-1.3,7.8-1.3c4.2,0,7.6,0.9,10.1,3.4C385.3,226.9,386,229.4,386,232.7z"/>
		<path class="st30" d="M395.4,248.6c0-9.2,1.6-15.9,4.9-20.1c3.4-4.2,8.3-6.7,15-6.7c2.5,0,4.2,0,5.8,0.9v4.2
			c-1.6-0.9-3.4-0.9-5.8-0.9c-4.9,0-8.3,1.6-11,4.2c-2.5,3.4-4.2,7.6-4.2,14.3l0,0c2.5-3.4,5.8-4.9,11-4.9c4.2,0,7.6,0.9,10.1,3.4
			s3.4,5.8,3.4,10.1c0,4.9-1.6,8.3-4.2,11c-2.5,2.5-5.8,4.2-11,4.2c-5.1,0-8.3-1.6-11-4.9C396.1,259.5,395.4,254.4,395.4,248.6z
			 M410.4,263.6c3.4,0,4.9-0.9,6.7-2.5c1.8-1.6,2.5-4.2,2.5-8.3c0-3.4-0.9-4.9-2.5-6.7s-4.2-2.5-6.7-2.5c-1.6,0-3.4,0-4.9,0.9
			c-1.6,0.9-2.9,1.8-3.8,3.4c-0.9,1.6-1.3,2.5-1.3,4c0,2.5,0,4.2,0.9,5.8c0.9,1.6,1.6,3.4,3.4,4.2
			C406.1,263.6,408.8,263.6,410.4,263.6z"/>
		<path class="st30" d="M445.5,240.1c4.9,0,8.3,0.9,11.6,3.4c3.4,2.5,4.2,5.8,4.2,10.1c0,4.9-1.6,8.3-4.2,11
			c-3.4,2.5-7.6,4.2-12.5,4.2c-4.9,0-9.2-0.9-11.6-2.5v-4.9c1.6,0.9,3.4,1.6,4.9,2.5c2.5,0.9,4.2,0.9,6.7,0.9c3.4,0,6.7-0.9,8.3-2.5
			s3.4-4.2,3.4-7.6c0-6.7-4.2-9.2-11.6-9.2c-1.6,0-4.9,0-7.6,0.9l-2.5-1.6l1.6-21h22.6v4.9h-18.3l-0.9,13.4
			C440.5,240.1,443,240.1,445.5,240.1z"/>
	</g>
</g>
<g>
	<g>
		<g>
			<g>
				<g>
					<path class="st31" d="M431,83c-5.9-19.9-23-34.1-43.6-36.2l0.3-3c21.8,2.2,39.9,17.3,46.2,38.3L431,83z"/>
				</g>
				<g>
					<g>
						<polygon class="st31" points="417,80.2 434.3,103.2 445.4,76.6 						"/>
					</g>
				</g>
			</g>
		</g>
	</g>
</g>
<g>
	<g>
		<g>
			<g>
				<g>
					<path class="st31" d="M57.5,334.4c-19-11-29.4-32.1-26.6-53.8l3,0.4c-2.7,20.5,7.1,40.4,25.1,50.8L57.5,334.4z"/>
				</g>
				<g>
					<g>
						<polygon class="st31" points="49.4,344.3 77.8,339.7 59.4,317.5 						"/>
					</g>
				</g>
			</g>
		</g>
	</g>
</g>
</svg>
