<?xml version="1.0" encoding="utf-8"?>
<!-- Generator: Adobe Illustrator 19.1.1, SVG Export Plug-In . SVG Version: 6.00 Build 0)  -->
<svg version="1.1" id="Layer_1" xmlns="http://www.w3.org/2000/svg" xmlns:xlink="http://www.w3.org/1999/xlink" x="0px" y="0px"
	 viewBox="325 -2.2 825.2 285.6" style="enable-background:new 325 -2.2 825.2 285.6;" xml:space="preserve">
<style type="text/css">
	.st0{fill:#D4F0FC;}
	.st1{fill:#9AAFB7;}
	.st2{fill:#E5E5E5;}
	.st3{fill:#90A4AE;}
	.st4{fill:#CBE6F5;}
	.st5{fill:#94CDE0;}
	.st6{fill:#D8D8D8;}
	.st7{fill:#E2DECF;}
	.st8{fill:#E0C0BD;}
	.st9{fill:#C9B9C9;}
	.st10{fill:#C4CDD6;}
	.st11{display:none;}
	.st12{display:inline;fill:#D14724;}
	.st13{fill:#EDF2F4;}
	.st14{fill:#45555B;}
	.st15{fill:#0C84C6;}
	.st16{fill:#FFFFFF;}
	.st17{fill:#D3624C;}
	.st18{fill:#71BE72;}
	.st19{fill:#BF9CBD;}
	.st20{fill:#008272;}
	.st21{fill:#404142;}
	.st22{fill:#F2C712;}
	.st23{fill:#035E2B;}
	.st24{fill:#80397B;}
	.st25{fill:#2B569A;}
	.st26{clip-path:url(#SVGID_2_);fill:#FFFFFF;}
	.st27{fill:#B6C3CC;}
	.st28{clip-path:url(#SVGID_4_);fill:#45555B;}
	.st29{clip-path:url(#SVGID_4_);}
	.st30{clip-path:url(#SVGID_6_);fill:#FFFFFF;}
	.st31{fill:none;stroke:#D4F0FC;stroke-width:2;stroke-linecap:round;stroke-linejoin:round;stroke-miterlimit:10;}
	.st32{fill:none;stroke:#45555B;stroke-miterlimit:10;}
	.st33{fill:#ED8B00;}
	.st34{fill:#8B98A5;}
	.st35{fill:#087EB2;}
	.st36{fill:#BFE3EF;}
	.st37{fill:#023F61;}
	.st38{fill:#0B4863;}
	.st39{fill:#1C5E75;}
	.st40{fill:#E9C31A;}
	.st41{fill:#3ABA3A;}
	.st42{fill:#023247;}
	.st43{fill:none;stroke:#71BE72;stroke-width:2;stroke-miterlimit:10;}
	.st44{fill:#F7E0D0;}
	.st45{fill:#EAD1C1;}
	.st46{fill:#657175;}
	.st47{fill:none;stroke:#0C84C6;stroke-width:2;stroke-miterlimit:10;}
	.st48{fill:#B3B3B3;}
	.st49{fill:#78909C;}
	.st50{fill:#ADD9EA;}
	.st51{fill:none;stroke:#FFFFFF;stroke-miterlimit:10;}
</style>
<path class="st0" d="M1049.5,112.9h-1.6c-0.4-1.5-1-3-1.9-4.4l1.1-1.1c0.4-0.4,0.6-1,0.6-1.6c0-0.6-0.2-1.1-0.6-1.6l-3.7-3.7
	c-0.8-0.8-2.3-0.9-3.1,0l-1.1,1.1c-1.4-0.8-2.8-1.4-4.4-1.9V98c0-1.2-1-2.3-2.3-2.3h-5.2c-1.2,0-2.3,1-2.3,2.3v1.6
	c-1.5,0.4-3,1-4.4,1.9l-1.1-1.1c-0.9-0.9-2.3-0.9-3.1,0l-3.7,3.7c-0.4,0.4-0.6,1-0.6,1.6c0,0.6,0.2,1.1,0.6,1.6l1.1,1.1
	c-0.8,1.4-1.4,2.8-1.9,4.4h-1.6c-1.2,0-2.3,1-2.3,2.3v5.2c0,1.2,1,2.3,2.3,2.3h1.6c0.4,1.5,1,3,1.9,4.4l-1.1,1.1
	c-0.4,0.4-0.6,1-0.6,1.6c0,0.6,0.2,1.1,0.6,1.6l3.7,3.7c0.8,0.9,2.3,0.9,3.1,0l1.1-1.1c1.4,0.8,2.8,1.4,4.4,1.9v1.6
	c0,1.2,1,2.3,2.3,2.3h5.2c1.2,0,2.3-1,2.3-2.3v-1.6c1.5-0.4,3-1,4.4-1.9l1.1,1.1c0.9,0.9,2.3,0.8,3.1,0l3.7-3.7
	c0.4-0.4,0.6-1,0.6-1.6c0-0.6-0.2-1.1-0.6-1.6l-1.1-1.1c0.8-1.4,1.4-2.8,1.9-4.4h1.6c1.2,0,2.3-1,2.3-2.3v-5.2
	C1051.7,113.8,1050.8,112.9,1049.5,112.9z M1030,127.4c-5.3,0-9.7-4.4-9.7-9.7c0-5.3,4.4-9.7,9.7-9.7s9.7,4.4,9.7,9.7
	C1039.6,123,1035.3,127.4,1030,127.4z"/>
<path class="st0" d="M908.3,145.5h-1.1c-0.3-1.1-0.7-2.1-1.3-3.2l0.8-0.8c0.3-0.3,0.5-0.7,0.5-1.1c0-0.4-0.2-0.8-0.5-1.1l-2.6-2.6
	c-0.6-0.6-1.7-0.6-2.2,0l-0.8,0.8c-1-0.6-2-1-3.2-1.3V135c0-0.9-0.7-1.6-1.6-1.6h-3.7c-0.9,0-1.6,0.7-1.6,1.6v1.1
	c-1.1,0.3-2.1,0.7-3.2,1.3l-0.8-0.8c-0.6-0.6-1.7-0.6-2.2,0l-2.6,2.6c-0.3,0.3-0.5,0.7-0.5,1.1c0,0.4,0.2,0.8,0.5,1.1l0.8,0.8
	c-0.6,1-1,2-1.3,3.2h-1.1c-0.9,0-1.6,0.7-1.6,1.6v3.7c0,0.9,0.7,1.6,1.6,1.6h1.1c0.3,1.1,0.7,2.1,1.3,3.2l-0.8,0.8
	c-0.3,0.3-0.5,0.7-0.5,1.1c0,0.4,0.2,0.8,0.5,1.1l2.6,2.6c0.6,0.6,1.7,0.6,2.2,0l0.8-0.8c1,0.6,2,1,3.2,1.3v1.1
	c0,0.9,0.7,1.6,1.6,1.6h3.7c0.9,0,1.6-0.7,1.6-1.6v-1.1c1.1-0.3,2.1-0.7,3.2-1.3l0.8,0.8c0.6,0.6,1.7,0.6,2.2,0l2.6-2.6
	c0.3-0.3,0.5-0.7,0.5-1.1c0-0.4-0.2-0.8-0.5-1.1l-0.8-0.8c0.6-1,1-2,1.3-3.2h1.1c0.9,0,1.6-0.7,1.6-1.6v-3.7
	C909.9,146.2,909.2,145.5,908.3,145.5z M894.4,155.9c-3.8,0-6.9-3.1-6.9-6.9c0-3.8,3.1-6.9,6.9-6.9s6.9,3.1,6.9,6.9
	C901.3,152.8,898.2,155.9,894.4,155.9z"/>
<g>
	<g>
		<g>
			<g>
				<g id="_Group_6_4_">
					<path id="_Path_4_4_" class="st1" d="M471.7,42.9c-1.3,0-2.3,1-2.3,2.3l0,0l0,0v56.5c0,1.3,1,2.3,2.3,2.3l0,0h87.6
						c1.3,0,2.3-1,2.3-2.3l0,0V45.2c0-1.3-1-2.3-2.3-2.3l0,0L471.7,42.9L471.7,42.9z"/>
					<path id="_Path_5_4_" class="st2" d="M464.5,106.6h102.1c2.7,0,4.9-2.2,4.9-4.9H459.6C459.6,104.4,461.7,106.6,464.5,106.6z"/>
					<path id="_Path_6_4_" class="st1" d="M460.4,104.3c0.9,1.4,2.4,2.3,4.1,2.3h102.1c1.7,0,3.2-0.8,4.1-2.3H460.4z"/>
					<circle id="_Path_7_4_" class="st3" cx="468.4" cy="103" r="0.5"/>
					<circle id="_Path_8_4_" class="st3" cx="466.9" cy="103" r="0.5"/>
					<circle id="_Path_9_4_" class="st3" cx="465.4" cy="103" r="0.5"/>
				</g>
				<g id="_Group_2-2_4_">
					<rect x="473.3" y="46.6" class="st4" width="84.6" height="52.7"/>
				</g>
			</g>
		</g>
	</g>
	<rect x="482.7" y="49.5" class="st5" width="14" height="14"/>
	<rect x="499.9" y="49.5" class="st5" width="14" height="14"/>
	<rect x="517.1" y="49.5" class="st5" width="14" height="14"/>
	<rect x="534.4" y="49.5" class="st6" width="14" height="14"/>
	<rect x="482.7" y="66.3" class="st7" width="14" height="13.3"/>
	<rect x="499.9" y="66.3" class="st8" width="14" height="13.3"/>
	<rect x="517.1" y="66.3" class="st9" width="14" height="13.3"/>
	<rect x="534.5" y="66.3" class="st10" width="14" height="13.3"/>
	<g class="st11">
		<path class="st12" d="M489.8,73.7c0,1.7-0.4,3.1-1.3,4.1s-2.1,1.5-3.6,1.5c-1.6,0-2.8-0.5-3.7-1.5s-1.3-2.3-1.3-4.1
			c0-1.8,0.4-3.1,1.3-4.1c0.9-1,2.1-1.4,3.7-1.4c1.5,0,2.8,0.5,3.6,1.5S489.8,72,489.8,73.7z M481.3,73.7c0,1.5,0.3,2.6,0.9,3.3
			c0.6,0.8,1.5,1.1,2.7,1.1c1.2,0,2.1-0.4,2.7-1.1c0.6-0.8,0.9-1.9,0.9-3.3c0-1.4-0.3-2.5-0.9-3.3s-1.5-1.1-2.7-1.1
			c-1.2,0-2.1,0.4-2.7,1.1C481.6,71.2,481.3,72.3,481.3,73.7z"/>
		<path class="st12" d="M495.7,72h-2.1v7.1h-1.2V72H491v-0.6l1.4-0.4v-0.4c0-2,0.9-3,2.6-3c0.4,0,0.9,0.1,1.5,0.3l-0.3,1
			c-0.5-0.2-0.9-0.2-1.2-0.2c-0.5,0-0.8,0.2-1,0.5c-0.2,0.3-0.3,0.8-0.3,1.5V71h2.1V72z M500.8,72h-2.1v7.1h-1.2V72H496v-0.6
			l1.4-0.4v-0.4c0-2,0.9-3,2.6-3c0.4,0,0.9,0.1,1.5,0.3l-0.3,1c-0.5-0.2-0.9-0.2-1.2-0.2c-0.5,0-0.8,0.2-1,0.5
			c-0.2,0.3-0.3,0.8-0.3,1.5V71h2.1V72z M502.2,68.8c0-0.3,0.1-0.5,0.2-0.6c0.1-0.1,0.3-0.2,0.5-0.2c0.2,0,0.4,0.1,0.5,0.2
			c0.1,0.1,0.2,0.3,0.2,0.6c0,0.3-0.1,0.5-0.2,0.6c-0.1,0.1-0.3,0.2-0.5,0.2c-0.2,0-0.4-0.1-0.5-0.2
			C502.2,69.3,502.2,69.1,502.2,68.8z M503.5,79.1h-1.2V71h1.2V79.1z"/>
		<path class="st12" d="M509.3,79.2c-1.2,0-2.1-0.4-2.7-1.1c-0.6-0.7-1-1.7-1-3.1c0-1.3,0.3-2.4,1-3.1s1.6-1.1,2.8-1.1
			c0.4,0,0.8,0,1.2,0.1c0.4,0.1,0.7,0.2,0.9,0.3l-0.4,1c-0.3-0.1-0.6-0.2-0.9-0.3c-0.3-0.1-0.6-0.1-0.8-0.1c-1.6,0-2.5,1-2.5,3.1
			c0,1,0.2,1.8,0.6,2.3c0.4,0.5,1,0.8,1.8,0.8c0.7,0,1.4-0.1,2.1-0.4v1.1C510.8,79.1,510.1,79.2,509.3,79.2z"/>
		<path class="st12" d="M516.7,79.2c-1.2,0-2.1-0.4-2.8-1.1c-0.7-0.7-1-1.7-1-3c0-1.3,0.3-2.3,1-3.1c0.6-0.8,1.5-1.1,2.6-1.1
			c1,0,1.8,0.3,2.4,1c0.6,0.7,0.9,1.5,0.9,2.6v0.8h-5.6c0,0.9,0.3,1.7,0.7,2.2c0.5,0.5,1.1,0.7,1.9,0.7c0.9,0,1.7-0.2,2.6-0.5v1.1
			c-0.4,0.2-0.8,0.3-1.2,0.4C517.7,79.2,517.2,79.2,516.7,79.2z M516.4,71.9c-0.6,0-1.2,0.2-1.5,0.6c-0.4,0.4-0.6,1-0.7,1.8h4.2
			c0-0.8-0.2-1.4-0.5-1.8S517,71.9,516.4,71.9z"/>
		<path class="st12" d="M531.8,70.9c0,0.7-0.2,1.2-0.6,1.7c-0.4,0.4-0.9,0.7-1.6,0.9v0.1c0.9,0.1,1.5,0.4,1.9,0.8
			c0.4,0.4,0.6,1,0.6,1.7c0,1-0.4,1.8-1.1,2.4c-0.7,0.6-1.7,0.8-3,0.8c-0.6,0-1.1,0-1.6-0.1c-0.5-0.1-0.9-0.2-1.4-0.5v-1.2
			c0.5,0.2,1,0.4,1.5,0.5s1,0.2,1.5,0.2c1.9,0,2.8-0.7,2.8-2.2c0-1.3-1-2-3.1-2h-1.1V73h1.1c0.8,0,1.5-0.2,2-0.6
			c0.5-0.4,0.7-0.9,0.7-1.5c0-0.5-0.2-0.9-0.5-1.2c-0.4-0.3-0.9-0.4-1.5-0.4c-0.5,0-0.9,0.1-1.3,0.2c-0.4,0.1-0.9,0.4-1.4,0.7
			l-0.6-0.8c0.4-0.3,1-0.6,1.5-0.8c0.6-0.2,1.2-0.3,1.8-0.3c1,0,1.9,0.2,2.4,0.7C531.5,69.4,531.8,70,531.8,70.9z"/>
		<path class="st12" d="M533.8,74.5c0-2.1,0.4-3.7,1.2-4.7c0.8-1,2-1.6,3.6-1.6c0.6,0,1,0,1.3,0.1v1.1c-0.4-0.1-0.8-0.2-1.3-0.2
			c-1.2,0-2,0.4-2.6,1.1c-0.6,0.7-0.9,1.8-1,3.4h0.1c0.5-0.8,1.4-1.3,2.6-1.3c1,0,1.7,0.3,2.3,0.9c0.6,0.6,0.8,1.4,0.8,2.4
			c0,1.1-0.3,2-0.9,2.6c-0.6,0.6-1.4,1-2.5,1c-1.1,0-2-0.4-2.6-1.3C534.2,77.1,533.8,76,533.8,74.5z M537.4,78.2
			c0.7,0,1.2-0.2,1.6-0.7c0.4-0.4,0.6-1.1,0.6-1.9c0-0.7-0.2-1.3-0.5-1.7c-0.4-0.4-0.9-0.6-1.6-0.6c-0.4,0-0.8,0.1-1.2,0.3
			c-0.4,0.2-0.7,0.4-0.9,0.8c-0.2,0.3-0.3,0.7-0.3,1c0,0.5,0.1,1,0.3,1.4c0.2,0.4,0.5,0.8,0.8,1C536.6,78.1,537,78.2,537.4,78.2z"/>
		<path class="st12" d="M545.7,72.5c1.1,0,2,0.3,2.7,0.8c0.7,0.6,1,1.3,1,2.3c0,1.1-0.4,2-1.1,2.6c-0.7,0.6-1.7,0.9-2.9,0.9
			c-1.2,0-2.1-0.2-2.8-0.6v-1.2c0.3,0.2,0.8,0.4,1.3,0.5c0.5,0.1,1,0.2,1.5,0.2c0.9,0,1.5-0.2,2-0.6c0.5-0.4,0.7-1,0.7-1.8
			c0-1.5-0.9-2.3-2.8-2.3c-0.5,0-1.1,0.1-1.9,0.2l-0.6-0.4l0.4-5h5.4v1.1h-4.3l-0.3,3.2C544.6,72.6,545.1,72.5,545.7,72.5z"/>
	</g>
	<rect x="482.7" y="82.3" class="st5" width="14" height="14"/>
	<rect x="499.9" y="82.3" class="st5" width="14" height="14"/>
	<rect x="517.1" y="82.3" class="st5" width="14" height="14"/>
	<rect x="534.5" y="82.3" class="st5" width="14" height="14"/>
</g>
<g>
	<g>
		<g>
			<g>
				<g id="_Group_6_1_">
					<path id="_Path_4_1_" class="st1" d="M582.7,73.8c-3.9,0-7,3.1-7,7l0,0l0,0v174.8c0,3.9,3.1,7.1,7,7.1l0,0h270.9
						c3.9,0,7-3.1,7-7l0,0V80.9c0-3.9-3.1-7-7-7l0,0L582.7,73.8L582.7,73.8z"/>
					<path id="_Path_5_1_" class="st2" d="M560.2,270.7h315.9c8.3,0,15-6.7,15.1-15.1H545.1C545.2,264,551.8,270.7,560.2,270.7z"/>
					<path id="_Path_6_1_" class="st1" d="M547.5,263.8c2.8,4.3,7.5,7,12.7,7h315.9c5.2,0.1,10-2.6,12.7-7H547.5z"/>
					<circle id="_Path_7_1_" class="st3" cx="572.4" cy="259.5" r="1.6"/>
					<circle id="_Path_8_1_" class="st3" cx="567.8" cy="259.5" r="1.7"/>
					<circle id="_Path_9_1_" class="st3" cx="563" cy="259.5" r="1.7"/>
				</g>
				<g id="_Group_2-2_1_">
					<rect x="587.4" y="85.1" class="st13" width="261.5" height="163"/>
				</g>
			</g>
		</g>
	</g>
	<rect x="587.4" y="85.1" class="st14" width="262" height="18.1"/>
	<g>
		<rect x="587.4" y="85.1" class="st15" width="18.1" height="18.1"/>
		<rect x="591.8" y="89.4" class="st13" width="9.4" height="1.9"/>
		<rect x="591.8" y="93.1" class="st13" width="9.4" height="1.9"/>
		<rect x="591.8" y="96.9" class="st13" width="9.4" height="1.9"/>
	</g>
	<g>
		<path class="st16" d="M620.8,94.5c0,1.3-0.3,2.3-1,3.1c-0.7,0.7-1.6,1.1-2.8,1.1c-1.2,0-2.1-0.4-2.8-1.1c-0.7-0.7-1-1.8-1-3.1
			c0-1.3,0.3-2.4,1-3.1c0.7-0.7,1.6-1.1,2.8-1.1c1.2,0,2.1,0.4,2.7,1.1S620.8,93.2,620.8,94.5z M614.3,94.5c0,1.1,0.2,1.9,0.7,2.5
			c0.5,0.6,1.2,0.9,2.1,0.9c0.9,0,1.6-0.3,2-0.9c0.5-0.6,0.7-1.4,0.7-2.5c0-1.1-0.2-1.9-0.7-2.5c-0.5-0.6-1.1-0.9-2-0.9
			c-0.9,0-1.6,0.3-2.1,0.9C614.5,92.6,614.3,93.4,614.3,94.5z"/>
		<path class="st16" d="M625.2,93.2h-1.6v5.4h-0.9v-5.4h-1.1v-0.4l1.1-0.3v-0.3c0-1.5,0.7-2.3,2-2.3c0.3,0,0.7,0.1,1.1,0.2l-0.2,0.7
			c-0.4-0.1-0.7-0.2-0.9-0.2c-0.3,0-0.6,0.1-0.8,0.3c-0.2,0.2-0.3,0.6-0.3,1.1v0.4h1.6V93.2z M629.1,93.2h-1.6v5.4h-0.9v-5.4h-1.1
			v-0.4l1.1-0.3v-0.3c0-1.5,0.7-2.3,2-2.3c0.3,0,0.7,0.1,1.1,0.2l-0.2,0.7c-0.4-0.1-0.7-0.2-0.9-0.2c-0.3,0-0.6,0.1-0.8,0.3
			c-0.2,0.2-0.3,0.6-0.3,1.1v0.4h1.6V93.2z M630.1,90.8c0-0.2,0.1-0.4,0.2-0.5c0.1-0.1,0.2-0.1,0.4-0.1c0.1,0,0.3,0.1,0.4,0.2
			c0.1,0.1,0.2,0.3,0.2,0.5c0,0.2-0.1,0.4-0.2,0.5c-0.1,0.1-0.2,0.2-0.4,0.2c-0.2,0-0.3-0.1-0.4-0.2C630.2,91.2,630.1,91,630.1,90.8
			z M631.1,98.6h-0.9v-6.1h0.9V98.6z"/>
		<path class="st16" d="M635.6,98.7c-0.9,0-1.6-0.3-2.1-0.8c-0.5-0.5-0.7-1.3-0.7-2.3c0-1,0.2-1.8,0.7-2.4s1.2-0.8,2.1-0.8
			c0.3,0,0.6,0,0.9,0.1c0.3,0.1,0.5,0.1,0.7,0.2l-0.3,0.8c-0.2-0.1-0.4-0.1-0.7-0.2c-0.2-0.1-0.5-0.1-0.6-0.1
			c-1.2,0-1.9,0.8-1.9,2.4c0,0.8,0.2,1.3,0.5,1.7s0.8,0.6,1.3,0.6c0.5,0,1-0.1,1.6-0.3v0.8C636.7,98.6,636.2,98.7,635.6,98.7z"/>
		<path class="st16" d="M641.1,98.7c-0.9,0-1.6-0.3-2.1-0.8c-0.5-0.6-0.8-1.3-0.8-2.3c0-1,0.2-1.8,0.7-2.3c0.5-0.6,1.1-0.9,2-0.9
			c0.8,0,1.4,0.3,1.8,0.8c0.4,0.5,0.7,1.2,0.7,2v0.6h-4.2c0,0.7,0.2,1.3,0.5,1.6c0.3,0.4,0.8,0.6,1.5,0.6c0.7,0,1.3-0.1,2-0.4v0.8
			c-0.3,0.1-0.6,0.2-0.9,0.3S641.5,98.7,641.1,98.7z M640.9,93.1c-0.5,0-0.9,0.2-1.2,0.5s-0.5,0.8-0.5,1.3h3.2c0-0.6-0.1-1-0.4-1.3
			C641.7,93.3,641.4,93.1,640.9,93.1z"/>
		<path class="st16" d="M652.6,92.4c0,0.5-0.1,0.9-0.4,1.3c-0.3,0.3-0.7,0.6-1.2,0.7v0c0.7,0.1,1.1,0.3,1.5,0.6
			c0.3,0.3,0.5,0.8,0.5,1.3c0,0.8-0.3,1.4-0.8,1.8c-0.5,0.4-1.3,0.6-2.3,0.6c-0.4,0-0.8,0-1.2-0.1s-0.7-0.2-1-0.3v-0.9
			c0.4,0.2,0.7,0.3,1.1,0.4c0.4,0.1,0.8,0.1,1.1,0.1c1.4,0,2.1-0.6,2.1-1.7c0-1-0.8-1.5-2.3-1.5h-0.8V94h0.8c0.6,0,1.1-0.1,1.5-0.4
			c0.4-0.3,0.6-0.7,0.6-1.2c0-0.4-0.1-0.7-0.4-0.9c-0.3-0.2-0.6-0.3-1.1-0.3c-0.4,0-0.7,0-1,0.1c-0.3,0.1-0.7,0.3-1.1,0.5l-0.5-0.6
			c0.3-0.3,0.7-0.5,1.2-0.6c0.4-0.2,0.9-0.2,1.4-0.2c0.8,0,1.4,0.2,1.8,0.5C652.3,91.2,652.6,91.7,652.6,92.4z"/>
		<path class="st16" d="M654.1,95.1c0-1.6,0.3-2.8,0.9-3.6c0.6-0.8,1.5-1.2,2.8-1.2c0.4,0,0.8,0,1,0.1v0.8c-0.3-0.1-0.6-0.1-1-0.1
			c-0.9,0-1.5,0.3-2,0.8c-0.5,0.5-0.7,1.4-0.8,2.6h0.1c0.4-0.6,1.1-1,1.9-1c0.7,0,1.3,0.2,1.7,0.7s0.6,1,0.6,1.8
			c0,0.8-0.2,1.5-0.7,2c-0.5,0.5-1.1,0.7-1.9,0.7c-0.8,0-1.5-0.3-2-1C654.4,97.1,654.1,96.2,654.1,95.1z M656.9,97.9
			c0.5,0,0.9-0.2,1.2-0.5c0.3-0.3,0.4-0.8,0.4-1.4c0-0.5-0.1-1-0.4-1.3c-0.3-0.3-0.7-0.5-1.2-0.5c-0.3,0-0.6,0.1-0.9,0.2
			c-0.3,0.1-0.5,0.3-0.7,0.6c-0.2,0.2-0.2,0.5-0.2,0.8c0,0.4,0.1,0.7,0.2,1.1c0.1,0.3,0.4,0.6,0.6,0.8
			C656.2,97.8,656.5,97.9,656.9,97.9z"/>
		<path class="st16" d="M663.1,93.6c0.9,0,1.5,0.2,2,0.6s0.7,1,0.7,1.7c0,0.8-0.3,1.5-0.8,2c-0.5,0.5-1.3,0.7-2.2,0.7
			c-0.9,0-1.6-0.1-2.1-0.4v-0.9c0.3,0.2,0.6,0.3,1,0.4c0.4,0.1,0.8,0.1,1.1,0.1c0.7,0,1.2-0.2,1.5-0.5c0.4-0.3,0.5-0.8,0.5-1.3
			c0-1.1-0.7-1.7-2.1-1.7c-0.4,0-0.8,0.1-1.4,0.2l-0.5-0.3l0.3-3.8h4.1v0.9h-3.3l-0.2,2.4C662.3,93.7,662.7,93.6,663.1,93.6z"/>
	</g>
	<rect x="605.7" y="103.3" class="st17" width="75.5" height="83.7"/>
	<rect x="623.5" y="169.6" class="st16" width="39.5" height="3.9"/>
	<rect x="628" y="160" class="st16" width="29.6" height="3.9"/>
	<rect x="615.2" y="205.1" class="st1" width="52" height="3.9"/>
	<rect x="615.2" y="195.5" class="st14" width="29.6" height="3.9"/>
	<rect x="615.2" y="215" class="st1" width="52" height="3.9"/>
	<rect x="615.2" y="226.8" class="st17" width="30.6" height="8"/>
	<rect x="697.3" y="185.3" class="st14" width="66.1" height="3.9"/>
	<rect x="697.3" y="117.7" class="st14" width="66.1" height="3.9"/>
	<rect x="779.6" y="127.3" class="st1" width="42.7" height="3.9"/>
	<rect x="779.6" y="117.7" class="st14" width="29.6" height="3.9"/>
	<rect x="779.6" y="137.1" class="st1" width="52" height="3.9"/>
	<rect x="779.6" y="149" class="st17" width="30.6" height="8"/>
	<rect x="697.3" y="129.2" class="st15" width="11.8" height="11.8"/>
	<rect x="715.6" y="129.2" class="st18" width="11.8" height="11.8"/>
	<rect x="733.6" y="129.2" class="st17" width="11.8" height="11.8"/>
	<rect x="751.5" y="129.2" class="st19" width="11.8" height="11.8"/>
	<rect x="697.3" y="157.7" class="st1" width="42.7" height="3.9"/>
	<rect x="697.3" y="167.6" class="st1" width="52" height="3.9"/>
	<rect x="697.3" y="200.3" class="st15" width="22.7" height="22.7"/>
	<rect x="725.3" y="200.3" class="st15" width="22.7" height="22.7"/>
	<rect x="809.2" y="200.3" class="st20" width="22.7" height="22.7"/>
	<rect x="753.3" y="200.3" class="st15" width="22.7" height="22.7"/>
	<rect x="781.6" y="200.3" class="st21" width="22.7" height="22.7"/>
	<rect x="697.4" y="227.6" class="st22" width="22.7" height="20.4"/>
	<rect x="725.4" y="227.6" class="st17" width="22.7" height="20.4"/>
	<rect x="809.3" y="227.6" class="st23" width="22.7" height="20.4"/>
	<rect x="753.4" y="227.6" class="st24" width="22.7" height="20.4"/>
	<rect x="781.7" y="227.6" class="st25" width="22.7" height="20.4"/>
	<g>
		<circle class="st1" cx="642.7" cy="131.3" r="17.9"/>
		<g>
			<circle class="st16" cx="642.9" cy="126.7" r="6.4"/>
			<g>
				<g>
					<defs>
						<circle id="SVGID_1_" cx="642.9" cy="131.3" r="17.9"/>
					</defs>
					<clipPath id="SVGID_2_">
						<use xlink:href="#SVGID_1_"  style="overflow:visible;"/>
					</clipPath>
					<circle class="st26" cx="643.4" cy="151.4" r="15.2"/>
				</g>
			</g>
		</g>
	</g>
</g>
<g>
	<g>
		<path class="st27" d="M831,281c-4.2,0-7.7-3.4-7.7-7.7v-87.4c0-4.2,3.4-7.7,7.7-7.7h123.2c4.2,0,7.7,3.4,7.7,7.7v87.5
			c0,4.2-3.4,7.7-7.7,7.7H831V281z"/>
		<path class="st16" d="M954.2,179.2c3.7,0,6.7,3,6.7,6.7v87.5c0,3.7-3,6.7-6.7,6.7H831c-3.7,0-6.7-3-6.7-6.7v-87.5
			c0-3.7,3-6.7,6.7-6.7H954.2 M954.2,177.2H831c-4.8,0-8.7,3.9-8.7,8.7v87.5c0,4.8,3.9,8.7,8.7,8.7h123.2c4.8,0,8.7-3.9,8.7-8.7
			v-87.5C962.8,181.1,958.9,177.2,954.2,177.2L954.2,177.2z"/>
	</g>
	<g>
		<defs>
			<path id="SVGID_3_" d="M942.2,272H835.7c-2.2,0-4.1-1.8-4.1-4.1v-76.6c0-2.2,1.8-4.1,4.1-4.1h106.5c2.2,0,4.1,1.8,4.1,4.1v76.6
				C946.3,270.1,944.5,272,942.2,272z"/>
		</defs>
		<use xlink:href="#SVGID_3_"  style="overflow:visible;fill:#EDF2F4;"/>
		<clipPath id="SVGID_4_">
			<use xlink:href="#SVGID_3_"  style="overflow:visible;"/>
		</clipPath>
		<rect x="826.3" y="184.3" class="st28" width="122" height="19.7"/>
		<g class="st29">
			<rect x="831.6" y="186.4" class="st15" width="18" height="17.6"/>
			<rect x="836" y="190.8" class="st13" width="9.4" height="1.9"/>
			<rect x="836" y="194.5" class="st13" width="9.4" height="1.9"/>
			<rect x="836" y="198.3" class="st13" width="9.4" height="1.9"/>
		</g>
	</g>
	<circle class="st13" cx="953.7" cy="228.7" r="2.9"/>
	<g>
		<path class="st16" d="M860.2,196.5c0,0.9-0.2,1.6-0.7,2.1c-0.4,0.5-1.1,0.7-1.8,0.7c-0.8,0-1.4-0.2-1.9-0.7
			c-0.4-0.5-0.7-1.2-0.7-2.1c0-0.9,0.2-1.6,0.7-2.1c0.4-0.5,1.1-0.7,1.9-0.7c0.8,0,1.4,0.2,1.8,0.7S860.2,195.6,860.2,196.5z
			 M855.9,196.5c0,0.7,0.2,1.3,0.5,1.7c0.3,0.4,0.8,0.6,1.4,0.6c0.6,0,1.1-0.2,1.4-0.6s0.5-0.9,0.5-1.7c0-0.7-0.2-1.3-0.5-1.7
			c-0.3-0.4-0.8-0.6-1.4-0.6c-0.6,0-1.1,0.2-1.4,0.6C856.1,195.2,855.9,195.7,855.9,196.5z"/>
		<path class="st16" d="M863.2,195.6h-1v3.6h-0.6v-3.6h-0.7v-0.3l0.7-0.2v-0.2c0-1,0.4-1.5,1.3-1.5c0.2,0,0.5,0,0.8,0.1l-0.2,0.5
			c-0.2-0.1-0.4-0.1-0.6-0.1c-0.2,0-0.4,0.1-0.5,0.2c-0.1,0.2-0.2,0.4-0.2,0.7v0.3h1V195.6z M865.8,195.6h-1v3.6h-0.6v-3.6h-0.7
			v-0.3l0.7-0.2v-0.2c0-1,0.4-1.5,1.3-1.5c0.2,0,0.5,0,0.8,0.1L866,194c-0.2-0.1-0.4-0.1-0.6-0.1c-0.2,0-0.4,0.1-0.5,0.2
			c-0.1,0.2-0.2,0.4-0.2,0.7v0.3h1V195.6z M866.5,194c0-0.1,0-0.2,0.1-0.3s0.2-0.1,0.3-0.1c0.1,0,0.2,0,0.3,0.1
			c0.1,0.1,0.1,0.2,0.1,0.3c0,0.1,0,0.2-0.1,0.3c-0.1,0.1-0.2,0.1-0.3,0.1c-0.1,0-0.2,0-0.3-0.1C866.5,194.3,866.5,194.1,866.5,194z
			 M867.1,199.2h-0.6v-4.1h0.6V199.2z"/>
		<path class="st16" d="M870.1,199.3c-0.6,0-1-0.2-1.4-0.5c-0.3-0.4-0.5-0.9-0.5-1.5c0-0.7,0.2-1.2,0.5-1.6s0.8-0.6,1.4-0.6
			c0.2,0,0.4,0,0.6,0.1s0.3,0.1,0.5,0.1l-0.2,0.5c-0.1-0.1-0.3-0.1-0.4-0.1c-0.2,0-0.3-0.1-0.4-0.1c-0.8,0-1.2,0.5-1.2,1.6
			c0,0.5,0.1,0.9,0.3,1.2s0.5,0.4,0.9,0.4c0.3,0,0.7-0.1,1-0.2v0.5C870.8,199.2,870.5,199.3,870.1,199.3z"/>
		<path class="st16" d="M873.8,199.3c-0.6,0-1.1-0.2-1.4-0.6s-0.5-0.9-0.5-1.5c0-0.7,0.2-1.2,0.5-1.6c0.3-0.4,0.8-0.6,1.3-0.6
			c0.5,0,0.9,0.2,1.2,0.5c0.3,0.3,0.4,0.8,0.4,1.3v0.4h-2.8c0,0.5,0.1,0.8,0.4,1.1s0.6,0.4,1,0.4c0.4,0,0.9-0.1,1.3-0.3v0.6
			c-0.2,0.1-0.4,0.2-0.6,0.2C874.3,199.2,874.1,199.3,873.8,199.3z M873.6,195.6c-0.3,0-0.6,0.1-0.8,0.3c-0.2,0.2-0.3,0.5-0.3,0.9
			h2.1c0-0.4-0.1-0.7-0.3-0.9S874,195.6,873.6,195.6z"/>
		<path class="st16" d="M881.4,195c0,0.3-0.1,0.6-0.3,0.9c-0.2,0.2-0.5,0.4-0.8,0.4v0c0.4,0.1,0.8,0.2,1,0.4
			c0.2,0.2,0.3,0.5,0.3,0.9c0,0.5-0.2,0.9-0.5,1.2s-0.9,0.4-1.5,0.4c-0.3,0-0.6,0-0.8-0.1c-0.2,0-0.5-0.1-0.7-0.2v-0.6
			c0.2,0.1,0.5,0.2,0.8,0.3c0.3,0.1,0.5,0.1,0.8,0.1c0.9,0,1.4-0.4,1.4-1.1c0-0.7-0.5-1-1.6-1h-0.5v-0.5h0.5c0.4,0,0.8-0.1,1-0.3
			c0.2-0.2,0.4-0.4,0.4-0.8c0-0.3-0.1-0.5-0.3-0.6c-0.2-0.2-0.4-0.2-0.7-0.2c-0.2,0-0.5,0-0.7,0.1c-0.2,0.1-0.5,0.2-0.7,0.4
			l-0.3-0.4c0.2-0.2,0.5-0.3,0.8-0.4s0.6-0.2,0.9-0.2c0.5,0,0.9,0.1,1.2,0.4C881.3,194.3,881.4,194.6,881.4,195z"/>
		<path class="st16" d="M882.5,196.9c0-1.1,0.2-1.9,0.6-2.4c0.4-0.5,1-0.8,1.8-0.8c0.3,0,0.5,0,0.7,0.1v0.5
			c-0.2-0.1-0.4-0.1-0.7-0.1c-0.6,0-1,0.2-1.3,0.5c-0.3,0.4-0.5,0.9-0.5,1.7h0c0.3-0.4,0.7-0.6,1.3-0.6c0.5,0,0.9,0.1,1.2,0.4
			c0.3,0.3,0.4,0.7,0.4,1.2c0,0.6-0.2,1-0.5,1.3c-0.3,0.3-0.7,0.5-1.3,0.5c-0.6,0-1-0.2-1.3-0.6
			C882.6,198.2,882.5,197.6,882.5,196.9z M884.3,198.7c0.4,0,0.6-0.1,0.8-0.3c0.2-0.2,0.3-0.5,0.3-1c0-0.4-0.1-0.6-0.3-0.8
			c-0.2-0.2-0.5-0.3-0.8-0.3c-0.2,0-0.4,0-0.6,0.1c-0.2,0.1-0.3,0.2-0.4,0.4c-0.1,0.2-0.2,0.3-0.2,0.5c0,0.3,0,0.5,0.1,0.7
			c0.1,0.2,0.2,0.4,0.4,0.5C883.8,198.7,884.1,198.7,884.3,198.7z"/>
		<path class="st16" d="M888.5,195.9c0.6,0,1,0.1,1.4,0.4s0.5,0.7,0.5,1.2c0,0.6-0.2,1-0.5,1.3c-0.4,0.3-0.9,0.5-1.5,0.5
			c-0.6,0-1.1-0.1-1.4-0.3v-0.6c0.2,0.1,0.4,0.2,0.6,0.3c0.3,0.1,0.5,0.1,0.8,0.1c0.4,0,0.8-0.1,1-0.3s0.4-0.5,0.4-0.9
			c0-0.8-0.5-1.1-1.4-1.1c-0.2,0-0.6,0-0.9,0.1l-0.3-0.2l0.2-2.5h2.7v0.6h-2.2l-0.1,1.6C887.9,195.9,888.2,195.9,888.5,195.9z"/>
	</g>
	<rect x="831.6" y="204.1" class="st17" width="35.7" height="39.6"/>
	<rect x="840" y="235.4" class="st16" width="18.7" height="1.8"/>
	<rect x="842.2" y="230.9" class="st16" width="14" height="1.8"/>
	<g>
		<rect x="836.4" y="252.4" class="st1" width="26" height="2"/>
		<rect x="836.4" y="247.6" class="st14" width="14.8" height="2"/>
		<rect x="836.4" y="257.3" class="st1" width="26" height="2"/>
		<rect x="836.4" y="263.3" class="st17" width="15.3" height="4"/>
	</g>
	<rect x="873.7" y="211.4" class="st14" width="66.1" height="3.9"/>
	<rect x="873.7" y="222.9" class="st15" width="11.8" height="11.8"/>
	<rect x="892" y="222.9" class="st18" width="11.8" height="11.8"/>
	<rect x="910" y="222.9" class="st17" width="11.8" height="11.8"/>
	<rect x="927.9" y="222.9" class="st19" width="11.8" height="11.8"/>
	<g>
		<circle class="st1" cx="849.2" cy="217.3" r="8.5"/>
		<g>
			<circle class="st16" cx="849.2" cy="215.1" r="3"/>
			<g>
				<g>
					<defs>
						<circle id="SVGID_5_" cx="849.2" cy="217.3" r="8.5"/>
					</defs>
					<clipPath id="SVGID_6_">
						<use xlink:href="#SVGID_5_"  style="overflow:visible;"/>
					</clipPath>
					<circle class="st30" cx="849.4" cy="226.8" r="7.2"/>
				</g>
			</g>
		</g>
	</g>
	<g>
		<rect x="873.7" y="244.5" class="st14" width="66.1" height="3.9"/>
		<rect x="874.1" y="253.4" class="st15" width="14.1" height="14.1"/>
		<rect x="891.4" y="253.4" class="st15" width="14.1" height="14.1"/>
		<rect x="908.8" y="253.4" class="st15" width="14.1" height="14.1"/>
		<rect x="925.7" y="253.4" class="st24" width="14.1" height="13.9"/>
	</g>
</g>
<g>
	<line class="st31" x1="406.5" y1="155" x2="372.5" y2="155"/>
	<line class="st31" x1="396.5" y1="161" x2="362.5" y2="161"/>
	<line class="st31" x1="406.5" y1="169" x2="372.5" y2="169"/>
</g>
<g>
	<line class="st31" x1="1010" y1="187.2" x2="976" y2="187.2"/>
	<line class="st31" x1="1020" y1="193.2" x2="986" y2="193.2"/>
	<line class="st31" x1="1010" y1="201.2" x2="976" y2="201.2"/>
</g>
<circle class="st0" cx="557.8" cy="189.2" r="4.3"/>
<circle class="st0" cx="465.9" cy="135.1" r="3.2"/>
<circle class="st0" cx="1063.5" cy="149.3" r="3.3"/>
<g>
	<polyline class="st32" points="1064,221.5 1093.7,187.2 1092.2,221.6 	"/>
	<polyline class="st32" points="1025.6,253.5 987,233.4 1044.5,224.8 1135.9,238.8 1084,251 1048,189.5 1031.9,241.5 1081.7,223.2 
		1052.9,218.2 	"/>
	<circle class="st18" cx="1046.5" cy="185.5" r="10.8"/>
	<circle class="st15" cx="1135.9" cy="243.2" r="14.3"/>
	<circle class="st33" cx="988.8" cy="236.9" r="13.7"/>
	<circle class="st22" cx="1093.7" cy="188.4" r="12.4"/>
	<g>
		<g>
			<path class="st16" d="M991.9,243.4l0.5,2.2l-3.2,0.5l-0.5-2.2c-0.7-0.1-1.5-0.2-2.1-0.5l-1.2,1.8l-2.8-1.9l1.2-1.8
				c-0.4-0.4-0.7-0.7-0.9-1.2c-0.1-0.2-0.2-0.4-0.4-0.7l-2.1,0.4l-0.7-3.2l2.1-0.4c0-0.7,0.1-1.5,0.4-2.1l-1.8-1.3l1.8-2.7l1.8,1.3
				c0.5-0.5,1.1-0.9,1.8-1.2l-0.5-2.2l3.2-0.5l0.5,2.2c0.7,0.1,1.5,0.2,2.1,0.5l1.2-1.8l2.8,1.9l-1.2,1.8c0.4,0.4,0.7,0.7,0.9,1.2
				c0.1,0.2,0.2,0.4,0.4,0.7l2.1-0.4l0.7,3.2l-2.1,0.4c0,0.7-0.1,1.5-0.4,2.1l1.8,1.3l-1.8,2.7l-1.8-1.3
				C993.2,242.7,992.6,243.1,991.9,243.4z M987,239.2c1.4,1,3.3,0.7,4.2-0.7c0.7-1,0.6-2.3,0-3.2c-0.2-0.4-0.5-0.7-1-1
				c-1.4-1-3.3-0.7-4.2,0.7c-0.7,1-0.6,2.3,0,3.2C986.2,238.6,986.6,239,987,239.2"/>
		</g>
	</g>
	<g>
		<g>
			<path class="st16" d="M1139.2,249.7l0.5,2.2l-3.2,0.5l-0.5-2.2c-0.7-0.1-1.5-0.2-2.1-0.5l-1.2,1.8l-2.8-1.9l1.2-1.8
				c-0.4-0.4-0.7-0.7-0.9-1.2c-0.1-0.2-0.2-0.4-0.4-0.7l-2.1,0.4l-0.7-3.2l2.1-0.4c0-0.7,0.1-1.5,0.4-2.1l-1.8-1.3l1.8-2.7l1.8,1.3
				c0.5-0.5,1.1-0.9,1.8-1.2l-0.5-2.2l3.2-0.5l0.5,2.2c0.7,0.1,1.5,0.2,2.1,0.5l1.2-1.8l2.8,1.9l-1.2,1.8c0.4,0.4,0.7,0.7,0.9,1.2
				c0.1,0.2,0.2,0.4,0.4,0.7l2.1-0.4l0.7,3.2l-2.1,0.4c0,0.7-0.1,1.5-0.4,2.1l1.8,1.3l-1.8,2.7l-1.8-1.3
				C1140.4,249,1139.8,249.4,1139.2,249.7z M1134.2,245.5c1.4,1,3.3,0.7,4.2-0.7c0.7-1,0.6-2.3,0-3.2c-0.2-0.4-0.5-0.7-1-1
				c-1.4-1-3.3-0.7-4.2,0.7c-0.7,1-0.6,2.3,0,3.2C1133.5,244.9,1133.9,245.3,1134.2,245.5"/>
		</g>
	</g>
	<g>
		<g>
			<path class="st16" d="M1096.6,194.3l0.5,2l-3,0.5l-0.5-2c-0.7-0.1-1.4-0.2-2-0.5l-1.1,1.7l-2.6-1.8l1.1-1.7
				c-0.3-0.3-0.6-0.7-0.8-1.1c-0.1-0.2-0.2-0.4-0.3-0.6l-2,0.3l-0.7-3l2-0.3c0-0.7,0.1-1.4,0.3-2l-1.7-1.1l1.6-2.5l1.7,1.1
				c0.5-0.5,1-0.8,1.6-1.1l-0.5-2l3-0.5l0.5,2c0.7,0.1,1.4,0.2,2,0.5l1.1-1.7l2.6,1.8l-1.1,1.7c0.3,0.3,0.6,0.7,0.8,1.1
				c0.1,0.2,0.2,0.4,0.3,0.6l2-0.3l0.7,3l-2,0.3c0,0.7-0.1,1.4-0.3,2l1.7,1.1l-1.6,2.5l-1.7-1.1
				C1097.7,193.7,1097.2,194.1,1096.6,194.3z M1092,190.5c1.3,0.9,3,0.6,3.8-0.7c0.6-0.9,0.5-2.1,0-3c-0.2-0.3-0.5-0.7-0.9-0.9
				c-1.3-0.9-3-0.6-3.8,0.7c-0.6,0.9-0.5,2.1,0,3C1091.4,190,1091.7,190.3,1092,190.5"/>
		</g>
	</g>
	<g>
		<g>
			<path class="st16" d="M1048.8,190.2l0.4,1.6l-2.4,0.4l-0.4-1.6c-0.5-0.1-1.1-0.2-1.6-0.4l-0.9,1.3l-2-1.4l0.9-1.3
				c-0.3-0.3-0.5-0.5-0.6-0.9c-0.1-0.2-0.2-0.3-0.3-0.5l-1.6,0.3l-0.5-2.4l1.6-0.3c0-0.5,0.1-1.1,0.3-1.6l-1.3-0.9l1.3-2l1.3,0.9
				c0.4-0.4,0.8-0.6,1.3-0.9l-0.4-1.6l2.4-0.4l0.4,1.6c0.5,0.1,1.1,0.2,1.6,0.4l0.9-1.3l2,1.4l-0.9,1.3c0.3,0.3,0.5,0.5,0.6,0.9
				c0.1,0.2,0.2,0.3,0.3,0.5l1.6-0.3l0.5,2.4l-1.6,0.3c0,0.5-0.1,1.1-0.3,1.6l1.3,0.9l-1.3,2l-1.3-0.9
				C1049.7,189.7,1049.3,190,1048.8,190.2z M1045.2,187.1c1,0.7,2.4,0.5,3.1-0.5c0.5-0.7,0.4-1.7,0-2.4c-0.2-0.3-0.4-0.5-0.7-0.7
				c-1-0.7-2.4-0.5-3.1,0.5c-0.5,0.7-0.4,1.7,0,2.4C1044.7,186.7,1044.9,187,1045.2,187.1"/>
		</g>
	</g>
	<g>
		<g>
			<g>
				<g>
					<g id="_Group_6_2_">
						<path id="_Path_4_2_" class="st1" d="M1016.1,207.4c-1.3,0-2.3,1-2.3,2.3l0,0l0,0v56.5c0,1.3,1,2.3,2.3,2.3l0,0h87.6
							c1.3,0,2.3-1,2.3-2.3l0,0v-56.5c0-1.3-1-2.3-2.3-2.3l0,0L1016.1,207.4L1016.1,207.4z"/>
						<path id="_Path_5_2_" class="st2" d="M1008.8,271.1H1111c2.7,0,4.9-2.2,4.9-4.9h-111.9C1004,268.9,1006.1,271.1,1008.8,271.1z
							"/>
						<path id="_Path_6_2_" class="st1" d="M1004.7,268.9c0.9,1.4,2.4,2.3,4.1,2.3H1111c1.7,0,3.2-0.8,4.1-2.3H1004.7z"/>
						<circle id="_Path_7_2_" class="st3" cx="1012.8" cy="267.5" r="0.5"/>
						<circle id="_Path_8_2_" class="st3" cx="1011.3" cy="267.5" r="0.5"/>
						<circle id="_Path_9_2_" class="st3" cx="1009.7" cy="267.5" r="0.5"/>
					</g>
					<g id="_Group_2-2_2_">
						<rect x="1017.6" y="211.1" class="st4" width="84.6" height="52.7"/>
					</g>
				</g>
			</g>
		</g>
		<rect x="1027" y="214.1" class="st5" width="14" height="14"/>
		<rect x="1044.2" y="214.1" class="st5" width="14" height="14"/>
		<rect x="1061.4" y="214.1" class="st5" width="14" height="14"/>
		<rect x="1078.8" y="214.1" class="st6" width="14" height="14"/>
		<rect x="1027.1" y="230.8" class="st7" width="14" height="13.3"/>
		<rect x="1044.3" y="230.8" class="st8" width="14" height="13.3"/>
		<rect x="1061.5" y="230.8" class="st9" width="14" height="13.3"/>
		<rect x="1078.8" y="230.8" class="st10" width="14" height="13.3"/>
		<g class="st11">
			<path class="st12" d="M1034.2,238.2c0,1.7-0.4,3.1-1.3,4.1c-0.9,1-2.1,1.5-3.6,1.5c-1.6,0-2.8-0.5-3.7-1.5
				c-0.9-1-1.3-2.3-1.3-4.1c0-1.8,0.4-3.1,1.3-4.1c0.9-1,2.1-1.4,3.7-1.4c1.5,0,2.8,0.5,3.6,1.5
				C1033.7,235.1,1034.2,236.5,1034.2,238.2z M1025.6,238.2c0,1.5,0.3,2.6,0.9,3.3c0.6,0.8,1.5,1.1,2.7,1.1c1.2,0,2.1-0.4,2.7-1.1
				s0.9-1.9,0.9-3.3c0-1.4-0.3-2.5-0.9-3.3s-1.5-1.1-2.7-1.1c-1.2,0-2.1,0.4-2.7,1.1C1025.9,235.7,1025.6,236.8,1025.6,238.2z"/>
			<path class="st12" d="M1040,236.5h-2.1v7.1h-1.2v-7.1h-1.4v-0.6l1.4-0.4v-0.4c0-2,0.9-3,2.6-3c0.4,0,0.9,0.1,1.5,0.3l-0.3,1
				c-0.5-0.2-0.9-0.2-1.2-0.2c-0.5,0-0.8,0.2-1,0.5c-0.2,0.3-0.3,0.8-0.3,1.5v0.5h2.1V236.5z M1045.1,236.5h-2.1v7.1h-1.2v-7.1h-1.4
				v-0.6l1.4-0.4v-0.4c0-2,0.9-3,2.6-3c0.4,0,0.9,0.1,1.5,0.3l-0.3,1c-0.5-0.2-0.9-0.2-1.2-0.2c-0.5,0-0.8,0.2-1,0.5
				c-0.2,0.3-0.3,0.8-0.3,1.5v0.5h2.1V236.5z M1046.5,233.4c0-0.3,0.1-0.5,0.2-0.6c0.1-0.1,0.3-0.2,0.5-0.2c0.2,0,0.4,0.1,0.5,0.2
				c0.1,0.1,0.2,0.3,0.2,0.6s-0.1,0.5-0.2,0.6c-0.1,0.1-0.3,0.2-0.5,0.2c-0.2,0-0.4-0.1-0.5-0.2
				C1046.6,233.8,1046.5,233.6,1046.5,233.4z M1047.8,243.6h-1.2v-8.1h1.2V243.6z"/>
			<path class="st12" d="M1053.7,243.8c-1.2,0-2.1-0.4-2.7-1.1c-0.6-0.7-1-1.7-1-3.1c0-1.3,0.3-2.4,1-3.1c0.7-0.7,1.6-1.1,2.8-1.1
				c0.4,0,0.8,0,1.2,0.1c0.4,0.1,0.7,0.2,0.9,0.3l-0.4,1c-0.3-0.1-0.6-0.2-0.9-0.3c-0.3-0.1-0.6-0.1-0.8-0.1c-1.6,0-2.5,1-2.5,3.1
				c0,1,0.2,1.8,0.6,2.3c0.4,0.5,1,0.8,1.8,0.8c0.7,0,1.4-0.1,2.1-0.4v1.1C1055.2,243.6,1054.5,243.8,1053.7,243.8z"/>
			<path class="st12" d="M1061,243.8c-1.2,0-2.1-0.4-2.8-1.1c-0.7-0.7-1-1.7-1-3c0-1.3,0.3-2.3,1-3.1c0.6-0.8,1.5-1.1,2.6-1.1
				c1,0,1.8,0.3,2.4,1s0.9,1.5,0.9,2.6v0.8h-5.6c0,0.9,0.3,1.7,0.7,2.2s1.1,0.7,1.9,0.7c0.9,0,1.7-0.2,2.6-0.5v1.1
				c-0.4,0.2-0.8,0.3-1.2,0.4C1062,243.7,1061.6,243.8,1061,243.8z M1060.7,236.4c-0.6,0-1.2,0.2-1.5,0.6c-0.4,0.4-0.6,1-0.7,1.8
				h4.2c0-0.8-0.2-1.4-0.5-1.8C1061.8,236.6,1061.3,236.4,1060.7,236.4z"/>
			<path class="st12" d="M1076.1,235.4c0,0.7-0.2,1.2-0.6,1.7c-0.4,0.4-0.9,0.7-1.6,0.9v0.1c0.9,0.1,1.5,0.4,1.9,0.8
				c0.4,0.4,0.6,1,0.6,1.7c0,1-0.4,1.8-1.1,2.4c-0.7,0.6-1.7,0.8-3,0.8c-0.6,0-1.1,0-1.6-0.1c-0.5-0.1-0.9-0.2-1.4-0.5V242
				c0.5,0.2,1,0.4,1.5,0.5s1,0.2,1.5,0.2c1.9,0,2.8-0.7,2.8-2.2c0-1.3-1-2-3.1-2h-1.1v-1.1h1.1c0.8,0,1.5-0.2,2-0.6
				c0.5-0.4,0.7-0.9,0.7-1.5c0-0.5-0.2-0.9-0.5-1.2c-0.4-0.3-0.8-0.4-1.5-0.4c-0.5,0-0.9,0.1-1.3,0.2c-0.4,0.1-0.9,0.4-1.4,0.7
				l-0.6-0.8c0.4-0.3,1-0.6,1.5-0.8s1.2-0.3,1.8-0.3c1,0,1.9,0.2,2.4,0.7S1076.1,234.6,1076.1,235.4z"/>
			<path class="st12" d="M1078.2,239c0-2.1,0.4-3.7,1.2-4.7c0.8-1,2-1.6,3.6-1.6c0.6,0,1,0,1.3,0.1v1.1c-0.4-0.1-0.8-0.2-1.3-0.2
				c-1.2,0-2,0.4-2.6,1.1c-0.6,0.7-0.9,1.8-1,3.4h0.1c0.5-0.8,1.4-1.3,2.6-1.3c1,0,1.7,0.3,2.3,0.9s0.8,1.4,0.8,2.4
				c0,1.1-0.3,2-0.9,2.6c-0.6,0.6-1.4,1-2.5,1c-1.1,0-2-0.4-2.6-1.3C1078.5,241.7,1078.2,240.5,1078.2,239z M1081.8,242.7
				c0.7,0,1.2-0.2,1.6-0.7s0.6-1.1,0.6-1.9c0-0.7-0.2-1.3-0.5-1.7s-0.9-0.6-1.6-0.6c-0.4,0-0.8,0.1-1.2,0.3
				c-0.4,0.2-0.7,0.4-0.9,0.8s-0.3,0.7-0.3,1c0,0.5,0.1,1,0.3,1.4c0.2,0.4,0.5,0.8,0.8,1S1081.3,242.7,1081.8,242.7z"/>
			<path class="st12" d="M1090,237c1.1,0,2,0.3,2.7,0.8c0.7,0.6,1,1.3,1,2.3c0,1.1-0.4,2-1.1,2.6s-1.7,0.9-2.9,0.9
				c-1.2,0-2.1-0.2-2.8-0.6V242c0.3,0.2,0.8,0.4,1.3,0.5c0.5,0.1,1,0.2,1.5,0.2c0.9,0,1.5-0.2,2-0.6c0.5-0.4,0.7-1,0.7-1.8
				c0-1.5-0.9-2.3-2.8-2.3c-0.5,0-1.1,0.1-1.9,0.2l-0.6-0.4l0.4-5h5.4v1.1h-4.3l-0.3,3.2C1088.9,237.1,1089.5,237,1090,237z"/>
		</g>
		<rect x="1027.1" y="246.8" class="st5" width="14" height="14"/>
		<rect x="1044.3" y="246.8" class="st5" width="14" height="14"/>
		<rect x="1061.5" y="246.8" class="st5" width="14" height="14"/>
		<rect x="1078.8" y="246.8" class="st5" width="14" height="14"/>
	</g>
</g>
<g>
	<g>
		<g>
			<g>
				<g id="_Group_6_3_">
					<path id="_Path_4_3_" class="st1" d="M359.6,198c-1.3,0-2.3,1-2.3,2.3l0,0l0,0v56.5c0,1.3,1,2.3,2.3,2.3l0,0h87.6
						c1.3,0,2.3-1,2.3-2.3l0,0v-56.5c0-1.3-1-2.3-2.3-2.3l0,0L359.6,198L359.6,198z"/>
					<path id="_Path_5_3_" class="st2" d="M352.3,261.7h102.1c2.7,0,4.9-2.2,4.9-4.9H347.4C347.5,259.5,349.6,261.7,352.3,261.7z"/>
					<path id="_Path_6_3_" class="st1" d="M348.2,259.4c0.9,1.4,2.4,2.3,4.1,2.3h102.1c1.7,0,3.2-0.8,4.1-2.3H348.2z"/>
					<circle id="_Path_7_3_" class="st3" cx="356.3" cy="258.1" r="0.5"/>
					<circle id="_Path_8_3_" class="st3" cx="354.8" cy="258.1" r="0.5"/>
					<circle id="_Path_9_3_" class="st3" cx="353.2" cy="258.1" r="0.5"/>
				</g>
				<g id="_Group_2-2_3_">
					<rect x="361.1" y="201.7" class="st4" width="84.6" height="52.7"/>
				</g>
			</g>
		</g>
	</g>
	<rect x="370.5" y="204.7" class="st5" width="14" height="14"/>
	<rect x="387.7" y="204.7" class="st15" width="14" height="14"/>
	<rect x="404.9" y="204.7" class="st5" width="14" height="14"/>
	<rect x="422.3" y="204.7" class="st6" width="14" height="14"/>
	<rect x="370.6" y="221.4" class="st15" width="14" height="13.3"/>
	<rect x="387.8" y="221.4" class="st17" width="14" height="13.3"/>
	<rect x="405" y="221.4" class="st9" width="14" height="13.3"/>
	<rect x="422.3" y="221.4" class="st10" width="14" height="13.3"/>
	<g class="st11">
		<path class="st12" d="M377.7,228.8c0,1.7-0.4,3.1-1.3,4.1s-2.1,1.5-3.6,1.5c-1.6,0-2.8-0.5-3.7-1.5c-0.9-1-1.3-2.3-1.3-4.1
			c0-1.8,0.4-3.1,1.3-4.1s2.1-1.4,3.7-1.4c1.5,0,2.8,0.5,3.6,1.5C377.2,225.7,377.7,227.1,377.7,228.8z M369.1,228.8
			c0,1.5,0.3,2.6,0.9,3.3c0.6,0.8,1.5,1.1,2.7,1.1c1.2,0,2.1-0.4,2.7-1.1c0.6-0.8,0.9-1.9,0.9-3.3c0-1.4-0.3-2.5-0.9-3.3
			c-0.6-0.7-1.5-1.1-2.7-1.1c-1.2,0-2.1,0.4-2.7,1.1C369.4,226.3,369.1,227.4,369.1,228.8z"/>
		<path class="st12" d="M383.5,227.1h-2.1v7.1h-1.2v-7.1h-1.4v-0.6l1.4-0.4v-0.4c0-2,0.9-3,2.6-3c0.4,0,0.9,0.1,1.5,0.3l-0.3,1
			c-0.5-0.2-0.9-0.2-1.2-0.2c-0.5,0-0.8,0.2-1,0.5c-0.2,0.3-0.3,0.8-0.3,1.5v0.5h2.1V227.1z M388.6,227.1h-2.1v7.1h-1.2v-7.1h-1.4
			v-0.6l1.4-0.4v-0.4c0-2,0.9-3,2.6-3c0.4,0,0.9,0.1,1.5,0.3l-0.3,1c-0.5-0.2-0.9-0.2-1.2-0.2c-0.5,0-0.8,0.2-1,0.5
			c-0.2,0.3-0.3,0.8-0.3,1.5v0.5h2.1V227.1z M390,223.9c0-0.3,0.1-0.5,0.2-0.6c0.1-0.1,0.3-0.2,0.5-0.2c0.2,0,0.4,0.1,0.5,0.2
			c0.1,0.1,0.2,0.3,0.2,0.6s-0.1,0.5-0.2,0.6c-0.1,0.1-0.3,0.2-0.5,0.2c-0.2,0-0.4-0.1-0.5-0.2C390.1,224.4,390,224.2,390,223.9z
			 M391.3,234.2h-1.2v-8.1h1.2V234.2z"/>
		<path class="st12" d="M397.2,234.3c-1.2,0-2.1-0.4-2.7-1.1c-0.6-0.7-1-1.7-1-3.1c0-1.3,0.3-2.4,1-3.1c0.7-0.7,1.6-1.1,2.8-1.1
			c0.4,0,0.8,0,1.2,0.1c0.4,0.1,0.7,0.2,0.9,0.3l-0.4,1c-0.3-0.1-0.6-0.2-0.9-0.3c-0.3-0.1-0.6-0.1-0.8-0.1c-1.6,0-2.5,1-2.5,3.1
			c0,1,0.2,1.8,0.6,2.3c0.4,0.5,1,0.8,1.8,0.8c0.7,0,1.4-0.1,2.1-0.4v1.1C398.7,234.2,398,234.3,397.2,234.3z"/>
		<path class="st12" d="M404.5,234.3c-1.2,0-2.1-0.4-2.8-1.1c-0.7-0.7-1-1.7-1-3c0-1.3,0.3-2.3,1-3.1s1.5-1.1,2.6-1.1
			c1,0,1.8,0.3,2.4,1c0.6,0.7,0.9,1.5,0.9,2.6v0.8h-5.6c0,0.9,0.3,1.7,0.7,2.2c0.5,0.5,1.1,0.7,1.9,0.7c0.9,0,1.7-0.2,2.6-0.5v1.1
			c-0.4,0.2-0.8,0.3-1.2,0.4C405.5,234.3,405.1,234.3,404.5,234.3z M404.2,227c-0.6,0-1.2,0.2-1.5,0.6c-0.4,0.4-0.6,1-0.7,1.8h4.2
			c0-0.8-0.2-1.4-0.5-1.8C405.3,227.2,404.8,227,404.2,227z"/>
		<path class="st12" d="M419.6,226c0,0.7-0.2,1.2-0.6,1.7c-0.4,0.4-0.9,0.7-1.6,0.9v0.1c0.9,0.1,1.5,0.4,1.9,0.8s0.6,1,0.6,1.7
			c0,1-0.4,1.8-1.1,2.4s-1.7,0.8-3,0.8c-0.6,0-1.1,0-1.6-0.1s-0.9-0.2-1.4-0.5v-1.2c0.5,0.2,1,0.4,1.5,0.5c0.5,0.1,1,0.2,1.5,0.2
			c1.9,0,2.8-0.7,2.8-2.2c0-1.3-1-2-3.1-2h-1.1v-1.1h1.1c0.8,0,1.5-0.2,2-0.6c0.5-0.4,0.7-0.9,0.7-1.5c0-0.5-0.2-0.9-0.5-1.2
			s-0.9-0.4-1.5-0.4c-0.5,0-0.9,0.1-1.3,0.2c-0.4,0.1-0.9,0.4-1.4,0.7l-0.6-0.8c0.4-0.3,1-0.6,1.5-0.8c0.6-0.2,1.2-0.3,1.8-0.3
			c1,0,1.9,0.2,2.4,0.7C419.3,224.5,419.6,225.1,419.6,226z"/>
		<path class="st12" d="M421.7,229.6c0-2.1,0.4-3.7,1.2-4.7c0.8-1,2-1.6,3.6-1.6c0.6,0,1,0,1.3,0.1v1.1c-0.4-0.1-0.8-0.2-1.3-0.2
			c-1.2,0-2,0.4-2.6,1.1c-0.6,0.7-0.9,1.8-1,3.4h0.1c0.5-0.8,1.4-1.3,2.6-1.3c1,0,1.7,0.3,2.3,0.9c0.6,0.6,0.8,1.4,0.8,2.4
			c0,1.1-0.3,2-0.9,2.6s-1.4,1-2.5,1c-1.1,0-2-0.4-2.6-1.3C422,232.3,421.7,231.1,421.7,229.6z M425.3,233.3c0.7,0,1.2-0.2,1.6-0.7
			c0.4-0.4,0.6-1.1,0.6-1.9c0-0.7-0.2-1.3-0.5-1.7c-0.4-0.4-0.9-0.6-1.6-0.6c-0.4,0-0.8,0.1-1.2,0.3c-0.4,0.2-0.7,0.4-0.9,0.8
			c-0.2,0.3-0.3,0.7-0.3,1c0,0.5,0.1,1,0.3,1.4c0.2,0.4,0.5,0.8,0.8,1C424.4,233.2,424.8,233.3,425.3,233.3z"/>
		<path class="st12" d="M433.5,227.6c1.1,0,2,0.3,2.7,0.8s1,1.3,1,2.3c0,1.1-0.4,2-1.1,2.6c-0.7,0.6-1.7,0.9-2.9,0.9
			c-1.2,0-2.1-0.2-2.8-0.6v-1.2c0.3,0.2,0.8,0.4,1.3,0.5c0.5,0.1,1,0.2,1.5,0.2c0.9,0,1.5-0.2,2-0.6s0.7-1,0.7-1.8
			c0-1.5-0.9-2.3-2.8-2.3c-0.5,0-1.1,0.1-1.9,0.2l-0.6-0.4l0.4-5h5.4v1.1h-4.3l-0.3,3.2C432.4,227.7,433,227.6,433.5,227.6z"/>
	</g>
	<rect x="370.6" y="237.4" class="st5" width="14" height="14"/>
	<rect x="387.8" y="237.4" class="st5" width="14" height="14"/>
	<rect x="405" y="237.4" class="st5" width="14" height="14"/>
	<rect x="422.3" y="237.4" class="st15" width="14" height="14"/>
</g>
<g>
	<g>
		<g>
			<path class="st15" d="M332.1,273.8c-1.3,0-2.5-0.5-3.4-1.4l-3.2-3.3c-0.9-0.9-1.4-2.1-1.4-3.4c0-1.3,0.5-2.5,1.4-3.5l21.7-21.7
				l0.6,1.4c0.7,1.8,1.8,3.5,3.3,4.9c1.4,1.4,3.1,2.5,4.9,3.3l1.4,0.6l-21.8,21.8C334.6,273.4,333.4,273.8,332.1,273.8z M334,262.8
				c-0.3,0-0.5,0.1-0.7,0.3c-0.2,0.2-0.3,0.4-0.3,0.7c0,0.3,0.1,0.5,0.3,0.7c0.2,0.2,0.4,0.3,0.7,0.3c0.3,0,0.5-0.1,0.7-0.3
				c0.2-0.2,0.3-0.4,0.3-0.7c0-0.3-0.1-0.5-0.3-0.7C334.5,262.9,334.3,262.8,334,262.8z"/>
			<path class="st16" d="M346.8,242.3c0.8,2,1.9,3.7,3.5,5.3c1.5,1.5,3.3,2.7,5.3,3.5l-20.7,20.7c-0.7,0.7-1.7,1.1-2.7,1.1
				c-1.1,0-2-0.4-2.8-1.1l-3.2-3.3c-0.8-0.7-1.2-1.6-1.2-2.7c0-1.1,0.4-2,1.2-2.8L346.8,242.3 M334,265.7c0.5,0,1-0.2,1.4-0.6
				c0.4-0.4,0.6-0.8,0.6-1.4c0-0.5-0.2-1-0.6-1.4c-0.4-0.4-0.8-0.6-1.4-0.6c-0.5,0-1,0.2-1.4,0.6c-0.4,0.4-0.6,0.8-0.6,1.4
				c0,0.5,0.2,1,0.6,1.4C333.1,265.5,333.5,265.7,334,265.7 M347.5,238.7l-2.1,2.1l-20.7,20.7c-1.1,1.1-1.7,2.6-1.7,4.2
				c0,1.6,0.6,3.1,1.7,4.2l3.2,3.3l0,0l0,0c1.2,1.1,2.6,1.7,4.1,1.7c1.6,0,3-0.6,4.1-1.7l20.7-20.7l2.1-2.1l-2.8-1.1
				c-1.7-0.7-3.3-1.7-4.6-3c-1.3-1.3-2.3-2.9-3-4.6L347.5,238.7L347.5,238.7z"/>
		</g>
		<g>
			<path class="st34" d="M361.2,251.2c-4,0-7.5-1.4-10.3-4.3c-2.8-2.8-4.3-6.3-4.3-10.3c0-4,1.4-7.5,4.3-10.3
				c2.8-2.8,6.3-4.3,10.3-4.3c1.3,0,2.6,0.2,3.9,0.5c1.4,0.4,2.6,0.9,3.6,1.6c0.6,0.4,0.9,1,0.9,1.7c0,0.7-0.3,1.3-0.9,1.7l-8.5,4.9
				v5.6l4.8,2.7c0.4-0.2,1-0.6,1.9-1.2c1.5-0.9,2.9-1.7,4.1-2.5c2-1.1,2.3-1.2,2.6-1.2c0.6,0,1.1,0.2,1.5,0.7
				c0.3,0.4,0.5,0.9,0.5,1.4c0,0.9-0.2,2.1-0.8,3.5c-1,2.9-2.8,5.3-5.4,7.1C367.1,250.3,364.3,251.2,361.2,251.2z"/>
			<path class="st16" d="M361.2,223c1.2,0,2.4,0.2,3.7,0.5c1.3,0.3,2.4,0.8,3.3,1.4c0.3,0.2,0.5,0.5,0.5,0.8c0,0.3-0.2,0.6-0.5,0.8
				l-8.9,5.1v6.8l5.9,3.2c0.1-0.1,0.9-0.6,2.4-1.5c1.5-0.9,2.9-1.7,4.1-2.5c1.2-0.7,2-1.1,2.1-1.1c0.3,0,0.5,0.1,0.7,0.3
				c0.2,0.2,0.3,0.5,0.3,0.8c0,0.8-0.2,1.9-0.7,3.2c-1,2.7-2.6,4.9-5,6.6c-2.4,1.7-5,2.5-7.8,2.5c-3.7,0-6.9-1.3-9.6-4
				c-2.7-2.7-4-5.9-4-9.6c0-3.7,1.3-6.9,4-9.6C354.3,224.3,357.5,223,361.2,223 M361.2,221c-4.3,0-8,1.5-11,4.6c-3,3-4.6,6.7-4.6,11
				c0,4.3,1.5,8,4.6,11c3,3,6.7,4.6,11,4.6c3.3,0,6.3-1,9-2.9c2.7-1.9,4.6-4.5,5.7-7.6c0.5-1.6,0.8-2.9,0.8-3.9
				c0-0.8-0.3-1.5-0.7-2.1c-0.6-0.7-1.3-1-2.2-1c-0.6,0-1.1,0.2-3.1,1.3c-1.3,0.7-2.7,1.6-4.2,2.5c-0.6,0.3-1,0.6-1.4,0.9l-3.8-2.1
				v-4.5l7.9-4.5l0.1,0l0.1,0c0.9-0.6,1.4-1.5,1.4-2.5c0-1-0.5-1.9-1.4-2.5c-1.1-0.7-2.4-1.3-3.9-1.7C364,221.2,362.5,221,361.2,221
				L361.2,221z"/>
		</g>
	</g>
</g>
<g>
	<g>
		<g>
			<rect x="881.4" y="60.7" class="st35" width="28.8" height="52.3"/>
			<g>
				<rect x="883.5" y="65" class="st36" width="10.9" height="3.4"/>
				<rect x="897.4" y="65" class="st36" width="10.9" height="3.4"/>
				<rect x="883.4" y="70.5" class="st36" width="10.9" height="3.4"/>
				<rect x="897.3" y="70.5" class="st36" width="10.9" height="3.4"/>
				<rect x="883.4" y="76" class="st36" width="10.9" height="3.4"/>
				<rect x="897.3" y="76" class="st36" width="10.9" height="3.4"/>
				<rect x="883.4" y="81.5" class="st36" width="10.9" height="3.4"/>
				<rect x="897.4" y="81.5" class="st36" width="10.9" height="3.4"/>
				<rect x="883.4" y="87" class="st36" width="10.9" height="3.4"/>
				<rect x="897.3" y="87" class="st36" width="10.9" height="3.4"/>
				<rect x="883.4" y="92.4" class="st36" width="10.9" height="3.4"/>
				<rect x="897.3" y="92.4" class="st36" width="10.9" height="3.4"/>
				<rect x="883.4" y="97.9" class="st36" width="10.9" height="3.4"/>
				<rect x="897.4" y="97.9" class="st36" width="10.9" height="3.4"/>
			</g>
			<rect x="891.8" y="105.2" class="st36" width="8.1" height="7.9"/>
		</g>
		<g>
			<rect x="905.2" y="46" class="st15" width="36.8" height="67"/>
			<g>
				<rect x="907.8" y="51.5" class="st36" width="14" height="4.3"/>
				<rect x="925.6" y="51.5" class="st36" width="14" height="4.3"/>
				<rect x="907.7" y="58.6" class="st36" width="14" height="4.3"/>
				<rect x="925.5" y="58.6" class="st36" width="14" height="4.3"/>
				<rect x="907.7" y="65.5" class="st36" width="14" height="4.3"/>
				<rect x="925.5" y="65.5" class="st36" width="14" height="4.3"/>
				<rect x="907.7" y="72.6" class="st36" width="14" height="4.3"/>
				<rect x="925.6" y="72.6" class="st36" width="14" height="4.3"/>
				<rect x="907.7" y="79.6" class="st36" width="14" height="4.3"/>
				<rect x="925.5" y="79.6" class="st36" width="14" height="4.3"/>
				<rect x="907.7" y="86.6" class="st36" width="14" height="4.3"/>
				<rect x="925.5" y="86.6" class="st36" width="14" height="4.3"/>
				<rect x="907.7" y="93.6" class="st36" width="14" height="4.3"/>
				<rect x="925.6" y="93.6" class="st36" width="14" height="4.3"/>
			</g>
			<rect x="918.4" y="102.9" class="st36" width="10.4" height="10.1"/>
		</g>
		<g>
			<rect x="930.6" y="30.6" class="st37" width="26.9" height="43.3"/>
			<rect x="931.7" y="31.5" class="st38" width="24.9" height="41.1"/>
			<g>
				<rect x="939.7" y="34" class="st39" width="15.2" height="3.1"/>
				<circle class="st40" cx="934.1" cy="35.5" r="1.1"/>
				<circle class="st41" cx="937.4" cy="35.5" r="1.1"/>
				<rect x="932.5" y="39.4" class="st42" width="23.1" height="0.6"/>
			</g>
			<g>
				<rect x="939.7" y="42.5" class="st39" width="15.2" height="3.1"/>
				<circle class="st40" cx="934.1" cy="44" r="1.1"/>
				<circle class="st41" cx="937.4" cy="44" r="1.1"/>
				<rect x="932.5" y="47.8" class="st42" width="23.1" height="0.6"/>
			</g>
			<g>
				<rect x="939.7" y="50.9" class="st39" width="15.2" height="3.1"/>
				<circle class="st40" cx="934.1" cy="52.4" r="1.1"/>
				<circle class="st41" cx="937.4" cy="52.4" r="1.1"/>
				<rect x="932.5" y="56.3" class="st42" width="23.1" height="0.6"/>
			</g>
			<g>
				<rect x="939.7" y="59.4" class="st39" width="15.2" height="3.1"/>
				<circle class="st40" cx="934.1" cy="60.9" r="1.1"/>
				<circle class="st41" cx="937.4" cy="60.9" r="1.1"/>
				<rect x="932.5" y="64.8" class="st42" width="23.1" height="0.6"/>
			</g>
		</g>
	</g>
	<g>
		<path class="st15" d="M1029.9,149.4c0,0.3,0,0.6,0,0.8c-0.6,6.3-5.8,11.2-12.1,11.2c-75.5,0-75.5,0-75.5,0
			c-6.3,0-11.8-4.9-12.1-11.2c0-0.3,0-0.6,0-0.8c0-6.8,5.5-12.1,12.1-12.1c1.6,0,3.3,0.3,4.6,0.8c1.1-10.1,9.8-18,20.5-18
			c0.8,0,1.9,0,2.7,0c4.6-6.8,12.6-11.5,21.6-11.5c14.8,0,26.5,11.8,26.5,26.5c0,0.6,0,1.3,0,2.2
			C1024.7,137.6,1029.9,142.8,1029.9,149.4L1029.9,149.4z"/>
	</g>
	<path class="st43" d="M959.9,63.1c1.3-0.2,2.7-0.2,4.1-0.2c19.3,0,34.9,15.6,34.9,34.9c0,2.6-0.3,5-0.8,7.4"/>
	<polygon class="st18" points="968.6,69.6 957.5,63.3 968.6,56.9 	"/>
	<polygon class="st18" points="1005.2,97.9 998.9,109 992.5,97.9 	"/>
</g>
<g>
	<g>
		<path class="st44" d="M438.1,58.3c-0.3,1.1-1.1,1.9-1.6,1.9c-0.5-0.3-0.8-1.1-0.5-2.2s1.1-1.9,1.6-1.9
			C438.3,56.1,438.6,57.2,438.1,58.3z"/>
		<path class="st44" d="M425.1,58.3c0.3,1.1,1.1,1.9,1.6,1.9c0.8-0.3,0.8-1.4,0.5-2.4c-0.3-1.1-1.1-1.9-1.6-1.9
			C424.8,56.1,424.8,57.2,425.1,58.3z"/>
		<path class="st44" d="M424.5,67.2l3-2.7c0,0-0.8-3.2-0.8-4.1c0-0.8-1.9-5.7-1.1-8.1c0.8-2.4,0.5-4.3,4.6-4.6
			c4.1-0.3,4.9,1.4,6.2,2.7c1.4,1.6,1.1,6.5,1.1,7.3c0,0.8-0.8,5.1-1.9,7v1.4l3,5.1v5.1l-3,0.3l-13-2.7L424.5,67.2z"/>
	</g>
	<path class="st45" d="M438.6,71.3l-3-5l0-1.5c0,0-4.6,4.1-8.1-0.3c0,0,2.4,6.2,11.4,7.8L438.6,71.3z"/>
	<path class="st44" d="M458.6,86.7c0,0,2.7-1.1,3-1.4c0.5-0.3,0.8-0.8,1.6-1.1c0.8-0.3,1.9-1.1,2.4-1.1c0.5,0,1.4-0.3,1.6-0.3
		s2.4,0.8,2.4,0.8s0,1.1-0.8,1.1c-0.3,0-2.4-0.5-2.7-0.5c-0.3,0,0.8,0.3,0.8,0.3s2.2,0.3,2.4,0.3c0,0,0,0,0.3,0
		c0.3-0.3,0.8,0,0.8,0.5l0,0c0,0.3,0,0.3-0.3,0.5c-0.3,0-0.5,0.3-0.5,0.3s-0.3,0-0.5,0s0,0.5,0,0.8s-0.3,0.3-0.3,0.3
		c-0.3,0-0.5,0-0.5,0s0,0.5-0.3,0.8c-0.3,0.3-0.3,0-0.3,0s0.3,0.8-1.1,1.4c-1.1,0.5-4.1,0.5-4.6,0.5c-0.5-0.3-3,1.4-3,1.4
		L458.6,86.7z"/>
	<path class="st14" d="M428.6,176.5c0.5,0,0.8-0.3,1.1-0.5c0.3-0.3,0.3-1.4,0-2.2c-0.5-1.4-0.5-0.8-0.5-0.8l-7.3,0.3
		c0,0-0.3,1.1,0,1.9c0.3,0.8,1.1,1.1,1.9,1.1C425.1,176.2,427.5,176.5,428.6,176.5z"/>
	<path class="st46" d="M422.1,168.7c0,0-0.3,1.9-0.5,3.2c-0.3,1.4,0,2.7,0.3,3.2c0.5,0.5,2.7,0.3,4.1,0.3c1.4,0,2.2,0.3,3,0
		c0.8,0,0.5-2.4,0-3.8c-0.5-1.4-1.4-2.4-1.4-3.8s0-1.4,0-1.4L422.1,168.7z"/>
	<path class="st14" d="M446.4,174.6l0.8,0.5c0,0,0.3,0.3,0,0.8c0,0-0.5,0-1.4,0.5c-1.1,0.3-2.4,0.3-4.1,0.3
		c-1.6-0.3-2.2-1.1-2.7-1.6c-0.5-0.5-1.4-0.8-1.4-0.8v0.5h-3.2c0,0-0.5-1.6,0.5-2.7c1.1-1.1,1.1-1.1,1.1-1.1
		C436.4,171.1,446.4,174.6,446.4,174.6z"/>
	<path class="st46" d="M441.3,167.6c0,0,1.4,1.1,1.9,2.2c0.5,1.1,0.5,2.4,1.6,3s2.4,1.6,2.4,2.2c0,0-1.4,0-2.7,0.5
		c-1.4,0.5-3.5,0.5-4.3-0.3c-0.8-0.5-1.4-1.6-2.7-1.9c-1.4-0.5-2.7,0-3-0.5c-0.3-0.8,0-3.8,0.8-4.9
		C436.4,167,441.3,167.6,441.3,167.6z"/>
	<path class="st14" d="M442.4,75.1l2.2-1.9c0,0,0.8,3.2,0.8,5.7c0,2.4-0.5,3.5,0,4.3c0.5,0.8,2.4,3,2.4,4.3c0,1.4,0.3,1.6,1.1,1.4
		c0.8-0.3,3.8-0.8,4.6-1.1c0.5-0.3,6.2-1.9,6.2-1.9s-0.3,5.7,2.7,6.5c0,0-8.7,3-10.3,3.2c-1.6,0.3-4.9,1.4-5.7,1.4
		c-0.8,0-2.4-0.3-3.2-1.4s-1.9-3-1.9-3.8C441.6,91,442.4,75.1,442.4,75.1z"/>
	<path class="st4" d="M442.1,103.2c0,0-6.8,4.1-14.1,3.2c-7.3-0.8-8.1-0.8-8.1-1.1s3.8-25.4,5.1-35.4h1.4c0.8,2.2,3,3.2,5.1,3.2
		c2.4,0,4.3-1.4,5.1-3.5h0.5l3.2,21.6L442.1,103.2z"/>
	<path class="st14" d="M418.6,105.1c9.5,2.2,17.9,2.2,23.5-1.9c0,0,3,8.7,3,10s-0.5,1.1-0.5,3.2s0,16.8-0.3,19.5
		c-0.3,2.7-0.8,6.2-0.5,7.3c0.3,1.1,1.1,4.6,1.1,7.8c0,3.2-1.6,13.5-1.9,14.6s0.3,3,0.3,3s-2.7-0.8-4.1,0.5c-1.4,1.1-3.5,1.4-4.3,0
		c0,0,0-6,0.5-8.7c0.5-2.7,0-11.6,0-13.8s0-4.1-0.3-6.8s-1.1-8.9-1.4-9.7c-0.3-0.8-1.6-5.4-1.6-5.4s-0.3,3.2-1.1,6.2
		c-0.8,3-2.2,7.6-2.4,8.4c-0.3,1.1-1.1,7.8-1.1,10.3c0,2.4,0.8,6,1.1,8.1c0.3,1.9,0.3,8.7,0.3,9.7c0,1.1,0,1.6,0,1.6
		s-0.8-1.1-2.7-1.1c-1.9,0-3.5,1.6-3.5,1.6s-2.2-2.4-2.2-3.8s-1.1-3-1.4-5.7c-0.3-2.7-0.3-12.7,0-16.2c0.3-3.5-0.5-11.9-1.1-17
		C417.8,122.1,417,110.2,418.6,105.1z"/>
	<path class="st46" d="M435.6,66.2c0,0,1.4,3.2,1.4,6.1c0.3,3,1.1,14.9,1.6,18.7c0.5,4.1,2.2,13.8,2.2,16.5c0.3,2.7-0.3,4.9,1.6,5.7
		c1.9,0.8,3.2,0,3.2,0s-1.9-4.1-2.2-6.5c0-2.4-1.6-10.8-1.6-10.8s1.1-10.8,1.9-13.3c0.5-2.7,0.8-9.5,0.8-9.5s-6.5-3.8-7.6-5.1
		C435.9,66.7,435.6,66.2,435.6,66.2z"/>
	<g>
		<path class="st14" d="M416.4,95.6c-1.1,0.3-1.9,1.9-2.2,3.5c-0.3,1.6-0.5,3.5-0.5,3.5s-4.3-4.6-5.7-6c-1.4-1.4-2.7-4.1-3.2-5.4
			c-0.3-1.1,0.8-4.3,1.6-5.7c0.8-1.4,3.5-7.3,4.9-10.3c1.4-3,2.7-5.4,2.7-5.4s1.4,3.5,1.6,6.5c0.3,1.6,0,4.3,0,6.2
			c0,0-0.5,1.1-0.8,1.9c-0.3,1.1-3,4.6-3,4.6s0,0.3,0.3,1.1s0.8,1.4,1.6,1.9c0.3,0.3,0.5,0.8,1.1,1.1
			C415.9,94.5,416.4,95.6,416.4,95.6z"/>
		<path class="st14" d="M479.2,73.4l-16,15.4c-0.3,0.3-0.3,0.8,0,1.1s0.8,0.3,1.1,0l15.4-15.7C480.3,73.7,479.4,72.9,479.2,73.4z"/>
	</g>
	<path class="st44" d="M465.6,89.4h0.3c0.8-0.5,1.6-1.1,2.2-1.9c0.5-0.5,0.8-1.4,1.1-2.2c-0.5,0-1.1,0-1.6-0.3c-0.3,0-0.3,0-0.5,0
		c-0.3,0-0.3,0-0.3,0.3s0,0.3,0,0.5s0.3,0.3,0.3,0.5c-0.3,0-0.3,0-0.5,0c-0.3,0-0.5,0.3-0.5,0.3c0,0.3,0,0.5,0,0.8
		c-0.3,0-0.8,0-1.1,0c-0.3,0.3-0.3,0.5-0.3,0.8C464.8,88.8,465,89.1,465.6,89.4z"/>
	<g>
		<path class="st14" d="M426.2,57.7c0,0,0.3-2.7,0-4.1s1.6-3.8,3-3c1.4,0.8,3.5,0.8,4.3-0.3c0.8-1.1,3.2,0.8,3.2,2.7s0,3.8,0,4.3
			h0.3c0.3-0.5,1.1-3,0.8-4.3c0-1.9-1.9-6.5-6.8-6.2c-4.9,0.3-6.2,4.3-6.5,6.8C424.3,55,425.3,56.7,426.2,57.7L426.2,57.7z"/>
		<path class="st46" d="M427.2,64.5c0,0-1.1,3.5-0.8,6.5c0.3,3,0.3,17,0.3,18.7c0,1.6-1.9,15.4-2.7,17.6c-0.8,1.9-2.7,6.5-5.7,6.5
			c-3,0-6-1.9-6-1.9s3.5-21.6,3-26.2c0,0,0.8-5.7,0.3-8.7c-0.5-3-1.6-6.5-1.6-6.5s6.2-2.4,8.4-2.7C424.5,67.5,425.3,65.3,427.2,64.5
			z"/>
	</g>
</g>
<g>
	<g>
		<g>
			<g>
				<g id="_Group_6_5_">
					<path id="_Path_4_5_" class="st1" d="M681.1-2.2c-1.3,0-2.3,1-2.3,2.3l0,0l0,0v56.5c0,1.3,1,2.3,2.3,2.3l0,0h87.6
						c1.3,0,2.3-1,2.3-2.3l0,0V0.1c0-1.3-1-2.3-2.3-2.3l0,0L681.1-2.2L681.1-2.2z"/>
					<path id="_Path_5_5_" class="st2" d="M673.8,61.5H776c2.7,0,4.9-2.2,4.9-4.9H668.9C669,59.3,671.1,61.5,673.8,61.5z"/>
					<path id="_Path_6_5_" class="st1" d="M669.7,59.3c0.9,1.4,2.4,2.3,4.1,2.3H776c1.7,0,3.2-0.8,4.1-2.3H669.7z"/>
					<circle id="_Path_7_5_" class="st3" cx="677.8" cy="57.9" r="0.5"/>
					<circle id="_Path_8_5_" class="st3" cx="676.3" cy="57.9" r="0.5"/>
					<circle id="_Path_9_5_" class="st3" cx="674.7" cy="57.9" r="0.5"/>
				</g>
				<g id="_Group_2-2_5_">
					<rect x="682.6" y="1.5" class="st4" width="84.6" height="52.7"/>
				</g>
			</g>
		</g>
	</g>
	<rect x="692" y="4.5" class="st5" width="14" height="14"/>
	<rect x="709.2" y="4.5" class="st5" width="14" height="14"/>
	<rect x="726.4" y="4.5" class="st5" width="14" height="14"/>
	<rect x="743.8" y="4.5" class="st6" width="14" height="14"/>
	<rect x="692.1" y="21.2" class="st7" width="14" height="13.3"/>
	<rect x="709.3" y="21.2" class="st8" width="14" height="13.3"/>
	<rect x="726.5" y="21.2" class="st9" width="14" height="13.3"/>
	<rect x="743.8" y="21.2" class="st10" width="14" height="13.3"/>
	<g class="st11">
		<path class="st12" d="M699.2,28.6c0,1.7-0.4,3.1-1.3,4.1c-0.9,1-2.1,1.5-3.6,1.5c-1.6,0-2.8-0.5-3.7-1.5c-0.9-1-1.3-2.3-1.3-4.1
			c0-1.8,0.4-3.1,1.3-4.1c0.9-1,2.1-1.4,3.7-1.4c1.5,0,2.8,0.5,3.6,1.5C698.8,25.5,699.2,26.9,699.2,28.6z M690.6,28.6
			c0,1.5,0.3,2.6,0.9,3.3c0.6,0.8,1.5,1.1,2.7,1.1c1.2,0,2.1-0.4,2.7-1.1s0.9-1.9,0.9-3.3c0-1.4-0.3-2.5-0.9-3.3
			c-0.6-0.7-1.5-1.1-2.7-1.1c-1.2,0-2.1,0.4-2.7,1.1C690.9,26.1,690.6,27.2,690.6,28.6z"/>
		<path class="st12" d="M705,26.9H703V34h-1.2v-7.1h-1.4v-0.6l1.4-0.4v-0.4c0-2,0.9-3,2.6-3c0.4,0,0.9,0.1,1.5,0.3l-0.3,1
			c-0.5-0.2-0.9-0.2-1.2-0.2c-0.5,0-0.8,0.2-1,0.5c-0.2,0.3-0.3,0.8-0.3,1.5v0.5h2.1V26.9z M710.1,26.9h-2.1V34h-1.2v-7.1h-1.4v-0.6
			l1.4-0.4v-0.4c0-2,0.9-3,2.6-3c0.4,0,0.9,0.1,1.5,0.3l-0.3,1c-0.5-0.2-0.9-0.2-1.2-0.2c-0.5,0-0.8,0.2-1,0.5
			c-0.2,0.3-0.3,0.8-0.3,1.5v0.5h2.1V26.9z M711.5,23.8c0-0.3,0.1-0.5,0.2-0.6c0.1-0.1,0.3-0.2,0.5-0.2c0.2,0,0.4,0.1,0.5,0.2
			c0.1,0.1,0.2,0.3,0.2,0.6s-0.1,0.5-0.2,0.6c-0.1,0.1-0.3,0.2-0.5,0.2c-0.2,0-0.4-0.1-0.5-0.2C711.6,24.2,711.5,24,711.5,23.8z
			 M712.9,34h-1.2v-8.1h1.2V34z"/>
		<path class="st12" d="M718.7,34.2c-1.2,0-2.1-0.4-2.7-1.1c-0.6-0.7-1-1.7-1-3.1c0-1.3,0.3-2.4,1-3.1c0.7-0.7,1.6-1.1,2.8-1.1
			c0.4,0,0.8,0,1.2,0.1c0.4,0.1,0.7,0.2,0.9,0.3l-0.4,1c-0.3-0.1-0.6-0.2-0.9-0.3c-0.3-0.1-0.6-0.1-0.8-0.1c-1.6,0-2.5,1-2.5,3.1
			c0,1,0.2,1.8,0.6,2.3c0.4,0.5,1,0.8,1.8,0.8c0.7,0,1.4-0.1,2.1-0.4v1.1C720.2,34,719.5,34.2,718.7,34.2z"/>
		<path class="st12" d="M726,34.2c-1.2,0-2.1-0.4-2.8-1.1c-0.7-0.7-1-1.7-1-3c0-1.3,0.3-2.3,1-3.1c0.6-0.8,1.5-1.1,2.6-1.1
			c1,0,1.8,0.3,2.4,1c0.6,0.7,0.9,1.5,0.9,2.6v0.8h-5.6c0,0.9,0.3,1.7,0.7,2.2s1.1,0.7,1.9,0.7c0.9,0,1.7-0.2,2.6-0.5v1.1
			c-0.4,0.2-0.8,0.3-1.2,0.4C727.1,34.1,726.6,34.2,726,34.2z M725.7,26.8c-0.6,0-1.2,0.2-1.5,0.6c-0.4,0.4-0.6,1-0.7,1.8h4.2
			c0-0.8-0.2-1.4-0.5-1.8S726.4,26.8,725.7,26.8z"/>
		<path class="st12" d="M741.1,25.8c0,0.7-0.2,1.2-0.6,1.7c-0.4,0.4-0.9,0.7-1.6,0.9v0.1c0.9,0.1,1.5,0.4,1.9,0.8
			c0.4,0.4,0.6,1,0.6,1.7c0,1-0.4,1.8-1.1,2.4c-0.7,0.6-1.7,0.8-3,0.8c-0.6,0-1.1,0-1.6-0.1s-0.9-0.2-1.4-0.5v-1.2
			c0.5,0.2,1,0.4,1.5,0.5c0.5,0.1,1,0.2,1.5,0.2c1.9,0,2.8-0.7,2.8-2.2c0-1.3-1-2-3.1-2H736v-1.1h1.1c0.8,0,1.5-0.2,2-0.6
			c0.5-0.4,0.7-0.9,0.7-1.5c0-0.5-0.2-0.9-0.5-1.2c-0.4-0.3-0.9-0.4-1.5-0.4c-0.5,0-0.9,0.1-1.3,0.2c-0.4,0.1-0.9,0.4-1.4,0.7
			l-0.6-0.8c0.4-0.3,1-0.6,1.5-0.8c0.6-0.2,1.2-0.3,1.8-0.3c1,0,1.9,0.2,2.4,0.7S741.1,24.9,741.1,25.8z"/>
		<path class="st12" d="M743.2,29.4c0-2.1,0.4-3.7,1.2-4.7c0.8-1,2-1.6,3.6-1.6c0.6,0,1,0,1.3,0.1v1.1c-0.4-0.1-0.8-0.2-1.3-0.2
			c-1.2,0-2,0.4-2.6,1.1c-0.6,0.7-0.9,1.8-1,3.4h0.1c0.5-0.8,1.4-1.3,2.6-1.3c1,0,1.7,0.3,2.3,0.9s0.8,1.4,0.8,2.4
			c0,1.1-0.3,2-0.9,2.6c-0.6,0.6-1.4,1-2.5,1c-1.1,0-2-0.4-2.6-1.3S743.2,30.9,743.2,29.4z M746.8,33.1c0.7,0,1.2-0.2,1.6-0.7
			c0.4-0.4,0.6-1.1,0.6-1.9c0-0.7-0.2-1.3-0.5-1.7c-0.4-0.4-0.9-0.6-1.6-0.6c-0.4,0-0.8,0.1-1.2,0.3c-0.4,0.2-0.7,0.4-0.9,0.8
			c-0.2,0.3-0.3,0.7-0.3,1c0,0.5,0.1,1,0.3,1.4c0.2,0.4,0.5,0.8,0.8,1C745.9,33,746.3,33.1,746.8,33.1z"/>
		<path class="st12" d="M755.1,27.4c1.1,0,2,0.3,2.7,0.8c0.7,0.6,1,1.3,1,2.3c0,1.1-0.4,2-1.1,2.6c-0.7,0.6-1.7,0.9-2.9,0.9
			c-1.2,0-2.1-0.2-2.8-0.6v-1.2c0.3,0.2,0.8,0.4,1.3,0.5c0.5,0.1,1,0.2,1.5,0.2c0.9,0,1.5-0.2,2-0.6c0.5-0.4,0.7-1,0.7-1.8
			c0-1.5-0.9-2.3-2.8-2.3c-0.5,0-1.1,0.1-1.9,0.2l-0.6-0.4l0.4-5h5.4v1.1h-4.3l-0.3,3.2C753.9,27.5,754.5,27.4,755.1,27.4z"/>
	</g>
	<rect x="692.1" y="37.2" class="st5" width="14" height="14"/>
	<rect x="709.3" y="37.2" class="st5" width="14" height="14"/>
	<rect x="726.5" y="37.2" class="st5" width="14" height="14"/>
	<rect x="743.8" y="37.2" class="st5" width="14" height="14"/>
</g>
<path class="st47" d="M731.7,49.2c-2.1,0.7-4.4,1-6.8,1c-12.3,0-22.3-10-22.3-22.3c0-7.1,3.3-13.4,8.4-17.4"/>
<path class="st47" d="M718.7,6.4c2-0.6,4-0.9,6.2-0.9c12.3,0,22.3,10,22.3,22.3c0,6.2-2.6,11.9-6.7,15.9"/>
<path class="st14" d="M738.5,24.5h-1.1c-0.3-1.1-0.7-2.1-1.3-3.1l0.8-0.8c0.3-0.3,0.4-0.7,0.4-1.1c0-0.4-0.2-0.8-0.4-1.1l-2.6-2.6
	c-0.6-0.6-1.6-0.6-2.2,0l-0.8,0.8c-1-0.6-2-1-3.1-1.3v-1.1c0-0.8-0.7-1.6-1.6-1.6h-3.6c-0.8,0-1.6,0.7-1.6,1.6v1.1
	c-1.1,0.3-2.1,0.7-3.1,1.3l-0.8-0.8c-0.6-0.6-1.6-0.6-2.2,0l-2.6,2.6c-0.3,0.3-0.4,0.7-0.4,1.1c0,0.4,0.2,0.8,0.4,1.1l0.8,0.8
	c-0.6,1-1,2-1.3,3.1h-1.1c-0.8,0-1.6,0.7-1.6,1.6v3.6c0,0.8,0.7,1.6,1.6,1.6h1.1c0.3,1.1,0.7,2.1,1.3,3.1l-0.8,0.8
	c-0.3,0.3-0.4,0.7-0.4,1.1c0,0.4,0.2,0.8,0.4,1.1l2.6,2.6c0.6,0.6,1.6,0.6,2.2,0l0.8-0.8c1,0.6,2,1,3.1,1.3v1.1
	c0,0.8,0.7,1.6,1.6,1.6h3.6c0.8,0,1.6-0.7,1.6-1.6v-1.1c1.1-0.3,2.1-0.7,3.1-1.3l0.8,0.8c0.6,0.6,1.6,0.6,2.2,0l2.6-2.6
	c0.3-0.3,0.4-0.7,0.4-1.1c0-0.4-0.2-0.8-0.4-1.1l-0.8-0.8c0.6-1,1-2,1.3-3.1h1.1c0.8,0,1.6-0.7,1.6-1.6v-3.6
	C740.1,25.2,739.4,24.5,738.5,24.5z M724.9,34.6c-3.7,0-6.7-3-6.7-6.7s3-6.7,6.7-6.7c3.7,0,6.7,3,6.7,6.7S728.6,34.6,724.9,34.6z"/>
<polygon class="st15" points="745.8,44.3 737.6,48.3 738.2,39.3 "/>
<polygon class="st15" points="712.6,7.5 711.2,16.5 704.2,10.8 "/>
<g>
	<g>
		<ellipse class="st4" cx="516.6" cy="150.9" rx="32.6" ry="27.8"/>
		<polyline class="st4" points="489.3,161 472.2,177 498,170.8 		"/>
	</g>
</g>
<g>
	<g>
		<g>
			<g>
				<path class="st15" d="M501.9,161.1c-1,1-1,2.7,0,3.9c0.5,0.5,1.2,0.7,1.9,0.7c0.6,0,1.4-0.2,1.9-0.7l8.8-8.8l-3.9-3.9
					L501.9,161.1z"/>
				<polygon class="st48" points="524.1,144.6 527.9,142.6 530,138.7 528.2,136.8 524.2,138.8 522.2,142.6 517.4,147.4 519.4,149.3 
									"/>
				<path class="st49" d="M524.9,154.9h-0.4c-0.6,0-1.2,0.1-1.9,0.4l-11.1-11.1c0.2-0.6,0.4-1.2,0.4-1.9v-0.4c-0.2-2.9-2.5-5-5.4-5
					c-0.9,0-1.6,0.2-2.4,0.5l3.6,3.6c0.2,0.2,0.4,0.4,0.4,0.6c0.2,0.6,0.1,1.4-0.4,1.9c-0.4,0.4-0.9,0.5-1.2,0.5
					c-0.2,0-0.4,0-0.6-0.1c-0.2-0.1-0.5-0.2-0.6-0.4l-3.6-3.6c-0.4,0.7-0.5,1.5-0.5,2.4c0,2.9,2.2,5.2,5,5.4h0.4
					c0.6,0,1.2-0.1,1.9-0.4l11.1,11.1c-0.2,0.6-0.4,1.2-0.4,1.9v0.4c0.2,2.9,2.5,5,5.4,5c0.9,0,1.6-0.2,2.4-0.5l-3.6-3.6
					c-0.2-0.2-0.4-0.4-0.4-0.6c-0.2-0.6-0.1-1.4,0.4-1.9c0.4-0.4,0.9-0.5,1.2-0.5c0.2,0,0.4,0,0.6,0.1c0.2,0.1,0.5,0.2,0.6,0.4
					l3.6,3.6c0.4-0.7,0.5-1.5,0.5-2.4C530,157.3,527.8,155.1,524.9,154.9z"/>
			</g>
		</g>
	</g>
</g>
<g>
	<g>
		<ellipse class="st50" cx="512.6" cy="218.2" rx="26.7" ry="22.8"/>
		<polyline class="st50" points="534.9,226.4 549.1,239.6 527.8,234.6 		"/>
	</g>
	<circle class="st18" cx="513.1" cy="218.8" r="12"/>
	<polyline class="st51" points="505,219.4 510.7,223.7 520.7,213.2 	"/>
</g>
<circle class="st0" cx="468.4" cy="195.2" r="3.9"/>
<circle class="st0" cx="790.6" cy="37.2" r="2.3"/>
<circle class="st0" cx="923.7" cy="125.2" r="2.1"/>
<circle class="st0" cx="987.6" cy="263.5" r="4.4"/>
<g>
	<line class="st31" x1="513.1" y1="256.6" x2="479.1" y2="256.6"/>
	<line class="st31" x1="523.1" y1="264.6" x2="489.1" y2="264.6"/>
</g>
<g>
	<line class="st31" x1="631.8" y1="42.9" x2="597.8" y2="42.9"/>
	<line class="st31" x1="641.8" y1="50.9" x2="607.8" y2="50.9"/>
</g>
<g>
	<line class="st31" x1="864.2" y1="42.9" x2="830.2" y2="42.9"/>
	<line class="st31" x1="854.2" y1="50.9" x2="820.2" y2="50.9"/>
</g>
<circle class="st0" cx="641.8" cy="24.8" r="3.6"/>
<circle class="st0" cx="560.5" cy="120.4" r="2.7"/>
<circle class="st0" cx="805.5" cy="60.9" r="4.6"/>
</svg>
