<svg id="Layer_5" data-name="Layer 5" xmlns="http://www.w3.org/2000/svg" viewBox="0 0 548 390.3"><defs><style>.cls-1{fill:#eee;}.cls-2{fill:#37474f;}.cls-3{fill:#f5fbf7;}.cls-4{fill:#b0bec5;}.cls-5{fill:#90a4ae;}.cls-6{fill:#bdddf4;}.cls-7{fill:#eceff0;}.cls-13,.cls-8{fill:#fff;}.cls-9{fill:#e4f2fb;}.cls-10{fill:#a3d1ee;}.cls-11{fill:#c8e5c9;}.cls-12{fill:#71be71;}.cls-13{stroke:#fff;stroke-linecap:round;stroke-linejoin:round;stroke-width:1.78px;}.cls-14{fill:#546e7a;}.cls-15{fill:#57a7db;}.cls-16{fill:#f4ae7a;}.cls-17{fill:#99cf8c;}</style></defs><title>support</title><g id="_Group_" data-name="&lt;Group&gt;"><g id="_Group_2" data-name="&lt;Group&gt;"><path id="_Compound_Path_" data-name="&lt;Compound Path&gt;" class="cls-1" d="M409.8,81.44l1.26-3.36a28.43,28.43,0,0,0,7.34-.21L419.87,81a3.91,3.91,0,0,0,5.45,1.89l4.2-1.89a3.91,3.91,0,0,0,1.89-5.45l-1.47-3.15A31.09,31.09,0,0,0,435,67l3.36,1.26a4,4,0,0,0,5.24-2.31l1.47-4.2a4.21,4.21,0,0,0-2.31-5.24l-3.36-1.26a28.43,28.43,0,0,0-.21-7.34l3.15-1.47A3.91,3.91,0,0,0,444.2,41l-1.89-4.2a3.91,3.91,0,0,0-5.45-1.89l-3.15,1.47a31.09,31.09,0,0,0-5.45-5l1.26-3.15a4.21,4.21,0,0,0-2.31-5.24L423,21.44a3.36,3.36,0,0,0-3.15.21,3.81,3.81,0,0,0-2.1,2.31l-1.26,3.36a28.43,28.43,0,0,0-7.34.21l-1.47-3.15a3.91,3.91,0,0,0-5.45-1.89l-4.2,1.89a3.91,3.91,0,0,0-1.89,5.45L397.64,33a31.09,31.09,0,0,0-5,5.45l-3.36-1.26a3.36,3.36,0,0,0-3.15.21,3.81,3.81,0,0,0-2.1,2.31l-1.47,4.2a3.36,3.36,0,0,0,.21,3.15,3.81,3.81,0,0,0,2.31,2.1l3.36,1.26a28.43,28.43,0,0,0,.21,7.34l-3.15,1.47a3.91,3.91,0,0,0-1.89,5.45l1.89,4.2a3.91,3.91,0,0,0,5.45,1.89l2.94-2.1a31.09,31.09,0,0,0,5.45,5L398.06,77a3.36,3.36,0,0,0,.21,3.15,3.81,3.81,0,0,0,2.31,2.1l4.2,1.47A3.87,3.87,0,0,0,409.8,81.44ZM399.31,59.2a14.92,14.92,0,0,1-1.47-6.71A15.71,15.71,0,0,1,407.08,38a15.94,15.94,0,0,1,21.19,7.76,14.92,14.92,0,0,1,1.47,6.71A15.71,15.71,0,0,1,420.5,67,15.88,15.88,0,0,1,399.31,59.2Z"/><path id="_Compound_Path_2" data-name="&lt;Compound Path&gt;" class="cls-1" d="M398.27,121.5l.63-1.89a14.45,14.45,0,0,0,4.2-.21l.84,1.89a2.14,2.14,0,0,0,2.94,1l2.31-1a2.14,2.14,0,0,0,1-2.94l-.84-1.89a12,12,0,0,0,2.73-2.94l1.89.63a2.34,2.34,0,0,0,2.94-1.26l.84-2.31a2.43,2.43,0,0,0-1.26-2.94l-1.89-.63a14.45,14.45,0,0,0-.21-4.2l1.89-.84a2.14,2.14,0,0,0,1-2.94l-1-2.31a2.14,2.14,0,0,0-2.94-1l-1.89.84a12,12,0,0,0-2.94-2.73l.63-1.89A2.43,2.43,0,0,0,407.91,89l-2.31-.84a2.3,2.3,0,0,0-1.68,0,1.89,1.89,0,0,0-1.26,1.26L402,91.3a14.45,14.45,0,0,0-4.2.21L397,89.62a2.14,2.14,0,0,0-2.94-1l-2.31,1a2.14,2.14,0,0,0-1,2.94l.84,1.89a12,12,0,0,0-2.73,2.94l-1.89-.63a2.3,2.3,0,0,0-1.68,0A1.89,1.89,0,0,0,384,98l-.84,2.31a2.3,2.3,0,0,0,0,1.68,2.45,2.45,0,0,0,1.26,1.26l1.89.63a14.45,14.45,0,0,0,.21,4.2l-1.89.84a2.14,2.14,0,0,0-1,2.94l1,2.31a2.14,2.14,0,0,0,2.94,1l1.89-.84a12,12,0,0,0,2.94,2.73l-.63,1.89a2.3,2.3,0,0,0,0,1.68,1.89,1.89,0,0,0,1.26,1.26l2.31.84A2.34,2.34,0,0,0,398.27,121.5Zm-5.87-12.38a8.23,8.23,0,0,1-.84-3.78,8.73,8.73,0,0,1,5.24-8,8.9,8.9,0,0,1,11.75,4.41,8.23,8.23,0,0,1,.84,3.78,8.73,8.73,0,0,1-5.24,8A9.08,9.08,0,0,1,392.39,109.13Z"/><path id="_Compound_Path_3" data-name="&lt;Compound Path&gt;" class="cls-1" d="M469.38,163.66l2.1-5.66a48.63,48.63,0,0,0,12.38-.42l2.52,5.45a6.93,6.93,0,0,0,9,3.36l6.92-3.15a6.93,6.93,0,0,0,3.36-9l-2.52-5.45a38.94,38.94,0,0,0,8.39-9.23l5.66,2.1a6.91,6.91,0,0,0,8.81-4l2.73-7.13a7.1,7.1,0,0,0-4-8.81l-5.66-2.1a48.63,48.63,0,0,0-.42-12.38l5.24-2.52a6.93,6.93,0,0,0,3.36-9l-3.36-6.92a6.93,6.93,0,0,0-9-3.36l-5.45,2.52a38.94,38.94,0,0,0-9.23-8.39l2.1-5.66a7.1,7.1,0,0,0-4-8.81l-7.13-2.73a6.53,6.53,0,0,0-5.24.21,7,7,0,0,0-3.57,3.78L480.28,72a48.63,48.63,0,0,0-12.38.42L465.39,67a6.93,6.93,0,0,0-9-3.36l-6.92,3.15a6.93,6.93,0,0,0-3.36,9l2.52,5.45a38.94,38.94,0,0,0-8.39,9.23l-5.66-2.1a6.53,6.53,0,0,0-5.24.21,7,7,0,0,0-3.57,3.78L423,99.48a6.53,6.53,0,0,0,.21,5.24,7,7,0,0,0,3.78,3.57l5.66,2.1a48.63,48.63,0,0,0,.42,12.38l-5.45,2.52a6.93,6.93,0,0,0-3.36,9l3.15,6.92a6.93,6.93,0,0,0,9,3.36l5.45-2.52a38.94,38.94,0,0,0,9.23,8.39l-2.1,5.66a6.53,6.53,0,0,0,.21,5.24,7,7,0,0,0,3.78,3.57l7.13,2.73A7,7,0,0,0,469.38,163.66Zm-17.83-37.34A26,26,0,0,1,449,115.21a26.79,26.79,0,0,1,51.18-11.12,26,26,0,0,1,2.52,11.12,26.79,26.79,0,0,1-51.18,11.12Z"/></g></g><g id="_Group_3" data-name=" Group "><path id="_Path_4" data-name=" Path 4" class="cls-2" d="M86.35,97.14a8.72,8.72,0,0,0-8.73,8.71s0,0,0,0V323.24A8.72,8.72,0,0,0,86.33,332h337a8.72,8.72,0,0,0,8.73-8.71V105.87a8.72,8.72,0,0,0-8.71-8.73h-337Z"/><path id="_Path_5" data-name=" Path 5" class="cls-3" d="M58.27,342.1H451.21a18.77,18.77,0,0,0,18.71-18.71H39.58A18.77,18.77,0,0,0,58.27,342.1Z"/><path id="_Path_6" data-name=" Path 6" class="cls-4" d="M42.54,333.42a18.89,18.89,0,0,0,15.75,8.73H451.23A18.33,18.33,0,0,0,467,333.42Z"/><circle id="_Path_7" data-name=" Path 7" class="cls-5" cx="73.57" cy="328.06" r="2.02"/><circle id="_Path_8" data-name=" Path 8" class="cls-5" cx="67.8" cy="328.06" r="2.18"/><circle id="_Path_9" data-name=" Path 9" class="cls-5" cx="61.88" cy="328.06" r="2.18"/></g><g id="_Group_2-2" data-name=" Group 2"><rect class="cls-6" x="92.12" y="111.16" width="325.21" height="202.72"/></g><rect class="cls-7" x="92.12" y="111.16" width="325.21" height="35.34"/><path class="cls-8" d="M113.73,136.73l-8.1-8.1,8.1-8.1L111.24,118l-10.37,10.38,10.39,10.39Zm9.15,0,8.1-8.1-8.1-8.1,2.49-2.49,10.39,10.39-10.4,10.38Z"/><rect class="cls-9" x="100.85" y="156.89" width="74.15" height="68.87"/><rect class="cls-10" x="185.85" y="172.15" width="221.15" height="53.6"/><rect class="cls-9" x="185.85" y="157.15" width="221.15" height="12"/><rect class="cls-7" x="185.85" y="234.29" width="221.15" height="68.87"/><rect class="cls-10" x="100.85" y="234.29" width="74.15" height="68.87"/><circle class="cls-6" cx="384.9" cy="118.23" r="3.12"/><circle class="cls-6" cx="396.13" cy="118.23" r="3.12"/><circle class="cls-6" cx="407.14" cy="118.23" r="3.12"/><rect class="cls-7" x="106.9" y="242.4" width="44.43" height="6.14"/><rect class="cls-7" x="154.66" y="242.4" width="14.93" height="6.14"/><rect class="cls-7" x="106.9" y="252.3" width="31.83" height="6.14"/><rect class="cls-7" x="142.06" y="252.55" width="27.94" height="6.14"/><rect class="cls-7" x="106.9" y="262.21" width="42.25" height="6.14"/><rect class="cls-7" x="152.36" y="262.21" width="11.91" height="6.14"/><rect class="cls-7" x="106.9" y="272.24" width="54.51" height="6.14"/><rect class="cls-7" x="106.9" y="282.15" width="31.49" height="6.14"/><rect class="cls-7" x="141.37" y="282.15" width="20.04" height="6.14"/><rect class="cls-7" x="106.9" y="292.06" width="54.51" height="6.14"/><circle class="cls-8" cx="136" cy="191.15" r="28"/><circle class="cls-7" cx="136" cy="180.15" r="9"/><path class="cls-7" d="M136,211.15a20,20,0,0,0,17.67-10.64,19.12,19.12,0,0,0-15.77-8.36H134.1a19.12,19.12,0,0,0-15.77,8.36A20,20,0,0,0,136,211.15Z"/><rect class="cls-10" x="193.9" y="241.4" width="140.2" height="6.14"/><rect class="cls-10" x="344.59" y="241.4" width="47.12" height="6.14"/><rect class="cls-10" x="193.9" y="251.3" width="100.45" height="6.14"/><rect class="cls-10" x="304.84" y="251.55" width="88.16" height="6.14"/><rect class="cls-10" x="193.9" y="261.21" width="133.33" height="6.14"/><rect class="cls-10" x="337.35" y="261.21" width="37.58" height="6.14"/><rect class="cls-10" x="193.9" y="271.24" width="172.01" height="6.14"/><rect class="cls-10" x="193.9" y="281.15" width="99.36" height="6.14"/><rect class="cls-10" x="302.65" y="281.15" width="63.24" height="6.14"/><rect class="cls-10" x="193.9" y="291.06" width="172.01" height="6.14"/><rect class="cls-11" x="376.01" y="218.38" width="123.83" height="128.38" transform="translate(720.49 -155.36) rotate(90)"/><rect class="cls-12" x="384.51" y="226.88" width="123.83" height="128.38" transform="translate(737.49 -155.36) rotate(90)"/><rect class="cls-13" x="436.76" y="238.77" width="1.81" height="10.37" transform="translate(-27.12 56.75) rotate(-7.2)"/><rect class="cls-13" x="421.14" y="244.62" width="1.81" height="10.37" transform="translate(-67.55 221.19) rotate(-27.28)"/><rect class="cls-13" x="408.47" y="255.45" width="1.81" height="10.37" transform="translate(-59.89 384.37) rotate(-47.25)"/><rect class="cls-13" x="400.26" y="269.96" width="1.81" height="10.37" transform="translate(-8.24 537.87) rotate(-67.13)"/><rect class="cls-13" x="397.51" y="286.4" width="1.82" height="10.37" transform="translate(87.8 675.35) rotate(-87.21)"/><rect class="cls-13" x="396.28" y="307.07" width="10.37" height="1.81" transform="translate(-73.33 133.05) rotate(-17.27)"/><rect class="cls-13" x="404.74" y="321.43" width="10.37" height="1.81" transform="translate(-111.48 313.44) rotate(-37.2)"/><rect class="cls-13" x="490.77" y="301.99" width="1.81" height="10.37" transform="translate(18.06 641.53) rotate(-67.22)"/><rect class="cls-13" x="493.52" y="285.55" width="1.81" height="10.37" transform="translate(180.12 770.52) rotate(-87.23)"/><rect class="cls-13" x="486.2" y="273.43" width="10.37" height="1.81" transform="translate(-59.26 158.09) rotate(-17.25)"/><rect class="cls-13" x="477.74" y="259.07" width="10.37" height="1.81" transform="translate(-58.84 345.41) rotate(-37.26)"/><rect class="cls-13" x="464.87" y="248.47" width="10.37" height="1.81" transform="translate(5.86 509.49) rotate(-57.21)"/><rect class="cls-13" x="449.15" y="242.9" width="10.37" height="1.81" transform="translate(115.97 632.88) rotate(-77.21)"/><rect class="cls-13" x="454.11" y="332.99" width="1.81" height="10.37" transform="matrix(0.99, -0.13, 0.13, 0.99, -38.85, 59.8)"/><rect class="cls-13" x="469.73" y="327.15" width="1.82" height="10.37" transform="translate(-99.93 252.39) rotate(-27.25)"/><rect class="cls-13" x="482.41" y="316.32" width="1.81" height="10.37" transform="translate(-80.87 458.09) rotate(-47.24)"/><rect class="cls-13" x="417.45" y="331.85" width="10.37" height="1.81" transform="translate(-85.93 507.99) rotate(-57.23)"/><rect class="cls-13" x="433.17" y="337.41" width="10.37" height="1.81" transform="translate(11.55 691.09) rotate(-77.24)"/><path class="cls-7" d="M446.21,275.44a16.67,16.67,0,0,1,15.27-10.35c9.2,0,15.82,7.87,16.65,17.25a17.11,17.11,0,0,1-.53,6.52,28.82,28.82,0,0,1-8.79,14.65l-22.6,20.17L424,303.51a28.83,28.83,0,0,1-8.79-14.65,17.2,17.2,0,0,1-.54-6.52c.83-9.38,7.46-17.25,16.66-17.25,6.83,0,12.32,4.26,14.89,10.35Zm0,0"/><polygon class="cls-14" points="475.22 315.46 501.31 390.5 511.93 362.05 533.44 385.05 543.82 374.67 520.92 352.99 546 342.77 475.22 315.46"/><rect class="cls-9" x="198" y="179.15" width="39" height="39"/><rect class="cls-9" x="250" y="179.15" width="39" height="39"/><rect class="cls-9" x="302" y="179.15" width="39" height="39"/><rect class="cls-9" x="354" y="179.15" width="39" height="39"/><path class="cls-10" d="M202.65,26V165.29H13.44V22.15h185.4A3.81,3.81,0,0,1,202.65,26Z"/><path class="cls-15" d="M202.65,26V46.15H13.44V26a3.81,3.81,0,0,1,3.81-3.81h181.6A3.81,3.81,0,0,1,202.65,26Z"/><path class="cls-8" d="M28.69,37h0a2.86,2.86,0,1,1,0-5.71h0a2.86,2.86,0,0,1,0,5.71Z"/><path class="cls-8" d="M37.31,37h0a2.86,2.86,0,1,1,0-5.71h0a2.86,2.86,0,1,1,0,5.71Z"/><path class="cls-8" d="M45.93,37h0a2.86,2.86,0,0,1,0-5.71h0a2.86,2.86,0,1,1,0,5.71Z"/><path class="cls-8" d="M187.45,37h-5.31a2.86,2.86,0,0,1,0-5.71h5.31a2.86,2.86,0,1,1,0,5.71Z"/><path class="cls-8" d="M37.54,93.28H75.07a9.68,9.68,0,1,1,0,19.37H37.54a9.68,9.68,0,1,1,0-19.37Z"/><path class="cls-16" d="M47.22,103a9.68,9.68,0,1,1-9.68-9.68A9.68,9.68,0,0,1,47.22,103Z"/><path class="cls-8" d="M75.07,79.52H37.54a9.68,9.68,0,1,1,0-19.36H75.07a9.68,9.68,0,1,1,0,19.36Z"/><path class="cls-12" d="M84.75,69.84a9.68,9.68,0,1,1-9.68-9.68,9.68,9.68,0,0,1,9.68,9.68Z"/><path class="cls-8" d="M75.07,145.76H37.54a9.68,9.68,0,1,1,0-19.36H75.07a9.68,9.68,0,1,1,0,19.36Z"/><path class="cls-12" d="M84.75,136.08a9.68,9.68,0,1,1-9.68-9.68,9.68,9.68,0,0,1,9.68,9.68Z"/><path class="cls-9" d="M150.31,136.12H99.37a2.86,2.86,0,1,1,0-5.71h50.95a2.86,2.86,0,1,1,0,5.71Z"/><path class="cls-9" d="M112.46,144.81H99.37a2.85,2.85,0,1,1,0-5.71h13.09a2.85,2.85,0,1,1,0,5.71Z"/><path class="cls-9" d="M183,144.81H120.56a2.85,2.85,0,1,1,0-5.71H183a2.85,2.85,0,1,1,0,5.71Z"/><path class="cls-9" d="M109.49,102.48H99.37a2.85,2.85,0,1,1,0-5.71h10.13a2.85,2.85,0,1,1,0,5.71Z"/><path class="cls-9" d="M183,102.48H117.67a2.85,2.85,0,1,1,0-5.71H183a2.85,2.85,0,1,1,0,5.71Z"/><path class="cls-9" d="M183,111.18H99.37a2.86,2.86,0,1,1,0-5.71H183a2.86,2.86,0,0,1,0,5.71Z"/><path class="cls-9" d="M150.31,68.85H99.37a2.85,2.85,0,1,1,0-5.71h50.95a2.85,2.85,0,1,1,0,5.71Z"/><path class="cls-9" d="M146.26,77.55H99.37a2.86,2.86,0,1,1,0-5.71h46.89a2.86,2.86,0,1,1,0,5.71Z"/><path class="cls-9" d="M183,77.55H154.37a2.86,2.86,0,1,1,0-5.71H183a2.86,2.86,0,0,1,0,5.71Z"/><path class="cls-15" d="M93.59,369.15a3.34,3.34,0,0,0,3.35-3.45L95.49,201v-.7a3.31,3.31,0,0,1,1.85-3,47.74,47.74,0,0,0,9.14-79.15,4.13,4.13,0,0,0-6.8,3.15v30.83a3.3,3.3,0,0,1-1.8,2.95L77.25,165.77a3.29,3.29,0,0,1-3,0L53.57,155.07a3.3,3.3,0,0,1-1.8-2.95V121.29a4.19,4.19,0,0,0-2.4-3.75,4.06,4.06,0,0,0-4.4.6,47.74,47.74,0,0,0,9.14,79.15,3.31,3.31,0,0,1,1.85,3v.7L54.81,365.6a3.32,3.32,0,0,0,3.3,3.4Z"/><path class="cls-15" d="M132.44,163.18H276.35a0,0,0,0,1,0,0v88.65a5.17,5.17,0,0,1-5.17,5.17H137.62a5.17,5.17,0,0,1-5.17-5.17V163.18A0,0,0,0,1,132.44,163.18Z"/><path class="cls-17" d="M137.19,143.15H271.6a4.75,4.75,0,0,1,4.75,4.75v15.5a0,0,0,0,1,0,0H132.44a0,0,0,0,1,0,0V147.9A4.75,4.75,0,0,1,137.19,143.15Z"/><rect class="cls-6" x="143.52" y="173.82" width="33.79" height="33.79"/><rect class="cls-6" x="187.5" y="173.82" width="33.79" height="33.79"/><rect class="cls-6" x="231.48" y="173.82" width="33.79" height="33.79"/><rect class="cls-6" x="143.52" y="214.22" width="33.79" height="33.79"/><rect class="cls-6" x="187.5" y="214.22" width="33.79" height="33.79"/><rect class="cls-6" x="231.48" y="214.22" width="33.79" height="33.79"/><circle class="cls-17" cx="277.51" cy="249.17" r="34.29"/><path class="cls-8" d="M296.14,246.56h-16v-16a2.61,2.61,0,0,0-5.22,0v16h-16a2.61,2.61,0,1,0,0,5.22h16v16a2.61,2.61,0,1,0,5.22,0v-16h16a2.61,2.61,0,1,0,0-5.22Zm0,0"/></svg>