<svg id="f60f3d20-f4aa-4b83-93a2-686e7d3e612b" data-name="Layer 1" xmlns="http://www.w3.org/2000/svg" viewBox="0 0 50 50"><defs><style>.a2cf7bc2-f67b-4fc7-b6fb-0b23f6e82c11{opacity:0.3;}.fc8688b9-dfee-4f21-b428-80d9cf266f06{fill:#f99316;}.a0af1ae6-ee1b-4a2a-a236-a1f19e35129a,.e565b9d3-ba8b-40b9-aa22-3c509f8d3188{fill:none;stroke:#f99316;stroke-miterlimit:10;}.e565b9d3-ba8b-40b9-aa22-3c509f8d3188{stroke-linecap:round;}</style></defs><title>Cloud Managed Services Mid Icons</title><g class="a2cf7bc2-f67b-4fc7-b6fb-0b23f6e82c11"><path id="bcab203e-50bf-4b5a-94ba-91bf6b0c3b0e" data-name="d1s64V5T7s" class="fc8688b9-dfee-4f21-b428-80d9cf266f06" d="M48.06,25A23.06,23.06,0,1,1,25,1.94,23.07,23.07,0,0,1,48.06,25Z"/></g><ellipse class="a0af1ae6-ee1b-4a2a-a236-a1f19e35129a" cx="25" cy="14.49" rx="15.67" ry="3.28"/><path class="a0af1ae6-ee1b-4a2a-a236-a1f19e35129a" d="M40.67,14.49v7.84c0,1.82-7,3.29-15.67,3.29S9.33,24.15,9.33,22.33V14.49c0,1.82,7,3.28,15.67,3.28S40.67,16.31,40.67,14.49Z"/><path class="e565b9d3-ba8b-40b9-aa22-3c509f8d3188" d="M35,20.78a60.44,60.44,0,0,1-10,.75,62.51,62.51,0,0,1-9.68-.7"/><path class="e565b9d3-ba8b-40b9-aa22-3c509f8d3188" d="M35,33a60.44,60.44,0,0,1-10,.75,61.29,61.29,0,0,1-9.68-.7"/><path class="a0af1ae6-ee1b-4a2a-a236-a1f19e35129a" d="M40.67,26.73c0,1.81-7,3.28-15.67,3.28S9.33,28.54,9.33,26.73c0-.84,1.52-1.62,4-2.2A54.4,54.4,0,0,0,25,25.62a54.4,54.4,0,0,0,11.64-1.09C39.15,25.11,40.67,25.89,40.67,26.73Z"/><path class="a0af1ae6-ee1b-4a2a-a236-a1f19e35129a" d="M40.67,26.73v7.84c0,1.81-7,3.28-15.67,3.28S9.33,36.38,9.33,34.57V26.73c0,1.81,7,3.28,15.67,3.28S40.67,28.54,40.67,26.73Z"/></svg>