<svg id="b685810b-7808-488c-bc38-b5bdba7e68d0" data-name="Layer 1" xmlns="http://www.w3.org/2000/svg" viewBox="0 0 150 150"><defs><style>.bd85efe1-c4fa-4bb4-bcde-3e4505584d67{fill:#e6e7e8;}.e0286c45-37e0-400a-bbff-7008f0b0abad{fill:#ffb213;}.aaca12da-fdab-4f52-817f-0b1c8ea218ba{fill:#bcbec0;}.ad66fe65-508b-4663-9122-08236daf503d{fill:#f1f2f2;}.b97b04ad-46e9-4669-a607-52979dc89912,.eb664b5f-fb87-4baf-842f-491eeb41b523{fill:none;stroke:#939598;stroke-miterlimit:10;stroke-width:0.99px;}.b97b04ad-46e9-4669-a607-52979dc89912{stroke-dasharray:5.5 5.5;}.a901dda0-0768-4a55-b1be-e4abdc3536b5{fill:#3dba85;}.add48686-acca-4958-917f-4d8281365fc8{fill:#5c6e87;}</style></defs><title>main Page up Icons</title><path class="bd85efe1-c4fa-4bb4-bcde-3e4505584d67" d="M146.42,107.61a27.47,27.47,0,0,1-27.31,27.45h-90a27.35,27.35,0,0,1-9.14-53.12c0-.45-.05-.89-.05-1.34A18.38,18.38,0,0,1,48.2,65.13a40.18,40.18,0,0,1,75.21,15.38A27.46,27.46,0,0,1,146.42,107.61Z"/><path class="e0286c45-37e0-400a-bbff-7008f0b0abad" d="M27.48,31.78a8.92,8.92,0,0,0,8.87,8.91H65.59a8.87,8.87,0,0,0,3-17.24c0-.15,0-.3,0-.44a6,6,0,0,0-9.19-5A13.05,13.05,0,0,0,35,23,8.93,8.93,0,0,0,27.48,31.78Z"/><circle class="aaca12da-fdab-4f52-817f-0b1c8ea218ba" cx="120.9" cy="107.58" r="27.45"/><circle class="ad66fe65-508b-4663-9122-08236daf503d" cx="118.96" cy="107.58" r="27.45"/><path class="eb664b5f-fb87-4baf-842f-491eeb41b523" d="M20.82,74.35a24.26,24.26,0,0,1-1.2-2.15"/><path class="b97b04ad-46e9-4669-a607-52979dc89912" d="M17.52,67.12C15.2,60,14.14,48.81,24.71,39.68"/><path class="eb664b5f-fb87-4baf-842f-491eeb41b523" d="M26.86,38c.64-.47,1.32-.94,2-1.4"/><circle class="a901dda0-0768-4a55-b1be-e4abdc3536b5" cx="38.27" cy="80.58" r="18.38"/><path class="add48686-acca-4958-917f-4d8281365fc8" d="M135.45,90.36v1.91H96.18c.45-.66.92-1.29,1.43-1.91Z"/><path class="add48686-acca-4958-917f-4d8281365fc8" d="M123.75,97.45v1.91h-31c.21-.65.44-1.28.69-1.91Z"/><path class="add48686-acca-4958-917f-4d8281365fc8" d="M133.41,104.52v1.92H91.55c0-.66.07-1.29.14-1.92Z"/><path class="add48686-acca-4958-917f-4d8281365fc8" d="M122.26,111.6v1.91H92.17c-.15-.63-.27-1.27-.36-1.91Z"/><path class="add48686-acca-4958-917f-4d8281365fc8" d="M129.21,119.2v1.91H95.09c-.36-.62-.69-1.26-1-1.91Z"/><path class="add48686-acca-4958-917f-4d8281365fc8" d="M124.19,126.37v1.91H101a21,21,0,0,1-2-1.91Z"/></svg>