<svg id="f88500a4-f3ac-40b4-9175-991f3ff71984" data-name="Layer 1" xmlns="http://www.w3.org/2000/svg" viewBox="0 0 50 50"><defs><style>.f6938b57-5069-4ccb-b5be-0b74afceb774{opacity:0.3;}.bc41686d-4e20-4764-9a0d-bfb157fae0dd{fill:#f99316;}.a27cb37a-e877-4fbb-8311-191a3cdcb32b,.ae5a1f66-3cad-4838-bf32-945f0f2d6882,.b8ce1522-fa6e-48fd-bc2b-0d88a0f534b4{fill:none;stroke:#f99316;}.a27cb37a-e877-4fbb-8311-191a3cdcb32b,.ae5a1f66-3cad-4838-bf32-945f0f2d6882{stroke-miterlimit:10;}.ae5a1f66-3cad-4838-bf32-945f0f2d6882{stroke-linecap:round;}.b8ce1522-fa6e-48fd-bc2b-0d88a0f534b4{stroke-linejoin:round;}</style></defs><title>Talk-to-Experts-Icon</title><g class="f6938b57-5069-4ccb-b5be-0b74afceb774"><path id="bcd7c6ad-44ce-4174-88ed-e5f8e8a2f5b4" data-name="bcab203e-50bf-4b5a-94ba-91bf6b0c3b0e" class="bc41686d-4e20-4764-9a0d-bfb157fae0dd" d="M48.06,25A23.06,23.06,0,1,1,25,1.94,23.05,23.05,0,0,1,48.06,25Z"/></g><path class="a27cb37a-e877-4fbb-8311-191a3cdcb32b" d="M20.49,22.08c-6.38-.41-11-1.65-11-3.13,0-1.16,2.91-2.19,7.29-2.77l.46,2.3,1.69-.34a7.21,7.21,0,0,0,1,1.48l-1,1.44Z"/><path class="a27cb37a-e877-4fbb-8311-191a3cdcb32b" d="M24.85,22.23c-.71,0-1.41,0-2.09,0l.31-.47a6.88,6.88,0,0,0,1.75.35Z"/><path class="a27cb37a-e877-4fbb-8311-191a3cdcb32b" d="M40.83,19c0,1.57-5.18,2.86-12.14,3.2l-.16-.82a7.08,7.08,0,0,0,1.48-1l1.44,1,2.1-3.15-1.44-1A6.65,6.65,0,0,0,32.39,16C37.41,16.59,40.83,17.69,40.83,19Z"/><path class="a27cb37a-e877-4fbb-8311-191a3cdcb32b" d="M40.83,19v7.84c0,1.82-7,3.29-15.67,3.29S9.49,28.61,9.49,26.79V19c0,1.48,4.62,2.72,11,3.13h0l1.61,1.08.65-1c.68,0,1.38,0,2.09,0l.31,1.53L28.87,23l-.18-.87C35.65,21.81,40.83,20.52,40.83,19Z"/><path class="ae5a1f66-3cad-4838-bf32-945f0f2d6882" d="M35.16,25.24a59.73,59.73,0,0,1-10,.75,61.56,61.56,0,0,1-9.68-.7"/><path class="ae5a1f66-3cad-4838-bf32-945f0f2d6882" d="M35,37.46a59.81,59.81,0,0,1-10,.75,60.3,60.3,0,0,1-9.68-.7"/><path class="a27cb37a-e877-4fbb-8311-191a3cdcb32b" d="M40.67,31.19c0,1.81-7,3.28-15.67,3.28S9.33,33,9.33,31.19c0-.84,1.52-1.62,4-2.2A53.8,53.8,0,0,0,25,30.08,54.15,54.15,0,0,0,36.64,29C39.15,29.57,40.67,30.35,40.67,31.19Z"/><path class="a27cb37a-e877-4fbb-8311-191a3cdcb32b" d="M40.67,31.19V39c0,1.81-7,3.28-15.67,3.28S9.33,40.84,9.33,39V31.19c0,1.81,7,3.28,15.67,3.28S40.67,33,40.67,31.19Z"/><path class="b8ce1522-fa6e-48fd-bc2b-0d88a0f534b4" d="M32.39,16c0-.2,0-.39.07-.59l1.69-.34-.74-3.71-1.69.33a7.06,7.06,0,0,0-1-1.47l1-1.44-3.14-2.1-1,1.44a6.88,6.88,0,0,0-1.75-.35l-.34-1.69-3.71.74.34,1.69a7.08,7.08,0,0,0-1.48,1l-1.44-1-2.1,3.15,1.44,1a6.81,6.81,0,0,0-.35,1.74l-1.69.34.28,1.41.46,2.3,1.69-.34a7.21,7.21,0,0,0,1,1.48l-1,1.44,1.52,1h0l1.61,1.08.65-1,.31-.47a6.88,6.88,0,0,0,1.75.35l0,.16.31,1.53L28.87,23l-.18-.87-.16-.82a7.08,7.08,0,0,0,1.48-1l1.44,1,2.1-3.15-1.44-1A6.65,6.65,0,0,0,32.39,16Zm-3.8-.29a3.37,3.37,0,0,1-6.54,0l0-.14a3.37,3.37,0,0,1,6.61-1.32A3.3,3.3,0,0,1,28.59,15.75Z"/></svg>