<svg id="ad5b43f9-398f-4973-ad49-d2f5aecba811" data-name="Layer 1" xmlns="http://www.w3.org/2000/svg" viewBox="0 0 150 150"><defs><style>.e60e1209-9d4a-4a61-92bd-5f9335882a4a{fill:#e6e7e8;}.b237119c-94b1-41a7-a30e-33cf10b51bf4{fill:#5c6e87;}.a2a78eba-3395-4165-9e55-985b8911ebba{fill:#bcbec0;}.e8a52c73-b015-4417-af4e-d00bcfc19e3c{fill:#3dba85;}.b532d5af-116a-4089-a32a-548c108b6fee{fill:#fff;}.b879ad53-9c40-4639-b2d4-d2c862f151dc{fill:#bbbdbf;}.bf63fdf7-138a-4a2d-bdf8-c44c68cb26c0{fill:#4285f4;}</style></defs><title>main Page up Icons</title><path class="e60e1209-9d4a-4a61-92bd-5f9335882a4a" d="M139,36.32V140.05a8,8,0,0,1-7.4,8H19.06a8,8,0,0,0,8-8V12.8H115.5Z"/><polygon class="b237119c-94b1-41a7-a30e-33cf10b51bf4" points="115.49 36.32 115.49 12.8 139.01 36.32 115.49 36.32"/><path class="a2a78eba-3395-4165-9e55-985b8911ebba" d="M27.08,128.32V140a8,8,0,0,1-16,0V128.32Z"/><circle class="e8a52c73-b015-4417-af4e-d00bcfc19e3c" cx="30.45" cy="23.07" r="21.29"/><polygon class="b532d5af-116a-4089-a32a-548c108b6fee" points="47.1 16.28 26.78 36.6 13.8 23.62 16.86 20.56 26.94 30.64 44.2 13.38 47.1 16.28"/><path class="b879ad53-9c40-4639-b2d4-d2c862f151dc" d="M73.36,54.47l-1.11,2.69,2,3.92.26.52-2.76,2.76L67.2,62.22l-2.69,1.11-1.37,4.18-.18.56h-3.9l-1.7-4.73-2.69-1.11-3.92,2-.52.26-2.76-2.76,2.14-4.54L48.5,54.49l-4.18-1.37-.56-.18V49l4.73-1.7,1.11-2.69-2-3.92-.26-.52,2.76-2.76,4.54,2.14,2.69-1.11,1.37-4.18.18-.56h3.9l1.7,4.73,2.68,1.11,3.93-2,.52-.26,2.76,2.76-2.14,4.54,1.11,2.69,4.19,1.37.55.18v3.9Z"/><rect class="b532d5af-116a-4089-a32a-548c108b6fee" x="82.66" y="42.97" width="29.71" height="2.78"/><rect class="b532d5af-116a-4089-a32a-548c108b6fee" x="82.66" y="49.52" width="37.6" height="2.78"/><rect class="b532d5af-116a-4089-a32a-548c108b6fee" x="82.66" y="56.06" width="33.87" height="2.78"/><rect class="b532d5af-116a-4089-a32a-548c108b6fee" x="39.73" y="78.19" width="35.86" height="2.78"/><rect class="b532d5af-116a-4089-a32a-548c108b6fee" x="83.52" y="78.19" width="35.86" height="2.78"/><rect class="b532d5af-116a-4089-a32a-548c108b6fee" x="98.6" y="104.66" width="15.14" height="2.78"/><rect class="b879ad53-9c40-4639-b2d4-d2c862f151dc" x="103.15" y="124.3" width="25.65" height="2.78" transform="translate(231.95 251.39) rotate(-180)"/><rect class="bf63fdf7-138a-4a2d-bdf8-c44c68cb26c0" x="103.15" y="128.71" width="11.4" height="2.78" transform="translate(217.69 260.2) rotate(-180)"/><rect class="b532d5af-116a-4089-a32a-548c108b6fee" x="39.73" y="84.74" width="89.5" height="2.78"/><rect class="b532d5af-116a-4089-a32a-548c108b6fee" x="39.73" y="91.28" width="80.63" height="2.78"/><rect class="b532d5af-116a-4089-a32a-548c108b6fee" x="39.73" y="98.11" width="35.86" height="2.78"/><rect class="b532d5af-116a-4089-a32a-548c108b6fee" x="83.52" y="98.11" width="35.86" height="2.78"/><rect class="b532d5af-116a-4089-a32a-548c108b6fee" x="39.73" y="104.66" width="54.83" height="2.78"/><rect class="b532d5af-116a-4089-a32a-548c108b6fee" x="39.73" y="111.21" width="80.63" height="2.78"/></svg>