<svg id="a5839dc9-df2a-433b-9c80-0b8e6ccd86b1" data-name="Layer 1" xmlns="http://www.w3.org/2000/svg" viewBox="0 0 500 500"><defs><style>.abe7bebe-e1aa-4c60-b131-4752d350f421{fill:#f1f2f2;}.e31fc5ba-49bd-4357-a56d-a59092891432{fill:#5c6e87;}.f4c31a32-4b5b-425b-ae27-1b43577df356{fill:#d1d3d4;}.acbd1c3a-1265-424e-826d-7bf6c944c2ab{fill:#a7a9ac;}.bc2a10ae-b2ab-4fd0-925c-341001bccdb5{fill:#ffb213;}.e37ae759-94ec-441b-9d41-fb5ca888d825{fill:#fff;}.ea0b3c9b-06c2-429d-94c3-b50179d44785{fill:#3e83ff;}.a82cf974-1878-4e97-9f34-de383f6a0d25{fill:#3dba85;}.bdfd67fd-7099-4a70-bc57-20b8fcd4182e{fill:#e6e7e8;}.ef0113e8-bd39-40c0-97b4-a092bef5de73{fill:#bcbec0;}.e0cb3aa3-45b1-4ba7-bb3d-6c559be728c8{fill:#4086db;}.e7821df6-19b8-4479-a5a0-03c7013f44c3{fill:#3270ad;}.fd81b1cb-0506-4bd1-850e-c564139deebb{fill:#cacbcc;}.ef296669-bb78-4a4d-b1ec-64a3cce9ba21{fill:#f13624;}.a7cde3a7-833a-4b88-a1d0-dd8fba86fe56{fill:#d4ecff;}.ecfa5437-1593-4e40-bee7-61d37004b0da{fill:#3a4349;}.ac3160b2-17aa-4519-931d-67f224b85db2{fill:#f9c8a7;}.efb96f80-0874-4b3f-86e5-1f8e2c36e4f4{fill:#ffc2b0;}.fc507b6e-6e2a-4c8d-b0e5-a0f0707bae77{fill:#dbb397;}.ace7f7a4-229e-4b09-b68e-a589f448381d{fill:#939598;}.aa24e727-93ce-473e-ba0d-ac43b13f83cc{fill:#d8892b;}.fce4eb39-70e9-4d9a-86ac-cea60f5808e4{fill:none;stroke:#3dba85;stroke-miterlimit:10;stroke-width:2px;}</style></defs><title>Talk-To-experts-How-we-Do-illustration</title><path class="abe7bebe-e1aa-4c60-b131-4752d350f421" d="M16.51,384.41,96.62,338c5.63-3.25,15.46-2.86,22,.88l163.88,94.32c6.51,3.74,7.22,9.42,1.59,12.68L204,492.29c-5.62,3.26-15.46,2.86-22-.88L18.11,397.09C11.6,393.35,10.89,387.67,16.51,384.41Z"/><polygon class="e31fc5ba-49bd-4357-a56d-a59092891432" points="155.14 200.37 117.52 180.28 113.91 182.32 151.38 202.49 155.14 200.37"/><polygon class="e31fc5ba-49bd-4357-a56d-a59092891432" points="410.48 396.04 341.34 358.74 337.73 360.78 406.73 398.17 410.48 396.04"/><polygon class="e31fc5ba-49bd-4357-a56d-a59092891432" points="390.5 326.37 393.9 329.01 266.53 401.79 262.86 399.66 390.5 326.37"/><polygon class="abe7bebe-e1aa-4c60-b131-4752d350f421" points="435.52 434.12 401.27 414.35 435.52 394.57 469.78 414.35 435.52 434.12"/><path class="f4c31a32-4b5b-425b-ae27-1b43577df356" d="M435.52,442.57,383.45,412.5l52.07-30.06,52.07,30.07ZM388,412.5,435.52,440l47.55-27.44-47.55-27.45Z"/><polygon class="acbd1c3a-1265-424e-826d-7bf6c944c2ab" points="469.78 402.62 435.52 422.39 435.52 382.84 469.78 363.06 469.78 402.62"/><polygon class="abe7bebe-e1aa-4c60-b131-4752d350f421" points="435.52 382.84 401.27 363.06 435.52 343.28 469.78 363.06 435.52 382.84"/><polygon class="bc2a10ae-b2ab-4fd0-925c-341001bccdb5" points="435.25 372.56 418.81 363.06 435.25 353.57 451.69 363.06 435.25 372.56"/><polygon class="f4c31a32-4b5b-425b-ae27-1b43577df356" points="435.52 422.39 401.27 402.62 401.27 363.06 435.52 382.84 435.52 422.39"/><polygon class="e37ae759-94ec-441b-9d41-fb5ca888d825" points="425.93 405.78 410.86 397.08 410.86 379.68 425.93 388.38 425.93 405.78"/><path class="abe7bebe-e1aa-4c60-b131-4752d350f421" d="M255,331.44,146.5,268.78c-6.66-3.85-5.83-10.57,1.86-15l104.81-60.51c7.69-4.44,19.33-4.92,26-1.07L387.7,254.85c6.66,3.85,5.83,10.57-1.86,15L281,330.37C273.34,334.81,261.7,335.29,255,331.44Z"/><path class="f4c31a32-4b5b-425b-ae27-1b43577df356" d="M260.79,361.69,82.1,258.16,282.33,142.88,461,246.41ZM92.3,258.06,261,355.8,450.82,246.52l-168.7-97.75Z"/><path class="abe7bebe-e1aa-4c60-b131-4752d350f421" d="M396.52,221.15c0-8.73-5.31-18.87-11.86-22.65l-109.06-63c-2.94-1.69-5.61-1.81-7.68-.66h0L137.68,210.55l125.94,94.89L391.92,231a5.85,5.85,0,0,0,1.13-.66h0C395.19,228.69,396.52,225.51,396.52,221.15Z"/><path class="acbd1c3a-1265-424e-826d-7bf6c944c2ab" d="M263.62,305.44,391.92,231a5.85,5.85,0,0,0,1.13-.66h0c2.14-1.63,3.47-4.81,3.47-9.17a29,29,0,0,0-3.2-12.61L247.07,293Z"/><path class="f4c31a32-4b5b-425b-ae27-1b43577df356" d="M255.42,305.1l-109.07-63c-6.55-3.78-11.86-13.92-11.86-22.64h0c0-8.73,5.31-12.75,11.86-9l109.07,63c6.54,3.78,11.85,13.92,11.85,22.64h0C267.27,304.87,262,308.88,255.42,305.1Z"/><path class="e37ae759-94ec-441b-9d41-fb5ca888d825" d="M256.73,272.9l-109.07-63c-3-1.74-5.75-1.81-7.84-.56a8.26,8.26,0,0,1,6.53,1.15l109.07,63c6.54,3.79,11.85,13.93,11.85,22.65h0c0,4.72-1.56,8-4,9.52,3.21-1,5.33-4.6,5.33-10.11h0C268.58,286.82,263.27,276.68,256.73,272.9Z"/><path class="ea0b3c9b-06c2-429d-94c3-b50179d44785" d="M239.08,283.87,226,276.3a5.64,5.64,0,0,1-2.37-4.51h0c0-1.74,1.06-2.54,2.37-1.79l13.11,7.57a5.66,5.66,0,0,1,2.36,4.51h0C241.44,283.82,240.38,284.62,239.08,283.87Z"/><path class="a82cf974-1878-4e97-9f34-de383f6a0d25" d="M274.86,156.34c3.43-2,3.4-5.25-.07-7.21a13.81,13.81,0,0,0-12.49.13c-3.43,2-3.39,5.26.08,7.21A13.76,13.76,0,0,0,274.86,156.34Z"/><path class="bc2a10ae-b2ab-4fd0-925c-341001bccdb5" d="M293.89,167.06c3.43-2,3.39-5.25-.07-7.21a13.84,13.84,0,0,0-12.49.13c-3.43,2-3.4,5.26.07,7.21A13.78,13.78,0,0,0,293.89,167.06Z"/><path class="f4c31a32-4b5b-425b-ae27-1b43577df356" d="M312.92,177.78c3.43-2,3.39-5.25-.08-7.2a13.76,13.76,0,0,0-12.48.13c-3.43,2-3.4,5.25.07,7.21A13.81,13.81,0,0,0,312.92,177.78Z"/><path class="e31fc5ba-49bd-4357-a56d-a59092891432" d="M394.65,325.88,357.58,306l-3.53,2,39.37,21.25,1.26-.71A1.53,1.53,0,0,0,394.65,325.88Z"/><rect class="a82cf974-1878-4e97-9f34-de383f6a0d25" x="254.47" y="171.43" width="21.38" height="8.83"/><rect class="f4c31a32-4b5b-425b-ae27-1b43577df356" x="171.35" y="128.98" width="77.41" height="8.83"/><rect class="bdfd67fd-7099-4a70-bc57-20b8fcd4182e" x="203.77" y="112.58" width="77.41" height="8.83"/><rect class="a82cf974-1878-4e97-9f34-de383f6a0d25" x="171.35" y="150.64" width="50.64" height="8.83"/><rect class="ef0113e8-bd39-40c0-97b4-a092bef5de73" x="171.35" y="171.43" width="77.41" height="8.83"/><rect class="a82cf974-1878-4e97-9f34-de383f6a0d25" x="171.35" y="192.22" width="113.85" height="8.83"/><rect class="a82cf974-1878-4e97-9f34-de383f6a0d25" x="379.42" y="91.79" width="21.38" height="8.83"/><rect class="bdfd67fd-7099-4a70-bc57-20b8fcd4182e" x="296.3" y="49.33" width="77.41" height="8.83"/><rect class="a82cf974-1878-4e97-9f34-de383f6a0d25" x="289.99" y="71" width="56.95" height="8.83"/><rect class="a82cf974-1878-4e97-9f34-de383f6a0d25" x="358.13" y="71" width="50.64" height="8.83"/><rect class="bdfd67fd-7099-4a70-bc57-20b8fcd4182e" x="296.3" y="91.79" width="77.41" height="8.83"/><rect class="a82cf974-1878-4e97-9f34-de383f6a0d25" x="296.3" y="112.58" width="113.85" height="8.83"/><rect class="a82cf974-1878-4e97-9f34-de383f6a0d25" x="248.18" y="49.28" width="41.25" height="8.83"/><rect class="abe7bebe-e1aa-4c60-b131-4752d350f421" x="165.06" y="6.82" width="77.41" height="8.83"/><rect class="a82cf974-1878-4e97-9f34-de383f6a0d25" x="165.06" y="28.49" width="50.64" height="8.83"/><rect class="abe7bebe-e1aa-4c60-b131-4752d350f421" x="226.9" y="28.49" width="50.64" height="8.83"/><rect class="abe7bebe-e1aa-4c60-b131-4752d350f421" x="165.06" y="49.28" width="77.41" height="8.83"/><rect class="abe7bebe-e1aa-4c60-b131-4752d350f421" x="165.06" y="70.07" width="113.85" height="8.83"/><path class="abe7bebe-e1aa-4c60-b131-4752d350f421" d="M102.3,145.76c-13.76-7.94-36.08-7.94-49.84,0s-13.76,20.83,0,28.78,36.08,8,49.84,0S116.07,153.71,102.3,145.76Z"/><path class="f4c31a32-4b5b-425b-ae27-1b43577df356" d="M115,138.44c-20.77-12-54.44-12-75.21,0s-20.77,31.43,0,43.42,54.44,12,75.21,0S135.76,150.43,115,138.44Zm-4.8,40.66c-18.12,10.45-47.49,10.45-65.62,0s-18.12-27.42,0-37.89,47.5-10.45,65.62,0S128.32,168.64,110.19,179.1Z"/><path class="e0cb3aa3-45b1-4ba7-bb3d-6c559be728c8" d="M47.26,142.68l12.58.2a13.32,13.32,0,0,1,4-3.34c6.91-4,17.78-4.3,25.31-.93l7.47-7,11.51.18c-.57-.37-1.16-.73-1.77-1.09-16-9.23-41.91-9.23-57.89,0a30.36,30.36,0,0,0-7.19,5.6Z"/><polygon class="e7821df6-19b8-4479-a5a0-03c7013f44c3" points="108.1 113.51 108.1 131.76 96.59 131.58 96.59 113.33 108.1 113.51"/><polygon class="e7821df6-19b8-4479-a5a0-03c7013f44c3" points="89.12 120.35 89.12 138.61 96.59 131.58 96.59 113.33 89.12 120.35"/><path class="e0cb3aa3-45b1-4ba7-bb3d-6c559be728c8" d="M59.84,124.62v18.26L76.37,129.4l12.75,9.21V120.35l-11.74-5.69s-16.16,5-17,5.16S59.84,124.62,59.84,124.62Z"/><polygon class="e7821df6-19b8-4479-a5a0-03c7013f44c3" points="47.26 124.43 47.26 142.68 59.84 142.88 59.84 124.62 47.26 124.43"/><polygon class="e0cb3aa3-45b1-4ba7-bb3d-6c559be728c8" points="41.24 118.02 41.24 136.27 47.26 142.68 47.26 124.43 41.24 118.02"/><path class="ea0b3c9b-06c2-429d-94c3-b50179d44785" d="M47.26,124.43l12.58.19a13.47,13.47,0,0,1,4-3.34c6.91-4,17.78-4.3,25.31-.93l7.47-7,11.51.18c-.57-.38-1.16-.74-1.77-1.1-16-9.23-41.91-9.23-57.89,0A30.13,30.13,0,0,0,41.25,118Z"/><path class="bdfd67fd-7099-4a70-bc57-20b8fcd4182e" d="M92.91,122.6v16.78l10.88-2.61s-.64-9.82-.87-10.08S92.91,122.6,92.91,122.6Z"/><path class="bdfd67fd-7099-4a70-bc57-20b8fcd4182e" d="M84.67,139.38v18.26l1.18,1.25,7.67-4.42s-1.19-13.94-1.33-14.22S84.67,139.38,84.67,139.38Z"/><path class="acbd1c3a-1265-424e-826d-7bf6c944c2ab" d="M99.49,134.67l-6.58,6.19c5.48,4.33,4.83,10.45-2,14.36a23.44,23.44,0,0,1-6.29,2.42l6.8,7.24-6,5.67a54.58,54.58,0,0,0,20.88-6.46c13.74-7.93,15.66-20.1,5.77-29.22Z"/><polygon class="acbd1c3a-1265-424e-826d-7bf6c944c2ab" points="85.45 152.29 85.45 170.55 100.37 164.79 118.31 147.67 118.24 128.28 99.26 143.33 85.45 152.29"/><path class="abe7bebe-e1aa-4c60-b131-4752d350f421" d="M99.49,116.41l-6.58,6.19c5.48,4.33,4.83,10.45-2,14.36a23.44,23.44,0,0,1-6.29,2.42l6.8,7.25-6,5.66a54.58,54.58,0,0,0,20.88-6.46c13.74-7.93,15.66-20.1,5.77-29.22Z"/><path class="bdfd67fd-7099-4a70-bc57-20b8fcd4182e" d="M85.4,164.79l-6-6.39c-5.57.34-11.34-.72-15.6-3.18-4.41-2.54-6.22-6-5.45-9.32l-14.28-.23-5.48-5.84c-4.8,8.24-1.53,17.7,9.84,24.26,8.35,4.82,19.42,7.12,30.36,6.9Z"/><polygon class="bdfd67fd-7099-4a70-bc57-20b8fcd4182e" points="78.8 152.74 78.8 170.99 36.46 147.53 36.46 129.26 42.64 131.76 78.8 152.74"/><polygon class="fd81b1cb-0506-4bd1-850e-c564139deebb" points="85.4 146.53 85.4 164.79 78.8 170.99 78.8 152.74 85.4 146.53"/><path class="abe7bebe-e1aa-4c60-b131-4752d350f421" d="M85.4,146.53l-6-6.38c-5.57.33-11.34-.73-15.6-3.19-4.41-2.54-6.22-6-5.45-9.32l-14.28-.22-5.48-5.85c-4.8,8.24-1.53,17.7,9.84,24.26,8.35,4.83,19.42,7.12,30.36,6.91Z"/><circle class="bc2a10ae-b2ab-4fd0-925c-341001bccdb5" cx="69.2" cy="162.25" r="4.33"/><path class="acbd1c3a-1265-424e-826d-7bf6c944c2ab" d="M202.88,479.31,283,432.92c2.63-1.52,3.85-3.58,3.77-5.72h0l0-11.62-4.45,5.21c-.29-.19-.58-.38-.9-.56L117.51,325.93c-6.5-3.75-16.34-4.14-22-.88l-79,45.74c-1.6-1.75-4.95-5.45-4.95-5.45l0,11.37h0c-.12,2.56,1.71,5.29,5.38,7.41l163.88,94.31C187.42,482.18,197.25,482.57,202.88,479.31Z"/><path class="f4c31a32-4b5b-425b-ae27-1b43577df356" d="M117.51,325.93c-6.5-3.75-16.34-4.14-22-.88l-79,45.74c-1.6-1.75-4.95-5.45-4.95-5.45l0,11.37h0c-.12,2.56,1.71,5.29,5.38,7.41l163.88,94.31a25.28,25.28,0,0,0,11.83,3.07l-.16-112.37Z"/><path class="bdfd67fd-7099-4a70-bc57-20b8fcd4182e" d="M15.4,359.75l80.11-46.39c5.63-3.26,15.46-2.86,22,.88l163.88,94.31c6.5,3.75,7.22,9.43,1.59,12.68l-80.11,46.39c-5.62,3.26-15.46,2.87-22-.88L17,372.43C10.49,368.69,9.78,363,15.4,359.75Z"/><path class="e37ae759-94ec-441b-9d41-fb5ca888d825" d="M202.9,468.86,283,422.47c2.9-1.68,4.11-4,3.71-6.37-.14,1.93-1.38,3.75-3.77,5.13l-80.11,46.39c-5.62,3.26-15.46,2.87-22-.88L17,372.43c-3.15-1.81-4.93-4.08-5.31-6.3-.19,2.6,1.63,5.39,5.37,7.54L180.94,468C187.44,471.73,197.28,472.12,202.9,468.86Z"/><path class="e37ae759-94ec-441b-9d41-fb5ca888d825" d="M21.57,361.58l77-44.58c4.18-2.42,11.49-2.13,16.33.66l161.55,93c4.83,2.78,5.36,7,1.18,9.43l-77,44.57c-4.18,2.42-11.49,2.13-16.33-.65L22.76,371C17.92,368.22,17.39,364,21.57,361.58Z"/><polygon class="ef0113e8-bd39-40c0-97b4-a092bef5de73" points="172.38 387.9 84.83 337.36 90.42 334.13 177.97 384.68 172.38 387.9"/><polygon class="ef0113e8-bd39-40c0-97b4-a092bef5de73" points="111.46 373.17 67.14 347.57 72.72 344.35 117.05 369.94 111.46 373.17"/><polygon class="ea0b3c9b-06c2-429d-94c3-b50179d44785" points="132.98 385.59 118.6 377.29 124.19 374.06 138.56 382.36 132.98 385.59"/><polygon class="bdfd67fd-7099-4a70-bc57-20b8fcd4182e" points="154.68 398.12 140.31 389.82 145.89 386.59 160.27 394.89 154.68 398.12"/><polygon class="bdfd67fd-7099-4a70-bc57-20b8fcd4182e" points="111.96 363.24 75.98 342.47 81.57 339.24 117.55 360.01 111.96 363.24"/><polygon class="ef0113e8-bd39-40c0-97b4-a092bef5de73" points="155.88 388.59 119.9 367.82 125.49 364.6 161.47 385.37 155.88 388.59"/><path class="ef296669-bb78-4a4d-b1ec-64a3cce9ba21" d="M106.13,332.07a7.2,7.2,0,0,1-6.52,0c-1.8-1-1.8-2.72,0-3.76a7.2,7.2,0,0,1,6.52,0C107.93,329.35,107.93,331,106.13,332.07Z"/><path class="ea0b3c9b-06c2-429d-94c3-b50179d44785" d="M115.87,337.7a7.2,7.2,0,0,1-6.52,0c-1.8-1-1.8-2.73,0-3.77a7.2,7.2,0,0,1,6.52,0C117.67,335,117.67,336.66,115.87,337.7Z"/><path class="bdfd67fd-7099-4a70-bc57-20b8fcd4182e" d="M125.61,343.32a7.2,7.2,0,0,1-6.52,0c-1.8-1-1.8-2.72,0-3.76a7.2,7.2,0,0,1,6.52,0C127.41,340.6,127.41,342.28,125.61,343.32Z"/><path class="a82cf974-1878-4e97-9f34-de383f6a0d25" d="M135.35,349a7.18,7.18,0,0,1-6.51,0c-1.81-1-1.81-2.73,0-3.77a7.2,7.2,0,0,1,6.52,0C137.15,346.22,137.15,347.91,135.35,349Z"/><path class="e37ae759-94ec-441b-9d41-fb5ca888d825" d="M145.1,354.57a7.2,7.2,0,0,1-6.52,0c-1.8-1-1.8-2.72,0-3.76a7.2,7.2,0,0,1,6.52,0C146.9,351.85,146.9,353.53,145.1,354.57Z"/><polygon class="a82cf974-1878-4e97-9f34-de383f6a0d25" points="173.67 438.6 157.42 429.21 163.74 425.57 179.99 434.95 173.67 438.6"/><polygon class="bdfd67fd-7099-4a70-bc57-20b8fcd4182e" points="196.3 451.66 180.05 442.28 186.37 438.63 202.62 448.02 196.3 451.66"/><polygon class="ef0113e8-bd39-40c0-97b4-a092bef5de73" points="101.08 396.29 84.83 386.91 91.15 383.26 107.4 392.65 101.08 396.29"/><polygon class="ef0113e8-bd39-40c0-97b4-a092bef5de73" points="170.05 448.05 147.42 434.99 153.74 431.34 176.37 444.41 170.05 448.05"/><polygon class="a7cde3a7-833a-4b88-a1d0-dd8fba86fe56" points="186.3 457.44 176.37 451.7 182.69 448.06 192.62 453.79 186.3 457.44"/><path class="ecfa5437-1593-4e40-bee7-61d37004b0da" d="M427.56,190.1s-.48,9.9-1.23,16.56-16.79-5.11-16.79-5.11V194Z"/><path class="e31fc5ba-49bd-4357-a56d-a59092891432" d="M419,313.33c-.24.6-4.39,5.66-8.54,6.92a9.67,9.67,0,0,1-3.82.53,1.26,1.26,0,0,1-1-1.68,15.74,15.74,0,0,1,8-8.78C420.65,306.83,419,313.33,419,313.33Z"/><path class="e31fc5ba-49bd-4357-a56d-a59092891432" d="M420.41,315.27a34.12,34.12,0,0,0-2.05,6.74c-.29,1.88.73,4.31,1.58,5.92a1.73,1.73,0,0,0,2.69.47A10,10,0,0,0,426,322c.48-5.17,0-6.08,0-6.08Z"/><path class="bc2a10ae-b2ab-4fd0-925c-341001bccdb5" d="M430.41,252.7a97.07,97.07,0,0,1,0,13.76c-.54,7.22-2.48,41-2.84,49.13,0,0,.18,2.46-4.58,1.92s-4.38-3.28-4.38-3.28-6.69-.09-6.9-4-6.85-47.08-6.85-62.59Z"/><path class="ac3160b2-17aa-4519-931d-67f224b85db2" d="M402.38,218.94,399.11,224l-11.27,13.61a2.53,2.53,0,0,0,1.79,1.59c1.1.26,10.57-8.78,14.66-12.75a3.14,3.14,0,0,0,.44-4Z"/><path class="bdfd67fd-7099-4a70-bc57-20b8fcd4182e" d="M408.78,198.1s-5.21-.13-7,7.39-3.23,16.94-1.65,17.73c4.73,2.35,7.72-.4,7.72-.4Z"/><path class="bdfd67fd-7099-4a70-bc57-20b8fcd4182e" d="M407.22,198.42a4.24,4.24,0,0,1,2.81-.15c4.43,1.27,21.11,6.16,23.86,8.51,3.18,2.72-4.76,18-4.65,23s.68,10.9,1.12,16.33,1,8.42-3.4,10.73-12,2.42-17.73-1.91-4.65-7.29-4.41-10.44,2.17-16.74,2-20.6a14.51,14.51,0,0,1-3.48-4c-1.49-2.53,1.13-7.18,2.22-10.21s-.61-6.48-.28-8.94A2.82,2.82,0,0,1,407.22,198.42Z"/><path class="e37ae759-94ec-441b-9d41-fb5ca888d825" d="M412.55,203.62c-.35,2.75,2.17,5.33,5.63,5.78s6.55-1.43,6.9-4.18-2.17-5.33-5.63-5.77S412.9,200.87,412.55,203.62Z"/><path class="ac3160b2-17aa-4519-931d-67f224b85db2" d="M414.34,203.85c-.25,2,1.55,3.81,4,4.13s4.68-1,4.93-3-1.55-3.82-4-4.13S414.59,201.89,414.34,203.85Z"/><path class="ac3160b2-17aa-4519-931d-67f224b85db2" d="M416.8,197.4s3-2.47,3.6-1.22,1.08,6.64,1.08,6.64l-6,1.6.91-5.45S415.21,198,416.8,197.4Z"/><path class="efb96f80-0874-4b3f-86e5-1f8e2c36e4f4" d="M407.45,191.51a8.93,8.93,0,1,0,8.39-9.44A8.93,8.93,0,0,0,407.45,191.51Z"/><path class="fc507b6e-6e2a-4c8d-b0e5-a0f0707bae77" d="M420.81,197.74c.06.28.11.58.16.89-.6,3.11-5.25,4.47-5.25,4.47l.69-4.13s-.57-.48-.41-1C417.84,197.43,420.15,196.92,420.81,197.74Z"/><path class="ac3160b2-17aa-4519-931d-67f224b85db2" d="M407.45,191.51a8.93,8.93,0,1,0,8.39-9.44A8.93,8.93,0,0,0,407.45,191.51Z"/><path class="ace7f7a4-229e-4b09-b68e-a589f448381d" d="M426.88,226.77c1.16-5.1,3.44-16.37,3.44-16.37l1,11.21c-1.12,3.32-2.09,6.37-2.05,8.14.07,2.94.29,6.18.55,9.46h0S425.72,231.87,426.88,226.77Z"/><path class="ac3160b2-17aa-4519-931d-67f224b85db2" d="M388.68,236.62a7.52,7.52,0,0,0-2.61,1.75,17,17,0,0,0-1.78,2.39c-.87,1.3-1.6,4.1-1.07,4.45s3.56-4.69,4-3.52,0,2.26.62,2.28,2.81-5.08,4.53-6.65S388.68,236.62,388.68,236.62Z"/><path class="aa24e727-93ce-473e-ba0d-ac43b13f83cc" d="M418.61,314.23a13.93,13.93,0,0,1-1.91-.19h0l-1.31-52.52Z"/><path class="fc507b6e-6e2a-4c8d-b0e5-a0f0707bae77" d="M412.93,191.76c-4.47,1.59-5.34.62-5.39.57,0-.27-.07-.55-.09-.82a9,9,0,0,1,.3-2.86l11.62-1.57A12.67,12.67,0,0,1,412.93,191.76Z"/><path class="ecfa5437-1593-4e40-bee7-61d37004b0da" d="M407.13,182.61c1.06-.9,4.86-5.37,11.69-4.32,4.26.66,7.85,3.57,8.65,10.2a15.21,15.21,0,0,1-4.13,12.13,3.07,3.07,0,0,1-.48-.24c-1.71-1.13-1.89-1.75-1.89-1.75l-.38-3.39a.94.94,0,0,1,.85-.94,1.7,1.7,0,0,0,1.25-.76c1-1.28.53-3.28-1.43-3.35a1.51,1.51,0,0,1-1.57-1.12.79.79,0,0,0-1-.54c-2.23.81-7.73,2.55-11.26,1.54C402.87,188.79,406.08,183.52,407.13,182.61Z"/><path class="e37ae759-94ec-441b-9d41-fb5ca888d825" d="M412.22,195.79l-2.73-.75a6.56,6.56,0,0,0,3.2,2.57c1.91.53,2.2-1.08,2.2-1.08Z"/><path class="acbd1c3a-1265-424e-826d-7bf6c944c2ab" d="M427.29,233.52l-4.08-6.4-.85.14-6.58,1-4.16-3.55-2.1-9.11-6.28-2.37-.37.84-2.74,6.33-4.46.27-7-6.43-4.8,3,.36,1.05,2.69,7.92-2.15,3.93-7.81,0-.51,6.68.86.64,6.53,4.88,1.44,5.28-4,6.47,4.07,6.41.86-.14,6.56-1L396.9,263l2.1,9.11,6.28,2.37.36-.82,2.75-6.33,4.47-.28,7,6.42,4.8-3.05-.36-1.05-2.69-7.93,2.16-3.92,7.8,0,.52-6.69-.87-.64-6.53-4.87L423.26,240Zm-17.62,18.57c-3.26,2.07-8.14.22-10.91-4.13s-2.37-9.55.89-11.62,8.15-.23,10.91,4.12S412.93,250,409.67,252.09Z"/><path class="acbd1c3a-1265-424e-826d-7bf6c944c2ab" d="M422.2,234.37l-4.07-6.4-.86.14-6.57,1-4.17-3.55-2.1-9.11-6.27-2.37-.37.84-2.74,6.33-4.47.27-7-6.43-4.79,3,.36,1.05,2.68,7.92-2.14,3.93-7.82,0-.51,6.68.86.64,6.54,4.88,1.44,5.28-4,6.47,4.07,6.4.87-.13,6.55-1,4.17,3.55,2.11,9.11,6.27,2.37.37-.83,2.74-6.32,4.47-.28,7,6.42,4.8-3.05-.36-1-2.69-7.93,2.16-3.92,7.8,0,.52-6.69-.86-.64-6.54-4.87-1.43-5.29Zm-17.62,18.57c-3.26,2.07-8.14.22-10.91-4.13s-2.36-9.55.89-11.63,8.15-.22,10.91,4.13S407.84,250.86,404.58,252.94Z"/><path class="abe7bebe-e1aa-4c60-b131-4752d350f421" d="M423.05,233.52l-4.07-6.4-.86.14-6.57,1-4.17-3.55-2.1-9.11L399,213.26l-.37.84-2.75,6.33-4.46.27-7-6.43-4.8,3,.37,1.05,2.68,7.92-2.15,3.93-7.81,0-.51,6.68.86.64,6.53,4.88,1.44,5.28-4,6.47,4.07,6.41.87-.14,6.55-1,4.17,3.55,2.11,9.11,6.27,2.37.37-.82,2.74-6.33,4.47-.28,7,6.42,4.8-3.05-.36-1.05-2.69-7.93,2.16-3.92,7.8,0,.52-6.69-.86-.64-6.54-4.87L419,240Zm-17.62,18.57c-3.26,2.07-8.14.22-10.91-4.13s-2.37-9.55.89-11.62,8.15-.23,10.91,4.12S408.69,250,405.43,252.09Z"/><path class="ac3160b2-17aa-4519-931d-67f224b85db2" d="M432.24,229.83l.42,6-.88,17.64a2.53,2.53,0,0,0,2.39.21c1-.45,3.21-13.36,4.11-19a3.15,3.15,0,0,0-2-3.46Z"/><path class="bdfd67fd-7099-4a70-bc57-20b8fcd4182e" d="M433.22,206.29s2.8,1.07,4.38,9.65,2.76,17.17-.06,18.27-5.17,1.94-6-.35-1.34-13.35-1.45-17.32S429.84,207.08,433.22,206.29Z"/><path class="ac3160b2-17aa-4519-931d-67f224b85db2" d="M434.61,252.17a54.25,54.25,0,0,1-4.55,5.85c-1.34,1.19-4.07,2.65-4.55,2.1s5-5.19,3.56-5.56-2.35.41-2.47-.3,5.25-4,6.77-6.19S434.61,252.17,434.61,252.17Z"/><ellipse class="fce4eb39-70e9-4d9a-86ac-cea60f5808e4" cx="400.99" cy="244.72" rx="12.66" ry="16.72" transform="translate(-68.77 242.39) rotate(-31.11)"/></svg>